G04 #@! TF.GenerationSoftware,KiCad,Pcbnew,7.0.8-7.0.8~ubuntu22.04.1*
G04 #@! TF.CreationDate,2023-10-24T23:53:50-07:00*
G04 #@! TF.ProjectId,tentacle-board,74656e74-6163-46c6-952d-626f6172642e,REV1*
G04 #@! TF.SameCoordinates,Original*
G04 #@! TF.FileFunction,Legend,Bot*
G04 #@! TF.FilePolarity,Positive*
%FSLAX46Y46*%
G04 Gerber Fmt 4.6, Leading zero omitted, Abs format (unit mm)*
G04 Created by KiCad (PCBNEW 7.0.8-7.0.8~ubuntu22.04.1) date 2023-10-24 23:53:50*
%MOMM*%
%LPD*%
G01*
G04 APERTURE LIST*
G04 Aperture macros list*
%AMRoundRect*
0 Rectangle with rounded corners*
0 $1 Rounding radius*
0 $2 $3 $4 $5 $6 $7 $8 $9 X,Y pos of 4 corners*
0 Add a 4 corners polygon primitive as box body*
4,1,4,$2,$3,$4,$5,$6,$7,$8,$9,$2,$3,0*
0 Add four circle primitives for the rounded corners*
1,1,$1+$1,$2,$3*
1,1,$1+$1,$4,$5*
1,1,$1+$1,$6,$7*
1,1,$1+$1,$8,$9*
0 Add four rect primitives between the rounded corners*
20,1,$1+$1,$2,$3,$4,$5,0*
20,1,$1+$1,$4,$5,$6,$7,0*
20,1,$1+$1,$6,$7,$8,$9,0*
20,1,$1+$1,$8,$9,$2,$3,0*%
%AMHorizOval*
0 Thick line with rounded ends*
0 $1 width*
0 $2 $3 position (X,Y) of the first rounded end (center of the circle)*
0 $4 $5 position (X,Y) of the second rounded end (center of the circle)*
0 Add line between two ends*
20,1,$1,$2,$3,$4,$5,0*
0 Add two circle primitives to create the rounded ends*
1,1,$1,$2,$3*
1,1,$1,$4,$5*%
G04 Aperture macros list end*
%ADD10C,0.200000*%
%ADD11C,0.150000*%
%ADD12C,0.400000*%
%ADD13C,0.010000*%
%ADD14C,2.702000*%
%ADD15C,3.602000*%
%ADD16RoundRect,0.301000X0.936916X0.088388X0.088388X0.936916X-0.936916X-0.088388X-0.088388X-0.936916X0*%
%ADD17HorizOval,1.802000X0.088388X0.088388X-0.088388X-0.088388X0*%
%ADD18RoundRect,0.301000X0.088388X-0.936916X0.936916X-0.088388X-0.088388X0.936916X-0.936916X0.088388X0*%
%ADD19HorizOval,1.802000X-0.088388X0.088388X0.088388X-0.088388X0*%
%ADD20RoundRect,0.301000X0.600000X0.750000X-0.600000X0.750000X-0.600000X-0.750000X0.600000X-0.750000X0*%
%ADD21O,1.802000X2.102000*%
G04 APERTURE END LIST*
D10*
G36*
X138131837Y-104099738D02*
G01*
X138202746Y-104135193D01*
X138227414Y-104159860D01*
X138257219Y-104219470D01*
X138257219Y-104267494D01*
X138227414Y-104327103D01*
X138202746Y-104351770D01*
X138131837Y-104387225D01*
X137963956Y-104429196D01*
X137750480Y-104429196D01*
X137582599Y-104387225D01*
X137511692Y-104351772D01*
X137487024Y-104327103D01*
X137457219Y-104267493D01*
X137457219Y-104219470D01*
X137487024Y-104159860D01*
X137511692Y-104135191D01*
X137582599Y-104099738D01*
X137750480Y-104057768D01*
X137963956Y-104057768D01*
X138131837Y-104099738D01*
G37*
G36*
X138600076Y-104772053D02*
G01*
X137114362Y-104772053D01*
X137114362Y-104291101D01*
X137257219Y-104291101D01*
X137264342Y-104313024D01*
X137267776Y-104335822D01*
X137315395Y-104431060D01*
X137326768Y-104442607D01*
X137334127Y-104457050D01*
X137381746Y-104504668D01*
X137396187Y-104512026D01*
X137407736Y-104523401D01*
X137502973Y-104571020D01*
X137513994Y-104572680D01*
X137523441Y-104578591D01*
X137713917Y-104626210D01*
X137726333Y-104625349D01*
X137738171Y-104629196D01*
X137976266Y-104629196D01*
X137988103Y-104625349D01*
X138000520Y-104626210D01*
X138190995Y-104578591D01*
X138200441Y-104572680D01*
X138211463Y-104571020D01*
X138306701Y-104523401D01*
X138318248Y-104512027D01*
X138332690Y-104504669D01*
X138380310Y-104457051D01*
X138387669Y-104442607D01*
X138399043Y-104431060D01*
X138446662Y-104335823D01*
X138450095Y-104313024D01*
X138457219Y-104291101D01*
X138457219Y-104195863D01*
X138450095Y-104173939D01*
X138446662Y-104151141D01*
X138399043Y-104055904D01*
X138387669Y-104044356D01*
X138380310Y-104029913D01*
X138332690Y-103982295D01*
X138318248Y-103974936D01*
X138306701Y-103963563D01*
X138211463Y-103915944D01*
X138200441Y-103914283D01*
X138190995Y-103908373D01*
X138000520Y-103860754D01*
X137988103Y-103861614D01*
X137976266Y-103857768D01*
X137738171Y-103857768D01*
X137726333Y-103861614D01*
X137713917Y-103860754D01*
X137523441Y-103908373D01*
X137513994Y-103914283D01*
X137502973Y-103915944D01*
X137407736Y-103963563D01*
X137396187Y-103974937D01*
X137381746Y-103982296D01*
X137334127Y-104029914D01*
X137326768Y-104044356D01*
X137315395Y-104055904D01*
X137267776Y-104151142D01*
X137264342Y-104173939D01*
X137257219Y-104195863D01*
X137257219Y-104291101D01*
X137114362Y-104291101D01*
X137114362Y-103544841D01*
X138163211Y-103544841D01*
X138166874Y-103552029D01*
X138166874Y-103560099D01*
X138171615Y-103566625D01*
X138172878Y-103574595D01*
X138184079Y-103585797D01*
X138191270Y-103599908D01*
X138238890Y-103647527D01*
X138253000Y-103654716D01*
X138264201Y-103665917D01*
X138279846Y-103668394D01*
X138293958Y-103675585D01*
X138309600Y-103673107D01*
X138325243Y-103675585D01*
X138339354Y-103668394D01*
X138355000Y-103665917D01*
X138366199Y-103654717D01*
X138380311Y-103647527D01*
X138427929Y-103599908D01*
X138435119Y-103585796D01*
X138446320Y-103574596D01*
X138447582Y-103566627D01*
X138452325Y-103560099D01*
X138452325Y-103552029D01*
X138455988Y-103544841D01*
X138453510Y-103529197D01*
X138455988Y-103513553D01*
X138452325Y-103506364D01*
X138452325Y-103498295D01*
X138447582Y-103491766D01*
X138446320Y-103483798D01*
X138435119Y-103472597D01*
X138427929Y-103458486D01*
X138380311Y-103410867D01*
X138366199Y-103403676D01*
X138355000Y-103392477D01*
X138339354Y-103389999D01*
X138325243Y-103382809D01*
X138309600Y-103385286D01*
X138293958Y-103382809D01*
X138279846Y-103389999D01*
X138264201Y-103392477D01*
X138253000Y-103403677D01*
X138238890Y-103410867D01*
X138191270Y-103458486D01*
X138184079Y-103472596D01*
X138172878Y-103483799D01*
X138171615Y-103491768D01*
X138166874Y-103498295D01*
X138166874Y-103506364D01*
X138163211Y-103513553D01*
X138165688Y-103529197D01*
X138163211Y-103544841D01*
X137114362Y-103544841D01*
X137114362Y-102841954D01*
X137260945Y-102841954D01*
X137262113Y-102843706D01*
X137262113Y-102845813D01*
X137279153Y-102869267D01*
X137295227Y-102893378D01*
X137297201Y-102894108D01*
X137298440Y-102895813D01*
X137326003Y-102904768D01*
X137353188Y-102914830D01*
X137355216Y-102914260D01*
X137357219Y-102914911D01*
X138257219Y-102914911D01*
X138257219Y-103100625D01*
X138276317Y-103159404D01*
X138326317Y-103195731D01*
X138388121Y-103195731D01*
X138438121Y-103159404D01*
X138457219Y-103100625D01*
X138457219Y-102529197D01*
X138438121Y-102470418D01*
X138388121Y-102434091D01*
X138326317Y-102434091D01*
X138276317Y-102470418D01*
X138257219Y-102529197D01*
X138257219Y-102714911D01*
X137646260Y-102714911D01*
X137666025Y-102695146D01*
X137673383Y-102680703D01*
X137684757Y-102669156D01*
X137732376Y-102573919D01*
X137741581Y-102512804D01*
X137713105Y-102457952D01*
X137657826Y-102430312D01*
X137596859Y-102440443D01*
X137553490Y-102484476D01*
X137513129Y-102565198D01*
X137436365Y-102641962D01*
X137301749Y-102731706D01*
X137300443Y-102733357D01*
X137298440Y-102734009D01*
X137281397Y-102757466D01*
X137263436Y-102780201D01*
X137263351Y-102782304D01*
X137262113Y-102784009D01*
X137262113Y-102812998D01*
X137260945Y-102841954D01*
X137114362Y-102841954D01*
X137114362Y-102244241D01*
X137257221Y-102244241D01*
X137276766Y-102302873D01*
X137327040Y-102338820D01*
X137388842Y-102338350D01*
X138388841Y-102005017D01*
X138413104Y-101987106D01*
X138437672Y-101969540D01*
X138437923Y-101968785D01*
X138438565Y-101968312D01*
X138447680Y-101939515D01*
X138457216Y-101910908D01*
X138456975Y-101910149D01*
X138457216Y-101909390D01*
X138447680Y-101880782D01*
X138438565Y-101851986D01*
X138437923Y-101851512D01*
X138437672Y-101850758D01*
X138413104Y-101833191D01*
X138388841Y-101815281D01*
X137388842Y-101481948D01*
X137327040Y-101481478D01*
X137276766Y-101517425D01*
X137257221Y-101576057D01*
X137275873Y-101634979D01*
X137325596Y-101671684D01*
X138040991Y-101910149D01*
X137325596Y-102148614D01*
X137275873Y-102185319D01*
X137257221Y-102244241D01*
X137114362Y-102244241D01*
X137114362Y-101338621D01*
X138600076Y-101338621D01*
X138600076Y-104772053D01*
G37*
D11*
X137584295Y-83724874D02*
X137584295Y-84182017D01*
X138384295Y-83953445D02*
X137584295Y-83953445D01*
X138346200Y-84753446D02*
X138384295Y-84677255D01*
X138384295Y-84677255D02*
X138384295Y-84524874D01*
X138384295Y-84524874D02*
X138346200Y-84448684D01*
X138346200Y-84448684D02*
X138270009Y-84410588D01*
X138270009Y-84410588D02*
X137965247Y-84410588D01*
X137965247Y-84410588D02*
X137889057Y-84448684D01*
X137889057Y-84448684D02*
X137850961Y-84524874D01*
X137850961Y-84524874D02*
X137850961Y-84677255D01*
X137850961Y-84677255D02*
X137889057Y-84753446D01*
X137889057Y-84753446D02*
X137965247Y-84791541D01*
X137965247Y-84791541D02*
X138041438Y-84791541D01*
X138041438Y-84791541D02*
X138117628Y-84410588D01*
X137850961Y-85134398D02*
X138384295Y-85134398D01*
X137927152Y-85134398D02*
X137889057Y-85172493D01*
X137889057Y-85172493D02*
X137850961Y-85248683D01*
X137850961Y-85248683D02*
X137850961Y-85362969D01*
X137850961Y-85362969D02*
X137889057Y-85439160D01*
X137889057Y-85439160D02*
X137965247Y-85477255D01*
X137965247Y-85477255D02*
X138384295Y-85477255D01*
X137850961Y-85743922D02*
X137850961Y-86048684D01*
X137584295Y-85858208D02*
X138270009Y-85858208D01*
X138270009Y-85858208D02*
X138346200Y-85896303D01*
X138346200Y-85896303D02*
X138384295Y-85972493D01*
X138384295Y-85972493D02*
X138384295Y-86048684D01*
X138384295Y-86658208D02*
X137965247Y-86658208D01*
X137965247Y-86658208D02*
X137889057Y-86620113D01*
X137889057Y-86620113D02*
X137850961Y-86543922D01*
X137850961Y-86543922D02*
X137850961Y-86391541D01*
X137850961Y-86391541D02*
X137889057Y-86315351D01*
X138346200Y-86658208D02*
X138384295Y-86582017D01*
X138384295Y-86582017D02*
X138384295Y-86391541D01*
X138384295Y-86391541D02*
X138346200Y-86315351D01*
X138346200Y-86315351D02*
X138270009Y-86277255D01*
X138270009Y-86277255D02*
X138193819Y-86277255D01*
X138193819Y-86277255D02*
X138117628Y-86315351D01*
X138117628Y-86315351D02*
X138079533Y-86391541D01*
X138079533Y-86391541D02*
X138079533Y-86582017D01*
X138079533Y-86582017D02*
X138041438Y-86658208D01*
X138346200Y-87382018D02*
X138384295Y-87305827D01*
X138384295Y-87305827D02*
X138384295Y-87153446D01*
X138384295Y-87153446D02*
X138346200Y-87077256D01*
X138346200Y-87077256D02*
X138308104Y-87039161D01*
X138308104Y-87039161D02*
X138231914Y-87001065D01*
X138231914Y-87001065D02*
X138003342Y-87001065D01*
X138003342Y-87001065D02*
X137927152Y-87039161D01*
X137927152Y-87039161D02*
X137889057Y-87077256D01*
X137889057Y-87077256D02*
X137850961Y-87153446D01*
X137850961Y-87153446D02*
X137850961Y-87305827D01*
X137850961Y-87305827D02*
X137889057Y-87382018D01*
X138384295Y-87839160D02*
X138346200Y-87762970D01*
X138346200Y-87762970D02*
X138270009Y-87724875D01*
X138270009Y-87724875D02*
X137584295Y-87724875D01*
X138346200Y-88448685D02*
X138384295Y-88372494D01*
X138384295Y-88372494D02*
X138384295Y-88220113D01*
X138384295Y-88220113D02*
X138346200Y-88143923D01*
X138346200Y-88143923D02*
X138270009Y-88105827D01*
X138270009Y-88105827D02*
X137965247Y-88105827D01*
X137965247Y-88105827D02*
X137889057Y-88143923D01*
X137889057Y-88143923D02*
X137850961Y-88220113D01*
X137850961Y-88220113D02*
X137850961Y-88372494D01*
X137850961Y-88372494D02*
X137889057Y-88448685D01*
X137889057Y-88448685D02*
X137965247Y-88486780D01*
X137965247Y-88486780D02*
X138041438Y-88486780D01*
X138041438Y-88486780D02*
X138117628Y-88105827D01*
X138308104Y-89896304D02*
X138346200Y-89858208D01*
X138346200Y-89858208D02*
X138384295Y-89743923D01*
X138384295Y-89743923D02*
X138384295Y-89667732D01*
X138384295Y-89667732D02*
X138346200Y-89553446D01*
X138346200Y-89553446D02*
X138270009Y-89477256D01*
X138270009Y-89477256D02*
X138193819Y-89439161D01*
X138193819Y-89439161D02*
X138041438Y-89401065D01*
X138041438Y-89401065D02*
X137927152Y-89401065D01*
X137927152Y-89401065D02*
X137774771Y-89439161D01*
X137774771Y-89439161D02*
X137698580Y-89477256D01*
X137698580Y-89477256D02*
X137622390Y-89553446D01*
X137622390Y-89553446D02*
X137584295Y-89667732D01*
X137584295Y-89667732D02*
X137584295Y-89743923D01*
X137584295Y-89743923D02*
X137622390Y-89858208D01*
X137622390Y-89858208D02*
X137660485Y-89896304D01*
X138384295Y-90353446D02*
X138346200Y-90277256D01*
X138346200Y-90277256D02*
X138308104Y-90239161D01*
X138308104Y-90239161D02*
X138231914Y-90201065D01*
X138231914Y-90201065D02*
X138003342Y-90201065D01*
X138003342Y-90201065D02*
X137927152Y-90239161D01*
X137927152Y-90239161D02*
X137889057Y-90277256D01*
X137889057Y-90277256D02*
X137850961Y-90353446D01*
X137850961Y-90353446D02*
X137850961Y-90467732D01*
X137850961Y-90467732D02*
X137889057Y-90543923D01*
X137889057Y-90543923D02*
X137927152Y-90582018D01*
X137927152Y-90582018D02*
X138003342Y-90620113D01*
X138003342Y-90620113D02*
X138231914Y-90620113D01*
X138231914Y-90620113D02*
X138308104Y-90582018D01*
X138308104Y-90582018D02*
X138346200Y-90543923D01*
X138346200Y-90543923D02*
X138384295Y-90467732D01*
X138384295Y-90467732D02*
X138384295Y-90353446D01*
X137850961Y-90962971D02*
X138384295Y-90962971D01*
X137927152Y-90962971D02*
X137889057Y-91001066D01*
X137889057Y-91001066D02*
X137850961Y-91077256D01*
X137850961Y-91077256D02*
X137850961Y-91191542D01*
X137850961Y-91191542D02*
X137889057Y-91267733D01*
X137889057Y-91267733D02*
X137965247Y-91305828D01*
X137965247Y-91305828D02*
X138384295Y-91305828D01*
X137850961Y-91572495D02*
X137850961Y-91877257D01*
X137584295Y-91686781D02*
X138270009Y-91686781D01*
X138270009Y-91686781D02*
X138346200Y-91724876D01*
X138346200Y-91724876D02*
X138384295Y-91801066D01*
X138384295Y-91801066D02*
X138384295Y-91877257D01*
X138384295Y-92143924D02*
X137850961Y-92143924D01*
X138003342Y-92143924D02*
X137927152Y-92182019D01*
X137927152Y-92182019D02*
X137889057Y-92220114D01*
X137889057Y-92220114D02*
X137850961Y-92296305D01*
X137850961Y-92296305D02*
X137850961Y-92372495D01*
X138384295Y-92753447D02*
X138346200Y-92677257D01*
X138346200Y-92677257D02*
X138308104Y-92639162D01*
X138308104Y-92639162D02*
X138231914Y-92601066D01*
X138231914Y-92601066D02*
X138003342Y-92601066D01*
X138003342Y-92601066D02*
X137927152Y-92639162D01*
X137927152Y-92639162D02*
X137889057Y-92677257D01*
X137889057Y-92677257D02*
X137850961Y-92753447D01*
X137850961Y-92753447D02*
X137850961Y-92867733D01*
X137850961Y-92867733D02*
X137889057Y-92943924D01*
X137889057Y-92943924D02*
X137927152Y-92982019D01*
X137927152Y-92982019D02*
X138003342Y-93020114D01*
X138003342Y-93020114D02*
X138231914Y-93020114D01*
X138231914Y-93020114D02*
X138308104Y-92982019D01*
X138308104Y-92982019D02*
X138346200Y-92943924D01*
X138346200Y-92943924D02*
X138384295Y-92867733D01*
X138384295Y-92867733D02*
X138384295Y-92753447D01*
X138384295Y-93477257D02*
X138346200Y-93401067D01*
X138346200Y-93401067D02*
X138270009Y-93362972D01*
X138270009Y-93362972D02*
X137584295Y-93362972D01*
X138384295Y-93896305D02*
X138346200Y-93820115D01*
X138346200Y-93820115D02*
X138270009Y-93782020D01*
X138270009Y-93782020D02*
X137584295Y-93782020D01*
X138346200Y-94505830D02*
X138384295Y-94429639D01*
X138384295Y-94429639D02*
X138384295Y-94277258D01*
X138384295Y-94277258D02*
X138346200Y-94201068D01*
X138346200Y-94201068D02*
X138270009Y-94162972D01*
X138270009Y-94162972D02*
X137965247Y-94162972D01*
X137965247Y-94162972D02*
X137889057Y-94201068D01*
X137889057Y-94201068D02*
X137850961Y-94277258D01*
X137850961Y-94277258D02*
X137850961Y-94429639D01*
X137850961Y-94429639D02*
X137889057Y-94505830D01*
X137889057Y-94505830D02*
X137965247Y-94543925D01*
X137965247Y-94543925D02*
X138041438Y-94543925D01*
X138041438Y-94543925D02*
X138117628Y-94162972D01*
X138384295Y-94886782D02*
X137850961Y-94886782D01*
X138003342Y-94886782D02*
X137927152Y-94924877D01*
X137927152Y-94924877D02*
X137889057Y-94962972D01*
X137889057Y-94962972D02*
X137850961Y-95039163D01*
X137850961Y-95039163D02*
X137850961Y-95115353D01*
D12*
G36*
X136184822Y-84668527D02*
G01*
X136150640Y-84667781D01*
X136117771Y-84665567D01*
X136086183Y-84661916D01*
X136055840Y-84656864D01*
X136026709Y-84650444D01*
X135998755Y-84642690D01*
X135971944Y-84633634D01*
X135946242Y-84623312D01*
X135921615Y-84611755D01*
X135898028Y-84598999D01*
X135875448Y-84585076D01*
X135853840Y-84570021D01*
X135833170Y-84553866D01*
X135813404Y-84536646D01*
X135794508Y-84518395D01*
X135776448Y-84499145D01*
X135759188Y-84478930D01*
X135742696Y-84457785D01*
X135726938Y-84435742D01*
X135711878Y-84412835D01*
X135697483Y-84389099D01*
X135683718Y-84364566D01*
X135670550Y-84339270D01*
X135657944Y-84313245D01*
X135645866Y-84286525D01*
X135634282Y-84259143D01*
X135623158Y-84231132D01*
X135612459Y-84202527D01*
X135602152Y-84173361D01*
X135592202Y-84143667D01*
X135582575Y-84113480D01*
X135573237Y-84082833D01*
X135564041Y-84051488D01*
X135555029Y-84021551D01*
X135546182Y-83992993D01*
X135537479Y-83965789D01*
X135528899Y-83939910D01*
X135520421Y-83915331D01*
X135512025Y-83892023D01*
X135503689Y-83869960D01*
X135495394Y-83849115D01*
X135487118Y-83829461D01*
X135478841Y-83810970D01*
X135462198Y-83777373D01*
X135445302Y-83748107D01*
X135427984Y-83722956D01*
X135410080Y-83701705D01*
X135391422Y-83684136D01*
X135371846Y-83670034D01*
X135351186Y-83659183D01*
X135329274Y-83651367D01*
X135305946Y-83646369D01*
X135281035Y-83643973D01*
X135267934Y-83643684D01*
X135239321Y-83645295D01*
X135212642Y-83650047D01*
X135187886Y-83657817D01*
X135165039Y-83668482D01*
X135144090Y-83681922D01*
X135125026Y-83698012D01*
X135107836Y-83716631D01*
X135092506Y-83737657D01*
X135079026Y-83760966D01*
X135067383Y-83786437D01*
X135057564Y-83813948D01*
X135049558Y-83843376D01*
X135043352Y-83874598D01*
X135038934Y-83907492D01*
X135036293Y-83941936D01*
X135035415Y-83977808D01*
X135036021Y-84007265D01*
X135037863Y-84036645D01*
X135040972Y-84065941D01*
X135045383Y-84095144D01*
X135051127Y-84124247D01*
X135058238Y-84153242D01*
X135066749Y-84182122D01*
X135076692Y-84210877D01*
X135088100Y-84239501D01*
X135101007Y-84267985D01*
X135115446Y-84296322D01*
X135131448Y-84324503D01*
X135149048Y-84352522D01*
X135168277Y-84380369D01*
X135189170Y-84408038D01*
X135211758Y-84435519D01*
X134995847Y-84627006D01*
X134981043Y-84610152D01*
X134966673Y-84593108D01*
X134952740Y-84575866D01*
X134939246Y-84558420D01*
X134926194Y-84540763D01*
X134913585Y-84522887D01*
X134901423Y-84504786D01*
X134889709Y-84486452D01*
X134878445Y-84467878D01*
X134867635Y-84449057D01*
X134857281Y-84429983D01*
X134847384Y-84410648D01*
X134837947Y-84391044D01*
X134828973Y-84371166D01*
X134820463Y-84351006D01*
X134812421Y-84330556D01*
X134804848Y-84309810D01*
X134797747Y-84288761D01*
X134791119Y-84267402D01*
X134784968Y-84245725D01*
X134779296Y-84223723D01*
X134774105Y-84201390D01*
X134769397Y-84178718D01*
X134765175Y-84155701D01*
X134761441Y-84132331D01*
X134758197Y-84108601D01*
X134755446Y-84084504D01*
X134753190Y-84060033D01*
X134751431Y-84035181D01*
X134750172Y-84009941D01*
X134749415Y-83984306D01*
X134749162Y-83958269D01*
X134749790Y-83922367D01*
X134751660Y-83887043D01*
X134754753Y-83852334D01*
X134759049Y-83818276D01*
X134764528Y-83784906D01*
X134771171Y-83752262D01*
X134778957Y-83720380D01*
X134787867Y-83689296D01*
X134797881Y-83659049D01*
X134808980Y-83629674D01*
X134821143Y-83601209D01*
X134834350Y-83573689D01*
X134848583Y-83547153D01*
X134863821Y-83521638D01*
X134880045Y-83497179D01*
X134897234Y-83473813D01*
X134915370Y-83451578D01*
X134934431Y-83430511D01*
X134954399Y-83410648D01*
X134975254Y-83392026D01*
X134996975Y-83374682D01*
X135019544Y-83358653D01*
X135042940Y-83343976D01*
X135067143Y-83330687D01*
X135092135Y-83318823D01*
X135117894Y-83308422D01*
X135144402Y-83299520D01*
X135171638Y-83292154D01*
X135199583Y-83286360D01*
X135228217Y-83282177D01*
X135257521Y-83279639D01*
X135287473Y-83278785D01*
X135315717Y-83279434D01*
X135343124Y-83281377D01*
X135369715Y-83284609D01*
X135395509Y-83289124D01*
X135420526Y-83294917D01*
X135444785Y-83301982D01*
X135468307Y-83310315D01*
X135491111Y-83319910D01*
X135513216Y-83330761D01*
X135534643Y-83342863D01*
X135555410Y-83356211D01*
X135575539Y-83370800D01*
X135595047Y-83386624D01*
X135613956Y-83403677D01*
X135632284Y-83421954D01*
X135650052Y-83441451D01*
X135667279Y-83462161D01*
X135683984Y-83484079D01*
X135700188Y-83507201D01*
X135715910Y-83531519D01*
X135731169Y-83557030D01*
X135745986Y-83583728D01*
X135760380Y-83611607D01*
X135774371Y-83640662D01*
X135787979Y-83670887D01*
X135801222Y-83702278D01*
X135814122Y-83734829D01*
X135826697Y-83768534D01*
X135838967Y-83803389D01*
X135850952Y-83839387D01*
X135862671Y-83876524D01*
X135874145Y-83914794D01*
X135882614Y-83942669D01*
X135891001Y-83969252D01*
X135899323Y-83994568D01*
X135907602Y-84018646D01*
X135915856Y-84041510D01*
X135924106Y-84063189D01*
X135932371Y-84083709D01*
X135940670Y-84103097D01*
X135949024Y-84121379D01*
X135965974Y-84154734D01*
X135983377Y-84183988D01*
X136001391Y-84209354D01*
X136020174Y-84231048D01*
X136039882Y-84249281D01*
X136060674Y-84264270D01*
X136082707Y-84276226D01*
X136106138Y-84285366D01*
X136131125Y-84291902D01*
X136157824Y-84296048D01*
X136186394Y-84298019D01*
X136201430Y-84298255D01*
X136237255Y-84296288D01*
X136270726Y-84290511D01*
X136301851Y-84281108D01*
X136330635Y-84268266D01*
X136357082Y-84252170D01*
X136381200Y-84233005D01*
X136402994Y-84210956D01*
X136422470Y-84186209D01*
X136439633Y-84158948D01*
X136454489Y-84129360D01*
X136467043Y-84097630D01*
X136477302Y-84063942D01*
X136485272Y-84028483D01*
X136490957Y-83991437D01*
X136494364Y-83952991D01*
X136495215Y-83933300D01*
X136495498Y-83913328D01*
X136495286Y-83892576D01*
X136494648Y-83872170D01*
X136493589Y-83852103D01*
X136492109Y-83832365D01*
X136487896Y-83793849D01*
X136482027Y-83756555D01*
X136474518Y-83720417D01*
X136465385Y-83685369D01*
X136454645Y-83651347D01*
X136442315Y-83618283D01*
X136428410Y-83586112D01*
X136412947Y-83554768D01*
X136395943Y-83524186D01*
X136377415Y-83494299D01*
X136357378Y-83465042D01*
X136335849Y-83436349D01*
X136312844Y-83408153D01*
X136288381Y-83380390D01*
X136508688Y-83180600D01*
X136524641Y-83197232D01*
X136540165Y-83214250D01*
X136555256Y-83231656D01*
X136569908Y-83249450D01*
X136584115Y-83267636D01*
X136597874Y-83286215D01*
X136611178Y-83305188D01*
X136624024Y-83324558D01*
X136636404Y-83344326D01*
X136648316Y-83364496D01*
X136659752Y-83385067D01*
X136670709Y-83406042D01*
X136681181Y-83427424D01*
X136691164Y-83449214D01*
X136700651Y-83471413D01*
X136709638Y-83494024D01*
X136718120Y-83517049D01*
X136726092Y-83540489D01*
X136733549Y-83564347D01*
X136740485Y-83588624D01*
X136746895Y-83613321D01*
X136752775Y-83638442D01*
X136758118Y-83663988D01*
X136762921Y-83689960D01*
X136767179Y-83716362D01*
X136770885Y-83743193D01*
X136774034Y-83770457D01*
X136776623Y-83798155D01*
X136778645Y-83826290D01*
X136780096Y-83854862D01*
X136780970Y-83883874D01*
X136781263Y-83913328D01*
X136780546Y-83957183D01*
X136778412Y-83999894D01*
X136774888Y-84041445D01*
X136770000Y-84081819D01*
X136763773Y-84121001D01*
X136756234Y-84158973D01*
X136747408Y-84195720D01*
X136737322Y-84231226D01*
X136726001Y-84265473D01*
X136713473Y-84298446D01*
X136699762Y-84330129D01*
X136684894Y-84360504D01*
X136668897Y-84389557D01*
X136651795Y-84417271D01*
X136633616Y-84443628D01*
X136614384Y-84468614D01*
X136594126Y-84492212D01*
X136572868Y-84514405D01*
X136550635Y-84535178D01*
X136527455Y-84554513D01*
X136503353Y-84572396D01*
X136478355Y-84588808D01*
X136452487Y-84603735D01*
X136425775Y-84617160D01*
X136398245Y-84629066D01*
X136369923Y-84639438D01*
X136340836Y-84648258D01*
X136311008Y-84655512D01*
X136280467Y-84661181D01*
X136249238Y-84665251D01*
X136217348Y-84667705D01*
X136184822Y-84668527D01*
G37*
G36*
X136029921Y-84949388D02*
G01*
X136073346Y-84950809D01*
X136115767Y-84953195D01*
X136157155Y-84956561D01*
X136197482Y-84960921D01*
X136236720Y-84966290D01*
X136274840Y-84972682D01*
X136311813Y-84980112D01*
X136347611Y-84988595D01*
X136382205Y-84998145D01*
X136415568Y-85008777D01*
X136447671Y-85020505D01*
X136478485Y-85033344D01*
X136507981Y-85047308D01*
X136536132Y-85062413D01*
X136562909Y-85078672D01*
X136588284Y-85096100D01*
X136612228Y-85114712D01*
X136634712Y-85134523D01*
X136655708Y-85155546D01*
X136675189Y-85177797D01*
X136693124Y-85201290D01*
X136709486Y-85226040D01*
X136724247Y-85252061D01*
X136737378Y-85279368D01*
X136748850Y-85307976D01*
X136758635Y-85337898D01*
X136766705Y-85369150D01*
X136773031Y-85401746D01*
X136777585Y-85435701D01*
X136780339Y-85471029D01*
X136781263Y-85507745D01*
X136780449Y-85539611D01*
X136778048Y-85570693D01*
X136774124Y-85600943D01*
X136768738Y-85630310D01*
X136761952Y-85658743D01*
X136753828Y-85686194D01*
X136744430Y-85712611D01*
X136733818Y-85737944D01*
X136722056Y-85762145D01*
X136709206Y-85785161D01*
X136695330Y-85806945D01*
X136680490Y-85827444D01*
X136664748Y-85846610D01*
X136648166Y-85864392D01*
X136630808Y-85880739D01*
X136612735Y-85895603D01*
X137306873Y-85895603D01*
X137345952Y-86240474D01*
X135249371Y-86240474D01*
X135249371Y-85940055D01*
X135350000Y-85923935D01*
X135332389Y-85909094D01*
X135315500Y-85892814D01*
X135299390Y-85875145D01*
X135284115Y-85856135D01*
X135269733Y-85835834D01*
X135256302Y-85814292D01*
X135243878Y-85791558D01*
X135232519Y-85767681D01*
X135222281Y-85742711D01*
X135213224Y-85716696D01*
X135205402Y-85689687D01*
X135198874Y-85661733D01*
X135193697Y-85632883D01*
X135192075Y-85620097D01*
X135458932Y-85620097D01*
X135459608Y-85642028D01*
X135461620Y-85663311D01*
X135464940Y-85683950D01*
X135469541Y-85703949D01*
X135475396Y-85723312D01*
X135482476Y-85742045D01*
X135490757Y-85760151D01*
X135500209Y-85777634D01*
X135510806Y-85794499D01*
X135522521Y-85810750D01*
X135535326Y-85826391D01*
X135549195Y-85841427D01*
X135564100Y-85855862D01*
X135580013Y-85869700D01*
X135596909Y-85882946D01*
X135614759Y-85895603D01*
X136308897Y-85895603D01*
X136329714Y-85882236D01*
X136349795Y-85868142D01*
X136369056Y-85853317D01*
X136387413Y-85837756D01*
X136404783Y-85821453D01*
X136421082Y-85804404D01*
X136436225Y-85786604D01*
X136450130Y-85768047D01*
X136462713Y-85748729D01*
X136473890Y-85728645D01*
X136483576Y-85707789D01*
X136491690Y-85686157D01*
X136498146Y-85663744D01*
X136502861Y-85640544D01*
X136505752Y-85616553D01*
X136506734Y-85591765D01*
X136505018Y-85558182D01*
X136499785Y-85526682D01*
X136490907Y-85497277D01*
X136478256Y-85469979D01*
X136461704Y-85444800D01*
X136441123Y-85421749D01*
X136416384Y-85400840D01*
X136387360Y-85382083D01*
X136353922Y-85365489D01*
X136335508Y-85358008D01*
X136315943Y-85351071D01*
X136295210Y-85344682D01*
X136273294Y-85338840D01*
X136250178Y-85333548D01*
X136225847Y-85328807D01*
X136200284Y-85324618D01*
X136173474Y-85320984D01*
X136145400Y-85317904D01*
X136116047Y-85315381D01*
X136085399Y-85313417D01*
X136053438Y-85312012D01*
X136020151Y-85311167D01*
X135985519Y-85310886D01*
X135951646Y-85311192D01*
X135918989Y-85312110D01*
X135887538Y-85313638D01*
X135857285Y-85315777D01*
X135828220Y-85318525D01*
X135800334Y-85321882D01*
X135773618Y-85325846D01*
X135748062Y-85330418D01*
X135723657Y-85335595D01*
X135700395Y-85341377D01*
X135678266Y-85347764D01*
X135657260Y-85354755D01*
X135637369Y-85362349D01*
X135618583Y-85370544D01*
X135600893Y-85379341D01*
X135568764Y-85398735D01*
X135540909Y-85420525D01*
X135517254Y-85444703D01*
X135497725Y-85471264D01*
X135482249Y-85500200D01*
X135470752Y-85531507D01*
X135463159Y-85565176D01*
X135459398Y-85601202D01*
X135458932Y-85620097D01*
X135192075Y-85620097D01*
X135189929Y-85603186D01*
X135187626Y-85572692D01*
X135186845Y-85541451D01*
X135187835Y-85506228D01*
X135190775Y-85472007D01*
X135195627Y-85438793D01*
X135202350Y-85406597D01*
X135210902Y-85375424D01*
X135221245Y-85345282D01*
X135233336Y-85316180D01*
X135247135Y-85288125D01*
X135262603Y-85261125D01*
X135279698Y-85235187D01*
X135298379Y-85210320D01*
X135318608Y-85186530D01*
X135340342Y-85163826D01*
X135363541Y-85142214D01*
X135388166Y-85121704D01*
X135414174Y-85102302D01*
X135441527Y-85084017D01*
X135470183Y-85066855D01*
X135500101Y-85050826D01*
X135531242Y-85035935D01*
X135563565Y-85022192D01*
X135597028Y-85009603D01*
X135631593Y-84998177D01*
X135667218Y-84987920D01*
X135703862Y-84978842D01*
X135741485Y-84970949D01*
X135780047Y-84964249D01*
X135819508Y-84958751D01*
X135859826Y-84954460D01*
X135900960Y-84951386D01*
X135942872Y-84949536D01*
X135985519Y-84948918D01*
X136029921Y-84949388D01*
G37*
G36*
X135249371Y-87050872D02*
G01*
X135249371Y-86706001D01*
X136325505Y-86706001D01*
X136351525Y-86706428D01*
X136376911Y-86707708D01*
X136401651Y-86709843D01*
X136425732Y-86712833D01*
X136449141Y-86716679D01*
X136471866Y-86721383D01*
X136493894Y-86726944D01*
X136515213Y-86733364D01*
X136535810Y-86740643D01*
X136555673Y-86748782D01*
X136574788Y-86757782D01*
X136593143Y-86767645D01*
X136610726Y-86778369D01*
X136627524Y-86789957D01*
X136643524Y-86802410D01*
X136658714Y-86815727D01*
X136673081Y-86829910D01*
X136686612Y-86844960D01*
X136699296Y-86860877D01*
X136711118Y-86877663D01*
X136722067Y-86895317D01*
X136732131Y-86913841D01*
X136741296Y-86933236D01*
X136749549Y-86953503D01*
X136756879Y-86974642D01*
X136763272Y-86996653D01*
X136768717Y-87019539D01*
X136773200Y-87043299D01*
X136776708Y-87067935D01*
X136779230Y-87093447D01*
X136780752Y-87119836D01*
X136781263Y-87147103D01*
X136780323Y-87180375D01*
X136777546Y-87213766D01*
X136772994Y-87247109D01*
X136766730Y-87280239D01*
X136758818Y-87312988D01*
X136749320Y-87345189D01*
X136738300Y-87376677D01*
X136725819Y-87407283D01*
X136711942Y-87436842D01*
X136696732Y-87465187D01*
X136680250Y-87492151D01*
X136662561Y-87517566D01*
X136643726Y-87541268D01*
X136623810Y-87563088D01*
X136602875Y-87582861D01*
X136580983Y-87600418D01*
X136750000Y-87617515D01*
X136750000Y-87918911D01*
X135249371Y-87918911D01*
X135249371Y-87574040D01*
X136318667Y-87574040D01*
X136338388Y-87560532D01*
X136357553Y-87545709D01*
X136376062Y-87529650D01*
X136393817Y-87512437D01*
X136410719Y-87494151D01*
X136426670Y-87474873D01*
X136441570Y-87454682D01*
X136455321Y-87433661D01*
X136467823Y-87411891D01*
X136478980Y-87389451D01*
X136488690Y-87366422D01*
X136496857Y-87342887D01*
X136503381Y-87318925D01*
X136508163Y-87294618D01*
X136511104Y-87270045D01*
X136512107Y-87245289D01*
X136511397Y-87221049D01*
X136509223Y-87198507D01*
X136505516Y-87177646D01*
X136500208Y-87158446D01*
X136489096Y-87132720D01*
X136474000Y-87110629D01*
X136454691Y-87092108D01*
X136430939Y-87077095D01*
X136412523Y-87069005D01*
X136391962Y-87062428D01*
X136369189Y-87057344D01*
X136344136Y-87053736D01*
X136316734Y-87051585D01*
X136286915Y-87050872D01*
X135249371Y-87050872D01*
G37*
G36*
X136021597Y-88320719D02*
G01*
X136065054Y-88322996D01*
X136107555Y-88326780D01*
X136149068Y-88332062D01*
X136189560Y-88338832D01*
X136229001Y-88347080D01*
X136267358Y-88356797D01*
X136304600Y-88367974D01*
X136340695Y-88380602D01*
X136375611Y-88394671D01*
X136409316Y-88410171D01*
X136441779Y-88427093D01*
X136472968Y-88445429D01*
X136502852Y-88465168D01*
X136531398Y-88486301D01*
X136558574Y-88508818D01*
X136584350Y-88532711D01*
X136608692Y-88557970D01*
X136631570Y-88584586D01*
X136652952Y-88612548D01*
X136672806Y-88641848D01*
X136691100Y-88672477D01*
X136707802Y-88704425D01*
X136722881Y-88737682D01*
X136736305Y-88772239D01*
X136748042Y-88808087D01*
X136758060Y-88845216D01*
X136766328Y-88883618D01*
X136772815Y-88923282D01*
X136777487Y-88964199D01*
X136780313Y-89006360D01*
X136781263Y-89049755D01*
X136781053Y-89069410D01*
X136780426Y-89088988D01*
X136777938Y-89127882D01*
X136773828Y-89166388D01*
X136768127Y-89204453D01*
X136760866Y-89242025D01*
X136752077Y-89279053D01*
X136741788Y-89315487D01*
X136730033Y-89351273D01*
X136716840Y-89386361D01*
X136702241Y-89420699D01*
X136686268Y-89454236D01*
X136668949Y-89486919D01*
X136650317Y-89518699D01*
X136630402Y-89549522D01*
X136609234Y-89579338D01*
X136586845Y-89608094D01*
X136368004Y-89456664D01*
X136385018Y-89431167D01*
X136400893Y-89406107D01*
X136415634Y-89381417D01*
X136429248Y-89357028D01*
X136441739Y-89332874D01*
X136453115Y-89308887D01*
X136463380Y-89285001D01*
X136472540Y-89261147D01*
X136480601Y-89237260D01*
X136487568Y-89213270D01*
X136493448Y-89189112D01*
X136498246Y-89164717D01*
X136501968Y-89140019D01*
X136504619Y-89114951D01*
X136506206Y-89089444D01*
X136506734Y-89063433D01*
X136505259Y-89025160D01*
X136500797Y-88988106D01*
X136493293Y-88952413D01*
X136482691Y-88918223D01*
X136468934Y-88885679D01*
X136451968Y-88854923D01*
X136431736Y-88826098D01*
X136408182Y-88799345D01*
X136381250Y-88774808D01*
X136350886Y-88752629D01*
X136317032Y-88732950D01*
X136298779Y-88724092D01*
X136279634Y-88715913D01*
X136259588Y-88708431D01*
X136238634Y-88701662D01*
X136216767Y-88695625D01*
X136193979Y-88690338D01*
X136170262Y-88685818D01*
X136145611Y-88682083D01*
X136120017Y-88679151D01*
X136093475Y-88677041D01*
X136093475Y-89653524D01*
X136069632Y-89657000D01*
X136045384Y-89659696D01*
X136025807Y-89661343D01*
X136006164Y-89662581D01*
X135986542Y-89663450D01*
X135962172Y-89664078D01*
X135938136Y-89664270D01*
X135895367Y-89663527D01*
X135853626Y-89661309D01*
X135812937Y-89657638D01*
X135773319Y-89652534D01*
X135734795Y-89646017D01*
X135697387Y-89638108D01*
X135661115Y-89628826D01*
X135626002Y-89618192D01*
X135592068Y-89606227D01*
X135559336Y-89592950D01*
X135527827Y-89578383D01*
X135497563Y-89562544D01*
X135468565Y-89545455D01*
X135440855Y-89527136D01*
X135414454Y-89507607D01*
X135389384Y-89486889D01*
X135365666Y-89465001D01*
X135343322Y-89441965D01*
X135322374Y-89417800D01*
X135302843Y-89392526D01*
X135284750Y-89366165D01*
X135268117Y-89338736D01*
X135252967Y-89310259D01*
X135239319Y-89280756D01*
X135227197Y-89250245D01*
X135216621Y-89218748D01*
X135207612Y-89186285D01*
X135200194Y-89152876D01*
X135194386Y-89118542D01*
X135190211Y-89083302D01*
X135187690Y-89047177D01*
X135186912Y-89013119D01*
X135450628Y-89013119D01*
X135452292Y-89049920D01*
X135457257Y-89084479D01*
X135465481Y-89116787D01*
X135476922Y-89146834D01*
X135491536Y-89174612D01*
X135509283Y-89200111D01*
X135530119Y-89223321D01*
X135554003Y-89244234D01*
X135580893Y-89262839D01*
X135610745Y-89279129D01*
X135643518Y-89293093D01*
X135679170Y-89304722D01*
X135717659Y-89314007D01*
X135737953Y-89317767D01*
X135758941Y-89320938D01*
X135780617Y-89323519D01*
X135802976Y-89325507D01*
X135826012Y-89326902D01*
X135849720Y-89327704D01*
X135849720Y-88674110D01*
X135824680Y-88676135D01*
X135800480Y-88678813D01*
X135777119Y-88682136D01*
X135754594Y-88686092D01*
X135732900Y-88690672D01*
X135712035Y-88695865D01*
X135691997Y-88701662D01*
X135672782Y-88708052D01*
X135654386Y-88715025D01*
X135620044Y-88730681D01*
X135588945Y-88748547D01*
X135561065Y-88768545D01*
X135536380Y-88790592D01*
X135514866Y-88814608D01*
X135496498Y-88840512D01*
X135481252Y-88868223D01*
X135469104Y-88897661D01*
X135460029Y-88928744D01*
X135454003Y-88961391D01*
X135451002Y-88995522D01*
X135450628Y-89013119D01*
X135186912Y-89013119D01*
X135186845Y-89010188D01*
X135187851Y-88970559D01*
X135190838Y-88931918D01*
X135195761Y-88894283D01*
X135202574Y-88857672D01*
X135211233Y-88822101D01*
X135221692Y-88787589D01*
X135233906Y-88754154D01*
X135247830Y-88721813D01*
X135263418Y-88690585D01*
X135280625Y-88660485D01*
X135299406Y-88631534D01*
X135319715Y-88603747D01*
X135341508Y-88577143D01*
X135364739Y-88551740D01*
X135389363Y-88527554D01*
X135415334Y-88504605D01*
X135442608Y-88482910D01*
X135471139Y-88462485D01*
X135500882Y-88443350D01*
X135531791Y-88425522D01*
X135563821Y-88409018D01*
X135596927Y-88393857D01*
X135631064Y-88380055D01*
X135666187Y-88367631D01*
X135702250Y-88356602D01*
X135739208Y-88346986D01*
X135777015Y-88338801D01*
X135815627Y-88332065D01*
X135854999Y-88326794D01*
X135895084Y-88323008D01*
X135935838Y-88320723D01*
X135977215Y-88319958D01*
X136021597Y-88320719D01*
G37*
G36*
X136331641Y-89971117D02*
G01*
X136357269Y-89972804D01*
X136382344Y-89975599D01*
X136406845Y-89979487D01*
X136430753Y-89984453D01*
X136454049Y-89990483D01*
X136476714Y-89997562D01*
X136498727Y-90005676D01*
X136520070Y-90014810D01*
X136540723Y-90024951D01*
X136560667Y-90036083D01*
X136579881Y-90048191D01*
X136598348Y-90061263D01*
X136616048Y-90075282D01*
X136632960Y-90090234D01*
X136649066Y-90106106D01*
X136664346Y-90122881D01*
X136678782Y-90140547D01*
X136692352Y-90159089D01*
X136705039Y-90178491D01*
X136716822Y-90198740D01*
X136727682Y-90219821D01*
X136737601Y-90241719D01*
X136746557Y-90264421D01*
X136754533Y-90287911D01*
X136761508Y-90312175D01*
X136767463Y-90337198D01*
X136772379Y-90362967D01*
X136776237Y-90389466D01*
X136779016Y-90416682D01*
X136780698Y-90444599D01*
X136781263Y-90473203D01*
X136780454Y-90508785D01*
X136778047Y-90544017D01*
X136774069Y-90578790D01*
X136768547Y-90612993D01*
X136761507Y-90646519D01*
X136752978Y-90679257D01*
X136742986Y-90711097D01*
X136731559Y-90741931D01*
X136718724Y-90771648D01*
X136704507Y-90800140D01*
X136688937Y-90827296D01*
X136672040Y-90853008D01*
X136653844Y-90877165D01*
X136634375Y-90899659D01*
X136613662Y-90920380D01*
X136591730Y-90939218D01*
X136611784Y-90948559D01*
X136630732Y-90959519D01*
X136648579Y-90972055D01*
X136665331Y-90986128D01*
X136680993Y-91001694D01*
X136695569Y-91018713D01*
X136709064Y-91037143D01*
X136721484Y-91056943D01*
X136732834Y-91078071D01*
X136743118Y-91100485D01*
X136752341Y-91124144D01*
X136760510Y-91149007D01*
X136767627Y-91175032D01*
X136773700Y-91202178D01*
X136778732Y-91230402D01*
X136782728Y-91259665D01*
X136543370Y-91341730D01*
X136534992Y-91318320D01*
X136525858Y-91297988D01*
X136515647Y-91280562D01*
X136499810Y-91261559D01*
X136480738Y-91247024D01*
X136457677Y-91236557D01*
X136437308Y-91231134D01*
X136413950Y-91227605D01*
X136387286Y-91225799D01*
X136367515Y-91225471D01*
X135702686Y-91225471D01*
X135672884Y-91224877D01*
X135643844Y-91223095D01*
X135615577Y-91220127D01*
X135588097Y-91215971D01*
X135561415Y-91210628D01*
X135535544Y-91204099D01*
X135510494Y-91196384D01*
X135486279Y-91187483D01*
X135462911Y-91177396D01*
X135440401Y-91166124D01*
X135418762Y-91153667D01*
X135398006Y-91140025D01*
X135378144Y-91125198D01*
X135359189Y-91109187D01*
X135341153Y-91091992D01*
X135324049Y-91073613D01*
X135307887Y-91054050D01*
X135292681Y-91033304D01*
X135278441Y-91011375D01*
X135265181Y-90988264D01*
X135252913Y-90963970D01*
X135241648Y-90938494D01*
X135231398Y-90911836D01*
X135222177Y-90883996D01*
X135213994Y-90854975D01*
X135206864Y-90824773D01*
X135200797Y-90793390D01*
X135195807Y-90760826D01*
X135191904Y-90727082D01*
X135189102Y-90692158D01*
X135187411Y-90656055D01*
X135186845Y-90618771D01*
X135187220Y-90589741D01*
X135188357Y-90559998D01*
X135190275Y-90529567D01*
X135192990Y-90498466D01*
X135196520Y-90466719D01*
X135200884Y-90434347D01*
X135206100Y-90401371D01*
X135212185Y-90367812D01*
X135219158Y-90333692D01*
X135227036Y-90299033D01*
X135235836Y-90263855D01*
X135245578Y-90228181D01*
X135256279Y-90192032D01*
X135267956Y-90155429D01*
X135280628Y-90118394D01*
X135287342Y-90099721D01*
X135294312Y-90080949D01*
X135545882Y-90169853D01*
X135535312Y-90199945D01*
X135525568Y-90229562D01*
X135516632Y-90258662D01*
X135508483Y-90287204D01*
X135501100Y-90315148D01*
X135494465Y-90342453D01*
X135488557Y-90369079D01*
X135483356Y-90394984D01*
X135478842Y-90420127D01*
X135474995Y-90444469D01*
X135471794Y-90467967D01*
X135469221Y-90490582D01*
X135467254Y-90512272D01*
X135465874Y-90532997D01*
X135465060Y-90552716D01*
X135464794Y-90571388D01*
X135465624Y-90608296D01*
X135468162Y-90642983D01*
X135472480Y-90675427D01*
X135478647Y-90705607D01*
X135486734Y-90733500D01*
X135496813Y-90759084D01*
X135508954Y-90782337D01*
X135523229Y-90803236D01*
X135539707Y-90821759D01*
X135558460Y-90837885D01*
X135579558Y-90851590D01*
X135603073Y-90862854D01*
X135629075Y-90871653D01*
X135657636Y-90877965D01*
X135688825Y-90881769D01*
X135722714Y-90883042D01*
X135803803Y-90883042D01*
X136030949Y-90883042D01*
X136340648Y-90883042D01*
X136361343Y-90869580D01*
X136380910Y-90854893D01*
X136399321Y-90839061D01*
X136416547Y-90822165D01*
X136432559Y-90804283D01*
X136447329Y-90785498D01*
X136460828Y-90765888D01*
X136473028Y-90745533D01*
X136483900Y-90724515D01*
X136493415Y-90702913D01*
X136501544Y-90680807D01*
X136508260Y-90658278D01*
X136513533Y-90635405D01*
X136517335Y-90612268D01*
X136519637Y-90588949D01*
X136520411Y-90565526D01*
X136519535Y-90536742D01*
X136516904Y-90509912D01*
X136512516Y-90485025D01*
X136506367Y-90462067D01*
X136498456Y-90441023D01*
X136488778Y-90421880D01*
X136477331Y-90404625D01*
X136464113Y-90389244D01*
X136449120Y-90375724D01*
X136432350Y-90364050D01*
X136413800Y-90354209D01*
X136393466Y-90346189D01*
X136371346Y-90339974D01*
X136347438Y-90335552D01*
X136321737Y-90332908D01*
X136294242Y-90332030D01*
X136263674Y-90333280D01*
X136234824Y-90337106D01*
X136207726Y-90343622D01*
X136182417Y-90352943D01*
X136158931Y-90365184D01*
X136137304Y-90380459D01*
X136117570Y-90398882D01*
X136099764Y-90420568D01*
X136083922Y-90445632D01*
X136070078Y-90474187D01*
X136058268Y-90506349D01*
X136048526Y-90542232D01*
X136044442Y-90561604D01*
X136040889Y-90581950D01*
X136037870Y-90603283D01*
X136035390Y-90625618D01*
X136033453Y-90648969D01*
X136032065Y-90673350D01*
X136031228Y-90698776D01*
X136030949Y-90725261D01*
X136030949Y-90883042D01*
X135803803Y-90883042D01*
X135803803Y-90688625D01*
X135804339Y-90646466D01*
X135805943Y-90605454D01*
X135808605Y-90565600D01*
X135812316Y-90526918D01*
X135817067Y-90489419D01*
X135822849Y-90453117D01*
X135829653Y-90418024D01*
X135837470Y-90384153D01*
X135846291Y-90351516D01*
X135856107Y-90320126D01*
X135866908Y-90289996D01*
X135878687Y-90261138D01*
X135891433Y-90233564D01*
X135905138Y-90207288D01*
X135919793Y-90182322D01*
X135935389Y-90158679D01*
X135951916Y-90136371D01*
X135969365Y-90115410D01*
X135987729Y-90095810D01*
X136006997Y-90077584D01*
X136027160Y-90060742D01*
X136048210Y-90045299D01*
X136070137Y-90031267D01*
X136092933Y-90018659D01*
X136116588Y-90007487D01*
X136141093Y-89997763D01*
X136166440Y-89989501D01*
X136192619Y-89982712D01*
X136219621Y-89977411D01*
X136247438Y-89973608D01*
X136276060Y-89971317D01*
X136305478Y-89970551D01*
X136331641Y-89971117D01*
G37*
G36*
X134622644Y-92094487D02*
G01*
X134656838Y-91749616D01*
X136750000Y-91749616D01*
X136750000Y-92094487D01*
X134622644Y-92094487D01*
G37*
G36*
X135249371Y-93093928D02*
G01*
X135249371Y-92687997D01*
X135929832Y-92080809D01*
X136750000Y-92729518D01*
X136750000Y-93153035D01*
X135922505Y-92482833D01*
X135249371Y-93093928D01*
G37*
G36*
X135249371Y-94750872D02*
G01*
X135249371Y-94395254D01*
X136462770Y-94028890D01*
X135249371Y-93668387D01*
X135249371Y-93301046D01*
X136750000Y-93810537D01*
X136750000Y-93905792D01*
X136783736Y-93892416D01*
X136815548Y-93878288D01*
X136845483Y-93863115D01*
X136873586Y-93846601D01*
X136899904Y-93828453D01*
X136924480Y-93808376D01*
X136947363Y-93786077D01*
X136968597Y-93761261D01*
X136988228Y-93733634D01*
X137006302Y-93702903D01*
X137022865Y-93668773D01*
X137030594Y-93650341D01*
X137037962Y-93630950D01*
X137044975Y-93610561D01*
X137051639Y-93589139D01*
X137057960Y-93566647D01*
X137063943Y-93543048D01*
X137069594Y-93518305D01*
X137074919Y-93492381D01*
X137079923Y-93465240D01*
X137084612Y-93436845D01*
X137344975Y-93480809D01*
X137340932Y-93520899D01*
X137335775Y-93559668D01*
X137329521Y-93597143D01*
X137322185Y-93633348D01*
X137313785Y-93668309D01*
X137304338Y-93702051D01*
X137293859Y-93734599D01*
X137282365Y-93765978D01*
X137269873Y-93796213D01*
X137256399Y-93825331D01*
X137241961Y-93853355D01*
X137226574Y-93880312D01*
X137210254Y-93906226D01*
X137193020Y-93931123D01*
X137174886Y-93955028D01*
X137155870Y-93977965D01*
X137135988Y-93999961D01*
X137115257Y-94021041D01*
X137093693Y-94041229D01*
X137071313Y-94060552D01*
X137048134Y-94079033D01*
X137024171Y-94096700D01*
X136999442Y-94113575D01*
X136973963Y-94129686D01*
X136947750Y-94145057D01*
X136920820Y-94159713D01*
X136893190Y-94173679D01*
X136864877Y-94186982D01*
X136835896Y-94199645D01*
X136806264Y-94211695D01*
X136775998Y-94223156D01*
X136745115Y-94234054D01*
X135249371Y-94750872D01*
G37*
G36*
X136750000Y-97121493D02*
G01*
X135956699Y-97121493D01*
X135956699Y-97307117D01*
X136750000Y-97794138D01*
X136750000Y-98209839D01*
X135904919Y-97656385D01*
X135898000Y-97678121D01*
X135890430Y-97699622D01*
X135882211Y-97720857D01*
X135873341Y-97741796D01*
X135863821Y-97762411D01*
X135853650Y-97782670D01*
X135842829Y-97802544D01*
X135831356Y-97822004D01*
X135819233Y-97841020D01*
X135806458Y-97859561D01*
X135793031Y-97877599D01*
X135778953Y-97895103D01*
X135764223Y-97912043D01*
X135748841Y-97928390D01*
X135732806Y-97944114D01*
X135716120Y-97959185D01*
X135698780Y-97973573D01*
X135680788Y-97987249D01*
X135662143Y-98000183D01*
X135642845Y-98012345D01*
X135622893Y-98023705D01*
X135602288Y-98034233D01*
X135581030Y-98043900D01*
X135559117Y-98052676D01*
X135536551Y-98060531D01*
X135513330Y-98067436D01*
X135489455Y-98073360D01*
X135464925Y-98078273D01*
X135439741Y-98082147D01*
X135413902Y-98084950D01*
X135387407Y-98086654D01*
X135360258Y-98087229D01*
X135324556Y-98086444D01*
X135289990Y-98084095D01*
X135256560Y-98080187D01*
X135224266Y-98074728D01*
X135193107Y-98067723D01*
X135163084Y-98059180D01*
X135134196Y-98049104D01*
X135106444Y-98037503D01*
X135079826Y-98024382D01*
X135054342Y-98009749D01*
X135029994Y-97993610D01*
X135006779Y-97975972D01*
X134984699Y-97956840D01*
X134963753Y-97936222D01*
X134943940Y-97914124D01*
X134925261Y-97890553D01*
X134907716Y-97865514D01*
X134891304Y-97839016D01*
X134876024Y-97811063D01*
X134861878Y-97781663D01*
X134848865Y-97750823D01*
X134836984Y-97718548D01*
X134826235Y-97684845D01*
X134816619Y-97649721D01*
X134808135Y-97613183D01*
X134800782Y-97575237D01*
X134794561Y-97535888D01*
X134789472Y-97495145D01*
X134785514Y-97453014D01*
X134782687Y-97409500D01*
X134780990Y-97364611D01*
X134780425Y-97318353D01*
X134780425Y-97121493D01*
X135052512Y-97121493D01*
X135052512Y-97338381D01*
X135052765Y-97362418D01*
X135053531Y-97385625D01*
X135054820Y-97408004D01*
X135056639Y-97429561D01*
X135058999Y-97450301D01*
X135061908Y-97470227D01*
X135069410Y-97507656D01*
X135079220Y-97541886D01*
X135091409Y-97572951D01*
X135106052Y-97600888D01*
X135123220Y-97625732D01*
X135142987Y-97647520D01*
X135165426Y-97666286D01*
X135190610Y-97682067D01*
X135218612Y-97694899D01*
X135249505Y-97704817D01*
X135283361Y-97711856D01*
X135320255Y-97716054D01*
X135339863Y-97717098D01*
X135360258Y-97717445D01*
X135382125Y-97717067D01*
X135403131Y-97715933D01*
X135423286Y-97714047D01*
X135461087Y-97708031D01*
X135495616Y-97699047D01*
X135526961Y-97687118D01*
X135555210Y-97672271D01*
X135580451Y-97654532D01*
X135602773Y-97633927D01*
X135622262Y-97610480D01*
X135639008Y-97584219D01*
X135653098Y-97555169D01*
X135664620Y-97523355D01*
X135673663Y-97488803D01*
X135680314Y-97451540D01*
X135682770Y-97431899D01*
X135684661Y-97411590D01*
X135685998Y-97390616D01*
X135686792Y-97368980D01*
X135687055Y-97346685D01*
X135687055Y-97121493D01*
X135052512Y-97121493D01*
X134780425Y-97121493D01*
X134780425Y-96765387D01*
X136750000Y-96765387D01*
X136750000Y-97121493D01*
G37*
G36*
X136030780Y-98377132D02*
G01*
X136074956Y-98379285D01*
X136118024Y-98382860D01*
X136159960Y-98387848D01*
X136200743Y-98394240D01*
X136240348Y-98402024D01*
X136278753Y-98411193D01*
X136315934Y-98421735D01*
X136351869Y-98433641D01*
X136386534Y-98446901D01*
X136419907Y-98461505D01*
X136451964Y-98477443D01*
X136482682Y-98494706D01*
X136512039Y-98513284D01*
X136540010Y-98533166D01*
X136566573Y-98554344D01*
X136591705Y-98576806D01*
X136615383Y-98600544D01*
X136637584Y-98625547D01*
X136658284Y-98651806D01*
X136677461Y-98679311D01*
X136695092Y-98708051D01*
X136711153Y-98738018D01*
X136725621Y-98769201D01*
X136738474Y-98801590D01*
X136749687Y-98835176D01*
X136759239Y-98869949D01*
X136767106Y-98905899D01*
X136773265Y-98943015D01*
X136777693Y-98981289D01*
X136780366Y-99020711D01*
X136781263Y-99061270D01*
X136780334Y-99101614D01*
X136777569Y-99140847D01*
X136772994Y-99178960D01*
X136766640Y-99215939D01*
X136758536Y-99251775D01*
X136748708Y-99286456D01*
X136737188Y-99319971D01*
X136724003Y-99352308D01*
X136709182Y-99383457D01*
X136692754Y-99413406D01*
X136674748Y-99442144D01*
X136655193Y-99469660D01*
X136634117Y-99495943D01*
X136611550Y-99520981D01*
X136587519Y-99544764D01*
X136562055Y-99567280D01*
X136535185Y-99588518D01*
X136506938Y-99608466D01*
X136477344Y-99627115D01*
X136446430Y-99644452D01*
X136414227Y-99660466D01*
X136380762Y-99675146D01*
X136346065Y-99688482D01*
X136310164Y-99700461D01*
X136273088Y-99711072D01*
X136234866Y-99720305D01*
X136195526Y-99728149D01*
X136155098Y-99734591D01*
X136113611Y-99739621D01*
X136071092Y-99743228D01*
X136027571Y-99745400D01*
X135983077Y-99746127D01*
X135938545Y-99745417D01*
X135895003Y-99743293D01*
X135852479Y-99739763D01*
X135810999Y-99734837D01*
X135770593Y-99728522D01*
X135731287Y-99720827D01*
X135693110Y-99711760D01*
X135656089Y-99701331D01*
X135620253Y-99689547D01*
X135585628Y-99676417D01*
X135552244Y-99661949D01*
X135520127Y-99646152D01*
X135489306Y-99629035D01*
X135459808Y-99610605D01*
X135431661Y-99590872D01*
X135404893Y-99569844D01*
X135379532Y-99547530D01*
X135355606Y-99523937D01*
X135333141Y-99499075D01*
X135312168Y-99472951D01*
X135292712Y-99445575D01*
X135274802Y-99416955D01*
X135258466Y-99387100D01*
X135243731Y-99356017D01*
X135230626Y-99323716D01*
X135219177Y-99290205D01*
X135209414Y-99255492D01*
X135201363Y-99219586D01*
X135195053Y-99182495D01*
X135190512Y-99144228D01*
X135187767Y-99104794D01*
X135186845Y-99064200D01*
X135461863Y-99064200D01*
X135462329Y-99084116D01*
X135466086Y-99121994D01*
X135473662Y-99157277D01*
X135485124Y-99189975D01*
X135500537Y-99220098D01*
X135519967Y-99247655D01*
X135543480Y-99272657D01*
X135571141Y-99295113D01*
X135603018Y-99315035D01*
X135620557Y-99324048D01*
X135639175Y-99332431D01*
X135658879Y-99340185D01*
X135679678Y-99347312D01*
X135701580Y-99353813D01*
X135724593Y-99359688D01*
X135748726Y-99364940D01*
X135773986Y-99369569D01*
X135800383Y-99373577D01*
X135827923Y-99376965D01*
X135856616Y-99379734D01*
X135886470Y-99381885D01*
X135917493Y-99383420D01*
X135949692Y-99384341D01*
X135983077Y-99384647D01*
X136016950Y-99384341D01*
X136049607Y-99383420D01*
X136081058Y-99381883D01*
X136111311Y-99379728D01*
X136140376Y-99376953D01*
X136168262Y-99373557D01*
X136194979Y-99369538D01*
X136220534Y-99364894D01*
X136244939Y-99359623D01*
X136268201Y-99353723D01*
X136290331Y-99347193D01*
X136311336Y-99340031D01*
X136331228Y-99332235D01*
X136350014Y-99323802D01*
X136367704Y-99314733D01*
X136399832Y-99294674D01*
X136427687Y-99272043D01*
X136451342Y-99246826D01*
X136470871Y-99219009D01*
X136486347Y-99188578D01*
X136497845Y-99155517D01*
X136505437Y-99119813D01*
X136509198Y-99081451D01*
X136509665Y-99061270D01*
X136509198Y-99041132D01*
X136505439Y-99002851D01*
X136497854Y-98967217D01*
X136486373Y-98934217D01*
X136470926Y-98903837D01*
X136451442Y-98876063D01*
X136427851Y-98850882D01*
X136400084Y-98828281D01*
X136368070Y-98808244D01*
X136350448Y-98799184D01*
X136331739Y-98790760D01*
X136311933Y-98782971D01*
X136291021Y-98775815D01*
X136268995Y-98769290D01*
X136245846Y-98763394D01*
X136221565Y-98758126D01*
X136196143Y-98753484D01*
X136169572Y-98749467D01*
X136141843Y-98746072D01*
X136112947Y-98743299D01*
X136082876Y-98741144D01*
X136051620Y-98739608D01*
X136019171Y-98738687D01*
X135985519Y-98738381D01*
X135951913Y-98738695D01*
X135919505Y-98739641D01*
X135888288Y-98741217D01*
X135858253Y-98743425D01*
X135829391Y-98746265D01*
X135801693Y-98749737D01*
X135775151Y-98753844D01*
X135749756Y-98758584D01*
X135725500Y-98763959D01*
X135702374Y-98769969D01*
X135680368Y-98776616D01*
X135659475Y-98783898D01*
X135639686Y-98791818D01*
X135620992Y-98800376D01*
X135603384Y-98809573D01*
X135571393Y-98829883D01*
X135543643Y-98852755D01*
X135520066Y-98878193D01*
X135500591Y-98906203D01*
X135485149Y-98936789D01*
X135473671Y-98969956D01*
X135466088Y-99005710D01*
X135462329Y-99044055D01*
X135461863Y-99064200D01*
X135186845Y-99064200D01*
X135187799Y-99023590D01*
X135190636Y-98984107D01*
X135195324Y-98945761D01*
X135201829Y-98908563D01*
X135210118Y-98872525D01*
X135220156Y-98837655D01*
X135231911Y-98803966D01*
X135245349Y-98771468D01*
X135260436Y-98740171D01*
X135277139Y-98710086D01*
X135295425Y-98681224D01*
X135315259Y-98653595D01*
X135336608Y-98627210D01*
X135359439Y-98602080D01*
X135383718Y-98578215D01*
X135409412Y-98555626D01*
X135436486Y-98534323D01*
X135464908Y-98514318D01*
X135494644Y-98495621D01*
X135525661Y-98478242D01*
X135557924Y-98462192D01*
X135591401Y-98447482D01*
X135626057Y-98434123D01*
X135661859Y-98422124D01*
X135698775Y-98411497D01*
X135736769Y-98402253D01*
X135775809Y-98394402D01*
X135815861Y-98387954D01*
X135856892Y-98382921D01*
X135898867Y-98379312D01*
X135941754Y-98377139D01*
X135985519Y-98376413D01*
X136030780Y-98377132D01*
G37*
G36*
X136750000Y-100440265D02*
G01*
X136623970Y-100454431D01*
X136641515Y-100469007D01*
X136658218Y-100485036D01*
X136674039Y-100502461D01*
X136688939Y-100521224D01*
X136702877Y-100541265D01*
X136715813Y-100562528D01*
X136727708Y-100584955D01*
X136738520Y-100608487D01*
X136748211Y-100633067D01*
X136756739Y-100658636D01*
X136764065Y-100685137D01*
X136770150Y-100712511D01*
X136774951Y-100740702D01*
X136778431Y-100769650D01*
X136780548Y-100799298D01*
X136781263Y-100829588D01*
X136780275Y-100865838D01*
X136777338Y-100901037D01*
X136772493Y-100935179D01*
X136765779Y-100968256D01*
X136757237Y-101000262D01*
X136746908Y-101031191D01*
X136734832Y-101061036D01*
X136721049Y-101089790D01*
X136705599Y-101117448D01*
X136688524Y-101144002D01*
X136669862Y-101169446D01*
X136649655Y-101193774D01*
X136627942Y-101216978D01*
X136604765Y-101239053D01*
X136580164Y-101259992D01*
X136554178Y-101279788D01*
X136526848Y-101298435D01*
X136498215Y-101315927D01*
X136468319Y-101332256D01*
X136437200Y-101347416D01*
X136404898Y-101361401D01*
X136371455Y-101374204D01*
X136336909Y-101385819D01*
X136301302Y-101396239D01*
X136264675Y-101405457D01*
X136227066Y-101413468D01*
X136188517Y-101420264D01*
X136149068Y-101425839D01*
X136108759Y-101430186D01*
X136067630Y-101433300D01*
X136025723Y-101435173D01*
X135983077Y-101435799D01*
X135938717Y-101435303D01*
X135895325Y-101433809D01*
X135852930Y-101431304D01*
X135811560Y-101427779D01*
X135771245Y-101423220D01*
X135732013Y-101417618D01*
X135693893Y-101410961D01*
X135656914Y-101403238D01*
X135621104Y-101394437D01*
X135586494Y-101384547D01*
X135553112Y-101373557D01*
X135520986Y-101361455D01*
X135490145Y-101348231D01*
X135460619Y-101333873D01*
X135432436Y-101318369D01*
X135405626Y-101301709D01*
X135380216Y-101283881D01*
X135356237Y-101264875D01*
X135333716Y-101244677D01*
X135312683Y-101223279D01*
X135293166Y-101200667D01*
X135275195Y-101176831D01*
X135258799Y-101151760D01*
X135244006Y-101125442D01*
X135230845Y-101097866D01*
X135219345Y-101069021D01*
X135209535Y-101038896D01*
X135201444Y-101007479D01*
X135195100Y-100974758D01*
X135190533Y-100940724D01*
X135187772Y-100905364D01*
X135186845Y-100868667D01*
X135187830Y-100837568D01*
X135190712Y-100806976D01*
X135194649Y-100781716D01*
X135458932Y-100781716D01*
X135460681Y-100815881D01*
X135466011Y-100848019D01*
X135475045Y-100878104D01*
X135487905Y-100906112D01*
X135504715Y-100932020D01*
X135525599Y-100955802D01*
X135550678Y-100977435D01*
X135580076Y-100996894D01*
X135613917Y-101014155D01*
X135632541Y-101021953D01*
X135652323Y-101029193D01*
X135673276Y-101035871D01*
X135695417Y-101041985D01*
X135718760Y-101047530D01*
X135743322Y-101052505D01*
X135769118Y-101056906D01*
X135796162Y-101060730D01*
X135824471Y-101063974D01*
X135854059Y-101066635D01*
X135884943Y-101068710D01*
X135917138Y-101070196D01*
X135950658Y-101071090D01*
X135985519Y-101071388D01*
X136019392Y-101071051D01*
X136052050Y-101070044D01*
X136083500Y-101068372D01*
X136113754Y-101066040D01*
X136142819Y-101063053D01*
X136170705Y-101059416D01*
X136197421Y-101055135D01*
X136222977Y-101050215D01*
X136247381Y-101044661D01*
X136270644Y-101038479D01*
X136292773Y-101031672D01*
X136313779Y-101024247D01*
X136333670Y-101016209D01*
X136352456Y-101007563D01*
X136370146Y-100998314D01*
X136402275Y-100978029D01*
X136430130Y-100955394D01*
X136453785Y-100930451D01*
X136473314Y-100903243D01*
X136488790Y-100873809D01*
X136500287Y-100842193D01*
X136507880Y-100808435D01*
X136511640Y-100772576D01*
X136512107Y-100753872D01*
X136511402Y-100732017D01*
X136509308Y-100710779D01*
X136505854Y-100690159D01*
X136501070Y-100670158D01*
X136494987Y-100650775D01*
X136487635Y-100632011D01*
X136479043Y-100613864D01*
X136469242Y-100596336D01*
X136458262Y-100579426D01*
X136446133Y-100563134D01*
X136432884Y-100547461D01*
X136418547Y-100532405D01*
X136403150Y-100517968D01*
X136386725Y-100504149D01*
X136369300Y-100490949D01*
X136350907Y-100478367D01*
X135662630Y-100478367D01*
X135642230Y-100491761D01*
X135622322Y-100505927D01*
X135603019Y-100520859D01*
X135584434Y-100536550D01*
X135566683Y-100552994D01*
X135549879Y-100570184D01*
X135534135Y-100588114D01*
X135519565Y-100606777D01*
X135506283Y-100626168D01*
X135494403Y-100646279D01*
X135484039Y-100667104D01*
X135475304Y-100688637D01*
X135468312Y-100710871D01*
X135463176Y-100733800D01*
X135460012Y-100757417D01*
X135458932Y-100781716D01*
X135194649Y-100781716D01*
X135195388Y-100776974D01*
X135201752Y-100747644D01*
X135209698Y-100719070D01*
X135219123Y-100691335D01*
X135229919Y-100664521D01*
X135241983Y-100638712D01*
X135255209Y-100613991D01*
X135269492Y-100590440D01*
X135284726Y-100568143D01*
X135300807Y-100547182D01*
X135317630Y-100527641D01*
X135335088Y-100509603D01*
X135353078Y-100493150D01*
X135371493Y-100478367D01*
X134622644Y-100478367D01*
X134656838Y-100133496D01*
X136750000Y-100133496D01*
X136750000Y-100440265D01*
G37*
G36*
X136030780Y-101734006D02*
G01*
X136074956Y-101736158D01*
X136118024Y-101739734D01*
X136159960Y-101744722D01*
X136200743Y-101751113D01*
X136240348Y-101758898D01*
X136278753Y-101768067D01*
X136315934Y-101778609D01*
X136351869Y-101790515D01*
X136386534Y-101803774D01*
X136419907Y-101818379D01*
X136451964Y-101834317D01*
X136482682Y-101851580D01*
X136512039Y-101870157D01*
X136540010Y-101890040D01*
X136566573Y-101911217D01*
X136591705Y-101933680D01*
X136615383Y-101957418D01*
X136637584Y-101982421D01*
X136658284Y-102008680D01*
X136677461Y-102036184D01*
X136695092Y-102064925D01*
X136711153Y-102094892D01*
X136725621Y-102126075D01*
X136738474Y-102158464D01*
X136749687Y-102192050D01*
X136759239Y-102226823D01*
X136767106Y-102262772D01*
X136773265Y-102299889D01*
X136777693Y-102338163D01*
X136780366Y-102377584D01*
X136781263Y-102418143D01*
X136780334Y-102458487D01*
X136777569Y-102497721D01*
X136772994Y-102535833D01*
X136766640Y-102572813D01*
X136758536Y-102608649D01*
X136748708Y-102643330D01*
X136737188Y-102676844D01*
X136724003Y-102709182D01*
X136709182Y-102740330D01*
X136692754Y-102770279D01*
X136674748Y-102799017D01*
X136655193Y-102826534D01*
X136634117Y-102852816D01*
X136611550Y-102877855D01*
X136587519Y-102901637D01*
X136562055Y-102924153D01*
X136535185Y-102945391D01*
X136506938Y-102965340D01*
X136477344Y-102983989D01*
X136446430Y-103001326D01*
X136414227Y-103017340D01*
X136380762Y-103032020D01*
X136346065Y-103045355D01*
X136310164Y-103057334D01*
X136273088Y-103067946D01*
X136234866Y-103077179D01*
X136195526Y-103085022D01*
X136155098Y-103091464D01*
X136113611Y-103096495D01*
X136071092Y-103100101D01*
X136027571Y-103102274D01*
X135983077Y-103103000D01*
X135938545Y-103102290D01*
X135895003Y-103100166D01*
X135852479Y-103096637D01*
X135810999Y-103091711D01*
X135770593Y-103085396D01*
X135731287Y-103077701D01*
X135693110Y-103068634D01*
X135656089Y-103058205D01*
X135620253Y-103046420D01*
X135585628Y-103033290D01*
X135552244Y-103018822D01*
X135520127Y-103003026D01*
X135489306Y-102985908D01*
X135459808Y-102967479D01*
X135431661Y-102947746D01*
X135404893Y-102926718D01*
X135379532Y-102904403D01*
X135355606Y-102880811D01*
X135333141Y-102855948D01*
X135312168Y-102829825D01*
X135292712Y-102802449D01*
X135274802Y-102773829D01*
X135258466Y-102743974D01*
X135243731Y-102712891D01*
X135230626Y-102680590D01*
X135219177Y-102647078D01*
X135209414Y-102612365D01*
X135201363Y-102576459D01*
X135195053Y-102539369D01*
X135190512Y-102501102D01*
X135187767Y-102461668D01*
X135186845Y-102421074D01*
X135461863Y-102421074D01*
X135462329Y-102440990D01*
X135466086Y-102478868D01*
X135473662Y-102514151D01*
X135485124Y-102546849D01*
X135500537Y-102576971D01*
X135519967Y-102604528D01*
X135543480Y-102629530D01*
X135571141Y-102651987D01*
X135603018Y-102671908D01*
X135620557Y-102680922D01*
X135639175Y-102689305D01*
X135658879Y-102697059D01*
X135679678Y-102704186D01*
X135701580Y-102710686D01*
X135724593Y-102716562D01*
X135748726Y-102721813D01*
X135773986Y-102726443D01*
X135800383Y-102730450D01*
X135827923Y-102733838D01*
X135856616Y-102736607D01*
X135886470Y-102738759D01*
X135917493Y-102740294D01*
X135949692Y-102741214D01*
X135983077Y-102741521D01*
X136016950Y-102741214D01*
X136049607Y-102740293D01*
X136081058Y-102738756D01*
X136111311Y-102736602D01*
X136140376Y-102733827D01*
X136168262Y-102730431D01*
X136194979Y-102726412D01*
X136220534Y-102721768D01*
X136244939Y-102716497D01*
X136268201Y-102710597D01*
X136290331Y-102704067D01*
X136311336Y-102696904D01*
X136331228Y-102689108D01*
X136350014Y-102680676D01*
X136367704Y-102671607D01*
X136399832Y-102651548D01*
X136427687Y-102628917D01*
X136451342Y-102603700D01*
X136470871Y-102575883D01*
X136486347Y-102545451D01*
X136497845Y-102512391D01*
X136505437Y-102476687D01*
X136509198Y-102438325D01*
X136509665Y-102418143D01*
X136509198Y-102398006D01*
X136505439Y-102359725D01*
X136497854Y-102324091D01*
X136486373Y-102291091D01*
X136470926Y-102260711D01*
X136451442Y-102232937D01*
X136427851Y-102207756D01*
X136400084Y-102185154D01*
X136368070Y-102165118D01*
X136350448Y-102156058D01*
X136331739Y-102147634D01*
X136311933Y-102139845D01*
X136291021Y-102132688D01*
X136268995Y-102126163D01*
X136245846Y-102120268D01*
X136221565Y-102115000D01*
X136196143Y-102110358D01*
X136169572Y-102106341D01*
X136141843Y-102102946D01*
X136112947Y-102100172D01*
X136082876Y-102098018D01*
X136051620Y-102096482D01*
X136019171Y-102095561D01*
X135985519Y-102095254D01*
X135951913Y-102095569D01*
X135919505Y-102096514D01*
X135888288Y-102098091D01*
X135858253Y-102100298D01*
X135829391Y-102103138D01*
X135801693Y-102106611D01*
X135775151Y-102110717D01*
X135749756Y-102115458D01*
X135725500Y-102120833D01*
X135702374Y-102126843D01*
X135680368Y-102133489D01*
X135659475Y-102140772D01*
X135639686Y-102148692D01*
X135620992Y-102157250D01*
X135603384Y-102166446D01*
X135571393Y-102186757D01*
X135543643Y-102209629D01*
X135520066Y-102235067D01*
X135500591Y-102263076D01*
X135485149Y-102293662D01*
X135473671Y-102326830D01*
X135466088Y-102362583D01*
X135462329Y-102400928D01*
X135461863Y-102421074D01*
X135186845Y-102421074D01*
X135187799Y-102380464D01*
X135190636Y-102340981D01*
X135195324Y-102302635D01*
X135201829Y-102265437D01*
X135210118Y-102229398D01*
X135220156Y-102194529D01*
X135231911Y-102160840D01*
X135245349Y-102128341D01*
X135260436Y-102097045D01*
X135277139Y-102066960D01*
X135295425Y-102038097D01*
X135315259Y-102010469D01*
X135336608Y-101984084D01*
X135359439Y-101958953D01*
X135383718Y-101935089D01*
X135409412Y-101912500D01*
X135436486Y-101891197D01*
X135464908Y-101871192D01*
X135494644Y-101852494D01*
X135525661Y-101835116D01*
X135557924Y-101819066D01*
X135591401Y-101804356D01*
X135626057Y-101790996D01*
X135661859Y-101778998D01*
X135698775Y-101768371D01*
X135736769Y-101759127D01*
X135775809Y-101751275D01*
X135815861Y-101744828D01*
X135856892Y-101739794D01*
X135898867Y-101736186D01*
X135941754Y-101734013D01*
X135985519Y-101733286D01*
X136030780Y-101734006D01*
G37*
G36*
X136656210Y-104761409D02*
G01*
X136423203Y-104634891D01*
X136436233Y-104610238D01*
X136448103Y-104585420D01*
X136458786Y-104560379D01*
X136468257Y-104535054D01*
X136476488Y-104509385D01*
X136483452Y-104483310D01*
X136489124Y-104456770D01*
X136493476Y-104429704D01*
X136496482Y-104402053D01*
X136498116Y-104373755D01*
X136498429Y-104354501D01*
X136497657Y-104322800D01*
X136495322Y-104293600D01*
X136491394Y-104266839D01*
X136485843Y-104242454D01*
X136478641Y-104220382D01*
X136469759Y-104200559D01*
X136459166Y-104182923D01*
X136446833Y-104167411D01*
X136425009Y-104147986D01*
X136408199Y-104137508D01*
X136389547Y-104128933D01*
X136369024Y-104122199D01*
X136346600Y-104117241D01*
X136322245Y-104113999D01*
X136295931Y-104112408D01*
X136282030Y-104112212D01*
X135510711Y-104112212D01*
X135510711Y-104574808D01*
X135249371Y-104615840D01*
X135249371Y-104112212D01*
X134881053Y-104112212D01*
X134920621Y-103767341D01*
X135249371Y-103767341D01*
X135249371Y-103440055D01*
X135510711Y-103440055D01*
X135510711Y-103767341D01*
X136284473Y-103767341D01*
X136311814Y-103767899D01*
X136338593Y-103769571D01*
X136364792Y-103772351D01*
X136390389Y-103776234D01*
X136415365Y-103781212D01*
X136439699Y-103787282D01*
X136463372Y-103794437D01*
X136486362Y-103802672D01*
X136508651Y-103811981D01*
X136530218Y-103822358D01*
X136551042Y-103833798D01*
X136571104Y-103846295D01*
X136590384Y-103859844D01*
X136608861Y-103874438D01*
X136626515Y-103890073D01*
X136643326Y-103906742D01*
X136659275Y-103924441D01*
X136674340Y-103943162D01*
X136688503Y-103962902D01*
X136701742Y-103983653D01*
X136714037Y-104005411D01*
X136725369Y-104028170D01*
X136735717Y-104051923D01*
X136745061Y-104076667D01*
X136753382Y-104102394D01*
X136760658Y-104129099D01*
X136766870Y-104156777D01*
X136771998Y-104185422D01*
X136776021Y-104215029D01*
X136778919Y-104245591D01*
X136780673Y-104277103D01*
X136781263Y-104309560D01*
X136780728Y-104340808D01*
X136779135Y-104371871D01*
X136776503Y-104402705D01*
X136772851Y-104433261D01*
X136768198Y-104463494D01*
X136762561Y-104493357D01*
X136755959Y-104522804D01*
X136748412Y-104551788D01*
X136739937Y-104580262D01*
X136730554Y-104608180D01*
X136720280Y-104635496D01*
X136709135Y-104662163D01*
X136697136Y-104688134D01*
X136684304Y-104713363D01*
X136670656Y-104737804D01*
X136656210Y-104761409D01*
G37*
D13*
X131435135Y-81280673D02*
X131538868Y-81283410D01*
X131628241Y-81287669D01*
X131696826Y-81293445D01*
X131738197Y-81300733D01*
X131746810Y-81305105D01*
X131757133Y-81331236D01*
X131771892Y-81386607D01*
X131789352Y-81463893D01*
X131807780Y-81555770D01*
X131813741Y-81587842D01*
X131842066Y-81742476D01*
X131864876Y-81864625D01*
X131883080Y-81958327D01*
X131897583Y-82027616D01*
X131909292Y-82076529D01*
X131919115Y-82109103D01*
X131927956Y-82129372D01*
X131936724Y-82141374D01*
X131938457Y-82143053D01*
X131966371Y-82159816D01*
X132020695Y-82185386D01*
X132094777Y-82217212D01*
X132181965Y-82252740D01*
X132275608Y-82289417D01*
X132369052Y-82324689D01*
X132455647Y-82356004D01*
X132528740Y-82380807D01*
X132581678Y-82396546D01*
X132607811Y-82400668D01*
X132608726Y-82400324D01*
X132630086Y-82386359D01*
X132677084Y-82354678D01*
X132744827Y-82308609D01*
X132828423Y-82251482D01*
X132922982Y-82186627D01*
X132949854Y-82168157D01*
X133047275Y-82102301D01*
X133136163Y-82044350D01*
X133211412Y-81997462D01*
X133267920Y-81964793D01*
X133300581Y-81949500D01*
X133304593Y-81948759D01*
X133325684Y-81961608D01*
X133367464Y-81997112D01*
X133425445Y-82050707D01*
X133495135Y-82117829D01*
X133572045Y-82193913D01*
X133651683Y-82274396D01*
X133729561Y-82354713D01*
X133801186Y-82430301D01*
X133862070Y-82496595D01*
X133907721Y-82549031D01*
X133933650Y-82583045D01*
X133937883Y-82592455D01*
X133927912Y-82614357D01*
X133901020Y-82659200D01*
X133861736Y-82719679D01*
X133830117Y-82766211D01*
X133772098Y-82850525D01*
X133703784Y-82950374D01*
X133635579Y-83050527D01*
X133599075Y-83104373D01*
X133475800Y-83286629D01*
X133558520Y-83439619D01*
X133594759Y-83509318D01*
X133622926Y-83568586D01*
X133638991Y-83608689D01*
X133641226Y-83618897D01*
X133624722Y-83631171D01*
X133578082Y-83655387D01*
X133505609Y-83689737D01*
X133411606Y-83732412D01*
X133300374Y-83781606D01*
X133176215Y-83835510D01*
X133043432Y-83892316D01*
X132906327Y-83950218D01*
X132769202Y-84007407D01*
X132636358Y-84062076D01*
X132512098Y-84112416D01*
X132400725Y-84156620D01*
X132306539Y-84192881D01*
X132233844Y-84219391D01*
X132186941Y-84234342D01*
X132170833Y-84236746D01*
X132150286Y-84217689D01*
X132116933Y-84175964D01*
X132077702Y-84120294D01*
X132074599Y-84115622D01*
X131959423Y-83971736D01*
X131825053Y-83855717D01*
X131675784Y-83768570D01*
X131515913Y-83711301D01*
X131349737Y-83684914D01*
X131181552Y-83690415D01*
X131015655Y-83728810D01*
X130856342Y-83801105D01*
X130821487Y-83822374D01*
X130680737Y-83933004D01*
X130567714Y-84063698D01*
X130483003Y-84209936D01*
X130427194Y-84367192D01*
X130400874Y-84530943D01*
X130404630Y-84696667D01*
X130439050Y-84859838D01*
X130504723Y-85015935D01*
X130602235Y-85160433D01*
X130641813Y-85205131D01*
X130765703Y-85318888D01*
X130896124Y-85401782D01*
X131042315Y-85458644D01*
X131187088Y-85490313D01*
X131349860Y-85498131D01*
X131513440Y-85472062D01*
X131672298Y-85414755D01*
X131820906Y-85328856D01*
X131953735Y-85217014D01*
X132065256Y-85081877D01*
X132077011Y-85064117D01*
X132115508Y-85007850D01*
X132148863Y-84965077D01*
X132170160Y-84944628D01*
X132170833Y-84944331D01*
X132193871Y-84948721D01*
X132246157Y-84966124D01*
X132323390Y-84994732D01*
X132421268Y-85032735D01*
X132535491Y-85078326D01*
X132661758Y-85129697D01*
X132795767Y-85185038D01*
X132933218Y-85242542D01*
X133069808Y-85300399D01*
X133201237Y-85356802D01*
X133323205Y-85409942D01*
X133431409Y-85458010D01*
X133521549Y-85499199D01*
X133589323Y-85531699D01*
X133630430Y-85553703D01*
X133641226Y-85562564D01*
X133632819Y-85589640D01*
X133610272Y-85640303D01*
X133577613Y-85705817D01*
X133558520Y-85741841D01*
X133475800Y-85894832D01*
X133599075Y-86077088D01*
X133662228Y-86170125D01*
X133731727Y-86271985D01*
X133797165Y-86367438D01*
X133830117Y-86415250D01*
X133875273Y-86482495D01*
X133911057Y-86539436D01*
X133932938Y-86578646D01*
X133937563Y-86591381D01*
X133925085Y-86609917D01*
X133890252Y-86650941D01*
X133836678Y-86710475D01*
X133767983Y-86784542D01*
X133687781Y-86869165D01*
X133636286Y-86922685D01*
X133544286Y-87016319D01*
X133461999Y-87097241D01*
X133392945Y-87162177D01*
X133340644Y-87207858D01*
X133308616Y-87231011D01*
X133302116Y-87233232D01*
X133277394Y-87222924D01*
X133227405Y-87194439D01*
X133157212Y-87150937D01*
X133071875Y-87095577D01*
X132976456Y-87031520D01*
X132949854Y-87013303D01*
X132853167Y-86946927D01*
X132766117Y-86887378D01*
X132693595Y-86837984D01*
X132640493Y-86802075D01*
X132611703Y-86782981D01*
X132608726Y-86781136D01*
X132585782Y-86783895D01*
X132535336Y-86798538D01*
X132464041Y-86822513D01*
X132378547Y-86853266D01*
X132285507Y-86888244D01*
X132191574Y-86924893D01*
X132103399Y-86960661D01*
X132027634Y-86992994D01*
X131970931Y-87019338D01*
X131939943Y-87037142D01*
X131938457Y-87038407D01*
X131929601Y-87049294D01*
X131920843Y-87067682D01*
X131911277Y-87097606D01*
X131899996Y-87143103D01*
X131886093Y-87208209D01*
X131868663Y-87296961D01*
X131846798Y-87413393D01*
X131819591Y-87561542D01*
X131813741Y-87593618D01*
X131795374Y-87688686D01*
X131777405Y-87771565D01*
X131761569Y-87834930D01*
X131749600Y-87871458D01*
X131746810Y-87876356D01*
X131722072Y-87884427D01*
X131666790Y-87890987D01*
X131587389Y-87896033D01*
X131490296Y-87899559D01*
X131381938Y-87901561D01*
X131268740Y-87902036D01*
X131157128Y-87900977D01*
X131053529Y-87898382D01*
X130964368Y-87894246D01*
X130896072Y-87888563D01*
X130855066Y-87881331D01*
X130846674Y-87876971D01*
X130838208Y-87852698D01*
X130824435Y-87797426D01*
X130806550Y-87716662D01*
X130785748Y-87615912D01*
X130763223Y-87500683D01*
X130751418Y-87437902D01*
X130729151Y-87318787D01*
X130708979Y-87212565D01*
X130691915Y-87124427D01*
X130678969Y-87059566D01*
X130671155Y-87023174D01*
X130669422Y-87017184D01*
X130649890Y-87007061D01*
X130602843Y-86985662D01*
X130535003Y-86955839D01*
X130453091Y-86920445D01*
X130363828Y-86882332D01*
X130273935Y-86844353D01*
X130190135Y-86809360D01*
X130119147Y-86780206D01*
X130067694Y-86759743D01*
X130042497Y-86750823D01*
X130041396Y-86750657D01*
X130021519Y-86760769D01*
X129975777Y-86789117D01*
X129908717Y-86832723D01*
X129824884Y-86888606D01*
X129728826Y-86953787D01*
X129673650Y-86991679D01*
X129572481Y-87060725D01*
X129480630Y-87122050D01*
X129402744Y-87172663D01*
X129343469Y-87209571D01*
X129307451Y-87229782D01*
X129299377Y-87232701D01*
X129280584Y-87220153D01*
X129240457Y-87185463D01*
X129183493Y-87133063D01*
X129114185Y-87067384D01*
X129037031Y-86992856D01*
X128956525Y-86913913D01*
X128877163Y-86834983D01*
X128803440Y-86760500D01*
X128739852Y-86694894D01*
X128690894Y-86642596D01*
X128661061Y-86608039D01*
X128653942Y-86596478D01*
X128663953Y-86577654D01*
X128692078Y-86532631D01*
X128735454Y-86465787D01*
X128791218Y-86381499D01*
X128856506Y-86284144D01*
X128906246Y-86210707D01*
X129158551Y-85839667D01*
X128903555Y-85221095D01*
X128458931Y-85137275D01*
X128014307Y-85053454D01*
X128014307Y-84128006D01*
X128458931Y-84044186D01*
X128903555Y-83960365D01*
X129031053Y-83651080D01*
X129158551Y-83341794D01*
X128906246Y-82970754D01*
X128835996Y-82866843D01*
X128773272Y-82772913D01*
X128720938Y-82693348D01*
X128681857Y-82632530D01*
X128658893Y-82594843D01*
X128653942Y-82584579D01*
X128666676Y-82566090D01*
X128701882Y-82526580D01*
X128755062Y-82470478D01*
X128821718Y-82402213D01*
X128897354Y-82326214D01*
X128977472Y-82246908D01*
X129057574Y-82168725D01*
X129133164Y-82096093D01*
X129199745Y-82033441D01*
X129252818Y-81985197D01*
X129287887Y-81955790D01*
X129299623Y-81948759D01*
X129321260Y-81958877D01*
X129368662Y-81987241D01*
X129437193Y-82030871D01*
X129522215Y-82086782D01*
X129619093Y-82151994D01*
X129674350Y-82189781D01*
X129775248Y-82258657D01*
X129866299Y-82319860D01*
X129942970Y-82370422D01*
X130000728Y-82407372D01*
X130035043Y-82427742D01*
X130042254Y-82430803D01*
X130062748Y-82423864D01*
X130110513Y-82404949D01*
X130178832Y-82376913D01*
X130260989Y-82342609D01*
X130350270Y-82304891D01*
X130439958Y-82266613D01*
X130523338Y-82230630D01*
X130593694Y-82199794D01*
X130644310Y-82176961D01*
X130668471Y-82164983D01*
X130669422Y-82164276D01*
X130674036Y-82145469D01*
X130684328Y-82095382D01*
X130699287Y-82019207D01*
X130717901Y-81922135D01*
X130739159Y-81809357D01*
X130751418Y-81743558D01*
X130774362Y-81623050D01*
X130796195Y-81514203D01*
X130815722Y-81422524D01*
X130831748Y-81353519D01*
X130843079Y-81312696D01*
X130846674Y-81304489D01*
X130871006Y-81296452D01*
X130925959Y-81289967D01*
X131005108Y-81285030D01*
X131102026Y-81281636D01*
X131210287Y-81279782D01*
X131323465Y-81279462D01*
X131435135Y-81280673D01*
G36*
X131435135Y-81280673D02*
G01*
X131538868Y-81283410D01*
X131628241Y-81287669D01*
X131696826Y-81293445D01*
X131738197Y-81300733D01*
X131746810Y-81305105D01*
X131757133Y-81331236D01*
X131771892Y-81386607D01*
X131789352Y-81463893D01*
X131807780Y-81555770D01*
X131813741Y-81587842D01*
X131842066Y-81742476D01*
X131864876Y-81864625D01*
X131883080Y-81958327D01*
X131897583Y-82027616D01*
X131909292Y-82076529D01*
X131919115Y-82109103D01*
X131927956Y-82129372D01*
X131936724Y-82141374D01*
X131938457Y-82143053D01*
X131966371Y-82159816D01*
X132020695Y-82185386D01*
X132094777Y-82217212D01*
X132181965Y-82252740D01*
X132275608Y-82289417D01*
X132369052Y-82324689D01*
X132455647Y-82356004D01*
X132528740Y-82380807D01*
X132581678Y-82396546D01*
X132607811Y-82400668D01*
X132608726Y-82400324D01*
X132630086Y-82386359D01*
X132677084Y-82354678D01*
X132744827Y-82308609D01*
X132828423Y-82251482D01*
X132922982Y-82186627D01*
X132949854Y-82168157D01*
X133047275Y-82102301D01*
X133136163Y-82044350D01*
X133211412Y-81997462D01*
X133267920Y-81964793D01*
X133300581Y-81949500D01*
X133304593Y-81948759D01*
X133325684Y-81961608D01*
X133367464Y-81997112D01*
X133425445Y-82050707D01*
X133495135Y-82117829D01*
X133572045Y-82193913D01*
X133651683Y-82274396D01*
X133729561Y-82354713D01*
X133801186Y-82430301D01*
X133862070Y-82496595D01*
X133907721Y-82549031D01*
X133933650Y-82583045D01*
X133937883Y-82592455D01*
X133927912Y-82614357D01*
X133901020Y-82659200D01*
X133861736Y-82719679D01*
X133830117Y-82766211D01*
X133772098Y-82850525D01*
X133703784Y-82950374D01*
X133635579Y-83050527D01*
X133599075Y-83104373D01*
X133475800Y-83286629D01*
X133558520Y-83439619D01*
X133594759Y-83509318D01*
X133622926Y-83568586D01*
X133638991Y-83608689D01*
X133641226Y-83618897D01*
X133624722Y-83631171D01*
X133578082Y-83655387D01*
X133505609Y-83689737D01*
X133411606Y-83732412D01*
X133300374Y-83781606D01*
X133176215Y-83835510D01*
X133043432Y-83892316D01*
X132906327Y-83950218D01*
X132769202Y-84007407D01*
X132636358Y-84062076D01*
X132512098Y-84112416D01*
X132400725Y-84156620D01*
X132306539Y-84192881D01*
X132233844Y-84219391D01*
X132186941Y-84234342D01*
X132170833Y-84236746D01*
X132150286Y-84217689D01*
X132116933Y-84175964D01*
X132077702Y-84120294D01*
X132074599Y-84115622D01*
X131959423Y-83971736D01*
X131825053Y-83855717D01*
X131675784Y-83768570D01*
X131515913Y-83711301D01*
X131349737Y-83684914D01*
X131181552Y-83690415D01*
X131015655Y-83728810D01*
X130856342Y-83801105D01*
X130821487Y-83822374D01*
X130680737Y-83933004D01*
X130567714Y-84063698D01*
X130483003Y-84209936D01*
X130427194Y-84367192D01*
X130400874Y-84530943D01*
X130404630Y-84696667D01*
X130439050Y-84859838D01*
X130504723Y-85015935D01*
X130602235Y-85160433D01*
X130641813Y-85205131D01*
X130765703Y-85318888D01*
X130896124Y-85401782D01*
X131042315Y-85458644D01*
X131187088Y-85490313D01*
X131349860Y-85498131D01*
X131513440Y-85472062D01*
X131672298Y-85414755D01*
X131820906Y-85328856D01*
X131953735Y-85217014D01*
X132065256Y-85081877D01*
X132077011Y-85064117D01*
X132115508Y-85007850D01*
X132148863Y-84965077D01*
X132170160Y-84944628D01*
X132170833Y-84944331D01*
X132193871Y-84948721D01*
X132246157Y-84966124D01*
X132323390Y-84994732D01*
X132421268Y-85032735D01*
X132535491Y-85078326D01*
X132661758Y-85129697D01*
X132795767Y-85185038D01*
X132933218Y-85242542D01*
X133069808Y-85300399D01*
X133201237Y-85356802D01*
X133323205Y-85409942D01*
X133431409Y-85458010D01*
X133521549Y-85499199D01*
X133589323Y-85531699D01*
X133630430Y-85553703D01*
X133641226Y-85562564D01*
X133632819Y-85589640D01*
X133610272Y-85640303D01*
X133577613Y-85705817D01*
X133558520Y-85741841D01*
X133475800Y-85894832D01*
X133599075Y-86077088D01*
X133662228Y-86170125D01*
X133731727Y-86271985D01*
X133797165Y-86367438D01*
X133830117Y-86415250D01*
X133875273Y-86482495D01*
X133911057Y-86539436D01*
X133932938Y-86578646D01*
X133937563Y-86591381D01*
X133925085Y-86609917D01*
X133890252Y-86650941D01*
X133836678Y-86710475D01*
X133767983Y-86784542D01*
X133687781Y-86869165D01*
X133636286Y-86922685D01*
X133544286Y-87016319D01*
X133461999Y-87097241D01*
X133392945Y-87162177D01*
X133340644Y-87207858D01*
X133308616Y-87231011D01*
X133302116Y-87233232D01*
X133277394Y-87222924D01*
X133227405Y-87194439D01*
X133157212Y-87150937D01*
X133071875Y-87095577D01*
X132976456Y-87031520D01*
X132949854Y-87013303D01*
X132853167Y-86946927D01*
X132766117Y-86887378D01*
X132693595Y-86837984D01*
X132640493Y-86802075D01*
X132611703Y-86782981D01*
X132608726Y-86781136D01*
X132585782Y-86783895D01*
X132535336Y-86798538D01*
X132464041Y-86822513D01*
X132378547Y-86853266D01*
X132285507Y-86888244D01*
X132191574Y-86924893D01*
X132103399Y-86960661D01*
X132027634Y-86992994D01*
X131970931Y-87019338D01*
X131939943Y-87037142D01*
X131938457Y-87038407D01*
X131929601Y-87049294D01*
X131920843Y-87067682D01*
X131911277Y-87097606D01*
X131899996Y-87143103D01*
X131886093Y-87208209D01*
X131868663Y-87296961D01*
X131846798Y-87413393D01*
X131819591Y-87561542D01*
X131813741Y-87593618D01*
X131795374Y-87688686D01*
X131777405Y-87771565D01*
X131761569Y-87834930D01*
X131749600Y-87871458D01*
X131746810Y-87876356D01*
X131722072Y-87884427D01*
X131666790Y-87890987D01*
X131587389Y-87896033D01*
X131490296Y-87899559D01*
X131381938Y-87901561D01*
X131268740Y-87902036D01*
X131157128Y-87900977D01*
X131053529Y-87898382D01*
X130964368Y-87894246D01*
X130896072Y-87888563D01*
X130855066Y-87881331D01*
X130846674Y-87876971D01*
X130838208Y-87852698D01*
X130824435Y-87797426D01*
X130806550Y-87716662D01*
X130785748Y-87615912D01*
X130763223Y-87500683D01*
X130751418Y-87437902D01*
X130729151Y-87318787D01*
X130708979Y-87212565D01*
X130691915Y-87124427D01*
X130678969Y-87059566D01*
X130671155Y-87023174D01*
X130669422Y-87017184D01*
X130649890Y-87007061D01*
X130602843Y-86985662D01*
X130535003Y-86955839D01*
X130453091Y-86920445D01*
X130363828Y-86882332D01*
X130273935Y-86844353D01*
X130190135Y-86809360D01*
X130119147Y-86780206D01*
X130067694Y-86759743D01*
X130042497Y-86750823D01*
X130041396Y-86750657D01*
X130021519Y-86760769D01*
X129975777Y-86789117D01*
X129908717Y-86832723D01*
X129824884Y-86888606D01*
X129728826Y-86953787D01*
X129673650Y-86991679D01*
X129572481Y-87060725D01*
X129480630Y-87122050D01*
X129402744Y-87172663D01*
X129343469Y-87209571D01*
X129307451Y-87229782D01*
X129299377Y-87232701D01*
X129280584Y-87220153D01*
X129240457Y-87185463D01*
X129183493Y-87133063D01*
X129114185Y-87067384D01*
X129037031Y-86992856D01*
X128956525Y-86913913D01*
X128877163Y-86834983D01*
X128803440Y-86760500D01*
X128739852Y-86694894D01*
X128690894Y-86642596D01*
X128661061Y-86608039D01*
X128653942Y-86596478D01*
X128663953Y-86577654D01*
X128692078Y-86532631D01*
X128735454Y-86465787D01*
X128791218Y-86381499D01*
X128856506Y-86284144D01*
X128906246Y-86210707D01*
X129158551Y-85839667D01*
X128903555Y-85221095D01*
X128458931Y-85137275D01*
X128014307Y-85053454D01*
X128014307Y-84128006D01*
X128458931Y-84044186D01*
X128903555Y-83960365D01*
X129031053Y-83651080D01*
X129158551Y-83341794D01*
X128906246Y-82970754D01*
X128835996Y-82866843D01*
X128773272Y-82772913D01*
X128720938Y-82693348D01*
X128681857Y-82632530D01*
X128658893Y-82594843D01*
X128653942Y-82584579D01*
X128666676Y-82566090D01*
X128701882Y-82526580D01*
X128755062Y-82470478D01*
X128821718Y-82402213D01*
X128897354Y-82326214D01*
X128977472Y-82246908D01*
X129057574Y-82168725D01*
X129133164Y-82096093D01*
X129199745Y-82033441D01*
X129252818Y-81985197D01*
X129287887Y-81955790D01*
X129299623Y-81948759D01*
X129321260Y-81958877D01*
X129368662Y-81987241D01*
X129437193Y-82030871D01*
X129522215Y-82086782D01*
X129619093Y-82151994D01*
X129674350Y-82189781D01*
X129775248Y-82258657D01*
X129866299Y-82319860D01*
X129942970Y-82370422D01*
X130000728Y-82407372D01*
X130035043Y-82427742D01*
X130042254Y-82430803D01*
X130062748Y-82423864D01*
X130110513Y-82404949D01*
X130178832Y-82376913D01*
X130260989Y-82342609D01*
X130350270Y-82304891D01*
X130439958Y-82266613D01*
X130523338Y-82230630D01*
X130593694Y-82199794D01*
X130644310Y-82176961D01*
X130668471Y-82164983D01*
X130669422Y-82164276D01*
X130674036Y-82145469D01*
X130684328Y-82095382D01*
X130699287Y-82019207D01*
X130717901Y-81922135D01*
X130739159Y-81809357D01*
X130751418Y-81743558D01*
X130774362Y-81623050D01*
X130796195Y-81514203D01*
X130815722Y-81422524D01*
X130831748Y-81353519D01*
X130843079Y-81312696D01*
X130846674Y-81304489D01*
X130871006Y-81296452D01*
X130925959Y-81289967D01*
X131005108Y-81285030D01*
X131102026Y-81281636D01*
X131210287Y-81279782D01*
X131323465Y-81279462D01*
X131435135Y-81280673D01*
G37*
%LPC*%
D14*
X128040000Y-116550000D03*
D15*
X128040000Y-116550000D03*
D14*
X95390000Y-89900000D03*
D15*
X95390000Y-89900000D03*
D14*
X128040000Y-70750000D03*
D15*
X128040000Y-70750000D03*
D16*
X105119999Y-112421793D03*
D17*
X103352232Y-110654026D03*
X101584465Y-108886259D03*
X99816698Y-107118492D03*
D18*
X100081859Y-79841859D03*
D19*
X101849626Y-78074092D03*
X103617393Y-76306325D03*
X105385160Y-74538558D03*
D20*
X119790000Y-117150000D03*
D21*
X117290000Y-117150000D03*
%LPD*%
M02*
