G04 #@! TF.GenerationSoftware,KiCad,Pcbnew,7.0.8-7.0.8~ubuntu22.04.1*
G04 #@! TF.CreationDate,2023-10-24T23:53:50-07:00*
G04 #@! TF.ProjectId,tentacle-board,74656e74-6163-46c6-952d-626f6172642e,REV1*
G04 #@! TF.SameCoordinates,Original*
G04 #@! TF.FileFunction,Soldermask,Bot*
G04 #@! TF.FilePolarity,Negative*
%FSLAX46Y46*%
G04 Gerber Fmt 4.6, Leading zero omitted, Abs format (unit mm)*
G04 Created by KiCad (PCBNEW 7.0.8-7.0.8~ubuntu22.04.1) date 2023-10-24 23:53:50*
%MOMM*%
%LPD*%
G01*
G04 APERTURE LIST*
G04 APERTURE END LIST*
G36*
X128108815Y-114754036D02*
G01*
X128174589Y-114754036D01*
X128233988Y-114762989D01*
X128296287Y-114767445D01*
X128370142Y-114783511D01*
X128440760Y-114794155D01*
X128492646Y-114810159D01*
X128547370Y-114822064D01*
X128624483Y-114850825D01*
X128697979Y-114873496D01*
X128741647Y-114894525D01*
X128788112Y-114911856D01*
X128866380Y-114954593D01*
X128940500Y-114990288D01*
X128975699Y-115014286D01*
X129013631Y-115034999D01*
X129090716Y-115092704D01*
X129162905Y-115141922D01*
X129189802Y-115166879D01*
X129219331Y-115188984D01*
X129292714Y-115262367D01*
X129360226Y-115325009D01*
X129379402Y-115349055D01*
X129401015Y-115370668D01*
X129468044Y-115460209D01*
X129528056Y-115535461D01*
X129540458Y-115556943D01*
X129555000Y-115576368D01*
X129613009Y-115682603D01*
X129662645Y-115768575D01*
X129669524Y-115786102D01*
X129678143Y-115801887D01*
X129724527Y-115926248D01*
X129760987Y-116019146D01*
X129763842Y-116031656D01*
X129767935Y-116042629D01*
X129800202Y-116190961D01*
X129820884Y-116281575D01*
X129821393Y-116288379D01*
X129822554Y-116293712D01*
X129838477Y-116516333D01*
X129841000Y-116550000D01*
X129838476Y-116583669D01*
X129822554Y-116806287D01*
X129821394Y-116811619D01*
X129820884Y-116818425D01*
X129800197Y-116909058D01*
X129767935Y-117057370D01*
X129763842Y-117068341D01*
X129760987Y-117080854D01*
X129724520Y-117173770D01*
X129678143Y-117298112D01*
X129669525Y-117313893D01*
X129662645Y-117331425D01*
X129612998Y-117417414D01*
X129555000Y-117523631D01*
X129540461Y-117543052D01*
X129528056Y-117564539D01*
X129468032Y-117639805D01*
X129401015Y-117729331D01*
X129379406Y-117750939D01*
X129360226Y-117774991D01*
X129292701Y-117837644D01*
X129219331Y-117911015D01*
X129189808Y-117933115D01*
X129162905Y-117958078D01*
X129090701Y-118007305D01*
X129013631Y-118065000D01*
X128975707Y-118085708D01*
X128940500Y-118109712D01*
X128866364Y-118145413D01*
X128788112Y-118188143D01*
X128741656Y-118205469D01*
X128697979Y-118226504D01*
X128624467Y-118249179D01*
X128547370Y-118277935D01*
X128492657Y-118289836D01*
X128440760Y-118305845D01*
X128370127Y-118316491D01*
X128296287Y-118332554D01*
X128234001Y-118337009D01*
X128174589Y-118345964D01*
X128108801Y-118345964D01*
X128040000Y-118350885D01*
X127971199Y-118345964D01*
X127905411Y-118345964D01*
X127845999Y-118337009D01*
X127783712Y-118332554D01*
X127709868Y-118316490D01*
X127639240Y-118305845D01*
X127587344Y-118289837D01*
X127532629Y-118277935D01*
X127455526Y-118249177D01*
X127382021Y-118226504D01*
X127338346Y-118205471D01*
X127291887Y-118188143D01*
X127213626Y-118145409D01*
X127139500Y-118109712D01*
X127104296Y-118085710D01*
X127066368Y-118065000D01*
X126989287Y-118007298D01*
X126917095Y-117958078D01*
X126890195Y-117933119D01*
X126860668Y-117911015D01*
X126787285Y-117837632D01*
X126719774Y-117774991D01*
X126700597Y-117750944D01*
X126678984Y-117729331D01*
X126611950Y-117639785D01*
X126551944Y-117564539D01*
X126539541Y-117543058D01*
X126524999Y-117523631D01*
X126466982Y-117417382D01*
X126417355Y-117331425D01*
X126410476Y-117313900D01*
X126401856Y-117298112D01*
X126355459Y-117173718D01*
X126319013Y-117080854D01*
X126316158Y-117068348D01*
X126312064Y-117057370D01*
X126279780Y-116908964D01*
X126259116Y-116818425D01*
X126258606Y-116811626D01*
X126257445Y-116806287D01*
X126241501Y-116583376D01*
X126239000Y-116550000D01*
X126241501Y-116516626D01*
X126257445Y-116293712D01*
X126258606Y-116288372D01*
X126259116Y-116281575D01*
X126279776Y-116191055D01*
X126312064Y-116042629D01*
X126316159Y-116031649D01*
X126319013Y-116019146D01*
X126355452Y-115926300D01*
X126401856Y-115801887D01*
X126410478Y-115786096D01*
X126417355Y-115768575D01*
X126466972Y-115682635D01*
X126524999Y-115576368D01*
X126539544Y-115556937D01*
X126551944Y-115535461D01*
X126611938Y-115460230D01*
X126678984Y-115370668D01*
X126700601Y-115349050D01*
X126719774Y-115325009D01*
X126787271Y-115262380D01*
X126860668Y-115188984D01*
X126890201Y-115166875D01*
X126917095Y-115141922D01*
X126989272Y-115092712D01*
X127066368Y-115034999D01*
X127104304Y-115014284D01*
X127139500Y-114990288D01*
X127213611Y-114954597D01*
X127291887Y-114911856D01*
X127338355Y-114894524D01*
X127382021Y-114873496D01*
X127455510Y-114850827D01*
X127532629Y-114822064D01*
X127587355Y-114810159D01*
X127639240Y-114794155D01*
X127709853Y-114783511D01*
X127783712Y-114767445D01*
X127846012Y-114762988D01*
X127905411Y-114754036D01*
X127971185Y-114754036D01*
X128040000Y-114749114D01*
X128108815Y-114754036D01*
G37*
G36*
X120458914Y-116106995D02*
G01*
X120463645Y-116109084D01*
X120466811Y-116109501D01*
X120506442Y-116127981D01*
X120560106Y-116151676D01*
X120638324Y-116229894D01*
X120662028Y-116283579D01*
X120680498Y-116323188D01*
X120680914Y-116326351D01*
X120683005Y-116331086D01*
X120691000Y-116400000D01*
X120691000Y-117900000D01*
X120683005Y-117968914D01*
X120680914Y-117973648D01*
X120680498Y-117976811D01*
X120662036Y-118016402D01*
X120638324Y-118070106D01*
X120560106Y-118148324D01*
X120506402Y-118172036D01*
X120466811Y-118190498D01*
X120463648Y-118190914D01*
X120458914Y-118193005D01*
X120390000Y-118201000D01*
X119190000Y-118201000D01*
X119121086Y-118193005D01*
X119116351Y-118190914D01*
X119113188Y-118190498D01*
X119073579Y-118172028D01*
X119019894Y-118148324D01*
X118941676Y-118070106D01*
X118917981Y-118016442D01*
X118899501Y-117976811D01*
X118899084Y-117973645D01*
X118896995Y-117968914D01*
X118889000Y-117900000D01*
X118889000Y-116400000D01*
X118896995Y-116331086D01*
X118899084Y-116326354D01*
X118899501Y-116323188D01*
X118917989Y-116283538D01*
X118941676Y-116229894D01*
X119019894Y-116151676D01*
X119073544Y-116127987D01*
X119113188Y-116109501D01*
X119116354Y-116109084D01*
X119121086Y-116106995D01*
X119190000Y-116099000D01*
X120390000Y-116099000D01*
X120458914Y-116106995D01*
G37*
G36*
X117314350Y-116103936D02*
G01*
X117384180Y-116103936D01*
X117406064Y-116108587D01*
X117426398Y-116109619D01*
X117497376Y-116127996D01*
X117568424Y-116143098D01*
X117586103Y-116150969D01*
X117602845Y-116155304D01*
X117671706Y-116189082D01*
X117740500Y-116219711D01*
X117753702Y-116229303D01*
X117766472Y-116235567D01*
X117829900Y-116284664D01*
X117892887Y-116330427D01*
X117901779Y-116340303D01*
X117910599Y-116347130D01*
X117965315Y-116410867D01*
X118018924Y-116470405D01*
X118024050Y-116479285D01*
X118029315Y-116485417D01*
X118072213Y-116562704D01*
X118113104Y-116633530D01*
X118115334Y-116640394D01*
X118117768Y-116644779D01*
X118146107Y-116735104D01*
X118171311Y-116812672D01*
X118171747Y-116816824D01*
X118172328Y-116818675D01*
X118183850Y-116931978D01*
X118191000Y-117000000D01*
X118191000Y-117300000D01*
X118190888Y-117301059D01*
X118186377Y-117390001D01*
X118176477Y-117438175D01*
X118171311Y-117487328D01*
X118157884Y-117528649D01*
X118149458Y-117569656D01*
X118129292Y-117616645D01*
X118113104Y-117666470D01*
X118092877Y-117701504D01*
X118077584Y-117737141D01*
X118046605Y-117781648D01*
X118018924Y-117829595D01*
X117993857Y-117857434D01*
X117973462Y-117886737D01*
X117931901Y-117926242D01*
X117892887Y-117969573D01*
X117865014Y-117989823D01*
X117841364Y-118012305D01*
X117790043Y-118044293D01*
X117740500Y-118080289D01*
X117711777Y-118093077D01*
X117686692Y-118108713D01*
X117627025Y-118130810D01*
X117568424Y-118156902D01*
X117540620Y-118162811D01*
X117515779Y-118172012D01*
X117449735Y-118182129D01*
X117384180Y-118196064D01*
X117358781Y-118196064D01*
X117335622Y-118199612D01*
X117265669Y-118196064D01*
X117195820Y-118196064D01*
X117173929Y-118191411D01*
X117153601Y-118190380D01*
X117082639Y-118172006D01*
X117011576Y-118156902D01*
X116993892Y-118149028D01*
X116977154Y-118144695D01*
X116908304Y-118110922D01*
X116839500Y-118080289D01*
X116826295Y-118070695D01*
X116813527Y-118064432D01*
X116750104Y-118015339D01*
X116687113Y-117969573D01*
X116678219Y-117959695D01*
X116669400Y-117952869D01*
X116614681Y-117889129D01*
X116561076Y-117829595D01*
X116555949Y-117820715D01*
X116550684Y-117814582D01*
X116507775Y-117737275D01*
X116466896Y-117666470D01*
X116464666Y-117659607D01*
X116462231Y-117655220D01*
X116433872Y-117564833D01*
X116408689Y-117487328D01*
X116408252Y-117483178D01*
X116407671Y-117481324D01*
X116396144Y-117367975D01*
X116389000Y-117300000D01*
X116389000Y-117000000D01*
X116389111Y-116998941D01*
X116393622Y-116909998D01*
X116403524Y-116861812D01*
X116408689Y-116812672D01*
X116422111Y-116771360D01*
X116430541Y-116730343D01*
X116450711Y-116683340D01*
X116466896Y-116633530D01*
X116487117Y-116598505D01*
X116502415Y-116562858D01*
X116533402Y-116518337D01*
X116561076Y-116470405D01*
X116586135Y-116442573D01*
X116606537Y-116413262D01*
X116648110Y-116373743D01*
X116687113Y-116330427D01*
X116714976Y-116310182D01*
X116738635Y-116287694D01*
X116789971Y-116255695D01*
X116839500Y-116219711D01*
X116868213Y-116206927D01*
X116893307Y-116191286D01*
X116952992Y-116169180D01*
X117011576Y-116143098D01*
X117039370Y-116137190D01*
X117064220Y-116127987D01*
X117130283Y-116117866D01*
X117195820Y-116103936D01*
X117221211Y-116103936D01*
X117244377Y-116100387D01*
X117314350Y-116103936D01*
G37*
G36*
X105318382Y-111210187D02*
G01*
X105359487Y-111225148D01*
X105362021Y-111227092D01*
X105366844Y-111228961D01*
X105421226Y-111272037D01*
X105647245Y-111498056D01*
X106267671Y-112118481D01*
X106267674Y-112118485D01*
X106269755Y-112120566D01*
X106312831Y-112174948D01*
X106314698Y-112179769D01*
X106316642Y-112182302D01*
X106331595Y-112223386D01*
X106352790Y-112278096D01*
X106352790Y-112388713D01*
X106331592Y-112443431D01*
X106316643Y-112484504D01*
X106314700Y-112487035D01*
X106312831Y-112491861D01*
X106269755Y-112546244D01*
X105244450Y-113571549D01*
X105190067Y-113614625D01*
X105185243Y-113616493D01*
X105182712Y-113618436D01*
X105141637Y-113633386D01*
X105086919Y-113654584D01*
X104976302Y-113654584D01*
X104921599Y-113633392D01*
X104880510Y-113618437D01*
X104877977Y-113616493D01*
X104873154Y-113614625D01*
X104818772Y-113571549D01*
X104394505Y-113147282D01*
X103972326Y-112725104D01*
X103972322Y-112725099D01*
X103970243Y-112723020D01*
X103927167Y-112668638D01*
X103925299Y-112663816D01*
X103923355Y-112661283D01*
X103908398Y-112620190D01*
X103887208Y-112565490D01*
X103887208Y-112454873D01*
X103908389Y-112400195D01*
X103923354Y-112359081D01*
X103925299Y-112356545D01*
X103927167Y-112351725D01*
X103970243Y-112297342D01*
X104726767Y-111540818D01*
X104993464Y-111274120D01*
X104993468Y-111274116D01*
X104995548Y-111272037D01*
X105049931Y-111228961D01*
X105054750Y-111227094D01*
X105057285Y-111225149D01*
X105098394Y-111210186D01*
X105153079Y-111189002D01*
X105263696Y-111189002D01*
X105318382Y-111210187D01*
G37*
G36*
X103521792Y-109671260D02*
G01*
X103554424Y-109672088D01*
X103613354Y-109685762D01*
X103673816Y-109695339D01*
X103703156Y-109706601D01*
X103731962Y-109713286D01*
X103789793Y-109739858D01*
X103849666Y-109762841D01*
X103873501Y-109778320D01*
X103897572Y-109789380D01*
X103951428Y-109828927D01*
X104007638Y-109865430D01*
X104025596Y-109883388D01*
X104044482Y-109897256D01*
X104091441Y-109949233D01*
X104140828Y-109998620D01*
X104153015Y-110017387D01*
X104166664Y-110032494D01*
X104203858Y-110095677D01*
X104243417Y-110156592D01*
X104250351Y-110174657D01*
X104259125Y-110189561D01*
X104283936Y-110262148D01*
X104310919Y-110332442D01*
X104313471Y-110348557D01*
X104318073Y-110362020D01*
X104328207Y-110441596D01*
X104340385Y-110518484D01*
X104339689Y-110531756D01*
X104341098Y-110542817D01*
X104334720Y-110626560D01*
X104330527Y-110706585D01*
X104327872Y-110716491D01*
X104327259Y-110724550D01*
X104302941Y-110809535D01*
X104281776Y-110888527D01*
X104278499Y-110894958D01*
X104277120Y-110899778D01*
X104233321Y-110983623D01*
X104196262Y-111056358D01*
X104193630Y-111059607D01*
X104192735Y-111061322D01*
X104120998Y-111149299D01*
X104077723Y-111202741D01*
X103900947Y-111379517D01*
X103900099Y-111380203D01*
X103834035Y-111439890D01*
X103792975Y-111466951D01*
X103754564Y-111498056D01*
X103715849Y-111517781D01*
X103680897Y-111540818D01*
X103633415Y-111559784D01*
X103586733Y-111583570D01*
X103547653Y-111594041D01*
X103511639Y-111608427D01*
X103458256Y-111617995D01*
X103404791Y-111632321D01*
X103367393Y-111634280D01*
X103332244Y-111640581D01*
X103274909Y-111639127D01*
X103216690Y-111642179D01*
X103182664Y-111636789D01*
X103150039Y-111635963D01*
X103091120Y-111622290D01*
X103030648Y-111612713D01*
X103001302Y-111601448D01*
X102972501Y-111594765D01*
X102914677Y-111568196D01*
X102854798Y-111545211D01*
X102830959Y-111529729D01*
X102806891Y-111518671D01*
X102753038Y-111479127D01*
X102696826Y-111442622D01*
X102678866Y-111424662D01*
X102659981Y-111410795D01*
X102613021Y-111358817D01*
X102563636Y-111309432D01*
X102551448Y-111290665D01*
X102537799Y-111275557D01*
X102500601Y-111212367D01*
X102461047Y-111151460D01*
X102454113Y-111133396D01*
X102445338Y-111118490D01*
X102420521Y-111045887D01*
X102393545Y-110975610D01*
X102390993Y-110959497D01*
X102386390Y-110946031D01*
X102376252Y-110866427D01*
X102364079Y-110789568D01*
X102364774Y-110776300D01*
X102363365Y-110765234D01*
X102369745Y-110681446D01*
X102373937Y-110601467D01*
X102376589Y-110591566D01*
X102377204Y-110583501D01*
X102401541Y-110498446D01*
X102422688Y-110419525D01*
X102425961Y-110413099D01*
X102427343Y-110408273D01*
X102471202Y-110324309D01*
X102508202Y-110251694D01*
X102510829Y-110248449D01*
X102511728Y-110246729D01*
X102583727Y-110158427D01*
X102626741Y-110105311D01*
X102628352Y-110103699D01*
X102628357Y-110103694D01*
X102802704Y-109929347D01*
X102802714Y-109929337D01*
X102803517Y-109928535D01*
X102804344Y-109927865D01*
X102870428Y-109868161D01*
X102911499Y-109841092D01*
X102949900Y-109809996D01*
X102988603Y-109790275D01*
X103023566Y-109767233D01*
X103071061Y-109748261D01*
X103117731Y-109724482D01*
X103156800Y-109714013D01*
X103192824Y-109699624D01*
X103246221Y-109690053D01*
X103299673Y-109675731D01*
X103337061Y-109673771D01*
X103372219Y-109667470D01*
X103429567Y-109668923D01*
X103487774Y-109665873D01*
X103521792Y-109671260D01*
G37*
G36*
X101754025Y-107903493D02*
G01*
X101786657Y-107904321D01*
X101845587Y-107917995D01*
X101906049Y-107927572D01*
X101935389Y-107938834D01*
X101964195Y-107945519D01*
X102022026Y-107972091D01*
X102081899Y-107995074D01*
X102105734Y-108010553D01*
X102129805Y-108021613D01*
X102183661Y-108061160D01*
X102239871Y-108097663D01*
X102257829Y-108115621D01*
X102276715Y-108129489D01*
X102323674Y-108181466D01*
X102373061Y-108230853D01*
X102385248Y-108249620D01*
X102398897Y-108264727D01*
X102436091Y-108327910D01*
X102475650Y-108388825D01*
X102482584Y-108406890D01*
X102491358Y-108421794D01*
X102516169Y-108494381D01*
X102543152Y-108564675D01*
X102545704Y-108580790D01*
X102550306Y-108594253D01*
X102560440Y-108673829D01*
X102572618Y-108750717D01*
X102571922Y-108763989D01*
X102573331Y-108775050D01*
X102566953Y-108858793D01*
X102562760Y-108938818D01*
X102560105Y-108948724D01*
X102559492Y-108956783D01*
X102535174Y-109041768D01*
X102514009Y-109120760D01*
X102510732Y-109127191D01*
X102509353Y-109132011D01*
X102465554Y-109215856D01*
X102428495Y-109288591D01*
X102425863Y-109291840D01*
X102424968Y-109293555D01*
X102353231Y-109381532D01*
X102309956Y-109434974D01*
X102133180Y-109611750D01*
X102132332Y-109612436D01*
X102066268Y-109672123D01*
X102025208Y-109699184D01*
X101986797Y-109730289D01*
X101948082Y-109750014D01*
X101913130Y-109773051D01*
X101865648Y-109792017D01*
X101818966Y-109815803D01*
X101779886Y-109826274D01*
X101743872Y-109840660D01*
X101690489Y-109850228D01*
X101637024Y-109864554D01*
X101599626Y-109866513D01*
X101564477Y-109872814D01*
X101507142Y-109871360D01*
X101448923Y-109874412D01*
X101414897Y-109869022D01*
X101382272Y-109868196D01*
X101323353Y-109854523D01*
X101262881Y-109844946D01*
X101233535Y-109833681D01*
X101204734Y-109826998D01*
X101146910Y-109800429D01*
X101087031Y-109777444D01*
X101063192Y-109761962D01*
X101039124Y-109750904D01*
X100985271Y-109711360D01*
X100929059Y-109674855D01*
X100911099Y-109656895D01*
X100892214Y-109643028D01*
X100845254Y-109591050D01*
X100795869Y-109541665D01*
X100783681Y-109522898D01*
X100770032Y-109507790D01*
X100732834Y-109444600D01*
X100693280Y-109383693D01*
X100686346Y-109365629D01*
X100677571Y-109350723D01*
X100652754Y-109278120D01*
X100625778Y-109207843D01*
X100623226Y-109191730D01*
X100618623Y-109178264D01*
X100608485Y-109098660D01*
X100596312Y-109021801D01*
X100597007Y-109008533D01*
X100595598Y-108997467D01*
X100601978Y-108913679D01*
X100606170Y-108833700D01*
X100608822Y-108823799D01*
X100609437Y-108815734D01*
X100633774Y-108730679D01*
X100654921Y-108651758D01*
X100658194Y-108645332D01*
X100659576Y-108640506D01*
X100703435Y-108556542D01*
X100740435Y-108483927D01*
X100743062Y-108480682D01*
X100743961Y-108478962D01*
X100815960Y-108390660D01*
X100858974Y-108337544D01*
X100860585Y-108335932D01*
X100860590Y-108335927D01*
X101034937Y-108161580D01*
X101034947Y-108161570D01*
X101035750Y-108160768D01*
X101036577Y-108160098D01*
X101102661Y-108100394D01*
X101143732Y-108073325D01*
X101182133Y-108042229D01*
X101220836Y-108022508D01*
X101255799Y-107999466D01*
X101303294Y-107980494D01*
X101349964Y-107956715D01*
X101389033Y-107946246D01*
X101425057Y-107931857D01*
X101478454Y-107922286D01*
X101531906Y-107907964D01*
X101569294Y-107906004D01*
X101604452Y-107899703D01*
X101661800Y-107901156D01*
X101720007Y-107898106D01*
X101754025Y-107903493D01*
G37*
G36*
X99986258Y-106135726D02*
G01*
X100018890Y-106136554D01*
X100077820Y-106150228D01*
X100138282Y-106159805D01*
X100167622Y-106171067D01*
X100196428Y-106177752D01*
X100254259Y-106204324D01*
X100314132Y-106227307D01*
X100337967Y-106242786D01*
X100362038Y-106253846D01*
X100415894Y-106293393D01*
X100472104Y-106329896D01*
X100490062Y-106347854D01*
X100508948Y-106361722D01*
X100555907Y-106413699D01*
X100605294Y-106463086D01*
X100617481Y-106481853D01*
X100631130Y-106496960D01*
X100668324Y-106560143D01*
X100707883Y-106621058D01*
X100714817Y-106639123D01*
X100723591Y-106654027D01*
X100748402Y-106726614D01*
X100775385Y-106796908D01*
X100777937Y-106813023D01*
X100782539Y-106826486D01*
X100792673Y-106906062D01*
X100804851Y-106982950D01*
X100804155Y-106996222D01*
X100805564Y-107007283D01*
X100799186Y-107091026D01*
X100794993Y-107171051D01*
X100792338Y-107180957D01*
X100791725Y-107189016D01*
X100767407Y-107274001D01*
X100746242Y-107352993D01*
X100742965Y-107359424D01*
X100741586Y-107364244D01*
X100697787Y-107448089D01*
X100660728Y-107520824D01*
X100658096Y-107524073D01*
X100657201Y-107525788D01*
X100585464Y-107613765D01*
X100542189Y-107667207D01*
X100365413Y-107843983D01*
X100364565Y-107844669D01*
X100298501Y-107904356D01*
X100257441Y-107931417D01*
X100219030Y-107962522D01*
X100180315Y-107982247D01*
X100145363Y-108005284D01*
X100097881Y-108024250D01*
X100051199Y-108048036D01*
X100012119Y-108058507D01*
X99976105Y-108072893D01*
X99922722Y-108082461D01*
X99869257Y-108096787D01*
X99831859Y-108098746D01*
X99796710Y-108105047D01*
X99739375Y-108103593D01*
X99681156Y-108106645D01*
X99647130Y-108101255D01*
X99614505Y-108100429D01*
X99555586Y-108086756D01*
X99495114Y-108077179D01*
X99465768Y-108065914D01*
X99436967Y-108059231D01*
X99379143Y-108032662D01*
X99319264Y-108009677D01*
X99295425Y-107994195D01*
X99271357Y-107983137D01*
X99217504Y-107943593D01*
X99161292Y-107907088D01*
X99143332Y-107889128D01*
X99124447Y-107875261D01*
X99077487Y-107823283D01*
X99028102Y-107773898D01*
X99015914Y-107755131D01*
X99002265Y-107740023D01*
X98965067Y-107676833D01*
X98925513Y-107615926D01*
X98918579Y-107597862D01*
X98909804Y-107582956D01*
X98884987Y-107510353D01*
X98858011Y-107440076D01*
X98855459Y-107423963D01*
X98850856Y-107410497D01*
X98840718Y-107330893D01*
X98828545Y-107254034D01*
X98829240Y-107240766D01*
X98827831Y-107229700D01*
X98834211Y-107145912D01*
X98838403Y-107065933D01*
X98841055Y-107056032D01*
X98841670Y-107047967D01*
X98866007Y-106962912D01*
X98887154Y-106883991D01*
X98890427Y-106877565D01*
X98891809Y-106872739D01*
X98935668Y-106788775D01*
X98972668Y-106716160D01*
X98975295Y-106712915D01*
X98976194Y-106711195D01*
X99048193Y-106622893D01*
X99091207Y-106569777D01*
X99092818Y-106568165D01*
X99092823Y-106568160D01*
X99267170Y-106393813D01*
X99267180Y-106393803D01*
X99267983Y-106393001D01*
X99268810Y-106392331D01*
X99334894Y-106332627D01*
X99375965Y-106305558D01*
X99414366Y-106274462D01*
X99453069Y-106254741D01*
X99488032Y-106231699D01*
X99535527Y-106212727D01*
X99582197Y-106188948D01*
X99621266Y-106178479D01*
X99657290Y-106164090D01*
X99710687Y-106154519D01*
X99764139Y-106140197D01*
X99801527Y-106138237D01*
X99836685Y-106131936D01*
X99894033Y-106133389D01*
X99952240Y-106130339D01*
X99986258Y-106135726D01*
G37*
G36*
X95458815Y-88104036D02*
G01*
X95524589Y-88104036D01*
X95583988Y-88112989D01*
X95646287Y-88117445D01*
X95720142Y-88133511D01*
X95790760Y-88144155D01*
X95842646Y-88160159D01*
X95897370Y-88172064D01*
X95974483Y-88200825D01*
X96047979Y-88223496D01*
X96091647Y-88244525D01*
X96138112Y-88261856D01*
X96216380Y-88304593D01*
X96290500Y-88340288D01*
X96325699Y-88364286D01*
X96363631Y-88384999D01*
X96440716Y-88442704D01*
X96512905Y-88491922D01*
X96539802Y-88516879D01*
X96569331Y-88538984D01*
X96642714Y-88612367D01*
X96710226Y-88675009D01*
X96729402Y-88699055D01*
X96751015Y-88720668D01*
X96818044Y-88810209D01*
X96878056Y-88885461D01*
X96890458Y-88906943D01*
X96905000Y-88926368D01*
X96963009Y-89032603D01*
X97012645Y-89118575D01*
X97019524Y-89136102D01*
X97028143Y-89151887D01*
X97074527Y-89276248D01*
X97110987Y-89369146D01*
X97113842Y-89381656D01*
X97117935Y-89392629D01*
X97150202Y-89540961D01*
X97170884Y-89631575D01*
X97171393Y-89638379D01*
X97172554Y-89643712D01*
X97188477Y-89866333D01*
X97191000Y-89900000D01*
X97188476Y-89933669D01*
X97172554Y-90156287D01*
X97171394Y-90161619D01*
X97170884Y-90168425D01*
X97150197Y-90259058D01*
X97117935Y-90407370D01*
X97113842Y-90418341D01*
X97110987Y-90430854D01*
X97074520Y-90523770D01*
X97028143Y-90648112D01*
X97019525Y-90663893D01*
X97012645Y-90681425D01*
X96962998Y-90767414D01*
X96905000Y-90873631D01*
X96890461Y-90893052D01*
X96878056Y-90914539D01*
X96818032Y-90989805D01*
X96751015Y-91079331D01*
X96729406Y-91100939D01*
X96710226Y-91124991D01*
X96642701Y-91187644D01*
X96569331Y-91261015D01*
X96539808Y-91283115D01*
X96512905Y-91308078D01*
X96440701Y-91357305D01*
X96363631Y-91415000D01*
X96325707Y-91435708D01*
X96290500Y-91459712D01*
X96216364Y-91495413D01*
X96138112Y-91538143D01*
X96091656Y-91555469D01*
X96047979Y-91576504D01*
X95974467Y-91599179D01*
X95897370Y-91627935D01*
X95842657Y-91639836D01*
X95790760Y-91655845D01*
X95720127Y-91666491D01*
X95646287Y-91682554D01*
X95584001Y-91687009D01*
X95524589Y-91695964D01*
X95458801Y-91695964D01*
X95390000Y-91700885D01*
X95321199Y-91695964D01*
X95255411Y-91695964D01*
X95195999Y-91687009D01*
X95133712Y-91682554D01*
X95059868Y-91666490D01*
X94989240Y-91655845D01*
X94937344Y-91639837D01*
X94882629Y-91627935D01*
X94805526Y-91599177D01*
X94732021Y-91576504D01*
X94688346Y-91555471D01*
X94641887Y-91538143D01*
X94563626Y-91495409D01*
X94489500Y-91459712D01*
X94454296Y-91435710D01*
X94416368Y-91415000D01*
X94339287Y-91357298D01*
X94267095Y-91308078D01*
X94240195Y-91283119D01*
X94210668Y-91261015D01*
X94137285Y-91187632D01*
X94069774Y-91124991D01*
X94050597Y-91100944D01*
X94028984Y-91079331D01*
X93961950Y-90989785D01*
X93901944Y-90914539D01*
X93889541Y-90893058D01*
X93874999Y-90873631D01*
X93816982Y-90767382D01*
X93767355Y-90681425D01*
X93760476Y-90663900D01*
X93751856Y-90648112D01*
X93705459Y-90523718D01*
X93669013Y-90430854D01*
X93666158Y-90418348D01*
X93662064Y-90407370D01*
X93629780Y-90258964D01*
X93609116Y-90168425D01*
X93608606Y-90161626D01*
X93607445Y-90156287D01*
X93591501Y-89933376D01*
X93589000Y-89900000D01*
X93591501Y-89866626D01*
X93607445Y-89643712D01*
X93608606Y-89638372D01*
X93609116Y-89631575D01*
X93629776Y-89541055D01*
X93662064Y-89392629D01*
X93666159Y-89381649D01*
X93669013Y-89369146D01*
X93705452Y-89276300D01*
X93751856Y-89151887D01*
X93760478Y-89136096D01*
X93767355Y-89118575D01*
X93816972Y-89032635D01*
X93874999Y-88926368D01*
X93889544Y-88906937D01*
X93901944Y-88885461D01*
X93961938Y-88810230D01*
X94028984Y-88720668D01*
X94050601Y-88699050D01*
X94069774Y-88675009D01*
X94137271Y-88612380D01*
X94210668Y-88538984D01*
X94240201Y-88516875D01*
X94267095Y-88491922D01*
X94339272Y-88442712D01*
X94416368Y-88384999D01*
X94454304Y-88364284D01*
X94489500Y-88340288D01*
X94563611Y-88304597D01*
X94641887Y-88261856D01*
X94688355Y-88244524D01*
X94732021Y-88223496D01*
X94805510Y-88200827D01*
X94882629Y-88172064D01*
X94937355Y-88160159D01*
X94989240Y-88144155D01*
X95059853Y-88133511D01*
X95133712Y-88117445D01*
X95196012Y-88112988D01*
X95255411Y-88104036D01*
X95321185Y-88104036D01*
X95390000Y-88099114D01*
X95458815Y-88104036D01*
G37*
G36*
X100103465Y-78630253D02*
G01*
X100144570Y-78645214D01*
X100147104Y-78647158D01*
X100151927Y-78649027D01*
X100206310Y-78692103D01*
X101231615Y-79717408D01*
X101274691Y-79771791D01*
X101276558Y-79776612D01*
X101278502Y-79779145D01*
X101293455Y-79820229D01*
X101314650Y-79874939D01*
X101314650Y-79985556D01*
X101293452Y-80040274D01*
X101278503Y-80081347D01*
X101276560Y-80083878D01*
X101274691Y-80088704D01*
X101231615Y-80143086D01*
X100383086Y-80991615D01*
X100328704Y-81034691D01*
X100323880Y-81036559D01*
X100321349Y-81038502D01*
X100280274Y-81053452D01*
X100225556Y-81074650D01*
X100114939Y-81074650D01*
X100060236Y-81053458D01*
X100019147Y-81038503D01*
X100016614Y-81036559D01*
X100011791Y-81034691D01*
X99957408Y-80991615D01*
X98932103Y-79966310D01*
X98889027Y-79911927D01*
X98887159Y-79907105D01*
X98885215Y-79904572D01*
X98870258Y-79863479D01*
X98849068Y-79808779D01*
X98849068Y-79698162D01*
X98870249Y-79643484D01*
X98885214Y-79602370D01*
X98887159Y-79599834D01*
X98889027Y-79595014D01*
X98932103Y-79540632D01*
X98934191Y-79538544D01*
X99778547Y-78694186D01*
X99778555Y-78694179D01*
X99780632Y-78692103D01*
X99835014Y-78649027D01*
X99839833Y-78647160D01*
X99842368Y-78645215D01*
X99883477Y-78630252D01*
X99938162Y-78609068D01*
X100048779Y-78609068D01*
X100103465Y-78630253D01*
G37*
G36*
X101822202Y-77091605D02*
G01*
X101902185Y-77095797D01*
X101912085Y-77098449D01*
X101920150Y-77099064D01*
X102005190Y-77123396D01*
X102084127Y-77144548D01*
X102090553Y-77147822D01*
X102095378Y-77149203D01*
X102179301Y-77193041D01*
X102251958Y-77230062D01*
X102255204Y-77232690D01*
X102256922Y-77233588D01*
X102345078Y-77305469D01*
X102398341Y-77348601D01*
X102575117Y-77525377D01*
X102575795Y-77526214D01*
X102635490Y-77592288D01*
X102662554Y-77633353D01*
X102693656Y-77671760D01*
X102713379Y-77710469D01*
X102736418Y-77745426D01*
X102755386Y-77792912D01*
X102779170Y-77839591D01*
X102789640Y-77878667D01*
X102804027Y-77914684D01*
X102813595Y-77968069D01*
X102827921Y-78021533D01*
X102829880Y-78058928D01*
X102836181Y-78094079D01*
X102834727Y-78151414D01*
X102837779Y-78209634D01*
X102832389Y-78243659D01*
X102831563Y-78276284D01*
X102817891Y-78335200D01*
X102808313Y-78395676D01*
X102797047Y-78425022D01*
X102790365Y-78453822D01*
X102763798Y-78511640D01*
X102740811Y-78571526D01*
X102725328Y-78595367D01*
X102714271Y-78619432D01*
X102674732Y-78673276D01*
X102638222Y-78729498D01*
X102620260Y-78747459D01*
X102606395Y-78766342D01*
X102554427Y-78813292D01*
X102505032Y-78862688D01*
X102486261Y-78874878D01*
X102471157Y-78888524D01*
X102407983Y-78925712D01*
X102347060Y-78965277D01*
X102328991Y-78972212D01*
X102314090Y-78980985D01*
X102241511Y-79005792D01*
X102171210Y-79032779D01*
X102155092Y-79035331D01*
X102141631Y-79039933D01*
X102062059Y-79050066D01*
X101985168Y-79062245D01*
X101971894Y-79061549D01*
X101960834Y-79062958D01*
X101877088Y-79056580D01*
X101797067Y-79052387D01*
X101787161Y-79049732D01*
X101779101Y-79049119D01*
X101694101Y-79024797D01*
X101615125Y-79003636D01*
X101608694Y-79000359D01*
X101603873Y-78998980D01*
X101519987Y-78955161D01*
X101447294Y-78918122D01*
X101444046Y-78915492D01*
X101442329Y-78914595D01*
X101354206Y-78842740D01*
X101300911Y-78799583D01*
X101124135Y-78622807D01*
X101123457Y-78621970D01*
X101063761Y-78555895D01*
X101036695Y-78514828D01*
X101005596Y-78476424D01*
X100985873Y-78437716D01*
X100962833Y-78402757D01*
X100943863Y-78355265D01*
X100920082Y-78308593D01*
X100909612Y-78269520D01*
X100895224Y-78233499D01*
X100885653Y-78180104D01*
X100871331Y-78126651D01*
X100869371Y-78089261D01*
X100863070Y-78054104D01*
X100864523Y-77996756D01*
X100861473Y-77938550D01*
X100866860Y-77904531D01*
X100867688Y-77871899D01*
X100881363Y-77812966D01*
X100890939Y-77752508D01*
X100902200Y-77723169D01*
X100908886Y-77694361D01*
X100935460Y-77636524D01*
X100958441Y-77576658D01*
X100973918Y-77552824D01*
X100984980Y-77528751D01*
X101024532Y-77474886D01*
X101061030Y-77418686D01*
X101078985Y-77400730D01*
X101092856Y-77381841D01*
X101144844Y-77334871D01*
X101194220Y-77285496D01*
X101212983Y-77273310D01*
X101228094Y-77259659D01*
X101291294Y-77222454D01*
X101352192Y-77182907D01*
X101370252Y-77175974D01*
X101385161Y-77167198D01*
X101457772Y-77142378D01*
X101528042Y-77115405D01*
X101544152Y-77112853D01*
X101557620Y-77108250D01*
X101637228Y-77098111D01*
X101714084Y-77085939D01*
X101727350Y-77086634D01*
X101738417Y-77085225D01*
X101822202Y-77091605D01*
G37*
G36*
X103589969Y-75323838D02*
G01*
X103669952Y-75328030D01*
X103679852Y-75330682D01*
X103687917Y-75331297D01*
X103772957Y-75355629D01*
X103851894Y-75376781D01*
X103858320Y-75380055D01*
X103863145Y-75381436D01*
X103947068Y-75425274D01*
X104019725Y-75462295D01*
X104022971Y-75464923D01*
X104024689Y-75465821D01*
X104112845Y-75537702D01*
X104166108Y-75580834D01*
X104342884Y-75757610D01*
X104343562Y-75758447D01*
X104403257Y-75824521D01*
X104430321Y-75865586D01*
X104461423Y-75903993D01*
X104481146Y-75942702D01*
X104504185Y-75977659D01*
X104523153Y-76025145D01*
X104546937Y-76071824D01*
X104557407Y-76110900D01*
X104571794Y-76146917D01*
X104581362Y-76200302D01*
X104595688Y-76253766D01*
X104597647Y-76291161D01*
X104603948Y-76326312D01*
X104602494Y-76383647D01*
X104605546Y-76441867D01*
X104600156Y-76475892D01*
X104599330Y-76508517D01*
X104585658Y-76567433D01*
X104576080Y-76627909D01*
X104564814Y-76657255D01*
X104558132Y-76686055D01*
X104531565Y-76743873D01*
X104508578Y-76803759D01*
X104493095Y-76827600D01*
X104482038Y-76851665D01*
X104442499Y-76905509D01*
X104405989Y-76961731D01*
X104388027Y-76979692D01*
X104374162Y-76998575D01*
X104322194Y-77045525D01*
X104272799Y-77094921D01*
X104254028Y-77107111D01*
X104238924Y-77120757D01*
X104175750Y-77157945D01*
X104114827Y-77197510D01*
X104096758Y-77204445D01*
X104081857Y-77213218D01*
X104009278Y-77238025D01*
X103938977Y-77265012D01*
X103922859Y-77267564D01*
X103909398Y-77272166D01*
X103829826Y-77282299D01*
X103752935Y-77294478D01*
X103739661Y-77293782D01*
X103728601Y-77295191D01*
X103644855Y-77288813D01*
X103564834Y-77284620D01*
X103554928Y-77281965D01*
X103546868Y-77281352D01*
X103461868Y-77257030D01*
X103382892Y-77235869D01*
X103376461Y-77232592D01*
X103371640Y-77231213D01*
X103287754Y-77187394D01*
X103215061Y-77150355D01*
X103211813Y-77147725D01*
X103210096Y-77146828D01*
X103121973Y-77074973D01*
X103068678Y-77031816D01*
X102891902Y-76855040D01*
X102891224Y-76854203D01*
X102831528Y-76788128D01*
X102804462Y-76747061D01*
X102773363Y-76708657D01*
X102753640Y-76669949D01*
X102730600Y-76634990D01*
X102711630Y-76587498D01*
X102687849Y-76540826D01*
X102677379Y-76501753D01*
X102662991Y-76465732D01*
X102653420Y-76412337D01*
X102639098Y-76358884D01*
X102637138Y-76321494D01*
X102630837Y-76286337D01*
X102632290Y-76228989D01*
X102629240Y-76170783D01*
X102634627Y-76136764D01*
X102635455Y-76104132D01*
X102649130Y-76045199D01*
X102658706Y-75984741D01*
X102669967Y-75955402D01*
X102676653Y-75926594D01*
X102703227Y-75868757D01*
X102726208Y-75808891D01*
X102741685Y-75785057D01*
X102752747Y-75760984D01*
X102792299Y-75707119D01*
X102828797Y-75650919D01*
X102846752Y-75632963D01*
X102860623Y-75614074D01*
X102912611Y-75567104D01*
X102961987Y-75517729D01*
X102980750Y-75505543D01*
X102995861Y-75491892D01*
X103059061Y-75454687D01*
X103119959Y-75415140D01*
X103138019Y-75408207D01*
X103152928Y-75399431D01*
X103225539Y-75374611D01*
X103295809Y-75347638D01*
X103311919Y-75345086D01*
X103325387Y-75340483D01*
X103404995Y-75330344D01*
X103481851Y-75318172D01*
X103495117Y-75318867D01*
X103506184Y-75317458D01*
X103589969Y-75323838D01*
G37*
G36*
X105357736Y-73556071D02*
G01*
X105437719Y-73560263D01*
X105447619Y-73562915D01*
X105455684Y-73563530D01*
X105540724Y-73587862D01*
X105619661Y-73609014D01*
X105626087Y-73612288D01*
X105630912Y-73613669D01*
X105714835Y-73657507D01*
X105787492Y-73694528D01*
X105790738Y-73697156D01*
X105792456Y-73698054D01*
X105880612Y-73769935D01*
X105933875Y-73813067D01*
X106110651Y-73989843D01*
X106111329Y-73990680D01*
X106171024Y-74056754D01*
X106198088Y-74097819D01*
X106229190Y-74136226D01*
X106248913Y-74174935D01*
X106271952Y-74209892D01*
X106290920Y-74257378D01*
X106314704Y-74304057D01*
X106325174Y-74343133D01*
X106339561Y-74379150D01*
X106349129Y-74432535D01*
X106363455Y-74485999D01*
X106365414Y-74523394D01*
X106371715Y-74558545D01*
X106370261Y-74615880D01*
X106373313Y-74674100D01*
X106367923Y-74708125D01*
X106367097Y-74740750D01*
X106353425Y-74799666D01*
X106343847Y-74860142D01*
X106332581Y-74889488D01*
X106325899Y-74918288D01*
X106299332Y-74976106D01*
X106276345Y-75035992D01*
X106260862Y-75059833D01*
X106249805Y-75083898D01*
X106210266Y-75137742D01*
X106173756Y-75193964D01*
X106155794Y-75211925D01*
X106141929Y-75230808D01*
X106089961Y-75277758D01*
X106040566Y-75327154D01*
X106021795Y-75339344D01*
X106006691Y-75352990D01*
X105943517Y-75390178D01*
X105882594Y-75429743D01*
X105864525Y-75436678D01*
X105849624Y-75445451D01*
X105777045Y-75470258D01*
X105706744Y-75497245D01*
X105690626Y-75499797D01*
X105677165Y-75504399D01*
X105597593Y-75514532D01*
X105520702Y-75526711D01*
X105507428Y-75526015D01*
X105496368Y-75527424D01*
X105412622Y-75521046D01*
X105332601Y-75516853D01*
X105322695Y-75514198D01*
X105314635Y-75513585D01*
X105229635Y-75489263D01*
X105150659Y-75468102D01*
X105144228Y-75464825D01*
X105139407Y-75463446D01*
X105055521Y-75419627D01*
X104982828Y-75382588D01*
X104979580Y-75379958D01*
X104977863Y-75379061D01*
X104889740Y-75307206D01*
X104836445Y-75264049D01*
X104659669Y-75087273D01*
X104658991Y-75086436D01*
X104599295Y-75020361D01*
X104572229Y-74979294D01*
X104541130Y-74940890D01*
X104521407Y-74902182D01*
X104498367Y-74867223D01*
X104479397Y-74819731D01*
X104455616Y-74773059D01*
X104445146Y-74733986D01*
X104430758Y-74697965D01*
X104421187Y-74644570D01*
X104406865Y-74591117D01*
X104404905Y-74553727D01*
X104398604Y-74518570D01*
X104400057Y-74461222D01*
X104397007Y-74403016D01*
X104402394Y-74368997D01*
X104403222Y-74336365D01*
X104416897Y-74277432D01*
X104426473Y-74216974D01*
X104437734Y-74187635D01*
X104444420Y-74158827D01*
X104470994Y-74100990D01*
X104493975Y-74041124D01*
X104509452Y-74017290D01*
X104520514Y-73993217D01*
X104560066Y-73939352D01*
X104596564Y-73883152D01*
X104614519Y-73865196D01*
X104628390Y-73846307D01*
X104680378Y-73799337D01*
X104729754Y-73749962D01*
X104748517Y-73737776D01*
X104763628Y-73724125D01*
X104826828Y-73686920D01*
X104887726Y-73647373D01*
X104905786Y-73640440D01*
X104920695Y-73631664D01*
X104993306Y-73606844D01*
X105063576Y-73579871D01*
X105079686Y-73577319D01*
X105093154Y-73572716D01*
X105172762Y-73562577D01*
X105249618Y-73550405D01*
X105262884Y-73551100D01*
X105273951Y-73549691D01*
X105357736Y-73556071D01*
G37*
G36*
X128108815Y-68954036D02*
G01*
X128174589Y-68954036D01*
X128233988Y-68962989D01*
X128296287Y-68967445D01*
X128370142Y-68983511D01*
X128440760Y-68994155D01*
X128492646Y-69010159D01*
X128547370Y-69022064D01*
X128624483Y-69050825D01*
X128697979Y-69073496D01*
X128741647Y-69094525D01*
X128788112Y-69111856D01*
X128866380Y-69154593D01*
X128940500Y-69190288D01*
X128975699Y-69214286D01*
X129013631Y-69234999D01*
X129090716Y-69292704D01*
X129162905Y-69341922D01*
X129189802Y-69366879D01*
X129219331Y-69388984D01*
X129292714Y-69462367D01*
X129360226Y-69525009D01*
X129379402Y-69549055D01*
X129401015Y-69570668D01*
X129468044Y-69660209D01*
X129528056Y-69735461D01*
X129540458Y-69756943D01*
X129555000Y-69776368D01*
X129613009Y-69882603D01*
X129662645Y-69968575D01*
X129669524Y-69986102D01*
X129678143Y-70001887D01*
X129724527Y-70126248D01*
X129760987Y-70219146D01*
X129763842Y-70231656D01*
X129767935Y-70242629D01*
X129800202Y-70390961D01*
X129820884Y-70481575D01*
X129821393Y-70488379D01*
X129822554Y-70493712D01*
X129838477Y-70716333D01*
X129841000Y-70750000D01*
X129838476Y-70783669D01*
X129822554Y-71006287D01*
X129821394Y-71011619D01*
X129820884Y-71018425D01*
X129800197Y-71109058D01*
X129767935Y-71257370D01*
X129763842Y-71268341D01*
X129760987Y-71280854D01*
X129724520Y-71373770D01*
X129678143Y-71498112D01*
X129669525Y-71513893D01*
X129662645Y-71531425D01*
X129612998Y-71617414D01*
X129555000Y-71723631D01*
X129540461Y-71743052D01*
X129528056Y-71764539D01*
X129468032Y-71839805D01*
X129401015Y-71929331D01*
X129379406Y-71950939D01*
X129360226Y-71974991D01*
X129292701Y-72037644D01*
X129219331Y-72111015D01*
X129189808Y-72133115D01*
X129162905Y-72158078D01*
X129090701Y-72207305D01*
X129013631Y-72265000D01*
X128975707Y-72285708D01*
X128940500Y-72309712D01*
X128866364Y-72345413D01*
X128788112Y-72388143D01*
X128741656Y-72405469D01*
X128697979Y-72426504D01*
X128624467Y-72449179D01*
X128547370Y-72477935D01*
X128492657Y-72489836D01*
X128440760Y-72505845D01*
X128370127Y-72516491D01*
X128296287Y-72532554D01*
X128234001Y-72537009D01*
X128174589Y-72545964D01*
X128108801Y-72545964D01*
X128040000Y-72550885D01*
X127971199Y-72545964D01*
X127905411Y-72545964D01*
X127845999Y-72537009D01*
X127783712Y-72532554D01*
X127709868Y-72516490D01*
X127639240Y-72505845D01*
X127587344Y-72489837D01*
X127532629Y-72477935D01*
X127455526Y-72449177D01*
X127382021Y-72426504D01*
X127338346Y-72405471D01*
X127291887Y-72388143D01*
X127213626Y-72345409D01*
X127139500Y-72309712D01*
X127104296Y-72285710D01*
X127066368Y-72265000D01*
X126989287Y-72207298D01*
X126917095Y-72158078D01*
X126890195Y-72133119D01*
X126860668Y-72111015D01*
X126787285Y-72037632D01*
X126719774Y-71974991D01*
X126700597Y-71950944D01*
X126678984Y-71929331D01*
X126611950Y-71839785D01*
X126551944Y-71764539D01*
X126539541Y-71743058D01*
X126524999Y-71723631D01*
X126466982Y-71617382D01*
X126417355Y-71531425D01*
X126410476Y-71513900D01*
X126401856Y-71498112D01*
X126355459Y-71373718D01*
X126319013Y-71280854D01*
X126316158Y-71268348D01*
X126312064Y-71257370D01*
X126279780Y-71108964D01*
X126259116Y-71018425D01*
X126258606Y-71011626D01*
X126257445Y-71006287D01*
X126241501Y-70783376D01*
X126239000Y-70750000D01*
X126241501Y-70716626D01*
X126257445Y-70493712D01*
X126258606Y-70488372D01*
X126259116Y-70481575D01*
X126279776Y-70391055D01*
X126312064Y-70242629D01*
X126316159Y-70231649D01*
X126319013Y-70219146D01*
X126355452Y-70126300D01*
X126401856Y-70001887D01*
X126410478Y-69986096D01*
X126417355Y-69968575D01*
X126466972Y-69882635D01*
X126524999Y-69776368D01*
X126539544Y-69756937D01*
X126551944Y-69735461D01*
X126611938Y-69660230D01*
X126678984Y-69570668D01*
X126700601Y-69549050D01*
X126719774Y-69525009D01*
X126787271Y-69462380D01*
X126860668Y-69388984D01*
X126890201Y-69366875D01*
X126917095Y-69341922D01*
X126989272Y-69292712D01*
X127066368Y-69234999D01*
X127104304Y-69214284D01*
X127139500Y-69190288D01*
X127213611Y-69154597D01*
X127291887Y-69111856D01*
X127338355Y-69094524D01*
X127382021Y-69073496D01*
X127455510Y-69050827D01*
X127532629Y-69022064D01*
X127587355Y-69010159D01*
X127639240Y-68994155D01*
X127709853Y-68983511D01*
X127783712Y-68967445D01*
X127846012Y-68962988D01*
X127905411Y-68954036D01*
X127971185Y-68954036D01*
X128040000Y-68949114D01*
X128108815Y-68954036D01*
G37*
M02*
