%TF.GenerationSoftware,KiCad,Pcbnew,7.0.8-7.0.8~ubuntu22.04.1*%
%TF.CreationDate,2023-10-24T23:54:45-07:00*%
%TF.ProjectId,tentacle-board,74656e74-6163-46c6-952d-626f6172642e,REV1*%
%TF.SameCoordinates,Original*%
%TF.FileFunction,Drillmap*%
%TF.FilePolarity,Positive*%
%FSLAX45Y45*%
G04 Gerber Fmt 4.5, Leading zero omitted, Abs format (unit mm)*
G04 Created by KiCad (PCBNEW 7.0.8-7.0.8~ubuntu22.04.1) date 2023-10-24 23:54:45*
%MOMM*%
%LPD*%
G01*
G04 APERTURE LIST*
%ADD10C,0.050000*%
%ADD11C,0.200000*%
%ADD12C,0.030000*%
%ADD13C,0.035000*%
%ADD14C,0.095000*%
%ADD15C,0.100000*%
%ADD16C,0.220000*%
G04 APERTURE END LIST*
D10*
X13074000Y-7465000D02*
X13074000Y-7099257D01*
X13073020Y-11274550D02*
X13073020Y-11638640D01*
X12882879Y-11917801D02*
G75*
G03*
X13073020Y-11638640I-109859J279161D01*
G01*
X13974000Y-10574775D02*
X13974000Y-8165000D01*
X13774000Y-7965000D02*
X13574000Y-7965000D01*
X12882879Y-11917801D02*
X12743250Y-11972750D01*
X13573581Y-10774550D02*
G75*
G03*
X13073020Y-11274550I-562J-500000D01*
G01*
X12744000Y-6765000D02*
G75*
G03*
X12743250Y-11972750I-868750J-2603750D01*
G01*
X13073993Y-7099257D02*
G75*
G03*
X12883957Y-6820135I-299993J7D01*
G01*
X12883957Y-6820135D02*
X12744000Y-6765000D01*
X13074000Y-7465000D02*
G75*
G03*
X13574000Y-7965000I500000J0D01*
G01*
X13974000Y-8165000D02*
G75*
G03*
X13774000Y-7965000I-200000J0D01*
G01*
X13773775Y-10774770D02*
G75*
G03*
X13974000Y-10574775I235J199990D01*
G01*
X13773775Y-10774775D02*
X13573581Y-10774550D01*
D11*
D12*
X10737416Y-9919032D02*
X10767416Y-9949032D01*
X10767416Y-9919032D02*
X10737416Y-9949032D01*
X10749791Y-8761145D02*
X10779791Y-8791145D01*
X10779791Y-8761145D02*
X10749791Y-8791145D01*
X10829340Y-9827108D02*
X10859340Y-9857108D01*
X10859340Y-9827108D02*
X10829340Y-9857108D01*
X10829340Y-10010956D02*
X10859340Y-10040956D01*
X10859340Y-10010956D02*
X10829340Y-10040956D01*
X10841715Y-8669221D02*
X10871715Y-8699221D01*
X10871715Y-8669221D02*
X10841715Y-8699221D01*
X10841715Y-8853069D02*
X10871715Y-8883069D01*
X10871715Y-8853069D02*
X10841715Y-8883069D01*
X10921264Y-9735184D02*
X10951264Y-9765184D01*
X10951264Y-9735184D02*
X10921264Y-9765184D01*
X10921264Y-9919032D02*
X10951264Y-9949032D01*
X10951264Y-9919032D02*
X10921264Y-9949032D01*
X10921264Y-10102880D02*
X10951264Y-10132880D01*
X10951264Y-10102880D02*
X10921264Y-10132880D01*
X10933639Y-8577297D02*
X10963639Y-8607297D01*
X10963639Y-8577297D02*
X10933639Y-8607297D01*
X10933639Y-8761145D02*
X10963639Y-8791145D01*
X10963639Y-8761145D02*
X10933639Y-8791145D01*
X10933639Y-8944993D02*
X10963639Y-8974993D01*
X10963639Y-8944993D02*
X10933639Y-8974993D01*
X11013188Y-9827108D02*
X11043188Y-9857108D01*
X11043188Y-9827108D02*
X11013188Y-9857108D01*
X11013188Y-10010956D02*
X11043188Y-10040956D01*
X11043188Y-10010956D02*
X11013188Y-10040956D01*
X11013188Y-10194803D02*
X11043188Y-10224803D01*
X11043188Y-10194803D02*
X11013188Y-10224803D01*
X11025563Y-8485373D02*
X11055563Y-8515373D01*
X11055563Y-8485373D02*
X11025563Y-8515373D01*
X11025563Y-8669221D02*
X11055563Y-8699221D01*
X11055563Y-8669221D02*
X11025563Y-8699221D01*
X11025563Y-8853069D02*
X11055563Y-8883069D01*
X11055563Y-8853069D02*
X11025563Y-8883069D01*
X11105112Y-9919032D02*
X11135112Y-9949032D01*
X11135112Y-9919032D02*
X11105112Y-9949032D01*
X11105112Y-10102880D02*
X11135112Y-10132880D01*
X11135112Y-10102880D02*
X11105112Y-10132880D01*
X11105112Y-10286727D02*
X11135112Y-10316727D01*
X11135112Y-10286727D02*
X11105112Y-10316727D01*
X11117486Y-8393450D02*
X11147486Y-8423450D01*
X11147486Y-8393450D02*
X11117486Y-8423450D01*
X11117486Y-8577297D02*
X11147486Y-8607297D01*
X11147486Y-8577297D02*
X11117486Y-8607297D01*
X11117486Y-8761145D02*
X11147486Y-8791145D01*
X11147486Y-8761145D02*
X11117486Y-8791145D01*
X11197036Y-10010956D02*
X11227036Y-10040956D01*
X11227036Y-10010956D02*
X11197036Y-10040956D01*
X11197036Y-10194803D02*
X11227036Y-10224803D01*
X11227036Y-10194803D02*
X11197036Y-10224803D01*
X11197036Y-10378651D02*
X11227036Y-10408651D01*
X11227036Y-10378651D02*
X11197036Y-10408651D01*
X11209410Y-8301526D02*
X11239410Y-8331526D01*
X11239410Y-8301526D02*
X11209410Y-8331526D01*
X11209410Y-8485373D02*
X11239410Y-8515373D01*
X11239410Y-8485373D02*
X11209410Y-8515373D01*
X11209410Y-8669221D02*
X11239410Y-8699221D01*
X11239410Y-8669221D02*
X11209410Y-8699221D01*
X11288959Y-10102880D02*
X11318959Y-10132880D01*
X11318959Y-10102880D02*
X11288959Y-10132880D01*
X11288959Y-10286727D02*
X11318959Y-10316727D01*
X11318959Y-10286727D02*
X11288959Y-10316727D01*
X11288959Y-10470575D02*
X11318959Y-10500575D01*
X11318959Y-10470575D02*
X11288959Y-10500575D01*
X11301334Y-8209602D02*
X11331334Y-8239602D01*
X11331334Y-8209602D02*
X11301334Y-8239602D01*
X11301334Y-8393450D02*
X11331334Y-8423450D01*
X11331334Y-8393450D02*
X11301334Y-8423450D01*
X11301334Y-8577297D02*
X11331334Y-8607297D01*
X11331334Y-8577297D02*
X11301334Y-8607297D01*
X11380883Y-10194803D02*
X11410883Y-10224803D01*
X11410883Y-10194803D02*
X11380883Y-10224803D01*
X11380883Y-10378651D02*
X11410883Y-10408651D01*
X11410883Y-10378651D02*
X11380883Y-10408651D01*
X11393258Y-8301526D02*
X11423258Y-8331526D01*
X11423258Y-8301526D02*
X11393258Y-8331526D01*
X11393258Y-8485373D02*
X11423258Y-8515373D01*
X11423258Y-8485373D02*
X11393258Y-8515373D01*
X11472807Y-10286727D02*
X11502807Y-10316727D01*
X11502807Y-10286727D02*
X11472807Y-10316727D01*
X11485182Y-8393450D02*
X11515182Y-8423450D01*
X11515182Y-8393450D02*
X11485182Y-8423450D01*
D13*
X9516500Y-9535000D02*
G75*
G03*
X9516500Y-9535000I-17500J0D01*
G01*
X9576500Y-8725000D02*
G75*
G03*
X9576500Y-8725000I-17500J0D01*
G01*
X9616500Y-10035000D02*
G75*
G03*
X9616500Y-10035000I-17500J0D01*
G01*
X9781500Y-9880000D02*
G75*
G03*
X9781500Y-9880000I-17500J0D01*
G01*
X9886500Y-10030000D02*
G75*
G03*
X9886500Y-10030000I-17500J0D01*
G01*
X9961500Y-9880000D02*
G75*
G03*
X9961500Y-9880000I-17500J0D01*
G01*
X9996500Y-8500000D02*
G75*
G03*
X9996500Y-8500000I-17500J0D01*
G01*
X10006500Y-8940000D02*
G75*
G03*
X10006500Y-8940000I-17500J0D01*
G01*
X10066500Y-10460000D02*
G75*
G03*
X10066500Y-10460000I-17500J0D01*
G01*
X10091500Y-8220000D02*
G75*
G03*
X10091500Y-8220000I-17500J0D01*
G01*
X10151500Y-9585000D02*
G75*
G03*
X10151500Y-9585000I-17500J0D01*
G01*
X10266500Y-8880000D02*
G75*
G03*
X10266500Y-8880000I-17500J0D01*
G01*
X10306500Y-10730000D02*
G75*
G03*
X10306500Y-10730000I-17500J0D01*
G01*
X10311500Y-7990000D02*
G75*
G03*
X10311500Y-7990000I-17500J0D01*
G01*
X10416500Y-10830000D02*
G75*
G03*
X10416500Y-10830000I-17500J0D01*
G01*
X10441500Y-7875000D02*
G75*
G03*
X10441500Y-7875000I-17500J0D01*
G01*
X10449950Y-8995347D02*
G75*
G03*
X10449950Y-8995347I-17500J0D01*
G01*
X10466500Y-9410000D02*
G75*
G03*
X10466500Y-9410000I-17500J0D01*
G01*
X10524196Y-9062522D02*
G75*
G03*
X10524196Y-9062522I-17500J0D01*
G01*
X10526500Y-10940000D02*
G75*
G03*
X10526500Y-10940000I-17500J0D01*
G01*
X10561500Y-7765000D02*
G75*
G03*
X10561500Y-7765000I-17500J0D01*
G01*
X10616500Y-9140000D02*
G75*
G03*
X10616500Y-9140000I-17500J0D01*
G01*
X10726500Y-10530000D02*
G75*
G03*
X10726500Y-10530000I-17500J0D01*
G01*
X10741500Y-8190000D02*
G75*
G03*
X10741500Y-8190000I-17500J0D01*
G01*
X10773452Y-10347689D02*
G75*
G03*
X10773452Y-10347689I-17500J0D01*
G01*
X10781500Y-11175000D02*
G75*
G03*
X10781500Y-11175000I-17500J0D01*
G01*
X10782289Y-8366023D02*
G75*
G03*
X10782289Y-8366023I-17500J0D01*
G01*
X10796500Y-7525000D02*
G75*
G03*
X10796500Y-7525000I-17500J0D01*
G01*
X10906500Y-9520000D02*
G75*
G03*
X10906500Y-9520000I-17500J0D01*
G01*
X10909442Y-10483865D02*
G75*
G03*
X10909442Y-10483865I-17500J0D01*
G01*
X10920175Y-8228136D02*
G75*
G03*
X10920175Y-8228136I-17500J0D01*
G01*
X10961500Y-9255000D02*
G75*
G03*
X10961500Y-9255000I-17500J0D01*
G01*
X11041500Y-11265000D02*
G75*
G03*
X11041500Y-11265000I-17500J0D01*
G01*
X11056500Y-7445000D02*
G75*
G03*
X11056500Y-7445000I-17500J0D01*
G01*
X11196500Y-9440000D02*
G75*
G03*
X11196500Y-9440000I-17500J0D01*
G01*
X11226500Y-7075000D02*
G75*
G03*
X11226500Y-7075000I-17500J0D01*
G01*
X11286500Y-11670000D02*
G75*
G03*
X11286500Y-11670000I-17500J0D01*
G01*
X11309512Y-9603890D02*
G75*
G03*
X11309512Y-9603890I-17500J0D01*
G01*
X11361500Y-7285000D02*
G75*
G03*
X11361500Y-7285000I-17500J0D01*
G01*
X11364462Y-9658840D02*
G75*
G03*
X11364462Y-9658840I-17500J0D01*
G01*
X11386500Y-11160000D02*
G75*
G03*
X11386500Y-11160000I-17500J0D01*
G01*
X11391500Y-11495000D02*
G75*
G03*
X11391500Y-11495000I-17500J0D01*
G01*
X11396500Y-10970000D02*
G75*
G03*
X11396500Y-10970000I-17500J0D01*
G01*
X11419412Y-9717912D02*
G75*
G03*
X11419412Y-9717912I-17500J0D01*
G01*
X11538895Y-10819683D02*
G75*
G03*
X11538895Y-10819683I-17500J0D01*
G01*
X11609605Y-10748972D02*
G75*
G03*
X11609605Y-10748972I-17500J0D01*
G01*
X11726500Y-8370000D02*
G75*
G03*
X11726500Y-8370000I-17500J0D01*
G01*
X11746500Y-6960000D02*
G75*
G03*
X11746500Y-6960000I-17500J0D01*
G01*
X11761500Y-9255000D02*
G75*
G03*
X11761500Y-9255000I-17500J0D01*
G01*
X11786500Y-8975000D02*
G75*
G03*
X11786500Y-8975000I-17500J0D01*
G01*
X11791500Y-10540000D02*
G75*
G03*
X11791500Y-10540000I-17500J0D01*
G01*
X11801500Y-8835000D02*
G75*
G03*
X11801500Y-8835000I-17500J0D01*
G01*
X11806500Y-10315000D02*
G75*
G03*
X11806500Y-10315000I-17500J0D01*
G01*
X11826500Y-9100000D02*
G75*
G03*
X11826500Y-9100000I-17500J0D01*
G01*
X11831500Y-9460000D02*
G75*
G03*
X11831500Y-9460000I-17500J0D01*
G01*
X11878950Y-8520000D02*
G75*
G03*
X11878950Y-8520000I-17500J0D01*
G01*
X11886500Y-10070000D02*
G75*
G03*
X11886500Y-10070000I-17500J0D01*
G01*
X11896500Y-7880000D02*
G75*
G03*
X11896500Y-7880000I-17500J0D01*
G01*
X11931500Y-10965000D02*
G75*
G03*
X11931500Y-10965000I-17500J0D01*
G01*
X11956500Y-6730000D02*
G75*
G03*
X11956500Y-6730000I-17500J0D01*
G01*
X11986500Y-8940000D02*
G75*
G03*
X11986500Y-8940000I-17500J0D01*
G01*
X11991500Y-11500000D02*
G75*
G03*
X11991500Y-11500000I-17500J0D01*
G01*
X12001500Y-9785000D02*
G75*
G03*
X12001500Y-9785000I-17500J0D01*
G01*
X12121500Y-6960000D02*
G75*
G03*
X12121500Y-6960000I-17500J0D01*
G01*
X12166500Y-10560000D02*
G75*
G03*
X12166500Y-10560000I-17500J0D01*
G01*
X12186500Y-11715000D02*
G75*
G03*
X12186500Y-11715000I-17500J0D01*
G01*
X12221500Y-10965000D02*
G75*
G03*
X12221500Y-10965000I-17500J0D01*
G01*
X12236500Y-7765000D02*
G75*
G03*
X12236500Y-7765000I-17500J0D01*
G01*
X12296500Y-6770000D02*
G75*
G03*
X12296500Y-6770000I-17500J0D01*
G01*
X12306500Y-7430000D02*
G75*
G03*
X12306500Y-7430000I-17500J0D01*
G01*
X12366500Y-11970000D02*
G75*
G03*
X12366500Y-11970000I-17500J0D01*
G01*
X12376500Y-11780000D02*
G75*
G03*
X12376500Y-11780000I-17500J0D01*
G01*
X12528950Y-8740000D02*
G75*
G03*
X12528950Y-8740000I-17500J0D01*
G01*
X12546500Y-8430000D02*
G75*
G03*
X12546500Y-8430000I-17500J0D01*
G01*
X12556500Y-7390000D02*
G75*
G03*
X12556500Y-7390000I-17500J0D01*
G01*
X12599599Y-10094449D02*
G75*
G03*
X12599599Y-10094449I-17500J0D01*
G01*
X12621497Y-9526250D02*
G75*
G03*
X12621497Y-9526250I-17500J0D01*
G01*
X12631500Y-9106250D02*
G75*
G03*
X12631500Y-9106250I-17500J0D01*
G01*
X12641500Y-9836250D02*
G75*
G03*
X12641500Y-9836250I-17500J0D01*
G01*
X12696500Y-10095000D02*
G75*
G03*
X12696500Y-10095000I-17500J0D01*
G01*
X12776500Y-8490000D02*
G75*
G03*
X12776500Y-8490000I-17500J0D01*
G01*
X12786500Y-8090000D02*
G75*
G03*
X12786500Y-8090000I-17500J0D01*
G01*
X12856500Y-8730000D02*
G75*
G03*
X12856500Y-8730000I-17500J0D01*
G01*
X12891431Y-9805069D02*
G75*
G03*
X12891431Y-9805069I-17500J0D01*
G01*
X13016500Y-9890000D02*
G75*
G03*
X13016500Y-9890000I-17500J0D01*
G01*
X13026500Y-8290000D02*
G75*
G03*
X13026500Y-8290000I-17500J0D01*
G01*
X13126500Y-8805000D02*
G75*
G03*
X13126500Y-8805000I-17500J0D01*
G01*
X13315000Y-9570000D02*
G75*
G03*
X13315000Y-9570000I-17500J0D01*
G01*
X13716500Y-8790000D02*
G75*
G03*
X13716500Y-8790000I-17500J0D01*
G01*
X13716500Y-10550000D02*
G75*
G03*
X13716500Y-10550000I-17500J0D01*
G01*
X12416500Y-9171250D02*
X12416500Y-9206250D01*
X12399000Y-9188750D02*
X12434000Y-9188750D01*
X12416500Y-9298750D02*
X12416500Y-9333750D01*
X12399000Y-9316250D02*
X12434000Y-9316250D01*
X12416500Y-9426250D02*
X12416500Y-9461250D01*
X12399000Y-9443750D02*
X12434000Y-9443750D01*
X12544000Y-9171250D02*
X12544000Y-9206250D01*
X12526500Y-9188750D02*
X12561500Y-9188750D01*
X12544000Y-9298750D02*
X12544000Y-9333750D01*
X12526500Y-9316250D02*
X12561500Y-9316250D01*
X12544000Y-9426250D02*
X12544000Y-9461250D01*
X12526500Y-9443750D02*
X12561500Y-9443750D01*
X12671500Y-9171250D02*
X12671500Y-9206250D01*
X12654000Y-9188750D02*
X12689000Y-9188750D01*
X12671500Y-9298750D02*
X12671500Y-9333750D01*
X12654000Y-9316250D02*
X12689000Y-9316250D01*
X12671500Y-9426250D02*
X12671500Y-9461250D01*
X12654000Y-9443750D02*
X12689000Y-9443750D01*
D14*
X10015258Y-10745437D02*
X10015258Y-10678261D01*
X9948082Y-10678261D01*
X9948082Y-10745437D01*
X10015258Y-10745437D01*
X10041774Y-8017774D02*
X10041774Y-7950598D01*
X9974598Y-7950598D01*
X9974598Y-8017774D01*
X10041774Y-8017774D01*
X10192034Y-10922214D02*
X10192034Y-10855038D01*
X10124859Y-10855038D01*
X10124859Y-10922214D01*
X10192034Y-10922214D01*
X10218551Y-7840997D02*
X10218551Y-7773821D01*
X10151375Y-7773821D01*
X10151375Y-7840997D01*
X10218551Y-7840997D01*
X10368811Y-11098991D02*
X10368811Y-11031815D01*
X10301635Y-11031815D01*
X10301635Y-11098991D01*
X10368811Y-11098991D01*
X10395327Y-7664220D02*
X10395327Y-7597045D01*
X10328151Y-7597045D01*
X10328151Y-7664220D01*
X10395327Y-7664220D01*
X10545588Y-11275767D02*
X10545588Y-11208591D01*
X10478412Y-11208591D01*
X10478412Y-11275767D01*
X10545588Y-11275767D01*
X10572104Y-7487444D02*
X10572104Y-7420268D01*
X10504928Y-7420268D01*
X10504928Y-7487444D01*
X10572104Y-7487444D01*
D15*
X11729000Y-11765000D02*
X11779000Y-11715000D01*
X11729000Y-11665000D01*
X11679000Y-11715000D01*
X11729000Y-11765000D01*
X11979000Y-11765000D02*
X12029000Y-11715000D01*
X11979000Y-11665000D01*
X11929000Y-11715000D01*
X11979000Y-11765000D01*
D16*
X9429000Y-8880000D02*
X9649000Y-9100000D01*
X9649000Y-8880000D02*
X9429000Y-9100000D01*
X9649000Y-8990000D02*
G75*
G03*
X9649000Y-8990000I-110000J0D01*
G01*
X12694000Y-6965000D02*
X12914000Y-7185000D01*
X12914000Y-6965000D02*
X12694000Y-7185000D01*
X12914000Y-7075000D02*
G75*
G03*
X12914000Y-7075000I-110000J0D01*
G01*
X12694000Y-11545000D02*
X12914000Y-11765000D01*
X12914000Y-11545000D02*
X12694000Y-11765000D01*
X12914000Y-11655000D02*
G75*
G03*
X12914000Y-11655000I-110000J0D01*
G01*
D11*
X9388670Y-12427591D02*
X9388670Y-12227591D01*
X9388670Y-12227591D02*
X9436289Y-12227591D01*
X9436289Y-12227591D02*
X9464860Y-12237115D01*
X9464860Y-12237115D02*
X9483908Y-12256162D01*
X9483908Y-12256162D02*
X9493432Y-12275210D01*
X9493432Y-12275210D02*
X9502955Y-12313305D01*
X9502955Y-12313305D02*
X9502955Y-12341877D01*
X9502955Y-12341877D02*
X9493432Y-12379972D01*
X9493432Y-12379972D02*
X9483908Y-12399019D01*
X9483908Y-12399019D02*
X9464860Y-12418067D01*
X9464860Y-12418067D02*
X9436289Y-12427591D01*
X9436289Y-12427591D02*
X9388670Y-12427591D01*
X9588670Y-12427591D02*
X9588670Y-12294257D01*
X9588670Y-12332353D02*
X9598194Y-12313305D01*
X9598194Y-12313305D02*
X9607717Y-12303781D01*
X9607717Y-12303781D02*
X9626765Y-12294257D01*
X9626765Y-12294257D02*
X9645813Y-12294257D01*
X9712479Y-12427591D02*
X9712479Y-12294257D01*
X9712479Y-12227591D02*
X9702955Y-12237115D01*
X9702955Y-12237115D02*
X9712479Y-12246638D01*
X9712479Y-12246638D02*
X9722003Y-12237115D01*
X9722003Y-12237115D02*
X9712479Y-12227591D01*
X9712479Y-12227591D02*
X9712479Y-12246638D01*
X9836289Y-12427591D02*
X9817241Y-12418067D01*
X9817241Y-12418067D02*
X9807717Y-12399019D01*
X9807717Y-12399019D02*
X9807717Y-12227591D01*
X9941051Y-12427591D02*
X9922003Y-12418067D01*
X9922003Y-12418067D02*
X9912479Y-12399019D01*
X9912479Y-12399019D02*
X9912479Y-12227591D01*
X10169622Y-12427591D02*
X10169622Y-12227591D01*
X10169622Y-12227591D02*
X10236289Y-12370448D01*
X10236289Y-12370448D02*
X10302955Y-12227591D01*
X10302955Y-12227591D02*
X10302955Y-12427591D01*
X10483908Y-12427591D02*
X10483908Y-12322829D01*
X10483908Y-12322829D02*
X10474384Y-12303781D01*
X10474384Y-12303781D02*
X10455336Y-12294257D01*
X10455336Y-12294257D02*
X10417241Y-12294257D01*
X10417241Y-12294257D02*
X10398194Y-12303781D01*
X10483908Y-12418067D02*
X10464860Y-12427591D01*
X10464860Y-12427591D02*
X10417241Y-12427591D01*
X10417241Y-12427591D02*
X10398194Y-12418067D01*
X10398194Y-12418067D02*
X10388670Y-12399019D01*
X10388670Y-12399019D02*
X10388670Y-12379972D01*
X10388670Y-12379972D02*
X10398194Y-12360924D01*
X10398194Y-12360924D02*
X10417241Y-12351400D01*
X10417241Y-12351400D02*
X10464860Y-12351400D01*
X10464860Y-12351400D02*
X10483908Y-12341877D01*
X10579146Y-12294257D02*
X10579146Y-12494257D01*
X10579146Y-12303781D02*
X10598194Y-12294257D01*
X10598194Y-12294257D02*
X10636289Y-12294257D01*
X10636289Y-12294257D02*
X10655336Y-12303781D01*
X10655336Y-12303781D02*
X10664860Y-12313305D01*
X10664860Y-12313305D02*
X10674384Y-12332353D01*
X10674384Y-12332353D02*
X10674384Y-12389496D01*
X10674384Y-12389496D02*
X10664860Y-12408543D01*
X10664860Y-12408543D02*
X10655336Y-12418067D01*
X10655336Y-12418067D02*
X10636289Y-12427591D01*
X10636289Y-12427591D02*
X10598194Y-12427591D01*
X10598194Y-12427591D02*
X10579146Y-12418067D01*
X10760098Y-12408543D02*
X10769622Y-12418067D01*
X10769622Y-12418067D02*
X10760098Y-12427591D01*
X10760098Y-12427591D02*
X10750575Y-12418067D01*
X10750575Y-12418067D02*
X10760098Y-12408543D01*
X10760098Y-12408543D02*
X10760098Y-12427591D01*
X10760098Y-12303781D02*
X10769622Y-12313305D01*
X10769622Y-12313305D02*
X10760098Y-12322829D01*
X10760098Y-12322829D02*
X10750575Y-12313305D01*
X10750575Y-12313305D02*
X10760098Y-12303781D01*
X10760098Y-12303781D02*
X10760098Y-12322829D01*
D12*
X9097893Y-12741107D02*
X9127893Y-12771107D01*
X9127893Y-12741107D02*
X9097893Y-12771107D01*
D11*
X9426765Y-12647591D02*
X9445813Y-12647591D01*
X9445813Y-12647591D02*
X9464860Y-12657115D01*
X9464860Y-12657115D02*
X9474384Y-12666638D01*
X9474384Y-12666638D02*
X9483908Y-12685686D01*
X9483908Y-12685686D02*
X9493432Y-12723781D01*
X9493432Y-12723781D02*
X9493432Y-12771400D01*
X9493432Y-12771400D02*
X9483908Y-12809496D01*
X9483908Y-12809496D02*
X9474384Y-12828543D01*
X9474384Y-12828543D02*
X9464860Y-12838067D01*
X9464860Y-12838067D02*
X9445813Y-12847591D01*
X9445813Y-12847591D02*
X9426765Y-12847591D01*
X9426765Y-12847591D02*
X9407717Y-12838067D01*
X9407717Y-12838067D02*
X9398194Y-12828543D01*
X9398194Y-12828543D02*
X9388670Y-12809496D01*
X9388670Y-12809496D02*
X9379146Y-12771400D01*
X9379146Y-12771400D02*
X9379146Y-12723781D01*
X9379146Y-12723781D02*
X9388670Y-12685686D01*
X9388670Y-12685686D02*
X9398194Y-12666638D01*
X9398194Y-12666638D02*
X9407717Y-12657115D01*
X9407717Y-12657115D02*
X9426765Y-12647591D01*
X9579146Y-12828543D02*
X9588670Y-12838067D01*
X9588670Y-12838067D02*
X9579146Y-12847591D01*
X9579146Y-12847591D02*
X9569622Y-12838067D01*
X9569622Y-12838067D02*
X9579146Y-12828543D01*
X9579146Y-12828543D02*
X9579146Y-12847591D01*
X9655336Y-12647591D02*
X9779146Y-12647591D01*
X9779146Y-12647591D02*
X9712479Y-12723781D01*
X9712479Y-12723781D02*
X9741051Y-12723781D01*
X9741051Y-12723781D02*
X9760098Y-12733305D01*
X9760098Y-12733305D02*
X9769622Y-12742829D01*
X9769622Y-12742829D02*
X9779146Y-12761877D01*
X9779146Y-12761877D02*
X9779146Y-12809496D01*
X9779146Y-12809496D02*
X9769622Y-12828543D01*
X9769622Y-12828543D02*
X9760098Y-12838067D01*
X9760098Y-12838067D02*
X9741051Y-12847591D01*
X9741051Y-12847591D02*
X9683908Y-12847591D01*
X9683908Y-12847591D02*
X9664860Y-12838067D01*
X9664860Y-12838067D02*
X9655336Y-12828543D01*
X9902955Y-12647591D02*
X9922003Y-12647591D01*
X9922003Y-12647591D02*
X9941051Y-12657115D01*
X9941051Y-12657115D02*
X9950575Y-12666638D01*
X9950575Y-12666638D02*
X9960098Y-12685686D01*
X9960098Y-12685686D02*
X9969622Y-12723781D01*
X9969622Y-12723781D02*
X9969622Y-12771400D01*
X9969622Y-12771400D02*
X9960098Y-12809496D01*
X9960098Y-12809496D02*
X9950575Y-12828543D01*
X9950575Y-12828543D02*
X9941051Y-12838067D01*
X9941051Y-12838067D02*
X9922003Y-12847591D01*
X9922003Y-12847591D02*
X9902955Y-12847591D01*
X9902955Y-12847591D02*
X9883908Y-12838067D01*
X9883908Y-12838067D02*
X9874384Y-12828543D01*
X9874384Y-12828543D02*
X9864860Y-12809496D01*
X9864860Y-12809496D02*
X9855336Y-12771400D01*
X9855336Y-12771400D02*
X9855336Y-12723781D01*
X9855336Y-12723781D02*
X9864860Y-12685686D01*
X9864860Y-12685686D02*
X9874384Y-12666638D01*
X9874384Y-12666638D02*
X9883908Y-12657115D01*
X9883908Y-12657115D02*
X9902955Y-12647591D01*
X10093432Y-12647591D02*
X10112479Y-12647591D01*
X10112479Y-12647591D02*
X10131527Y-12657115D01*
X10131527Y-12657115D02*
X10141051Y-12666638D01*
X10141051Y-12666638D02*
X10150575Y-12685686D01*
X10150575Y-12685686D02*
X10160098Y-12723781D01*
X10160098Y-12723781D02*
X10160098Y-12771400D01*
X10160098Y-12771400D02*
X10150575Y-12809496D01*
X10150575Y-12809496D02*
X10141051Y-12828543D01*
X10141051Y-12828543D02*
X10131527Y-12838067D01*
X10131527Y-12838067D02*
X10112479Y-12847591D01*
X10112479Y-12847591D02*
X10093432Y-12847591D01*
X10093432Y-12847591D02*
X10074384Y-12838067D01*
X10074384Y-12838067D02*
X10064860Y-12828543D01*
X10064860Y-12828543D02*
X10055336Y-12809496D01*
X10055336Y-12809496D02*
X10045813Y-12771400D01*
X10045813Y-12771400D02*
X10045813Y-12723781D01*
X10045813Y-12723781D02*
X10055336Y-12685686D01*
X10055336Y-12685686D02*
X10064860Y-12666638D01*
X10064860Y-12666638D02*
X10074384Y-12657115D01*
X10074384Y-12657115D02*
X10093432Y-12647591D01*
X10245813Y-12847591D02*
X10245813Y-12714257D01*
X10245813Y-12733305D02*
X10255336Y-12723781D01*
X10255336Y-12723781D02*
X10274384Y-12714257D01*
X10274384Y-12714257D02*
X10302956Y-12714257D01*
X10302956Y-12714257D02*
X10322003Y-12723781D01*
X10322003Y-12723781D02*
X10331527Y-12742829D01*
X10331527Y-12742829D02*
X10331527Y-12847591D01*
X10331527Y-12742829D02*
X10341051Y-12723781D01*
X10341051Y-12723781D02*
X10360098Y-12714257D01*
X10360098Y-12714257D02*
X10388670Y-12714257D01*
X10388670Y-12714257D02*
X10407717Y-12723781D01*
X10407717Y-12723781D02*
X10417241Y-12742829D01*
X10417241Y-12742829D02*
X10417241Y-12847591D01*
X10512479Y-12847591D02*
X10512479Y-12714257D01*
X10512479Y-12733305D02*
X10522003Y-12723781D01*
X10522003Y-12723781D02*
X10541051Y-12714257D01*
X10541051Y-12714257D02*
X10569622Y-12714257D01*
X10569622Y-12714257D02*
X10588670Y-12723781D01*
X10588670Y-12723781D02*
X10598194Y-12742829D01*
X10598194Y-12742829D02*
X10598194Y-12847591D01*
X10598194Y-12742829D02*
X10607717Y-12723781D01*
X10607717Y-12723781D02*
X10626765Y-12714257D01*
X10626765Y-12714257D02*
X10655336Y-12714257D01*
X10655336Y-12714257D02*
X10674384Y-12723781D01*
X10674384Y-12723781D02*
X10683908Y-12742829D01*
X10683908Y-12742829D02*
X10683908Y-12847591D01*
X11074384Y-12638067D02*
X10902956Y-12895210D01*
X11331527Y-12647591D02*
X11350575Y-12647591D01*
X11350575Y-12647591D02*
X11369622Y-12657115D01*
X11369622Y-12657115D02*
X11379146Y-12666638D01*
X11379146Y-12666638D02*
X11388670Y-12685686D01*
X11388670Y-12685686D02*
X11398194Y-12723781D01*
X11398194Y-12723781D02*
X11398194Y-12771400D01*
X11398194Y-12771400D02*
X11388670Y-12809496D01*
X11388670Y-12809496D02*
X11379146Y-12828543D01*
X11379146Y-12828543D02*
X11369622Y-12838067D01*
X11369622Y-12838067D02*
X11350575Y-12847591D01*
X11350575Y-12847591D02*
X11331527Y-12847591D01*
X11331527Y-12847591D02*
X11312479Y-12838067D01*
X11312479Y-12838067D02*
X11302956Y-12828543D01*
X11302956Y-12828543D02*
X11293432Y-12809496D01*
X11293432Y-12809496D02*
X11283908Y-12771400D01*
X11283908Y-12771400D02*
X11283908Y-12723781D01*
X11283908Y-12723781D02*
X11293432Y-12685686D01*
X11293432Y-12685686D02*
X11302956Y-12666638D01*
X11302956Y-12666638D02*
X11312479Y-12657115D01*
X11312479Y-12657115D02*
X11331527Y-12647591D01*
X11483908Y-12828543D02*
X11493432Y-12838067D01*
X11493432Y-12838067D02*
X11483908Y-12847591D01*
X11483908Y-12847591D02*
X11474384Y-12838067D01*
X11474384Y-12838067D02*
X11483908Y-12828543D01*
X11483908Y-12828543D02*
X11483908Y-12847591D01*
X11617241Y-12647591D02*
X11636289Y-12647591D01*
X11636289Y-12647591D02*
X11655337Y-12657115D01*
X11655337Y-12657115D02*
X11664860Y-12666638D01*
X11664860Y-12666638D02*
X11674384Y-12685686D01*
X11674384Y-12685686D02*
X11683908Y-12723781D01*
X11683908Y-12723781D02*
X11683908Y-12771400D01*
X11683908Y-12771400D02*
X11674384Y-12809496D01*
X11674384Y-12809496D02*
X11664860Y-12828543D01*
X11664860Y-12828543D02*
X11655337Y-12838067D01*
X11655337Y-12838067D02*
X11636289Y-12847591D01*
X11636289Y-12847591D02*
X11617241Y-12847591D01*
X11617241Y-12847591D02*
X11598194Y-12838067D01*
X11598194Y-12838067D02*
X11588670Y-12828543D01*
X11588670Y-12828543D02*
X11579146Y-12809496D01*
X11579146Y-12809496D02*
X11569622Y-12771400D01*
X11569622Y-12771400D02*
X11569622Y-12723781D01*
X11569622Y-12723781D02*
X11579146Y-12685686D01*
X11579146Y-12685686D02*
X11588670Y-12666638D01*
X11588670Y-12666638D02*
X11598194Y-12657115D01*
X11598194Y-12657115D02*
X11617241Y-12647591D01*
X11874384Y-12847591D02*
X11760098Y-12847591D01*
X11817241Y-12847591D02*
X11817241Y-12647591D01*
X11817241Y-12647591D02*
X11798194Y-12676162D01*
X11798194Y-12676162D02*
X11779146Y-12695210D01*
X11779146Y-12695210D02*
X11760098Y-12704734D01*
X12064860Y-12847591D02*
X11950575Y-12847591D01*
X12007717Y-12847591D02*
X12007717Y-12647591D01*
X12007717Y-12647591D02*
X11988670Y-12676162D01*
X11988670Y-12676162D02*
X11969622Y-12695210D01*
X11969622Y-12695210D02*
X11950575Y-12704734D01*
X12179146Y-12733305D02*
X12160098Y-12723781D01*
X12160098Y-12723781D02*
X12150575Y-12714257D01*
X12150575Y-12714257D02*
X12141051Y-12695210D01*
X12141051Y-12695210D02*
X12141051Y-12685686D01*
X12141051Y-12685686D02*
X12150575Y-12666638D01*
X12150575Y-12666638D02*
X12160098Y-12657115D01*
X12160098Y-12657115D02*
X12179146Y-12647591D01*
X12179146Y-12647591D02*
X12217241Y-12647591D01*
X12217241Y-12647591D02*
X12236289Y-12657115D01*
X12236289Y-12657115D02*
X12245813Y-12666638D01*
X12245813Y-12666638D02*
X12255337Y-12685686D01*
X12255337Y-12685686D02*
X12255337Y-12695210D01*
X12255337Y-12695210D02*
X12245813Y-12714257D01*
X12245813Y-12714257D02*
X12236289Y-12723781D01*
X12236289Y-12723781D02*
X12217241Y-12733305D01*
X12217241Y-12733305D02*
X12179146Y-12733305D01*
X12179146Y-12733305D02*
X12160098Y-12742829D01*
X12160098Y-12742829D02*
X12150575Y-12752353D01*
X12150575Y-12752353D02*
X12141051Y-12771400D01*
X12141051Y-12771400D02*
X12141051Y-12809496D01*
X12141051Y-12809496D02*
X12150575Y-12828543D01*
X12150575Y-12828543D02*
X12160098Y-12838067D01*
X12160098Y-12838067D02*
X12179146Y-12847591D01*
X12179146Y-12847591D02*
X12217241Y-12847591D01*
X12217241Y-12847591D02*
X12236289Y-12838067D01*
X12236289Y-12838067D02*
X12245813Y-12828543D01*
X12245813Y-12828543D02*
X12255337Y-12809496D01*
X12255337Y-12809496D02*
X12255337Y-12771400D01*
X12255337Y-12771400D02*
X12245813Y-12752353D01*
X12245813Y-12752353D02*
X12236289Y-12742829D01*
X12236289Y-12742829D02*
X12217241Y-12733305D01*
X12331527Y-12647591D02*
X12331527Y-12685686D01*
X12407718Y-12647591D02*
X12407718Y-12685686D01*
X12702956Y-12923781D02*
X12693432Y-12914257D01*
X12693432Y-12914257D02*
X12674384Y-12885686D01*
X12674384Y-12885686D02*
X12664860Y-12866638D01*
X12664860Y-12866638D02*
X12655337Y-12838067D01*
X12655337Y-12838067D02*
X12645813Y-12790448D01*
X12645813Y-12790448D02*
X12645813Y-12752353D01*
X12645813Y-12752353D02*
X12655337Y-12704734D01*
X12655337Y-12704734D02*
X12664860Y-12676162D01*
X12664860Y-12676162D02*
X12674384Y-12657115D01*
X12674384Y-12657115D02*
X12693432Y-12628543D01*
X12693432Y-12628543D02*
X12702956Y-12619019D01*
X12864860Y-12714257D02*
X12864860Y-12847591D01*
X12817241Y-12638067D02*
X12769622Y-12780924D01*
X12769622Y-12780924D02*
X12893432Y-12780924D01*
X12960099Y-12666638D02*
X12969622Y-12657115D01*
X12969622Y-12657115D02*
X12988670Y-12647591D01*
X12988670Y-12647591D02*
X13036289Y-12647591D01*
X13036289Y-12647591D02*
X13055337Y-12657115D01*
X13055337Y-12657115D02*
X13064860Y-12666638D01*
X13064860Y-12666638D02*
X13074384Y-12685686D01*
X13074384Y-12685686D02*
X13074384Y-12704734D01*
X13074384Y-12704734D02*
X13064860Y-12733305D01*
X13064860Y-12733305D02*
X12950575Y-12847591D01*
X12950575Y-12847591D02*
X13074384Y-12847591D01*
X13312480Y-12847591D02*
X13312480Y-12647591D01*
X13398194Y-12847591D02*
X13398194Y-12742829D01*
X13398194Y-12742829D02*
X13388670Y-12723781D01*
X13388670Y-12723781D02*
X13369622Y-12714257D01*
X13369622Y-12714257D02*
X13341051Y-12714257D01*
X13341051Y-12714257D02*
X13322003Y-12723781D01*
X13322003Y-12723781D02*
X13312480Y-12733305D01*
X13522003Y-12847591D02*
X13502956Y-12838067D01*
X13502956Y-12838067D02*
X13493432Y-12828543D01*
X13493432Y-12828543D02*
X13483908Y-12809496D01*
X13483908Y-12809496D02*
X13483908Y-12752353D01*
X13483908Y-12752353D02*
X13493432Y-12733305D01*
X13493432Y-12733305D02*
X13502956Y-12723781D01*
X13502956Y-12723781D02*
X13522003Y-12714257D01*
X13522003Y-12714257D02*
X13550575Y-12714257D01*
X13550575Y-12714257D02*
X13569622Y-12723781D01*
X13569622Y-12723781D02*
X13579146Y-12733305D01*
X13579146Y-12733305D02*
X13588670Y-12752353D01*
X13588670Y-12752353D02*
X13588670Y-12809496D01*
X13588670Y-12809496D02*
X13579146Y-12828543D01*
X13579146Y-12828543D02*
X13569622Y-12838067D01*
X13569622Y-12838067D02*
X13550575Y-12847591D01*
X13550575Y-12847591D02*
X13522003Y-12847591D01*
X13702956Y-12847591D02*
X13683908Y-12838067D01*
X13683908Y-12838067D02*
X13674384Y-12819019D01*
X13674384Y-12819019D02*
X13674384Y-12647591D01*
X13855337Y-12838067D02*
X13836289Y-12847591D01*
X13836289Y-12847591D02*
X13798194Y-12847591D01*
X13798194Y-12847591D02*
X13779146Y-12838067D01*
X13779146Y-12838067D02*
X13769622Y-12819019D01*
X13769622Y-12819019D02*
X13769622Y-12742829D01*
X13769622Y-12742829D02*
X13779146Y-12723781D01*
X13779146Y-12723781D02*
X13798194Y-12714257D01*
X13798194Y-12714257D02*
X13836289Y-12714257D01*
X13836289Y-12714257D02*
X13855337Y-12723781D01*
X13855337Y-12723781D02*
X13864861Y-12742829D01*
X13864861Y-12742829D02*
X13864861Y-12761877D01*
X13864861Y-12761877D02*
X13769622Y-12780924D01*
X13941051Y-12838067D02*
X13960099Y-12847591D01*
X13960099Y-12847591D02*
X13998194Y-12847591D01*
X13998194Y-12847591D02*
X14017242Y-12838067D01*
X14017242Y-12838067D02*
X14026765Y-12819019D01*
X14026765Y-12819019D02*
X14026765Y-12809496D01*
X14026765Y-12809496D02*
X14017242Y-12790448D01*
X14017242Y-12790448D02*
X13998194Y-12780924D01*
X13998194Y-12780924D02*
X13969622Y-12780924D01*
X13969622Y-12780924D02*
X13950575Y-12771400D01*
X13950575Y-12771400D02*
X13941051Y-12752353D01*
X13941051Y-12752353D02*
X13941051Y-12742829D01*
X13941051Y-12742829D02*
X13950575Y-12723781D01*
X13950575Y-12723781D02*
X13969622Y-12714257D01*
X13969622Y-12714257D02*
X13998194Y-12714257D01*
X13998194Y-12714257D02*
X14017242Y-12723781D01*
X14093432Y-12923781D02*
X14102956Y-12914257D01*
X14102956Y-12914257D02*
X14122003Y-12885686D01*
X14122003Y-12885686D02*
X14131527Y-12866638D01*
X14131527Y-12866638D02*
X14141051Y-12838067D01*
X14141051Y-12838067D02*
X14150575Y-12790448D01*
X14150575Y-12790448D02*
X14150575Y-12752353D01*
X14150575Y-12752353D02*
X14141051Y-12704734D01*
X14141051Y-12704734D02*
X14131527Y-12676162D01*
X14131527Y-12676162D02*
X14122003Y-12657115D01*
X14122003Y-12657115D02*
X14102956Y-12628543D01*
X14102956Y-12628543D02*
X14093432Y-12619019D01*
D13*
X9127893Y-13020107D02*
G75*
G03*
X9127893Y-13020107I-17500J0D01*
G01*
D11*
X9426765Y-12911591D02*
X9445813Y-12911591D01*
X9445813Y-12911591D02*
X9464860Y-12921115D01*
X9464860Y-12921115D02*
X9474384Y-12930638D01*
X9474384Y-12930638D02*
X9483908Y-12949686D01*
X9483908Y-12949686D02*
X9493432Y-12987781D01*
X9493432Y-12987781D02*
X9493432Y-13035400D01*
X9493432Y-13035400D02*
X9483908Y-13073496D01*
X9483908Y-13073496D02*
X9474384Y-13092543D01*
X9474384Y-13092543D02*
X9464860Y-13102067D01*
X9464860Y-13102067D02*
X9445813Y-13111591D01*
X9445813Y-13111591D02*
X9426765Y-13111591D01*
X9426765Y-13111591D02*
X9407717Y-13102067D01*
X9407717Y-13102067D02*
X9398194Y-13092543D01*
X9398194Y-13092543D02*
X9388670Y-13073496D01*
X9388670Y-13073496D02*
X9379146Y-13035400D01*
X9379146Y-13035400D02*
X9379146Y-12987781D01*
X9379146Y-12987781D02*
X9388670Y-12949686D01*
X9388670Y-12949686D02*
X9398194Y-12930638D01*
X9398194Y-12930638D02*
X9407717Y-12921115D01*
X9407717Y-12921115D02*
X9426765Y-12911591D01*
X9579146Y-13092543D02*
X9588670Y-13102067D01*
X9588670Y-13102067D02*
X9579146Y-13111591D01*
X9579146Y-13111591D02*
X9569622Y-13102067D01*
X9569622Y-13102067D02*
X9579146Y-13092543D01*
X9579146Y-13092543D02*
X9579146Y-13111591D01*
X9655336Y-12911591D02*
X9779146Y-12911591D01*
X9779146Y-12911591D02*
X9712479Y-12987781D01*
X9712479Y-12987781D02*
X9741051Y-12987781D01*
X9741051Y-12987781D02*
X9760098Y-12997305D01*
X9760098Y-12997305D02*
X9769622Y-13006829D01*
X9769622Y-13006829D02*
X9779146Y-13025877D01*
X9779146Y-13025877D02*
X9779146Y-13073496D01*
X9779146Y-13073496D02*
X9769622Y-13092543D01*
X9769622Y-13092543D02*
X9760098Y-13102067D01*
X9760098Y-13102067D02*
X9741051Y-13111591D01*
X9741051Y-13111591D02*
X9683908Y-13111591D01*
X9683908Y-13111591D02*
X9664860Y-13102067D01*
X9664860Y-13102067D02*
X9655336Y-13092543D01*
X9960098Y-12911591D02*
X9864860Y-12911591D01*
X9864860Y-12911591D02*
X9855336Y-13006829D01*
X9855336Y-13006829D02*
X9864860Y-12997305D01*
X9864860Y-12997305D02*
X9883908Y-12987781D01*
X9883908Y-12987781D02*
X9931527Y-12987781D01*
X9931527Y-12987781D02*
X9950575Y-12997305D01*
X9950575Y-12997305D02*
X9960098Y-13006829D01*
X9960098Y-13006829D02*
X9969622Y-13025877D01*
X9969622Y-13025877D02*
X9969622Y-13073496D01*
X9969622Y-13073496D02*
X9960098Y-13092543D01*
X9960098Y-13092543D02*
X9950575Y-13102067D01*
X9950575Y-13102067D02*
X9931527Y-13111591D01*
X9931527Y-13111591D02*
X9883908Y-13111591D01*
X9883908Y-13111591D02*
X9864860Y-13102067D01*
X9864860Y-13102067D02*
X9855336Y-13092543D01*
X10093432Y-12911591D02*
X10112479Y-12911591D01*
X10112479Y-12911591D02*
X10131527Y-12921115D01*
X10131527Y-12921115D02*
X10141051Y-12930638D01*
X10141051Y-12930638D02*
X10150575Y-12949686D01*
X10150575Y-12949686D02*
X10160098Y-12987781D01*
X10160098Y-12987781D02*
X10160098Y-13035400D01*
X10160098Y-13035400D02*
X10150575Y-13073496D01*
X10150575Y-13073496D02*
X10141051Y-13092543D01*
X10141051Y-13092543D02*
X10131527Y-13102067D01*
X10131527Y-13102067D02*
X10112479Y-13111591D01*
X10112479Y-13111591D02*
X10093432Y-13111591D01*
X10093432Y-13111591D02*
X10074384Y-13102067D01*
X10074384Y-13102067D02*
X10064860Y-13092543D01*
X10064860Y-13092543D02*
X10055336Y-13073496D01*
X10055336Y-13073496D02*
X10045813Y-13035400D01*
X10045813Y-13035400D02*
X10045813Y-12987781D01*
X10045813Y-12987781D02*
X10055336Y-12949686D01*
X10055336Y-12949686D02*
X10064860Y-12930638D01*
X10064860Y-12930638D02*
X10074384Y-12921115D01*
X10074384Y-12921115D02*
X10093432Y-12911591D01*
X10245813Y-13111591D02*
X10245813Y-12978257D01*
X10245813Y-12997305D02*
X10255336Y-12987781D01*
X10255336Y-12987781D02*
X10274384Y-12978257D01*
X10274384Y-12978257D02*
X10302956Y-12978257D01*
X10302956Y-12978257D02*
X10322003Y-12987781D01*
X10322003Y-12987781D02*
X10331527Y-13006829D01*
X10331527Y-13006829D02*
X10331527Y-13111591D01*
X10331527Y-13006829D02*
X10341051Y-12987781D01*
X10341051Y-12987781D02*
X10360098Y-12978257D01*
X10360098Y-12978257D02*
X10388670Y-12978257D01*
X10388670Y-12978257D02*
X10407717Y-12987781D01*
X10407717Y-12987781D02*
X10417241Y-13006829D01*
X10417241Y-13006829D02*
X10417241Y-13111591D01*
X10512479Y-13111591D02*
X10512479Y-12978257D01*
X10512479Y-12997305D02*
X10522003Y-12987781D01*
X10522003Y-12987781D02*
X10541051Y-12978257D01*
X10541051Y-12978257D02*
X10569622Y-12978257D01*
X10569622Y-12978257D02*
X10588670Y-12987781D01*
X10588670Y-12987781D02*
X10598194Y-13006829D01*
X10598194Y-13006829D02*
X10598194Y-13111591D01*
X10598194Y-13006829D02*
X10607717Y-12987781D01*
X10607717Y-12987781D02*
X10626765Y-12978257D01*
X10626765Y-12978257D02*
X10655336Y-12978257D01*
X10655336Y-12978257D02*
X10674384Y-12987781D01*
X10674384Y-12987781D02*
X10683908Y-13006829D01*
X10683908Y-13006829D02*
X10683908Y-13111591D01*
X11074384Y-12902067D02*
X10902956Y-13159210D01*
X11331527Y-12911591D02*
X11350575Y-12911591D01*
X11350575Y-12911591D02*
X11369622Y-12921115D01*
X11369622Y-12921115D02*
X11379146Y-12930638D01*
X11379146Y-12930638D02*
X11388670Y-12949686D01*
X11388670Y-12949686D02*
X11398194Y-12987781D01*
X11398194Y-12987781D02*
X11398194Y-13035400D01*
X11398194Y-13035400D02*
X11388670Y-13073496D01*
X11388670Y-13073496D02*
X11379146Y-13092543D01*
X11379146Y-13092543D02*
X11369622Y-13102067D01*
X11369622Y-13102067D02*
X11350575Y-13111591D01*
X11350575Y-13111591D02*
X11331527Y-13111591D01*
X11331527Y-13111591D02*
X11312479Y-13102067D01*
X11312479Y-13102067D02*
X11302956Y-13092543D01*
X11302956Y-13092543D02*
X11293432Y-13073496D01*
X11293432Y-13073496D02*
X11283908Y-13035400D01*
X11283908Y-13035400D02*
X11283908Y-12987781D01*
X11283908Y-12987781D02*
X11293432Y-12949686D01*
X11293432Y-12949686D02*
X11302956Y-12930638D01*
X11302956Y-12930638D02*
X11312479Y-12921115D01*
X11312479Y-12921115D02*
X11331527Y-12911591D01*
X11483908Y-13092543D02*
X11493432Y-13102067D01*
X11493432Y-13102067D02*
X11483908Y-13111591D01*
X11483908Y-13111591D02*
X11474384Y-13102067D01*
X11474384Y-13102067D02*
X11483908Y-13092543D01*
X11483908Y-13092543D02*
X11483908Y-13111591D01*
X11617241Y-12911591D02*
X11636289Y-12911591D01*
X11636289Y-12911591D02*
X11655337Y-12921115D01*
X11655337Y-12921115D02*
X11664860Y-12930638D01*
X11664860Y-12930638D02*
X11674384Y-12949686D01*
X11674384Y-12949686D02*
X11683908Y-12987781D01*
X11683908Y-12987781D02*
X11683908Y-13035400D01*
X11683908Y-13035400D02*
X11674384Y-13073496D01*
X11674384Y-13073496D02*
X11664860Y-13092543D01*
X11664860Y-13092543D02*
X11655337Y-13102067D01*
X11655337Y-13102067D02*
X11636289Y-13111591D01*
X11636289Y-13111591D02*
X11617241Y-13111591D01*
X11617241Y-13111591D02*
X11598194Y-13102067D01*
X11598194Y-13102067D02*
X11588670Y-13092543D01*
X11588670Y-13092543D02*
X11579146Y-13073496D01*
X11579146Y-13073496D02*
X11569622Y-13035400D01*
X11569622Y-13035400D02*
X11569622Y-12987781D01*
X11569622Y-12987781D02*
X11579146Y-12949686D01*
X11579146Y-12949686D02*
X11588670Y-12930638D01*
X11588670Y-12930638D02*
X11598194Y-12921115D01*
X11598194Y-12921115D02*
X11617241Y-12911591D01*
X11874384Y-13111591D02*
X11760098Y-13111591D01*
X11817241Y-13111591D02*
X11817241Y-12911591D01*
X11817241Y-12911591D02*
X11798194Y-12940162D01*
X11798194Y-12940162D02*
X11779146Y-12959210D01*
X11779146Y-12959210D02*
X11760098Y-12968734D01*
X11941051Y-12911591D02*
X12064860Y-12911591D01*
X12064860Y-12911591D02*
X11998194Y-12987781D01*
X11998194Y-12987781D02*
X12026765Y-12987781D01*
X12026765Y-12987781D02*
X12045813Y-12997305D01*
X12045813Y-12997305D02*
X12055337Y-13006829D01*
X12055337Y-13006829D02*
X12064860Y-13025877D01*
X12064860Y-13025877D02*
X12064860Y-13073496D01*
X12064860Y-13073496D02*
X12055337Y-13092543D01*
X12055337Y-13092543D02*
X12045813Y-13102067D01*
X12045813Y-13102067D02*
X12026765Y-13111591D01*
X12026765Y-13111591D02*
X11969622Y-13111591D01*
X11969622Y-13111591D02*
X11950575Y-13102067D01*
X11950575Y-13102067D02*
X11941051Y-13092543D01*
X12179146Y-12997305D02*
X12160098Y-12987781D01*
X12160098Y-12987781D02*
X12150575Y-12978257D01*
X12150575Y-12978257D02*
X12141051Y-12959210D01*
X12141051Y-12959210D02*
X12141051Y-12949686D01*
X12141051Y-12949686D02*
X12150575Y-12930638D01*
X12150575Y-12930638D02*
X12160098Y-12921115D01*
X12160098Y-12921115D02*
X12179146Y-12911591D01*
X12179146Y-12911591D02*
X12217241Y-12911591D01*
X12217241Y-12911591D02*
X12236289Y-12921115D01*
X12236289Y-12921115D02*
X12245813Y-12930638D01*
X12245813Y-12930638D02*
X12255337Y-12949686D01*
X12255337Y-12949686D02*
X12255337Y-12959210D01*
X12255337Y-12959210D02*
X12245813Y-12978257D01*
X12245813Y-12978257D02*
X12236289Y-12987781D01*
X12236289Y-12987781D02*
X12217241Y-12997305D01*
X12217241Y-12997305D02*
X12179146Y-12997305D01*
X12179146Y-12997305D02*
X12160098Y-13006829D01*
X12160098Y-13006829D02*
X12150575Y-13016353D01*
X12150575Y-13016353D02*
X12141051Y-13035400D01*
X12141051Y-13035400D02*
X12141051Y-13073496D01*
X12141051Y-13073496D02*
X12150575Y-13092543D01*
X12150575Y-13092543D02*
X12160098Y-13102067D01*
X12160098Y-13102067D02*
X12179146Y-13111591D01*
X12179146Y-13111591D02*
X12217241Y-13111591D01*
X12217241Y-13111591D02*
X12236289Y-13102067D01*
X12236289Y-13102067D02*
X12245813Y-13092543D01*
X12245813Y-13092543D02*
X12255337Y-13073496D01*
X12255337Y-13073496D02*
X12255337Y-13035400D01*
X12255337Y-13035400D02*
X12245813Y-13016353D01*
X12245813Y-13016353D02*
X12236289Y-13006829D01*
X12236289Y-13006829D02*
X12217241Y-12997305D01*
X12331527Y-12911591D02*
X12331527Y-12949686D01*
X12407718Y-12911591D02*
X12407718Y-12949686D01*
X12702956Y-13187781D02*
X12693432Y-13178257D01*
X12693432Y-13178257D02*
X12674384Y-13149686D01*
X12674384Y-13149686D02*
X12664860Y-13130638D01*
X12664860Y-13130638D02*
X12655337Y-13102067D01*
X12655337Y-13102067D02*
X12645813Y-13054448D01*
X12645813Y-13054448D02*
X12645813Y-13016353D01*
X12645813Y-13016353D02*
X12655337Y-12968734D01*
X12655337Y-12968734D02*
X12664860Y-12940162D01*
X12664860Y-12940162D02*
X12674384Y-12921115D01*
X12674384Y-12921115D02*
X12693432Y-12892543D01*
X12693432Y-12892543D02*
X12702956Y-12883019D01*
X12788670Y-13111591D02*
X12826765Y-13111591D01*
X12826765Y-13111591D02*
X12845813Y-13102067D01*
X12845813Y-13102067D02*
X12855337Y-13092543D01*
X12855337Y-13092543D02*
X12874384Y-13063972D01*
X12874384Y-13063972D02*
X12883908Y-13025877D01*
X12883908Y-13025877D02*
X12883908Y-12949686D01*
X12883908Y-12949686D02*
X12874384Y-12930638D01*
X12874384Y-12930638D02*
X12864860Y-12921115D01*
X12864860Y-12921115D02*
X12845813Y-12911591D01*
X12845813Y-12911591D02*
X12807718Y-12911591D01*
X12807718Y-12911591D02*
X12788670Y-12921115D01*
X12788670Y-12921115D02*
X12779146Y-12930638D01*
X12779146Y-12930638D02*
X12769622Y-12949686D01*
X12769622Y-12949686D02*
X12769622Y-12997305D01*
X12769622Y-12997305D02*
X12779146Y-13016353D01*
X12779146Y-13016353D02*
X12788670Y-13025877D01*
X12788670Y-13025877D02*
X12807718Y-13035400D01*
X12807718Y-13035400D02*
X12845813Y-13035400D01*
X12845813Y-13035400D02*
X12864860Y-13025877D01*
X12864860Y-13025877D02*
X12874384Y-13016353D01*
X12874384Y-13016353D02*
X12883908Y-12997305D01*
X13007718Y-12911591D02*
X13026765Y-12911591D01*
X13026765Y-12911591D02*
X13045813Y-12921115D01*
X13045813Y-12921115D02*
X13055337Y-12930638D01*
X13055337Y-12930638D02*
X13064860Y-12949686D01*
X13064860Y-12949686D02*
X13074384Y-12987781D01*
X13074384Y-12987781D02*
X13074384Y-13035400D01*
X13074384Y-13035400D02*
X13064860Y-13073496D01*
X13064860Y-13073496D02*
X13055337Y-13092543D01*
X13055337Y-13092543D02*
X13045813Y-13102067D01*
X13045813Y-13102067D02*
X13026765Y-13111591D01*
X13026765Y-13111591D02*
X13007718Y-13111591D01*
X13007718Y-13111591D02*
X12988670Y-13102067D01*
X12988670Y-13102067D02*
X12979146Y-13092543D01*
X12979146Y-13092543D02*
X12969622Y-13073496D01*
X12969622Y-13073496D02*
X12960099Y-13035400D01*
X12960099Y-13035400D02*
X12960099Y-12987781D01*
X12960099Y-12987781D02*
X12969622Y-12949686D01*
X12969622Y-12949686D02*
X12979146Y-12930638D01*
X12979146Y-12930638D02*
X12988670Y-12921115D01*
X12988670Y-12921115D02*
X13007718Y-12911591D01*
X13312480Y-13111591D02*
X13312480Y-12911591D01*
X13398194Y-13111591D02*
X13398194Y-13006829D01*
X13398194Y-13006829D02*
X13388670Y-12987781D01*
X13388670Y-12987781D02*
X13369622Y-12978257D01*
X13369622Y-12978257D02*
X13341051Y-12978257D01*
X13341051Y-12978257D02*
X13322003Y-12987781D01*
X13322003Y-12987781D02*
X13312480Y-12997305D01*
X13522003Y-13111591D02*
X13502956Y-13102067D01*
X13502956Y-13102067D02*
X13493432Y-13092543D01*
X13493432Y-13092543D02*
X13483908Y-13073496D01*
X13483908Y-13073496D02*
X13483908Y-13016353D01*
X13483908Y-13016353D02*
X13493432Y-12997305D01*
X13493432Y-12997305D02*
X13502956Y-12987781D01*
X13502956Y-12987781D02*
X13522003Y-12978257D01*
X13522003Y-12978257D02*
X13550575Y-12978257D01*
X13550575Y-12978257D02*
X13569622Y-12987781D01*
X13569622Y-12987781D02*
X13579146Y-12997305D01*
X13579146Y-12997305D02*
X13588670Y-13016353D01*
X13588670Y-13016353D02*
X13588670Y-13073496D01*
X13588670Y-13073496D02*
X13579146Y-13092543D01*
X13579146Y-13092543D02*
X13569622Y-13102067D01*
X13569622Y-13102067D02*
X13550575Y-13111591D01*
X13550575Y-13111591D02*
X13522003Y-13111591D01*
X13702956Y-13111591D02*
X13683908Y-13102067D01*
X13683908Y-13102067D02*
X13674384Y-13083019D01*
X13674384Y-13083019D02*
X13674384Y-12911591D01*
X13855337Y-13102067D02*
X13836289Y-13111591D01*
X13836289Y-13111591D02*
X13798194Y-13111591D01*
X13798194Y-13111591D02*
X13779146Y-13102067D01*
X13779146Y-13102067D02*
X13769622Y-13083019D01*
X13769622Y-13083019D02*
X13769622Y-13006829D01*
X13769622Y-13006829D02*
X13779146Y-12987781D01*
X13779146Y-12987781D02*
X13798194Y-12978257D01*
X13798194Y-12978257D02*
X13836289Y-12978257D01*
X13836289Y-12978257D02*
X13855337Y-12987781D01*
X13855337Y-12987781D02*
X13864861Y-13006829D01*
X13864861Y-13006829D02*
X13864861Y-13025877D01*
X13864861Y-13025877D02*
X13769622Y-13044924D01*
X13941051Y-13102067D02*
X13960099Y-13111591D01*
X13960099Y-13111591D02*
X13998194Y-13111591D01*
X13998194Y-13111591D02*
X14017242Y-13102067D01*
X14017242Y-13102067D02*
X14026765Y-13083019D01*
X14026765Y-13083019D02*
X14026765Y-13073496D01*
X14026765Y-13073496D02*
X14017242Y-13054448D01*
X14017242Y-13054448D02*
X13998194Y-13044924D01*
X13998194Y-13044924D02*
X13969622Y-13044924D01*
X13969622Y-13044924D02*
X13950575Y-13035400D01*
X13950575Y-13035400D02*
X13941051Y-13016353D01*
X13941051Y-13016353D02*
X13941051Y-13006829D01*
X13941051Y-13006829D02*
X13950575Y-12987781D01*
X13950575Y-12987781D02*
X13969622Y-12978257D01*
X13969622Y-12978257D02*
X13998194Y-12978257D01*
X13998194Y-12978257D02*
X14017242Y-12987781D01*
X14093432Y-13187781D02*
X14102956Y-13178257D01*
X14102956Y-13178257D02*
X14122003Y-13149686D01*
X14122003Y-13149686D02*
X14131527Y-13130638D01*
X14131527Y-13130638D02*
X14141051Y-13102067D01*
X14141051Y-13102067D02*
X14150575Y-13054448D01*
X14150575Y-13054448D02*
X14150575Y-13016353D01*
X14150575Y-13016353D02*
X14141051Y-12968734D01*
X14141051Y-12968734D02*
X14131527Y-12940162D01*
X14131527Y-12940162D02*
X14122003Y-12921115D01*
X14122003Y-12921115D02*
X14102956Y-12892543D01*
X14102956Y-12892543D02*
X14093432Y-12883019D01*
D13*
X9110393Y-13266607D02*
X9110393Y-13301607D01*
X9092893Y-13284107D02*
X9127893Y-13284107D01*
D11*
X9426765Y-13175591D02*
X9445813Y-13175591D01*
X9445813Y-13175591D02*
X9464860Y-13185115D01*
X9464860Y-13185115D02*
X9474384Y-13194638D01*
X9474384Y-13194638D02*
X9483908Y-13213686D01*
X9483908Y-13213686D02*
X9493432Y-13251781D01*
X9493432Y-13251781D02*
X9493432Y-13299400D01*
X9493432Y-13299400D02*
X9483908Y-13337496D01*
X9483908Y-13337496D02*
X9474384Y-13356543D01*
X9474384Y-13356543D02*
X9464860Y-13366067D01*
X9464860Y-13366067D02*
X9445813Y-13375591D01*
X9445813Y-13375591D02*
X9426765Y-13375591D01*
X9426765Y-13375591D02*
X9407717Y-13366067D01*
X9407717Y-13366067D02*
X9398194Y-13356543D01*
X9398194Y-13356543D02*
X9388670Y-13337496D01*
X9388670Y-13337496D02*
X9379146Y-13299400D01*
X9379146Y-13299400D02*
X9379146Y-13251781D01*
X9379146Y-13251781D02*
X9388670Y-13213686D01*
X9388670Y-13213686D02*
X9398194Y-13194638D01*
X9398194Y-13194638D02*
X9407717Y-13185115D01*
X9407717Y-13185115D02*
X9426765Y-13175591D01*
X9579146Y-13356543D02*
X9588670Y-13366067D01*
X9588670Y-13366067D02*
X9579146Y-13375591D01*
X9579146Y-13375591D02*
X9569622Y-13366067D01*
X9569622Y-13366067D02*
X9579146Y-13356543D01*
X9579146Y-13356543D02*
X9579146Y-13375591D01*
X9655336Y-13175591D02*
X9779146Y-13175591D01*
X9779146Y-13175591D02*
X9712479Y-13251781D01*
X9712479Y-13251781D02*
X9741051Y-13251781D01*
X9741051Y-13251781D02*
X9760098Y-13261305D01*
X9760098Y-13261305D02*
X9769622Y-13270829D01*
X9769622Y-13270829D02*
X9779146Y-13289877D01*
X9779146Y-13289877D02*
X9779146Y-13337496D01*
X9779146Y-13337496D02*
X9769622Y-13356543D01*
X9769622Y-13356543D02*
X9760098Y-13366067D01*
X9760098Y-13366067D02*
X9741051Y-13375591D01*
X9741051Y-13375591D02*
X9683908Y-13375591D01*
X9683908Y-13375591D02*
X9664860Y-13366067D01*
X9664860Y-13366067D02*
X9655336Y-13356543D01*
X9960098Y-13175591D02*
X9864860Y-13175591D01*
X9864860Y-13175591D02*
X9855336Y-13270829D01*
X9855336Y-13270829D02*
X9864860Y-13261305D01*
X9864860Y-13261305D02*
X9883908Y-13251781D01*
X9883908Y-13251781D02*
X9931527Y-13251781D01*
X9931527Y-13251781D02*
X9950575Y-13261305D01*
X9950575Y-13261305D02*
X9960098Y-13270829D01*
X9960098Y-13270829D02*
X9969622Y-13289877D01*
X9969622Y-13289877D02*
X9969622Y-13337496D01*
X9969622Y-13337496D02*
X9960098Y-13356543D01*
X9960098Y-13356543D02*
X9950575Y-13366067D01*
X9950575Y-13366067D02*
X9931527Y-13375591D01*
X9931527Y-13375591D02*
X9883908Y-13375591D01*
X9883908Y-13375591D02*
X9864860Y-13366067D01*
X9864860Y-13366067D02*
X9855336Y-13356543D01*
X10093432Y-13175591D02*
X10112479Y-13175591D01*
X10112479Y-13175591D02*
X10131527Y-13185115D01*
X10131527Y-13185115D02*
X10141051Y-13194638D01*
X10141051Y-13194638D02*
X10150575Y-13213686D01*
X10150575Y-13213686D02*
X10160098Y-13251781D01*
X10160098Y-13251781D02*
X10160098Y-13299400D01*
X10160098Y-13299400D02*
X10150575Y-13337496D01*
X10150575Y-13337496D02*
X10141051Y-13356543D01*
X10141051Y-13356543D02*
X10131527Y-13366067D01*
X10131527Y-13366067D02*
X10112479Y-13375591D01*
X10112479Y-13375591D02*
X10093432Y-13375591D01*
X10093432Y-13375591D02*
X10074384Y-13366067D01*
X10074384Y-13366067D02*
X10064860Y-13356543D01*
X10064860Y-13356543D02*
X10055336Y-13337496D01*
X10055336Y-13337496D02*
X10045813Y-13299400D01*
X10045813Y-13299400D02*
X10045813Y-13251781D01*
X10045813Y-13251781D02*
X10055336Y-13213686D01*
X10055336Y-13213686D02*
X10064860Y-13194638D01*
X10064860Y-13194638D02*
X10074384Y-13185115D01*
X10074384Y-13185115D02*
X10093432Y-13175591D01*
X10245813Y-13375591D02*
X10245813Y-13242257D01*
X10245813Y-13261305D02*
X10255336Y-13251781D01*
X10255336Y-13251781D02*
X10274384Y-13242257D01*
X10274384Y-13242257D02*
X10302956Y-13242257D01*
X10302956Y-13242257D02*
X10322003Y-13251781D01*
X10322003Y-13251781D02*
X10331527Y-13270829D01*
X10331527Y-13270829D02*
X10331527Y-13375591D01*
X10331527Y-13270829D02*
X10341051Y-13251781D01*
X10341051Y-13251781D02*
X10360098Y-13242257D01*
X10360098Y-13242257D02*
X10388670Y-13242257D01*
X10388670Y-13242257D02*
X10407717Y-13251781D01*
X10407717Y-13251781D02*
X10417241Y-13270829D01*
X10417241Y-13270829D02*
X10417241Y-13375591D01*
X10512479Y-13375591D02*
X10512479Y-13242257D01*
X10512479Y-13261305D02*
X10522003Y-13251781D01*
X10522003Y-13251781D02*
X10541051Y-13242257D01*
X10541051Y-13242257D02*
X10569622Y-13242257D01*
X10569622Y-13242257D02*
X10588670Y-13251781D01*
X10588670Y-13251781D02*
X10598194Y-13270829D01*
X10598194Y-13270829D02*
X10598194Y-13375591D01*
X10598194Y-13270829D02*
X10607717Y-13251781D01*
X10607717Y-13251781D02*
X10626765Y-13242257D01*
X10626765Y-13242257D02*
X10655336Y-13242257D01*
X10655336Y-13242257D02*
X10674384Y-13251781D01*
X10674384Y-13251781D02*
X10683908Y-13270829D01*
X10683908Y-13270829D02*
X10683908Y-13375591D01*
X11074384Y-13166067D02*
X10902956Y-13423210D01*
X11331527Y-13175591D02*
X11350575Y-13175591D01*
X11350575Y-13175591D02*
X11369622Y-13185115D01*
X11369622Y-13185115D02*
X11379146Y-13194638D01*
X11379146Y-13194638D02*
X11388670Y-13213686D01*
X11388670Y-13213686D02*
X11398194Y-13251781D01*
X11398194Y-13251781D02*
X11398194Y-13299400D01*
X11398194Y-13299400D02*
X11388670Y-13337496D01*
X11388670Y-13337496D02*
X11379146Y-13356543D01*
X11379146Y-13356543D02*
X11369622Y-13366067D01*
X11369622Y-13366067D02*
X11350575Y-13375591D01*
X11350575Y-13375591D02*
X11331527Y-13375591D01*
X11331527Y-13375591D02*
X11312479Y-13366067D01*
X11312479Y-13366067D02*
X11302956Y-13356543D01*
X11302956Y-13356543D02*
X11293432Y-13337496D01*
X11293432Y-13337496D02*
X11283908Y-13299400D01*
X11283908Y-13299400D02*
X11283908Y-13251781D01*
X11283908Y-13251781D02*
X11293432Y-13213686D01*
X11293432Y-13213686D02*
X11302956Y-13194638D01*
X11302956Y-13194638D02*
X11312479Y-13185115D01*
X11312479Y-13185115D02*
X11331527Y-13175591D01*
X11483908Y-13356543D02*
X11493432Y-13366067D01*
X11493432Y-13366067D02*
X11483908Y-13375591D01*
X11483908Y-13375591D02*
X11474384Y-13366067D01*
X11474384Y-13366067D02*
X11483908Y-13356543D01*
X11483908Y-13356543D02*
X11483908Y-13375591D01*
X11617241Y-13175591D02*
X11636289Y-13175591D01*
X11636289Y-13175591D02*
X11655337Y-13185115D01*
X11655337Y-13185115D02*
X11664860Y-13194638D01*
X11664860Y-13194638D02*
X11674384Y-13213686D01*
X11674384Y-13213686D02*
X11683908Y-13251781D01*
X11683908Y-13251781D02*
X11683908Y-13299400D01*
X11683908Y-13299400D02*
X11674384Y-13337496D01*
X11674384Y-13337496D02*
X11664860Y-13356543D01*
X11664860Y-13356543D02*
X11655337Y-13366067D01*
X11655337Y-13366067D02*
X11636289Y-13375591D01*
X11636289Y-13375591D02*
X11617241Y-13375591D01*
X11617241Y-13375591D02*
X11598194Y-13366067D01*
X11598194Y-13366067D02*
X11588670Y-13356543D01*
X11588670Y-13356543D02*
X11579146Y-13337496D01*
X11579146Y-13337496D02*
X11569622Y-13299400D01*
X11569622Y-13299400D02*
X11569622Y-13251781D01*
X11569622Y-13251781D02*
X11579146Y-13213686D01*
X11579146Y-13213686D02*
X11588670Y-13194638D01*
X11588670Y-13194638D02*
X11598194Y-13185115D01*
X11598194Y-13185115D02*
X11617241Y-13175591D01*
X11874384Y-13375591D02*
X11760098Y-13375591D01*
X11817241Y-13375591D02*
X11817241Y-13175591D01*
X11817241Y-13175591D02*
X11798194Y-13204162D01*
X11798194Y-13204162D02*
X11779146Y-13223210D01*
X11779146Y-13223210D02*
X11760098Y-13232734D01*
X11941051Y-13175591D02*
X12064860Y-13175591D01*
X12064860Y-13175591D02*
X11998194Y-13251781D01*
X11998194Y-13251781D02*
X12026765Y-13251781D01*
X12026765Y-13251781D02*
X12045813Y-13261305D01*
X12045813Y-13261305D02*
X12055337Y-13270829D01*
X12055337Y-13270829D02*
X12064860Y-13289877D01*
X12064860Y-13289877D02*
X12064860Y-13337496D01*
X12064860Y-13337496D02*
X12055337Y-13356543D01*
X12055337Y-13356543D02*
X12045813Y-13366067D01*
X12045813Y-13366067D02*
X12026765Y-13375591D01*
X12026765Y-13375591D02*
X11969622Y-13375591D01*
X11969622Y-13375591D02*
X11950575Y-13366067D01*
X11950575Y-13366067D02*
X11941051Y-13356543D01*
X12179146Y-13261305D02*
X12160098Y-13251781D01*
X12160098Y-13251781D02*
X12150575Y-13242257D01*
X12150575Y-13242257D02*
X12141051Y-13223210D01*
X12141051Y-13223210D02*
X12141051Y-13213686D01*
X12141051Y-13213686D02*
X12150575Y-13194638D01*
X12150575Y-13194638D02*
X12160098Y-13185115D01*
X12160098Y-13185115D02*
X12179146Y-13175591D01*
X12179146Y-13175591D02*
X12217241Y-13175591D01*
X12217241Y-13175591D02*
X12236289Y-13185115D01*
X12236289Y-13185115D02*
X12245813Y-13194638D01*
X12245813Y-13194638D02*
X12255337Y-13213686D01*
X12255337Y-13213686D02*
X12255337Y-13223210D01*
X12255337Y-13223210D02*
X12245813Y-13242257D01*
X12245813Y-13242257D02*
X12236289Y-13251781D01*
X12236289Y-13251781D02*
X12217241Y-13261305D01*
X12217241Y-13261305D02*
X12179146Y-13261305D01*
X12179146Y-13261305D02*
X12160098Y-13270829D01*
X12160098Y-13270829D02*
X12150575Y-13280353D01*
X12150575Y-13280353D02*
X12141051Y-13299400D01*
X12141051Y-13299400D02*
X12141051Y-13337496D01*
X12141051Y-13337496D02*
X12150575Y-13356543D01*
X12150575Y-13356543D02*
X12160098Y-13366067D01*
X12160098Y-13366067D02*
X12179146Y-13375591D01*
X12179146Y-13375591D02*
X12217241Y-13375591D01*
X12217241Y-13375591D02*
X12236289Y-13366067D01*
X12236289Y-13366067D02*
X12245813Y-13356543D01*
X12245813Y-13356543D02*
X12255337Y-13337496D01*
X12255337Y-13337496D02*
X12255337Y-13299400D01*
X12255337Y-13299400D02*
X12245813Y-13280353D01*
X12245813Y-13280353D02*
X12236289Y-13270829D01*
X12236289Y-13270829D02*
X12217241Y-13261305D01*
X12331527Y-13175591D02*
X12331527Y-13213686D01*
X12407718Y-13175591D02*
X12407718Y-13213686D01*
X12702956Y-13451781D02*
X12693432Y-13442257D01*
X12693432Y-13442257D02*
X12674384Y-13413686D01*
X12674384Y-13413686D02*
X12664860Y-13394638D01*
X12664860Y-13394638D02*
X12655337Y-13366067D01*
X12655337Y-13366067D02*
X12645813Y-13318448D01*
X12645813Y-13318448D02*
X12645813Y-13280353D01*
X12645813Y-13280353D02*
X12655337Y-13232734D01*
X12655337Y-13232734D02*
X12664860Y-13204162D01*
X12664860Y-13204162D02*
X12674384Y-13185115D01*
X12674384Y-13185115D02*
X12693432Y-13156543D01*
X12693432Y-13156543D02*
X12702956Y-13147019D01*
X12788670Y-13375591D02*
X12826765Y-13375591D01*
X12826765Y-13375591D02*
X12845813Y-13366067D01*
X12845813Y-13366067D02*
X12855337Y-13356543D01*
X12855337Y-13356543D02*
X12874384Y-13327972D01*
X12874384Y-13327972D02*
X12883908Y-13289877D01*
X12883908Y-13289877D02*
X12883908Y-13213686D01*
X12883908Y-13213686D02*
X12874384Y-13194638D01*
X12874384Y-13194638D02*
X12864860Y-13185115D01*
X12864860Y-13185115D02*
X12845813Y-13175591D01*
X12845813Y-13175591D02*
X12807718Y-13175591D01*
X12807718Y-13175591D02*
X12788670Y-13185115D01*
X12788670Y-13185115D02*
X12779146Y-13194638D01*
X12779146Y-13194638D02*
X12769622Y-13213686D01*
X12769622Y-13213686D02*
X12769622Y-13261305D01*
X12769622Y-13261305D02*
X12779146Y-13280353D01*
X12779146Y-13280353D02*
X12788670Y-13289877D01*
X12788670Y-13289877D02*
X12807718Y-13299400D01*
X12807718Y-13299400D02*
X12845813Y-13299400D01*
X12845813Y-13299400D02*
X12864860Y-13289877D01*
X12864860Y-13289877D02*
X12874384Y-13280353D01*
X12874384Y-13280353D02*
X12883908Y-13261305D01*
X13122003Y-13375591D02*
X13122003Y-13175591D01*
X13207718Y-13375591D02*
X13207718Y-13270829D01*
X13207718Y-13270829D02*
X13198194Y-13251781D01*
X13198194Y-13251781D02*
X13179146Y-13242257D01*
X13179146Y-13242257D02*
X13150575Y-13242257D01*
X13150575Y-13242257D02*
X13131527Y-13251781D01*
X13131527Y-13251781D02*
X13122003Y-13261305D01*
X13331527Y-13375591D02*
X13312480Y-13366067D01*
X13312480Y-13366067D02*
X13302956Y-13356543D01*
X13302956Y-13356543D02*
X13293432Y-13337496D01*
X13293432Y-13337496D02*
X13293432Y-13280353D01*
X13293432Y-13280353D02*
X13302956Y-13261305D01*
X13302956Y-13261305D02*
X13312480Y-13251781D01*
X13312480Y-13251781D02*
X13331527Y-13242257D01*
X13331527Y-13242257D02*
X13360099Y-13242257D01*
X13360099Y-13242257D02*
X13379146Y-13251781D01*
X13379146Y-13251781D02*
X13388670Y-13261305D01*
X13388670Y-13261305D02*
X13398194Y-13280353D01*
X13398194Y-13280353D02*
X13398194Y-13337496D01*
X13398194Y-13337496D02*
X13388670Y-13356543D01*
X13388670Y-13356543D02*
X13379146Y-13366067D01*
X13379146Y-13366067D02*
X13360099Y-13375591D01*
X13360099Y-13375591D02*
X13331527Y-13375591D01*
X13512480Y-13375591D02*
X13493432Y-13366067D01*
X13493432Y-13366067D02*
X13483908Y-13347019D01*
X13483908Y-13347019D02*
X13483908Y-13175591D01*
X13664861Y-13366067D02*
X13645813Y-13375591D01*
X13645813Y-13375591D02*
X13607718Y-13375591D01*
X13607718Y-13375591D02*
X13588670Y-13366067D01*
X13588670Y-13366067D02*
X13579146Y-13347019D01*
X13579146Y-13347019D02*
X13579146Y-13270829D01*
X13579146Y-13270829D02*
X13588670Y-13251781D01*
X13588670Y-13251781D02*
X13607718Y-13242257D01*
X13607718Y-13242257D02*
X13645813Y-13242257D01*
X13645813Y-13242257D02*
X13664861Y-13251781D01*
X13664861Y-13251781D02*
X13674384Y-13270829D01*
X13674384Y-13270829D02*
X13674384Y-13289877D01*
X13674384Y-13289877D02*
X13579146Y-13308924D01*
X13750575Y-13366067D02*
X13769622Y-13375591D01*
X13769622Y-13375591D02*
X13807718Y-13375591D01*
X13807718Y-13375591D02*
X13826765Y-13366067D01*
X13826765Y-13366067D02*
X13836289Y-13347019D01*
X13836289Y-13347019D02*
X13836289Y-13337496D01*
X13836289Y-13337496D02*
X13826765Y-13318448D01*
X13826765Y-13318448D02*
X13807718Y-13308924D01*
X13807718Y-13308924D02*
X13779146Y-13308924D01*
X13779146Y-13308924D02*
X13760099Y-13299400D01*
X13760099Y-13299400D02*
X13750575Y-13280353D01*
X13750575Y-13280353D02*
X13750575Y-13270829D01*
X13750575Y-13270829D02*
X13760099Y-13251781D01*
X13760099Y-13251781D02*
X13779146Y-13242257D01*
X13779146Y-13242257D02*
X13807718Y-13242257D01*
X13807718Y-13242257D02*
X13826765Y-13251781D01*
X13902956Y-13451781D02*
X13912480Y-13442257D01*
X13912480Y-13442257D02*
X13931527Y-13413686D01*
X13931527Y-13413686D02*
X13941051Y-13394638D01*
X13941051Y-13394638D02*
X13950575Y-13366067D01*
X13950575Y-13366067D02*
X13960099Y-13318448D01*
X13960099Y-13318448D02*
X13960099Y-13280353D01*
X13960099Y-13280353D02*
X13950575Y-13232734D01*
X13950575Y-13232734D02*
X13941051Y-13204162D01*
X13941051Y-13204162D02*
X13931527Y-13185115D01*
X13931527Y-13185115D02*
X13912480Y-13156543D01*
X13912480Y-13156543D02*
X13902956Y-13147019D01*
D14*
X9113981Y-13581695D02*
X9113981Y-13514519D01*
X9046805Y-13514519D01*
X9046805Y-13581695D01*
X9113981Y-13581695D01*
D11*
X9426765Y-13439591D02*
X9445813Y-13439591D01*
X9445813Y-13439591D02*
X9464860Y-13449115D01*
X9464860Y-13449115D02*
X9474384Y-13458638D01*
X9474384Y-13458638D02*
X9483908Y-13477686D01*
X9483908Y-13477686D02*
X9493432Y-13515781D01*
X9493432Y-13515781D02*
X9493432Y-13563400D01*
X9493432Y-13563400D02*
X9483908Y-13601496D01*
X9483908Y-13601496D02*
X9474384Y-13620543D01*
X9474384Y-13620543D02*
X9464860Y-13630067D01*
X9464860Y-13630067D02*
X9445813Y-13639591D01*
X9445813Y-13639591D02*
X9426765Y-13639591D01*
X9426765Y-13639591D02*
X9407717Y-13630067D01*
X9407717Y-13630067D02*
X9398194Y-13620543D01*
X9398194Y-13620543D02*
X9388670Y-13601496D01*
X9388670Y-13601496D02*
X9379146Y-13563400D01*
X9379146Y-13563400D02*
X9379146Y-13515781D01*
X9379146Y-13515781D02*
X9388670Y-13477686D01*
X9388670Y-13477686D02*
X9398194Y-13458638D01*
X9398194Y-13458638D02*
X9407717Y-13449115D01*
X9407717Y-13449115D02*
X9426765Y-13439591D01*
X9579146Y-13620543D02*
X9588670Y-13630067D01*
X9588670Y-13630067D02*
X9579146Y-13639591D01*
X9579146Y-13639591D02*
X9569622Y-13630067D01*
X9569622Y-13630067D02*
X9579146Y-13620543D01*
X9579146Y-13620543D02*
X9579146Y-13639591D01*
X9683908Y-13639591D02*
X9722003Y-13639591D01*
X9722003Y-13639591D02*
X9741051Y-13630067D01*
X9741051Y-13630067D02*
X9750575Y-13620543D01*
X9750575Y-13620543D02*
X9769622Y-13591972D01*
X9769622Y-13591972D02*
X9779146Y-13553877D01*
X9779146Y-13553877D02*
X9779146Y-13477686D01*
X9779146Y-13477686D02*
X9769622Y-13458638D01*
X9769622Y-13458638D02*
X9760098Y-13449115D01*
X9760098Y-13449115D02*
X9741051Y-13439591D01*
X9741051Y-13439591D02*
X9702955Y-13439591D01*
X9702955Y-13439591D02*
X9683908Y-13449115D01*
X9683908Y-13449115D02*
X9674384Y-13458638D01*
X9674384Y-13458638D02*
X9664860Y-13477686D01*
X9664860Y-13477686D02*
X9664860Y-13525305D01*
X9664860Y-13525305D02*
X9674384Y-13544353D01*
X9674384Y-13544353D02*
X9683908Y-13553877D01*
X9683908Y-13553877D02*
X9702955Y-13563400D01*
X9702955Y-13563400D02*
X9741051Y-13563400D01*
X9741051Y-13563400D02*
X9760098Y-13553877D01*
X9760098Y-13553877D02*
X9769622Y-13544353D01*
X9769622Y-13544353D02*
X9779146Y-13525305D01*
X9960098Y-13439591D02*
X9864860Y-13439591D01*
X9864860Y-13439591D02*
X9855336Y-13534829D01*
X9855336Y-13534829D02*
X9864860Y-13525305D01*
X9864860Y-13525305D02*
X9883908Y-13515781D01*
X9883908Y-13515781D02*
X9931527Y-13515781D01*
X9931527Y-13515781D02*
X9950575Y-13525305D01*
X9950575Y-13525305D02*
X9960098Y-13534829D01*
X9960098Y-13534829D02*
X9969622Y-13553877D01*
X9969622Y-13553877D02*
X9969622Y-13601496D01*
X9969622Y-13601496D02*
X9960098Y-13620543D01*
X9960098Y-13620543D02*
X9950575Y-13630067D01*
X9950575Y-13630067D02*
X9931527Y-13639591D01*
X9931527Y-13639591D02*
X9883908Y-13639591D01*
X9883908Y-13639591D02*
X9864860Y-13630067D01*
X9864860Y-13630067D02*
X9855336Y-13620543D01*
X10093432Y-13439591D02*
X10112479Y-13439591D01*
X10112479Y-13439591D02*
X10131527Y-13449115D01*
X10131527Y-13449115D02*
X10141051Y-13458638D01*
X10141051Y-13458638D02*
X10150575Y-13477686D01*
X10150575Y-13477686D02*
X10160098Y-13515781D01*
X10160098Y-13515781D02*
X10160098Y-13563400D01*
X10160098Y-13563400D02*
X10150575Y-13601496D01*
X10150575Y-13601496D02*
X10141051Y-13620543D01*
X10141051Y-13620543D02*
X10131527Y-13630067D01*
X10131527Y-13630067D02*
X10112479Y-13639591D01*
X10112479Y-13639591D02*
X10093432Y-13639591D01*
X10093432Y-13639591D02*
X10074384Y-13630067D01*
X10074384Y-13630067D02*
X10064860Y-13620543D01*
X10064860Y-13620543D02*
X10055336Y-13601496D01*
X10055336Y-13601496D02*
X10045813Y-13563400D01*
X10045813Y-13563400D02*
X10045813Y-13515781D01*
X10045813Y-13515781D02*
X10055336Y-13477686D01*
X10055336Y-13477686D02*
X10064860Y-13458638D01*
X10064860Y-13458638D02*
X10074384Y-13449115D01*
X10074384Y-13449115D02*
X10093432Y-13439591D01*
X10245813Y-13639591D02*
X10245813Y-13506257D01*
X10245813Y-13525305D02*
X10255336Y-13515781D01*
X10255336Y-13515781D02*
X10274384Y-13506257D01*
X10274384Y-13506257D02*
X10302956Y-13506257D01*
X10302956Y-13506257D02*
X10322003Y-13515781D01*
X10322003Y-13515781D02*
X10331527Y-13534829D01*
X10331527Y-13534829D02*
X10331527Y-13639591D01*
X10331527Y-13534829D02*
X10341051Y-13515781D01*
X10341051Y-13515781D02*
X10360098Y-13506257D01*
X10360098Y-13506257D02*
X10388670Y-13506257D01*
X10388670Y-13506257D02*
X10407717Y-13515781D01*
X10407717Y-13515781D02*
X10417241Y-13534829D01*
X10417241Y-13534829D02*
X10417241Y-13639591D01*
X10512479Y-13639591D02*
X10512479Y-13506257D01*
X10512479Y-13525305D02*
X10522003Y-13515781D01*
X10522003Y-13515781D02*
X10541051Y-13506257D01*
X10541051Y-13506257D02*
X10569622Y-13506257D01*
X10569622Y-13506257D02*
X10588670Y-13515781D01*
X10588670Y-13515781D02*
X10598194Y-13534829D01*
X10598194Y-13534829D02*
X10598194Y-13639591D01*
X10598194Y-13534829D02*
X10607717Y-13515781D01*
X10607717Y-13515781D02*
X10626765Y-13506257D01*
X10626765Y-13506257D02*
X10655336Y-13506257D01*
X10655336Y-13506257D02*
X10674384Y-13515781D01*
X10674384Y-13515781D02*
X10683908Y-13534829D01*
X10683908Y-13534829D02*
X10683908Y-13639591D01*
X11074384Y-13430067D02*
X10902956Y-13687210D01*
X11331527Y-13439591D02*
X11350575Y-13439591D01*
X11350575Y-13439591D02*
X11369622Y-13449115D01*
X11369622Y-13449115D02*
X11379146Y-13458638D01*
X11379146Y-13458638D02*
X11388670Y-13477686D01*
X11388670Y-13477686D02*
X11398194Y-13515781D01*
X11398194Y-13515781D02*
X11398194Y-13563400D01*
X11398194Y-13563400D02*
X11388670Y-13601496D01*
X11388670Y-13601496D02*
X11379146Y-13620543D01*
X11379146Y-13620543D02*
X11369622Y-13630067D01*
X11369622Y-13630067D02*
X11350575Y-13639591D01*
X11350575Y-13639591D02*
X11331527Y-13639591D01*
X11331527Y-13639591D02*
X11312479Y-13630067D01*
X11312479Y-13630067D02*
X11302956Y-13620543D01*
X11302956Y-13620543D02*
X11293432Y-13601496D01*
X11293432Y-13601496D02*
X11283908Y-13563400D01*
X11283908Y-13563400D02*
X11283908Y-13515781D01*
X11283908Y-13515781D02*
X11293432Y-13477686D01*
X11293432Y-13477686D02*
X11302956Y-13458638D01*
X11302956Y-13458638D02*
X11312479Y-13449115D01*
X11312479Y-13449115D02*
X11331527Y-13439591D01*
X11483908Y-13620543D02*
X11493432Y-13630067D01*
X11493432Y-13630067D02*
X11483908Y-13639591D01*
X11483908Y-13639591D02*
X11474384Y-13630067D01*
X11474384Y-13630067D02*
X11483908Y-13620543D01*
X11483908Y-13620543D02*
X11483908Y-13639591D01*
X11617241Y-13439591D02*
X11636289Y-13439591D01*
X11636289Y-13439591D02*
X11655337Y-13449115D01*
X11655337Y-13449115D02*
X11664860Y-13458638D01*
X11664860Y-13458638D02*
X11674384Y-13477686D01*
X11674384Y-13477686D02*
X11683908Y-13515781D01*
X11683908Y-13515781D02*
X11683908Y-13563400D01*
X11683908Y-13563400D02*
X11674384Y-13601496D01*
X11674384Y-13601496D02*
X11664860Y-13620543D01*
X11664860Y-13620543D02*
X11655337Y-13630067D01*
X11655337Y-13630067D02*
X11636289Y-13639591D01*
X11636289Y-13639591D02*
X11617241Y-13639591D01*
X11617241Y-13639591D02*
X11598194Y-13630067D01*
X11598194Y-13630067D02*
X11588670Y-13620543D01*
X11588670Y-13620543D02*
X11579146Y-13601496D01*
X11579146Y-13601496D02*
X11569622Y-13563400D01*
X11569622Y-13563400D02*
X11569622Y-13515781D01*
X11569622Y-13515781D02*
X11579146Y-13477686D01*
X11579146Y-13477686D02*
X11588670Y-13458638D01*
X11588670Y-13458638D02*
X11598194Y-13449115D01*
X11598194Y-13449115D02*
X11617241Y-13439591D01*
X11750575Y-13439591D02*
X11874384Y-13439591D01*
X11874384Y-13439591D02*
X11807717Y-13515781D01*
X11807717Y-13515781D02*
X11836289Y-13515781D01*
X11836289Y-13515781D02*
X11855337Y-13525305D01*
X11855337Y-13525305D02*
X11864860Y-13534829D01*
X11864860Y-13534829D02*
X11874384Y-13553877D01*
X11874384Y-13553877D02*
X11874384Y-13601496D01*
X11874384Y-13601496D02*
X11864860Y-13620543D01*
X11864860Y-13620543D02*
X11855337Y-13630067D01*
X11855337Y-13630067D02*
X11836289Y-13639591D01*
X11836289Y-13639591D02*
X11779146Y-13639591D01*
X11779146Y-13639591D02*
X11760098Y-13630067D01*
X11760098Y-13630067D02*
X11750575Y-13620543D01*
X11941051Y-13439591D02*
X12074384Y-13439591D01*
X12074384Y-13439591D02*
X11988670Y-13639591D01*
X12236289Y-13506257D02*
X12236289Y-13639591D01*
X12188670Y-13430067D02*
X12141051Y-13572924D01*
X12141051Y-13572924D02*
X12264860Y-13572924D01*
X12331527Y-13439591D02*
X12331527Y-13477686D01*
X12407718Y-13439591D02*
X12407718Y-13477686D01*
X12702956Y-13715781D02*
X12693432Y-13706257D01*
X12693432Y-13706257D02*
X12674384Y-13677686D01*
X12674384Y-13677686D02*
X12664860Y-13658638D01*
X12664860Y-13658638D02*
X12655337Y-13630067D01*
X12655337Y-13630067D02*
X12645813Y-13582448D01*
X12645813Y-13582448D02*
X12645813Y-13544353D01*
X12645813Y-13544353D02*
X12655337Y-13496734D01*
X12655337Y-13496734D02*
X12664860Y-13468162D01*
X12664860Y-13468162D02*
X12674384Y-13449115D01*
X12674384Y-13449115D02*
X12693432Y-13420543D01*
X12693432Y-13420543D02*
X12702956Y-13411019D01*
X12807718Y-13525305D02*
X12788670Y-13515781D01*
X12788670Y-13515781D02*
X12779146Y-13506257D01*
X12779146Y-13506257D02*
X12769622Y-13487210D01*
X12769622Y-13487210D02*
X12769622Y-13477686D01*
X12769622Y-13477686D02*
X12779146Y-13458638D01*
X12779146Y-13458638D02*
X12788670Y-13449115D01*
X12788670Y-13449115D02*
X12807718Y-13439591D01*
X12807718Y-13439591D02*
X12845813Y-13439591D01*
X12845813Y-13439591D02*
X12864860Y-13449115D01*
X12864860Y-13449115D02*
X12874384Y-13458638D01*
X12874384Y-13458638D02*
X12883908Y-13477686D01*
X12883908Y-13477686D02*
X12883908Y-13487210D01*
X12883908Y-13487210D02*
X12874384Y-13506257D01*
X12874384Y-13506257D02*
X12864860Y-13515781D01*
X12864860Y-13515781D02*
X12845813Y-13525305D01*
X12845813Y-13525305D02*
X12807718Y-13525305D01*
X12807718Y-13525305D02*
X12788670Y-13534829D01*
X12788670Y-13534829D02*
X12779146Y-13544353D01*
X12779146Y-13544353D02*
X12769622Y-13563400D01*
X12769622Y-13563400D02*
X12769622Y-13601496D01*
X12769622Y-13601496D02*
X12779146Y-13620543D01*
X12779146Y-13620543D02*
X12788670Y-13630067D01*
X12788670Y-13630067D02*
X12807718Y-13639591D01*
X12807718Y-13639591D02*
X12845813Y-13639591D01*
X12845813Y-13639591D02*
X12864860Y-13630067D01*
X12864860Y-13630067D02*
X12874384Y-13620543D01*
X12874384Y-13620543D02*
X12883908Y-13601496D01*
X12883908Y-13601496D02*
X12883908Y-13563400D01*
X12883908Y-13563400D02*
X12874384Y-13544353D01*
X12874384Y-13544353D02*
X12864860Y-13534829D01*
X12864860Y-13534829D02*
X12845813Y-13525305D01*
X13122003Y-13639591D02*
X13122003Y-13439591D01*
X13207718Y-13639591D02*
X13207718Y-13534829D01*
X13207718Y-13534829D02*
X13198194Y-13515781D01*
X13198194Y-13515781D02*
X13179146Y-13506257D01*
X13179146Y-13506257D02*
X13150575Y-13506257D01*
X13150575Y-13506257D02*
X13131527Y-13515781D01*
X13131527Y-13515781D02*
X13122003Y-13525305D01*
X13331527Y-13639591D02*
X13312480Y-13630067D01*
X13312480Y-13630067D02*
X13302956Y-13620543D01*
X13302956Y-13620543D02*
X13293432Y-13601496D01*
X13293432Y-13601496D02*
X13293432Y-13544353D01*
X13293432Y-13544353D02*
X13302956Y-13525305D01*
X13302956Y-13525305D02*
X13312480Y-13515781D01*
X13312480Y-13515781D02*
X13331527Y-13506257D01*
X13331527Y-13506257D02*
X13360099Y-13506257D01*
X13360099Y-13506257D02*
X13379146Y-13515781D01*
X13379146Y-13515781D02*
X13388670Y-13525305D01*
X13388670Y-13525305D02*
X13398194Y-13544353D01*
X13398194Y-13544353D02*
X13398194Y-13601496D01*
X13398194Y-13601496D02*
X13388670Y-13620543D01*
X13388670Y-13620543D02*
X13379146Y-13630067D01*
X13379146Y-13630067D02*
X13360099Y-13639591D01*
X13360099Y-13639591D02*
X13331527Y-13639591D01*
X13512480Y-13639591D02*
X13493432Y-13630067D01*
X13493432Y-13630067D02*
X13483908Y-13611019D01*
X13483908Y-13611019D02*
X13483908Y-13439591D01*
X13664861Y-13630067D02*
X13645813Y-13639591D01*
X13645813Y-13639591D02*
X13607718Y-13639591D01*
X13607718Y-13639591D02*
X13588670Y-13630067D01*
X13588670Y-13630067D02*
X13579146Y-13611019D01*
X13579146Y-13611019D02*
X13579146Y-13534829D01*
X13579146Y-13534829D02*
X13588670Y-13515781D01*
X13588670Y-13515781D02*
X13607718Y-13506257D01*
X13607718Y-13506257D02*
X13645813Y-13506257D01*
X13645813Y-13506257D02*
X13664861Y-13515781D01*
X13664861Y-13515781D02*
X13674384Y-13534829D01*
X13674384Y-13534829D02*
X13674384Y-13553877D01*
X13674384Y-13553877D02*
X13579146Y-13572924D01*
X13750575Y-13630067D02*
X13769622Y-13639591D01*
X13769622Y-13639591D02*
X13807718Y-13639591D01*
X13807718Y-13639591D02*
X13826765Y-13630067D01*
X13826765Y-13630067D02*
X13836289Y-13611019D01*
X13836289Y-13611019D02*
X13836289Y-13601496D01*
X13836289Y-13601496D02*
X13826765Y-13582448D01*
X13826765Y-13582448D02*
X13807718Y-13572924D01*
X13807718Y-13572924D02*
X13779146Y-13572924D01*
X13779146Y-13572924D02*
X13760099Y-13563400D01*
X13760099Y-13563400D02*
X13750575Y-13544353D01*
X13750575Y-13544353D02*
X13750575Y-13534829D01*
X13750575Y-13534829D02*
X13760099Y-13515781D01*
X13760099Y-13515781D02*
X13779146Y-13506257D01*
X13779146Y-13506257D02*
X13807718Y-13506257D01*
X13807718Y-13506257D02*
X13826765Y-13515781D01*
X13902956Y-13715781D02*
X13912480Y-13706257D01*
X13912480Y-13706257D02*
X13931527Y-13677686D01*
X13931527Y-13677686D02*
X13941051Y-13658638D01*
X13941051Y-13658638D02*
X13950575Y-13630067D01*
X13950575Y-13630067D02*
X13960099Y-13582448D01*
X13960099Y-13582448D02*
X13960099Y-13544353D01*
X13960099Y-13544353D02*
X13950575Y-13496734D01*
X13950575Y-13496734D02*
X13941051Y-13468162D01*
X13941051Y-13468162D02*
X13931527Y-13449115D01*
X13931527Y-13449115D02*
X13912480Y-13420543D01*
X13912480Y-13420543D02*
X13902956Y-13411019D01*
D15*
X9077893Y-13862107D02*
X9127893Y-13812107D01*
X9077893Y-13762107D01*
X9027893Y-13812107D01*
X9077893Y-13862107D01*
D11*
X9493432Y-13903591D02*
X9379146Y-13903591D01*
X9436289Y-13903591D02*
X9436289Y-13703591D01*
X9436289Y-13703591D02*
X9417241Y-13732162D01*
X9417241Y-13732162D02*
X9398194Y-13751210D01*
X9398194Y-13751210D02*
X9379146Y-13760734D01*
X9579146Y-13884543D02*
X9588670Y-13894067D01*
X9588670Y-13894067D02*
X9579146Y-13903591D01*
X9579146Y-13903591D02*
X9569622Y-13894067D01*
X9569622Y-13894067D02*
X9579146Y-13884543D01*
X9579146Y-13884543D02*
X9579146Y-13903591D01*
X9712479Y-13703591D02*
X9731527Y-13703591D01*
X9731527Y-13703591D02*
X9750575Y-13713115D01*
X9750575Y-13713115D02*
X9760098Y-13722638D01*
X9760098Y-13722638D02*
X9769622Y-13741686D01*
X9769622Y-13741686D02*
X9779146Y-13779781D01*
X9779146Y-13779781D02*
X9779146Y-13827400D01*
X9779146Y-13827400D02*
X9769622Y-13865496D01*
X9769622Y-13865496D02*
X9760098Y-13884543D01*
X9760098Y-13884543D02*
X9750575Y-13894067D01*
X9750575Y-13894067D02*
X9731527Y-13903591D01*
X9731527Y-13903591D02*
X9712479Y-13903591D01*
X9712479Y-13903591D02*
X9693432Y-13894067D01*
X9693432Y-13894067D02*
X9683908Y-13884543D01*
X9683908Y-13884543D02*
X9674384Y-13865496D01*
X9674384Y-13865496D02*
X9664860Y-13827400D01*
X9664860Y-13827400D02*
X9664860Y-13779781D01*
X9664860Y-13779781D02*
X9674384Y-13741686D01*
X9674384Y-13741686D02*
X9683908Y-13722638D01*
X9683908Y-13722638D02*
X9693432Y-13713115D01*
X9693432Y-13713115D02*
X9712479Y-13703591D01*
X9902955Y-13703591D02*
X9922003Y-13703591D01*
X9922003Y-13703591D02*
X9941051Y-13713115D01*
X9941051Y-13713115D02*
X9950575Y-13722638D01*
X9950575Y-13722638D02*
X9960098Y-13741686D01*
X9960098Y-13741686D02*
X9969622Y-13779781D01*
X9969622Y-13779781D02*
X9969622Y-13827400D01*
X9969622Y-13827400D02*
X9960098Y-13865496D01*
X9960098Y-13865496D02*
X9950575Y-13884543D01*
X9950575Y-13884543D02*
X9941051Y-13894067D01*
X9941051Y-13894067D02*
X9922003Y-13903591D01*
X9922003Y-13903591D02*
X9902955Y-13903591D01*
X9902955Y-13903591D02*
X9883908Y-13894067D01*
X9883908Y-13894067D02*
X9874384Y-13884543D01*
X9874384Y-13884543D02*
X9864860Y-13865496D01*
X9864860Y-13865496D02*
X9855336Y-13827400D01*
X9855336Y-13827400D02*
X9855336Y-13779781D01*
X9855336Y-13779781D02*
X9864860Y-13741686D01*
X9864860Y-13741686D02*
X9874384Y-13722638D01*
X9874384Y-13722638D02*
X9883908Y-13713115D01*
X9883908Y-13713115D02*
X9902955Y-13703591D01*
X10093432Y-13703591D02*
X10112479Y-13703591D01*
X10112479Y-13703591D02*
X10131527Y-13713115D01*
X10131527Y-13713115D02*
X10141051Y-13722638D01*
X10141051Y-13722638D02*
X10150575Y-13741686D01*
X10150575Y-13741686D02*
X10160098Y-13779781D01*
X10160098Y-13779781D02*
X10160098Y-13827400D01*
X10160098Y-13827400D02*
X10150575Y-13865496D01*
X10150575Y-13865496D02*
X10141051Y-13884543D01*
X10141051Y-13884543D02*
X10131527Y-13894067D01*
X10131527Y-13894067D02*
X10112479Y-13903591D01*
X10112479Y-13903591D02*
X10093432Y-13903591D01*
X10093432Y-13903591D02*
X10074384Y-13894067D01*
X10074384Y-13894067D02*
X10064860Y-13884543D01*
X10064860Y-13884543D02*
X10055336Y-13865496D01*
X10055336Y-13865496D02*
X10045813Y-13827400D01*
X10045813Y-13827400D02*
X10045813Y-13779781D01*
X10045813Y-13779781D02*
X10055336Y-13741686D01*
X10055336Y-13741686D02*
X10064860Y-13722638D01*
X10064860Y-13722638D02*
X10074384Y-13713115D01*
X10074384Y-13713115D02*
X10093432Y-13703591D01*
X10245813Y-13903591D02*
X10245813Y-13770257D01*
X10245813Y-13789305D02*
X10255336Y-13779781D01*
X10255336Y-13779781D02*
X10274384Y-13770257D01*
X10274384Y-13770257D02*
X10302956Y-13770257D01*
X10302956Y-13770257D02*
X10322003Y-13779781D01*
X10322003Y-13779781D02*
X10331527Y-13798829D01*
X10331527Y-13798829D02*
X10331527Y-13903591D01*
X10331527Y-13798829D02*
X10341051Y-13779781D01*
X10341051Y-13779781D02*
X10360098Y-13770257D01*
X10360098Y-13770257D02*
X10388670Y-13770257D01*
X10388670Y-13770257D02*
X10407717Y-13779781D01*
X10407717Y-13779781D02*
X10417241Y-13798829D01*
X10417241Y-13798829D02*
X10417241Y-13903591D01*
X10512479Y-13903591D02*
X10512479Y-13770257D01*
X10512479Y-13789305D02*
X10522003Y-13779781D01*
X10522003Y-13779781D02*
X10541051Y-13770257D01*
X10541051Y-13770257D02*
X10569622Y-13770257D01*
X10569622Y-13770257D02*
X10588670Y-13779781D01*
X10588670Y-13779781D02*
X10598194Y-13798829D01*
X10598194Y-13798829D02*
X10598194Y-13903591D01*
X10598194Y-13798829D02*
X10607717Y-13779781D01*
X10607717Y-13779781D02*
X10626765Y-13770257D01*
X10626765Y-13770257D02*
X10655336Y-13770257D01*
X10655336Y-13770257D02*
X10674384Y-13779781D01*
X10674384Y-13779781D02*
X10683908Y-13798829D01*
X10683908Y-13798829D02*
X10683908Y-13903591D01*
X11074384Y-13694067D02*
X10902956Y-13951210D01*
X11331527Y-13703591D02*
X11350575Y-13703591D01*
X11350575Y-13703591D02*
X11369622Y-13713115D01*
X11369622Y-13713115D02*
X11379146Y-13722638D01*
X11379146Y-13722638D02*
X11388670Y-13741686D01*
X11388670Y-13741686D02*
X11398194Y-13779781D01*
X11398194Y-13779781D02*
X11398194Y-13827400D01*
X11398194Y-13827400D02*
X11388670Y-13865496D01*
X11388670Y-13865496D02*
X11379146Y-13884543D01*
X11379146Y-13884543D02*
X11369622Y-13894067D01*
X11369622Y-13894067D02*
X11350575Y-13903591D01*
X11350575Y-13903591D02*
X11331527Y-13903591D01*
X11331527Y-13903591D02*
X11312479Y-13894067D01*
X11312479Y-13894067D02*
X11302956Y-13884543D01*
X11302956Y-13884543D02*
X11293432Y-13865496D01*
X11293432Y-13865496D02*
X11283908Y-13827400D01*
X11283908Y-13827400D02*
X11283908Y-13779781D01*
X11283908Y-13779781D02*
X11293432Y-13741686D01*
X11293432Y-13741686D02*
X11302956Y-13722638D01*
X11302956Y-13722638D02*
X11312479Y-13713115D01*
X11312479Y-13713115D02*
X11331527Y-13703591D01*
X11483908Y-13884543D02*
X11493432Y-13894067D01*
X11493432Y-13894067D02*
X11483908Y-13903591D01*
X11483908Y-13903591D02*
X11474384Y-13894067D01*
X11474384Y-13894067D02*
X11483908Y-13884543D01*
X11483908Y-13884543D02*
X11483908Y-13903591D01*
X11617241Y-13703591D02*
X11636289Y-13703591D01*
X11636289Y-13703591D02*
X11655337Y-13713115D01*
X11655337Y-13713115D02*
X11664860Y-13722638D01*
X11664860Y-13722638D02*
X11674384Y-13741686D01*
X11674384Y-13741686D02*
X11683908Y-13779781D01*
X11683908Y-13779781D02*
X11683908Y-13827400D01*
X11683908Y-13827400D02*
X11674384Y-13865496D01*
X11674384Y-13865496D02*
X11664860Y-13884543D01*
X11664860Y-13884543D02*
X11655337Y-13894067D01*
X11655337Y-13894067D02*
X11636289Y-13903591D01*
X11636289Y-13903591D02*
X11617241Y-13903591D01*
X11617241Y-13903591D02*
X11598194Y-13894067D01*
X11598194Y-13894067D02*
X11588670Y-13884543D01*
X11588670Y-13884543D02*
X11579146Y-13865496D01*
X11579146Y-13865496D02*
X11569622Y-13827400D01*
X11569622Y-13827400D02*
X11569622Y-13779781D01*
X11569622Y-13779781D02*
X11579146Y-13741686D01*
X11579146Y-13741686D02*
X11588670Y-13722638D01*
X11588670Y-13722638D02*
X11598194Y-13713115D01*
X11598194Y-13713115D02*
X11617241Y-13703591D01*
X11750575Y-13703591D02*
X11874384Y-13703591D01*
X11874384Y-13703591D02*
X11807717Y-13779781D01*
X11807717Y-13779781D02*
X11836289Y-13779781D01*
X11836289Y-13779781D02*
X11855337Y-13789305D01*
X11855337Y-13789305D02*
X11864860Y-13798829D01*
X11864860Y-13798829D02*
X11874384Y-13817877D01*
X11874384Y-13817877D02*
X11874384Y-13865496D01*
X11874384Y-13865496D02*
X11864860Y-13884543D01*
X11864860Y-13884543D02*
X11855337Y-13894067D01*
X11855337Y-13894067D02*
X11836289Y-13903591D01*
X11836289Y-13903591D02*
X11779146Y-13903591D01*
X11779146Y-13903591D02*
X11760098Y-13894067D01*
X11760098Y-13894067D02*
X11750575Y-13884543D01*
X11969622Y-13903591D02*
X12007717Y-13903591D01*
X12007717Y-13903591D02*
X12026765Y-13894067D01*
X12026765Y-13894067D02*
X12036289Y-13884543D01*
X12036289Y-13884543D02*
X12055337Y-13855972D01*
X12055337Y-13855972D02*
X12064860Y-13817877D01*
X12064860Y-13817877D02*
X12064860Y-13741686D01*
X12064860Y-13741686D02*
X12055337Y-13722638D01*
X12055337Y-13722638D02*
X12045813Y-13713115D01*
X12045813Y-13713115D02*
X12026765Y-13703591D01*
X12026765Y-13703591D02*
X11988670Y-13703591D01*
X11988670Y-13703591D02*
X11969622Y-13713115D01*
X11969622Y-13713115D02*
X11960098Y-13722638D01*
X11960098Y-13722638D02*
X11950575Y-13741686D01*
X11950575Y-13741686D02*
X11950575Y-13789305D01*
X11950575Y-13789305D02*
X11960098Y-13808353D01*
X11960098Y-13808353D02*
X11969622Y-13817877D01*
X11969622Y-13817877D02*
X11988670Y-13827400D01*
X11988670Y-13827400D02*
X12026765Y-13827400D01*
X12026765Y-13827400D02*
X12045813Y-13817877D01*
X12045813Y-13817877D02*
X12055337Y-13808353D01*
X12055337Y-13808353D02*
X12064860Y-13789305D01*
X12236289Y-13770257D02*
X12236289Y-13903591D01*
X12188670Y-13694067D02*
X12141051Y-13836924D01*
X12141051Y-13836924D02*
X12264860Y-13836924D01*
X12331527Y-13703591D02*
X12331527Y-13741686D01*
X12407718Y-13703591D02*
X12407718Y-13741686D01*
X12702956Y-13979781D02*
X12693432Y-13970257D01*
X12693432Y-13970257D02*
X12674384Y-13941686D01*
X12674384Y-13941686D02*
X12664860Y-13922638D01*
X12664860Y-13922638D02*
X12655337Y-13894067D01*
X12655337Y-13894067D02*
X12645813Y-13846448D01*
X12645813Y-13846448D02*
X12645813Y-13808353D01*
X12645813Y-13808353D02*
X12655337Y-13760734D01*
X12655337Y-13760734D02*
X12664860Y-13732162D01*
X12664860Y-13732162D02*
X12674384Y-13713115D01*
X12674384Y-13713115D02*
X12693432Y-13684543D01*
X12693432Y-13684543D02*
X12702956Y-13675019D01*
X12769622Y-13722638D02*
X12779146Y-13713115D01*
X12779146Y-13713115D02*
X12798194Y-13703591D01*
X12798194Y-13703591D02*
X12845813Y-13703591D01*
X12845813Y-13703591D02*
X12864860Y-13713115D01*
X12864860Y-13713115D02*
X12874384Y-13722638D01*
X12874384Y-13722638D02*
X12883908Y-13741686D01*
X12883908Y-13741686D02*
X12883908Y-13760734D01*
X12883908Y-13760734D02*
X12874384Y-13789305D01*
X12874384Y-13789305D02*
X12760099Y-13903591D01*
X12760099Y-13903591D02*
X12883908Y-13903591D01*
X13122003Y-13903591D02*
X13122003Y-13703591D01*
X13207718Y-13903591D02*
X13207718Y-13798829D01*
X13207718Y-13798829D02*
X13198194Y-13779781D01*
X13198194Y-13779781D02*
X13179146Y-13770257D01*
X13179146Y-13770257D02*
X13150575Y-13770257D01*
X13150575Y-13770257D02*
X13131527Y-13779781D01*
X13131527Y-13779781D02*
X13122003Y-13789305D01*
X13331527Y-13903591D02*
X13312480Y-13894067D01*
X13312480Y-13894067D02*
X13302956Y-13884543D01*
X13302956Y-13884543D02*
X13293432Y-13865496D01*
X13293432Y-13865496D02*
X13293432Y-13808353D01*
X13293432Y-13808353D02*
X13302956Y-13789305D01*
X13302956Y-13789305D02*
X13312480Y-13779781D01*
X13312480Y-13779781D02*
X13331527Y-13770257D01*
X13331527Y-13770257D02*
X13360099Y-13770257D01*
X13360099Y-13770257D02*
X13379146Y-13779781D01*
X13379146Y-13779781D02*
X13388670Y-13789305D01*
X13388670Y-13789305D02*
X13398194Y-13808353D01*
X13398194Y-13808353D02*
X13398194Y-13865496D01*
X13398194Y-13865496D02*
X13388670Y-13884543D01*
X13388670Y-13884543D02*
X13379146Y-13894067D01*
X13379146Y-13894067D02*
X13360099Y-13903591D01*
X13360099Y-13903591D02*
X13331527Y-13903591D01*
X13512480Y-13903591D02*
X13493432Y-13894067D01*
X13493432Y-13894067D02*
X13483908Y-13875019D01*
X13483908Y-13875019D02*
X13483908Y-13703591D01*
X13664861Y-13894067D02*
X13645813Y-13903591D01*
X13645813Y-13903591D02*
X13607718Y-13903591D01*
X13607718Y-13903591D02*
X13588670Y-13894067D01*
X13588670Y-13894067D02*
X13579146Y-13875019D01*
X13579146Y-13875019D02*
X13579146Y-13798829D01*
X13579146Y-13798829D02*
X13588670Y-13779781D01*
X13588670Y-13779781D02*
X13607718Y-13770257D01*
X13607718Y-13770257D02*
X13645813Y-13770257D01*
X13645813Y-13770257D02*
X13664861Y-13779781D01*
X13664861Y-13779781D02*
X13674384Y-13798829D01*
X13674384Y-13798829D02*
X13674384Y-13817877D01*
X13674384Y-13817877D02*
X13579146Y-13836924D01*
X13750575Y-13894067D02*
X13769622Y-13903591D01*
X13769622Y-13903591D02*
X13807718Y-13903591D01*
X13807718Y-13903591D02*
X13826765Y-13894067D01*
X13826765Y-13894067D02*
X13836289Y-13875019D01*
X13836289Y-13875019D02*
X13836289Y-13865496D01*
X13836289Y-13865496D02*
X13826765Y-13846448D01*
X13826765Y-13846448D02*
X13807718Y-13836924D01*
X13807718Y-13836924D02*
X13779146Y-13836924D01*
X13779146Y-13836924D02*
X13760099Y-13827400D01*
X13760099Y-13827400D02*
X13750575Y-13808353D01*
X13750575Y-13808353D02*
X13750575Y-13798829D01*
X13750575Y-13798829D02*
X13760099Y-13779781D01*
X13760099Y-13779781D02*
X13779146Y-13770257D01*
X13779146Y-13770257D02*
X13807718Y-13770257D01*
X13807718Y-13770257D02*
X13826765Y-13779781D01*
X13902956Y-13979781D02*
X13912480Y-13970257D01*
X13912480Y-13970257D02*
X13931527Y-13941686D01*
X13931527Y-13941686D02*
X13941051Y-13922638D01*
X13941051Y-13922638D02*
X13950575Y-13894067D01*
X13950575Y-13894067D02*
X13960099Y-13846448D01*
X13960099Y-13846448D02*
X13960099Y-13808353D01*
X13960099Y-13808353D02*
X13950575Y-13760734D01*
X13950575Y-13760734D02*
X13941051Y-13732162D01*
X13941051Y-13732162D02*
X13931527Y-13713115D01*
X13931527Y-13713115D02*
X13912480Y-13684543D01*
X13912480Y-13684543D02*
X13902956Y-13675019D01*
X8927893Y-13976107D02*
X9127893Y-14176107D01*
X9127893Y-13976107D02*
X8927893Y-14176107D01*
X9127893Y-14076107D02*
G75*
G03*
X9127893Y-14076107I-100000J0D01*
G01*
X9379146Y-13986638D02*
X9388670Y-13977115D01*
X9388670Y-13977115D02*
X9407717Y-13967591D01*
X9407717Y-13967591D02*
X9455336Y-13967591D01*
X9455336Y-13967591D02*
X9474384Y-13977115D01*
X9474384Y-13977115D02*
X9483908Y-13986638D01*
X9483908Y-13986638D02*
X9493432Y-14005686D01*
X9493432Y-14005686D02*
X9493432Y-14024734D01*
X9493432Y-14024734D02*
X9483908Y-14053305D01*
X9483908Y-14053305D02*
X9369622Y-14167591D01*
X9369622Y-14167591D02*
X9493432Y-14167591D01*
X9579146Y-14148543D02*
X9588670Y-14158067D01*
X9588670Y-14158067D02*
X9579146Y-14167591D01*
X9579146Y-14167591D02*
X9569622Y-14158067D01*
X9569622Y-14158067D02*
X9579146Y-14148543D01*
X9579146Y-14148543D02*
X9579146Y-14167591D01*
X9664860Y-13986638D02*
X9674384Y-13977115D01*
X9674384Y-13977115D02*
X9693432Y-13967591D01*
X9693432Y-13967591D02*
X9741051Y-13967591D01*
X9741051Y-13967591D02*
X9760098Y-13977115D01*
X9760098Y-13977115D02*
X9769622Y-13986638D01*
X9769622Y-13986638D02*
X9779146Y-14005686D01*
X9779146Y-14005686D02*
X9779146Y-14024734D01*
X9779146Y-14024734D02*
X9769622Y-14053305D01*
X9769622Y-14053305D02*
X9655336Y-14167591D01*
X9655336Y-14167591D02*
X9779146Y-14167591D01*
X9902955Y-13967591D02*
X9922003Y-13967591D01*
X9922003Y-13967591D02*
X9941051Y-13977115D01*
X9941051Y-13977115D02*
X9950575Y-13986638D01*
X9950575Y-13986638D02*
X9960098Y-14005686D01*
X9960098Y-14005686D02*
X9969622Y-14043781D01*
X9969622Y-14043781D02*
X9969622Y-14091400D01*
X9969622Y-14091400D02*
X9960098Y-14129496D01*
X9960098Y-14129496D02*
X9950575Y-14148543D01*
X9950575Y-14148543D02*
X9941051Y-14158067D01*
X9941051Y-14158067D02*
X9922003Y-14167591D01*
X9922003Y-14167591D02*
X9902955Y-14167591D01*
X9902955Y-14167591D02*
X9883908Y-14158067D01*
X9883908Y-14158067D02*
X9874384Y-14148543D01*
X9874384Y-14148543D02*
X9864860Y-14129496D01*
X9864860Y-14129496D02*
X9855336Y-14091400D01*
X9855336Y-14091400D02*
X9855336Y-14043781D01*
X9855336Y-14043781D02*
X9864860Y-14005686D01*
X9864860Y-14005686D02*
X9874384Y-13986638D01*
X9874384Y-13986638D02*
X9883908Y-13977115D01*
X9883908Y-13977115D02*
X9902955Y-13967591D01*
X10093432Y-13967591D02*
X10112479Y-13967591D01*
X10112479Y-13967591D02*
X10131527Y-13977115D01*
X10131527Y-13977115D02*
X10141051Y-13986638D01*
X10141051Y-13986638D02*
X10150575Y-14005686D01*
X10150575Y-14005686D02*
X10160098Y-14043781D01*
X10160098Y-14043781D02*
X10160098Y-14091400D01*
X10160098Y-14091400D02*
X10150575Y-14129496D01*
X10150575Y-14129496D02*
X10141051Y-14148543D01*
X10141051Y-14148543D02*
X10131527Y-14158067D01*
X10131527Y-14158067D02*
X10112479Y-14167591D01*
X10112479Y-14167591D02*
X10093432Y-14167591D01*
X10093432Y-14167591D02*
X10074384Y-14158067D01*
X10074384Y-14158067D02*
X10064860Y-14148543D01*
X10064860Y-14148543D02*
X10055336Y-14129496D01*
X10055336Y-14129496D02*
X10045813Y-14091400D01*
X10045813Y-14091400D02*
X10045813Y-14043781D01*
X10045813Y-14043781D02*
X10055336Y-14005686D01*
X10055336Y-14005686D02*
X10064860Y-13986638D01*
X10064860Y-13986638D02*
X10074384Y-13977115D01*
X10074384Y-13977115D02*
X10093432Y-13967591D01*
X10245813Y-14167591D02*
X10245813Y-14034257D01*
X10245813Y-14053305D02*
X10255336Y-14043781D01*
X10255336Y-14043781D02*
X10274384Y-14034257D01*
X10274384Y-14034257D02*
X10302956Y-14034257D01*
X10302956Y-14034257D02*
X10322003Y-14043781D01*
X10322003Y-14043781D02*
X10331527Y-14062829D01*
X10331527Y-14062829D02*
X10331527Y-14167591D01*
X10331527Y-14062829D02*
X10341051Y-14043781D01*
X10341051Y-14043781D02*
X10360098Y-14034257D01*
X10360098Y-14034257D02*
X10388670Y-14034257D01*
X10388670Y-14034257D02*
X10407717Y-14043781D01*
X10407717Y-14043781D02*
X10417241Y-14062829D01*
X10417241Y-14062829D02*
X10417241Y-14167591D01*
X10512479Y-14167591D02*
X10512479Y-14034257D01*
X10512479Y-14053305D02*
X10522003Y-14043781D01*
X10522003Y-14043781D02*
X10541051Y-14034257D01*
X10541051Y-14034257D02*
X10569622Y-14034257D01*
X10569622Y-14034257D02*
X10588670Y-14043781D01*
X10588670Y-14043781D02*
X10598194Y-14062829D01*
X10598194Y-14062829D02*
X10598194Y-14167591D01*
X10598194Y-14062829D02*
X10607717Y-14043781D01*
X10607717Y-14043781D02*
X10626765Y-14034257D01*
X10626765Y-14034257D02*
X10655336Y-14034257D01*
X10655336Y-14034257D02*
X10674384Y-14043781D01*
X10674384Y-14043781D02*
X10683908Y-14062829D01*
X10683908Y-14062829D02*
X10683908Y-14167591D01*
X11074384Y-13958067D02*
X10902956Y-14215210D01*
X11331527Y-13967591D02*
X11350575Y-13967591D01*
X11350575Y-13967591D02*
X11369622Y-13977115D01*
X11369622Y-13977115D02*
X11379146Y-13986638D01*
X11379146Y-13986638D02*
X11388670Y-14005686D01*
X11388670Y-14005686D02*
X11398194Y-14043781D01*
X11398194Y-14043781D02*
X11398194Y-14091400D01*
X11398194Y-14091400D02*
X11388670Y-14129496D01*
X11388670Y-14129496D02*
X11379146Y-14148543D01*
X11379146Y-14148543D02*
X11369622Y-14158067D01*
X11369622Y-14158067D02*
X11350575Y-14167591D01*
X11350575Y-14167591D02*
X11331527Y-14167591D01*
X11331527Y-14167591D02*
X11312479Y-14158067D01*
X11312479Y-14158067D02*
X11302956Y-14148543D01*
X11302956Y-14148543D02*
X11293432Y-14129496D01*
X11293432Y-14129496D02*
X11283908Y-14091400D01*
X11283908Y-14091400D02*
X11283908Y-14043781D01*
X11283908Y-14043781D02*
X11293432Y-14005686D01*
X11293432Y-14005686D02*
X11302956Y-13986638D01*
X11302956Y-13986638D02*
X11312479Y-13977115D01*
X11312479Y-13977115D02*
X11331527Y-13967591D01*
X11483908Y-14148543D02*
X11493432Y-14158067D01*
X11493432Y-14158067D02*
X11483908Y-14167591D01*
X11483908Y-14167591D02*
X11474384Y-14158067D01*
X11474384Y-14158067D02*
X11483908Y-14148543D01*
X11483908Y-14148543D02*
X11483908Y-14167591D01*
X11617241Y-13967591D02*
X11636289Y-13967591D01*
X11636289Y-13967591D02*
X11655337Y-13977115D01*
X11655337Y-13977115D02*
X11664860Y-13986638D01*
X11664860Y-13986638D02*
X11674384Y-14005686D01*
X11674384Y-14005686D02*
X11683908Y-14043781D01*
X11683908Y-14043781D02*
X11683908Y-14091400D01*
X11683908Y-14091400D02*
X11674384Y-14129496D01*
X11674384Y-14129496D02*
X11664860Y-14148543D01*
X11664860Y-14148543D02*
X11655337Y-14158067D01*
X11655337Y-14158067D02*
X11636289Y-14167591D01*
X11636289Y-14167591D02*
X11617241Y-14167591D01*
X11617241Y-14167591D02*
X11598194Y-14158067D01*
X11598194Y-14158067D02*
X11588670Y-14148543D01*
X11588670Y-14148543D02*
X11579146Y-14129496D01*
X11579146Y-14129496D02*
X11569622Y-14091400D01*
X11569622Y-14091400D02*
X11569622Y-14043781D01*
X11569622Y-14043781D02*
X11579146Y-14005686D01*
X11579146Y-14005686D02*
X11588670Y-13986638D01*
X11588670Y-13986638D02*
X11598194Y-13977115D01*
X11598194Y-13977115D02*
X11617241Y-13967591D01*
X11798194Y-14053305D02*
X11779146Y-14043781D01*
X11779146Y-14043781D02*
X11769622Y-14034257D01*
X11769622Y-14034257D02*
X11760098Y-14015210D01*
X11760098Y-14015210D02*
X11760098Y-14005686D01*
X11760098Y-14005686D02*
X11769622Y-13986638D01*
X11769622Y-13986638D02*
X11779146Y-13977115D01*
X11779146Y-13977115D02*
X11798194Y-13967591D01*
X11798194Y-13967591D02*
X11836289Y-13967591D01*
X11836289Y-13967591D02*
X11855337Y-13977115D01*
X11855337Y-13977115D02*
X11864860Y-13986638D01*
X11864860Y-13986638D02*
X11874384Y-14005686D01*
X11874384Y-14005686D02*
X11874384Y-14015210D01*
X11874384Y-14015210D02*
X11864860Y-14034257D01*
X11864860Y-14034257D02*
X11855337Y-14043781D01*
X11855337Y-14043781D02*
X11836289Y-14053305D01*
X11836289Y-14053305D02*
X11798194Y-14053305D01*
X11798194Y-14053305D02*
X11779146Y-14062829D01*
X11779146Y-14062829D02*
X11769622Y-14072353D01*
X11769622Y-14072353D02*
X11760098Y-14091400D01*
X11760098Y-14091400D02*
X11760098Y-14129496D01*
X11760098Y-14129496D02*
X11769622Y-14148543D01*
X11769622Y-14148543D02*
X11779146Y-14158067D01*
X11779146Y-14158067D02*
X11798194Y-14167591D01*
X11798194Y-14167591D02*
X11836289Y-14167591D01*
X11836289Y-14167591D02*
X11855337Y-14158067D01*
X11855337Y-14158067D02*
X11864860Y-14148543D01*
X11864860Y-14148543D02*
X11874384Y-14129496D01*
X11874384Y-14129496D02*
X11874384Y-14091400D01*
X11874384Y-14091400D02*
X11864860Y-14072353D01*
X11864860Y-14072353D02*
X11855337Y-14062829D01*
X11855337Y-14062829D02*
X11836289Y-14053305D01*
X12045813Y-13967591D02*
X12007717Y-13967591D01*
X12007717Y-13967591D02*
X11988670Y-13977115D01*
X11988670Y-13977115D02*
X11979146Y-13986638D01*
X11979146Y-13986638D02*
X11960098Y-14015210D01*
X11960098Y-14015210D02*
X11950575Y-14053305D01*
X11950575Y-14053305D02*
X11950575Y-14129496D01*
X11950575Y-14129496D02*
X11960098Y-14148543D01*
X11960098Y-14148543D02*
X11969622Y-14158067D01*
X11969622Y-14158067D02*
X11988670Y-14167591D01*
X11988670Y-14167591D02*
X12026765Y-14167591D01*
X12026765Y-14167591D02*
X12045813Y-14158067D01*
X12045813Y-14158067D02*
X12055337Y-14148543D01*
X12055337Y-14148543D02*
X12064860Y-14129496D01*
X12064860Y-14129496D02*
X12064860Y-14081877D01*
X12064860Y-14081877D02*
X12055337Y-14062829D01*
X12055337Y-14062829D02*
X12045813Y-14053305D01*
X12045813Y-14053305D02*
X12026765Y-14043781D01*
X12026765Y-14043781D02*
X11988670Y-14043781D01*
X11988670Y-14043781D02*
X11969622Y-14053305D01*
X11969622Y-14053305D02*
X11960098Y-14062829D01*
X11960098Y-14062829D02*
X11950575Y-14081877D01*
X12236289Y-13967591D02*
X12198194Y-13967591D01*
X12198194Y-13967591D02*
X12179146Y-13977115D01*
X12179146Y-13977115D02*
X12169622Y-13986638D01*
X12169622Y-13986638D02*
X12150575Y-14015210D01*
X12150575Y-14015210D02*
X12141051Y-14053305D01*
X12141051Y-14053305D02*
X12141051Y-14129496D01*
X12141051Y-14129496D02*
X12150575Y-14148543D01*
X12150575Y-14148543D02*
X12160098Y-14158067D01*
X12160098Y-14158067D02*
X12179146Y-14167591D01*
X12179146Y-14167591D02*
X12217241Y-14167591D01*
X12217241Y-14167591D02*
X12236289Y-14158067D01*
X12236289Y-14158067D02*
X12245813Y-14148543D01*
X12245813Y-14148543D02*
X12255337Y-14129496D01*
X12255337Y-14129496D02*
X12255337Y-14081877D01*
X12255337Y-14081877D02*
X12245813Y-14062829D01*
X12245813Y-14062829D02*
X12236289Y-14053305D01*
X12236289Y-14053305D02*
X12217241Y-14043781D01*
X12217241Y-14043781D02*
X12179146Y-14043781D01*
X12179146Y-14043781D02*
X12160098Y-14053305D01*
X12160098Y-14053305D02*
X12150575Y-14062829D01*
X12150575Y-14062829D02*
X12141051Y-14081877D01*
X12331527Y-13967591D02*
X12331527Y-14005686D01*
X12407718Y-13967591D02*
X12407718Y-14005686D01*
X12702956Y-14243781D02*
X12693432Y-14234257D01*
X12693432Y-14234257D02*
X12674384Y-14205686D01*
X12674384Y-14205686D02*
X12664860Y-14186638D01*
X12664860Y-14186638D02*
X12655337Y-14158067D01*
X12655337Y-14158067D02*
X12645813Y-14110448D01*
X12645813Y-14110448D02*
X12645813Y-14072353D01*
X12645813Y-14072353D02*
X12655337Y-14024734D01*
X12655337Y-14024734D02*
X12664860Y-13996162D01*
X12664860Y-13996162D02*
X12674384Y-13977115D01*
X12674384Y-13977115D02*
X12693432Y-13948543D01*
X12693432Y-13948543D02*
X12702956Y-13939019D01*
X12760099Y-13967591D02*
X12883908Y-13967591D01*
X12883908Y-13967591D02*
X12817241Y-14043781D01*
X12817241Y-14043781D02*
X12845813Y-14043781D01*
X12845813Y-14043781D02*
X12864860Y-14053305D01*
X12864860Y-14053305D02*
X12874384Y-14062829D01*
X12874384Y-14062829D02*
X12883908Y-14081877D01*
X12883908Y-14081877D02*
X12883908Y-14129496D01*
X12883908Y-14129496D02*
X12874384Y-14148543D01*
X12874384Y-14148543D02*
X12864860Y-14158067D01*
X12864860Y-14158067D02*
X12845813Y-14167591D01*
X12845813Y-14167591D02*
X12788670Y-14167591D01*
X12788670Y-14167591D02*
X12769622Y-14158067D01*
X12769622Y-14158067D02*
X12760099Y-14148543D01*
X13122003Y-14167591D02*
X13122003Y-13967591D01*
X13207718Y-14167591D02*
X13207718Y-14062829D01*
X13207718Y-14062829D02*
X13198194Y-14043781D01*
X13198194Y-14043781D02*
X13179146Y-14034257D01*
X13179146Y-14034257D02*
X13150575Y-14034257D01*
X13150575Y-14034257D02*
X13131527Y-14043781D01*
X13131527Y-14043781D02*
X13122003Y-14053305D01*
X13331527Y-14167591D02*
X13312480Y-14158067D01*
X13312480Y-14158067D02*
X13302956Y-14148543D01*
X13302956Y-14148543D02*
X13293432Y-14129496D01*
X13293432Y-14129496D02*
X13293432Y-14072353D01*
X13293432Y-14072353D02*
X13302956Y-14053305D01*
X13302956Y-14053305D02*
X13312480Y-14043781D01*
X13312480Y-14043781D02*
X13331527Y-14034257D01*
X13331527Y-14034257D02*
X13360099Y-14034257D01*
X13360099Y-14034257D02*
X13379146Y-14043781D01*
X13379146Y-14043781D02*
X13388670Y-14053305D01*
X13388670Y-14053305D02*
X13398194Y-14072353D01*
X13398194Y-14072353D02*
X13398194Y-14129496D01*
X13398194Y-14129496D02*
X13388670Y-14148543D01*
X13388670Y-14148543D02*
X13379146Y-14158067D01*
X13379146Y-14158067D02*
X13360099Y-14167591D01*
X13360099Y-14167591D02*
X13331527Y-14167591D01*
X13512480Y-14167591D02*
X13493432Y-14158067D01*
X13493432Y-14158067D02*
X13483908Y-14139019D01*
X13483908Y-14139019D02*
X13483908Y-13967591D01*
X13664861Y-14158067D02*
X13645813Y-14167591D01*
X13645813Y-14167591D02*
X13607718Y-14167591D01*
X13607718Y-14167591D02*
X13588670Y-14158067D01*
X13588670Y-14158067D02*
X13579146Y-14139019D01*
X13579146Y-14139019D02*
X13579146Y-14062829D01*
X13579146Y-14062829D02*
X13588670Y-14043781D01*
X13588670Y-14043781D02*
X13607718Y-14034257D01*
X13607718Y-14034257D02*
X13645813Y-14034257D01*
X13645813Y-14034257D02*
X13664861Y-14043781D01*
X13664861Y-14043781D02*
X13674384Y-14062829D01*
X13674384Y-14062829D02*
X13674384Y-14081877D01*
X13674384Y-14081877D02*
X13579146Y-14100924D01*
X13750575Y-14158067D02*
X13769622Y-14167591D01*
X13769622Y-14167591D02*
X13807718Y-14167591D01*
X13807718Y-14167591D02*
X13826765Y-14158067D01*
X13826765Y-14158067D02*
X13836289Y-14139019D01*
X13836289Y-14139019D02*
X13836289Y-14129496D01*
X13836289Y-14129496D02*
X13826765Y-14110448D01*
X13826765Y-14110448D02*
X13807718Y-14100924D01*
X13807718Y-14100924D02*
X13779146Y-14100924D01*
X13779146Y-14100924D02*
X13760099Y-14091400D01*
X13760099Y-14091400D02*
X13750575Y-14072353D01*
X13750575Y-14072353D02*
X13750575Y-14062829D01*
X13750575Y-14062829D02*
X13760099Y-14043781D01*
X13760099Y-14043781D02*
X13779146Y-14034257D01*
X13779146Y-14034257D02*
X13807718Y-14034257D01*
X13807718Y-14034257D02*
X13826765Y-14043781D01*
X13902956Y-14243781D02*
X13912480Y-14234257D01*
X13912480Y-14234257D02*
X13931527Y-14205686D01*
X13931527Y-14205686D02*
X13941051Y-14186638D01*
X13941051Y-14186638D02*
X13950575Y-14158067D01*
X13950575Y-14158067D02*
X13960099Y-14110448D01*
X13960099Y-14110448D02*
X13960099Y-14072353D01*
X13960099Y-14072353D02*
X13950575Y-14024734D01*
X13950575Y-14024734D02*
X13941051Y-13996162D01*
X13941051Y-13996162D02*
X13931527Y-13977115D01*
X13931527Y-13977115D02*
X13912480Y-13948543D01*
X13912480Y-13948543D02*
X13902956Y-13939019D01*
M02*
