M48
; DRILL file {KiCad 7.0.8-7.0.8~ubuntu22.04.1} date Tue 24 Oct 2023 11:54:40 PM PDT
; FORMAT={-:-/ absolute / metric / decimal}
; #@! TF.CreationDate,2023-10-24T23:54:40-07:00
; #@! TF.GenerationSoftware,Kicad,Pcbnew,7.0.8-7.0.8~ubuntu22.04.1
; #@! TF.FileFunction,Plated,1,2,PTH
FMAT,2
METRIC
; #@! TA.AperFunction,Plated,PTH,ComponentDrill
T1C0.300
; #@! TA.AperFunction,Plated,PTH,ViaDrill
T2C0.350
; #@! TA.AperFunction,Plated,PTH,ComponentDrill
T3C0.350
; #@! TA.AperFunction,Plated,PTH,ComponentDrill
T4C0.950
; #@! TA.AperFunction,Plated,PTH,ComponentDrill
T5C1.000
; #@! TA.AperFunction,Plated,PTH,ComponentDrill
T6C2.200
%
G90
G05
T1
X107.524Y-99.34
X107.648Y-87.761
X108.443Y-98.421
X108.443Y-100.26
X108.567Y-86.842
X108.567Y-88.681
X109.363Y-97.502
X109.363Y-99.34
X109.363Y-101.179
X109.486Y-85.923
X109.486Y-87.761
X109.486Y-89.6
X110.282Y-98.421
X110.282Y-100.26
X110.282Y-102.098
X110.406Y-85.004
X110.406Y-86.842
X110.406Y-88.681
X111.201Y-99.34
X111.201Y-101.179
X111.201Y-103.017
X111.325Y-84.084
X111.325Y-85.923
X111.325Y-87.761
X112.12Y-100.26
X112.12Y-102.098
X112.12Y-103.937
X112.244Y-83.165
X112.244Y-85.004
X112.244Y-86.842
X113.04Y-101.179
X113.04Y-103.017
X113.04Y-104.856
X113.163Y-82.246
X113.163Y-84.084
X113.163Y-85.923
X113.959Y-102.098
X113.959Y-103.937
X114.083Y-83.165
X114.083Y-85.004
X114.878Y-103.017
X115.002Y-84.084
T2
X94.99Y-95.35
X95.59Y-87.25
X95.99Y-100.35
X97.64Y-98.8
X98.69Y-100.3
X99.44Y-98.8
X99.79Y-85.0
X99.89Y-89.4
X100.49Y-104.6
X100.74Y-82.2
X101.34Y-95.85
X102.49Y-88.8
X102.89Y-107.3
X102.94Y-79.9
X103.99Y-108.3
X104.24Y-78.75
X104.324Y-89.953
X104.49Y-94.1
X105.067Y-90.625
X105.09Y-109.4
X105.44Y-77.65
X105.99Y-91.4
X107.09Y-105.3
X107.24Y-81.9
X107.56Y-103.477
X107.64Y-111.75
X107.648Y-83.66
X107.79Y-75.25
X108.89Y-95.2
X108.919Y-104.839
X109.027Y-82.281
X109.44Y-92.55
X110.24Y-112.65
X110.39Y-74.45
X111.79Y-94.4
X112.09Y-70.75
X112.69Y-116.7
X112.92Y-96.039
X113.44Y-72.85
X113.47Y-96.588
X113.69Y-111.6
X113.74Y-114.95
X113.79Y-109.7
X114.019Y-97.179
X115.214Y-108.197
X115.921Y-107.49
X117.09Y-83.7
X117.29Y-69.6
X117.44Y-92.55
X117.69Y-89.75
X117.74Y-105.4
X117.84Y-88.35
X117.89Y-103.15
X118.09Y-91.0
X118.14Y-94.6
X118.614Y-85.2
X118.69Y-100.7
X118.79Y-78.8
X119.14Y-109.65
X119.39Y-67.3
X119.69Y-89.4
X119.74Y-115.0
X119.84Y-97.85
X121.04Y-69.6
X121.49Y-105.6
X121.69Y-117.15
X122.04Y-109.65
X122.19Y-77.65
X122.79Y-67.7
X122.89Y-74.3
X123.49Y-119.7
X123.59Y-117.8
X125.114Y-87.4
X125.29Y-84.3
X125.39Y-73.9
X125.821Y-100.944
X126.04Y-95.262
X126.14Y-91.062
X126.24Y-98.362
X126.79Y-100.95
X127.59Y-84.9
X127.69Y-80.9
X128.39Y-87.3
X128.739Y-98.051
X129.99Y-98.9
X130.09Y-82.9
X131.09Y-88.05
X132.975Y-95.7
X136.99Y-87.9
X136.99Y-105.5
T3
X124.165Y-91.888
X124.165Y-93.162
X124.165Y-94.438
X125.44Y-91.888
X125.44Y-93.162
X125.44Y-94.438
X126.715Y-91.888
X126.715Y-93.162
X126.715Y-94.438
T4
X99.817Y-107.118
X100.082Y-79.842
X101.584Y-108.886
X101.85Y-78.074
X103.352Y-110.654
X103.617Y-76.306
X105.12Y-112.422
X105.385Y-74.539
T5
X117.29Y-117.15
X119.79Y-117.15
T6
X95.39Y-89.9
X128.04Y-70.75
X128.04Y-116.55
T0
M30
