G04 #@! TF.GenerationSoftware,KiCad,Pcbnew,7.0.8-7.0.8~ubuntu22.04.1*
G04 #@! TF.CreationDate,2023-11-03T11:59:51-07:00*
G04 #@! TF.ProjectId,tentacle-board,74656e74-6163-46c6-952d-626f6172642e,REV1*
G04 #@! TF.SameCoordinates,Original*
G04 #@! TF.FileFunction,Legend,Top*
G04 #@! TF.FilePolarity,Positive*
%FSLAX46Y46*%
G04 Gerber Fmt 4.6, Leading zero omitted, Abs format (unit mm)*
G04 Created by KiCad (PCBNEW 7.0.8-7.0.8~ubuntu22.04.1) date 2023-11-03 11:59:51*
%MOMM*%
%LPD*%
G01*
G04 APERTURE LIST*
%ADD10C,0.150000*%
%ADD11C,0.200000*%
%ADD12C,0.120000*%
%ADD13C,0.022000*%
%ADD14C,0.127000*%
%ADD15C,0.250000*%
G04 APERTURE END LIST*
D10*
G36*
X117047954Y-119944029D02*
G01*
X117068836Y-119964911D01*
X117093571Y-120014380D01*
X117093571Y-120169447D01*
X117068836Y-120218915D01*
X117047953Y-120239799D01*
X116998485Y-120264533D01*
X116881514Y-120264533D01*
X116832046Y-120239799D01*
X116811162Y-120218914D01*
X116786428Y-120169446D01*
X116786428Y-120014381D01*
X116811163Y-119964911D01*
X116832046Y-119944029D01*
X116881514Y-119919295D01*
X116998485Y-119919295D01*
X117047954Y-119944029D01*
G37*
G36*
X119524145Y-119944029D02*
G01*
X119545027Y-119964911D01*
X119573997Y-120022851D01*
X119607857Y-120158290D01*
X119607857Y-120330299D01*
X119573997Y-120465738D01*
X119545027Y-120523677D01*
X119524144Y-120544561D01*
X119474676Y-120569295D01*
X119433896Y-120569295D01*
X119384427Y-120544561D01*
X119363544Y-120523677D01*
X119334574Y-120465737D01*
X119300714Y-120330297D01*
X119300714Y-120158292D01*
X119334574Y-120022851D01*
X119363544Y-119964911D01*
X119384426Y-119944029D01*
X119433896Y-119919295D01*
X119474676Y-119919295D01*
X119524145Y-119944029D01*
G37*
G36*
X120630199Y-120833581D02*
G01*
X116522142Y-120833581D01*
X116522142Y-120187152D01*
X116636428Y-120187152D01*
X116637961Y-120191365D01*
X116636920Y-120195727D01*
X116644346Y-120220694D01*
X116682442Y-120296883D01*
X116683630Y-120298008D01*
X116696490Y-120316374D01*
X116734585Y-120354470D01*
X116736066Y-120355160D01*
X116754078Y-120368520D01*
X116830268Y-120406615D01*
X116834721Y-120407127D01*
X116838157Y-120410010D01*
X116863809Y-120414533D01*
X117016190Y-120414533D01*
X117020402Y-120412999D01*
X117024764Y-120414042D01*
X117049731Y-120406615D01*
X117067145Y-120397908D01*
X117060865Y-120423026D01*
X116996000Y-120520323D01*
X116971763Y-120544561D01*
X116922295Y-120569295D01*
X116787619Y-120569295D01*
X116739410Y-120586842D01*
X116713758Y-120631271D01*
X116722667Y-120681795D01*
X116761967Y-120714772D01*
X116787619Y-120719295D01*
X116940000Y-120719295D01*
X116944213Y-120717761D01*
X116948574Y-120718803D01*
X116973541Y-120711377D01*
X117049731Y-120673282D01*
X117050856Y-120672092D01*
X117069223Y-120659233D01*
X117090697Y-120637759D01*
X118351000Y-120637759D01*
X118356841Y-120659561D01*
X118360762Y-120681795D01*
X118363389Y-120683999D01*
X118364277Y-120687313D01*
X118382768Y-120700261D01*
X118400062Y-120714772D01*
X118404646Y-120715580D01*
X118406303Y-120716740D01*
X118409591Y-120716452D01*
X118425714Y-120719295D01*
X118920952Y-120719295D01*
X118969161Y-120701748D01*
X118994813Y-120657319D01*
X118985904Y-120606795D01*
X118946604Y-120573818D01*
X118920952Y-120569295D01*
X118606780Y-120569295D01*
X118836542Y-120339533D01*
X119150714Y-120339533D01*
X119151899Y-120342790D01*
X119152953Y-120357724D01*
X119191049Y-120510105D01*
X119193038Y-120513050D01*
X119196728Y-120525455D01*
X119234823Y-120601645D01*
X119236011Y-120602770D01*
X119248871Y-120621136D01*
X119286966Y-120659232D01*
X119288447Y-120659922D01*
X119306459Y-120673282D01*
X119382650Y-120711377D01*
X119387103Y-120711889D01*
X119390539Y-120714772D01*
X119416191Y-120719295D01*
X119492381Y-120719295D01*
X119496593Y-120717761D01*
X119500955Y-120718804D01*
X119525922Y-120711377D01*
X119602113Y-120673282D01*
X119603237Y-120672094D01*
X119621606Y-120659232D01*
X119659701Y-120621136D01*
X119660392Y-120619653D01*
X119673749Y-120601645D01*
X119711844Y-120525455D01*
X119712250Y-120521926D01*
X119717523Y-120510104D01*
X119755618Y-120357723D01*
X119755257Y-120354274D01*
X119757857Y-120339533D01*
X119757857Y-120149057D01*
X119756671Y-120145799D01*
X119755618Y-120130867D01*
X119717523Y-119978486D01*
X119715534Y-119975542D01*
X119711844Y-119963135D01*
X119673749Y-119886944D01*
X119672559Y-119885818D01*
X119659700Y-119867452D01*
X119634494Y-119842246D01*
X119836457Y-119842246D01*
X119840278Y-119868012D01*
X120106945Y-120668012D01*
X120108287Y-120669703D01*
X120108346Y-120671862D01*
X120124095Y-120689623D01*
X120138836Y-120708198D01*
X120140949Y-120708630D01*
X120142383Y-120710247D01*
X120165853Y-120713727D01*
X120189097Y-120718484D01*
X120190996Y-120717455D01*
X120193132Y-120717772D01*
X120213349Y-120705351D01*
X120234211Y-120694055D01*
X120235004Y-120692047D01*
X120236845Y-120690917D01*
X120249247Y-120668012D01*
X120515913Y-119868012D01*
X120514512Y-119816728D01*
X120480475Y-119778343D01*
X120429726Y-119770817D01*
X120386014Y-119797672D01*
X120373611Y-119820578D01*
X120178095Y-120407124D01*
X119982580Y-119820578D01*
X119950689Y-119780392D01*
X119900428Y-119770106D01*
X119855314Y-119794535D01*
X119836457Y-119842246D01*
X119634494Y-119842246D01*
X119621605Y-119829357D01*
X119620123Y-119828666D01*
X119602113Y-119815308D01*
X119525922Y-119777213D01*
X119521468Y-119776700D01*
X119518033Y-119773818D01*
X119492381Y-119769295D01*
X119416191Y-119769295D01*
X119411978Y-119770828D01*
X119407617Y-119769786D01*
X119382650Y-119777213D01*
X119306459Y-119815308D01*
X119305333Y-119816497D01*
X119286967Y-119829357D01*
X119248872Y-119867452D01*
X119248181Y-119868933D01*
X119234823Y-119886944D01*
X119196728Y-119963135D01*
X119196322Y-119966661D01*
X119191049Y-119978485D01*
X119152953Y-120130866D01*
X119153313Y-120134314D01*
X119150714Y-120149057D01*
X119150714Y-120339533D01*
X118836542Y-120339533D01*
X118935890Y-120240185D01*
X118937784Y-120236121D01*
X118941606Y-120233774D01*
X118954008Y-120210869D01*
X118992103Y-120096583D01*
X118992058Y-120094948D01*
X118995952Y-120072866D01*
X118995952Y-119996676D01*
X118994418Y-119992463D01*
X118995461Y-119988102D01*
X118988034Y-119963135D01*
X118949939Y-119886944D01*
X118948749Y-119885818D01*
X118935890Y-119867452D01*
X118897795Y-119829357D01*
X118896313Y-119828666D01*
X118878303Y-119815308D01*
X118802112Y-119777213D01*
X118797658Y-119776700D01*
X118794223Y-119773818D01*
X118768571Y-119769295D01*
X118578095Y-119769295D01*
X118573881Y-119770828D01*
X118569521Y-119769787D01*
X118544554Y-119777213D01*
X118468364Y-119815308D01*
X118467238Y-119816496D01*
X118448873Y-119829356D01*
X118410777Y-119867451D01*
X118389095Y-119913948D01*
X118402371Y-119963502D01*
X118444397Y-119992929D01*
X118495504Y-119988459D01*
X118516841Y-119973519D01*
X118546331Y-119944029D01*
X118595800Y-119919295D01*
X118750866Y-119919295D01*
X118800335Y-119944029D01*
X118821217Y-119964911D01*
X118845952Y-120014380D01*
X118845952Y-120060696D01*
X118817304Y-120146638D01*
X118372681Y-120591262D01*
X118363143Y-120611715D01*
X118351853Y-120631271D01*
X118352449Y-120634651D01*
X118351000Y-120637759D01*
X117090697Y-120637759D01*
X117107319Y-120621137D01*
X117108795Y-120617970D01*
X117116690Y-120609707D01*
X117192880Y-120495422D01*
X117192982Y-120495000D01*
X117203237Y-120472009D01*
X117239612Y-120326509D01*
X117437568Y-120326509D01*
X117446477Y-120377033D01*
X117485777Y-120410010D01*
X117511429Y-120414533D01*
X118120953Y-120414533D01*
X118169162Y-120396986D01*
X118194814Y-120352557D01*
X118185905Y-120302033D01*
X118146605Y-120269056D01*
X118120953Y-120264533D01*
X117511429Y-120264533D01*
X117463220Y-120282080D01*
X117437568Y-120326509D01*
X117239612Y-120326509D01*
X117241332Y-120319628D01*
X117240971Y-120316179D01*
X117243571Y-120301438D01*
X117243571Y-119996676D01*
X117242037Y-119992463D01*
X117243080Y-119988102D01*
X117235653Y-119963135D01*
X117197558Y-119886944D01*
X117196368Y-119885818D01*
X117183509Y-119867452D01*
X117145414Y-119829357D01*
X117143932Y-119828666D01*
X117125922Y-119815308D01*
X117049731Y-119777213D01*
X117045277Y-119776700D01*
X117041842Y-119773818D01*
X117016190Y-119769295D01*
X116863809Y-119769295D01*
X116859595Y-119770828D01*
X116855235Y-119769787D01*
X116830268Y-119777213D01*
X116754078Y-119815308D01*
X116752952Y-119816497D01*
X116734586Y-119829357D01*
X116696491Y-119867452D01*
X116695798Y-119868936D01*
X116682442Y-119886944D01*
X116644346Y-119963135D01*
X116643833Y-119967588D01*
X116640951Y-119971024D01*
X116636428Y-119996676D01*
X116636428Y-120187152D01*
X116522142Y-120187152D01*
X116522142Y-119655009D01*
X120630199Y-119655009D01*
X120630199Y-120833581D01*
G37*
X125526104Y-115564285D02*
X125564200Y-115602381D01*
X125564200Y-115602381D02*
X125602295Y-115716666D01*
X125602295Y-115716666D02*
X125602295Y-115792857D01*
X125602295Y-115792857D02*
X125564200Y-115907143D01*
X125564200Y-115907143D02*
X125488009Y-115983333D01*
X125488009Y-115983333D02*
X125411819Y-116021428D01*
X125411819Y-116021428D02*
X125259438Y-116059524D01*
X125259438Y-116059524D02*
X125145152Y-116059524D01*
X125145152Y-116059524D02*
X124992771Y-116021428D01*
X124992771Y-116021428D02*
X124916580Y-115983333D01*
X124916580Y-115983333D02*
X124840390Y-115907143D01*
X124840390Y-115907143D02*
X124802295Y-115792857D01*
X124802295Y-115792857D02*
X124802295Y-115716666D01*
X124802295Y-115716666D02*
X124840390Y-115602381D01*
X124840390Y-115602381D02*
X124878485Y-115564285D01*
X124802295Y-115297619D02*
X124802295Y-114802381D01*
X124802295Y-114802381D02*
X125107057Y-115069047D01*
X125107057Y-115069047D02*
X125107057Y-114954762D01*
X125107057Y-114954762D02*
X125145152Y-114878571D01*
X125145152Y-114878571D02*
X125183247Y-114840476D01*
X125183247Y-114840476D02*
X125259438Y-114802381D01*
X125259438Y-114802381D02*
X125449914Y-114802381D01*
X125449914Y-114802381D02*
X125526104Y-114840476D01*
X125526104Y-114840476D02*
X125564200Y-114878571D01*
X125564200Y-114878571D02*
X125602295Y-114954762D01*
X125602295Y-114954762D02*
X125602295Y-115183333D01*
X125602295Y-115183333D02*
X125564200Y-115259524D01*
X125564200Y-115259524D02*
X125526104Y-115297619D01*
X124802295Y-114535714D02*
X124802295Y-114002380D01*
X124802295Y-114002380D02*
X125602295Y-114345238D01*
X130275714Y-91586104D02*
X130237618Y-91624200D01*
X130237618Y-91624200D02*
X130123333Y-91662295D01*
X130123333Y-91662295D02*
X130047142Y-91662295D01*
X130047142Y-91662295D02*
X129932856Y-91624200D01*
X129932856Y-91624200D02*
X129856666Y-91548009D01*
X129856666Y-91548009D02*
X129818571Y-91471819D01*
X129818571Y-91471819D02*
X129780475Y-91319438D01*
X129780475Y-91319438D02*
X129780475Y-91205152D01*
X129780475Y-91205152D02*
X129818571Y-91052771D01*
X129818571Y-91052771D02*
X129856666Y-90976580D01*
X129856666Y-90976580D02*
X129932856Y-90900390D01*
X129932856Y-90900390D02*
X130047142Y-90862295D01*
X130047142Y-90862295D02*
X130123333Y-90862295D01*
X130123333Y-90862295D02*
X130237618Y-90900390D01*
X130237618Y-90900390D02*
X130275714Y-90938485D01*
X131037618Y-91662295D02*
X130580475Y-91662295D01*
X130809047Y-91662295D02*
X130809047Y-90862295D01*
X130809047Y-90862295D02*
X130732856Y-90976580D01*
X130732856Y-90976580D02*
X130656666Y-91052771D01*
X130656666Y-91052771D02*
X130580475Y-91090866D01*
X131342380Y-90938485D02*
X131380476Y-90900390D01*
X131380476Y-90900390D02*
X131456666Y-90862295D01*
X131456666Y-90862295D02*
X131647142Y-90862295D01*
X131647142Y-90862295D02*
X131723333Y-90900390D01*
X131723333Y-90900390D02*
X131761428Y-90938485D01*
X131761428Y-90938485D02*
X131799523Y-91014676D01*
X131799523Y-91014676D02*
X131799523Y-91090866D01*
X131799523Y-91090866D02*
X131761428Y-91205152D01*
X131761428Y-91205152D02*
X131304285Y-91662295D01*
X131304285Y-91662295D02*
X131799523Y-91662295D01*
X127776104Y-86264285D02*
X127814200Y-86302381D01*
X127814200Y-86302381D02*
X127852295Y-86416666D01*
X127852295Y-86416666D02*
X127852295Y-86492857D01*
X127852295Y-86492857D02*
X127814200Y-86607143D01*
X127814200Y-86607143D02*
X127738009Y-86683333D01*
X127738009Y-86683333D02*
X127661819Y-86721428D01*
X127661819Y-86721428D02*
X127509438Y-86759524D01*
X127509438Y-86759524D02*
X127395152Y-86759524D01*
X127395152Y-86759524D02*
X127242771Y-86721428D01*
X127242771Y-86721428D02*
X127166580Y-86683333D01*
X127166580Y-86683333D02*
X127090390Y-86607143D01*
X127090390Y-86607143D02*
X127052295Y-86492857D01*
X127052295Y-86492857D02*
X127052295Y-86416666D01*
X127052295Y-86416666D02*
X127090390Y-86302381D01*
X127090390Y-86302381D02*
X127128485Y-86264285D01*
X127852295Y-85502381D02*
X127852295Y-85959524D01*
X127852295Y-85730952D02*
X127052295Y-85730952D01*
X127052295Y-85730952D02*
X127166580Y-85807143D01*
X127166580Y-85807143D02*
X127242771Y-85883333D01*
X127242771Y-85883333D02*
X127280866Y-85959524D01*
X127852295Y-84740476D02*
X127852295Y-85197619D01*
X127852295Y-84969047D02*
X127052295Y-84969047D01*
X127052295Y-84969047D02*
X127166580Y-85045238D01*
X127166580Y-85045238D02*
X127242771Y-85121428D01*
X127242771Y-85121428D02*
X127280866Y-85197619D01*
X119275714Y-95636104D02*
X119237618Y-95674200D01*
X119237618Y-95674200D02*
X119123333Y-95712295D01*
X119123333Y-95712295D02*
X119047142Y-95712295D01*
X119047142Y-95712295D02*
X118932856Y-95674200D01*
X118932856Y-95674200D02*
X118856666Y-95598009D01*
X118856666Y-95598009D02*
X118818571Y-95521819D01*
X118818571Y-95521819D02*
X118780475Y-95369438D01*
X118780475Y-95369438D02*
X118780475Y-95255152D01*
X118780475Y-95255152D02*
X118818571Y-95102771D01*
X118818571Y-95102771D02*
X118856666Y-95026580D01*
X118856666Y-95026580D02*
X118932856Y-94950390D01*
X118932856Y-94950390D02*
X119047142Y-94912295D01*
X119047142Y-94912295D02*
X119123333Y-94912295D01*
X119123333Y-94912295D02*
X119237618Y-94950390D01*
X119237618Y-94950390D02*
X119275714Y-94988485D01*
X119580475Y-94988485D02*
X119618571Y-94950390D01*
X119618571Y-94950390D02*
X119694761Y-94912295D01*
X119694761Y-94912295D02*
X119885237Y-94912295D01*
X119885237Y-94912295D02*
X119961428Y-94950390D01*
X119961428Y-94950390D02*
X119999523Y-94988485D01*
X119999523Y-94988485D02*
X120037618Y-95064676D01*
X120037618Y-95064676D02*
X120037618Y-95140866D01*
X120037618Y-95140866D02*
X119999523Y-95255152D01*
X119999523Y-95255152D02*
X119542380Y-95712295D01*
X119542380Y-95712295D02*
X120037618Y-95712295D01*
X120761428Y-94912295D02*
X120380476Y-94912295D01*
X120380476Y-94912295D02*
X120342380Y-95293247D01*
X120342380Y-95293247D02*
X120380476Y-95255152D01*
X120380476Y-95255152D02*
X120456666Y-95217057D01*
X120456666Y-95217057D02*
X120647142Y-95217057D01*
X120647142Y-95217057D02*
X120723333Y-95255152D01*
X120723333Y-95255152D02*
X120761428Y-95293247D01*
X120761428Y-95293247D02*
X120799523Y-95369438D01*
X120799523Y-95369438D02*
X120799523Y-95559914D01*
X120799523Y-95559914D02*
X120761428Y-95636104D01*
X120761428Y-95636104D02*
X120723333Y-95674200D01*
X120723333Y-95674200D02*
X120647142Y-95712295D01*
X120647142Y-95712295D02*
X120456666Y-95712295D01*
X120456666Y-95712295D02*
X120380476Y-95674200D01*
X120380476Y-95674200D02*
X120342380Y-95636104D01*
X121576104Y-80314285D02*
X121614200Y-80352381D01*
X121614200Y-80352381D02*
X121652295Y-80466666D01*
X121652295Y-80466666D02*
X121652295Y-80542857D01*
X121652295Y-80542857D02*
X121614200Y-80657143D01*
X121614200Y-80657143D02*
X121538009Y-80733333D01*
X121538009Y-80733333D02*
X121461819Y-80771428D01*
X121461819Y-80771428D02*
X121309438Y-80809524D01*
X121309438Y-80809524D02*
X121195152Y-80809524D01*
X121195152Y-80809524D02*
X121042771Y-80771428D01*
X121042771Y-80771428D02*
X120966580Y-80733333D01*
X120966580Y-80733333D02*
X120890390Y-80657143D01*
X120890390Y-80657143D02*
X120852295Y-80542857D01*
X120852295Y-80542857D02*
X120852295Y-80466666D01*
X120852295Y-80466666D02*
X120890390Y-80352381D01*
X120890390Y-80352381D02*
X120928485Y-80314285D01*
X121652295Y-79552381D02*
X121652295Y-80009524D01*
X121652295Y-79780952D02*
X120852295Y-79780952D01*
X120852295Y-79780952D02*
X120966580Y-79857143D01*
X120966580Y-79857143D02*
X121042771Y-79933333D01*
X121042771Y-79933333D02*
X121080866Y-80009524D01*
X120852295Y-78828571D02*
X120852295Y-79209523D01*
X120852295Y-79209523D02*
X121233247Y-79247619D01*
X121233247Y-79247619D02*
X121195152Y-79209523D01*
X121195152Y-79209523D02*
X121157057Y-79133333D01*
X121157057Y-79133333D02*
X121157057Y-78942857D01*
X121157057Y-78942857D02*
X121195152Y-78866666D01*
X121195152Y-78866666D02*
X121233247Y-78828571D01*
X121233247Y-78828571D02*
X121309438Y-78790476D01*
X121309438Y-78790476D02*
X121499914Y-78790476D01*
X121499914Y-78790476D02*
X121576104Y-78828571D01*
X121576104Y-78828571D02*
X121614200Y-78866666D01*
X121614200Y-78866666D02*
X121652295Y-78942857D01*
X121652295Y-78942857D02*
X121652295Y-79133333D01*
X121652295Y-79133333D02*
X121614200Y-79209523D01*
X121614200Y-79209523D02*
X121576104Y-79247619D01*
X123080476Y-106412295D02*
X123080476Y-107059914D01*
X123080476Y-107059914D02*
X123118571Y-107136104D01*
X123118571Y-107136104D02*
X123156666Y-107174200D01*
X123156666Y-107174200D02*
X123232857Y-107212295D01*
X123232857Y-107212295D02*
X123385238Y-107212295D01*
X123385238Y-107212295D02*
X123461428Y-107174200D01*
X123461428Y-107174200D02*
X123499523Y-107136104D01*
X123499523Y-107136104D02*
X123537619Y-107059914D01*
X123537619Y-107059914D02*
X123537619Y-106412295D01*
X123842380Y-106412295D02*
X124337618Y-106412295D01*
X124337618Y-106412295D02*
X124070952Y-106717057D01*
X124070952Y-106717057D02*
X124185237Y-106717057D01*
X124185237Y-106717057D02*
X124261428Y-106755152D01*
X124261428Y-106755152D02*
X124299523Y-106793247D01*
X124299523Y-106793247D02*
X124337618Y-106869438D01*
X124337618Y-106869438D02*
X124337618Y-107059914D01*
X124337618Y-107059914D02*
X124299523Y-107136104D01*
X124299523Y-107136104D02*
X124261428Y-107174200D01*
X124261428Y-107174200D02*
X124185237Y-107212295D01*
X124185237Y-107212295D02*
X123956666Y-107212295D01*
X123956666Y-107212295D02*
X123880475Y-107174200D01*
X123880475Y-107174200D02*
X123842380Y-107136104D01*
X126076104Y-105214285D02*
X126114200Y-105252381D01*
X126114200Y-105252381D02*
X126152295Y-105366666D01*
X126152295Y-105366666D02*
X126152295Y-105442857D01*
X126152295Y-105442857D02*
X126114200Y-105557143D01*
X126114200Y-105557143D02*
X126038009Y-105633333D01*
X126038009Y-105633333D02*
X125961819Y-105671428D01*
X125961819Y-105671428D02*
X125809438Y-105709524D01*
X125809438Y-105709524D02*
X125695152Y-105709524D01*
X125695152Y-105709524D02*
X125542771Y-105671428D01*
X125542771Y-105671428D02*
X125466580Y-105633333D01*
X125466580Y-105633333D02*
X125390390Y-105557143D01*
X125390390Y-105557143D02*
X125352295Y-105442857D01*
X125352295Y-105442857D02*
X125352295Y-105366666D01*
X125352295Y-105366666D02*
X125390390Y-105252381D01*
X125390390Y-105252381D02*
X125428485Y-105214285D01*
X125428485Y-104909524D02*
X125390390Y-104871428D01*
X125390390Y-104871428D02*
X125352295Y-104795238D01*
X125352295Y-104795238D02*
X125352295Y-104604762D01*
X125352295Y-104604762D02*
X125390390Y-104528571D01*
X125390390Y-104528571D02*
X125428485Y-104490476D01*
X125428485Y-104490476D02*
X125504676Y-104452381D01*
X125504676Y-104452381D02*
X125580866Y-104452381D01*
X125580866Y-104452381D02*
X125695152Y-104490476D01*
X125695152Y-104490476D02*
X126152295Y-104947619D01*
X126152295Y-104947619D02*
X126152295Y-104452381D01*
X125352295Y-103766666D02*
X125352295Y-103919047D01*
X125352295Y-103919047D02*
X125390390Y-103995238D01*
X125390390Y-103995238D02*
X125428485Y-104033333D01*
X125428485Y-104033333D02*
X125542771Y-104109523D01*
X125542771Y-104109523D02*
X125695152Y-104147619D01*
X125695152Y-104147619D02*
X125999914Y-104147619D01*
X125999914Y-104147619D02*
X126076104Y-104109523D01*
X126076104Y-104109523D02*
X126114200Y-104071428D01*
X126114200Y-104071428D02*
X126152295Y-103995238D01*
X126152295Y-103995238D02*
X126152295Y-103842857D01*
X126152295Y-103842857D02*
X126114200Y-103766666D01*
X126114200Y-103766666D02*
X126076104Y-103728571D01*
X126076104Y-103728571D02*
X125999914Y-103690476D01*
X125999914Y-103690476D02*
X125809438Y-103690476D01*
X125809438Y-103690476D02*
X125733247Y-103728571D01*
X125733247Y-103728571D02*
X125695152Y-103766666D01*
X125695152Y-103766666D02*
X125657057Y-103842857D01*
X125657057Y-103842857D02*
X125657057Y-103995238D01*
X125657057Y-103995238D02*
X125695152Y-104071428D01*
X125695152Y-104071428D02*
X125733247Y-104109523D01*
X125733247Y-104109523D02*
X125809438Y-104147619D01*
X126776104Y-86233332D02*
X126814200Y-86271428D01*
X126814200Y-86271428D02*
X126852295Y-86385713D01*
X126852295Y-86385713D02*
X126852295Y-86461904D01*
X126852295Y-86461904D02*
X126814200Y-86576190D01*
X126814200Y-86576190D02*
X126738009Y-86652380D01*
X126738009Y-86652380D02*
X126661819Y-86690475D01*
X126661819Y-86690475D02*
X126509438Y-86728571D01*
X126509438Y-86728571D02*
X126395152Y-86728571D01*
X126395152Y-86728571D02*
X126242771Y-86690475D01*
X126242771Y-86690475D02*
X126166580Y-86652380D01*
X126166580Y-86652380D02*
X126090390Y-86576190D01*
X126090390Y-86576190D02*
X126052295Y-86461904D01*
X126052295Y-86461904D02*
X126052295Y-86385713D01*
X126052295Y-86385713D02*
X126090390Y-86271428D01*
X126090390Y-86271428D02*
X126128485Y-86233332D01*
X126395152Y-85776190D02*
X126357057Y-85852380D01*
X126357057Y-85852380D02*
X126318961Y-85890475D01*
X126318961Y-85890475D02*
X126242771Y-85928571D01*
X126242771Y-85928571D02*
X126204676Y-85928571D01*
X126204676Y-85928571D02*
X126128485Y-85890475D01*
X126128485Y-85890475D02*
X126090390Y-85852380D01*
X126090390Y-85852380D02*
X126052295Y-85776190D01*
X126052295Y-85776190D02*
X126052295Y-85623809D01*
X126052295Y-85623809D02*
X126090390Y-85547618D01*
X126090390Y-85547618D02*
X126128485Y-85509523D01*
X126128485Y-85509523D02*
X126204676Y-85471428D01*
X126204676Y-85471428D02*
X126242771Y-85471428D01*
X126242771Y-85471428D02*
X126318961Y-85509523D01*
X126318961Y-85509523D02*
X126357057Y-85547618D01*
X126357057Y-85547618D02*
X126395152Y-85623809D01*
X126395152Y-85623809D02*
X126395152Y-85776190D01*
X126395152Y-85776190D02*
X126433247Y-85852380D01*
X126433247Y-85852380D02*
X126471342Y-85890475D01*
X126471342Y-85890475D02*
X126547533Y-85928571D01*
X126547533Y-85928571D02*
X126699914Y-85928571D01*
X126699914Y-85928571D02*
X126776104Y-85890475D01*
X126776104Y-85890475D02*
X126814200Y-85852380D01*
X126814200Y-85852380D02*
X126852295Y-85776190D01*
X126852295Y-85776190D02*
X126852295Y-85623809D01*
X126852295Y-85623809D02*
X126814200Y-85547618D01*
X126814200Y-85547618D02*
X126776104Y-85509523D01*
X126776104Y-85509523D02*
X126699914Y-85471428D01*
X126699914Y-85471428D02*
X126547533Y-85471428D01*
X126547533Y-85471428D02*
X126471342Y-85509523D01*
X126471342Y-85509523D02*
X126433247Y-85547618D01*
X126433247Y-85547618D02*
X126395152Y-85623809D01*
X130775714Y-95936104D02*
X130737618Y-95974200D01*
X130737618Y-95974200D02*
X130623333Y-96012295D01*
X130623333Y-96012295D02*
X130547142Y-96012295D01*
X130547142Y-96012295D02*
X130432856Y-95974200D01*
X130432856Y-95974200D02*
X130356666Y-95898009D01*
X130356666Y-95898009D02*
X130318571Y-95821819D01*
X130318571Y-95821819D02*
X130280475Y-95669438D01*
X130280475Y-95669438D02*
X130280475Y-95555152D01*
X130280475Y-95555152D02*
X130318571Y-95402771D01*
X130318571Y-95402771D02*
X130356666Y-95326580D01*
X130356666Y-95326580D02*
X130432856Y-95250390D01*
X130432856Y-95250390D02*
X130547142Y-95212295D01*
X130547142Y-95212295D02*
X130623333Y-95212295D01*
X130623333Y-95212295D02*
X130737618Y-95250390D01*
X130737618Y-95250390D02*
X130775714Y-95288485D01*
X131080475Y-95288485D02*
X131118571Y-95250390D01*
X131118571Y-95250390D02*
X131194761Y-95212295D01*
X131194761Y-95212295D02*
X131385237Y-95212295D01*
X131385237Y-95212295D02*
X131461428Y-95250390D01*
X131461428Y-95250390D02*
X131499523Y-95288485D01*
X131499523Y-95288485D02*
X131537618Y-95364676D01*
X131537618Y-95364676D02*
X131537618Y-95440866D01*
X131537618Y-95440866D02*
X131499523Y-95555152D01*
X131499523Y-95555152D02*
X131042380Y-96012295D01*
X131042380Y-96012295D02*
X131537618Y-96012295D01*
X131804285Y-95212295D02*
X132337619Y-95212295D01*
X132337619Y-95212295D02*
X131994761Y-96012295D01*
X126025714Y-98436104D02*
X125987618Y-98474200D01*
X125987618Y-98474200D02*
X125873333Y-98512295D01*
X125873333Y-98512295D02*
X125797142Y-98512295D01*
X125797142Y-98512295D02*
X125682856Y-98474200D01*
X125682856Y-98474200D02*
X125606666Y-98398009D01*
X125606666Y-98398009D02*
X125568571Y-98321819D01*
X125568571Y-98321819D02*
X125530475Y-98169438D01*
X125530475Y-98169438D02*
X125530475Y-98055152D01*
X125530475Y-98055152D02*
X125568571Y-97902771D01*
X125568571Y-97902771D02*
X125606666Y-97826580D01*
X125606666Y-97826580D02*
X125682856Y-97750390D01*
X125682856Y-97750390D02*
X125797142Y-97712295D01*
X125797142Y-97712295D02*
X125873333Y-97712295D01*
X125873333Y-97712295D02*
X125987618Y-97750390D01*
X125987618Y-97750390D02*
X126025714Y-97788485D01*
X126330475Y-97788485D02*
X126368571Y-97750390D01*
X126368571Y-97750390D02*
X126444761Y-97712295D01*
X126444761Y-97712295D02*
X126635237Y-97712295D01*
X126635237Y-97712295D02*
X126711428Y-97750390D01*
X126711428Y-97750390D02*
X126749523Y-97788485D01*
X126749523Y-97788485D02*
X126787618Y-97864676D01*
X126787618Y-97864676D02*
X126787618Y-97940866D01*
X126787618Y-97940866D02*
X126749523Y-98055152D01*
X126749523Y-98055152D02*
X126292380Y-98512295D01*
X126292380Y-98512295D02*
X126787618Y-98512295D01*
X127244761Y-98055152D02*
X127168571Y-98017057D01*
X127168571Y-98017057D02*
X127130476Y-97978961D01*
X127130476Y-97978961D02*
X127092380Y-97902771D01*
X127092380Y-97902771D02*
X127092380Y-97864676D01*
X127092380Y-97864676D02*
X127130476Y-97788485D01*
X127130476Y-97788485D02*
X127168571Y-97750390D01*
X127168571Y-97750390D02*
X127244761Y-97712295D01*
X127244761Y-97712295D02*
X127397142Y-97712295D01*
X127397142Y-97712295D02*
X127473333Y-97750390D01*
X127473333Y-97750390D02*
X127511428Y-97788485D01*
X127511428Y-97788485D02*
X127549523Y-97864676D01*
X127549523Y-97864676D02*
X127549523Y-97902771D01*
X127549523Y-97902771D02*
X127511428Y-97978961D01*
X127511428Y-97978961D02*
X127473333Y-98017057D01*
X127473333Y-98017057D02*
X127397142Y-98055152D01*
X127397142Y-98055152D02*
X127244761Y-98055152D01*
X127244761Y-98055152D02*
X127168571Y-98093247D01*
X127168571Y-98093247D02*
X127130476Y-98131342D01*
X127130476Y-98131342D02*
X127092380Y-98207533D01*
X127092380Y-98207533D02*
X127092380Y-98359914D01*
X127092380Y-98359914D02*
X127130476Y-98436104D01*
X127130476Y-98436104D02*
X127168571Y-98474200D01*
X127168571Y-98474200D02*
X127244761Y-98512295D01*
X127244761Y-98512295D02*
X127397142Y-98512295D01*
X127397142Y-98512295D02*
X127473333Y-98474200D01*
X127473333Y-98474200D02*
X127511428Y-98436104D01*
X127511428Y-98436104D02*
X127549523Y-98359914D01*
X127549523Y-98359914D02*
X127549523Y-98207533D01*
X127549523Y-98207533D02*
X127511428Y-98131342D01*
X127511428Y-98131342D02*
X127473333Y-98093247D01*
X127473333Y-98093247D02*
X127397142Y-98055152D01*
X128126104Y-100414285D02*
X128164200Y-100452381D01*
X128164200Y-100452381D02*
X128202295Y-100566666D01*
X128202295Y-100566666D02*
X128202295Y-100642857D01*
X128202295Y-100642857D02*
X128164200Y-100757143D01*
X128164200Y-100757143D02*
X128088009Y-100833333D01*
X128088009Y-100833333D02*
X128011819Y-100871428D01*
X128011819Y-100871428D02*
X127859438Y-100909524D01*
X127859438Y-100909524D02*
X127745152Y-100909524D01*
X127745152Y-100909524D02*
X127592771Y-100871428D01*
X127592771Y-100871428D02*
X127516580Y-100833333D01*
X127516580Y-100833333D02*
X127440390Y-100757143D01*
X127440390Y-100757143D02*
X127402295Y-100642857D01*
X127402295Y-100642857D02*
X127402295Y-100566666D01*
X127402295Y-100566666D02*
X127440390Y-100452381D01*
X127440390Y-100452381D02*
X127478485Y-100414285D01*
X127478485Y-100109524D02*
X127440390Y-100071428D01*
X127440390Y-100071428D02*
X127402295Y-99995238D01*
X127402295Y-99995238D02*
X127402295Y-99804762D01*
X127402295Y-99804762D02*
X127440390Y-99728571D01*
X127440390Y-99728571D02*
X127478485Y-99690476D01*
X127478485Y-99690476D02*
X127554676Y-99652381D01*
X127554676Y-99652381D02*
X127630866Y-99652381D01*
X127630866Y-99652381D02*
X127745152Y-99690476D01*
X127745152Y-99690476D02*
X128202295Y-100147619D01*
X128202295Y-100147619D02*
X128202295Y-99652381D01*
X128202295Y-99271428D02*
X128202295Y-99119047D01*
X128202295Y-99119047D02*
X128164200Y-99042857D01*
X128164200Y-99042857D02*
X128126104Y-99004761D01*
X128126104Y-99004761D02*
X128011819Y-98928571D01*
X128011819Y-98928571D02*
X127859438Y-98890476D01*
X127859438Y-98890476D02*
X127554676Y-98890476D01*
X127554676Y-98890476D02*
X127478485Y-98928571D01*
X127478485Y-98928571D02*
X127440390Y-98966666D01*
X127440390Y-98966666D02*
X127402295Y-99042857D01*
X127402295Y-99042857D02*
X127402295Y-99195238D01*
X127402295Y-99195238D02*
X127440390Y-99271428D01*
X127440390Y-99271428D02*
X127478485Y-99309523D01*
X127478485Y-99309523D02*
X127554676Y-99347619D01*
X127554676Y-99347619D02*
X127745152Y-99347619D01*
X127745152Y-99347619D02*
X127821342Y-99309523D01*
X127821342Y-99309523D02*
X127859438Y-99271428D01*
X127859438Y-99271428D02*
X127897533Y-99195238D01*
X127897533Y-99195238D02*
X127897533Y-99042857D01*
X127897533Y-99042857D02*
X127859438Y-98966666D01*
X127859438Y-98966666D02*
X127821342Y-98928571D01*
X127821342Y-98928571D02*
X127745152Y-98890476D01*
X114126104Y-111614285D02*
X114164200Y-111652381D01*
X114164200Y-111652381D02*
X114202295Y-111766666D01*
X114202295Y-111766666D02*
X114202295Y-111842857D01*
X114202295Y-111842857D02*
X114164200Y-111957143D01*
X114164200Y-111957143D02*
X114088009Y-112033333D01*
X114088009Y-112033333D02*
X114011819Y-112071428D01*
X114011819Y-112071428D02*
X113859438Y-112109524D01*
X113859438Y-112109524D02*
X113745152Y-112109524D01*
X113745152Y-112109524D02*
X113592771Y-112071428D01*
X113592771Y-112071428D02*
X113516580Y-112033333D01*
X113516580Y-112033333D02*
X113440390Y-111957143D01*
X113440390Y-111957143D02*
X113402295Y-111842857D01*
X113402295Y-111842857D02*
X113402295Y-111766666D01*
X113402295Y-111766666D02*
X113440390Y-111652381D01*
X113440390Y-111652381D02*
X113478485Y-111614285D01*
X113402295Y-111347619D02*
X113402295Y-110852381D01*
X113402295Y-110852381D02*
X113707057Y-111119047D01*
X113707057Y-111119047D02*
X113707057Y-111004762D01*
X113707057Y-111004762D02*
X113745152Y-110928571D01*
X113745152Y-110928571D02*
X113783247Y-110890476D01*
X113783247Y-110890476D02*
X113859438Y-110852381D01*
X113859438Y-110852381D02*
X114049914Y-110852381D01*
X114049914Y-110852381D02*
X114126104Y-110890476D01*
X114126104Y-110890476D02*
X114164200Y-110928571D01*
X114164200Y-110928571D02*
X114202295Y-111004762D01*
X114202295Y-111004762D02*
X114202295Y-111233333D01*
X114202295Y-111233333D02*
X114164200Y-111309524D01*
X114164200Y-111309524D02*
X114126104Y-111347619D01*
X113402295Y-110357142D02*
X113402295Y-110280952D01*
X113402295Y-110280952D02*
X113440390Y-110204761D01*
X113440390Y-110204761D02*
X113478485Y-110166666D01*
X113478485Y-110166666D02*
X113554676Y-110128571D01*
X113554676Y-110128571D02*
X113707057Y-110090476D01*
X113707057Y-110090476D02*
X113897533Y-110090476D01*
X113897533Y-110090476D02*
X114049914Y-110128571D01*
X114049914Y-110128571D02*
X114126104Y-110166666D01*
X114126104Y-110166666D02*
X114164200Y-110204761D01*
X114164200Y-110204761D02*
X114202295Y-110280952D01*
X114202295Y-110280952D02*
X114202295Y-110357142D01*
X114202295Y-110357142D02*
X114164200Y-110433333D01*
X114164200Y-110433333D02*
X114126104Y-110471428D01*
X114126104Y-110471428D02*
X114049914Y-110509523D01*
X114049914Y-110509523D02*
X113897533Y-110547619D01*
X113897533Y-110547619D02*
X113707057Y-110547619D01*
X113707057Y-110547619D02*
X113554676Y-110509523D01*
X113554676Y-110509523D02*
X113478485Y-110471428D01*
X113478485Y-110471428D02*
X113440390Y-110433333D01*
X113440390Y-110433333D02*
X113402295Y-110357142D01*
X119926104Y-90364285D02*
X119964200Y-90402381D01*
X119964200Y-90402381D02*
X120002295Y-90516666D01*
X120002295Y-90516666D02*
X120002295Y-90592857D01*
X120002295Y-90592857D02*
X119964200Y-90707143D01*
X119964200Y-90707143D02*
X119888009Y-90783333D01*
X119888009Y-90783333D02*
X119811819Y-90821428D01*
X119811819Y-90821428D02*
X119659438Y-90859524D01*
X119659438Y-90859524D02*
X119545152Y-90859524D01*
X119545152Y-90859524D02*
X119392771Y-90821428D01*
X119392771Y-90821428D02*
X119316580Y-90783333D01*
X119316580Y-90783333D02*
X119240390Y-90707143D01*
X119240390Y-90707143D02*
X119202295Y-90592857D01*
X119202295Y-90592857D02*
X119202295Y-90516666D01*
X119202295Y-90516666D02*
X119240390Y-90402381D01*
X119240390Y-90402381D02*
X119278485Y-90364285D01*
X119202295Y-90097619D02*
X119202295Y-89602381D01*
X119202295Y-89602381D02*
X119507057Y-89869047D01*
X119507057Y-89869047D02*
X119507057Y-89754762D01*
X119507057Y-89754762D02*
X119545152Y-89678571D01*
X119545152Y-89678571D02*
X119583247Y-89640476D01*
X119583247Y-89640476D02*
X119659438Y-89602381D01*
X119659438Y-89602381D02*
X119849914Y-89602381D01*
X119849914Y-89602381D02*
X119926104Y-89640476D01*
X119926104Y-89640476D02*
X119964200Y-89678571D01*
X119964200Y-89678571D02*
X120002295Y-89754762D01*
X120002295Y-89754762D02*
X120002295Y-89983333D01*
X120002295Y-89983333D02*
X119964200Y-90059524D01*
X119964200Y-90059524D02*
X119926104Y-90097619D01*
X120002295Y-88840476D02*
X120002295Y-89297619D01*
X120002295Y-89069047D02*
X119202295Y-89069047D01*
X119202295Y-89069047D02*
X119316580Y-89145238D01*
X119316580Y-89145238D02*
X119392771Y-89221428D01*
X119392771Y-89221428D02*
X119430866Y-89297619D01*
X131075714Y-92686104D02*
X131037618Y-92724200D01*
X131037618Y-92724200D02*
X130923333Y-92762295D01*
X130923333Y-92762295D02*
X130847142Y-92762295D01*
X130847142Y-92762295D02*
X130732856Y-92724200D01*
X130732856Y-92724200D02*
X130656666Y-92648009D01*
X130656666Y-92648009D02*
X130618571Y-92571819D01*
X130618571Y-92571819D02*
X130580475Y-92419438D01*
X130580475Y-92419438D02*
X130580475Y-92305152D01*
X130580475Y-92305152D02*
X130618571Y-92152771D01*
X130618571Y-92152771D02*
X130656666Y-92076580D01*
X130656666Y-92076580D02*
X130732856Y-92000390D01*
X130732856Y-92000390D02*
X130847142Y-91962295D01*
X130847142Y-91962295D02*
X130923333Y-91962295D01*
X130923333Y-91962295D02*
X131037618Y-92000390D01*
X131037618Y-92000390D02*
X131075714Y-92038485D01*
X131342380Y-91962295D02*
X131837618Y-91962295D01*
X131837618Y-91962295D02*
X131570952Y-92267057D01*
X131570952Y-92267057D02*
X131685237Y-92267057D01*
X131685237Y-92267057D02*
X131761428Y-92305152D01*
X131761428Y-92305152D02*
X131799523Y-92343247D01*
X131799523Y-92343247D02*
X131837618Y-92419438D01*
X131837618Y-92419438D02*
X131837618Y-92609914D01*
X131837618Y-92609914D02*
X131799523Y-92686104D01*
X131799523Y-92686104D02*
X131761428Y-92724200D01*
X131761428Y-92724200D02*
X131685237Y-92762295D01*
X131685237Y-92762295D02*
X131456666Y-92762295D01*
X131456666Y-92762295D02*
X131380475Y-92724200D01*
X131380475Y-92724200D02*
X131342380Y-92686104D01*
X132142380Y-92038485D02*
X132180476Y-92000390D01*
X132180476Y-92000390D02*
X132256666Y-91962295D01*
X132256666Y-91962295D02*
X132447142Y-91962295D01*
X132447142Y-91962295D02*
X132523333Y-92000390D01*
X132523333Y-92000390D02*
X132561428Y-92038485D01*
X132561428Y-92038485D02*
X132599523Y-92114676D01*
X132599523Y-92114676D02*
X132599523Y-92190866D01*
X132599523Y-92190866D02*
X132561428Y-92305152D01*
X132561428Y-92305152D02*
X132104285Y-92762295D01*
X132104285Y-92762295D02*
X132599523Y-92762295D01*
X120152295Y-93559523D02*
X120799914Y-93559523D01*
X120799914Y-93559523D02*
X120876104Y-93521428D01*
X120876104Y-93521428D02*
X120914200Y-93483333D01*
X120914200Y-93483333D02*
X120952295Y-93407142D01*
X120952295Y-93407142D02*
X120952295Y-93254761D01*
X120952295Y-93254761D02*
X120914200Y-93178571D01*
X120914200Y-93178571D02*
X120876104Y-93140476D01*
X120876104Y-93140476D02*
X120799914Y-93102380D01*
X120799914Y-93102380D02*
X120152295Y-93102380D01*
X120418961Y-92378571D02*
X120952295Y-92378571D01*
X120114200Y-92569047D02*
X120685628Y-92759524D01*
X120685628Y-92759524D02*
X120685628Y-92264285D01*
X119476104Y-101164285D02*
X119514200Y-101202381D01*
X119514200Y-101202381D02*
X119552295Y-101316666D01*
X119552295Y-101316666D02*
X119552295Y-101392857D01*
X119552295Y-101392857D02*
X119514200Y-101507143D01*
X119514200Y-101507143D02*
X119438009Y-101583333D01*
X119438009Y-101583333D02*
X119361819Y-101621428D01*
X119361819Y-101621428D02*
X119209438Y-101659524D01*
X119209438Y-101659524D02*
X119095152Y-101659524D01*
X119095152Y-101659524D02*
X118942771Y-101621428D01*
X118942771Y-101621428D02*
X118866580Y-101583333D01*
X118866580Y-101583333D02*
X118790390Y-101507143D01*
X118790390Y-101507143D02*
X118752295Y-101392857D01*
X118752295Y-101392857D02*
X118752295Y-101316666D01*
X118752295Y-101316666D02*
X118790390Y-101202381D01*
X118790390Y-101202381D02*
X118828485Y-101164285D01*
X118752295Y-100897619D02*
X118752295Y-100402381D01*
X118752295Y-100402381D02*
X119057057Y-100669047D01*
X119057057Y-100669047D02*
X119057057Y-100554762D01*
X119057057Y-100554762D02*
X119095152Y-100478571D01*
X119095152Y-100478571D02*
X119133247Y-100440476D01*
X119133247Y-100440476D02*
X119209438Y-100402381D01*
X119209438Y-100402381D02*
X119399914Y-100402381D01*
X119399914Y-100402381D02*
X119476104Y-100440476D01*
X119476104Y-100440476D02*
X119514200Y-100478571D01*
X119514200Y-100478571D02*
X119552295Y-100554762D01*
X119552295Y-100554762D02*
X119552295Y-100783333D01*
X119552295Y-100783333D02*
X119514200Y-100859524D01*
X119514200Y-100859524D02*
X119476104Y-100897619D01*
X118752295Y-100135714D02*
X118752295Y-99640476D01*
X118752295Y-99640476D02*
X119057057Y-99907142D01*
X119057057Y-99907142D02*
X119057057Y-99792857D01*
X119057057Y-99792857D02*
X119095152Y-99716666D01*
X119095152Y-99716666D02*
X119133247Y-99678571D01*
X119133247Y-99678571D02*
X119209438Y-99640476D01*
X119209438Y-99640476D02*
X119399914Y-99640476D01*
X119399914Y-99640476D02*
X119476104Y-99678571D01*
X119476104Y-99678571D02*
X119514200Y-99716666D01*
X119514200Y-99716666D02*
X119552295Y-99792857D01*
X119552295Y-99792857D02*
X119552295Y-100021428D01*
X119552295Y-100021428D02*
X119514200Y-100097619D01*
X119514200Y-100097619D02*
X119476104Y-100135714D01*
X125526104Y-84064285D02*
X125564200Y-84102381D01*
X125564200Y-84102381D02*
X125602295Y-84216666D01*
X125602295Y-84216666D02*
X125602295Y-84292857D01*
X125602295Y-84292857D02*
X125564200Y-84407143D01*
X125564200Y-84407143D02*
X125488009Y-84483333D01*
X125488009Y-84483333D02*
X125411819Y-84521428D01*
X125411819Y-84521428D02*
X125259438Y-84559524D01*
X125259438Y-84559524D02*
X125145152Y-84559524D01*
X125145152Y-84559524D02*
X124992771Y-84521428D01*
X124992771Y-84521428D02*
X124916580Y-84483333D01*
X124916580Y-84483333D02*
X124840390Y-84407143D01*
X124840390Y-84407143D02*
X124802295Y-84292857D01*
X124802295Y-84292857D02*
X124802295Y-84216666D01*
X124802295Y-84216666D02*
X124840390Y-84102381D01*
X124840390Y-84102381D02*
X124878485Y-84064285D01*
X125602295Y-83302381D02*
X125602295Y-83759524D01*
X125602295Y-83530952D02*
X124802295Y-83530952D01*
X124802295Y-83530952D02*
X124916580Y-83607143D01*
X124916580Y-83607143D02*
X124992771Y-83683333D01*
X124992771Y-83683333D02*
X125030866Y-83759524D01*
X125068961Y-82616666D02*
X125602295Y-82616666D01*
X124764200Y-82807142D02*
X125335628Y-82997619D01*
X125335628Y-82997619D02*
X125335628Y-82502380D01*
X131175714Y-93786104D02*
X131137618Y-93824200D01*
X131137618Y-93824200D02*
X131023333Y-93862295D01*
X131023333Y-93862295D02*
X130947142Y-93862295D01*
X130947142Y-93862295D02*
X130832856Y-93824200D01*
X130832856Y-93824200D02*
X130756666Y-93748009D01*
X130756666Y-93748009D02*
X130718571Y-93671819D01*
X130718571Y-93671819D02*
X130680475Y-93519438D01*
X130680475Y-93519438D02*
X130680475Y-93405152D01*
X130680475Y-93405152D02*
X130718571Y-93252771D01*
X130718571Y-93252771D02*
X130756666Y-93176580D01*
X130756666Y-93176580D02*
X130832856Y-93100390D01*
X130832856Y-93100390D02*
X130947142Y-93062295D01*
X130947142Y-93062295D02*
X131023333Y-93062295D01*
X131023333Y-93062295D02*
X131137618Y-93100390D01*
X131137618Y-93100390D02*
X131175714Y-93138485D01*
X131442380Y-93062295D02*
X131937618Y-93062295D01*
X131937618Y-93062295D02*
X131670952Y-93367057D01*
X131670952Y-93367057D02*
X131785237Y-93367057D01*
X131785237Y-93367057D02*
X131861428Y-93405152D01*
X131861428Y-93405152D02*
X131899523Y-93443247D01*
X131899523Y-93443247D02*
X131937618Y-93519438D01*
X131937618Y-93519438D02*
X131937618Y-93709914D01*
X131937618Y-93709914D02*
X131899523Y-93786104D01*
X131899523Y-93786104D02*
X131861428Y-93824200D01*
X131861428Y-93824200D02*
X131785237Y-93862295D01*
X131785237Y-93862295D02*
X131556666Y-93862295D01*
X131556666Y-93862295D02*
X131480475Y-93824200D01*
X131480475Y-93824200D02*
X131442380Y-93786104D01*
X132623333Y-93328961D02*
X132623333Y-93862295D01*
X132432857Y-93024200D02*
X132242380Y-93595628D01*
X132242380Y-93595628D02*
X132737619Y-93595628D01*
X123825714Y-98662295D02*
X123559047Y-98281342D01*
X123368571Y-98662295D02*
X123368571Y-97862295D01*
X123368571Y-97862295D02*
X123673333Y-97862295D01*
X123673333Y-97862295D02*
X123749523Y-97900390D01*
X123749523Y-97900390D02*
X123787618Y-97938485D01*
X123787618Y-97938485D02*
X123825714Y-98014676D01*
X123825714Y-98014676D02*
X123825714Y-98128961D01*
X123825714Y-98128961D02*
X123787618Y-98205152D01*
X123787618Y-98205152D02*
X123749523Y-98243247D01*
X123749523Y-98243247D02*
X123673333Y-98281342D01*
X123673333Y-98281342D02*
X123368571Y-98281342D01*
X124587618Y-98662295D02*
X124130475Y-98662295D01*
X124359047Y-98662295D02*
X124359047Y-97862295D01*
X124359047Y-97862295D02*
X124282856Y-97976580D01*
X124282856Y-97976580D02*
X124206666Y-98052771D01*
X124206666Y-98052771D02*
X124130475Y-98090866D01*
X125349523Y-98662295D02*
X124892380Y-98662295D01*
X125120952Y-98662295D02*
X125120952Y-97862295D01*
X125120952Y-97862295D02*
X125044761Y-97976580D01*
X125044761Y-97976580D02*
X124968571Y-98052771D01*
X124968571Y-98052771D02*
X124892380Y-98090866D01*
X123359048Y-104331342D02*
X123359048Y-104712295D01*
X123092381Y-103912295D02*
X123359048Y-104331342D01*
X123359048Y-104331342D02*
X123625714Y-103912295D01*
X124311428Y-104712295D02*
X123854285Y-104712295D01*
X124082857Y-104712295D02*
X124082857Y-103912295D01*
X124082857Y-103912295D02*
X124006666Y-104026580D01*
X124006666Y-104026580D02*
X123930476Y-104102771D01*
X123930476Y-104102771D02*
X123854285Y-104140866D01*
X127802295Y-78521428D02*
X128602295Y-78254761D01*
X128602295Y-78254761D02*
X127802295Y-77988095D01*
X128602295Y-77264285D02*
X128221342Y-77530952D01*
X128602295Y-77721428D02*
X127802295Y-77721428D01*
X127802295Y-77721428D02*
X127802295Y-77416666D01*
X127802295Y-77416666D02*
X127840390Y-77340476D01*
X127840390Y-77340476D02*
X127878485Y-77302381D01*
X127878485Y-77302381D02*
X127954676Y-77264285D01*
X127954676Y-77264285D02*
X128068961Y-77264285D01*
X128068961Y-77264285D02*
X128145152Y-77302381D01*
X128145152Y-77302381D02*
X128183247Y-77340476D01*
X128183247Y-77340476D02*
X128221342Y-77416666D01*
X128221342Y-77416666D02*
X128221342Y-77721428D01*
X128183247Y-76921428D02*
X128183247Y-76654762D01*
X128602295Y-76540476D02*
X128602295Y-76921428D01*
X128602295Y-76921428D02*
X127802295Y-76921428D01*
X127802295Y-76921428D02*
X127802295Y-76540476D01*
X128183247Y-75930952D02*
X128183247Y-76197618D01*
X128602295Y-76197618D02*
X127802295Y-76197618D01*
X127802295Y-76197618D02*
X127802295Y-75816666D01*
X134194819Y-102933333D02*
X134909104Y-102933333D01*
X134909104Y-102933333D02*
X135051961Y-102980952D01*
X135051961Y-102980952D02*
X135147200Y-103076190D01*
X135147200Y-103076190D02*
X135194819Y-103219047D01*
X135194819Y-103219047D02*
X135194819Y-103314285D01*
X134194819Y-102552380D02*
X134194819Y-101885714D01*
X134194819Y-101885714D02*
X135194819Y-102314285D01*
G36*
X138400725Y-101996162D02*
G01*
X138421608Y-102017045D01*
X138446342Y-102066513D01*
X138446342Y-102278570D01*
X138177295Y-102278570D01*
X138177295Y-102066513D01*
X138202029Y-102017045D01*
X138222912Y-101996161D01*
X138272381Y-101971427D01*
X138351256Y-101971427D01*
X138400725Y-101996162D01*
G37*
G36*
X139091581Y-103990476D02*
G01*
X137913009Y-103990476D01*
X137913009Y-103534523D01*
X138027295Y-103534523D01*
X138027855Y-103536061D01*
X138031144Y-103558240D01*
X138069239Y-103672526D01*
X138072026Y-103676038D01*
X138072417Y-103680505D01*
X138087357Y-103701842D01*
X138163547Y-103778032D01*
X138165028Y-103778722D01*
X138183039Y-103792081D01*
X138259230Y-103830176D01*
X138262756Y-103830581D01*
X138274580Y-103835855D01*
X138426962Y-103873951D01*
X138430410Y-103873590D01*
X138445152Y-103876190D01*
X138559438Y-103876190D01*
X138562695Y-103875004D01*
X138577629Y-103873951D01*
X138730010Y-103835855D01*
X138732955Y-103833865D01*
X138745360Y-103830176D01*
X138821550Y-103792081D01*
X138822673Y-103790894D01*
X138841042Y-103778032D01*
X138917233Y-103701842D01*
X138919127Y-103697778D01*
X138922949Y-103695431D01*
X138935351Y-103672526D01*
X138973446Y-103558240D01*
X138973401Y-103556605D01*
X138977295Y-103534523D01*
X138977295Y-103458332D01*
X138976734Y-103456793D01*
X138973446Y-103434615D01*
X138935351Y-103320330D01*
X138932564Y-103316819D01*
X138932174Y-103312351D01*
X138917233Y-103291014D01*
X138879137Y-103252918D01*
X138832640Y-103231237D01*
X138783086Y-103244514D01*
X138753659Y-103286540D01*
X138758131Y-103337647D01*
X138773071Y-103358984D01*
X138798648Y-103384561D01*
X138827295Y-103470502D01*
X138827295Y-103522353D01*
X138798648Y-103608294D01*
X138743582Y-103663359D01*
X138685642Y-103692329D01*
X138550203Y-103726190D01*
X138454387Y-103726190D01*
X138318945Y-103692329D01*
X138261006Y-103663359D01*
X138205942Y-103608295D01*
X138177295Y-103522353D01*
X138177295Y-103470502D01*
X138205942Y-103384560D01*
X138231519Y-103358983D01*
X138253199Y-103312487D01*
X138239921Y-103262932D01*
X138197895Y-103233506D01*
X138146788Y-103237978D01*
X138125451Y-103252919D01*
X138087356Y-103291015D01*
X138085461Y-103295078D01*
X138081642Y-103297425D01*
X138069239Y-103320330D01*
X138031144Y-103434615D01*
X138031188Y-103436249D01*
X138027295Y-103458332D01*
X138027295Y-103534523D01*
X137913009Y-103534523D01*
X137913009Y-103077380D01*
X138027295Y-103077380D01*
X138044842Y-103125589D01*
X138089271Y-103151241D01*
X138139795Y-103142332D01*
X138172772Y-103103032D01*
X138177295Y-103077380D01*
X138177295Y-102923809D01*
X138902295Y-102923809D01*
X138950504Y-102906262D01*
X138976156Y-102861833D01*
X138967247Y-102811309D01*
X138927947Y-102778332D01*
X138902295Y-102773809D01*
X138177295Y-102773809D01*
X138177295Y-102620237D01*
X138159748Y-102572028D01*
X138115319Y-102546376D01*
X138064795Y-102555285D01*
X138031818Y-102594585D01*
X138027295Y-102620237D01*
X138027295Y-103077380D01*
X137913009Y-103077380D01*
X137913009Y-102353570D01*
X138027295Y-102353570D01*
X138033958Y-102371878D01*
X138037343Y-102391070D01*
X138042527Y-102395420D01*
X138044842Y-102401779D01*
X138061715Y-102411521D01*
X138076643Y-102424047D01*
X138086385Y-102425764D01*
X138089271Y-102427431D01*
X138092553Y-102426852D01*
X138102295Y-102428570D01*
X138902295Y-102428570D01*
X138950504Y-102411023D01*
X138976156Y-102366594D01*
X138967247Y-102316070D01*
X138927947Y-102283093D01*
X138902295Y-102278570D01*
X138596342Y-102278570D01*
X138596342Y-102202143D01*
X138945304Y-101957870D01*
X138974736Y-101915848D01*
X138970273Y-101864740D01*
X138934001Y-101828458D01*
X138882894Y-101823980D01*
X138859285Y-101834985D01*
X138590718Y-102022981D01*
X138588424Y-102015267D01*
X138550329Y-101939077D01*
X138549139Y-101937951D01*
X138536280Y-101919585D01*
X138498185Y-101881490D01*
X138496700Y-101880797D01*
X138478693Y-101867441D01*
X138402502Y-101829345D01*
X138398048Y-101828832D01*
X138394613Y-101825950D01*
X138368961Y-101821427D01*
X138254676Y-101821427D01*
X138250462Y-101822960D01*
X138246101Y-101821919D01*
X138221134Y-101829345D01*
X138144944Y-101867441D01*
X138143818Y-101868630D01*
X138125452Y-101881490D01*
X138087357Y-101919585D01*
X138086666Y-101921066D01*
X138073308Y-101939077D01*
X138035213Y-102015267D01*
X138034700Y-102019720D01*
X138031818Y-102023156D01*
X138027295Y-102048808D01*
X138027295Y-102353570D01*
X137913009Y-102353570D01*
X137913009Y-101540546D01*
X138028434Y-101540546D01*
X138037343Y-101591070D01*
X138076643Y-101624047D01*
X138102295Y-101628570D01*
X138902295Y-101628570D01*
X138920603Y-101621906D01*
X138939795Y-101618522D01*
X138944145Y-101613337D01*
X138950504Y-101611023D01*
X138960246Y-101594149D01*
X138972772Y-101579222D01*
X138974489Y-101569479D01*
X138976156Y-101566594D01*
X138975577Y-101563311D01*
X138977295Y-101553570D01*
X138977295Y-101172618D01*
X138959748Y-101124409D01*
X138915319Y-101098757D01*
X138864795Y-101107666D01*
X138831818Y-101146966D01*
X138827295Y-101172618D01*
X138827295Y-101478570D01*
X138102295Y-101478570D01*
X138054086Y-101496117D01*
X138028434Y-101540546D01*
X137913009Y-101540546D01*
X137913009Y-100984471D01*
X139091581Y-100984471D01*
X139091581Y-103990476D01*
G37*
X110939537Y-112011900D02*
X110670163Y-111742526D01*
X110670163Y-111742526D02*
X111235849Y-111176841D01*
X111639910Y-111580901D02*
X112017033Y-111958025D01*
X112017033Y-111958025D02*
X111208911Y-112281274D01*
X104651900Y-91650462D02*
X104193964Y-91569649D01*
X104328651Y-91973710D02*
X103762966Y-91408025D01*
X103762966Y-91408025D02*
X103978465Y-91192526D01*
X103978465Y-91192526D02*
X104059277Y-91165588D01*
X104059277Y-91165588D02*
X104113152Y-91165588D01*
X104113152Y-91165588D02*
X104193964Y-91192526D01*
X104193964Y-91192526D02*
X104274777Y-91273338D01*
X104274777Y-91273338D02*
X104301714Y-91354150D01*
X104301714Y-91354150D02*
X104301714Y-91408025D01*
X104301714Y-91408025D02*
X104274777Y-91488837D01*
X104274777Y-91488837D02*
X104059277Y-91704336D01*
X104571088Y-90599903D02*
X104463338Y-90707653D01*
X104463338Y-90707653D02*
X104436401Y-90788465D01*
X104436401Y-90788465D02*
X104436401Y-90842340D01*
X104436401Y-90842340D02*
X104463338Y-90977027D01*
X104463338Y-90977027D02*
X104544151Y-91111714D01*
X104544151Y-91111714D02*
X104759650Y-91327213D01*
X104759650Y-91327213D02*
X104840462Y-91354150D01*
X104840462Y-91354150D02*
X104894337Y-91354150D01*
X104894337Y-91354150D02*
X104975149Y-91327213D01*
X104975149Y-91327213D02*
X105082899Y-91219463D01*
X105082899Y-91219463D02*
X105109836Y-91138651D01*
X105109836Y-91138651D02*
X105109836Y-91084776D01*
X105109836Y-91084776D02*
X105082899Y-91003964D01*
X105082899Y-91003964D02*
X104948212Y-90869277D01*
X104948212Y-90869277D02*
X104867399Y-90842340D01*
X104867399Y-90842340D02*
X104813525Y-90842340D01*
X104813525Y-90842340D02*
X104732712Y-90869277D01*
X104732712Y-90869277D02*
X104624963Y-90977027D01*
X104624963Y-90977027D02*
X104598025Y-91057839D01*
X104598025Y-91057839D02*
X104598025Y-91111714D01*
X104598025Y-91111714D02*
X104624963Y-91192526D01*
X123075714Y-71586104D02*
X123037618Y-71624200D01*
X123037618Y-71624200D02*
X122923333Y-71662295D01*
X122923333Y-71662295D02*
X122847142Y-71662295D01*
X122847142Y-71662295D02*
X122732856Y-71624200D01*
X122732856Y-71624200D02*
X122656666Y-71548009D01*
X122656666Y-71548009D02*
X122618571Y-71471819D01*
X122618571Y-71471819D02*
X122580475Y-71319438D01*
X122580475Y-71319438D02*
X122580475Y-71205152D01*
X122580475Y-71205152D02*
X122618571Y-71052771D01*
X122618571Y-71052771D02*
X122656666Y-70976580D01*
X122656666Y-70976580D02*
X122732856Y-70900390D01*
X122732856Y-70900390D02*
X122847142Y-70862295D01*
X122847142Y-70862295D02*
X122923333Y-70862295D01*
X122923333Y-70862295D02*
X123037618Y-70900390D01*
X123037618Y-70900390D02*
X123075714Y-70938485D01*
X123837618Y-71662295D02*
X123380475Y-71662295D01*
X123609047Y-71662295D02*
X123609047Y-70862295D01*
X123609047Y-70862295D02*
X123532856Y-70976580D01*
X123532856Y-70976580D02*
X123456666Y-71052771D01*
X123456666Y-71052771D02*
X123380475Y-71090866D01*
X124332857Y-70862295D02*
X124409047Y-70862295D01*
X124409047Y-70862295D02*
X124485238Y-70900390D01*
X124485238Y-70900390D02*
X124523333Y-70938485D01*
X124523333Y-70938485D02*
X124561428Y-71014676D01*
X124561428Y-71014676D02*
X124599523Y-71167057D01*
X124599523Y-71167057D02*
X124599523Y-71357533D01*
X124599523Y-71357533D02*
X124561428Y-71509914D01*
X124561428Y-71509914D02*
X124523333Y-71586104D01*
X124523333Y-71586104D02*
X124485238Y-71624200D01*
X124485238Y-71624200D02*
X124409047Y-71662295D01*
X124409047Y-71662295D02*
X124332857Y-71662295D01*
X124332857Y-71662295D02*
X124256666Y-71624200D01*
X124256666Y-71624200D02*
X124218571Y-71586104D01*
X124218571Y-71586104D02*
X124180476Y-71509914D01*
X124180476Y-71509914D02*
X124142380Y-71357533D01*
X124142380Y-71357533D02*
X124142380Y-71167057D01*
X124142380Y-71167057D02*
X124180476Y-71014676D01*
X124180476Y-71014676D02*
X124218571Y-70938485D01*
X124218571Y-70938485D02*
X124256666Y-70900390D01*
X124256666Y-70900390D02*
X124332857Y-70862295D01*
X105989537Y-94461900D02*
X106070350Y-94003964D01*
X105666289Y-94138651D02*
X106231974Y-93572966D01*
X106231974Y-93572966D02*
X106447473Y-93788465D01*
X106447473Y-93788465D02*
X106474411Y-93869277D01*
X106474411Y-93869277D02*
X106474411Y-93923152D01*
X106474411Y-93923152D02*
X106447473Y-94003964D01*
X106447473Y-94003964D02*
X106366661Y-94084777D01*
X106366661Y-94084777D02*
X106285849Y-94111714D01*
X106285849Y-94111714D02*
X106231974Y-94111714D01*
X106231974Y-94111714D02*
X106151162Y-94084777D01*
X106151162Y-94084777D02*
X105935663Y-93869277D01*
X107067033Y-94408025D02*
X106797659Y-94138651D01*
X106797659Y-94138651D02*
X106501348Y-94381088D01*
X106501348Y-94381088D02*
X106555223Y-94381088D01*
X106555223Y-94381088D02*
X106636035Y-94408025D01*
X106636035Y-94408025D02*
X106770722Y-94542712D01*
X106770722Y-94542712D02*
X106797659Y-94623525D01*
X106797659Y-94623525D02*
X106797659Y-94677399D01*
X106797659Y-94677399D02*
X106770722Y-94758212D01*
X106770722Y-94758212D02*
X106636035Y-94892899D01*
X106636035Y-94892899D02*
X106555223Y-94919836D01*
X106555223Y-94919836D02*
X106501348Y-94919836D01*
X106501348Y-94919836D02*
X106420536Y-94892899D01*
X106420536Y-94892899D02*
X106285849Y-94758212D01*
X106285849Y-94758212D02*
X106258911Y-94677399D01*
X106258911Y-94677399D02*
X106258911Y-94623525D01*
X99639537Y-101461900D02*
X99370163Y-101192526D01*
X99370163Y-101192526D02*
X99935849Y-100626841D01*
X100636221Y-101327213D02*
X100528471Y-101219463D01*
X100528471Y-101219463D02*
X100447659Y-101192526D01*
X100447659Y-101192526D02*
X100393784Y-101192526D01*
X100393784Y-101192526D02*
X100259097Y-101219463D01*
X100259097Y-101219463D02*
X100124410Y-101300276D01*
X100124410Y-101300276D02*
X99908911Y-101515775D01*
X99908911Y-101515775D02*
X99881974Y-101596587D01*
X99881974Y-101596587D02*
X99881974Y-101650462D01*
X99881974Y-101650462D02*
X99908911Y-101731274D01*
X99908911Y-101731274D02*
X100016661Y-101839024D01*
X100016661Y-101839024D02*
X100097473Y-101865961D01*
X100097473Y-101865961D02*
X100151348Y-101865961D01*
X100151348Y-101865961D02*
X100232160Y-101839024D01*
X100232160Y-101839024D02*
X100366847Y-101704337D01*
X100366847Y-101704337D02*
X100393784Y-101623524D01*
X100393784Y-101623524D02*
X100393784Y-101569650D01*
X100393784Y-101569650D02*
X100366847Y-101488837D01*
X100366847Y-101488837D02*
X100259097Y-101381088D01*
X100259097Y-101381088D02*
X100178285Y-101354150D01*
X100178285Y-101354150D02*
X100124410Y-101354150D01*
X100124410Y-101354150D02*
X100043598Y-101381088D01*
X111951900Y-71050462D02*
X111682526Y-71319836D01*
X111682526Y-71319836D02*
X111116841Y-70754150D01*
X111601714Y-70377027D02*
X111601714Y-70323152D01*
X111601714Y-70323152D02*
X111628651Y-70242340D01*
X111628651Y-70242340D02*
X111763338Y-70107653D01*
X111763338Y-70107653D02*
X111844150Y-70080715D01*
X111844150Y-70080715D02*
X111898025Y-70080715D01*
X111898025Y-70080715D02*
X111978837Y-70107653D01*
X111978837Y-70107653D02*
X112032712Y-70161528D01*
X112032712Y-70161528D02*
X112086587Y-70269277D01*
X112086587Y-70269277D02*
X112086587Y-70915775D01*
X112086587Y-70915775D02*
X112436773Y-70565589D01*
X111239537Y-116411899D02*
X110970163Y-116142525D01*
X110970163Y-116142525D02*
X111535849Y-115576840D01*
X111832160Y-116358024D02*
X111805223Y-116277212D01*
X111805223Y-116277212D02*
X111805223Y-116223337D01*
X111805223Y-116223337D02*
X111832160Y-116142525D01*
X111832160Y-116142525D02*
X111859097Y-116115588D01*
X111859097Y-116115588D02*
X111939910Y-116088650D01*
X111939910Y-116088650D02*
X111993784Y-116088650D01*
X111993784Y-116088650D02*
X112074597Y-116115588D01*
X112074597Y-116115588D02*
X112182346Y-116223337D01*
X112182346Y-116223337D02*
X112209284Y-116304149D01*
X112209284Y-116304149D02*
X112209284Y-116358024D01*
X112209284Y-116358024D02*
X112182346Y-116438836D01*
X112182346Y-116438836D02*
X112155409Y-116465774D01*
X112155409Y-116465774D02*
X112074597Y-116492711D01*
X112074597Y-116492711D02*
X112020722Y-116492711D01*
X112020722Y-116492711D02*
X111939910Y-116465774D01*
X111939910Y-116465774D02*
X111832160Y-116358024D01*
X111832160Y-116358024D02*
X111751348Y-116331087D01*
X111751348Y-116331087D02*
X111697473Y-116331087D01*
X111697473Y-116331087D02*
X111616661Y-116358024D01*
X111616661Y-116358024D02*
X111508911Y-116465774D01*
X111508911Y-116465774D02*
X111481974Y-116546586D01*
X111481974Y-116546586D02*
X111481974Y-116600461D01*
X111481974Y-116600461D02*
X111508911Y-116681273D01*
X111508911Y-116681273D02*
X111616661Y-116789023D01*
X111616661Y-116789023D02*
X111697473Y-116815960D01*
X111697473Y-116815960D02*
X111751348Y-116815960D01*
X111751348Y-116815960D02*
X111832160Y-116789023D01*
X111832160Y-116789023D02*
X111939910Y-116681273D01*
X111939910Y-116681273D02*
X111966847Y-116600461D01*
X111966847Y-116600461D02*
X111966847Y-116546586D01*
X111966847Y-116546586D02*
X111939910Y-116465774D01*
X109374038Y-108538651D02*
X109320163Y-108538651D01*
X109320163Y-108538651D02*
X109212413Y-108484776D01*
X109212413Y-108484776D02*
X109158539Y-108430901D01*
X109158539Y-108430901D02*
X109104664Y-108323152D01*
X109104664Y-108323152D02*
X109104664Y-108215402D01*
X109104664Y-108215402D02*
X109131601Y-108134590D01*
X109131601Y-108134590D02*
X109212413Y-107999903D01*
X109212413Y-107999903D02*
X109293226Y-107919091D01*
X109293226Y-107919091D02*
X109427913Y-107838279D01*
X109427913Y-107838279D02*
X109508725Y-107811341D01*
X109508725Y-107811341D02*
X109616474Y-107811341D01*
X109616474Y-107811341D02*
X109724224Y-107865216D01*
X109724224Y-107865216D02*
X109778099Y-107919091D01*
X109778099Y-107919091D02*
X109831974Y-108026840D01*
X109831974Y-108026840D02*
X109831974Y-108080715D01*
X110047473Y-108296214D02*
X110101348Y-108296214D01*
X110101348Y-108296214D02*
X110182160Y-108323152D01*
X110182160Y-108323152D02*
X110316847Y-108457839D01*
X110316847Y-108457839D02*
X110343784Y-108538651D01*
X110343784Y-108538651D02*
X110343784Y-108592526D01*
X110343784Y-108592526D02*
X110316847Y-108673338D01*
X110316847Y-108673338D02*
X110262972Y-108727213D01*
X110262972Y-108727213D02*
X110155222Y-108781088D01*
X110155222Y-108781088D02*
X109508725Y-108781088D01*
X109508725Y-108781088D02*
X109858911Y-109131274D01*
X110774783Y-108915775D02*
X110828658Y-108969650D01*
X110828658Y-108969650D02*
X110855595Y-109050462D01*
X110855595Y-109050462D02*
X110855595Y-109104337D01*
X110855595Y-109104337D02*
X110828658Y-109185149D01*
X110828658Y-109185149D02*
X110747845Y-109319836D01*
X110747845Y-109319836D02*
X110613158Y-109454523D01*
X110613158Y-109454523D02*
X110478471Y-109535335D01*
X110478471Y-109535335D02*
X110397659Y-109562272D01*
X110397659Y-109562272D02*
X110343784Y-109562272D01*
X110343784Y-109562272D02*
X110262972Y-109535335D01*
X110262972Y-109535335D02*
X110209097Y-109481460D01*
X110209097Y-109481460D02*
X110182160Y-109400648D01*
X110182160Y-109400648D02*
X110182160Y-109346773D01*
X110182160Y-109346773D02*
X110209097Y-109265961D01*
X110209097Y-109265961D02*
X110289910Y-109131274D01*
X110289910Y-109131274D02*
X110424597Y-108996587D01*
X110424597Y-108996587D02*
X110559284Y-108915775D01*
X110559284Y-108915775D02*
X110640096Y-108888837D01*
X110640096Y-108888837D02*
X110693971Y-108888837D01*
X110693971Y-108888837D02*
X110774783Y-108915775D01*
X117375714Y-105786104D02*
X117337618Y-105824200D01*
X117337618Y-105824200D02*
X117223333Y-105862295D01*
X117223333Y-105862295D02*
X117147142Y-105862295D01*
X117147142Y-105862295D02*
X117032856Y-105824200D01*
X117032856Y-105824200D02*
X116956666Y-105748009D01*
X116956666Y-105748009D02*
X116918571Y-105671819D01*
X116918571Y-105671819D02*
X116880475Y-105519438D01*
X116880475Y-105519438D02*
X116880475Y-105405152D01*
X116880475Y-105405152D02*
X116918571Y-105252771D01*
X116918571Y-105252771D02*
X116956666Y-105176580D01*
X116956666Y-105176580D02*
X117032856Y-105100390D01*
X117032856Y-105100390D02*
X117147142Y-105062295D01*
X117147142Y-105062295D02*
X117223333Y-105062295D01*
X117223333Y-105062295D02*
X117337618Y-105100390D01*
X117337618Y-105100390D02*
X117375714Y-105138485D01*
X117642380Y-105062295D02*
X118137618Y-105062295D01*
X118137618Y-105062295D02*
X117870952Y-105367057D01*
X117870952Y-105367057D02*
X117985237Y-105367057D01*
X117985237Y-105367057D02*
X118061428Y-105405152D01*
X118061428Y-105405152D02*
X118099523Y-105443247D01*
X118099523Y-105443247D02*
X118137618Y-105519438D01*
X118137618Y-105519438D02*
X118137618Y-105709914D01*
X118137618Y-105709914D02*
X118099523Y-105786104D01*
X118099523Y-105786104D02*
X118061428Y-105824200D01*
X118061428Y-105824200D02*
X117985237Y-105862295D01*
X117985237Y-105862295D02*
X117756666Y-105862295D01*
X117756666Y-105862295D02*
X117680475Y-105824200D01*
X117680475Y-105824200D02*
X117642380Y-105786104D01*
X118861428Y-105062295D02*
X118480476Y-105062295D01*
X118480476Y-105062295D02*
X118442380Y-105443247D01*
X118442380Y-105443247D02*
X118480476Y-105405152D01*
X118480476Y-105405152D02*
X118556666Y-105367057D01*
X118556666Y-105367057D02*
X118747142Y-105367057D01*
X118747142Y-105367057D02*
X118823333Y-105405152D01*
X118823333Y-105405152D02*
X118861428Y-105443247D01*
X118861428Y-105443247D02*
X118899523Y-105519438D01*
X118899523Y-105519438D02*
X118899523Y-105709914D01*
X118899523Y-105709914D02*
X118861428Y-105786104D01*
X118861428Y-105786104D02*
X118823333Y-105824200D01*
X118823333Y-105824200D02*
X118747142Y-105862295D01*
X118747142Y-105862295D02*
X118556666Y-105862295D01*
X118556666Y-105862295D02*
X118480476Y-105824200D01*
X118480476Y-105824200D02*
X118442380Y-105786104D01*
X134344819Y-93883333D02*
X135059104Y-93883333D01*
X135059104Y-93883333D02*
X135201961Y-93930952D01*
X135201961Y-93930952D02*
X135297200Y-94026190D01*
X135297200Y-94026190D02*
X135344819Y-94169047D01*
X135344819Y-94169047D02*
X135344819Y-94264285D01*
X134344819Y-92930952D02*
X134344819Y-93407142D01*
X134344819Y-93407142D02*
X134821009Y-93454761D01*
X134821009Y-93454761D02*
X134773390Y-93407142D01*
X134773390Y-93407142D02*
X134725771Y-93311904D01*
X134725771Y-93311904D02*
X134725771Y-93073809D01*
X134725771Y-93073809D02*
X134773390Y-92978571D01*
X134773390Y-92978571D02*
X134821009Y-92930952D01*
X134821009Y-92930952D02*
X134916247Y-92883333D01*
X134916247Y-92883333D02*
X135154342Y-92883333D01*
X135154342Y-92883333D02*
X135249580Y-92930952D01*
X135249580Y-92930952D02*
X135297200Y-92978571D01*
X135297200Y-92978571D02*
X135344819Y-93073809D01*
X135344819Y-93073809D02*
X135344819Y-93311904D01*
X135344819Y-93311904D02*
X135297200Y-93407142D01*
X135297200Y-93407142D02*
X135249580Y-93454761D01*
G36*
X138598723Y-94967370D02*
G01*
X138339465Y-94880951D01*
X138598723Y-94794532D01*
X138598723Y-94967370D01*
G37*
G36*
X139091581Y-95333055D02*
G01*
X137913164Y-95333055D01*
X137913164Y-94891952D01*
X138028106Y-94891952D01*
X138029134Y-94893851D01*
X138028818Y-94895987D01*
X138041236Y-94916200D01*
X138052535Y-94937066D01*
X138054542Y-94937859D01*
X138055673Y-94939699D01*
X138078578Y-94952102D01*
X138878578Y-95218769D01*
X138929862Y-95217368D01*
X138968247Y-95183331D01*
X138975772Y-95132582D01*
X138948917Y-95088869D01*
X138926012Y-95076467D01*
X138748723Y-95017370D01*
X138748723Y-94744532D01*
X138926012Y-94685436D01*
X138966198Y-94653545D01*
X138976484Y-94603284D01*
X138952056Y-94558170D01*
X138904344Y-94539313D01*
X138878578Y-94543134D01*
X138078578Y-94809800D01*
X138076886Y-94811142D01*
X138074728Y-94811201D01*
X138056966Y-94826950D01*
X138038392Y-94841691D01*
X138037959Y-94843804D01*
X138036343Y-94845238D01*
X138032862Y-94868708D01*
X138028106Y-94891952D01*
X137913164Y-94891952D01*
X137913164Y-94334594D01*
X138028434Y-94334594D01*
X138037343Y-94385118D01*
X138076643Y-94418095D01*
X138102295Y-94422618D01*
X138749914Y-94422618D01*
X138754127Y-94421084D01*
X138758488Y-94422126D01*
X138783455Y-94414700D01*
X138859645Y-94376605D01*
X138860770Y-94375416D01*
X138879136Y-94362557D01*
X138917232Y-94324462D01*
X138917922Y-94322980D01*
X138931282Y-94304969D01*
X138969377Y-94228778D01*
X138969889Y-94224324D01*
X138972772Y-94220889D01*
X138977295Y-94195237D01*
X138977295Y-94042856D01*
X138975761Y-94038642D01*
X138976803Y-94034282D01*
X138969377Y-94009315D01*
X138931282Y-93933125D01*
X138930094Y-93932000D01*
X138917232Y-93913632D01*
X138879136Y-93875537D01*
X138877650Y-93874844D01*
X138859645Y-93861489D01*
X138783456Y-93823393D01*
X138779001Y-93822880D01*
X138775566Y-93819998D01*
X138749914Y-93815475D01*
X138102295Y-93815475D01*
X138054086Y-93833022D01*
X138028434Y-93877451D01*
X138037343Y-93927975D01*
X138076643Y-93960952D01*
X138102295Y-93965475D01*
X138732208Y-93965475D01*
X138781676Y-93990209D01*
X138802561Y-94011093D01*
X138827295Y-94060561D01*
X138827295Y-94177532D01*
X138802561Y-94227000D01*
X138781677Y-94247883D01*
X138732209Y-94272618D01*
X138102295Y-94272618D01*
X138054086Y-94290165D01*
X138028434Y-94334594D01*
X137913164Y-94334594D01*
X137913164Y-93047553D01*
X138027450Y-93047553D01*
X138041858Y-93096791D01*
X138060692Y-93114784D01*
X138367086Y-93319047D01*
X138060692Y-93523310D01*
X138030313Y-93564652D01*
X138033615Y-93615848D01*
X138069053Y-93652945D01*
X138120045Y-93658584D01*
X138143898Y-93648118D01*
X138502295Y-93409186D01*
X138860693Y-93648118D01*
X138910538Y-93660259D01*
X138956527Y-93637522D01*
X138977140Y-93590541D01*
X138962733Y-93541303D01*
X138943898Y-93523310D01*
X138637503Y-93319047D01*
X138943898Y-93114784D01*
X138974277Y-93073442D01*
X138970976Y-93022246D01*
X138935537Y-92985149D01*
X138884545Y-92979510D01*
X138860693Y-92989976D01*
X138502295Y-93228907D01*
X138143898Y-92989976D01*
X138094052Y-92977835D01*
X138048063Y-93000573D01*
X138027450Y-93047553D01*
X137913164Y-93047553D01*
X137913164Y-92552315D01*
X138027450Y-92552315D01*
X138033563Y-92573209D01*
X138037343Y-92594642D01*
X138040645Y-92597413D01*
X138041857Y-92601553D01*
X138060692Y-92619546D01*
X138168800Y-92691618D01*
X138231131Y-92753950D01*
X138263784Y-92819255D01*
X138301038Y-92854527D01*
X138352248Y-92857602D01*
X138393454Y-92827039D01*
X138405375Y-92777140D01*
X138397948Y-92752173D01*
X138359853Y-92675982D01*
X138358666Y-92674858D01*
X138345804Y-92656490D01*
X138321456Y-92632142D01*
X138827295Y-92632142D01*
X138827295Y-92785714D01*
X138844842Y-92833923D01*
X138889271Y-92859575D01*
X138939795Y-92850666D01*
X138972772Y-92811366D01*
X138977295Y-92785714D01*
X138977295Y-92328571D01*
X138959748Y-92280362D01*
X138915319Y-92254710D01*
X138864795Y-92263619D01*
X138831818Y-92302919D01*
X138827295Y-92328571D01*
X138827295Y-92482142D01*
X138102295Y-92482142D01*
X138098241Y-92483617D01*
X138094052Y-92482597D01*
X138074538Y-92492244D01*
X138054086Y-92499689D01*
X138051930Y-92503422D01*
X138048064Y-92505334D01*
X138039317Y-92525267D01*
X138028434Y-92544118D01*
X138029182Y-92548365D01*
X138027450Y-92552315D01*
X137913164Y-92552315D01*
X137913164Y-92140424D01*
X139091581Y-92140424D01*
X139091581Y-95333055D01*
G37*
X95589537Y-100861900D02*
X95320163Y-100592526D01*
X95320163Y-100592526D02*
X95885849Y-100026841D01*
X96613158Y-100754150D02*
X96343784Y-100484776D01*
X96343784Y-100484776D02*
X96047473Y-100727213D01*
X96047473Y-100727213D02*
X96101348Y-100727213D01*
X96101348Y-100727213D02*
X96182160Y-100754150D01*
X96182160Y-100754150D02*
X96316847Y-100888837D01*
X96316847Y-100888837D02*
X96343784Y-100969650D01*
X96343784Y-100969650D02*
X96343784Y-101023524D01*
X96343784Y-101023524D02*
X96316847Y-101104337D01*
X96316847Y-101104337D02*
X96182160Y-101239024D01*
X96182160Y-101239024D02*
X96101348Y-101265961D01*
X96101348Y-101265961D02*
X96047473Y-101265961D01*
X96047473Y-101265961D02*
X95966661Y-101239024D01*
X95966661Y-101239024D02*
X95831974Y-101104337D01*
X95831974Y-101104337D02*
X95805036Y-101023524D01*
X95805036Y-101023524D02*
X95805036Y-100969650D01*
X105860942Y-113851934D02*
X105456881Y-114255995D01*
X105456881Y-114255995D02*
X105349131Y-114309870D01*
X105349131Y-114309870D02*
X105241382Y-114309870D01*
X105241382Y-114309870D02*
X105133632Y-114255995D01*
X105133632Y-114255995D02*
X105079757Y-114202120D01*
X106184191Y-114552306D02*
X105807067Y-114929430D01*
X106265003Y-114202120D02*
X105726255Y-114471494D01*
X105726255Y-114471494D02*
X106076441Y-114821680D01*
D11*
G36*
X109000586Y-105612474D02*
G01*
X109101890Y-105713778D01*
X109122965Y-105777001D01*
X109122965Y-105867762D01*
X109042535Y-106001813D01*
X108824238Y-106220108D01*
X108690191Y-106300537D01*
X108599431Y-106300537D01*
X108536204Y-106279462D01*
X108434902Y-106178160D01*
X108413828Y-106114934D01*
X108413828Y-106024173D01*
X108494257Y-105890124D01*
X108712553Y-105671828D01*
X108846603Y-105591400D01*
X108937364Y-105591400D01*
X109000586Y-105612474D01*
G37*
G36*
X107721059Y-104332947D02*
G01*
X107822363Y-104434251D01*
X107843438Y-104497474D01*
X107843438Y-104588235D01*
X107763009Y-104722284D01*
X107544713Y-104940580D01*
X107410664Y-105021011D01*
X107319902Y-105021011D01*
X107256679Y-104999936D01*
X107155375Y-104898632D01*
X107134301Y-104835409D01*
X107134301Y-104744647D01*
X107214730Y-104610598D01*
X107433025Y-104392303D01*
X107567075Y-104311873D01*
X107657837Y-104311873D01*
X107721059Y-104332947D01*
G37*
G36*
X106643563Y-103928886D02*
G01*
X106825535Y-104110858D01*
X106596567Y-104339825D01*
X106414596Y-104157853D01*
X106393522Y-104094630D01*
X106393522Y-104059742D01*
X106414596Y-103996518D01*
X106482228Y-103928886D01*
X106545452Y-103907812D01*
X106580341Y-103907812D01*
X106643563Y-103928886D01*
G37*
G36*
X105397708Y-102750375D02*
G01*
X105546009Y-102898674D01*
X105350713Y-103093970D01*
X105202413Y-102945670D01*
X105181339Y-102882447D01*
X105181339Y-102847558D01*
X105202413Y-102784335D01*
X105236372Y-102750375D01*
X105299597Y-102729301D01*
X105334486Y-102729301D01*
X105397708Y-102750375D01*
G37*
G36*
X105734426Y-102346314D02*
G01*
X105916398Y-102528286D01*
X105687430Y-102757253D01*
X105533913Y-102603736D01*
X105484385Y-102504679D01*
X105484385Y-102477169D01*
X105505459Y-102413946D01*
X105573091Y-102346314D01*
X105636314Y-102325240D01*
X105671204Y-102325240D01*
X105734426Y-102346314D01*
G37*
G36*
X110475554Y-106602568D02*
G01*
X109424994Y-107653127D01*
X108613597Y-106841730D01*
X108853650Y-106841730D01*
X108861086Y-106862179D01*
X108864490Y-106883669D01*
X108871422Y-106890601D01*
X108874772Y-106899813D01*
X108892805Y-106911984D01*
X108908192Y-106927371D01*
X108917874Y-106928904D01*
X108925999Y-106934388D01*
X108947741Y-106933635D01*
X108969234Y-106937039D01*
X108977969Y-106932588D01*
X108987765Y-106932249D01*
X109527159Y-106736105D01*
X109331016Y-107275500D01*
X109330676Y-107285295D01*
X109326226Y-107294031D01*
X109329629Y-107315523D01*
X109328877Y-107337266D01*
X109334360Y-107345390D01*
X109335894Y-107355073D01*
X109351280Y-107370459D01*
X109363452Y-107388493D01*
X109372663Y-107391842D01*
X109379596Y-107398775D01*
X109401085Y-107402178D01*
X109421535Y-107409615D01*
X109430958Y-107406909D01*
X109440638Y-107408443D01*
X109460021Y-107398566D01*
X109480939Y-107392562D01*
X109486972Y-107384835D01*
X109495706Y-107380385D01*
X110202813Y-106673278D01*
X110230872Y-106618211D01*
X110221203Y-106557169D01*
X110177501Y-106513467D01*
X110116459Y-106503798D01*
X110061392Y-106531857D01*
X109673016Y-106920231D01*
X109788348Y-106603070D01*
X109789012Y-106583890D01*
X109794310Y-106565436D01*
X109790056Y-106553739D01*
X109790487Y-106541304D01*
X109779748Y-106525393D01*
X109773188Y-106507353D01*
X109762873Y-106500391D01*
X109755912Y-106490077D01*
X109737871Y-106483516D01*
X109721961Y-106472778D01*
X109709525Y-106473208D01*
X109697829Y-106468955D01*
X109679374Y-106474252D01*
X109660195Y-106474917D01*
X109343033Y-106590248D01*
X109731408Y-106201873D01*
X109759467Y-106146806D01*
X109749798Y-106085764D01*
X109706096Y-106042062D01*
X109645054Y-106032393D01*
X109589987Y-106060452D01*
X108882880Y-106767559D01*
X108878429Y-106776292D01*
X108870703Y-106782326D01*
X108864698Y-106803243D01*
X108854822Y-106822627D01*
X108856355Y-106832306D01*
X108853650Y-106841730D01*
X108613597Y-106841730D01*
X107903030Y-106131163D01*
X108213828Y-106131163D01*
X108218835Y-106146576D01*
X108218959Y-106162785D01*
X108252630Y-106263801D01*
X108266322Y-106282350D01*
X108276788Y-106302890D01*
X108411475Y-106437577D01*
X108432014Y-106448042D01*
X108450564Y-106461735D01*
X108551580Y-106495406D01*
X108567788Y-106495529D01*
X108583202Y-106500537D01*
X108717889Y-106500537D01*
X108743303Y-106492279D01*
X108769339Y-106486286D01*
X108937697Y-106385271D01*
X108945867Y-106375883D01*
X108956958Y-106370233D01*
X109192661Y-106134531D01*
X109198312Y-106123439D01*
X109207699Y-106115269D01*
X109308714Y-105946911D01*
X109314707Y-105920875D01*
X109322965Y-105895461D01*
X109322965Y-105760774D01*
X109317956Y-105745358D01*
X109317833Y-105729151D01*
X109284161Y-105628136D01*
X109270470Y-105609589D01*
X109260004Y-105589048D01*
X109125317Y-105454361D01*
X109104775Y-105443894D01*
X109086229Y-105430204D01*
X108985214Y-105396532D01*
X108969006Y-105396408D01*
X108953591Y-105391400D01*
X108818904Y-105391400D01*
X108793489Y-105399657D01*
X108767454Y-105405651D01*
X108599096Y-105506666D01*
X108590925Y-105516052D01*
X108579834Y-105521704D01*
X108344132Y-105757406D01*
X108338481Y-105768496D01*
X108329093Y-105776668D01*
X108228079Y-105945027D01*
X108222086Y-105971059D01*
X108213828Y-105996476D01*
X108213828Y-106131163D01*
X107903030Y-106131163D01*
X107245238Y-105473371D01*
X107474280Y-105473371D01*
X107502338Y-105528439D01*
X107906400Y-105932500D01*
X107961467Y-105960559D01*
X108022509Y-105950890D01*
X108066211Y-105907188D01*
X108075880Y-105846146D01*
X108047821Y-105791079D01*
X107916501Y-105659759D01*
X108552897Y-105023362D01*
X108580956Y-104968295D01*
X108571287Y-104907253D01*
X108527585Y-104863551D01*
X108466543Y-104853882D01*
X108411476Y-104881941D01*
X107775079Y-105518337D01*
X107643760Y-105387017D01*
X107588692Y-105358959D01*
X107527650Y-105368627D01*
X107483948Y-105412329D01*
X107474280Y-105473371D01*
X107245238Y-105473371D01*
X106623504Y-104851637D01*
X106934301Y-104851637D01*
X106939309Y-104867052D01*
X106939433Y-104883260D01*
X106973105Y-104984275D01*
X106986795Y-105002821D01*
X106997262Y-105023363D01*
X107131949Y-105158050D01*
X107152490Y-105168516D01*
X107171037Y-105182207D01*
X107272052Y-105215879D01*
X107288259Y-105216002D01*
X107303675Y-105221011D01*
X107438362Y-105221011D01*
X107463776Y-105212753D01*
X107489812Y-105206760D01*
X107658171Y-105105744D01*
X107666341Y-105096356D01*
X107677432Y-105090706D01*
X107913134Y-104855004D01*
X107918785Y-104843912D01*
X107928172Y-104835742D01*
X108029187Y-104667384D01*
X108035180Y-104641348D01*
X108043438Y-104615934D01*
X108043438Y-104481247D01*
X108038429Y-104465831D01*
X108038306Y-104449624D01*
X108004634Y-104348609D01*
X107990943Y-104330062D01*
X107980477Y-104309521D01*
X107845790Y-104174834D01*
X107825248Y-104164367D01*
X107806702Y-104150677D01*
X107705687Y-104117005D01*
X107689479Y-104116881D01*
X107674064Y-104111873D01*
X107539377Y-104111873D01*
X107513962Y-104120130D01*
X107487927Y-104126124D01*
X107319568Y-104227140D01*
X107311397Y-104236527D01*
X107300307Y-104242178D01*
X107064605Y-104477880D01*
X107058954Y-104488970D01*
X107049566Y-104497142D01*
X106948552Y-104665501D01*
X106942559Y-104691533D01*
X106934301Y-104716950D01*
X106934301Y-104851637D01*
X106623504Y-104851637D01*
X105882725Y-104110858D01*
X106193522Y-104110858D01*
X106198530Y-104126273D01*
X106198654Y-104142481D01*
X106232326Y-104243496D01*
X106246016Y-104262042D01*
X106256483Y-104282584D01*
X106525857Y-104551957D01*
X106539968Y-104559147D01*
X106551169Y-104570348D01*
X106566812Y-104572825D01*
X106580924Y-104580016D01*
X106596567Y-104577538D01*
X106612211Y-104580016D01*
X106626323Y-104572825D01*
X106641967Y-104570348D01*
X106653166Y-104559148D01*
X106667279Y-104551958D01*
X107374386Y-103844851D01*
X107402445Y-103789784D01*
X107392776Y-103728742D01*
X107349074Y-103685040D01*
X107288032Y-103675371D01*
X107232965Y-103703430D01*
X106966957Y-103969436D01*
X106906125Y-103908604D01*
X106998092Y-103387458D01*
X106989500Y-103326255D01*
X106946574Y-103281791D01*
X106885710Y-103271051D01*
X106830158Y-103298136D01*
X106801136Y-103352701D01*
X106731343Y-103748193D01*
X106729206Y-103746616D01*
X106628191Y-103712944D01*
X106611983Y-103712820D01*
X106596568Y-103707812D01*
X106529225Y-103707812D01*
X106513809Y-103712820D01*
X106497602Y-103712944D01*
X106396586Y-103746616D01*
X106378041Y-103760305D01*
X106357498Y-103770773D01*
X106256483Y-103871788D01*
X106246016Y-103892329D01*
X106232326Y-103910876D01*
X106198654Y-104011892D01*
X106198530Y-104028099D01*
X106193522Y-104043515D01*
X106193522Y-104110858D01*
X105882725Y-104110858D01*
X104670542Y-102898675D01*
X104981339Y-102898675D01*
X104986347Y-102914090D01*
X104986471Y-102930298D01*
X105020143Y-103031313D01*
X105033833Y-103049859D01*
X105044300Y-103070401D01*
X105280002Y-103306103D01*
X105294114Y-103313293D01*
X105305314Y-103324493D01*
X105320958Y-103326970D01*
X105335070Y-103334161D01*
X105350713Y-103331683D01*
X105366356Y-103334161D01*
X105380467Y-103326970D01*
X105396112Y-103324493D01*
X105407311Y-103313293D01*
X105421424Y-103306103D01*
X106128531Y-102598996D01*
X106135721Y-102584884D01*
X106146921Y-102573685D01*
X106149398Y-102558042D01*
X106156590Y-102543929D01*
X106154111Y-102528283D01*
X106156589Y-102512642D01*
X106149399Y-102498531D01*
X106146921Y-102482887D01*
X106135720Y-102471686D01*
X106128530Y-102457575D01*
X105859157Y-102188201D01*
X105838615Y-102177734D01*
X105820069Y-102164044D01*
X105719054Y-102130372D01*
X105702846Y-102130248D01*
X105687431Y-102125240D01*
X105620087Y-102125240D01*
X105604671Y-102130248D01*
X105588464Y-102130372D01*
X105487449Y-102164044D01*
X105468904Y-102177733D01*
X105448361Y-102188201D01*
X105347346Y-102289216D01*
X105336879Y-102309757D01*
X105323189Y-102328304D01*
X105289517Y-102429319D01*
X105289393Y-102445526D01*
X105284385Y-102460942D01*
X105284385Y-102528286D01*
X105284715Y-102529301D01*
X105283370Y-102529301D01*
X105267954Y-102534309D01*
X105251747Y-102534433D01*
X105150731Y-102568105D01*
X105132182Y-102581797D01*
X105111643Y-102592263D01*
X105044300Y-102659605D01*
X105033833Y-102680146D01*
X105020143Y-102698693D01*
X104986471Y-102799708D01*
X104986347Y-102815915D01*
X104981339Y-102831331D01*
X104981339Y-102898675D01*
X104670542Y-102898675D01*
X104603199Y-102831332D01*
X105653758Y-101780773D01*
X110475554Y-106602568D01*
G37*
D10*
X129594819Y-104533333D02*
X130309104Y-104533333D01*
X130309104Y-104533333D02*
X130451961Y-104580952D01*
X130451961Y-104580952D02*
X130547200Y-104676190D01*
X130547200Y-104676190D02*
X130594819Y-104819047D01*
X130594819Y-104819047D02*
X130594819Y-104914285D01*
X129594819Y-103628571D02*
X129594819Y-103819047D01*
X129594819Y-103819047D02*
X129642438Y-103914285D01*
X129642438Y-103914285D02*
X129690057Y-103961904D01*
X129690057Y-103961904D02*
X129832914Y-104057142D01*
X129832914Y-104057142D02*
X130023390Y-104104761D01*
X130023390Y-104104761D02*
X130404342Y-104104761D01*
X130404342Y-104104761D02*
X130499580Y-104057142D01*
X130499580Y-104057142D02*
X130547200Y-104009523D01*
X130547200Y-104009523D02*
X130594819Y-103914285D01*
X130594819Y-103914285D02*
X130594819Y-103723809D01*
X130594819Y-103723809D02*
X130547200Y-103628571D01*
X130547200Y-103628571D02*
X130499580Y-103580952D01*
X130499580Y-103580952D02*
X130404342Y-103533333D01*
X130404342Y-103533333D02*
X130166247Y-103533333D01*
X130166247Y-103533333D02*
X130071009Y-103580952D01*
X130071009Y-103580952D02*
X130023390Y-103628571D01*
X130023390Y-103628571D02*
X129975771Y-103723809D01*
X129975771Y-103723809D02*
X129975771Y-103914285D01*
X129975771Y-103914285D02*
X130023390Y-104009523D01*
X130023390Y-104009523D02*
X130071009Y-104057142D01*
X130071009Y-104057142D02*
X130166247Y-104104761D01*
G36*
X132235642Y-105642192D02*
G01*
X132293582Y-105671162D01*
X132348648Y-105726227D01*
X132377295Y-105812168D01*
X132377295Y-105915475D01*
X131727295Y-105915475D01*
X131727295Y-105812168D01*
X131755942Y-105726226D01*
X131811006Y-105671162D01*
X131868945Y-105642192D01*
X132004387Y-105608332D01*
X132100203Y-105608332D01*
X132235642Y-105642192D01*
G37*
G36*
X131912630Y-104147352D02*
G01*
X131933512Y-104168234D01*
X131958247Y-104217703D01*
X131958247Y-104391665D01*
X131727295Y-104391665D01*
X131727295Y-104217703D01*
X131752029Y-104168234D01*
X131772911Y-104147352D01*
X131822381Y-104122618D01*
X131863161Y-104122618D01*
X131912630Y-104147352D01*
G37*
G36*
X132331676Y-104109256D02*
G01*
X132352561Y-104130140D01*
X132377295Y-104179608D01*
X132377295Y-104391665D01*
X132108247Y-104391665D01*
X132108247Y-104212168D01*
X132136893Y-104126227D01*
X132153863Y-104109257D01*
X132203334Y-104084522D01*
X132282208Y-104084522D01*
X132331676Y-104109256D01*
G37*
G36*
X132641581Y-106179761D02*
G01*
X131463009Y-106179761D01*
X131463009Y-105990475D01*
X131577295Y-105990475D01*
X131583958Y-106008783D01*
X131587343Y-106027975D01*
X131592527Y-106032325D01*
X131594842Y-106038684D01*
X131611715Y-106048426D01*
X131626643Y-106060952D01*
X131636385Y-106062669D01*
X131639271Y-106064336D01*
X131642553Y-106063757D01*
X131652295Y-106065475D01*
X132452295Y-106065475D01*
X132470603Y-106058811D01*
X132489795Y-106055427D01*
X132494145Y-106050242D01*
X132500504Y-106047928D01*
X132510246Y-106031054D01*
X132522772Y-106016127D01*
X132524489Y-106006384D01*
X132526156Y-106003499D01*
X132525577Y-106000216D01*
X132527295Y-105990475D01*
X132527295Y-105799999D01*
X132526734Y-105798460D01*
X132523446Y-105776282D01*
X132485351Y-105661996D01*
X132482564Y-105658485D01*
X132482174Y-105654017D01*
X132467233Y-105632680D01*
X132391042Y-105556490D01*
X132389560Y-105555799D01*
X132371550Y-105542441D01*
X132295360Y-105504346D01*
X132291833Y-105503940D01*
X132280010Y-105498667D01*
X132127629Y-105460571D01*
X132124180Y-105460931D01*
X132109438Y-105458332D01*
X131995152Y-105458332D01*
X131991894Y-105459517D01*
X131976962Y-105460571D01*
X131824580Y-105498667D01*
X131821636Y-105500655D01*
X131809230Y-105504346D01*
X131733039Y-105542441D01*
X131731915Y-105543627D01*
X131713547Y-105556490D01*
X131637357Y-105632680D01*
X131635462Y-105636743D01*
X131631641Y-105639091D01*
X131619239Y-105661996D01*
X131581144Y-105776282D01*
X131581188Y-105777916D01*
X131577295Y-105799999D01*
X131577295Y-105990475D01*
X131463009Y-105990475D01*
X131463009Y-105190475D01*
X131577295Y-105190475D01*
X131583958Y-105208783D01*
X131587343Y-105227975D01*
X131592527Y-105232325D01*
X131594842Y-105238684D01*
X131611715Y-105248426D01*
X131626643Y-105260952D01*
X131636385Y-105262669D01*
X131639271Y-105264336D01*
X131642553Y-105263757D01*
X131652295Y-105265475D01*
X132452295Y-105265475D01*
X132470603Y-105258811D01*
X132489795Y-105255427D01*
X132494145Y-105250242D01*
X132500504Y-105247928D01*
X132510246Y-105231054D01*
X132522772Y-105216127D01*
X132524489Y-105206384D01*
X132526156Y-105203499D01*
X132525577Y-105200216D01*
X132527295Y-105190475D01*
X132527295Y-104809523D01*
X132509748Y-104761314D01*
X132465319Y-104735662D01*
X132414795Y-104744571D01*
X132381818Y-104783871D01*
X132377295Y-104809523D01*
X132377295Y-105115475D01*
X132108247Y-105115475D01*
X132108247Y-104923809D01*
X132090700Y-104875600D01*
X132046271Y-104849948D01*
X131995747Y-104858857D01*
X131962770Y-104898157D01*
X131958247Y-104923809D01*
X131958247Y-105115475D01*
X131727295Y-105115475D01*
X131727295Y-104809523D01*
X131709748Y-104761314D01*
X131665319Y-104735662D01*
X131614795Y-104744571D01*
X131581818Y-104783871D01*
X131577295Y-104809523D01*
X131577295Y-105190475D01*
X131463009Y-105190475D01*
X131463009Y-104466665D01*
X131577295Y-104466665D01*
X131583958Y-104484973D01*
X131587343Y-104504165D01*
X131592527Y-104508515D01*
X131594842Y-104514874D01*
X131611715Y-104524616D01*
X131626643Y-104537142D01*
X131636385Y-104538859D01*
X131639271Y-104540526D01*
X131642553Y-104539947D01*
X131652295Y-104541665D01*
X132452295Y-104541665D01*
X132470603Y-104535001D01*
X132489795Y-104531617D01*
X132494145Y-104526432D01*
X132500504Y-104524118D01*
X132510246Y-104507244D01*
X132522772Y-104492317D01*
X132524489Y-104482574D01*
X132526156Y-104479689D01*
X132525577Y-104476406D01*
X132527295Y-104466665D01*
X132527295Y-104161903D01*
X132525761Y-104157689D01*
X132526803Y-104153329D01*
X132519377Y-104128362D01*
X132481282Y-104052172D01*
X132480094Y-104051047D01*
X132467232Y-104032679D01*
X132429136Y-103994584D01*
X132427650Y-103993891D01*
X132409645Y-103980536D01*
X132333456Y-103942440D01*
X132329001Y-103941927D01*
X132325566Y-103939045D01*
X132299914Y-103934522D01*
X132185628Y-103934522D01*
X132181413Y-103936055D01*
X132177052Y-103935014D01*
X132152086Y-103942441D01*
X132075896Y-103980536D01*
X132074768Y-103981726D01*
X132056406Y-103994584D01*
X132018310Y-104032679D01*
X132016414Y-104036743D01*
X132015013Y-104037603D01*
X132010090Y-104032680D01*
X132008608Y-104031989D01*
X131990598Y-104018631D01*
X131914407Y-103980536D01*
X131909953Y-103980023D01*
X131906518Y-103977141D01*
X131880866Y-103972618D01*
X131804676Y-103972618D01*
X131800463Y-103974151D01*
X131796102Y-103973109D01*
X131771135Y-103980536D01*
X131694944Y-104018631D01*
X131693818Y-104019820D01*
X131675452Y-104032680D01*
X131637357Y-104070775D01*
X131636666Y-104072256D01*
X131623308Y-104090267D01*
X131585213Y-104166458D01*
X131584700Y-104170911D01*
X131581818Y-104174347D01*
X131577295Y-104199999D01*
X131577295Y-104466665D01*
X131463009Y-104466665D01*
X131463009Y-103653641D01*
X131578434Y-103653641D01*
X131587343Y-103704165D01*
X131626643Y-103737142D01*
X131652295Y-103741665D01*
X132299914Y-103741665D01*
X132304127Y-103740131D01*
X132308488Y-103741173D01*
X132333455Y-103733747D01*
X132409645Y-103695652D01*
X132410770Y-103694463D01*
X132429136Y-103681604D01*
X132467232Y-103643509D01*
X132467922Y-103642027D01*
X132481282Y-103624016D01*
X132519377Y-103547825D01*
X132519889Y-103543371D01*
X132522772Y-103539936D01*
X132527295Y-103514284D01*
X132527295Y-103361903D01*
X132525761Y-103357689D01*
X132526803Y-103353329D01*
X132519377Y-103328362D01*
X132481282Y-103252172D01*
X132480094Y-103251047D01*
X132467232Y-103232679D01*
X132429136Y-103194584D01*
X132427650Y-103193891D01*
X132409645Y-103180536D01*
X132333456Y-103142440D01*
X132329001Y-103141927D01*
X132325566Y-103139045D01*
X132299914Y-103134522D01*
X131652295Y-103134522D01*
X131604086Y-103152069D01*
X131578434Y-103196498D01*
X131587343Y-103247022D01*
X131626643Y-103279999D01*
X131652295Y-103284522D01*
X132282208Y-103284522D01*
X132331676Y-103309256D01*
X132352561Y-103330140D01*
X132377295Y-103379608D01*
X132377295Y-103496579D01*
X132352561Y-103546047D01*
X132331677Y-103566930D01*
X132282209Y-103591665D01*
X131652295Y-103591665D01*
X131604086Y-103609212D01*
X131578434Y-103653641D01*
X131463009Y-103653641D01*
X131463009Y-102599999D01*
X131577295Y-102599999D01*
X131577855Y-102601537D01*
X131581144Y-102623716D01*
X131619239Y-102738002D01*
X131622026Y-102741514D01*
X131622417Y-102745981D01*
X131637357Y-102767318D01*
X131713547Y-102843508D01*
X131715028Y-102844198D01*
X131733039Y-102857557D01*
X131809230Y-102895652D01*
X131812756Y-102896057D01*
X131824580Y-102901331D01*
X131976962Y-102939427D01*
X131980410Y-102939066D01*
X131995152Y-102941666D01*
X132109438Y-102941666D01*
X132112695Y-102940480D01*
X132127629Y-102939427D01*
X132280010Y-102901331D01*
X132282955Y-102899341D01*
X132295360Y-102895652D01*
X132371550Y-102857557D01*
X132372673Y-102856370D01*
X132391042Y-102843508D01*
X132467233Y-102767318D01*
X132469127Y-102763254D01*
X132472949Y-102760907D01*
X132485351Y-102738002D01*
X132523446Y-102623716D01*
X132523401Y-102622081D01*
X132527295Y-102599999D01*
X132527295Y-102523808D01*
X132526734Y-102522269D01*
X132523446Y-102500091D01*
X132485351Y-102385806D01*
X132482564Y-102382295D01*
X132482174Y-102377827D01*
X132467233Y-102356490D01*
X132429137Y-102318394D01*
X132414299Y-102311475D01*
X132401756Y-102300950D01*
X132385628Y-102298106D01*
X132382640Y-102296713D01*
X132380689Y-102297235D01*
X132376104Y-102296427D01*
X132109438Y-102296427D01*
X132091129Y-102303090D01*
X132071938Y-102306475D01*
X132067587Y-102311659D01*
X132061229Y-102313974D01*
X132051486Y-102330847D01*
X132038961Y-102345775D01*
X132037243Y-102355517D01*
X132035577Y-102358403D01*
X132036155Y-102361685D01*
X132034438Y-102371427D01*
X132034438Y-102523808D01*
X132051985Y-102572017D01*
X132096414Y-102597669D01*
X132146938Y-102588760D01*
X132179915Y-102549460D01*
X132184438Y-102523808D01*
X132184438Y-102446427D01*
X132345038Y-102446427D01*
X132348648Y-102450037D01*
X132377295Y-102535978D01*
X132377295Y-102587829D01*
X132348648Y-102673770D01*
X132293582Y-102728835D01*
X132235642Y-102757805D01*
X132100203Y-102791666D01*
X132004387Y-102791666D01*
X131868945Y-102757805D01*
X131811006Y-102728835D01*
X131755942Y-102673771D01*
X131727295Y-102587829D01*
X131727295Y-102503418D01*
X131757472Y-102443064D01*
X131763337Y-102392097D01*
X131735071Y-102349284D01*
X131685896Y-102334658D01*
X131638825Y-102355061D01*
X131623308Y-102375982D01*
X131585213Y-102452172D01*
X131584700Y-102456625D01*
X131581818Y-102460061D01*
X131577295Y-102485713D01*
X131577295Y-102599999D01*
X131463009Y-102599999D01*
X131463009Y-102182141D01*
X132641581Y-102182141D01*
X132641581Y-106179761D01*
G37*
X114493412Y-79458025D02*
X114439537Y-79458025D01*
X114439537Y-79458025D02*
X114331788Y-79404151D01*
X114331788Y-79404151D02*
X114277913Y-79350276D01*
X114277913Y-79350276D02*
X114224038Y-79242526D01*
X114224038Y-79242526D02*
X114224038Y-79134777D01*
X114224038Y-79134777D02*
X114250976Y-79053964D01*
X114250976Y-79053964D02*
X114331788Y-78919277D01*
X114331788Y-78919277D02*
X114412600Y-78838465D01*
X114412600Y-78838465D02*
X114547287Y-78757653D01*
X114547287Y-78757653D02*
X114628099Y-78730716D01*
X114628099Y-78730716D02*
X114735849Y-78730716D01*
X114735849Y-78730716D02*
X114843598Y-78784590D01*
X114843598Y-78784590D02*
X114897473Y-78838465D01*
X114897473Y-78838465D02*
X114951348Y-78946215D01*
X114951348Y-78946215D02*
X114951348Y-79000090D01*
X115301534Y-79619650D02*
X114924411Y-79996774D01*
X115382346Y-79269464D02*
X114843598Y-79538838D01*
X114843598Y-79538838D02*
X115193785Y-79889024D01*
X112306724Y-76847574D02*
X112239380Y-76847574D01*
X112239380Y-76847574D02*
X112104693Y-76780230D01*
X112104693Y-76780230D02*
X112037350Y-76712887D01*
X112037350Y-76712887D02*
X111970006Y-76578200D01*
X111970006Y-76578200D02*
X111970006Y-76443513D01*
X111970006Y-76443513D02*
X112003678Y-76342498D01*
X112003678Y-76342498D02*
X112104693Y-76174139D01*
X112104693Y-76174139D02*
X112205708Y-76073124D01*
X112205708Y-76073124D02*
X112374067Y-75972108D01*
X112374067Y-75972108D02*
X112475082Y-75938437D01*
X112475082Y-75938437D02*
X112609769Y-75938437D01*
X112609769Y-75938437D02*
X112744456Y-76005780D01*
X112744456Y-76005780D02*
X112811800Y-76073124D01*
X112811800Y-76073124D02*
X112879143Y-76207811D01*
X112879143Y-76207811D02*
X112879143Y-76275154D01*
X113182189Y-76443513D02*
X113619922Y-76881246D01*
X113619922Y-76881246D02*
X113114846Y-76914917D01*
X113114846Y-76914917D02*
X113215861Y-77015933D01*
X113215861Y-77015933D02*
X113249533Y-77116948D01*
X113249533Y-77116948D02*
X113249533Y-77184291D01*
X113249533Y-77184291D02*
X113215861Y-77285307D01*
X113215861Y-77285307D02*
X113047502Y-77453665D01*
X113047502Y-77453665D02*
X112946487Y-77487337D01*
X112946487Y-77487337D02*
X112879143Y-77487337D01*
X112879143Y-77487337D02*
X112778128Y-77453665D01*
X112778128Y-77453665D02*
X112576098Y-77251635D01*
X112576098Y-77251635D02*
X112542426Y-77150620D01*
X112542426Y-77150620D02*
X112542426Y-77083276D01*
X110798025Y-69546586D02*
X110798025Y-69600461D01*
X110798025Y-69600461D02*
X110744151Y-69708210D01*
X110744151Y-69708210D02*
X110690276Y-69762085D01*
X110690276Y-69762085D02*
X110582526Y-69815960D01*
X110582526Y-69815960D02*
X110474777Y-69815960D01*
X110474777Y-69815960D02*
X110393964Y-69789022D01*
X110393964Y-69789022D02*
X110259277Y-69708210D01*
X110259277Y-69708210D02*
X110178465Y-69627398D01*
X110178465Y-69627398D02*
X110097653Y-69492711D01*
X110097653Y-69492711D02*
X110070716Y-69411899D01*
X110070716Y-69411899D02*
X110070716Y-69304149D01*
X110070716Y-69304149D02*
X110124590Y-69196400D01*
X110124590Y-69196400D02*
X110178465Y-69142525D01*
X110178465Y-69142525D02*
X110286215Y-69088650D01*
X110286215Y-69088650D02*
X110340090Y-69088650D01*
X110555589Y-68873151D02*
X110555589Y-68819276D01*
X110555589Y-68819276D02*
X110582526Y-68738464D01*
X110582526Y-68738464D02*
X110717213Y-68603777D01*
X110717213Y-68603777D02*
X110798025Y-68576839D01*
X110798025Y-68576839D02*
X110851900Y-68576839D01*
X110851900Y-68576839D02*
X110932712Y-68603777D01*
X110932712Y-68603777D02*
X110986587Y-68657652D01*
X110986587Y-68657652D02*
X111040462Y-68765401D01*
X111040462Y-68765401D02*
X111040462Y-69411899D01*
X111040462Y-69411899D02*
X111390648Y-69061713D01*
X103974038Y-93938651D02*
X103920163Y-93938651D01*
X103920163Y-93938651D02*
X103812413Y-93884776D01*
X103812413Y-93884776D02*
X103758539Y-93830901D01*
X103758539Y-93830901D02*
X103704664Y-93723152D01*
X103704664Y-93723152D02*
X103704664Y-93615402D01*
X103704664Y-93615402D02*
X103731601Y-93534590D01*
X103731601Y-93534590D02*
X103812413Y-93399903D01*
X103812413Y-93399903D02*
X103893226Y-93319091D01*
X103893226Y-93319091D02*
X104027913Y-93238279D01*
X104027913Y-93238279D02*
X104108725Y-93211341D01*
X104108725Y-93211341D02*
X104216474Y-93211341D01*
X104216474Y-93211341D02*
X104324224Y-93265216D01*
X104324224Y-93265216D02*
X104378099Y-93319091D01*
X104378099Y-93319091D02*
X104431974Y-93426840D01*
X104431974Y-93426840D02*
X104431974Y-93480715D01*
X104458911Y-94531274D02*
X104135662Y-94208025D01*
X104297287Y-94369649D02*
X104862972Y-93803964D01*
X104862972Y-93803964D02*
X104728285Y-93830901D01*
X104728285Y-93830901D02*
X104620535Y-93830901D01*
X104620535Y-93830901D02*
X104539723Y-93803964D01*
X105509470Y-94450462D02*
X105401720Y-94342712D01*
X105401720Y-94342712D02*
X105320908Y-94315775D01*
X105320908Y-94315775D02*
X105267033Y-94315775D01*
X105267033Y-94315775D02*
X105132346Y-94342712D01*
X105132346Y-94342712D02*
X104997659Y-94423524D01*
X104997659Y-94423524D02*
X104782160Y-94639024D01*
X104782160Y-94639024D02*
X104755223Y-94719836D01*
X104755223Y-94719836D02*
X104755223Y-94773711D01*
X104755223Y-94773711D02*
X104782160Y-94854523D01*
X104782160Y-94854523D02*
X104889910Y-94962272D01*
X104889910Y-94962272D02*
X104970722Y-94989210D01*
X104970722Y-94989210D02*
X105024597Y-94989210D01*
X105024597Y-94989210D02*
X105105409Y-94962272D01*
X105105409Y-94962272D02*
X105240096Y-94827585D01*
X105240096Y-94827585D02*
X105267033Y-94746773D01*
X105267033Y-94746773D02*
X105267033Y-94692898D01*
X105267033Y-94692898D02*
X105240096Y-94612086D01*
X105240096Y-94612086D02*
X105132346Y-94504337D01*
X105132346Y-94504337D02*
X105051534Y-94477399D01*
X105051534Y-94477399D02*
X104997659Y-94477399D01*
X104997659Y-94477399D02*
X104916847Y-94504337D01*
X106024038Y-91638651D02*
X105970163Y-91638651D01*
X105970163Y-91638651D02*
X105862413Y-91584776D01*
X105862413Y-91584776D02*
X105808539Y-91530901D01*
X105808539Y-91530901D02*
X105754664Y-91423152D01*
X105754664Y-91423152D02*
X105754664Y-91315402D01*
X105754664Y-91315402D02*
X105781601Y-91234590D01*
X105781601Y-91234590D02*
X105862413Y-91099903D01*
X105862413Y-91099903D02*
X105943226Y-91019091D01*
X105943226Y-91019091D02*
X106077913Y-90938279D01*
X106077913Y-90938279D02*
X106158725Y-90911341D01*
X106158725Y-90911341D02*
X106266474Y-90911341D01*
X106266474Y-90911341D02*
X106374224Y-90965216D01*
X106374224Y-90965216D02*
X106428099Y-91019091D01*
X106428099Y-91019091D02*
X106481974Y-91126840D01*
X106481974Y-91126840D02*
X106481974Y-91180715D01*
X106508911Y-92231274D02*
X106185662Y-91908025D01*
X106347287Y-92069649D02*
X106912972Y-91503964D01*
X106912972Y-91503964D02*
X106778285Y-91530901D01*
X106778285Y-91530901D02*
X106670535Y-91530901D01*
X106670535Y-91530901D02*
X106589723Y-91503964D01*
X107263158Y-91854150D02*
X107640282Y-92231274D01*
X107640282Y-92231274D02*
X106832160Y-92554523D01*
X118232526Y-98669836D02*
X117774590Y-98589024D01*
X117909277Y-98993085D02*
X117343592Y-98427399D01*
X117343592Y-98427399D02*
X117559091Y-98211900D01*
X117559091Y-98211900D02*
X117639903Y-98184963D01*
X117639903Y-98184963D02*
X117693778Y-98184963D01*
X117693778Y-98184963D02*
X117774590Y-98211900D01*
X117774590Y-98211900D02*
X117855402Y-98292712D01*
X117855402Y-98292712D02*
X117882340Y-98373525D01*
X117882340Y-98373525D02*
X117882340Y-98427399D01*
X117882340Y-98427399D02*
X117855402Y-98508212D01*
X117855402Y-98508212D02*
X117639903Y-98723711D01*
X118771274Y-98131088D02*
X118448025Y-98454337D01*
X118609649Y-98292712D02*
X118043964Y-97727027D01*
X118043964Y-97727027D02*
X118070901Y-97861714D01*
X118070901Y-97861714D02*
X118070901Y-97969464D01*
X118070901Y-97969464D02*
X118043964Y-98050276D01*
X118474963Y-97403778D02*
X118474963Y-97349903D01*
X118474963Y-97349903D02*
X118501900Y-97269091D01*
X118501900Y-97269091D02*
X118636587Y-97134404D01*
X118636587Y-97134404D02*
X118717399Y-97107467D01*
X118717399Y-97107467D02*
X118771274Y-97107467D01*
X118771274Y-97107467D02*
X118852086Y-97134404D01*
X118852086Y-97134404D02*
X118905961Y-97188279D01*
X118905961Y-97188279D02*
X118959836Y-97296028D01*
X118959836Y-97296028D02*
X118959836Y-97942526D01*
X118959836Y-97942526D02*
X119310022Y-97592340D01*
X118502295Y-85483332D02*
X118121342Y-85749999D01*
X118502295Y-85940475D02*
X117702295Y-85940475D01*
X117702295Y-85940475D02*
X117702295Y-85635713D01*
X117702295Y-85635713D02*
X117740390Y-85559523D01*
X117740390Y-85559523D02*
X117778485Y-85521428D01*
X117778485Y-85521428D02*
X117854676Y-85483332D01*
X117854676Y-85483332D02*
X117968961Y-85483332D01*
X117968961Y-85483332D02*
X118045152Y-85521428D01*
X118045152Y-85521428D02*
X118083247Y-85559523D01*
X118083247Y-85559523D02*
X118121342Y-85635713D01*
X118121342Y-85635713D02*
X118121342Y-85940475D01*
X117778485Y-85178571D02*
X117740390Y-85140475D01*
X117740390Y-85140475D02*
X117702295Y-85064285D01*
X117702295Y-85064285D02*
X117702295Y-84873809D01*
X117702295Y-84873809D02*
X117740390Y-84797618D01*
X117740390Y-84797618D02*
X117778485Y-84759523D01*
X117778485Y-84759523D02*
X117854676Y-84721428D01*
X117854676Y-84721428D02*
X117930866Y-84721428D01*
X117930866Y-84721428D02*
X118045152Y-84759523D01*
X118045152Y-84759523D02*
X118502295Y-85216666D01*
X118502295Y-85216666D02*
X118502295Y-84721428D01*
X102243412Y-88958025D02*
X102189537Y-88958025D01*
X102189537Y-88958025D02*
X102081788Y-88904151D01*
X102081788Y-88904151D02*
X102027913Y-88850276D01*
X102027913Y-88850276D02*
X101974038Y-88742526D01*
X101974038Y-88742526D02*
X101974038Y-88634777D01*
X101974038Y-88634777D02*
X102000976Y-88553964D01*
X102000976Y-88553964D02*
X102081788Y-88419277D01*
X102081788Y-88419277D02*
X102162600Y-88338465D01*
X102162600Y-88338465D02*
X102297287Y-88257653D01*
X102297287Y-88257653D02*
X102378099Y-88230716D01*
X102378099Y-88230716D02*
X102485849Y-88230716D01*
X102485849Y-88230716D02*
X102593598Y-88284590D01*
X102593598Y-88284590D02*
X102647473Y-88338465D01*
X102647473Y-88338465D02*
X102701348Y-88446215D01*
X102701348Y-88446215D02*
X102701348Y-88500090D01*
X102728285Y-89550648D02*
X102405037Y-89227399D01*
X102566661Y-89389024D02*
X103132346Y-88823338D01*
X103132346Y-88823338D02*
X102997659Y-88850276D01*
X102997659Y-88850276D02*
X102889910Y-88850276D01*
X102889910Y-88850276D02*
X102809098Y-88823338D01*
X103901900Y-90850462D02*
X103443964Y-90769649D01*
X103578651Y-91173710D02*
X103012966Y-90608025D01*
X103012966Y-90608025D02*
X103228465Y-90392526D01*
X103228465Y-90392526D02*
X103309277Y-90365588D01*
X103309277Y-90365588D02*
X103363152Y-90365588D01*
X103363152Y-90365588D02*
X103443964Y-90392526D01*
X103443964Y-90392526D02*
X103524777Y-90473338D01*
X103524777Y-90473338D02*
X103551714Y-90554150D01*
X103551714Y-90554150D02*
X103551714Y-90608025D01*
X103551714Y-90608025D02*
X103524777Y-90688837D01*
X103524777Y-90688837D02*
X103309277Y-90904336D01*
X104009650Y-89988465D02*
X104386774Y-90365588D01*
X103659464Y-89907653D02*
X103928838Y-90446401D01*
X103928838Y-90446401D02*
X104279024Y-90096214D01*
X96401900Y-86600462D02*
X96132526Y-86869836D01*
X96132526Y-86869836D02*
X95566841Y-86304150D01*
X96886773Y-86115589D02*
X96563524Y-86438838D01*
X96725149Y-86277213D02*
X96159463Y-85711528D01*
X96159463Y-85711528D02*
X96186401Y-85846215D01*
X96186401Y-85846215D02*
X96186401Y-85953964D01*
X96186401Y-85953964D02*
X96159463Y-86034776D01*
X102078651Y-100915961D02*
X102078651Y-100969836D01*
X102078651Y-100969836D02*
X102024776Y-101077586D01*
X102024776Y-101077586D02*
X101970901Y-101131460D01*
X101970901Y-101131460D02*
X101863152Y-101185335D01*
X101863152Y-101185335D02*
X101755402Y-101185335D01*
X101755402Y-101185335D02*
X101674590Y-101158398D01*
X101674590Y-101158398D02*
X101539903Y-101077586D01*
X101539903Y-101077586D02*
X101459091Y-100996773D01*
X101459091Y-100996773D02*
X101378279Y-100862086D01*
X101378279Y-100862086D02*
X101351341Y-100781274D01*
X101351341Y-100781274D02*
X101351341Y-100673525D01*
X101351341Y-100673525D02*
X101405216Y-100565775D01*
X101405216Y-100565775D02*
X101459091Y-100511900D01*
X101459091Y-100511900D02*
X101566840Y-100458025D01*
X101566840Y-100458025D02*
X101620715Y-100458025D01*
X102671274Y-100431088D02*
X102348025Y-100754337D01*
X102509649Y-100592712D02*
X101943964Y-100027027D01*
X101943964Y-100027027D02*
X101970901Y-100161714D01*
X101970901Y-100161714D02*
X101970901Y-100269464D01*
X101970901Y-100269464D02*
X101943964Y-100350276D01*
X102671274Y-99784590D02*
X102590462Y-99811528D01*
X102590462Y-99811528D02*
X102536587Y-99811528D01*
X102536587Y-99811528D02*
X102455775Y-99784590D01*
X102455775Y-99784590D02*
X102428837Y-99757653D01*
X102428837Y-99757653D02*
X102401900Y-99676841D01*
X102401900Y-99676841D02*
X102401900Y-99622966D01*
X102401900Y-99622966D02*
X102428837Y-99542154D01*
X102428837Y-99542154D02*
X102536587Y-99434404D01*
X102536587Y-99434404D02*
X102617399Y-99407467D01*
X102617399Y-99407467D02*
X102671274Y-99407467D01*
X102671274Y-99407467D02*
X102752086Y-99434404D01*
X102752086Y-99434404D02*
X102779024Y-99461341D01*
X102779024Y-99461341D02*
X102805961Y-99542154D01*
X102805961Y-99542154D02*
X102805961Y-99596028D01*
X102805961Y-99596028D02*
X102779024Y-99676841D01*
X102779024Y-99676841D02*
X102671274Y-99784590D01*
X102671274Y-99784590D02*
X102644337Y-99865402D01*
X102644337Y-99865402D02*
X102644337Y-99919277D01*
X102644337Y-99919277D02*
X102671274Y-100000089D01*
X102671274Y-100000089D02*
X102779024Y-100107839D01*
X102779024Y-100107839D02*
X102859836Y-100134776D01*
X102859836Y-100134776D02*
X102913711Y-100134776D01*
X102913711Y-100134776D02*
X102994523Y-100107839D01*
X102994523Y-100107839D02*
X103102272Y-100000089D01*
X103102272Y-100000089D02*
X103129210Y-99919277D01*
X103129210Y-99919277D02*
X103129210Y-99865402D01*
X103129210Y-99865402D02*
X103102272Y-99784590D01*
X103102272Y-99784590D02*
X102994523Y-99676841D01*
X102994523Y-99676841D02*
X102913711Y-99649903D01*
X102913711Y-99649903D02*
X102859836Y-99649903D01*
X102859836Y-99649903D02*
X102779024Y-99676841D01*
X105491935Y-72429057D02*
X105895996Y-72833118D01*
X105895996Y-72833118D02*
X105949871Y-72940868D01*
X105949871Y-72940868D02*
X105949871Y-73048617D01*
X105949871Y-73048617D02*
X105895996Y-73156367D01*
X105895996Y-73156367D02*
X105842121Y-73210242D01*
X106623306Y-72429057D02*
X106300057Y-72752306D01*
X106461681Y-72590681D02*
X105895996Y-72024996D01*
X105895996Y-72024996D02*
X105922933Y-72159683D01*
X105922933Y-72159683D02*
X105922933Y-72267433D01*
X105922933Y-72267433D02*
X105895996Y-72348245D01*
D11*
G36*
X106600381Y-83203750D02*
G01*
X106818677Y-83422046D01*
X106899106Y-83556095D01*
X106899106Y-83646856D01*
X106878031Y-83710079D01*
X106776727Y-83811383D01*
X106713505Y-83832458D01*
X106622743Y-83832458D01*
X106488693Y-83752027D01*
X106270398Y-83533732D01*
X106189969Y-83399683D01*
X106189969Y-83308921D01*
X106211043Y-83245698D01*
X106312347Y-83144394D01*
X106375570Y-83123320D01*
X106466332Y-83123320D01*
X106600381Y-83203750D01*
G37*
G36*
X107879906Y-81924222D02*
G01*
X108098203Y-82142517D01*
X108178633Y-82276568D01*
X108178633Y-82367329D01*
X108157558Y-82430552D01*
X108056254Y-82531856D01*
X107993032Y-82552931D01*
X107902271Y-82552931D01*
X107768219Y-82472501D01*
X107549924Y-82254204D01*
X107469496Y-82120156D01*
X107469496Y-82029396D01*
X107490570Y-81966170D01*
X107591872Y-81864868D01*
X107655099Y-81843794D01*
X107745859Y-81843794D01*
X107879906Y-81924222D01*
G37*
G36*
X108493987Y-81124089D02*
G01*
X108561619Y-81191721D01*
X108582694Y-81254944D01*
X108582694Y-81289833D01*
X108561619Y-81353057D01*
X108379647Y-81535028D01*
X108150680Y-81306060D01*
X108332651Y-81124089D01*
X108395875Y-81103015D01*
X108430765Y-81103015D01*
X108493987Y-81124089D01*
G37*
G36*
X109894418Y-80289631D02*
G01*
X109753913Y-80430136D01*
X109613408Y-80149126D01*
X109894418Y-80289631D01*
G37*
G36*
X110672766Y-80400220D02*
G01*
X105887939Y-85185047D01*
X104837379Y-84134487D01*
X104840838Y-84131028D01*
X105080891Y-84131028D01*
X105083596Y-84140451D01*
X105082063Y-84150131D01*
X105091939Y-84169514D01*
X105097944Y-84190432D01*
X105105670Y-84196465D01*
X105110121Y-84205199D01*
X105817228Y-84912305D01*
X105872295Y-84940364D01*
X105933338Y-84930696D01*
X105977040Y-84886994D01*
X105986708Y-84825951D01*
X105958649Y-84770884D01*
X105570275Y-84382509D01*
X105887436Y-84497841D01*
X105906615Y-84498505D01*
X105925070Y-84503803D01*
X105936767Y-84499549D01*
X105949202Y-84499980D01*
X105965110Y-84489243D01*
X105983153Y-84482682D01*
X105990116Y-84472365D01*
X106000429Y-84465405D01*
X106006987Y-84447368D01*
X106017729Y-84431455D01*
X106017298Y-84419017D01*
X106021551Y-84407322D01*
X106016253Y-84388868D01*
X106015589Y-84369688D01*
X105900257Y-84052525D01*
X106288632Y-84440900D01*
X106343699Y-84468959D01*
X106404742Y-84459291D01*
X106448444Y-84415589D01*
X106458112Y-84354546D01*
X106430053Y-84299479D01*
X105722947Y-83592372D01*
X105714213Y-83587921D01*
X105708180Y-83580195D01*
X105687262Y-83574190D01*
X105667879Y-83564314D01*
X105658199Y-83565847D01*
X105648776Y-83563142D01*
X105628326Y-83570578D01*
X105606837Y-83573982D01*
X105599904Y-83580914D01*
X105590693Y-83584264D01*
X105578521Y-83602297D01*
X105563135Y-83617684D01*
X105561601Y-83627366D01*
X105556118Y-83635491D01*
X105556870Y-83657233D01*
X105553467Y-83678726D01*
X105557917Y-83687461D01*
X105558257Y-83697257D01*
X105754400Y-84236652D01*
X105215006Y-84040509D01*
X105205210Y-84040169D01*
X105196475Y-84035719D01*
X105174982Y-84039122D01*
X105153240Y-84038370D01*
X105145115Y-84043853D01*
X105135433Y-84045387D01*
X105120046Y-84060773D01*
X105102013Y-84072945D01*
X105098663Y-84082156D01*
X105091731Y-84089089D01*
X105088327Y-84110578D01*
X105080891Y-84131028D01*
X104840838Y-84131028D01*
X105544485Y-83427381D01*
X105989969Y-83427381D01*
X105998227Y-83452797D01*
X106004220Y-83478830D01*
X106105234Y-83647189D01*
X106114622Y-83655360D01*
X106120273Y-83666451D01*
X106355975Y-83902153D01*
X106367065Y-83907803D01*
X106375236Y-83917191D01*
X106543595Y-84018207D01*
X106569630Y-84024200D01*
X106595045Y-84032458D01*
X106729732Y-84032458D01*
X106745147Y-84027449D01*
X106761355Y-84027326D01*
X106862370Y-83993654D01*
X106880916Y-83979963D01*
X106901458Y-83969497D01*
X107036145Y-83834810D01*
X107046611Y-83814268D01*
X107060302Y-83795722D01*
X107093974Y-83694707D01*
X107094097Y-83678499D01*
X107099106Y-83663084D01*
X107099106Y-83528397D01*
X107090848Y-83502982D01*
X107084855Y-83476947D01*
X106983840Y-83308589D01*
X106974453Y-83300418D01*
X106968802Y-83289327D01*
X106733100Y-83053625D01*
X106722009Y-83047974D01*
X106713839Y-83038587D01*
X106545480Y-82937571D01*
X106519444Y-82931577D01*
X106494030Y-82923320D01*
X106359343Y-82923320D01*
X106343927Y-82928328D01*
X106327720Y-82928452D01*
X106226705Y-82962124D01*
X106208158Y-82975814D01*
X106187617Y-82986281D01*
X106052930Y-83120968D01*
X106042463Y-83141509D01*
X106028773Y-83160056D01*
X105995101Y-83261071D01*
X105994977Y-83277278D01*
X105989969Y-83292694D01*
X105989969Y-83427381D01*
X105544485Y-83427381D01*
X106300906Y-82670960D01*
X106529948Y-82670960D01*
X106539616Y-82732002D01*
X106583318Y-82775704D01*
X106644360Y-82785372D01*
X106699428Y-82757314D01*
X106830747Y-82625994D01*
X107467143Y-83262389D01*
X107522210Y-83290448D01*
X107583253Y-83280780D01*
X107626955Y-83237078D01*
X107636623Y-83176035D01*
X107608564Y-83120968D01*
X106972169Y-82484572D01*
X107103489Y-82353252D01*
X107131548Y-82298185D01*
X107121879Y-82237143D01*
X107078177Y-82193441D01*
X107017135Y-82183772D01*
X106962068Y-82211831D01*
X106558006Y-82615892D01*
X106529948Y-82670960D01*
X106300906Y-82670960D01*
X106824011Y-82147855D01*
X107269496Y-82147855D01*
X107277753Y-82173269D01*
X107283747Y-82199305D01*
X107384762Y-82367663D01*
X107394149Y-82375833D01*
X107399800Y-82386924D01*
X107635502Y-82622627D01*
X107646593Y-82628278D01*
X107654764Y-82637665D01*
X107823122Y-82738680D01*
X107849157Y-82744673D01*
X107874572Y-82752931D01*
X108009259Y-82752931D01*
X108024674Y-82747922D01*
X108040882Y-82747799D01*
X108141897Y-82714127D01*
X108160443Y-82700436D01*
X108180985Y-82689970D01*
X108315672Y-82555283D01*
X108326138Y-82534741D01*
X108339829Y-82516195D01*
X108373501Y-82415180D01*
X108373624Y-82398972D01*
X108378633Y-82383557D01*
X108378633Y-82248870D01*
X108370375Y-82223455D01*
X108364382Y-82197420D01*
X108263367Y-82029062D01*
X108253980Y-82020891D01*
X108248329Y-82009800D01*
X108012626Y-81774098D01*
X108001535Y-81768447D01*
X107993365Y-81759060D01*
X107825007Y-81658045D01*
X107798971Y-81652051D01*
X107773557Y-81643794D01*
X107638870Y-81643794D01*
X107623456Y-81648801D01*
X107607248Y-81648925D01*
X107506232Y-81682596D01*
X107487682Y-81696288D01*
X107467143Y-81706754D01*
X107332456Y-81841441D01*
X107321990Y-81861980D01*
X107308298Y-81880530D01*
X107274627Y-81981546D01*
X107274503Y-81997754D01*
X107269496Y-82013168D01*
X107269496Y-82147855D01*
X106824011Y-82147855D01*
X107650162Y-81321704D01*
X107910490Y-81321704D01*
X107917680Y-81335815D01*
X107920158Y-81351460D01*
X107931357Y-81362659D01*
X107938548Y-81376772D01*
X108645655Y-82083878D01*
X108700722Y-82111937D01*
X108761765Y-82102269D01*
X108805467Y-82058567D01*
X108815135Y-81997524D01*
X108787076Y-81942457D01*
X108521069Y-81676450D01*
X108581902Y-81615617D01*
X109103048Y-81707585D01*
X109164252Y-81698993D01*
X109208716Y-81656067D01*
X109219456Y-81595203D01*
X109192371Y-81539651D01*
X109137806Y-81510629D01*
X108742312Y-81440835D01*
X108743890Y-81438699D01*
X108777562Y-81337684D01*
X108777685Y-81321476D01*
X108782694Y-81306061D01*
X108782694Y-81238717D01*
X108777685Y-81223301D01*
X108777562Y-81207094D01*
X108743890Y-81106079D01*
X108730200Y-81087534D01*
X108719733Y-81066991D01*
X108618718Y-80965976D01*
X108598176Y-80955509D01*
X108579630Y-80941819D01*
X108478615Y-80908147D01*
X108462407Y-80908023D01*
X108446992Y-80903015D01*
X108379648Y-80903015D01*
X108364232Y-80908023D01*
X108348025Y-80908147D01*
X108247010Y-80941819D01*
X108228461Y-80955511D01*
X108207922Y-80965977D01*
X107938548Y-81235350D01*
X107931357Y-81249462D01*
X107920158Y-81260662D01*
X107917680Y-81276306D01*
X107910490Y-81290418D01*
X107912967Y-81306061D01*
X107910490Y-81321704D01*
X107650162Y-81321704D01*
X109061240Y-79910626D01*
X109290916Y-79910626D01*
X109295862Y-79940393D01*
X109300358Y-79970240D01*
X109771762Y-80913049D01*
X109815131Y-80957082D01*
X109876098Y-80967213D01*
X109931377Y-80939573D01*
X109959853Y-80884721D01*
X109950648Y-80823606D01*
X109848194Y-80618699D01*
X110082981Y-80383912D01*
X110287888Y-80486366D01*
X110349003Y-80495571D01*
X110403855Y-80467095D01*
X110431495Y-80411816D01*
X110421364Y-80350849D01*
X110377331Y-80307480D01*
X109434522Y-79836076D01*
X109404675Y-79831580D01*
X109374908Y-79826634D01*
X109374196Y-79826989D01*
X109373408Y-79826871D01*
X109346609Y-79840783D01*
X109319629Y-79854273D01*
X109319261Y-79854979D01*
X109318555Y-79855347D01*
X109305065Y-79882327D01*
X109291153Y-79909126D01*
X109291271Y-79909914D01*
X109290916Y-79910626D01*
X109061240Y-79910626D01*
X109622206Y-79349660D01*
X110672766Y-80400220D01*
G37*
D10*
X120543412Y-70508025D02*
X120489537Y-70508025D01*
X120489537Y-70508025D02*
X120381788Y-70454151D01*
X120381788Y-70454151D02*
X120327913Y-70400276D01*
X120327913Y-70400276D02*
X120274038Y-70292526D01*
X120274038Y-70292526D02*
X120274038Y-70184777D01*
X120274038Y-70184777D02*
X120300976Y-70103964D01*
X120300976Y-70103964D02*
X120381788Y-69969277D01*
X120381788Y-69969277D02*
X120462600Y-69888465D01*
X120462600Y-69888465D02*
X120597287Y-69807653D01*
X120597287Y-69807653D02*
X120678099Y-69780716D01*
X120678099Y-69780716D02*
X120785849Y-69780716D01*
X120785849Y-69780716D02*
X120893598Y-69834590D01*
X120893598Y-69834590D02*
X120947473Y-69888465D01*
X120947473Y-69888465D02*
X121001348Y-69996215D01*
X121001348Y-69996215D02*
X121001348Y-70050090D01*
X120758911Y-70831274D02*
X120866661Y-70939024D01*
X120866661Y-70939024D02*
X120947473Y-70965961D01*
X120947473Y-70965961D02*
X121001348Y-70965961D01*
X121001348Y-70965961D02*
X121136035Y-70939024D01*
X121136035Y-70939024D02*
X121270722Y-70858212D01*
X121270722Y-70858212D02*
X121486221Y-70642712D01*
X121486221Y-70642712D02*
X121513159Y-70561900D01*
X121513159Y-70561900D02*
X121513159Y-70508025D01*
X121513159Y-70508025D02*
X121486221Y-70427213D01*
X121486221Y-70427213D02*
X121378472Y-70319464D01*
X121378472Y-70319464D02*
X121297659Y-70292526D01*
X121297659Y-70292526D02*
X121243785Y-70292526D01*
X121243785Y-70292526D02*
X121162972Y-70319464D01*
X121162972Y-70319464D02*
X121028285Y-70454151D01*
X121028285Y-70454151D02*
X121001348Y-70534963D01*
X121001348Y-70534963D02*
X121001348Y-70588838D01*
X121001348Y-70588838D02*
X121028285Y-70669650D01*
X121028285Y-70669650D02*
X121136035Y-70777399D01*
X121136035Y-70777399D02*
X121216847Y-70804337D01*
X121216847Y-70804337D02*
X121270722Y-70804337D01*
X121270722Y-70804337D02*
X121351534Y-70777399D01*
X113815750Y-89503246D02*
X114388170Y-90075666D01*
X114388170Y-90075666D02*
X114489185Y-90109338D01*
X114489185Y-90109338D02*
X114556529Y-90109338D01*
X114556529Y-90109338D02*
X114657544Y-90075666D01*
X114657544Y-90075666D02*
X114792231Y-89940979D01*
X114792231Y-89940979D02*
X114825903Y-89839964D01*
X114825903Y-89839964D02*
X114825903Y-89772620D01*
X114825903Y-89772620D02*
X114792231Y-89671605D01*
X114792231Y-89671605D02*
X114219811Y-89099185D01*
X115634025Y-89099185D02*
X115229964Y-89503246D01*
X115431994Y-89301216D02*
X114724888Y-88594109D01*
X114724888Y-88594109D02*
X114758559Y-88762468D01*
X114758559Y-88762468D02*
X114758559Y-88897155D01*
X114758559Y-88897155D02*
X114724888Y-88998170D01*
X114636753Y-97125750D02*
X114064333Y-97698170D01*
X114064333Y-97698170D02*
X114030661Y-97799185D01*
X114030661Y-97799185D02*
X114030661Y-97866529D01*
X114030661Y-97866529D02*
X114064333Y-97967544D01*
X114064333Y-97967544D02*
X114199020Y-98102231D01*
X114199020Y-98102231D02*
X114300035Y-98135903D01*
X114300035Y-98135903D02*
X114367379Y-98135903D01*
X114367379Y-98135903D02*
X114468394Y-98102231D01*
X114468394Y-98102231D02*
X115040814Y-97529811D01*
X115276516Y-97900201D02*
X115343859Y-97900201D01*
X115343859Y-97900201D02*
X115444875Y-97933872D01*
X115444875Y-97933872D02*
X115613233Y-98102231D01*
X115613233Y-98102231D02*
X115646905Y-98203246D01*
X115646905Y-98203246D02*
X115646905Y-98270590D01*
X115646905Y-98270590D02*
X115613233Y-98371605D01*
X115613233Y-98371605D02*
X115545890Y-98438949D01*
X115545890Y-98438949D02*
X115411203Y-98506292D01*
X115411203Y-98506292D02*
X114603081Y-98506292D01*
X114603081Y-98506292D02*
X115040814Y-98944025D01*
X104278651Y-98115961D02*
X104278651Y-98169836D01*
X104278651Y-98169836D02*
X104224776Y-98277586D01*
X104224776Y-98277586D02*
X104170901Y-98331460D01*
X104170901Y-98331460D02*
X104063152Y-98385335D01*
X104063152Y-98385335D02*
X103955402Y-98385335D01*
X103955402Y-98385335D02*
X103874590Y-98358398D01*
X103874590Y-98358398D02*
X103739903Y-98277586D01*
X103739903Y-98277586D02*
X103659091Y-98196773D01*
X103659091Y-98196773D02*
X103578279Y-98062086D01*
X103578279Y-98062086D02*
X103551341Y-97981274D01*
X103551341Y-97981274D02*
X103551341Y-97873525D01*
X103551341Y-97873525D02*
X103605216Y-97765775D01*
X103605216Y-97765775D02*
X103659091Y-97711900D01*
X103659091Y-97711900D02*
X103766840Y-97658025D01*
X103766840Y-97658025D02*
X103820715Y-97658025D01*
X104871274Y-97631088D02*
X104548025Y-97954337D01*
X104709649Y-97792712D02*
X104143964Y-97227027D01*
X104143964Y-97227027D02*
X104170901Y-97361714D01*
X104170901Y-97361714D02*
X104170901Y-97469464D01*
X104170901Y-97469464D02*
X104143964Y-97550276D01*
X105140648Y-97361714D02*
X105248398Y-97253964D01*
X105248398Y-97253964D02*
X105275335Y-97173152D01*
X105275335Y-97173152D02*
X105275335Y-97119277D01*
X105275335Y-97119277D02*
X105248398Y-96984590D01*
X105248398Y-96984590D02*
X105167585Y-96849903D01*
X105167585Y-96849903D02*
X104952086Y-96634404D01*
X104952086Y-96634404D02*
X104871274Y-96607467D01*
X104871274Y-96607467D02*
X104817399Y-96607467D01*
X104817399Y-96607467D02*
X104736587Y-96634404D01*
X104736587Y-96634404D02*
X104628837Y-96742154D01*
X104628837Y-96742154D02*
X104601900Y-96822966D01*
X104601900Y-96822966D02*
X104601900Y-96876841D01*
X104601900Y-96876841D02*
X104628837Y-96957653D01*
X104628837Y-96957653D02*
X104763524Y-97092340D01*
X104763524Y-97092340D02*
X104844337Y-97119277D01*
X104844337Y-97119277D02*
X104898211Y-97119277D01*
X104898211Y-97119277D02*
X104979024Y-97092340D01*
X104979024Y-97092340D02*
X105086773Y-96984590D01*
X105086773Y-96984590D02*
X105113711Y-96903778D01*
X105113711Y-96903778D02*
X105113711Y-96849903D01*
X105113711Y-96849903D02*
X105086773Y-96769091D01*
X112128651Y-108715961D02*
X112128651Y-108769836D01*
X112128651Y-108769836D02*
X112074776Y-108877586D01*
X112074776Y-108877586D02*
X112020901Y-108931460D01*
X112020901Y-108931460D02*
X111913152Y-108985335D01*
X111913152Y-108985335D02*
X111805402Y-108985335D01*
X111805402Y-108985335D02*
X111724590Y-108958398D01*
X111724590Y-108958398D02*
X111589903Y-108877586D01*
X111589903Y-108877586D02*
X111509091Y-108796773D01*
X111509091Y-108796773D02*
X111428279Y-108662086D01*
X111428279Y-108662086D02*
X111401341Y-108581274D01*
X111401341Y-108581274D02*
X111401341Y-108473525D01*
X111401341Y-108473525D02*
X111455216Y-108365775D01*
X111455216Y-108365775D02*
X111509091Y-108311900D01*
X111509091Y-108311900D02*
X111616840Y-108258025D01*
X111616840Y-108258025D02*
X111670715Y-108258025D01*
X111886214Y-108042526D02*
X111886214Y-107988651D01*
X111886214Y-107988651D02*
X111913152Y-107907839D01*
X111913152Y-107907839D02*
X112047839Y-107773152D01*
X112047839Y-107773152D02*
X112128651Y-107746215D01*
X112128651Y-107746215D02*
X112182526Y-107746215D01*
X112182526Y-107746215D02*
X112263338Y-107773152D01*
X112263338Y-107773152D02*
X112317213Y-107827027D01*
X112317213Y-107827027D02*
X112371088Y-107934777D01*
X112371088Y-107934777D02*
X112371088Y-108581274D01*
X112371088Y-108581274D02*
X112721274Y-108231088D01*
X113260022Y-107692340D02*
X112936773Y-108015589D01*
X113098398Y-107853964D02*
X112532712Y-107288279D01*
X112532712Y-107288279D02*
X112559650Y-107422966D01*
X112559650Y-107422966D02*
X112559650Y-107530715D01*
X112559650Y-107530715D02*
X112532712Y-107611528D01*
X118128651Y-79865961D02*
X118128651Y-79919836D01*
X118128651Y-79919836D02*
X118074776Y-80027586D01*
X118074776Y-80027586D02*
X118020901Y-80081460D01*
X118020901Y-80081460D02*
X117913152Y-80135335D01*
X117913152Y-80135335D02*
X117805402Y-80135335D01*
X117805402Y-80135335D02*
X117724590Y-80108398D01*
X117724590Y-80108398D02*
X117589903Y-80027586D01*
X117589903Y-80027586D02*
X117509091Y-79946773D01*
X117509091Y-79946773D02*
X117428279Y-79812086D01*
X117428279Y-79812086D02*
X117401341Y-79731274D01*
X117401341Y-79731274D02*
X117401341Y-79623525D01*
X117401341Y-79623525D02*
X117455216Y-79515775D01*
X117455216Y-79515775D02*
X117509091Y-79461900D01*
X117509091Y-79461900D02*
X117616840Y-79408025D01*
X117616840Y-79408025D02*
X117670715Y-79408025D01*
X118721274Y-79381088D02*
X118398025Y-79704337D01*
X118559649Y-79542712D02*
X117993964Y-78977027D01*
X117993964Y-78977027D02*
X118020901Y-79111714D01*
X118020901Y-79111714D02*
X118020901Y-79219464D01*
X118020901Y-79219464D02*
X117993964Y-79300276D01*
X118344150Y-78626841D02*
X118694337Y-78276654D01*
X118694337Y-78276654D02*
X118721274Y-78680715D01*
X118721274Y-78680715D02*
X118802086Y-78599903D01*
X118802086Y-78599903D02*
X118882898Y-78572966D01*
X118882898Y-78572966D02*
X118936773Y-78572966D01*
X118936773Y-78572966D02*
X119017585Y-78599903D01*
X119017585Y-78599903D02*
X119152272Y-78734590D01*
X119152272Y-78734590D02*
X119179210Y-78815402D01*
X119179210Y-78815402D02*
X119179210Y-78869277D01*
X119179210Y-78869277D02*
X119152272Y-78950089D01*
X119152272Y-78950089D02*
X118990648Y-79111714D01*
X118990648Y-79111714D02*
X118909836Y-79138651D01*
X118909836Y-79138651D02*
X118855961Y-79138651D01*
X93924038Y-101538651D02*
X93870163Y-101538651D01*
X93870163Y-101538651D02*
X93762413Y-101484776D01*
X93762413Y-101484776D02*
X93708539Y-101430901D01*
X93708539Y-101430901D02*
X93654664Y-101323152D01*
X93654664Y-101323152D02*
X93654664Y-101215402D01*
X93654664Y-101215402D02*
X93681601Y-101134590D01*
X93681601Y-101134590D02*
X93762413Y-100999903D01*
X93762413Y-100999903D02*
X93843226Y-100919091D01*
X93843226Y-100919091D02*
X93977913Y-100838279D01*
X93977913Y-100838279D02*
X94058725Y-100811341D01*
X94058725Y-100811341D02*
X94166474Y-100811341D01*
X94166474Y-100811341D02*
X94274224Y-100865216D01*
X94274224Y-100865216D02*
X94328099Y-100919091D01*
X94328099Y-100919091D02*
X94381974Y-101026840D01*
X94381974Y-101026840D02*
X94381974Y-101080715D01*
X94597473Y-101296214D02*
X94651348Y-101296214D01*
X94651348Y-101296214D02*
X94732160Y-101323152D01*
X94732160Y-101323152D02*
X94866847Y-101457839D01*
X94866847Y-101457839D02*
X94893784Y-101538651D01*
X94893784Y-101538651D02*
X94893784Y-101592526D01*
X94893784Y-101592526D02*
X94866847Y-101673338D01*
X94866847Y-101673338D02*
X94812972Y-101727213D01*
X94812972Y-101727213D02*
X94705222Y-101781088D01*
X94705222Y-101781088D02*
X94058725Y-101781088D01*
X94058725Y-101781088D02*
X94408911Y-102131274D01*
X95136221Y-101834963D02*
X95190096Y-101834963D01*
X95190096Y-101834963D02*
X95270908Y-101861900D01*
X95270908Y-101861900D02*
X95405595Y-101996587D01*
X95405595Y-101996587D02*
X95432532Y-102077399D01*
X95432532Y-102077399D02*
X95432532Y-102131274D01*
X95432532Y-102131274D02*
X95405595Y-102212086D01*
X95405595Y-102212086D02*
X95351720Y-102265961D01*
X95351720Y-102265961D02*
X95243971Y-102319836D01*
X95243971Y-102319836D02*
X94597473Y-102319836D01*
X94597473Y-102319836D02*
X94947659Y-102670022D01*
X122509048Y-80912295D02*
X122509048Y-80112295D01*
X123347143Y-80836104D02*
X123309047Y-80874200D01*
X123309047Y-80874200D02*
X123194762Y-80912295D01*
X123194762Y-80912295D02*
X123118571Y-80912295D01*
X123118571Y-80912295D02*
X123004285Y-80874200D01*
X123004285Y-80874200D02*
X122928095Y-80798009D01*
X122928095Y-80798009D02*
X122890000Y-80721819D01*
X122890000Y-80721819D02*
X122851904Y-80569438D01*
X122851904Y-80569438D02*
X122851904Y-80455152D01*
X122851904Y-80455152D02*
X122890000Y-80302771D01*
X122890000Y-80302771D02*
X122928095Y-80226580D01*
X122928095Y-80226580D02*
X123004285Y-80150390D01*
X123004285Y-80150390D02*
X123118571Y-80112295D01*
X123118571Y-80112295D02*
X123194762Y-80112295D01*
X123194762Y-80112295D02*
X123309047Y-80150390D01*
X123309047Y-80150390D02*
X123347143Y-80188485D01*
X124109047Y-80912295D02*
X123651904Y-80912295D01*
X123880476Y-80912295D02*
X123880476Y-80112295D01*
X123880476Y-80112295D02*
X123804285Y-80226580D01*
X123804285Y-80226580D02*
X123728095Y-80302771D01*
X123728095Y-80302771D02*
X123651904Y-80340866D01*
X117501901Y-97900462D02*
X117043965Y-97819649D01*
X117178652Y-98223710D02*
X116612967Y-97658025D01*
X116612967Y-97658025D02*
X116828466Y-97442526D01*
X116828466Y-97442526D02*
X116909278Y-97415588D01*
X116909278Y-97415588D02*
X116963153Y-97415588D01*
X116963153Y-97415588D02*
X117043965Y-97442526D01*
X117043965Y-97442526D02*
X117124778Y-97523338D01*
X117124778Y-97523338D02*
X117151715Y-97604150D01*
X117151715Y-97604150D02*
X117151715Y-97658025D01*
X117151715Y-97658025D02*
X117124778Y-97738837D01*
X117124778Y-97738837D02*
X116909278Y-97954336D01*
X117771275Y-97631088D02*
X117879025Y-97523338D01*
X117879025Y-97523338D02*
X117905962Y-97442526D01*
X117905962Y-97442526D02*
X117905962Y-97388651D01*
X117905962Y-97388651D02*
X117879025Y-97253964D01*
X117879025Y-97253964D02*
X117798213Y-97119277D01*
X117798213Y-97119277D02*
X117582713Y-96903778D01*
X117582713Y-96903778D02*
X117501901Y-96876840D01*
X117501901Y-96876840D02*
X117448026Y-96876840D01*
X117448026Y-96876840D02*
X117367214Y-96903778D01*
X117367214Y-96903778D02*
X117259465Y-97011527D01*
X117259465Y-97011527D02*
X117232527Y-97092340D01*
X117232527Y-97092340D02*
X117232527Y-97146214D01*
X117232527Y-97146214D02*
X117259465Y-97227027D01*
X117259465Y-97227027D02*
X117394152Y-97361714D01*
X117394152Y-97361714D02*
X117474964Y-97388651D01*
X117474964Y-97388651D02*
X117528839Y-97388651D01*
X117528839Y-97388651D02*
X117609651Y-97361714D01*
X117609651Y-97361714D02*
X117717400Y-97253964D01*
X117717400Y-97253964D02*
X117744338Y-97173152D01*
X117744338Y-97173152D02*
X117744338Y-97119277D01*
X117744338Y-97119277D02*
X117717400Y-97038465D01*
X100801900Y-86300462D02*
X100532526Y-86569836D01*
X100532526Y-86569836D02*
X99966841Y-86004150D01*
X100370901Y-85600089D02*
X100721088Y-85249903D01*
X100721088Y-85249903D02*
X100748025Y-85653964D01*
X100748025Y-85653964D02*
X100828837Y-85573152D01*
X100828837Y-85573152D02*
X100909650Y-85546215D01*
X100909650Y-85546215D02*
X100963524Y-85546215D01*
X100963524Y-85546215D02*
X101044337Y-85573152D01*
X101044337Y-85573152D02*
X101179024Y-85707839D01*
X101179024Y-85707839D02*
X101205961Y-85788651D01*
X101205961Y-85788651D02*
X101205961Y-85842526D01*
X101205961Y-85842526D02*
X101179024Y-85923338D01*
X101179024Y-85923338D02*
X101017399Y-86084963D01*
X101017399Y-86084963D02*
X100936587Y-86111900D01*
X100936587Y-86111900D02*
X100882712Y-86111900D01*
X113989537Y-93211900D02*
X114070350Y-92753964D01*
X113666289Y-92888651D02*
X114231974Y-92322966D01*
X114231974Y-92322966D02*
X114447473Y-92538465D01*
X114447473Y-92538465D02*
X114474411Y-92619277D01*
X114474411Y-92619277D02*
X114474411Y-92673152D01*
X114474411Y-92673152D02*
X114447473Y-92753964D01*
X114447473Y-92753964D02*
X114366661Y-92834777D01*
X114366661Y-92834777D02*
X114285849Y-92861714D01*
X114285849Y-92861714D02*
X114231974Y-92861714D01*
X114231974Y-92861714D02*
X114151162Y-92834777D01*
X114151162Y-92834777D02*
X113935663Y-92619277D01*
X114743785Y-92834777D02*
X115120908Y-93211900D01*
X115120908Y-93211900D02*
X114312786Y-93535149D01*
X102924038Y-102138652D02*
X102870163Y-102138652D01*
X102870163Y-102138652D02*
X102762413Y-102084777D01*
X102762413Y-102084777D02*
X102708539Y-102030902D01*
X102708539Y-102030902D02*
X102654664Y-101923153D01*
X102654664Y-101923153D02*
X102654664Y-101815403D01*
X102654664Y-101815403D02*
X102681601Y-101734591D01*
X102681601Y-101734591D02*
X102762413Y-101599904D01*
X102762413Y-101599904D02*
X102843226Y-101519092D01*
X102843226Y-101519092D02*
X102977913Y-101438280D01*
X102977913Y-101438280D02*
X103058725Y-101411342D01*
X103058725Y-101411342D02*
X103166474Y-101411342D01*
X103166474Y-101411342D02*
X103274224Y-101465217D01*
X103274224Y-101465217D02*
X103328099Y-101519092D01*
X103328099Y-101519092D02*
X103381974Y-101626841D01*
X103381974Y-101626841D02*
X103381974Y-101680716D01*
X103597473Y-101896215D02*
X103651348Y-101896215D01*
X103651348Y-101896215D02*
X103732160Y-101923153D01*
X103732160Y-101923153D02*
X103866847Y-102057840D01*
X103866847Y-102057840D02*
X103893784Y-102138652D01*
X103893784Y-102138652D02*
X103893784Y-102192527D01*
X103893784Y-102192527D02*
X103866847Y-102273339D01*
X103866847Y-102273339D02*
X103812972Y-102327214D01*
X103812972Y-102327214D02*
X103705222Y-102381089D01*
X103705222Y-102381089D02*
X103058725Y-102381089D01*
X103058725Y-102381089D02*
X103408911Y-102731275D01*
X104163158Y-102354151D02*
X104513345Y-102704338D01*
X104513345Y-102704338D02*
X104109284Y-102731275D01*
X104109284Y-102731275D02*
X104190096Y-102812087D01*
X104190096Y-102812087D02*
X104217033Y-102892899D01*
X104217033Y-102892899D02*
X104217033Y-102946774D01*
X104217033Y-102946774D02*
X104190096Y-103027586D01*
X104190096Y-103027586D02*
X104055409Y-103162273D01*
X104055409Y-103162273D02*
X103974597Y-103189211D01*
X103974597Y-103189211D02*
X103920722Y-103189211D01*
X103920722Y-103189211D02*
X103839910Y-103162273D01*
X103839910Y-103162273D02*
X103678285Y-103000649D01*
X103678285Y-103000649D02*
X103651348Y-102919837D01*
X103651348Y-102919837D02*
X103651348Y-102865962D01*
X94128651Y-94365961D02*
X94128651Y-94419836D01*
X94128651Y-94419836D02*
X94074776Y-94527586D01*
X94074776Y-94527586D02*
X94020901Y-94581460D01*
X94020901Y-94581460D02*
X93913152Y-94635335D01*
X93913152Y-94635335D02*
X93805402Y-94635335D01*
X93805402Y-94635335D02*
X93724590Y-94608398D01*
X93724590Y-94608398D02*
X93589903Y-94527586D01*
X93589903Y-94527586D02*
X93509091Y-94446773D01*
X93509091Y-94446773D02*
X93428279Y-94312086D01*
X93428279Y-94312086D02*
X93401341Y-94231274D01*
X93401341Y-94231274D02*
X93401341Y-94123525D01*
X93401341Y-94123525D02*
X93455216Y-94015775D01*
X93455216Y-94015775D02*
X93509091Y-93961900D01*
X93509091Y-93961900D02*
X93616840Y-93908025D01*
X93616840Y-93908025D02*
X93670715Y-93908025D01*
X93886214Y-93692526D02*
X93886214Y-93638651D01*
X93886214Y-93638651D02*
X93913152Y-93557839D01*
X93913152Y-93557839D02*
X94047839Y-93423152D01*
X94047839Y-93423152D02*
X94128651Y-93396215D01*
X94128651Y-93396215D02*
X94182526Y-93396215D01*
X94182526Y-93396215D02*
X94263338Y-93423152D01*
X94263338Y-93423152D02*
X94317213Y-93477027D01*
X94317213Y-93477027D02*
X94371088Y-93584777D01*
X94371088Y-93584777D02*
X94371088Y-94231274D01*
X94371088Y-94231274D02*
X94721274Y-93881088D01*
X94829024Y-93019091D02*
X95206147Y-93396215D01*
X94478837Y-92938279D02*
X94748211Y-93477027D01*
X94748211Y-93477027D02*
X95098398Y-93126841D01*
X114839537Y-92361900D02*
X114920350Y-91903964D01*
X114516289Y-92038651D02*
X115081974Y-91472966D01*
X115081974Y-91472966D02*
X115297473Y-91688465D01*
X115297473Y-91688465D02*
X115324411Y-91769277D01*
X115324411Y-91769277D02*
X115324411Y-91823152D01*
X115324411Y-91823152D02*
X115297473Y-91903964D01*
X115297473Y-91903964D02*
X115216661Y-91984777D01*
X115216661Y-91984777D02*
X115135849Y-92011714D01*
X115135849Y-92011714D02*
X115081974Y-92011714D01*
X115081974Y-92011714D02*
X115001162Y-91984777D01*
X115001162Y-91984777D02*
X114785663Y-91769277D01*
X115486035Y-92361900D02*
X115459098Y-92281088D01*
X115459098Y-92281088D02*
X115459098Y-92227213D01*
X115459098Y-92227213D02*
X115486035Y-92146401D01*
X115486035Y-92146401D02*
X115512972Y-92119464D01*
X115512972Y-92119464D02*
X115593785Y-92092526D01*
X115593785Y-92092526D02*
X115647659Y-92092526D01*
X115647659Y-92092526D02*
X115728472Y-92119464D01*
X115728472Y-92119464D02*
X115836221Y-92227213D01*
X115836221Y-92227213D02*
X115863159Y-92308025D01*
X115863159Y-92308025D02*
X115863159Y-92361900D01*
X115863159Y-92361900D02*
X115836221Y-92442712D01*
X115836221Y-92442712D02*
X115809284Y-92469650D01*
X115809284Y-92469650D02*
X115728472Y-92496587D01*
X115728472Y-92496587D02*
X115674597Y-92496587D01*
X115674597Y-92496587D02*
X115593785Y-92469650D01*
X115593785Y-92469650D02*
X115486035Y-92361900D01*
X115486035Y-92361900D02*
X115405223Y-92334963D01*
X115405223Y-92334963D02*
X115351348Y-92334963D01*
X115351348Y-92334963D02*
X115270536Y-92361900D01*
X115270536Y-92361900D02*
X115162786Y-92469650D01*
X115162786Y-92469650D02*
X115135849Y-92550462D01*
X115135849Y-92550462D02*
X115135849Y-92604337D01*
X115135849Y-92604337D02*
X115162786Y-92685149D01*
X115162786Y-92685149D02*
X115270536Y-92792899D01*
X115270536Y-92792899D02*
X115351348Y-92819836D01*
X115351348Y-92819836D02*
X115405223Y-92819836D01*
X115405223Y-92819836D02*
X115486035Y-92792899D01*
X115486035Y-92792899D02*
X115593785Y-92685149D01*
X115593785Y-92685149D02*
X115620722Y-92604337D01*
X115620722Y-92604337D02*
X115620722Y-92550462D01*
X115620722Y-92550462D02*
X115593785Y-92469650D01*
X111501900Y-75650462D02*
X111232526Y-75919836D01*
X111232526Y-75919836D02*
X110666841Y-75354150D01*
X111555775Y-74842340D02*
X111932898Y-75219464D01*
X111205589Y-74761528D02*
X111474963Y-75300276D01*
X111474963Y-75300276D02*
X111825149Y-74950089D01*
X134394819Y-85483333D02*
X135109104Y-85483333D01*
X135109104Y-85483333D02*
X135251961Y-85530952D01*
X135251961Y-85530952D02*
X135347200Y-85626190D01*
X135347200Y-85626190D02*
X135394819Y-85769047D01*
X135394819Y-85769047D02*
X135394819Y-85864285D01*
X134490057Y-85054761D02*
X134442438Y-85007142D01*
X134442438Y-85007142D02*
X134394819Y-84911904D01*
X134394819Y-84911904D02*
X134394819Y-84673809D01*
X134394819Y-84673809D02*
X134442438Y-84578571D01*
X134442438Y-84578571D02*
X134490057Y-84530952D01*
X134490057Y-84530952D02*
X134585295Y-84483333D01*
X134585295Y-84483333D02*
X134680533Y-84483333D01*
X134680533Y-84483333D02*
X134823390Y-84530952D01*
X134823390Y-84530952D02*
X135394819Y-85102380D01*
X135394819Y-85102380D02*
X135394819Y-84483333D01*
G36*
X138598723Y-86142370D02*
G01*
X138339465Y-86055951D01*
X138598723Y-85969532D01*
X138598723Y-86142370D01*
G37*
G36*
X139091581Y-86508055D02*
G01*
X137913009Y-86508055D01*
X137913009Y-86066952D01*
X138028106Y-86066952D01*
X138029134Y-86068851D01*
X138028818Y-86070987D01*
X138041236Y-86091200D01*
X138052535Y-86112066D01*
X138054542Y-86112859D01*
X138055673Y-86114699D01*
X138078578Y-86127102D01*
X138878578Y-86393769D01*
X138929862Y-86392368D01*
X138968247Y-86358331D01*
X138975772Y-86307582D01*
X138948917Y-86263869D01*
X138926012Y-86251467D01*
X138748723Y-86192370D01*
X138748723Y-85919532D01*
X138926012Y-85860436D01*
X138966198Y-85828545D01*
X138976484Y-85778284D01*
X138952056Y-85733170D01*
X138904344Y-85714313D01*
X138878578Y-85718134D01*
X138078578Y-85984800D01*
X138076886Y-85986142D01*
X138074728Y-85986201D01*
X138056966Y-86001950D01*
X138038392Y-86016691D01*
X138037959Y-86018804D01*
X138036343Y-86020238D01*
X138032862Y-86043708D01*
X138028106Y-86066952D01*
X137913009Y-86066952D01*
X137913009Y-85509594D01*
X138028434Y-85509594D01*
X138037343Y-85560118D01*
X138076643Y-85593095D01*
X138102295Y-85597618D01*
X138749914Y-85597618D01*
X138754127Y-85596084D01*
X138758488Y-85597126D01*
X138783455Y-85589700D01*
X138859645Y-85551605D01*
X138860770Y-85550416D01*
X138879136Y-85537557D01*
X138917232Y-85499462D01*
X138917922Y-85497980D01*
X138931282Y-85479969D01*
X138969377Y-85403778D01*
X138969889Y-85399324D01*
X138972772Y-85395889D01*
X138977295Y-85370237D01*
X138977295Y-85217856D01*
X138975761Y-85213642D01*
X138976803Y-85209282D01*
X138969377Y-85184315D01*
X138931282Y-85108125D01*
X138930094Y-85107000D01*
X138917232Y-85088632D01*
X138879136Y-85050537D01*
X138877650Y-85049844D01*
X138859645Y-85036489D01*
X138783456Y-84998393D01*
X138779001Y-84997880D01*
X138775566Y-84994998D01*
X138749914Y-84990475D01*
X138102295Y-84990475D01*
X138054086Y-85008022D01*
X138028434Y-85052451D01*
X138037343Y-85102975D01*
X138076643Y-85135952D01*
X138102295Y-85140475D01*
X138732208Y-85140475D01*
X138781676Y-85165209D01*
X138802561Y-85186093D01*
X138827295Y-85235561D01*
X138827295Y-85352532D01*
X138802561Y-85402000D01*
X138781677Y-85422883D01*
X138732209Y-85447618D01*
X138102295Y-85447618D01*
X138054086Y-85465165D01*
X138028434Y-85509594D01*
X137913009Y-85509594D01*
X137913009Y-84222553D01*
X138027450Y-84222553D01*
X138041858Y-84271791D01*
X138060692Y-84289784D01*
X138367086Y-84494047D01*
X138060692Y-84698310D01*
X138030313Y-84739652D01*
X138033615Y-84790848D01*
X138069053Y-84827945D01*
X138120045Y-84833584D01*
X138143898Y-84823118D01*
X138502295Y-84584186D01*
X138860693Y-84823118D01*
X138910538Y-84835259D01*
X138956527Y-84812522D01*
X138977140Y-84765541D01*
X138962733Y-84716303D01*
X138943898Y-84698310D01*
X138637503Y-84494047D01*
X138943898Y-84289784D01*
X138974277Y-84248442D01*
X138970976Y-84197246D01*
X138935537Y-84160149D01*
X138884545Y-84154510D01*
X138860693Y-84164976D01*
X138502295Y-84403907D01*
X138143898Y-84164976D01*
X138094052Y-84152835D01*
X138048063Y-84175573D01*
X138027450Y-84222553D01*
X137913009Y-84222553D01*
X137913009Y-83846428D01*
X138027295Y-83846428D01*
X138028828Y-83850641D01*
X138027787Y-83855002D01*
X138035213Y-83879969D01*
X138073308Y-83956159D01*
X138074496Y-83957284D01*
X138087356Y-83975650D01*
X138125451Y-84013746D01*
X138171947Y-84035428D01*
X138221502Y-84022151D01*
X138250929Y-83980126D01*
X138246459Y-83929019D01*
X138231519Y-83907682D01*
X138202029Y-83878191D01*
X138177295Y-83828723D01*
X138177295Y-83673656D01*
X138202029Y-83624187D01*
X138222911Y-83603305D01*
X138272381Y-83578571D01*
X138318696Y-83578571D01*
X138404638Y-83607218D01*
X138849262Y-84051842D01*
X138869715Y-84061379D01*
X138889271Y-84072670D01*
X138892651Y-84072073D01*
X138895759Y-84073523D01*
X138917561Y-84067681D01*
X138939795Y-84063761D01*
X138941999Y-84061133D01*
X138945313Y-84060246D01*
X138958263Y-84041751D01*
X138972772Y-84024461D01*
X138973580Y-84019877D01*
X138974740Y-84018221D01*
X138974452Y-84014931D01*
X138977295Y-83998809D01*
X138977295Y-83503571D01*
X138959748Y-83455362D01*
X138915319Y-83429710D01*
X138864795Y-83438619D01*
X138831818Y-83477919D01*
X138827295Y-83503571D01*
X138827295Y-83817743D01*
X138498185Y-83488633D01*
X138494121Y-83486738D01*
X138491774Y-83482917D01*
X138468869Y-83470515D01*
X138354583Y-83432420D01*
X138352948Y-83432464D01*
X138330866Y-83428571D01*
X138254676Y-83428571D01*
X138250463Y-83430104D01*
X138246102Y-83429062D01*
X138221135Y-83436489D01*
X138144944Y-83474584D01*
X138143818Y-83475773D01*
X138125452Y-83488633D01*
X138087357Y-83526728D01*
X138086666Y-83528209D01*
X138073308Y-83546220D01*
X138035213Y-83622411D01*
X138034700Y-83626864D01*
X138031818Y-83630300D01*
X138027295Y-83655952D01*
X138027295Y-83846428D01*
X137913009Y-83846428D01*
X137913009Y-83314285D01*
X139091581Y-83314285D01*
X139091581Y-86508055D01*
G37*
X104198025Y-84746587D02*
X104198025Y-84800462D01*
X104198025Y-84800462D02*
X104144151Y-84908211D01*
X104144151Y-84908211D02*
X104090276Y-84962086D01*
X104090276Y-84962086D02*
X103982526Y-85015961D01*
X103982526Y-85015961D02*
X103874777Y-85015961D01*
X103874777Y-85015961D02*
X103793964Y-84989023D01*
X103793964Y-84989023D02*
X103659277Y-84908211D01*
X103659277Y-84908211D02*
X103578465Y-84827399D01*
X103578465Y-84827399D02*
X103497653Y-84692712D01*
X103497653Y-84692712D02*
X103470716Y-84611900D01*
X103470716Y-84611900D02*
X103470716Y-84504150D01*
X103470716Y-84504150D02*
X103524590Y-84396401D01*
X103524590Y-84396401D02*
X103578465Y-84342526D01*
X103578465Y-84342526D02*
X103686215Y-84288651D01*
X103686215Y-84288651D02*
X103740090Y-84288651D01*
X104198025Y-83722966D02*
X103928651Y-83992340D01*
X103928651Y-83992340D02*
X104171088Y-84288651D01*
X104171088Y-84288651D02*
X104171088Y-84234776D01*
X104171088Y-84234776D02*
X104198025Y-84153964D01*
X104198025Y-84153964D02*
X104332712Y-84019277D01*
X104332712Y-84019277D02*
X104413525Y-83992340D01*
X104413525Y-83992340D02*
X104467399Y-83992340D01*
X104467399Y-83992340D02*
X104548212Y-84019277D01*
X104548212Y-84019277D02*
X104682899Y-84153964D01*
X104682899Y-84153964D02*
X104709836Y-84234776D01*
X104709836Y-84234776D02*
X104709836Y-84288651D01*
X104709836Y-84288651D02*
X104682899Y-84369463D01*
X104682899Y-84369463D02*
X104548212Y-84504150D01*
X104548212Y-84504150D02*
X104467399Y-84531088D01*
X104467399Y-84531088D02*
X104413525Y-84531088D01*
X129775714Y-99612295D02*
X129509047Y-99231342D01*
X129318571Y-99612295D02*
X129318571Y-98812295D01*
X129318571Y-98812295D02*
X129623333Y-98812295D01*
X129623333Y-98812295D02*
X129699523Y-98850390D01*
X129699523Y-98850390D02*
X129737618Y-98888485D01*
X129737618Y-98888485D02*
X129775714Y-98964676D01*
X129775714Y-98964676D02*
X129775714Y-99078961D01*
X129775714Y-99078961D02*
X129737618Y-99155152D01*
X129737618Y-99155152D02*
X129699523Y-99193247D01*
X129699523Y-99193247D02*
X129623333Y-99231342D01*
X129623333Y-99231342D02*
X129318571Y-99231342D01*
X130537618Y-99612295D02*
X130080475Y-99612295D01*
X130309047Y-99612295D02*
X130309047Y-98812295D01*
X130309047Y-98812295D02*
X130232856Y-98926580D01*
X130232856Y-98926580D02*
X130156666Y-99002771D01*
X130156666Y-99002771D02*
X130080475Y-99040866D01*
X130804285Y-98812295D02*
X131299523Y-98812295D01*
X131299523Y-98812295D02*
X131032857Y-99117057D01*
X131032857Y-99117057D02*
X131147142Y-99117057D01*
X131147142Y-99117057D02*
X131223333Y-99155152D01*
X131223333Y-99155152D02*
X131261428Y-99193247D01*
X131261428Y-99193247D02*
X131299523Y-99269438D01*
X131299523Y-99269438D02*
X131299523Y-99459914D01*
X131299523Y-99459914D02*
X131261428Y-99536104D01*
X131261428Y-99536104D02*
X131223333Y-99574200D01*
X131223333Y-99574200D02*
X131147142Y-99612295D01*
X131147142Y-99612295D02*
X130918571Y-99612295D01*
X130918571Y-99612295D02*
X130842380Y-99574200D01*
X130842380Y-99574200D02*
X130804285Y-99536104D01*
X94898025Y-85496587D02*
X94898025Y-85550462D01*
X94898025Y-85550462D02*
X94844151Y-85658211D01*
X94844151Y-85658211D02*
X94790276Y-85712086D01*
X94790276Y-85712086D02*
X94682526Y-85765961D01*
X94682526Y-85765961D02*
X94574777Y-85765961D01*
X94574777Y-85765961D02*
X94493964Y-85739023D01*
X94493964Y-85739023D02*
X94359277Y-85658211D01*
X94359277Y-85658211D02*
X94278465Y-85577399D01*
X94278465Y-85577399D02*
X94197653Y-85442712D01*
X94197653Y-85442712D02*
X94170716Y-85361900D01*
X94170716Y-85361900D02*
X94170716Y-85254150D01*
X94170716Y-85254150D02*
X94224590Y-85146401D01*
X94224590Y-85146401D02*
X94278465Y-85092526D01*
X94278465Y-85092526D02*
X94386215Y-85038651D01*
X94386215Y-85038651D02*
X94440090Y-85038651D01*
X94871088Y-84499903D02*
X94763338Y-84607653D01*
X94763338Y-84607653D02*
X94736401Y-84688465D01*
X94736401Y-84688465D02*
X94736401Y-84742340D01*
X94736401Y-84742340D02*
X94763338Y-84877027D01*
X94763338Y-84877027D02*
X94844151Y-85011714D01*
X94844151Y-85011714D02*
X95059650Y-85227213D01*
X95059650Y-85227213D02*
X95140462Y-85254150D01*
X95140462Y-85254150D02*
X95194337Y-85254150D01*
X95194337Y-85254150D02*
X95275149Y-85227213D01*
X95275149Y-85227213D02*
X95382899Y-85119463D01*
X95382899Y-85119463D02*
X95409836Y-85038651D01*
X95409836Y-85038651D02*
X95409836Y-84984776D01*
X95409836Y-84984776D02*
X95382899Y-84903964D01*
X95382899Y-84903964D02*
X95248212Y-84769277D01*
X95248212Y-84769277D02*
X95167399Y-84742340D01*
X95167399Y-84742340D02*
X95113525Y-84742340D01*
X95113525Y-84742340D02*
X95032712Y-84769277D01*
X95032712Y-84769277D02*
X94924963Y-84877027D01*
X94924963Y-84877027D02*
X94898025Y-84957839D01*
X94898025Y-84957839D02*
X94898025Y-85011714D01*
X94898025Y-85011714D02*
X94924963Y-85092526D01*
X129594819Y-83233333D02*
X130309104Y-83233333D01*
X130309104Y-83233333D02*
X130451961Y-83280952D01*
X130451961Y-83280952D02*
X130547200Y-83376190D01*
X130547200Y-83376190D02*
X130594819Y-83519047D01*
X130594819Y-83519047D02*
X130594819Y-83614285D01*
X129594819Y-82852380D02*
X129594819Y-82233333D01*
X129594819Y-82233333D02*
X129975771Y-82566666D01*
X129975771Y-82566666D02*
X129975771Y-82423809D01*
X129975771Y-82423809D02*
X130023390Y-82328571D01*
X130023390Y-82328571D02*
X130071009Y-82280952D01*
X130071009Y-82280952D02*
X130166247Y-82233333D01*
X130166247Y-82233333D02*
X130404342Y-82233333D01*
X130404342Y-82233333D02*
X130499580Y-82280952D01*
X130499580Y-82280952D02*
X130547200Y-82328571D01*
X130547200Y-82328571D02*
X130594819Y-82423809D01*
X130594819Y-82423809D02*
X130594819Y-82709523D01*
X130594819Y-82709523D02*
X130547200Y-82804761D01*
X130547200Y-82804761D02*
X130499580Y-82852380D01*
G36*
X132148723Y-83653085D02*
G01*
X131889465Y-83566666D01*
X132148723Y-83480247D01*
X132148723Y-83653085D01*
G37*
G36*
X131950725Y-82675925D02*
G01*
X131971608Y-82696808D01*
X131996342Y-82746276D01*
X131996342Y-82958333D01*
X131727295Y-82958333D01*
X131727295Y-82746276D01*
X131752029Y-82696808D01*
X131772912Y-82675924D01*
X131822381Y-82651190D01*
X131901256Y-82651190D01*
X131950725Y-82675925D01*
G37*
G36*
X132273738Y-81313621D02*
G01*
X132331677Y-81342591D01*
X132352561Y-81363474D01*
X132377295Y-81412942D01*
X132377295Y-81453723D01*
X132352561Y-81503191D01*
X132331677Y-81524074D01*
X132273737Y-81553044D01*
X132138298Y-81586905D01*
X131966292Y-81586905D01*
X131830850Y-81553044D01*
X131772911Y-81524074D01*
X131752029Y-81503192D01*
X131727295Y-81453723D01*
X131727295Y-81412942D01*
X131752029Y-81363473D01*
X131772911Y-81342591D01*
X131830851Y-81313621D01*
X131966291Y-81279762D01*
X132138299Y-81279762D01*
X132273738Y-81313621D01*
G37*
G36*
X132641581Y-84746428D02*
G01*
X131463009Y-84746428D01*
X131463009Y-84544118D01*
X131578434Y-84544118D01*
X131587343Y-84594642D01*
X131626643Y-84627619D01*
X131652295Y-84632142D01*
X132299914Y-84632142D01*
X132304127Y-84630608D01*
X132308488Y-84631650D01*
X132333455Y-84624224D01*
X132409645Y-84586129D01*
X132410770Y-84584940D01*
X132429136Y-84572081D01*
X132467232Y-84533986D01*
X132467922Y-84532504D01*
X132481282Y-84514493D01*
X132519377Y-84438302D01*
X132519889Y-84433848D01*
X132522772Y-84430413D01*
X132527295Y-84404761D01*
X132527295Y-84252380D01*
X132525761Y-84248166D01*
X132526803Y-84243806D01*
X132519377Y-84218839D01*
X132481282Y-84142649D01*
X132480094Y-84141524D01*
X132467232Y-84123156D01*
X132429136Y-84085061D01*
X132427650Y-84084368D01*
X132409645Y-84071013D01*
X132333456Y-84032917D01*
X132329001Y-84032404D01*
X132325566Y-84029522D01*
X132299914Y-84024999D01*
X131652295Y-84024999D01*
X131604086Y-84042546D01*
X131578434Y-84086975D01*
X131587343Y-84137499D01*
X131626643Y-84170476D01*
X131652295Y-84174999D01*
X132282208Y-84174999D01*
X132331676Y-84199733D01*
X132352561Y-84220617D01*
X132377295Y-84270085D01*
X132377295Y-84387056D01*
X132352561Y-84436524D01*
X132331677Y-84457407D01*
X132282209Y-84482142D01*
X131652295Y-84482142D01*
X131604086Y-84499689D01*
X131578434Y-84544118D01*
X131463009Y-84544118D01*
X131463009Y-83577667D01*
X131578106Y-83577667D01*
X131579134Y-83579566D01*
X131578818Y-83581702D01*
X131591236Y-83601915D01*
X131602535Y-83622781D01*
X131604542Y-83623574D01*
X131605673Y-83625414D01*
X131628578Y-83637817D01*
X132428578Y-83904484D01*
X132479862Y-83903083D01*
X132518247Y-83869046D01*
X132525772Y-83818297D01*
X132498917Y-83774584D01*
X132476012Y-83762182D01*
X132298723Y-83703085D01*
X132298723Y-83430247D01*
X132476012Y-83371151D01*
X132516198Y-83339260D01*
X132526484Y-83288999D01*
X132502056Y-83243885D01*
X132454344Y-83225028D01*
X132428578Y-83228849D01*
X131628578Y-83495515D01*
X131626886Y-83496857D01*
X131624728Y-83496916D01*
X131606966Y-83512665D01*
X131588392Y-83527406D01*
X131587959Y-83529519D01*
X131586343Y-83530953D01*
X131582862Y-83554423D01*
X131578106Y-83577667D01*
X131463009Y-83577667D01*
X131463009Y-83033333D01*
X131577295Y-83033333D01*
X131583958Y-83051641D01*
X131587343Y-83070833D01*
X131592527Y-83075183D01*
X131594842Y-83081542D01*
X131611715Y-83091284D01*
X131626643Y-83103810D01*
X131636385Y-83105527D01*
X131639271Y-83107194D01*
X131642553Y-83106615D01*
X131652295Y-83108333D01*
X132452295Y-83108333D01*
X132500504Y-83090786D01*
X132526156Y-83046357D01*
X132517247Y-82995833D01*
X132477947Y-82962856D01*
X132452295Y-82958333D01*
X132146342Y-82958333D01*
X132146342Y-82881906D01*
X132495304Y-82637633D01*
X132524736Y-82595611D01*
X132520273Y-82544503D01*
X132484001Y-82508221D01*
X132432894Y-82503743D01*
X132409285Y-82514748D01*
X132140718Y-82702744D01*
X132138424Y-82695030D01*
X132100329Y-82618840D01*
X132099139Y-82617714D01*
X132086280Y-82599348D01*
X132048185Y-82561253D01*
X132046700Y-82560560D01*
X132028693Y-82547204D01*
X131952502Y-82509108D01*
X131948048Y-82508595D01*
X131944613Y-82505713D01*
X131918961Y-82501190D01*
X131804676Y-82501190D01*
X131800462Y-82502723D01*
X131796101Y-82501682D01*
X131771134Y-82509108D01*
X131694944Y-82547204D01*
X131693818Y-82548393D01*
X131675452Y-82561253D01*
X131637357Y-82599348D01*
X131636666Y-82600829D01*
X131623308Y-82618840D01*
X131585213Y-82695030D01*
X131584700Y-82699483D01*
X131581818Y-82702919D01*
X131577295Y-82728571D01*
X131577295Y-83033333D01*
X131463009Y-83033333D01*
X131463009Y-82347619D01*
X131577295Y-82347619D01*
X131594842Y-82395828D01*
X131639271Y-82421480D01*
X131689795Y-82412571D01*
X131722772Y-82373271D01*
X131727295Y-82347619D01*
X131727295Y-82194048D01*
X132452295Y-82194048D01*
X132500504Y-82176501D01*
X132526156Y-82132072D01*
X132517247Y-82081548D01*
X132477947Y-82048571D01*
X132452295Y-82044048D01*
X131727295Y-82044048D01*
X131727295Y-81890476D01*
X131709748Y-81842267D01*
X131665319Y-81816615D01*
X131614795Y-81825524D01*
X131581818Y-81864824D01*
X131577295Y-81890476D01*
X131577295Y-82347619D01*
X131463009Y-82347619D01*
X131463009Y-81471428D01*
X131577295Y-81471428D01*
X131578828Y-81475640D01*
X131577786Y-81480002D01*
X131585213Y-81504969D01*
X131623308Y-81581160D01*
X131624497Y-81582285D01*
X131637357Y-81600652D01*
X131675452Y-81638747D01*
X131676933Y-81639438D01*
X131694944Y-81652796D01*
X131771135Y-81690891D01*
X131774661Y-81691296D01*
X131786485Y-81696570D01*
X131938867Y-81734666D01*
X131942315Y-81734305D01*
X131957057Y-81736905D01*
X132147533Y-81736905D01*
X132150790Y-81735719D01*
X132165724Y-81734666D01*
X132318105Y-81696570D01*
X132321050Y-81694580D01*
X132333455Y-81690891D01*
X132409645Y-81652796D01*
X132410770Y-81651607D01*
X132429136Y-81638748D01*
X132467232Y-81600653D01*
X132467922Y-81599171D01*
X132481282Y-81581160D01*
X132519377Y-81504969D01*
X132519889Y-81500515D01*
X132522772Y-81497080D01*
X132527295Y-81471428D01*
X132527295Y-81395238D01*
X132525761Y-81391025D01*
X132526804Y-81386664D01*
X132519377Y-81361697D01*
X132481282Y-81285506D01*
X132480094Y-81284381D01*
X132467232Y-81266013D01*
X132429136Y-81227918D01*
X132427653Y-81227226D01*
X132409645Y-81213870D01*
X132333455Y-81175775D01*
X132329926Y-81175368D01*
X132318104Y-81170096D01*
X132165723Y-81132001D01*
X132162274Y-81132361D01*
X132147533Y-81129762D01*
X131957057Y-81129762D01*
X131953799Y-81130947D01*
X131938867Y-81132001D01*
X131786486Y-81170096D01*
X131783542Y-81172084D01*
X131771135Y-81175775D01*
X131694944Y-81213870D01*
X131693818Y-81215059D01*
X131675452Y-81227919D01*
X131637357Y-81266014D01*
X131636666Y-81267495D01*
X131623308Y-81285506D01*
X131585213Y-81361697D01*
X131584700Y-81366150D01*
X131581818Y-81369586D01*
X131577295Y-81395238D01*
X131577295Y-81471428D01*
X131463009Y-81471428D01*
X131463009Y-81015476D01*
X132641581Y-81015476D01*
X132641581Y-84746428D01*
G37*
X118451900Y-81350462D02*
X117993964Y-81269649D01*
X118128651Y-81673710D02*
X117562966Y-81108025D01*
X117562966Y-81108025D02*
X117778465Y-80892526D01*
X117778465Y-80892526D02*
X117859277Y-80865588D01*
X117859277Y-80865588D02*
X117913152Y-80865588D01*
X117913152Y-80865588D02*
X117993964Y-80892526D01*
X117993964Y-80892526D02*
X118074777Y-80973338D01*
X118074777Y-80973338D02*
X118101714Y-81054150D01*
X118101714Y-81054150D02*
X118101714Y-81108025D01*
X118101714Y-81108025D02*
X118074777Y-81188837D01*
X118074777Y-81188837D02*
X117859277Y-81404336D01*
X118990648Y-80811714D02*
X118667399Y-81134962D01*
X118829024Y-80973338D02*
X118263338Y-80407653D01*
X118263338Y-80407653D02*
X118290276Y-80542340D01*
X118290276Y-80542340D02*
X118290276Y-80650089D01*
X118290276Y-80650089D02*
X118263338Y-80730901D01*
X109924038Y-117588651D02*
X109870163Y-117588651D01*
X109870163Y-117588651D02*
X109762413Y-117534776D01*
X109762413Y-117534776D02*
X109708539Y-117480901D01*
X109708539Y-117480901D02*
X109654664Y-117373152D01*
X109654664Y-117373152D02*
X109654664Y-117265402D01*
X109654664Y-117265402D02*
X109681601Y-117184590D01*
X109681601Y-117184590D02*
X109762413Y-117049903D01*
X109762413Y-117049903D02*
X109843226Y-116969091D01*
X109843226Y-116969091D02*
X109977913Y-116888279D01*
X109977913Y-116888279D02*
X110058725Y-116861341D01*
X110058725Y-116861341D02*
X110166474Y-116861341D01*
X110166474Y-116861341D02*
X110274224Y-116915216D01*
X110274224Y-116915216D02*
X110328099Y-116969091D01*
X110328099Y-116969091D02*
X110381974Y-117076840D01*
X110381974Y-117076840D02*
X110381974Y-117130715D01*
X110624410Y-117265402D02*
X110974596Y-117615588D01*
X110974596Y-117615588D02*
X110570535Y-117642526D01*
X110570535Y-117642526D02*
X110651348Y-117723338D01*
X110651348Y-117723338D02*
X110678285Y-117804150D01*
X110678285Y-117804150D02*
X110678285Y-117858025D01*
X110678285Y-117858025D02*
X110651348Y-117938837D01*
X110651348Y-117938837D02*
X110516661Y-118073524D01*
X110516661Y-118073524D02*
X110435848Y-118100462D01*
X110435848Y-118100462D02*
X110381974Y-118100462D01*
X110381974Y-118100462D02*
X110301161Y-118073524D01*
X110301161Y-118073524D02*
X110139537Y-117911900D01*
X110139537Y-117911900D02*
X110112600Y-117831088D01*
X110112600Y-117831088D02*
X110112600Y-117777213D01*
X111459470Y-118100462D02*
X111351720Y-117992712D01*
X111351720Y-117992712D02*
X111270908Y-117965775D01*
X111270908Y-117965775D02*
X111217033Y-117965775D01*
X111217033Y-117965775D02*
X111082346Y-117992712D01*
X111082346Y-117992712D02*
X110947659Y-118073524D01*
X110947659Y-118073524D02*
X110732160Y-118289024D01*
X110732160Y-118289024D02*
X110705223Y-118369836D01*
X110705223Y-118369836D02*
X110705223Y-118423711D01*
X110705223Y-118423711D02*
X110732160Y-118504523D01*
X110732160Y-118504523D02*
X110839910Y-118612272D01*
X110839910Y-118612272D02*
X110920722Y-118639210D01*
X110920722Y-118639210D02*
X110974597Y-118639210D01*
X110974597Y-118639210D02*
X111055409Y-118612272D01*
X111055409Y-118612272D02*
X111190096Y-118477585D01*
X111190096Y-118477585D02*
X111217033Y-118396773D01*
X111217033Y-118396773D02*
X111217033Y-118342898D01*
X111217033Y-118342898D02*
X111190096Y-118262086D01*
X111190096Y-118262086D02*
X111082346Y-118154337D01*
X111082346Y-118154337D02*
X111001534Y-118127399D01*
X111001534Y-118127399D02*
X110947659Y-118127399D01*
X110947659Y-118127399D02*
X110866847Y-118154337D01*
X110048025Y-78896587D02*
X110048025Y-78950462D01*
X110048025Y-78950462D02*
X109994151Y-79058211D01*
X109994151Y-79058211D02*
X109940276Y-79112086D01*
X109940276Y-79112086D02*
X109832526Y-79165961D01*
X109832526Y-79165961D02*
X109724777Y-79165961D01*
X109724777Y-79165961D02*
X109643964Y-79139023D01*
X109643964Y-79139023D02*
X109509277Y-79058211D01*
X109509277Y-79058211D02*
X109428465Y-78977399D01*
X109428465Y-78977399D02*
X109347653Y-78842712D01*
X109347653Y-78842712D02*
X109320716Y-78761900D01*
X109320716Y-78761900D02*
X109320716Y-78654150D01*
X109320716Y-78654150D02*
X109374590Y-78546401D01*
X109374590Y-78546401D02*
X109428465Y-78492526D01*
X109428465Y-78492526D02*
X109536215Y-78438651D01*
X109536215Y-78438651D02*
X109590090Y-78438651D01*
X109724777Y-78196214D02*
X110101900Y-77819091D01*
X110101900Y-77819091D02*
X110425149Y-78627213D01*
X120173333Y-114812295D02*
X120173333Y-115383723D01*
X120173333Y-115383723D02*
X120135238Y-115498009D01*
X120135238Y-115498009D02*
X120059047Y-115574200D01*
X120059047Y-115574200D02*
X119944762Y-115612295D01*
X119944762Y-115612295D02*
X119868571Y-115612295D01*
X120668571Y-115155152D02*
X120592381Y-115117057D01*
X120592381Y-115117057D02*
X120554286Y-115078961D01*
X120554286Y-115078961D02*
X120516190Y-115002771D01*
X120516190Y-115002771D02*
X120516190Y-114964676D01*
X120516190Y-114964676D02*
X120554286Y-114888485D01*
X120554286Y-114888485D02*
X120592381Y-114850390D01*
X120592381Y-114850390D02*
X120668571Y-114812295D01*
X120668571Y-114812295D02*
X120820952Y-114812295D01*
X120820952Y-114812295D02*
X120897143Y-114850390D01*
X120897143Y-114850390D02*
X120935238Y-114888485D01*
X120935238Y-114888485D02*
X120973333Y-114964676D01*
X120973333Y-114964676D02*
X120973333Y-115002771D01*
X120973333Y-115002771D02*
X120935238Y-115078961D01*
X120935238Y-115078961D02*
X120897143Y-115117057D01*
X120897143Y-115117057D02*
X120820952Y-115155152D01*
X120820952Y-115155152D02*
X120668571Y-115155152D01*
X120668571Y-115155152D02*
X120592381Y-115193247D01*
X120592381Y-115193247D02*
X120554286Y-115231342D01*
X120554286Y-115231342D02*
X120516190Y-115307533D01*
X120516190Y-115307533D02*
X120516190Y-115459914D01*
X120516190Y-115459914D02*
X120554286Y-115536104D01*
X120554286Y-115536104D02*
X120592381Y-115574200D01*
X120592381Y-115574200D02*
X120668571Y-115612295D01*
X120668571Y-115612295D02*
X120820952Y-115612295D01*
X120820952Y-115612295D02*
X120897143Y-115574200D01*
X120897143Y-115574200D02*
X120935238Y-115536104D01*
X120935238Y-115536104D02*
X120973333Y-115459914D01*
X120973333Y-115459914D02*
X120973333Y-115307533D01*
X120973333Y-115307533D02*
X120935238Y-115231342D01*
X120935238Y-115231342D02*
X120897143Y-115193247D01*
X120897143Y-115193247D02*
X120820952Y-115155152D01*
D12*
X124400000Y-114691422D02*
X124400000Y-115208578D01*
X122980000Y-114691422D02*
X122980000Y-115208578D01*
X116640000Y-106240000D02*
X122650000Y-106240000D01*
X118890000Y-113060000D02*
X122650000Y-113060000D01*
X122650000Y-106240000D02*
X122650000Y-107500000D01*
X122650000Y-113060000D02*
X122650000Y-111800000D01*
X114530000Y-111358578D02*
X114530000Y-110841422D01*
X115950000Y-111358578D02*
X115950000Y-110841422D01*
X121830000Y-96772500D02*
X121830000Y-96122500D01*
X122480000Y-89552500D02*
X121830000Y-89552500D01*
X122480000Y-96772500D02*
X121830000Y-96772500D01*
X128400000Y-89552500D02*
X129050000Y-89552500D01*
X128400000Y-96772500D02*
X129050000Y-96772500D01*
X129050000Y-89552500D02*
X129050000Y-90202500D01*
X129050000Y-96772500D02*
X129050000Y-96122500D01*
D11*
X121212500Y-104102250D02*
X121212500Y-104102250D01*
X121412500Y-104102250D02*
X121412500Y-104102250D01*
X122262500Y-100998250D02*
X122662500Y-100998250D01*
X122262500Y-103498250D02*
X122662500Y-103498250D01*
X121412500Y-104102250D02*
G75*
G03*
X121212500Y-104102250I-100000J0D01*
G01*
X121212500Y-104102250D02*
G75*
G03*
X121412500Y-104102250I100000J0D01*
G01*
X123590000Y-75250000D02*
X123590000Y-79050000D01*
D13*
X124338000Y-79775000D02*
X124338000Y-79775000D01*
X124360000Y-79775000D02*
X124360000Y-79775000D01*
D11*
X127190000Y-79050000D02*
X127190000Y-75250000D01*
D13*
X124360000Y-79775000D02*
G75*
G03*
X124338000Y-79775000I-11000J0D01*
G01*
X124338000Y-79775000D02*
G75*
G03*
X124360000Y-79775000I11000J0D01*
G01*
D12*
X135425000Y-106135000D02*
X136575000Y-106135000D01*
X136575000Y-106135000D02*
X136575000Y-105085000D01*
X136575000Y-105085000D02*
X137565000Y-105085000D01*
X133455000Y-104965000D02*
X133455000Y-100085000D01*
X135425000Y-98915000D02*
X136575000Y-98915000D01*
X136575000Y-98915000D02*
X136575000Y-99965000D01*
X109390657Y-110766895D02*
X108825506Y-110201744D01*
X110182616Y-109974936D02*
X109617465Y-109409785D01*
X105705034Y-89449756D02*
X105942086Y-89212704D01*
X106242436Y-89987158D02*
X106479488Y-89750106D01*
X123848578Y-70310000D02*
X123331422Y-70310000D01*
X123848578Y-68890000D02*
X123331422Y-68890000D01*
X107851114Y-95311490D02*
X108088166Y-95548542D01*
X107313712Y-95848892D02*
X107550764Y-96085944D01*
X102334265Y-102126585D02*
X102899416Y-102691736D01*
X101542306Y-102918544D02*
X102107457Y-103483695D01*
X110695257Y-72636711D02*
X110130106Y-73201862D01*
X109903298Y-71844752D02*
X109338147Y-72409903D01*
X109638144Y-115115602D02*
X109072993Y-114550451D01*
X110430103Y-114323643D02*
X109864952Y-113758492D01*
X106835619Y-108247213D02*
X106466152Y-107877746D01*
X107875066Y-107207766D02*
X107505599Y-106838299D01*
X116610895Y-105187680D02*
X116412084Y-105386491D01*
X115889646Y-104466431D02*
X115690835Y-104665242D01*
X135425000Y-97310000D02*
X136575000Y-97310000D01*
X136575000Y-97310000D02*
X136575000Y-96260000D01*
X136575000Y-96260000D02*
X137565000Y-96260000D01*
X133455000Y-96140000D02*
X133455000Y-91260000D01*
X135425000Y-90090000D02*
X136575000Y-90090000D01*
X136575000Y-90090000D02*
X136575000Y-91140000D01*
X97914848Y-101808387D02*
X98479999Y-102373538D01*
X97122889Y-102600346D02*
X97688040Y-103165497D01*
X105190710Y-116381591D02*
X106074593Y-115497707D01*
X105190710Y-115971469D02*
X109412137Y-111750042D01*
X109412137Y-111750042D02*
X100488450Y-102826354D01*
X105190710Y-115957327D02*
X105721040Y-115426997D01*
X105721040Y-115426997D02*
X104448248Y-114154205D01*
X106781700Y-114366337D02*
X106251370Y-113836007D01*
X106251370Y-113836007D02*
X108337335Y-111750042D01*
X108337335Y-111750042D02*
X104412892Y-107825599D01*
X104306826Y-115497707D02*
X105190710Y-116381591D01*
X103917917Y-114684535D02*
X105190710Y-115957327D01*
X104448248Y-114154205D02*
X103917917Y-114684535D01*
X102857257Y-113623875D02*
X103387587Y-113093544D01*
X103387587Y-113093544D02*
X99144947Y-108850904D01*
X98614617Y-109381234D02*
X102857257Y-113623875D01*
X99144947Y-108850904D02*
X98614617Y-109381234D01*
X97553956Y-108320574D02*
X98084287Y-107790244D01*
X98084287Y-107790244D02*
X96811494Y-106517451D01*
X98402485Y-105987121D02*
X100488450Y-103901156D01*
X100488450Y-103901156D02*
X104412892Y-107825599D01*
X96281164Y-107047781D02*
X97553956Y-108320574D01*
X96811494Y-106517451D02*
X96281164Y-107047781D01*
X97872154Y-105456791D02*
X98402485Y-105987121D01*
X96267022Y-107047781D02*
X105190710Y-115971469D01*
X100488450Y-102826354D02*
X96267022Y-107047781D01*
X129230000Y-101590000D02*
X128080000Y-101590000D01*
X128080000Y-101590000D02*
X128080000Y-102640000D01*
X128080000Y-102640000D02*
X127090000Y-102640000D01*
X131200000Y-102760000D02*
X131200000Y-105640000D01*
X129230000Y-106810000D02*
X128080000Y-106810000D01*
X128080000Y-106810000D02*
X128080000Y-105760000D01*
X114198350Y-79731359D02*
X114405203Y-79938212D01*
X113477101Y-80452608D02*
X113683954Y-80659461D01*
X113432802Y-76164051D02*
X113225949Y-75957198D01*
X114154051Y-75442802D02*
X113947198Y-75235949D01*
X107968750Y-70915522D02*
X108338217Y-70546055D01*
X109008197Y-71954969D02*
X109377664Y-71585502D01*
X106206304Y-96622388D02*
X105999451Y-96415535D01*
X106927553Y-95901139D02*
X106720700Y-95694286D01*
X107315955Y-91332749D02*
X107117144Y-91133938D01*
X108037204Y-90611500D02*
X107838393Y-90412689D01*
X117033066Y-99773335D02*
X116796014Y-100010387D01*
X116495664Y-99235933D02*
X116258612Y-99472985D01*
X114038468Y-107488041D02*
X113801416Y-107250989D01*
X114575870Y-106950639D02*
X114338818Y-106713587D01*
X118470000Y-83446359D02*
X118470000Y-83753641D01*
X117710000Y-83446359D02*
X117710000Y-83753641D01*
X103697801Y-87403464D02*
X103904654Y-87610317D01*
X102976552Y-88124713D02*
X103183405Y-88331566D01*
X105033296Y-88777993D02*
X105270348Y-88540941D01*
X105570698Y-89315395D02*
X105807750Y-89078343D01*
X97388052Y-84360002D02*
X97953203Y-83794851D01*
X98180011Y-85151961D02*
X98745162Y-84586810D01*
X101754051Y-99657198D02*
X101547198Y-99864051D01*
X101032802Y-98935949D02*
X100825949Y-99142802D01*
X96122061Y-79912570D02*
X97005945Y-80796453D01*
X96532183Y-79912570D02*
X100753610Y-84133997D01*
X100753610Y-84133997D02*
X109677298Y-75210310D01*
X96546325Y-79912570D02*
X97076655Y-80442900D01*
X97076655Y-80442900D02*
X98349447Y-79170108D01*
X98137315Y-81503560D02*
X98667645Y-80973230D01*
X98667645Y-80973230D02*
X100753610Y-83059195D01*
X100753610Y-83059195D02*
X104678053Y-79134752D01*
X97005945Y-79028686D02*
X96122061Y-79912570D01*
X97819117Y-78639777D02*
X96546325Y-79912570D01*
X98349447Y-79170108D02*
X97819117Y-78639777D01*
X98879777Y-77579117D02*
X99410108Y-78109447D01*
X99410108Y-78109447D02*
X103652748Y-73866807D01*
X103122418Y-73336477D02*
X98879777Y-77579117D01*
X103652748Y-73866807D02*
X103122418Y-73336477D01*
X104183078Y-72275816D02*
X104713408Y-72806147D01*
X104713408Y-72806147D02*
X105986201Y-71533354D01*
X106516531Y-73124345D02*
X108602496Y-75210310D01*
X108602496Y-75210310D02*
X104678053Y-79134752D01*
X105455871Y-71003024D02*
X104183078Y-72275816D01*
X105986201Y-71533354D02*
X105455871Y-71003024D01*
X107046861Y-72594014D02*
X106516531Y-73124345D01*
X105455871Y-70988882D02*
X96532183Y-79912570D01*
X109677298Y-75210310D02*
X105455871Y-70988882D01*
D11*
X117017728Y-67660823D02*
X122656905Y-73300000D01*
X114489821Y-74466726D02*
X117990000Y-77966905D01*
D14*
X113424971Y-80711596D02*
X116536241Y-83822866D01*
X106113487Y-88023080D02*
X109224757Y-91134350D01*
D11*
X111633461Y-79718111D02*
G75*
G03*
X111633461Y-79718111I-100000J0D01*
G01*
D14*
X105989740Y-99078688D02*
X109101010Y-95967418D01*
X113301224Y-106390172D02*
X116412494Y-103278902D01*
D11*
X105096255Y-100970198D02*
G75*
G03*
X105096255Y-100970198I-100000J0D01*
G01*
D12*
X104974146Y-98269946D02*
X105180999Y-98063093D01*
X105695395Y-98991195D02*
X105902248Y-98784342D01*
X112628577Y-108788160D02*
X112835430Y-108581307D01*
X113349826Y-109509409D02*
X113556679Y-109302556D01*
X115881269Y-80928157D02*
X116088122Y-80721304D01*
X116602518Y-81649406D02*
X116809371Y-81442553D01*
X96193661Y-104534902D02*
X95824194Y-104165435D01*
X97233108Y-103495455D02*
X96863641Y-103125988D01*
D15*
X118930000Y-88125000D02*
G75*
G03*
X118930000Y-88125000I-125000J0D01*
G01*
D12*
X115586861Y-98801233D02*
X115823913Y-98564181D01*
X116124263Y-99338635D02*
X116361315Y-99101583D01*
X101736743Y-84112505D02*
X102301894Y-83547354D01*
X102528702Y-84904464D02*
X103093853Y-84339313D01*
X112730340Y-91754915D02*
X112493288Y-91517863D01*
X113267742Y-91217513D02*
X113030690Y-90980461D01*
X105101435Y-104434136D02*
X105470902Y-104803603D01*
X104061988Y-105473583D02*
X104431455Y-105843050D01*
D11*
X93350823Y-96072272D02*
X98990000Y-90433095D01*
X100156726Y-98600179D02*
X103656905Y-95100000D01*
D12*
X113702432Y-90308713D02*
X113939484Y-90545765D01*
X113165030Y-90846115D02*
X113402082Y-91083167D01*
X114710220Y-106816290D02*
X114473168Y-106579238D01*
X115247622Y-106278888D02*
X115010570Y-106041836D01*
X110377080Y-77056118D02*
X109811929Y-77621269D01*
X109585121Y-76264159D02*
X109019970Y-76829310D01*
X135425000Y-88485000D02*
X136575000Y-88485000D01*
X136575000Y-88485000D02*
X136575000Y-87435000D01*
X136575000Y-87435000D02*
X137565000Y-87435000D01*
X133455000Y-87315000D02*
X133455000Y-82435000D01*
X135425000Y-81265000D02*
X136575000Y-81265000D01*
X136575000Y-81265000D02*
X136575000Y-82315000D01*
X104256436Y-81557468D02*
X104625903Y-81188001D01*
X105295883Y-82596915D02*
X105665350Y-82227448D01*
X130457621Y-100580000D02*
X130122379Y-100580000D01*
X130457621Y-99820000D02*
X130122379Y-99820000D01*
X97498270Y-83464896D02*
X97128803Y-83834363D01*
X96458823Y-82425449D02*
X96089356Y-82794916D01*
X129230000Y-80290000D02*
X128080000Y-80290000D01*
X128080000Y-80290000D02*
X128080000Y-81340000D01*
X128080000Y-81340000D02*
X127090000Y-81340000D01*
X131200000Y-81460000D02*
X131200000Y-84340000D01*
X129230000Y-85510000D02*
X128080000Y-85510000D01*
X128080000Y-85510000D02*
X128080000Y-84460000D01*
X117227517Y-82608328D02*
X116990465Y-82845380D01*
X116690115Y-82070926D02*
X116453063Y-82307978D01*
X108743035Y-115005382D02*
X109112502Y-115374849D01*
X107703588Y-116044829D02*
X108073055Y-116414296D01*
X108069506Y-79823288D02*
X107700039Y-80192755D01*
X107030059Y-78783841D02*
X106660592Y-79153308D01*
X122640000Y-119900000D02*
X122640000Y-118650000D01*
X122350000Y-119610000D02*
X122350000Y-113640000D01*
X122350000Y-113640000D02*
X114730000Y-113640000D01*
X122340000Y-119600000D02*
X122340000Y-118850000D01*
X122340000Y-118850000D02*
X120540000Y-118850000D01*
X122340000Y-117350000D02*
X121590000Y-117350000D01*
X121590000Y-117350000D02*
X121590000Y-114400000D01*
X121590000Y-114400000D02*
X118540000Y-114400000D01*
X121390000Y-119900000D02*
X122640000Y-119900000D01*
X120540000Y-119600000D02*
X122340000Y-119600000D01*
X120540000Y-118850000D02*
X120540000Y-119600000D01*
X119040000Y-119600000D02*
X119040000Y-118850000D01*
X119040000Y-118850000D02*
X118040000Y-118850000D01*
X118040000Y-119600000D02*
X119040000Y-119600000D01*
X118040000Y-118850000D02*
X118040000Y-119600000D01*
X116540000Y-119600000D02*
X116540000Y-118850000D01*
X116540000Y-118850000D02*
X114740000Y-118850000D01*
X115490000Y-117350000D02*
X115490000Y-114400000D01*
X115490000Y-114400000D02*
X118540000Y-114400000D01*
X114740000Y-119600000D02*
X116540000Y-119600000D01*
X114740000Y-118850000D02*
X114740000Y-119600000D01*
X114740000Y-117350000D02*
X115490000Y-117350000D01*
X114730000Y-119610000D02*
X122350000Y-119610000D01*
X114730000Y-113640000D02*
X114730000Y-119610000D01*
M02*
