G04 #@! TF.GenerationSoftware,KiCad,Pcbnew,7.0.8-7.0.8~ubuntu22.04.1*
G04 #@! TF.CreationDate,2023-11-03T11:59:51-07:00*
G04 #@! TF.ProjectId,tentacle-board,74656e74-6163-46c6-952d-626f6172642e,REV1*
G04 #@! TF.SameCoordinates,Original*
G04 #@! TF.FileFunction,Soldermask,Top*
G04 #@! TF.FilePolarity,Negative*
%FSLAX46Y46*%
G04 Gerber Fmt 4.6, Leading zero omitted, Abs format (unit mm)*
G04 Created by KiCad (PCBNEW 7.0.8-7.0.8~ubuntu22.04.1) date 2023-11-03 11:59:51*
%MOMM*%
%LPD*%
G01*
G04 APERTURE LIST*
G04 Aperture macros list*
%AMRoundRect*
0 Rectangle with rounded corners*
0 $1 Rounding radius*
0 $2 $3 $4 $5 $6 $7 $8 $9 X,Y pos of 4 corners*
0 Add a 4 corners polygon primitive as box body*
4,1,4,$2,$3,$4,$5,$6,$7,$8,$9,$2,$3,0*
0 Add four circle primitives for the rounded corners*
1,1,$1+$1,$2,$3*
1,1,$1+$1,$4,$5*
1,1,$1+$1,$6,$7*
1,1,$1+$1,$8,$9*
0 Add four rect primitives between the rounded corners*
20,1,$1+$1,$2,$3,$4,$5,0*
20,1,$1+$1,$4,$5,$6,$7,0*
20,1,$1+$1,$6,$7,$8,$9,0*
20,1,$1+$1,$8,$9,$2,$3,0*%
%AMHorizOval*
0 Thick line with rounded ends*
0 $1 width*
0 $2 $3 position (X,Y) of the first rounded end (center of the circle)*
0 $4 $5 position (X,Y) of the second rounded end (center of the circle)*
0 Add line between two ends*
20,1,$1,$2,$3,$4,$5,0*
0 Add two circle primitives to create the rounded ends*
1,1,$1,$2,$3*
1,1,$1,$4,$5*%
%AMRotRect*
0 Rectangle, with rotation*
0 The origin of the aperture is its center*
0 $1 length*
0 $2 width*
0 $3 Rotation angle, in degrees counterclockwise*
0 Add horizontal line*
21,1,$1,$2,0,0,$3*%
G04 Aperture macros list end*
%ADD10C,0.010000*%
%ADD11RoundRect,0.243750X-0.456250X0.243750X-0.456250X-0.243750X0.456250X-0.243750X0.456250X0.243750X0*%
%ADD12RoundRect,0.147500X-0.147500X-0.172500X0.147500X-0.172500X0.147500X0.172500X-0.147500X0.172500X0*%
%ADD13RoundRect,0.147500X0.172500X-0.147500X0.172500X0.147500X-0.172500X0.147500X-0.172500X-0.147500X0*%
%ADD14RoundRect,0.147500X0.147500X0.172500X-0.147500X0.172500X-0.147500X-0.172500X0.147500X-0.172500X0*%
%ADD15R,2.000000X1.500000*%
%ADD16R,2.000000X3.800000*%
%ADD17RoundRect,0.147500X-0.172500X0.147500X-0.172500X-0.147500X0.172500X-0.147500X0.172500X0.147500X0*%
%ADD18RoundRect,0.243750X0.456250X-0.243750X0.456250X0.243750X-0.456250X0.243750X-0.456250X-0.243750X0*%
%ADD19RoundRect,0.050000X-0.387500X-0.050000X0.387500X-0.050000X0.387500X0.050000X-0.387500X0.050000X0*%
%ADD20RoundRect,0.050000X-0.050000X-0.387500X0.050000X-0.387500X0.050000X0.387500X-0.050000X0.387500X0*%
%ADD21RoundRect,0.144000X-1.456000X-1.456000X1.456000X-1.456000X1.456000X1.456000X-1.456000X1.456000X0*%
%ADD22C,2.600000*%
%ADD23C,3.500000*%
%ADD24R,1.300000X1.050000*%
%ADD25R,1.200000X1.200000*%
%ADD26R,1.600000X1.500000*%
%ADD27C,1.000000*%
%ADD28RoundRect,0.150000X0.625000X-0.150000X0.625000X0.150000X-0.625000X0.150000X-0.625000X-0.150000X0*%
%ADD29RoundRect,0.250000X0.650000X-0.350000X0.650000X0.350000X-0.650000X0.350000X-0.650000X-0.350000X0*%
%ADD30RoundRect,0.218750X0.424264X0.114905X0.114905X0.424264X-0.424264X-0.114905X-0.114905X-0.424264X0*%
%ADD31RoundRect,0.160000X-0.026517X-0.252791X0.252791X0.026517X0.026517X0.252791X-0.252791X-0.026517X0*%
%ADD32RoundRect,0.243750X0.243750X0.456250X-0.243750X0.456250X-0.243750X-0.456250X0.243750X-0.456250X0*%
%ADD33RoundRect,0.160000X-0.252791X0.026517X0.026517X-0.252791X0.252791X-0.026517X-0.026517X0.252791X0*%
%ADD34RoundRect,0.218750X-0.424264X-0.114905X-0.114905X-0.424264X0.424264X0.114905X0.114905X0.424264X0*%
%ADD35RoundRect,0.218750X-0.114905X0.424264X-0.424264X0.114905X0.114905X-0.424264X0.424264X-0.114905X0*%
%ADD36RoundRect,0.250000X0.512652X0.159099X0.159099X0.512652X-0.512652X-0.159099X-0.159099X-0.512652X0*%
%ADD37RoundRect,0.225000X-0.017678X0.335876X-0.335876X0.017678X0.017678X-0.335876X0.335876X-0.017678X0*%
%ADD38RoundRect,0.250000X0.936916X0.088388X0.088388X0.936916X-0.936916X-0.088388X-0.088388X-0.936916X0*%
%ADD39HorizOval,1.700000X0.088388X0.088388X-0.088388X-0.088388X0*%
%ADD40RoundRect,0.150000X-0.625000X0.150000X-0.625000X-0.150000X0.625000X-0.150000X0.625000X0.150000X0*%
%ADD41RoundRect,0.250000X-0.650000X0.350000X-0.650000X-0.350000X0.650000X-0.350000X0.650000X0.350000X0*%
%ADD42RoundRect,0.237500X-0.380070X0.044194X0.044194X-0.380070X0.380070X-0.044194X-0.044194X0.380070X0*%
%ADD43RoundRect,0.237500X0.380070X-0.044194X-0.044194X0.380070X-0.380070X0.044194X0.044194X-0.380070X0*%
%ADD44RoundRect,0.250000X0.159099X-0.512652X0.512652X-0.159099X-0.159099X0.512652X-0.512652X0.159099X0*%
%ADD45RoundRect,0.225000X0.335876X0.017678X0.017678X0.335876X-0.335876X-0.017678X-0.017678X-0.335876X0*%
%ADD46RoundRect,0.160000X0.026517X0.252791X-0.252791X-0.026517X-0.026517X-0.252791X0.252791X0.026517X0*%
%ADD47RoundRect,0.160000X0.252791X-0.026517X-0.026517X0.252791X-0.252791X0.026517X0.026517X-0.252791X0*%
%ADD48RoundRect,0.135000X-0.185000X0.135000X-0.185000X-0.135000X0.185000X-0.135000X0.185000X0.135000X0*%
%ADD49RoundRect,0.218750X0.114905X-0.424264X0.424264X-0.114905X-0.114905X0.424264X-0.424264X0.114905X0*%
%ADD50RoundRect,0.237500X0.044194X0.380070X-0.380070X-0.044194X-0.044194X-0.380070X0.380070X0.044194X0*%
%ADD51RoundRect,0.250000X0.088388X-0.936916X0.936916X-0.088388X-0.088388X0.936916X-0.936916X0.088388X0*%
%ADD52HorizOval,1.700000X-0.088388X0.088388X0.088388X-0.088388X0*%
%ADD53RotRect,1.800000X3.450000X45.000000*%
%ADD54RoundRect,0.237500X-0.044194X-0.380070X0.380070X0.044194X0.044194X0.380070X-0.380070X-0.044194X0*%
%ADD55R,0.450000X1.050000*%
%ADD56R,4.350000X3.450000*%
%ADD57RoundRect,0.250000X-0.512652X-0.159099X-0.159099X-0.512652X0.512652X0.159099X0.159099X0.512652X0*%
%ADD58RotRect,1.800000X3.450000X135.000000*%
%ADD59RoundRect,0.160000X0.197500X0.160000X-0.197500X0.160000X-0.197500X-0.160000X0.197500X-0.160000X0*%
%ADD60RoundRect,0.250000X-0.159099X0.512652X-0.512652X0.159099X0.159099X-0.512652X0.512652X-0.159099X0*%
%ADD61RoundRect,0.250000X0.600000X0.750000X-0.600000X0.750000X-0.600000X-0.750000X0.600000X-0.750000X0*%
%ADD62O,1.700000X2.000000*%
G04 APERTURE END LIST*
D10*
X113103238Y-81415167D02*
X112792111Y-81726294D01*
X111561745Y-80495928D01*
X111872872Y-80184801D01*
X113103238Y-81415167D01*
G36*
X113103238Y-81415167D02*
G01*
X112792111Y-81726294D01*
X111561745Y-80495928D01*
X111872872Y-80184801D01*
X113103238Y-81415167D01*
G37*
X112643618Y-81874787D02*
X112332491Y-82185914D01*
X111102125Y-80955548D01*
X111413252Y-80644421D01*
X112643618Y-81874787D01*
G36*
X112643618Y-81874787D02*
G01*
X112332491Y-82185914D01*
X111102125Y-80955548D01*
X111413252Y-80644421D01*
X112643618Y-81874787D01*
G37*
X112183999Y-82334406D02*
X111872872Y-82645533D01*
X110642506Y-81415167D01*
X110953633Y-81104040D01*
X112183999Y-82334406D01*
G36*
X112183999Y-82334406D02*
G01*
X111872872Y-82645533D01*
X110642506Y-81415167D01*
X110953633Y-81104040D01*
X112183999Y-82334406D01*
G37*
X111724379Y-82794025D02*
X111413252Y-83105152D01*
X110182887Y-81874787D01*
X110494014Y-81563660D01*
X111724379Y-82794025D01*
G36*
X111724379Y-82794025D02*
G01*
X111413252Y-83105152D01*
X110182887Y-81874787D01*
X110494014Y-81563660D01*
X111724379Y-82794025D01*
G37*
X111264760Y-83253645D02*
X110953633Y-83564772D01*
X109723267Y-82334406D01*
X110034394Y-82023279D01*
X111264760Y-83253645D01*
G36*
X111264760Y-83253645D02*
G01*
X110953633Y-83564772D01*
X109723267Y-82334406D01*
X110034394Y-82023279D01*
X111264760Y-83253645D01*
G37*
X110805141Y-83713264D02*
X110494014Y-84024391D01*
X109263648Y-82794025D01*
X109574775Y-82482899D01*
X110805141Y-83713264D01*
G36*
X110805141Y-83713264D02*
G01*
X110494014Y-84024391D01*
X109263648Y-82794025D01*
X109574775Y-82482899D01*
X110805141Y-83713264D01*
G37*
X110345521Y-84172884D02*
X110034394Y-84484011D01*
X108804028Y-83253645D01*
X109115155Y-82942518D01*
X110345521Y-84172884D01*
G36*
X110345521Y-84172884D02*
G01*
X110034394Y-84484011D01*
X108804028Y-83253645D01*
X109115155Y-82942518D01*
X110345521Y-84172884D01*
G37*
X109885902Y-84632503D02*
X109574775Y-84943630D01*
X108344409Y-83713264D01*
X108655536Y-83402137D01*
X109885902Y-84632503D01*
G36*
X109885902Y-84632503D02*
G01*
X109574775Y-84943630D01*
X108344409Y-83713264D01*
X108655536Y-83402137D01*
X109885902Y-84632503D01*
G37*
X109426282Y-85092123D02*
X109115155Y-85403250D01*
X107884790Y-84172884D01*
X108195916Y-83861757D01*
X109426282Y-85092123D01*
G36*
X109426282Y-85092123D02*
G01*
X109115155Y-85403250D01*
X107884790Y-84172884D01*
X108195916Y-83861757D01*
X109426282Y-85092123D01*
G37*
X108966663Y-85551742D02*
X108655536Y-85862869D01*
X107425170Y-84632503D01*
X107736297Y-84321376D01*
X108966663Y-85551742D01*
G36*
X108966663Y-85551742D02*
G01*
X108655536Y-85862869D01*
X107425170Y-84632503D01*
X107736297Y-84321376D01*
X108966663Y-85551742D01*
G37*
X108507043Y-86011361D02*
X108195916Y-86322488D01*
X106965551Y-85092123D01*
X107276678Y-84780996D01*
X108507043Y-86011361D01*
G36*
X108507043Y-86011361D02*
G01*
X108195916Y-86322488D01*
X106965551Y-85092123D01*
X107276678Y-84780996D01*
X108507043Y-86011361D01*
G37*
X108047424Y-86470981D02*
X107736297Y-86782108D01*
X106505931Y-85551742D01*
X106817058Y-85240615D01*
X108047424Y-86470981D01*
G36*
X108047424Y-86470981D02*
G01*
X107736297Y-86782108D01*
X106505931Y-85551742D01*
X106817058Y-85240615D01*
X108047424Y-86470981D01*
G37*
X107587805Y-86930600D02*
X107276678Y-87241727D01*
X106046312Y-86011361D01*
X106357439Y-85700234D01*
X107587805Y-86930600D01*
G36*
X107587805Y-86930600D02*
G01*
X107276678Y-87241727D01*
X106046312Y-86011361D01*
X106357439Y-85700234D01*
X107587805Y-86930600D01*
G37*
X107128185Y-87390220D02*
X106817058Y-87701347D01*
X105586692Y-86470981D01*
X105897819Y-86159854D01*
X107128185Y-87390220D01*
G36*
X107128185Y-87390220D02*
G01*
X106817058Y-87701347D01*
X105586692Y-86470981D01*
X105897819Y-86159854D01*
X107128185Y-87390220D01*
G37*
X114457347Y-84487546D02*
X109889437Y-89055456D01*
X108192381Y-87358400D01*
X112760291Y-82790490D01*
X114457347Y-84487546D01*
G36*
X114457347Y-84487546D02*
G01*
X109889437Y-89055456D01*
X108192381Y-87358400D01*
X112760291Y-82790490D01*
X114457347Y-84487546D01*
G37*
X117063036Y-85374965D02*
X116751909Y-85686092D01*
X115521543Y-84455726D01*
X115832670Y-84144599D01*
X117063036Y-85374965D01*
G36*
X117063036Y-85374965D02*
G01*
X116751909Y-85686092D01*
X115521543Y-84455726D01*
X115832670Y-84144599D01*
X117063036Y-85374965D01*
G37*
X116603416Y-85834585D02*
X116292289Y-86145712D01*
X115061923Y-84915346D01*
X115373050Y-84604219D01*
X116603416Y-85834585D01*
G36*
X116603416Y-85834585D02*
G01*
X116292289Y-86145712D01*
X115061923Y-84915346D01*
X115373050Y-84604219D01*
X116603416Y-85834585D01*
G37*
X116143797Y-86294204D02*
X115832670Y-86605331D01*
X114602304Y-85374965D01*
X114913431Y-85063838D01*
X116143797Y-86294204D01*
G36*
X116143797Y-86294204D02*
G01*
X115832670Y-86605331D01*
X114602304Y-85374965D01*
X114913431Y-85063838D01*
X116143797Y-86294204D01*
G37*
X115684177Y-86753823D02*
X115373050Y-87064950D01*
X114142685Y-85834585D01*
X114453812Y-85523458D01*
X115684177Y-86753823D01*
G36*
X115684177Y-86753823D02*
G01*
X115373050Y-87064950D01*
X114142685Y-85834585D01*
X114453812Y-85523458D01*
X115684177Y-86753823D01*
G37*
X115224558Y-87213443D02*
X114913431Y-87524570D01*
X113683065Y-86294204D01*
X113994192Y-85983077D01*
X115224558Y-87213443D01*
G36*
X115224558Y-87213443D02*
G01*
X114913431Y-87524570D01*
X113683065Y-86294204D01*
X113994192Y-85983077D01*
X115224558Y-87213443D01*
G37*
X114764938Y-87673062D02*
X114453812Y-87984189D01*
X113223446Y-86753823D01*
X113534573Y-86442696D01*
X114764938Y-87673062D01*
G36*
X114764938Y-87673062D02*
G01*
X114453812Y-87984189D01*
X113223446Y-86753823D01*
X113534573Y-86442696D01*
X114764938Y-87673062D01*
G37*
X114305319Y-88132682D02*
X113994192Y-88443809D01*
X112763826Y-87213443D01*
X113074953Y-86902316D01*
X114305319Y-88132682D01*
G36*
X114305319Y-88132682D02*
G01*
X113994192Y-88443809D01*
X112763826Y-87213443D01*
X113074953Y-86902316D01*
X114305319Y-88132682D01*
G37*
X113845700Y-88592301D02*
X113534573Y-88903428D01*
X112304207Y-87673062D01*
X112615334Y-87361935D01*
X113845700Y-88592301D01*
G36*
X113845700Y-88592301D02*
G01*
X113534573Y-88903428D01*
X112304207Y-87673062D01*
X112615334Y-87361935D01*
X113845700Y-88592301D01*
G37*
X113386080Y-89051921D02*
X113074953Y-89363047D01*
X111844587Y-88132682D01*
X112155714Y-87821555D01*
X113386080Y-89051921D01*
G36*
X113386080Y-89051921D02*
G01*
X113074953Y-89363047D01*
X111844587Y-88132682D01*
X112155714Y-87821555D01*
X113386080Y-89051921D01*
G37*
X112926461Y-89511540D02*
X112615334Y-89822667D01*
X111384968Y-88592301D01*
X111696095Y-88281174D01*
X112926461Y-89511540D01*
G36*
X112926461Y-89511540D02*
G01*
X112615334Y-89822667D01*
X111384968Y-88592301D01*
X111696095Y-88281174D01*
X112926461Y-89511540D01*
G37*
X112466841Y-89971159D02*
X112155714Y-90282286D01*
X110925349Y-89051921D01*
X111236476Y-88740794D01*
X112466841Y-89971159D01*
G36*
X112466841Y-89971159D02*
G01*
X112155714Y-90282286D01*
X110925349Y-89051921D01*
X111236476Y-88740794D01*
X112466841Y-89971159D01*
G37*
X112007222Y-90430779D02*
X111696095Y-90741906D01*
X110465729Y-89511540D01*
X110776856Y-89200413D01*
X112007222Y-90430779D01*
G36*
X112007222Y-90430779D02*
G01*
X111696095Y-90741906D01*
X110465729Y-89511540D01*
X110776856Y-89200413D01*
X112007222Y-90430779D01*
G37*
X111547603Y-90890398D02*
X111236476Y-91201525D01*
X110006110Y-89971159D01*
X110317237Y-89660032D01*
X111547603Y-90890398D01*
G36*
X111547603Y-90890398D02*
G01*
X111236476Y-91201525D01*
X110006110Y-89971159D01*
X110317237Y-89660032D01*
X111547603Y-90890398D01*
G37*
X111087983Y-91350018D02*
X110776856Y-91661145D01*
X109546490Y-90430779D01*
X109857617Y-90119652D01*
X111087983Y-91350018D01*
G36*
X111087983Y-91350018D02*
G01*
X110776856Y-91661145D01*
X109546490Y-90430779D01*
X109857617Y-90119652D01*
X111087983Y-91350018D01*
G37*
X107004438Y-99711548D02*
X105774072Y-100941914D01*
X105462945Y-100630787D01*
X106693311Y-99400421D01*
X107004438Y-99711548D01*
G36*
X107004438Y-99711548D02*
G01*
X105774072Y-100941914D01*
X105462945Y-100630787D01*
X106693311Y-99400421D01*
X107004438Y-99711548D01*
G37*
X107464058Y-100171168D02*
X106233692Y-101401534D01*
X105922565Y-101090407D01*
X107152931Y-99860041D01*
X107464058Y-100171168D01*
G36*
X107464058Y-100171168D02*
G01*
X106233692Y-101401534D01*
X105922565Y-101090407D01*
X107152931Y-99860041D01*
X107464058Y-100171168D01*
G37*
X107923677Y-100630787D02*
X106693311Y-101861153D01*
X106382184Y-101550026D01*
X107612550Y-100319660D01*
X107923677Y-100630787D01*
G36*
X107923677Y-100630787D02*
G01*
X106693311Y-101861153D01*
X106382184Y-101550026D01*
X107612550Y-100319660D01*
X107923677Y-100630787D01*
G37*
X108383296Y-101090407D02*
X107152931Y-102320772D01*
X106841804Y-102009645D01*
X108072169Y-100779280D01*
X108383296Y-101090407D01*
G36*
X108383296Y-101090407D02*
G01*
X107152931Y-102320772D01*
X106841804Y-102009645D01*
X108072169Y-100779280D01*
X108383296Y-101090407D01*
G37*
X108842916Y-101550026D02*
X107612550Y-102780392D01*
X107301423Y-102469265D01*
X108531789Y-101238899D01*
X108842916Y-101550026D01*
G36*
X108842916Y-101550026D02*
G01*
X107612550Y-102780392D01*
X107301423Y-102469265D01*
X108531789Y-101238899D01*
X108842916Y-101550026D01*
G37*
X109302535Y-102009645D02*
X108072169Y-103240011D01*
X107761043Y-102928884D01*
X108991408Y-101698518D01*
X109302535Y-102009645D01*
G36*
X109302535Y-102009645D02*
G01*
X108072169Y-103240011D01*
X107761043Y-102928884D01*
X108991408Y-101698518D01*
X109302535Y-102009645D01*
G37*
X109762155Y-102469265D02*
X108531789Y-103699631D01*
X108220662Y-103388504D01*
X109451028Y-102158138D01*
X109762155Y-102469265D01*
G36*
X109762155Y-102469265D02*
G01*
X108531789Y-103699631D01*
X108220662Y-103388504D01*
X109451028Y-102158138D01*
X109762155Y-102469265D01*
G37*
X110221774Y-102928884D02*
X108991408Y-104159250D01*
X108680281Y-103848123D01*
X109910647Y-102617757D01*
X110221774Y-102928884D01*
G36*
X110221774Y-102928884D02*
G01*
X108991408Y-104159250D01*
X108680281Y-103848123D01*
X109910647Y-102617757D01*
X110221774Y-102928884D01*
G37*
X110681394Y-103388504D02*
X109451028Y-104618869D01*
X109139901Y-104307743D01*
X110370267Y-103077377D01*
X110681394Y-103388504D01*
G36*
X110681394Y-103388504D02*
G01*
X109451028Y-104618869D01*
X109139901Y-104307743D01*
X110370267Y-103077377D01*
X110681394Y-103388504D01*
G37*
X111141013Y-103848123D02*
X109910647Y-105078489D01*
X109599520Y-104767362D01*
X110829886Y-103536996D01*
X111141013Y-103848123D01*
G36*
X111141013Y-103848123D02*
G01*
X109910647Y-105078489D01*
X109599520Y-104767362D01*
X110829886Y-103536996D01*
X111141013Y-103848123D01*
G37*
X111600632Y-104307743D02*
X110370267Y-105538108D01*
X110059140Y-105226981D01*
X111289505Y-103996616D01*
X111600632Y-104307743D01*
G36*
X111600632Y-104307743D02*
G01*
X110370267Y-105538108D01*
X110059140Y-105226981D01*
X111289505Y-103996616D01*
X111600632Y-104307743D01*
G37*
X112060252Y-104767362D02*
X110829886Y-105997728D01*
X110518759Y-105686601D01*
X111749125Y-104456235D01*
X112060252Y-104767362D01*
G36*
X112060252Y-104767362D02*
G01*
X110829886Y-105997728D01*
X110518759Y-105686601D01*
X111749125Y-104456235D01*
X112060252Y-104767362D01*
G37*
X112519871Y-105226981D02*
X111289505Y-106457347D01*
X110978378Y-106146220D01*
X112208744Y-104915854D01*
X112519871Y-105226981D01*
G36*
X112519871Y-105226981D02*
G01*
X111289505Y-106457347D01*
X110978378Y-106146220D01*
X112208744Y-104915854D01*
X112519871Y-105226981D01*
G37*
X112979491Y-105686601D02*
X111749125Y-106916967D01*
X111437998Y-106605840D01*
X112668364Y-105375474D01*
X112979491Y-105686601D01*
G36*
X112979491Y-105686601D02*
G01*
X111749125Y-106916967D01*
X111437998Y-106605840D01*
X112668364Y-105375474D01*
X112979491Y-105686601D01*
G37*
X114333600Y-102614222D02*
X112636544Y-104311278D01*
X108068634Y-99743368D01*
X109765690Y-98046312D01*
X114333600Y-102614222D01*
G36*
X114333600Y-102614222D02*
G01*
X112636544Y-104311278D01*
X108068634Y-99743368D01*
X109765690Y-98046312D01*
X114333600Y-102614222D01*
G37*
X110964236Y-95751750D02*
X109733870Y-96982116D01*
X109422743Y-96670989D01*
X110653109Y-95440623D01*
X110964236Y-95751750D01*
G36*
X110964236Y-95751750D02*
G01*
X109733870Y-96982116D01*
X109422743Y-96670989D01*
X110653109Y-95440623D01*
X110964236Y-95751750D01*
G37*
X111423856Y-96211370D02*
X110193490Y-97441736D01*
X109882363Y-97130609D01*
X111112729Y-95900243D01*
X111423856Y-96211370D01*
G36*
X111423856Y-96211370D02*
G01*
X110193490Y-97441736D01*
X109882363Y-97130609D01*
X111112729Y-95900243D01*
X111423856Y-96211370D01*
G37*
X111883475Y-96670989D02*
X110653109Y-97901355D01*
X110341982Y-97590228D01*
X111572348Y-96359862D01*
X111883475Y-96670989D01*
G36*
X111883475Y-96670989D02*
G01*
X110653109Y-97901355D01*
X110341982Y-97590228D01*
X111572348Y-96359862D01*
X111883475Y-96670989D01*
G37*
X112343094Y-97130609D02*
X111112729Y-98360974D01*
X110801602Y-98049847D01*
X112031967Y-96819482D01*
X112343094Y-97130609D01*
G36*
X112343094Y-97130609D02*
G01*
X111112729Y-98360974D01*
X110801602Y-98049847D01*
X112031967Y-96819482D01*
X112343094Y-97130609D01*
G37*
X112802714Y-97590228D02*
X111572348Y-98820594D01*
X111261221Y-98509467D01*
X112491587Y-97279101D01*
X112802714Y-97590228D01*
G36*
X112802714Y-97590228D02*
G01*
X111572348Y-98820594D01*
X111261221Y-98509467D01*
X112491587Y-97279101D01*
X112802714Y-97590228D01*
G37*
X113262333Y-98049847D02*
X112031967Y-99280213D01*
X111720840Y-98969086D01*
X112951206Y-97738721D01*
X113262333Y-98049847D01*
G36*
X113262333Y-98049847D02*
G01*
X112031967Y-99280213D01*
X111720840Y-98969086D01*
X112951206Y-97738721D01*
X113262333Y-98049847D01*
G37*
X113721953Y-98509467D02*
X112491587Y-99739833D01*
X112180460Y-99428706D01*
X113410826Y-98198340D01*
X113721953Y-98509467D01*
G36*
X113721953Y-98509467D02*
G01*
X112491587Y-99739833D01*
X112180460Y-99428706D01*
X113410826Y-98198340D01*
X113721953Y-98509467D01*
G37*
X114181572Y-98969086D02*
X112951206Y-100199452D01*
X112640079Y-99888325D01*
X113870445Y-98657959D01*
X114181572Y-98969086D01*
G36*
X114181572Y-98969086D02*
G01*
X112951206Y-100199452D01*
X112640079Y-99888325D01*
X113870445Y-98657959D01*
X114181572Y-98969086D01*
G37*
X114641191Y-99428706D02*
X113410826Y-100659072D01*
X113099699Y-100347945D01*
X114330065Y-99117579D01*
X114641191Y-99428706D01*
G36*
X114641191Y-99428706D02*
G01*
X113410826Y-100659072D01*
X113099699Y-100347945D01*
X114330065Y-99117579D01*
X114641191Y-99428706D01*
G37*
X115100811Y-99888325D02*
X113870445Y-101118691D01*
X113559318Y-100807564D01*
X114789684Y-99577198D01*
X115100811Y-99888325D01*
G36*
X115100811Y-99888325D02*
G01*
X113870445Y-101118691D01*
X113559318Y-100807564D01*
X114789684Y-99577198D01*
X115100811Y-99888325D01*
G37*
X115560430Y-100347945D02*
X114330065Y-101578310D01*
X114018938Y-101267183D01*
X115249303Y-100036818D01*
X115560430Y-100347945D01*
G36*
X115560430Y-100347945D02*
G01*
X114330065Y-101578310D01*
X114018938Y-101267183D01*
X115249303Y-100036818D01*
X115560430Y-100347945D01*
G37*
X116020050Y-100807564D02*
X114789684Y-102037930D01*
X114478557Y-101726803D01*
X115708923Y-100496437D01*
X116020050Y-100807564D01*
G36*
X116020050Y-100807564D02*
G01*
X114789684Y-102037930D01*
X114478557Y-101726803D01*
X115708923Y-100496437D01*
X116020050Y-100807564D01*
G37*
X116479669Y-101267183D02*
X115249303Y-102497549D01*
X114938176Y-102186422D01*
X116168542Y-100956056D01*
X116479669Y-101267183D01*
G36*
X116479669Y-101267183D02*
G01*
X115249303Y-102497549D01*
X114938176Y-102186422D01*
X116168542Y-100956056D01*
X116479669Y-101267183D01*
G37*
X116939289Y-101726803D02*
X115708923Y-102957169D01*
X115397796Y-102646042D01*
X116628162Y-101415676D01*
X116939289Y-101726803D01*
G36*
X116939289Y-101726803D02*
G01*
X115708923Y-102957169D01*
X115397796Y-102646042D01*
X116628162Y-101415676D01*
X116939289Y-101726803D01*
G37*
D11*
X123690000Y-114012500D03*
X123690000Y-115887500D03*
D12*
X129205000Y-88050000D03*
X130175000Y-88050000D03*
D13*
X127490000Y-88285000D03*
X127490000Y-87315000D03*
D14*
X120275000Y-94200000D03*
X119305000Y-94200000D03*
D13*
X120290000Y-80285000D03*
X120290000Y-79315000D03*
D15*
X117590000Y-107350000D03*
X117590000Y-109650000D03*
D16*
X123890000Y-109650000D03*
D15*
X117590000Y-111950000D03*
D17*
X125840000Y-102115000D03*
X125840000Y-103085000D03*
D13*
X126490000Y-88285000D03*
X126490000Y-87315000D03*
D12*
X130905000Y-94600000D03*
X131875000Y-94600000D03*
D17*
X125821000Y-99162500D03*
X125821000Y-100132500D03*
X126790000Y-99165000D03*
X126790000Y-100135000D03*
D18*
X115240000Y-112037500D03*
X115240000Y-110162500D03*
D13*
X120690000Y-90385000D03*
X120690000Y-89415000D03*
D12*
X130092500Y-89100000D03*
X131062500Y-89100000D03*
D19*
X122002500Y-90562500D03*
X122002500Y-90962500D03*
X122002500Y-91362500D03*
X122002500Y-91762500D03*
X122002500Y-92162500D03*
X122002500Y-92562500D03*
X122002500Y-92962500D03*
X122002500Y-93362500D03*
X122002500Y-93762500D03*
X122002500Y-94162500D03*
X122002500Y-94562500D03*
X122002500Y-94962500D03*
X122002500Y-95362500D03*
X122002500Y-95762500D03*
D20*
X122840000Y-96600000D03*
X123240000Y-96600000D03*
X123640000Y-96600000D03*
X124040000Y-96600000D03*
X124440000Y-96600000D03*
X124840000Y-96600000D03*
X125240000Y-96600000D03*
X125640000Y-96600000D03*
X126040000Y-96600000D03*
X126440000Y-96600000D03*
X126840000Y-96600000D03*
X127240000Y-96600000D03*
X127640000Y-96600000D03*
X128040000Y-96600000D03*
D19*
X128877500Y-95762500D03*
X128877500Y-95362500D03*
X128877500Y-94962500D03*
X128877500Y-94562500D03*
X128877500Y-94162500D03*
X128877500Y-93762500D03*
X128877500Y-93362500D03*
X128877500Y-92962500D03*
X128877500Y-92562500D03*
X128877500Y-92162500D03*
X128877500Y-91762500D03*
X128877500Y-91362500D03*
X128877500Y-90962500D03*
X128877500Y-90562500D03*
D20*
X128040000Y-89725000D03*
X127640000Y-89725000D03*
X127240000Y-89725000D03*
X126840000Y-89725000D03*
X126440000Y-89725000D03*
X126040000Y-89725000D03*
X125640000Y-89725000D03*
X125240000Y-89725000D03*
X124840000Y-89725000D03*
X124440000Y-89725000D03*
X124040000Y-89725000D03*
X123640000Y-89725000D03*
X123240000Y-89725000D03*
X122840000Y-89725000D03*
D21*
X125440000Y-93162500D03*
D13*
X119112500Y-103183250D03*
X119112500Y-102213250D03*
D22*
X128040000Y-116550000D03*
D23*
X128040000Y-116550000D03*
D13*
X125190000Y-86285000D03*
X125190000Y-85315000D03*
D12*
X130107500Y-90250000D03*
X131077500Y-90250000D03*
D14*
X124847500Y-99316750D03*
X123877500Y-99316750D03*
D22*
X95390000Y-89900000D03*
D23*
X95390000Y-89900000D03*
D22*
X128040000Y-70750000D03*
D23*
X128040000Y-70750000D03*
D24*
X121312500Y-103173250D03*
X123612500Y-103173250D03*
X123612500Y-101323250D03*
X121312500Y-101323250D03*
D25*
X124390000Y-78850000D03*
D26*
X125390000Y-75600000D03*
D25*
X126390000Y-78850000D03*
D27*
X129240000Y-113750000D03*
D28*
X136790000Y-104525000D03*
X136790000Y-103525000D03*
X136790000Y-102525000D03*
X136790000Y-101525000D03*
X136790000Y-100525000D03*
D29*
X134265000Y-105825000D03*
X134265000Y-99225000D03*
D30*
X110255362Y-110839641D03*
X108752760Y-109337039D03*
D31*
X105669765Y-90022427D03*
X106514757Y-89177435D03*
D32*
X124527500Y-69600000D03*
X122652500Y-69600000D03*
D33*
X107278443Y-95276221D03*
X108123435Y-96121213D03*
D34*
X101469560Y-102053839D03*
X102972162Y-103556441D03*
D35*
X110768003Y-71772006D03*
X109265401Y-73274608D03*
D30*
X110502849Y-115188348D03*
X109000247Y-113685746D03*
D36*
X107842360Y-108214507D03*
X106498858Y-106871005D03*
D37*
X116698873Y-104378453D03*
X115602857Y-105474469D03*
D28*
X136790000Y-95700000D03*
X136790000Y-94700000D03*
X136790000Y-93700000D03*
X136790000Y-92700000D03*
X136790000Y-91700000D03*
D29*
X134265000Y-97000000D03*
X134265000Y-90400000D03*
D34*
X97050143Y-101735641D03*
X98552745Y-103238243D03*
D38*
X105119999Y-112421793D03*
D39*
X103352232Y-110654026D03*
X101584465Y-108886259D03*
X99816698Y-107118492D03*
D40*
X127865000Y-103200000D03*
X127865000Y-104200000D03*
X127865000Y-105200000D03*
D41*
X130390000Y-101900000D03*
X130390000Y-106500000D03*
D42*
X113331272Y-79585530D03*
X114551032Y-80805290D03*
D43*
X114299880Y-76309880D03*
X113080120Y-75090120D03*
D44*
X108001456Y-71922263D03*
X109344958Y-70578761D03*
D43*
X107073382Y-96768217D03*
X105853622Y-95548457D03*
D45*
X108125182Y-91420727D03*
X107029166Y-90324711D03*
D46*
X117068335Y-99200664D03*
X116223343Y-100045656D03*
D47*
X114611139Y-107523310D03*
X113766147Y-106678318D03*
D48*
X118090000Y-83090000D03*
X118090000Y-84110000D03*
D42*
X102830723Y-87257635D03*
X104050483Y-88477395D03*
D31*
X104998027Y-89350664D03*
X105843019Y-88505672D03*
D49*
X97315306Y-85224707D03*
X98817908Y-83722105D03*
D50*
X101899880Y-98790120D03*
X100680120Y-100009880D03*
D51*
X100081859Y-79841859D03*
D52*
X101849626Y-78074092D03*
X103617393Y-76306325D03*
X105385160Y-74538558D03*
D27*
X98340000Y-88950000D03*
D53*
X115904035Y-71214035D03*
X120075965Y-75385965D03*
D27*
X121040000Y-67800000D03*
D54*
X104828317Y-99137024D03*
X106048077Y-97917264D03*
X112482748Y-109655238D03*
X113702508Y-108435478D03*
X115735440Y-81795235D03*
X116955200Y-80575475D03*
D36*
X97200402Y-104502196D03*
X95856900Y-103158694D03*
D55*
X119530000Y-87600000D03*
X120800000Y-87600000D03*
X122070000Y-87600000D03*
X123340000Y-87600000D03*
X123340000Y-81900000D03*
X122070000Y-81900000D03*
X120800000Y-81900000D03*
X119530000Y-81900000D03*
D56*
X121435000Y-84750000D03*
D31*
X115551592Y-99373904D03*
X116396584Y-98528912D03*
D49*
X101663997Y-84977210D03*
X103166599Y-83474608D03*
D47*
X113303011Y-91790184D03*
X112458019Y-90945192D03*
D57*
X104094694Y-104466842D03*
X105438196Y-105810344D03*
D58*
X96904035Y-97185965D03*
X101075965Y-93014035D03*
D33*
X113129761Y-90273444D03*
X113974753Y-91118436D03*
D47*
X115282891Y-106851559D03*
X114437899Y-106006567D03*
D35*
X110449826Y-76191413D03*
X108947224Y-77694015D03*
D28*
X136790000Y-86875000D03*
X136790000Y-85875000D03*
X136790000Y-84875000D03*
X136790000Y-83875000D03*
X136790000Y-82875000D03*
D29*
X134265000Y-88175000D03*
X134265000Y-81575000D03*
D44*
X104289142Y-82564209D03*
X105632644Y-81220707D03*
D59*
X130887500Y-100200000D03*
X129692500Y-100200000D03*
D60*
X97465564Y-82458155D03*
X96122062Y-83801657D03*
D40*
X127865000Y-81900000D03*
X127865000Y-82900000D03*
X127865000Y-83900000D03*
D41*
X130390000Y-80600000D03*
X130390000Y-85200000D03*
D46*
X117262786Y-82035657D03*
X116417794Y-82880649D03*
D57*
X107736294Y-115038088D03*
X109079796Y-116381590D03*
D60*
X108036800Y-78816547D03*
X106693298Y-80160049D03*
D61*
X119790000Y-117150000D03*
D62*
X117290000Y-117150000D03*
M02*
