%TF.GenerationSoftware,KiCad,Pcbnew,7.0.7*%
%TF.CreationDate,2023-10-17T10:26:18-07:00*%
%TF.ProjectId,dev-board,6465762d-626f-4617-9264-2e6b69636164,rev?*%
%TF.SameCoordinates,Original*%
%TF.FileFunction,Soldermask,Top*%
%TF.FilePolarity,Negative*%
%FSLAX46Y46*%
G04 Gerber Fmt 4.6, Leading zero omitted, Abs format (unit mm)*
G04 Created by KiCad (PCBNEW 7.0.7) date 2023-10-17 10:26:18*
%MOMM*%
%LPD*%
G01*
G04 APERTURE LIST*
G04 Aperture macros list*
%AMRoundRect*
0 Rectangle with rounded corners*
0 $1 Rounding radius*
0 $2 $3 $4 $5 $6 $7 $8 $9 X,Y pos of 4 corners*
0 Add a 4 corners polygon primitive as box body*
4,1,4,$2,$3,$4,$5,$6,$7,$8,$9,$2,$3,0*
0 Add four circle primitives for the rounded corners*
1,1,$1+$1,$2,$3*
1,1,$1+$1,$4,$5*
1,1,$1+$1,$6,$7*
1,1,$1+$1,$8,$9*
0 Add four rect primitives between the rounded corners*
20,1,$1+$1,$2,$3,$4,$5,0*
20,1,$1+$1,$4,$5,$6,$7,0*
20,1,$1+$1,$6,$7,$8,$9,0*
20,1,$1+$1,$8,$9,$2,$3,0*%
G04 Aperture macros list end*
%ADD10C,2.000000*%
%ADD11RoundRect,0.250000X0.350000X0.450000X-0.350000X0.450000X-0.350000X-0.450000X0.350000X-0.450000X0*%
%ADD12R,1.600000X1.600000*%
%ADD13C,1.600000*%
%ADD14R,1.905000X2.000000*%
%ADD15O,1.905000X2.000000*%
%ADD16RoundRect,0.250000X-0.725000X0.600000X-0.725000X-0.600000X0.725000X-0.600000X0.725000X0.600000X0*%
%ADD17O,1.950000X1.700000*%
%ADD18O,2.000000X4.000000*%
%ADD19O,4.000000X2.000000*%
%ADD20O,1.600000X1.600000*%
%ADD21RoundRect,0.250000X0.337500X0.475000X-0.337500X0.475000X-0.337500X-0.475000X0.337500X-0.475000X0*%
%ADD22RoundRect,0.250000X-0.337500X-0.475000X0.337500X-0.475000X0.337500X0.475000X-0.337500X0.475000X0*%
%ADD23O,1.800000X1.800000*%
%ADD24O,1.500000X1.500000*%
%ADD25O,1.700000X1.700000*%
%ADD26R,3.500000X1.700000*%
%ADD27R,1.700000X1.700000*%
%ADD28R,1.700000X3.500000*%
G04 APERTURE END LIST*
D10*
%TO.C,FID3*%
X175450000Y-60150000D03*
%TD*%
%TO.C,FID2*%
X192500000Y-112200000D03*
%TD*%
%TO.C,FID1*%
X131400000Y-50400000D03*
%TD*%
D11*
%TO.C,R4*%
X146650000Y-102400000D03*
X144650000Y-102400000D03*
%TD*%
D12*
%TO.C,C4*%
X157460000Y-91369046D03*
D13*
X157460000Y-88869046D03*
%TD*%
D14*
%TO.C,U2*%
X173290000Y-109050000D03*
D15*
X170750000Y-109050000D03*
X168210000Y-109050000D03*
%TD*%
D16*
%TO.C,J1*%
X135650000Y-54110000D03*
D17*
X135650000Y-56610000D03*
X135650000Y-59110000D03*
X135650000Y-61610000D03*
%TD*%
D18*
%TO.C,J7*%
X180200000Y-108950000D03*
D19*
X183000000Y-104350000D03*
D18*
X186300000Y-108950000D03*
%TD*%
D16*
%TO.C,J5*%
X135650000Y-70273333D03*
D17*
X135650000Y-72773333D03*
X135650000Y-75273333D03*
X135650000Y-77773333D03*
%TD*%
D12*
%TO.C,A2*%
X141560000Y-80363333D03*
D20*
X144100000Y-80363333D03*
X146640000Y-80363333D03*
X149180000Y-80363333D03*
X151720000Y-80363333D03*
X154260000Y-80363333D03*
X156800000Y-80363333D03*
X159340000Y-80363333D03*
X159340000Y-67663333D03*
X156800000Y-67663333D03*
X154260000Y-67663333D03*
X151720000Y-67663333D03*
X149180000Y-67663333D03*
X146640000Y-67663333D03*
X144100000Y-67663333D03*
X141560000Y-67663333D03*
%TD*%
D11*
%TO.C,R3*%
X146600000Y-86200000D03*
X144600000Y-86200000D03*
%TD*%
D12*
%TO.C,C3*%
X157460000Y-107532380D03*
D13*
X157460000Y-105032380D03*
%TD*%
D21*
%TO.C,C5*%
X175137500Y-105600000D03*
X173062500Y-105600000D03*
%TD*%
D16*
%TO.C,J6*%
X135650000Y-102600000D03*
D17*
X135650000Y-105100000D03*
X135650000Y-107600000D03*
X135650000Y-110100000D03*
%TD*%
D20*
%TO.C,A1*%
X141560000Y-51500000D03*
X144100000Y-51500000D03*
X146640000Y-51500000D03*
X149180000Y-51500000D03*
X151720000Y-51500000D03*
X154260000Y-51500000D03*
X156800000Y-51500000D03*
X159340000Y-51500000D03*
X159340000Y-64200000D03*
X156800000Y-64200000D03*
X154260000Y-64200000D03*
X151720000Y-64200000D03*
X149180000Y-64200000D03*
X146640000Y-64200000D03*
X144100000Y-64200000D03*
D12*
X141560000Y-64200000D03*
%TD*%
%TO.C,C2*%
X157460000Y-75205713D03*
D13*
X157460000Y-72705713D03*
%TD*%
D12*
%TO.C,A3*%
X141560000Y-96526666D03*
D20*
X144100000Y-96526666D03*
X146640000Y-96526666D03*
X149180000Y-96526666D03*
X151720000Y-96526666D03*
X154260000Y-96526666D03*
X156800000Y-96526666D03*
X159340000Y-96526666D03*
X159340000Y-83826666D03*
X156800000Y-83826666D03*
X154260000Y-83826666D03*
X151720000Y-83826666D03*
X149180000Y-83826666D03*
X146640000Y-83826666D03*
X144100000Y-83826666D03*
X141560000Y-83826666D03*
%TD*%
D11*
%TO.C,R1*%
X146700000Y-53850000D03*
X144700000Y-53850000D03*
%TD*%
%TO.C,R2*%
X146650000Y-70000000D03*
X144650000Y-70000000D03*
%TD*%
D22*
%TO.C,C6*%
X166412500Y-105600000D03*
X168487500Y-105600000D03*
%TD*%
D23*
%TO.C,U1*%
X171215000Y-52060000D03*
D24*
X171515000Y-55090000D03*
X176365000Y-55090000D03*
D23*
X176665000Y-52060000D03*
D25*
X165050000Y-51930000D03*
D26*
X164150000Y-51930000D03*
D25*
X165050000Y-54470000D03*
D26*
X164150000Y-54470000D03*
D27*
X165050000Y-57010000D03*
D26*
X164150000Y-57010000D03*
D25*
X165050000Y-59550000D03*
D26*
X164150000Y-59550000D03*
D25*
X165050000Y-62090000D03*
D26*
X164150000Y-62090000D03*
D25*
X165050000Y-64630000D03*
D26*
X164150000Y-64630000D03*
D25*
X165050000Y-67170000D03*
D26*
X164150000Y-67170000D03*
D27*
X165050000Y-69710000D03*
D26*
X164150000Y-69710000D03*
D25*
X165050000Y-72250000D03*
D26*
X164150000Y-72250000D03*
D25*
X165050000Y-74790000D03*
D26*
X164150000Y-74790000D03*
D25*
X165050000Y-77330000D03*
D26*
X164150000Y-77330000D03*
D25*
X165050000Y-79870000D03*
D26*
X164150000Y-79870000D03*
D27*
X165050000Y-82410000D03*
D26*
X164150000Y-82410000D03*
D25*
X165050000Y-84950000D03*
D26*
X164150000Y-84950000D03*
D25*
X165050000Y-87490000D03*
D26*
X164150000Y-87490000D03*
D25*
X165050000Y-90030000D03*
D26*
X164150000Y-90030000D03*
D25*
X165050000Y-92570000D03*
D26*
X164150000Y-92570000D03*
D27*
X165050000Y-95110000D03*
D26*
X164150000Y-95110000D03*
D25*
X165050000Y-97650000D03*
D26*
X164150000Y-97650000D03*
D25*
X165050000Y-100190000D03*
D26*
X164150000Y-100190000D03*
D25*
X182830000Y-100190000D03*
D26*
X183730000Y-100190000D03*
D25*
X182830000Y-97650000D03*
D26*
X183730000Y-97650000D03*
D27*
X182830000Y-95110000D03*
D26*
X183730000Y-95110000D03*
D25*
X182830000Y-92570000D03*
D26*
X183730000Y-92570000D03*
D25*
X182830000Y-90030000D03*
D26*
X183730000Y-90030000D03*
D25*
X182830000Y-87490000D03*
D26*
X183730000Y-87490000D03*
D25*
X182830000Y-84950000D03*
D26*
X183730000Y-84950000D03*
D27*
X182830000Y-82410000D03*
D26*
X183730000Y-82410000D03*
D25*
X182830000Y-79870000D03*
D26*
X183730000Y-79870000D03*
D25*
X182830000Y-77330000D03*
D26*
X183730000Y-77330000D03*
D25*
X182830000Y-74790000D03*
D26*
X183730000Y-74790000D03*
D25*
X182830000Y-72250000D03*
D26*
X183730000Y-72250000D03*
D27*
X182830000Y-69710000D03*
D26*
X183730000Y-69710000D03*
D25*
X182830000Y-67170000D03*
D26*
X183730000Y-67170000D03*
D25*
X182830000Y-64630000D03*
D26*
X183730000Y-64630000D03*
D25*
X182830000Y-62090000D03*
D26*
X183730000Y-62090000D03*
D25*
X182830000Y-59550000D03*
D26*
X183730000Y-59550000D03*
D27*
X182830000Y-57010000D03*
D26*
X183730000Y-57010000D03*
D25*
X182830000Y-54470000D03*
D26*
X183730000Y-54470000D03*
D25*
X182830000Y-51930000D03*
D26*
X183730000Y-51930000D03*
D25*
X171400000Y-99960000D03*
D28*
X171400000Y-100860000D03*
D27*
X173940000Y-99960000D03*
D28*
X173940000Y-100860000D03*
D25*
X176480000Y-99960000D03*
D28*
X176480000Y-100860000D03*
%TD*%
D27*
%TO.C,J3*%
X191550000Y-63350000D03*
D25*
X191550000Y-65890000D03*
X191550000Y-68430000D03*
X191550000Y-70970000D03*
X191550000Y-73510000D03*
X191550000Y-76050000D03*
X191550000Y-78590000D03*
X191550000Y-81130000D03*
X191550000Y-83670000D03*
X191550000Y-86210000D03*
X191550000Y-88750000D03*
%TD*%
D12*
%TO.C,A4*%
X141560000Y-112690000D03*
D20*
X144100000Y-112690000D03*
X146640000Y-112690000D03*
X149180000Y-112690000D03*
X151720000Y-112690000D03*
X154260000Y-112690000D03*
X156800000Y-112690000D03*
X159340000Y-112690000D03*
X159340000Y-99990000D03*
X156800000Y-99990000D03*
X154260000Y-99990000D03*
X151720000Y-99990000D03*
X149180000Y-99990000D03*
X146640000Y-99990000D03*
X144100000Y-99990000D03*
X141560000Y-99990000D03*
%TD*%
D16*
%TO.C,J2*%
X189475000Y-52950000D03*
D17*
X189475000Y-55450000D03*
X189475000Y-57950000D03*
%TD*%
D16*
%TO.C,J4*%
X135650000Y-86436666D03*
D17*
X135650000Y-88936666D03*
X135650000Y-91436666D03*
X135650000Y-93936666D03*
%TD*%
%TO.C,J8*%
X189475000Y-99200000D03*
X189475000Y-96700000D03*
D16*
X189475000Y-94200000D03*
%TD*%
D12*
%TO.C,C1*%
X157460000Y-59042380D03*
D13*
X157460000Y-56542380D03*
%TD*%
M02*
