%TF.GenerationSoftware,KiCad,Pcbnew,7.0.7*%
%TF.CreationDate,2023-10-17T10:26:18-07:00*%
%TF.ProjectId,dev-board,6465762d-626f-4617-9264-2e6b69636164,rev?*%
%TF.SameCoordinates,Original*%
%TF.FileFunction,Legend,Bot*%
%TF.FilePolarity,Positive*%
%FSLAX46Y46*%
G04 Gerber Fmt 4.6, Leading zero omitted, Abs format (unit mm)*
G04 Created by KiCad (PCBNEW 7.0.7) date 2023-10-17 10:26:18*
%MOMM*%
%LPD*%
G01*
G04 APERTURE LIST*
G04 Aperture macros list*
%AMRoundRect*
0 Rectangle with rounded corners*
0 $1 Rounding radius*
0 $2 $3 $4 $5 $6 $7 $8 $9 X,Y pos of 4 corners*
0 Add a 4 corners polygon primitive as box body*
4,1,4,$2,$3,$4,$5,$6,$7,$8,$9,$2,$3,0*
0 Add four circle primitives for the rounded corners*
1,1,$1+$1,$2,$3*
1,1,$1+$1,$4,$5*
1,1,$1+$1,$6,$7*
1,1,$1+$1,$8,$9*
0 Add four rect primitives between the rounded corners*
20,1,$1+$1,$2,$3,$4,$5,0*
20,1,$1+$1,$4,$5,$6,$7,0*
20,1,$1+$1,$6,$7,$8,$9,0*
20,1,$1+$1,$8,$9,$2,$3,0*%
G04 Aperture macros list end*
%ADD10C,0.150000*%
%ADD11R,1.600000X1.600000*%
%ADD12C,1.600000*%
%ADD13R,1.905000X2.000000*%
%ADD14O,1.905000X2.000000*%
%ADD15RoundRect,0.250000X-0.725000X0.600000X-0.725000X-0.600000X0.725000X-0.600000X0.725000X0.600000X0*%
%ADD16O,1.950000X1.700000*%
%ADD17O,2.000000X4.000000*%
%ADD18O,4.000000X2.000000*%
%ADD19O,1.600000X1.600000*%
%ADD20O,1.800000X1.800000*%
%ADD21O,1.500000X1.500000*%
%ADD22O,1.700000X1.700000*%
%ADD23R,1.700000X1.700000*%
G04 APERTURE END LIST*
D10*
X193722200Y-93989160D02*
X193769819Y-94132017D01*
X193769819Y-94132017D02*
X193769819Y-94370112D01*
X193769819Y-94370112D02*
X193722200Y-94465350D01*
X193722200Y-94465350D02*
X193674580Y-94512969D01*
X193674580Y-94512969D02*
X193579342Y-94560588D01*
X193579342Y-94560588D02*
X193484104Y-94560588D01*
X193484104Y-94560588D02*
X193388866Y-94512969D01*
X193388866Y-94512969D02*
X193341247Y-94465350D01*
X193341247Y-94465350D02*
X193293628Y-94370112D01*
X193293628Y-94370112D02*
X193246009Y-94179636D01*
X193246009Y-94179636D02*
X193198390Y-94084398D01*
X193198390Y-94084398D02*
X193150771Y-94036779D01*
X193150771Y-94036779D02*
X193055533Y-93989160D01*
X193055533Y-93989160D02*
X192960295Y-93989160D01*
X192960295Y-93989160D02*
X192865057Y-94036779D01*
X192865057Y-94036779D02*
X192817438Y-94084398D01*
X192817438Y-94084398D02*
X192769819Y-94179636D01*
X192769819Y-94179636D02*
X192769819Y-94417731D01*
X192769819Y-94417731D02*
X192817438Y-94560588D01*
X193103152Y-94846303D02*
X193103152Y-95227255D01*
X192769819Y-94989160D02*
X193626961Y-94989160D01*
X193626961Y-94989160D02*
X193722200Y-95036779D01*
X193722200Y-95036779D02*
X193769819Y-95132017D01*
X193769819Y-95132017D02*
X193769819Y-95227255D01*
X193722200Y-95941541D02*
X193769819Y-95846303D01*
X193769819Y-95846303D02*
X193769819Y-95655827D01*
X193769819Y-95655827D02*
X193722200Y-95560589D01*
X193722200Y-95560589D02*
X193626961Y-95512970D01*
X193626961Y-95512970D02*
X193246009Y-95512970D01*
X193246009Y-95512970D02*
X193150771Y-95560589D01*
X193150771Y-95560589D02*
X193103152Y-95655827D01*
X193103152Y-95655827D02*
X193103152Y-95846303D01*
X193103152Y-95846303D02*
X193150771Y-95941541D01*
X193150771Y-95941541D02*
X193246009Y-95989160D01*
X193246009Y-95989160D02*
X193341247Y-95989160D01*
X193341247Y-95989160D02*
X193436485Y-95512970D01*
X193103152Y-96417732D02*
X194103152Y-96417732D01*
X193150771Y-96417732D02*
X193103152Y-96512970D01*
X193103152Y-96512970D02*
X193103152Y-96703446D01*
X193103152Y-96703446D02*
X193150771Y-96798684D01*
X193150771Y-96798684D02*
X193198390Y-96846303D01*
X193198390Y-96846303D02*
X193293628Y-96893922D01*
X193293628Y-96893922D02*
X193579342Y-96893922D01*
X193579342Y-96893922D02*
X193674580Y-96846303D01*
X193674580Y-96846303D02*
X193722200Y-96798684D01*
X193722200Y-96798684D02*
X193769819Y-96703446D01*
X193769819Y-96703446D02*
X193769819Y-96512970D01*
X193769819Y-96512970D02*
X193722200Y-96417732D01*
X193103152Y-97322494D02*
X194103152Y-97322494D01*
X193150771Y-97322494D02*
X193103152Y-97417732D01*
X193103152Y-97417732D02*
X193103152Y-97608208D01*
X193103152Y-97608208D02*
X193150771Y-97703446D01*
X193150771Y-97703446D02*
X193198390Y-97751065D01*
X193198390Y-97751065D02*
X193293628Y-97798684D01*
X193293628Y-97798684D02*
X193579342Y-97798684D01*
X193579342Y-97798684D02*
X193674580Y-97751065D01*
X193674580Y-97751065D02*
X193722200Y-97703446D01*
X193722200Y-97703446D02*
X193769819Y-97608208D01*
X193769819Y-97608208D02*
X193769819Y-97417732D01*
X193769819Y-97417732D02*
X193722200Y-97322494D01*
X193722200Y-98608208D02*
X193769819Y-98512970D01*
X193769819Y-98512970D02*
X193769819Y-98322494D01*
X193769819Y-98322494D02*
X193722200Y-98227256D01*
X193722200Y-98227256D02*
X193626961Y-98179637D01*
X193626961Y-98179637D02*
X193246009Y-98179637D01*
X193246009Y-98179637D02*
X193150771Y-98227256D01*
X193150771Y-98227256D02*
X193103152Y-98322494D01*
X193103152Y-98322494D02*
X193103152Y-98512970D01*
X193103152Y-98512970D02*
X193150771Y-98608208D01*
X193150771Y-98608208D02*
X193246009Y-98655827D01*
X193246009Y-98655827D02*
X193341247Y-98655827D01*
X193341247Y-98655827D02*
X193436485Y-98179637D01*
X193769819Y-99084399D02*
X193103152Y-99084399D01*
X193293628Y-99084399D02*
X193198390Y-99132018D01*
X193198390Y-99132018D02*
X193150771Y-99179637D01*
X193150771Y-99179637D02*
X193103152Y-99274875D01*
X193103152Y-99274875D02*
X193103152Y-99370113D01*
X193769819Y-100465352D02*
X192769819Y-100465352D01*
X192769819Y-100465352D02*
X192769819Y-100703447D01*
X192769819Y-100703447D02*
X192817438Y-100846304D01*
X192817438Y-100846304D02*
X192912676Y-100941542D01*
X192912676Y-100941542D02*
X193007914Y-100989161D01*
X193007914Y-100989161D02*
X193198390Y-101036780D01*
X193198390Y-101036780D02*
X193341247Y-101036780D01*
X193341247Y-101036780D02*
X193531723Y-100989161D01*
X193531723Y-100989161D02*
X193626961Y-100941542D01*
X193626961Y-100941542D02*
X193722200Y-100846304D01*
X193722200Y-100846304D02*
X193769819Y-100703447D01*
X193769819Y-100703447D02*
X193769819Y-100465352D01*
X193722200Y-101846304D02*
X193769819Y-101751066D01*
X193769819Y-101751066D02*
X193769819Y-101560590D01*
X193769819Y-101560590D02*
X193722200Y-101465352D01*
X193722200Y-101465352D02*
X193626961Y-101417733D01*
X193626961Y-101417733D02*
X193246009Y-101417733D01*
X193246009Y-101417733D02*
X193150771Y-101465352D01*
X193150771Y-101465352D02*
X193103152Y-101560590D01*
X193103152Y-101560590D02*
X193103152Y-101751066D01*
X193103152Y-101751066D02*
X193150771Y-101846304D01*
X193150771Y-101846304D02*
X193246009Y-101893923D01*
X193246009Y-101893923D02*
X193341247Y-101893923D01*
X193341247Y-101893923D02*
X193436485Y-101417733D01*
X193103152Y-102227257D02*
X193769819Y-102465352D01*
X193769819Y-102465352D02*
X193103152Y-102703447D01*
X193246009Y-104179638D02*
X193293628Y-104322495D01*
X193293628Y-104322495D02*
X193341247Y-104370114D01*
X193341247Y-104370114D02*
X193436485Y-104417733D01*
X193436485Y-104417733D02*
X193579342Y-104417733D01*
X193579342Y-104417733D02*
X193674580Y-104370114D01*
X193674580Y-104370114D02*
X193722200Y-104322495D01*
X193722200Y-104322495D02*
X193769819Y-104227257D01*
X193769819Y-104227257D02*
X193769819Y-103846305D01*
X193769819Y-103846305D02*
X192769819Y-103846305D01*
X192769819Y-103846305D02*
X192769819Y-104179638D01*
X192769819Y-104179638D02*
X192817438Y-104274876D01*
X192817438Y-104274876D02*
X192865057Y-104322495D01*
X192865057Y-104322495D02*
X192960295Y-104370114D01*
X192960295Y-104370114D02*
X193055533Y-104370114D01*
X193055533Y-104370114D02*
X193150771Y-104322495D01*
X193150771Y-104322495D02*
X193198390Y-104274876D01*
X193198390Y-104274876D02*
X193246009Y-104179638D01*
X193246009Y-104179638D02*
X193246009Y-103846305D01*
X193769819Y-104989162D02*
X193722200Y-104893924D01*
X193722200Y-104893924D02*
X193674580Y-104846305D01*
X193674580Y-104846305D02*
X193579342Y-104798686D01*
X193579342Y-104798686D02*
X193293628Y-104798686D01*
X193293628Y-104798686D02*
X193198390Y-104846305D01*
X193198390Y-104846305D02*
X193150771Y-104893924D01*
X193150771Y-104893924D02*
X193103152Y-104989162D01*
X193103152Y-104989162D02*
X193103152Y-105132019D01*
X193103152Y-105132019D02*
X193150771Y-105227257D01*
X193150771Y-105227257D02*
X193198390Y-105274876D01*
X193198390Y-105274876D02*
X193293628Y-105322495D01*
X193293628Y-105322495D02*
X193579342Y-105322495D01*
X193579342Y-105322495D02*
X193674580Y-105274876D01*
X193674580Y-105274876D02*
X193722200Y-105227257D01*
X193722200Y-105227257D02*
X193769819Y-105132019D01*
X193769819Y-105132019D02*
X193769819Y-104989162D01*
X193769819Y-106179638D02*
X193246009Y-106179638D01*
X193246009Y-106179638D02*
X193150771Y-106132019D01*
X193150771Y-106132019D02*
X193103152Y-106036781D01*
X193103152Y-106036781D02*
X193103152Y-105846305D01*
X193103152Y-105846305D02*
X193150771Y-105751067D01*
X193722200Y-106179638D02*
X193769819Y-106084400D01*
X193769819Y-106084400D02*
X193769819Y-105846305D01*
X193769819Y-105846305D02*
X193722200Y-105751067D01*
X193722200Y-105751067D02*
X193626961Y-105703448D01*
X193626961Y-105703448D02*
X193531723Y-105703448D01*
X193531723Y-105703448D02*
X193436485Y-105751067D01*
X193436485Y-105751067D02*
X193388866Y-105846305D01*
X193388866Y-105846305D02*
X193388866Y-106084400D01*
X193388866Y-106084400D02*
X193341247Y-106179638D01*
X193769819Y-106655829D02*
X193103152Y-106655829D01*
X193293628Y-106655829D02*
X193198390Y-106703448D01*
X193198390Y-106703448D02*
X193150771Y-106751067D01*
X193150771Y-106751067D02*
X193103152Y-106846305D01*
X193103152Y-106846305D02*
X193103152Y-106941543D01*
X193769819Y-107703448D02*
X192769819Y-107703448D01*
X193722200Y-107703448D02*
X193769819Y-107608210D01*
X193769819Y-107608210D02*
X193769819Y-107417734D01*
X193769819Y-107417734D02*
X193722200Y-107322496D01*
X193722200Y-107322496D02*
X193674580Y-107274877D01*
X193674580Y-107274877D02*
X193579342Y-107227258D01*
X193579342Y-107227258D02*
X193293628Y-107227258D01*
X193293628Y-107227258D02*
X193198390Y-107274877D01*
X193198390Y-107274877D02*
X193150771Y-107322496D01*
X193150771Y-107322496D02*
X193103152Y-107417734D01*
X193103152Y-107417734D02*
X193103152Y-107608210D01*
X193103152Y-107608210D02*
X193150771Y-107703448D01*
X193722200Y-108227258D02*
X193769819Y-108227258D01*
X193769819Y-108227258D02*
X193865057Y-108179639D01*
X193865057Y-108179639D02*
X193912676Y-108132020D01*
X192769819Y-109274877D02*
X193769819Y-109608210D01*
X193769819Y-109608210D02*
X192769819Y-109941543D01*
X193769819Y-110798686D02*
X193769819Y-110227258D01*
X193769819Y-110512972D02*
X192769819Y-110512972D01*
X192769819Y-110512972D02*
X192912676Y-110417734D01*
X192912676Y-110417734D02*
X193007914Y-110322496D01*
X193007914Y-110322496D02*
X193055533Y-110227258D01*
X193674580Y-111227258D02*
X193722200Y-111274877D01*
X193722200Y-111274877D02*
X193769819Y-111227258D01*
X193769819Y-111227258D02*
X193722200Y-111179639D01*
X193722200Y-111179639D02*
X193674580Y-111227258D01*
X193674580Y-111227258D02*
X193769819Y-111227258D01*
X192769819Y-111893924D02*
X192769819Y-111989162D01*
X192769819Y-111989162D02*
X192817438Y-112084400D01*
X192817438Y-112084400D02*
X192865057Y-112132019D01*
X192865057Y-112132019D02*
X192960295Y-112179638D01*
X192960295Y-112179638D02*
X193150771Y-112227257D01*
X193150771Y-112227257D02*
X193388866Y-112227257D01*
X193388866Y-112227257D02*
X193579342Y-112179638D01*
X193579342Y-112179638D02*
X193674580Y-112132019D01*
X193674580Y-112132019D02*
X193722200Y-112084400D01*
X193722200Y-112084400D02*
X193769819Y-111989162D01*
X193769819Y-111989162D02*
X193769819Y-111893924D01*
X193769819Y-111893924D02*
X193722200Y-111798686D01*
X193722200Y-111798686D02*
X193674580Y-111751067D01*
X193674580Y-111751067D02*
X193579342Y-111703448D01*
X193579342Y-111703448D02*
X193388866Y-111655829D01*
X193388866Y-111655829D02*
X193150771Y-111655829D01*
X193150771Y-111655829D02*
X192960295Y-111703448D01*
X192960295Y-111703448D02*
X192865057Y-111751067D01*
X192865057Y-111751067D02*
X192817438Y-111798686D01*
X192817438Y-111798686D02*
X192769819Y-111893924D01*
X140150000Y-98600000D02*
X160750000Y-98600000D01*
X160750000Y-114100000D01*
X140150000Y-114100000D01*
X140150000Y-98600000D01*
X140150000Y-82400000D02*
X160750000Y-82400000D01*
X160750000Y-97900000D01*
X140150000Y-97900000D01*
X140150000Y-82400000D01*
X140150000Y-66250000D02*
X160700000Y-66250000D01*
X160700000Y-81750000D01*
X140150000Y-81750000D01*
X140150000Y-66250000D01*
X140150000Y-50100000D02*
X160700000Y-50100000D01*
X160700000Y-65600000D01*
X140150000Y-65600000D01*
X140150000Y-50100000D01*
X132354819Y-57526666D02*
X133069104Y-57526666D01*
X133069104Y-57526666D02*
X133211961Y-57479047D01*
X133211961Y-57479047D02*
X133307200Y-57383809D01*
X133307200Y-57383809D02*
X133354819Y-57240952D01*
X133354819Y-57240952D02*
X133354819Y-57145714D01*
X133354819Y-58526666D02*
X133354819Y-57955238D01*
X133354819Y-58240952D02*
X132354819Y-58240952D01*
X132354819Y-58240952D02*
X132497676Y-58145714D01*
X132497676Y-58145714D02*
X132592914Y-58050476D01*
X132592914Y-58050476D02*
X132640533Y-57955238D01*
X132354819Y-73689999D02*
X133069104Y-73689999D01*
X133069104Y-73689999D02*
X133211961Y-73642380D01*
X133211961Y-73642380D02*
X133307200Y-73547142D01*
X133307200Y-73547142D02*
X133354819Y-73404285D01*
X133354819Y-73404285D02*
X133354819Y-73309047D01*
X132354819Y-74642380D02*
X132354819Y-74166190D01*
X132354819Y-74166190D02*
X132831009Y-74118571D01*
X132831009Y-74118571D02*
X132783390Y-74166190D01*
X132783390Y-74166190D02*
X132735771Y-74261428D01*
X132735771Y-74261428D02*
X132735771Y-74499523D01*
X132735771Y-74499523D02*
X132783390Y-74594761D01*
X132783390Y-74594761D02*
X132831009Y-74642380D01*
X132831009Y-74642380D02*
X132926247Y-74689999D01*
X132926247Y-74689999D02*
X133164342Y-74689999D01*
X133164342Y-74689999D02*
X133259580Y-74642380D01*
X133259580Y-74642380D02*
X133307200Y-74594761D01*
X133307200Y-74594761D02*
X133354819Y-74499523D01*
X133354819Y-74499523D02*
X133354819Y-74261428D01*
X133354819Y-74261428D02*
X133307200Y-74166190D01*
X133307200Y-74166190D02*
X133259580Y-74118571D01*
X142054819Y-69166667D02*
X141054819Y-69166667D01*
X141054819Y-69166667D02*
X141054819Y-69404762D01*
X141054819Y-69404762D02*
X141102438Y-69547619D01*
X141102438Y-69547619D02*
X141197676Y-69642857D01*
X141197676Y-69642857D02*
X141292914Y-69690476D01*
X141292914Y-69690476D02*
X141483390Y-69738095D01*
X141483390Y-69738095D02*
X141626247Y-69738095D01*
X141626247Y-69738095D02*
X141816723Y-69690476D01*
X141816723Y-69690476D02*
X141911961Y-69642857D01*
X141911961Y-69642857D02*
X142007200Y-69547619D01*
X142007200Y-69547619D02*
X142054819Y-69404762D01*
X142054819Y-69404762D02*
X142054819Y-69166667D01*
X142054819Y-70166667D02*
X141054819Y-70166667D01*
X142054819Y-71214285D02*
X141578628Y-70880952D01*
X142054819Y-70642857D02*
X141054819Y-70642857D01*
X141054819Y-70642857D02*
X141054819Y-71023809D01*
X141054819Y-71023809D02*
X141102438Y-71119047D01*
X141102438Y-71119047D02*
X141150057Y-71166666D01*
X141150057Y-71166666D02*
X141245295Y-71214285D01*
X141245295Y-71214285D02*
X141388152Y-71214285D01*
X141388152Y-71214285D02*
X141483390Y-71166666D01*
X141483390Y-71166666D02*
X141531009Y-71119047D01*
X141531009Y-71119047D02*
X141578628Y-71023809D01*
X141578628Y-71023809D02*
X141578628Y-70642857D01*
X141959580Y-71642857D02*
X142007200Y-71690476D01*
X142007200Y-71690476D02*
X142054819Y-71642857D01*
X142054819Y-71642857D02*
X142007200Y-71595238D01*
X142007200Y-71595238D02*
X141959580Y-71642857D01*
X141959580Y-71642857D02*
X142054819Y-71642857D01*
X141435771Y-71642857D02*
X141483390Y-71690476D01*
X141483390Y-71690476D02*
X141531009Y-71642857D01*
X141531009Y-71642857D02*
X141483390Y-71595238D01*
X141483390Y-71595238D02*
X141435771Y-71642857D01*
X141435771Y-71642857D02*
X141531009Y-71642857D01*
X141102438Y-73404761D02*
X141054819Y-73309523D01*
X141054819Y-73309523D02*
X141054819Y-73166666D01*
X141054819Y-73166666D02*
X141102438Y-73023809D01*
X141102438Y-73023809D02*
X141197676Y-72928571D01*
X141197676Y-72928571D02*
X141292914Y-72880952D01*
X141292914Y-72880952D02*
X141483390Y-72833333D01*
X141483390Y-72833333D02*
X141626247Y-72833333D01*
X141626247Y-72833333D02*
X141816723Y-72880952D01*
X141816723Y-72880952D02*
X141911961Y-72928571D01*
X141911961Y-72928571D02*
X142007200Y-73023809D01*
X142007200Y-73023809D02*
X142054819Y-73166666D01*
X142054819Y-73166666D02*
X142054819Y-73261904D01*
X142054819Y-73261904D02*
X142007200Y-73404761D01*
X142007200Y-73404761D02*
X141959580Y-73452380D01*
X141959580Y-73452380D02*
X141626247Y-73452380D01*
X141626247Y-73452380D02*
X141626247Y-73261904D01*
X142054819Y-73880952D02*
X141054819Y-73880952D01*
X141054819Y-73880952D02*
X141054819Y-74261904D01*
X141054819Y-74261904D02*
X141102438Y-74357142D01*
X141102438Y-74357142D02*
X141150057Y-74404761D01*
X141150057Y-74404761D02*
X141245295Y-74452380D01*
X141245295Y-74452380D02*
X141388152Y-74452380D01*
X141388152Y-74452380D02*
X141483390Y-74404761D01*
X141483390Y-74404761D02*
X141531009Y-74357142D01*
X141531009Y-74357142D02*
X141578628Y-74261904D01*
X141578628Y-74261904D02*
X141578628Y-73880952D01*
X142054819Y-74880952D02*
X141054819Y-74880952D01*
X141054819Y-75547618D02*
X141054819Y-75738094D01*
X141054819Y-75738094D02*
X141102438Y-75833332D01*
X141102438Y-75833332D02*
X141197676Y-75928570D01*
X141197676Y-75928570D02*
X141388152Y-75976189D01*
X141388152Y-75976189D02*
X141721485Y-75976189D01*
X141721485Y-75976189D02*
X141911961Y-75928570D01*
X141911961Y-75928570D02*
X142007200Y-75833332D01*
X142007200Y-75833332D02*
X142054819Y-75738094D01*
X142054819Y-75738094D02*
X142054819Y-75547618D01*
X142054819Y-75547618D02*
X142007200Y-75452380D01*
X142007200Y-75452380D02*
X141911961Y-75357142D01*
X141911961Y-75357142D02*
X141721485Y-75309523D01*
X141721485Y-75309523D02*
X141388152Y-75309523D01*
X141388152Y-75309523D02*
X141197676Y-75357142D01*
X141197676Y-75357142D02*
X141102438Y-75452380D01*
X141102438Y-75452380D02*
X141054819Y-75547618D01*
X142054819Y-76928570D02*
X142054819Y-76357142D01*
X142054819Y-76642856D02*
X141054819Y-76642856D01*
X141054819Y-76642856D02*
X141197676Y-76547618D01*
X141197676Y-76547618D02*
X141292914Y-76452380D01*
X141292914Y-76452380D02*
X141340533Y-76357142D01*
X141054819Y-77547618D02*
X141054819Y-77642856D01*
X141054819Y-77642856D02*
X141102438Y-77738094D01*
X141102438Y-77738094D02*
X141150057Y-77785713D01*
X141150057Y-77785713D02*
X141245295Y-77833332D01*
X141245295Y-77833332D02*
X141435771Y-77880951D01*
X141435771Y-77880951D02*
X141673866Y-77880951D01*
X141673866Y-77880951D02*
X141864342Y-77833332D01*
X141864342Y-77833332D02*
X141959580Y-77785713D01*
X141959580Y-77785713D02*
X142007200Y-77738094D01*
X142007200Y-77738094D02*
X142054819Y-77642856D01*
X142054819Y-77642856D02*
X142054819Y-77547618D01*
X142054819Y-77547618D02*
X142007200Y-77452380D01*
X142007200Y-77452380D02*
X141959580Y-77404761D01*
X141959580Y-77404761D02*
X141864342Y-77357142D01*
X141864342Y-77357142D02*
X141673866Y-77309523D01*
X141673866Y-77309523D02*
X141435771Y-77309523D01*
X141435771Y-77309523D02*
X141245295Y-77357142D01*
X141245295Y-77357142D02*
X141150057Y-77404761D01*
X141150057Y-77404761D02*
X141102438Y-77452380D01*
X141102438Y-77452380D02*
X141054819Y-77547618D01*
X144557200Y-69123810D02*
X144604819Y-69266667D01*
X144604819Y-69266667D02*
X144604819Y-69504762D01*
X144604819Y-69504762D02*
X144557200Y-69600000D01*
X144557200Y-69600000D02*
X144509580Y-69647619D01*
X144509580Y-69647619D02*
X144414342Y-69695238D01*
X144414342Y-69695238D02*
X144319104Y-69695238D01*
X144319104Y-69695238D02*
X144223866Y-69647619D01*
X144223866Y-69647619D02*
X144176247Y-69600000D01*
X144176247Y-69600000D02*
X144128628Y-69504762D01*
X144128628Y-69504762D02*
X144081009Y-69314286D01*
X144081009Y-69314286D02*
X144033390Y-69219048D01*
X144033390Y-69219048D02*
X143985771Y-69171429D01*
X143985771Y-69171429D02*
X143890533Y-69123810D01*
X143890533Y-69123810D02*
X143795295Y-69123810D01*
X143795295Y-69123810D02*
X143700057Y-69171429D01*
X143700057Y-69171429D02*
X143652438Y-69219048D01*
X143652438Y-69219048D02*
X143604819Y-69314286D01*
X143604819Y-69314286D02*
X143604819Y-69552381D01*
X143604819Y-69552381D02*
X143652438Y-69695238D01*
X143604819Y-69980953D02*
X143604819Y-70552381D01*
X144604819Y-70266667D02*
X143604819Y-70266667D01*
X144081009Y-70885715D02*
X144081009Y-71219048D01*
X144604819Y-71361905D02*
X144604819Y-70885715D01*
X144604819Y-70885715D02*
X143604819Y-70885715D01*
X143604819Y-70885715D02*
X143604819Y-71361905D01*
X144604819Y-71790477D02*
X143604819Y-71790477D01*
X143604819Y-71790477D02*
X143604819Y-72171429D01*
X143604819Y-72171429D02*
X143652438Y-72266667D01*
X143652438Y-72266667D02*
X143700057Y-72314286D01*
X143700057Y-72314286D02*
X143795295Y-72361905D01*
X143795295Y-72361905D02*
X143938152Y-72361905D01*
X143938152Y-72361905D02*
X144033390Y-72314286D01*
X144033390Y-72314286D02*
X144081009Y-72266667D01*
X144081009Y-72266667D02*
X144128628Y-72171429D01*
X144128628Y-72171429D02*
X144128628Y-71790477D01*
X144509580Y-72790477D02*
X144557200Y-72838096D01*
X144557200Y-72838096D02*
X144604819Y-72790477D01*
X144604819Y-72790477D02*
X144557200Y-72742858D01*
X144557200Y-72742858D02*
X144509580Y-72790477D01*
X144509580Y-72790477D02*
X144604819Y-72790477D01*
X143985771Y-72790477D02*
X144033390Y-72838096D01*
X144033390Y-72838096D02*
X144081009Y-72790477D01*
X144081009Y-72790477D02*
X144033390Y-72742858D01*
X144033390Y-72742858D02*
X143985771Y-72790477D01*
X143985771Y-72790477D02*
X144081009Y-72790477D01*
X143652438Y-74552381D02*
X143604819Y-74457143D01*
X143604819Y-74457143D02*
X143604819Y-74314286D01*
X143604819Y-74314286D02*
X143652438Y-74171429D01*
X143652438Y-74171429D02*
X143747676Y-74076191D01*
X143747676Y-74076191D02*
X143842914Y-74028572D01*
X143842914Y-74028572D02*
X144033390Y-73980953D01*
X144033390Y-73980953D02*
X144176247Y-73980953D01*
X144176247Y-73980953D02*
X144366723Y-74028572D01*
X144366723Y-74028572D02*
X144461961Y-74076191D01*
X144461961Y-74076191D02*
X144557200Y-74171429D01*
X144557200Y-74171429D02*
X144604819Y-74314286D01*
X144604819Y-74314286D02*
X144604819Y-74409524D01*
X144604819Y-74409524D02*
X144557200Y-74552381D01*
X144557200Y-74552381D02*
X144509580Y-74600000D01*
X144509580Y-74600000D02*
X144176247Y-74600000D01*
X144176247Y-74600000D02*
X144176247Y-74409524D01*
X144604819Y-75028572D02*
X143604819Y-75028572D01*
X143604819Y-75028572D02*
X143604819Y-75409524D01*
X143604819Y-75409524D02*
X143652438Y-75504762D01*
X143652438Y-75504762D02*
X143700057Y-75552381D01*
X143700057Y-75552381D02*
X143795295Y-75600000D01*
X143795295Y-75600000D02*
X143938152Y-75600000D01*
X143938152Y-75600000D02*
X144033390Y-75552381D01*
X144033390Y-75552381D02*
X144081009Y-75504762D01*
X144081009Y-75504762D02*
X144128628Y-75409524D01*
X144128628Y-75409524D02*
X144128628Y-75028572D01*
X144604819Y-76028572D02*
X143604819Y-76028572D01*
X143604819Y-76695238D02*
X143604819Y-76885714D01*
X143604819Y-76885714D02*
X143652438Y-76980952D01*
X143652438Y-76980952D02*
X143747676Y-77076190D01*
X143747676Y-77076190D02*
X143938152Y-77123809D01*
X143938152Y-77123809D02*
X144271485Y-77123809D01*
X144271485Y-77123809D02*
X144461961Y-77076190D01*
X144461961Y-77076190D02*
X144557200Y-76980952D01*
X144557200Y-76980952D02*
X144604819Y-76885714D01*
X144604819Y-76885714D02*
X144604819Y-76695238D01*
X144604819Y-76695238D02*
X144557200Y-76600000D01*
X144557200Y-76600000D02*
X144461961Y-76504762D01*
X144461961Y-76504762D02*
X144271485Y-76457143D01*
X144271485Y-76457143D02*
X143938152Y-76457143D01*
X143938152Y-76457143D02*
X143747676Y-76504762D01*
X143747676Y-76504762D02*
X143652438Y-76600000D01*
X143652438Y-76600000D02*
X143604819Y-76695238D01*
X144604819Y-77600000D02*
X144604819Y-77790476D01*
X144604819Y-77790476D02*
X144557200Y-77885714D01*
X144557200Y-77885714D02*
X144509580Y-77933333D01*
X144509580Y-77933333D02*
X144366723Y-78028571D01*
X144366723Y-78028571D02*
X144176247Y-78076190D01*
X144176247Y-78076190D02*
X143795295Y-78076190D01*
X143795295Y-78076190D02*
X143700057Y-78028571D01*
X143700057Y-78028571D02*
X143652438Y-77980952D01*
X143652438Y-77980952D02*
X143604819Y-77885714D01*
X143604819Y-77885714D02*
X143604819Y-77695238D01*
X143604819Y-77695238D02*
X143652438Y-77600000D01*
X143652438Y-77600000D02*
X143700057Y-77552381D01*
X143700057Y-77552381D02*
X143795295Y-77504762D01*
X143795295Y-77504762D02*
X144033390Y-77504762D01*
X144033390Y-77504762D02*
X144128628Y-77552381D01*
X144128628Y-77552381D02*
X144176247Y-77600000D01*
X144176247Y-77600000D02*
X144223866Y-77695238D01*
X144223866Y-77695238D02*
X144223866Y-77885714D01*
X144223866Y-77885714D02*
X144176247Y-77980952D01*
X144176247Y-77980952D02*
X144128628Y-78028571D01*
X144128628Y-78028571D02*
X144033390Y-78076190D01*
X147107200Y-69102381D02*
X147154819Y-69245238D01*
X147154819Y-69245238D02*
X147154819Y-69483333D01*
X147154819Y-69483333D02*
X147107200Y-69578571D01*
X147107200Y-69578571D02*
X147059580Y-69626190D01*
X147059580Y-69626190D02*
X146964342Y-69673809D01*
X146964342Y-69673809D02*
X146869104Y-69673809D01*
X146869104Y-69673809D02*
X146773866Y-69626190D01*
X146773866Y-69626190D02*
X146726247Y-69578571D01*
X146726247Y-69578571D02*
X146678628Y-69483333D01*
X146678628Y-69483333D02*
X146631009Y-69292857D01*
X146631009Y-69292857D02*
X146583390Y-69197619D01*
X146583390Y-69197619D02*
X146535771Y-69150000D01*
X146535771Y-69150000D02*
X146440533Y-69102381D01*
X146440533Y-69102381D02*
X146345295Y-69102381D01*
X146345295Y-69102381D02*
X146250057Y-69150000D01*
X146250057Y-69150000D02*
X146202438Y-69197619D01*
X146202438Y-69197619D02*
X146154819Y-69292857D01*
X146154819Y-69292857D02*
X146154819Y-69530952D01*
X146154819Y-69530952D02*
X146202438Y-69673809D01*
X147154819Y-70578571D02*
X147154819Y-70102381D01*
X147154819Y-70102381D02*
X146154819Y-70102381D01*
X147154819Y-70911905D02*
X146154819Y-70911905D01*
X146154819Y-70911905D02*
X146154819Y-71292857D01*
X146154819Y-71292857D02*
X146202438Y-71388095D01*
X146202438Y-71388095D02*
X146250057Y-71435714D01*
X146250057Y-71435714D02*
X146345295Y-71483333D01*
X146345295Y-71483333D02*
X146488152Y-71483333D01*
X146488152Y-71483333D02*
X146583390Y-71435714D01*
X146583390Y-71435714D02*
X146631009Y-71388095D01*
X146631009Y-71388095D02*
X146678628Y-71292857D01*
X146678628Y-71292857D02*
X146678628Y-70911905D01*
X147059580Y-71911905D02*
X147107200Y-71959524D01*
X147107200Y-71959524D02*
X147154819Y-71911905D01*
X147154819Y-71911905D02*
X147107200Y-71864286D01*
X147107200Y-71864286D02*
X147059580Y-71911905D01*
X147059580Y-71911905D02*
X147154819Y-71911905D01*
X146535771Y-71911905D02*
X146583390Y-71959524D01*
X146583390Y-71959524D02*
X146631009Y-71911905D01*
X146631009Y-71911905D02*
X146583390Y-71864286D01*
X146583390Y-71864286D02*
X146535771Y-71911905D01*
X146535771Y-71911905D02*
X146631009Y-71911905D01*
X146202438Y-73673809D02*
X146154819Y-73578571D01*
X146154819Y-73578571D02*
X146154819Y-73435714D01*
X146154819Y-73435714D02*
X146202438Y-73292857D01*
X146202438Y-73292857D02*
X146297676Y-73197619D01*
X146297676Y-73197619D02*
X146392914Y-73150000D01*
X146392914Y-73150000D02*
X146583390Y-73102381D01*
X146583390Y-73102381D02*
X146726247Y-73102381D01*
X146726247Y-73102381D02*
X146916723Y-73150000D01*
X146916723Y-73150000D02*
X147011961Y-73197619D01*
X147011961Y-73197619D02*
X147107200Y-73292857D01*
X147107200Y-73292857D02*
X147154819Y-73435714D01*
X147154819Y-73435714D02*
X147154819Y-73530952D01*
X147154819Y-73530952D02*
X147107200Y-73673809D01*
X147107200Y-73673809D02*
X147059580Y-73721428D01*
X147059580Y-73721428D02*
X146726247Y-73721428D01*
X146726247Y-73721428D02*
X146726247Y-73530952D01*
X147154819Y-74150000D02*
X146154819Y-74150000D01*
X146154819Y-74150000D02*
X146154819Y-74530952D01*
X146154819Y-74530952D02*
X146202438Y-74626190D01*
X146202438Y-74626190D02*
X146250057Y-74673809D01*
X146250057Y-74673809D02*
X146345295Y-74721428D01*
X146345295Y-74721428D02*
X146488152Y-74721428D01*
X146488152Y-74721428D02*
X146583390Y-74673809D01*
X146583390Y-74673809D02*
X146631009Y-74626190D01*
X146631009Y-74626190D02*
X146678628Y-74530952D01*
X146678628Y-74530952D02*
X146678628Y-74150000D01*
X147154819Y-75150000D02*
X146154819Y-75150000D01*
X146154819Y-75816666D02*
X146154819Y-76007142D01*
X146154819Y-76007142D02*
X146202438Y-76102380D01*
X146202438Y-76102380D02*
X146297676Y-76197618D01*
X146297676Y-76197618D02*
X146488152Y-76245237D01*
X146488152Y-76245237D02*
X146821485Y-76245237D01*
X146821485Y-76245237D02*
X147011961Y-76197618D01*
X147011961Y-76197618D02*
X147107200Y-76102380D01*
X147107200Y-76102380D02*
X147154819Y-76007142D01*
X147154819Y-76007142D02*
X147154819Y-75816666D01*
X147154819Y-75816666D02*
X147107200Y-75721428D01*
X147107200Y-75721428D02*
X147011961Y-75626190D01*
X147011961Y-75626190D02*
X146821485Y-75578571D01*
X146821485Y-75578571D02*
X146488152Y-75578571D01*
X146488152Y-75578571D02*
X146297676Y-75626190D01*
X146297676Y-75626190D02*
X146202438Y-75721428D01*
X146202438Y-75721428D02*
X146154819Y-75816666D01*
X146583390Y-76816666D02*
X146535771Y-76721428D01*
X146535771Y-76721428D02*
X146488152Y-76673809D01*
X146488152Y-76673809D02*
X146392914Y-76626190D01*
X146392914Y-76626190D02*
X146345295Y-76626190D01*
X146345295Y-76626190D02*
X146250057Y-76673809D01*
X146250057Y-76673809D02*
X146202438Y-76721428D01*
X146202438Y-76721428D02*
X146154819Y-76816666D01*
X146154819Y-76816666D02*
X146154819Y-77007142D01*
X146154819Y-77007142D02*
X146202438Y-77102380D01*
X146202438Y-77102380D02*
X146250057Y-77149999D01*
X146250057Y-77149999D02*
X146345295Y-77197618D01*
X146345295Y-77197618D02*
X146392914Y-77197618D01*
X146392914Y-77197618D02*
X146488152Y-77149999D01*
X146488152Y-77149999D02*
X146535771Y-77102380D01*
X146535771Y-77102380D02*
X146583390Y-77007142D01*
X146583390Y-77007142D02*
X146583390Y-76816666D01*
X146583390Y-76816666D02*
X146631009Y-76721428D01*
X146631009Y-76721428D02*
X146678628Y-76673809D01*
X146678628Y-76673809D02*
X146773866Y-76626190D01*
X146773866Y-76626190D02*
X146964342Y-76626190D01*
X146964342Y-76626190D02*
X147059580Y-76673809D01*
X147059580Y-76673809D02*
X147107200Y-76721428D01*
X147107200Y-76721428D02*
X147154819Y-76816666D01*
X147154819Y-76816666D02*
X147154819Y-77007142D01*
X147154819Y-77007142D02*
X147107200Y-77102380D01*
X147107200Y-77102380D02*
X147059580Y-77149999D01*
X147059580Y-77149999D02*
X146964342Y-77197618D01*
X146964342Y-77197618D02*
X146773866Y-77197618D01*
X146773866Y-77197618D02*
X146678628Y-77149999D01*
X146678628Y-77149999D02*
X146631009Y-77102380D01*
X146631009Y-77102380D02*
X146583390Y-77007142D01*
X139654819Y-73240476D02*
X138654819Y-73240476D01*
X138654819Y-73240476D02*
X139369104Y-73573809D01*
X139369104Y-73573809D02*
X138654819Y-73907142D01*
X138654819Y-73907142D02*
X139654819Y-73907142D01*
X138750057Y-74335714D02*
X138702438Y-74383333D01*
X138702438Y-74383333D02*
X138654819Y-74478571D01*
X138654819Y-74478571D02*
X138654819Y-74716666D01*
X138654819Y-74716666D02*
X138702438Y-74811904D01*
X138702438Y-74811904D02*
X138750057Y-74859523D01*
X138750057Y-74859523D02*
X138845295Y-74907142D01*
X138845295Y-74907142D02*
X138940533Y-74907142D01*
X138940533Y-74907142D02*
X139083390Y-74859523D01*
X139083390Y-74859523D02*
X139654819Y-74288095D01*
X139654819Y-74288095D02*
X139654819Y-74907142D01*
X132354819Y-106016666D02*
X133069104Y-106016666D01*
X133069104Y-106016666D02*
X133211961Y-105969047D01*
X133211961Y-105969047D02*
X133307200Y-105873809D01*
X133307200Y-105873809D02*
X133354819Y-105730952D01*
X133354819Y-105730952D02*
X133354819Y-105635714D01*
X132354819Y-106921428D02*
X132354819Y-106730952D01*
X132354819Y-106730952D02*
X132402438Y-106635714D01*
X132402438Y-106635714D02*
X132450057Y-106588095D01*
X132450057Y-106588095D02*
X132592914Y-106492857D01*
X132592914Y-106492857D02*
X132783390Y-106445238D01*
X132783390Y-106445238D02*
X133164342Y-106445238D01*
X133164342Y-106445238D02*
X133259580Y-106492857D01*
X133259580Y-106492857D02*
X133307200Y-106540476D01*
X133307200Y-106540476D02*
X133354819Y-106635714D01*
X133354819Y-106635714D02*
X133354819Y-106826190D01*
X133354819Y-106826190D02*
X133307200Y-106921428D01*
X133307200Y-106921428D02*
X133259580Y-106969047D01*
X133259580Y-106969047D02*
X133164342Y-107016666D01*
X133164342Y-107016666D02*
X132926247Y-107016666D01*
X132926247Y-107016666D02*
X132831009Y-106969047D01*
X132831009Y-106969047D02*
X132783390Y-106921428D01*
X132783390Y-106921428D02*
X132735771Y-106826190D01*
X132735771Y-106826190D02*
X132735771Y-106635714D01*
X132735771Y-106635714D02*
X132783390Y-106540476D01*
X132783390Y-106540476D02*
X132831009Y-106492857D01*
X132831009Y-106492857D02*
X132926247Y-106445238D01*
X147107200Y-52952381D02*
X147154819Y-53095238D01*
X147154819Y-53095238D02*
X147154819Y-53333333D01*
X147154819Y-53333333D02*
X147107200Y-53428571D01*
X147107200Y-53428571D02*
X147059580Y-53476190D01*
X147059580Y-53476190D02*
X146964342Y-53523809D01*
X146964342Y-53523809D02*
X146869104Y-53523809D01*
X146869104Y-53523809D02*
X146773866Y-53476190D01*
X146773866Y-53476190D02*
X146726247Y-53428571D01*
X146726247Y-53428571D02*
X146678628Y-53333333D01*
X146678628Y-53333333D02*
X146631009Y-53142857D01*
X146631009Y-53142857D02*
X146583390Y-53047619D01*
X146583390Y-53047619D02*
X146535771Y-53000000D01*
X146535771Y-53000000D02*
X146440533Y-52952381D01*
X146440533Y-52952381D02*
X146345295Y-52952381D01*
X146345295Y-52952381D02*
X146250057Y-53000000D01*
X146250057Y-53000000D02*
X146202438Y-53047619D01*
X146202438Y-53047619D02*
X146154819Y-53142857D01*
X146154819Y-53142857D02*
X146154819Y-53380952D01*
X146154819Y-53380952D02*
X146202438Y-53523809D01*
X147154819Y-54428571D02*
X147154819Y-53952381D01*
X147154819Y-53952381D02*
X146154819Y-53952381D01*
X147154819Y-54761905D02*
X146154819Y-54761905D01*
X146154819Y-54761905D02*
X146154819Y-55142857D01*
X146154819Y-55142857D02*
X146202438Y-55238095D01*
X146202438Y-55238095D02*
X146250057Y-55285714D01*
X146250057Y-55285714D02*
X146345295Y-55333333D01*
X146345295Y-55333333D02*
X146488152Y-55333333D01*
X146488152Y-55333333D02*
X146583390Y-55285714D01*
X146583390Y-55285714D02*
X146631009Y-55238095D01*
X146631009Y-55238095D02*
X146678628Y-55142857D01*
X146678628Y-55142857D02*
X146678628Y-54761905D01*
X147059580Y-55761905D02*
X147107200Y-55809524D01*
X147107200Y-55809524D02*
X147154819Y-55761905D01*
X147154819Y-55761905D02*
X147107200Y-55714286D01*
X147107200Y-55714286D02*
X147059580Y-55761905D01*
X147059580Y-55761905D02*
X147154819Y-55761905D01*
X146535771Y-55761905D02*
X146583390Y-55809524D01*
X146583390Y-55809524D02*
X146631009Y-55761905D01*
X146631009Y-55761905D02*
X146583390Y-55714286D01*
X146583390Y-55714286D02*
X146535771Y-55761905D01*
X146535771Y-55761905D02*
X146631009Y-55761905D01*
X146202438Y-57523809D02*
X146154819Y-57428571D01*
X146154819Y-57428571D02*
X146154819Y-57285714D01*
X146154819Y-57285714D02*
X146202438Y-57142857D01*
X146202438Y-57142857D02*
X146297676Y-57047619D01*
X146297676Y-57047619D02*
X146392914Y-57000000D01*
X146392914Y-57000000D02*
X146583390Y-56952381D01*
X146583390Y-56952381D02*
X146726247Y-56952381D01*
X146726247Y-56952381D02*
X146916723Y-57000000D01*
X146916723Y-57000000D02*
X147011961Y-57047619D01*
X147011961Y-57047619D02*
X147107200Y-57142857D01*
X147107200Y-57142857D02*
X147154819Y-57285714D01*
X147154819Y-57285714D02*
X147154819Y-57380952D01*
X147154819Y-57380952D02*
X147107200Y-57523809D01*
X147107200Y-57523809D02*
X147059580Y-57571428D01*
X147059580Y-57571428D02*
X146726247Y-57571428D01*
X146726247Y-57571428D02*
X146726247Y-57380952D01*
X147154819Y-58000000D02*
X146154819Y-58000000D01*
X146154819Y-58000000D02*
X146154819Y-58380952D01*
X146154819Y-58380952D02*
X146202438Y-58476190D01*
X146202438Y-58476190D02*
X146250057Y-58523809D01*
X146250057Y-58523809D02*
X146345295Y-58571428D01*
X146345295Y-58571428D02*
X146488152Y-58571428D01*
X146488152Y-58571428D02*
X146583390Y-58523809D01*
X146583390Y-58523809D02*
X146631009Y-58476190D01*
X146631009Y-58476190D02*
X146678628Y-58380952D01*
X146678628Y-58380952D02*
X146678628Y-58000000D01*
X147154819Y-59000000D02*
X146154819Y-59000000D01*
X146154819Y-59666666D02*
X146154819Y-59857142D01*
X146154819Y-59857142D02*
X146202438Y-59952380D01*
X146202438Y-59952380D02*
X146297676Y-60047618D01*
X146297676Y-60047618D02*
X146488152Y-60095237D01*
X146488152Y-60095237D02*
X146821485Y-60095237D01*
X146821485Y-60095237D02*
X147011961Y-60047618D01*
X147011961Y-60047618D02*
X147107200Y-59952380D01*
X147107200Y-59952380D02*
X147154819Y-59857142D01*
X147154819Y-59857142D02*
X147154819Y-59666666D01*
X147154819Y-59666666D02*
X147107200Y-59571428D01*
X147107200Y-59571428D02*
X147011961Y-59476190D01*
X147011961Y-59476190D02*
X146821485Y-59428571D01*
X146821485Y-59428571D02*
X146488152Y-59428571D01*
X146488152Y-59428571D02*
X146297676Y-59476190D01*
X146297676Y-59476190D02*
X146202438Y-59571428D01*
X146202438Y-59571428D02*
X146154819Y-59666666D01*
X146154819Y-60999999D02*
X146154819Y-60523809D01*
X146154819Y-60523809D02*
X146631009Y-60476190D01*
X146631009Y-60476190D02*
X146583390Y-60523809D01*
X146583390Y-60523809D02*
X146535771Y-60619047D01*
X146535771Y-60619047D02*
X146535771Y-60857142D01*
X146535771Y-60857142D02*
X146583390Y-60952380D01*
X146583390Y-60952380D02*
X146631009Y-60999999D01*
X146631009Y-60999999D02*
X146726247Y-61047618D01*
X146726247Y-61047618D02*
X146964342Y-61047618D01*
X146964342Y-61047618D02*
X147059580Y-60999999D01*
X147059580Y-60999999D02*
X147107200Y-60952380D01*
X147107200Y-60952380D02*
X147154819Y-60857142D01*
X147154819Y-60857142D02*
X147154819Y-60619047D01*
X147154819Y-60619047D02*
X147107200Y-60523809D01*
X147107200Y-60523809D02*
X147059580Y-60476190D01*
X144507200Y-52973810D02*
X144554819Y-53116667D01*
X144554819Y-53116667D02*
X144554819Y-53354762D01*
X144554819Y-53354762D02*
X144507200Y-53450000D01*
X144507200Y-53450000D02*
X144459580Y-53497619D01*
X144459580Y-53497619D02*
X144364342Y-53545238D01*
X144364342Y-53545238D02*
X144269104Y-53545238D01*
X144269104Y-53545238D02*
X144173866Y-53497619D01*
X144173866Y-53497619D02*
X144126247Y-53450000D01*
X144126247Y-53450000D02*
X144078628Y-53354762D01*
X144078628Y-53354762D02*
X144031009Y-53164286D01*
X144031009Y-53164286D02*
X143983390Y-53069048D01*
X143983390Y-53069048D02*
X143935771Y-53021429D01*
X143935771Y-53021429D02*
X143840533Y-52973810D01*
X143840533Y-52973810D02*
X143745295Y-52973810D01*
X143745295Y-52973810D02*
X143650057Y-53021429D01*
X143650057Y-53021429D02*
X143602438Y-53069048D01*
X143602438Y-53069048D02*
X143554819Y-53164286D01*
X143554819Y-53164286D02*
X143554819Y-53402381D01*
X143554819Y-53402381D02*
X143602438Y-53545238D01*
X143554819Y-53830953D02*
X143554819Y-54402381D01*
X144554819Y-54116667D02*
X143554819Y-54116667D01*
X144031009Y-54735715D02*
X144031009Y-55069048D01*
X144554819Y-55211905D02*
X144554819Y-54735715D01*
X144554819Y-54735715D02*
X143554819Y-54735715D01*
X143554819Y-54735715D02*
X143554819Y-55211905D01*
X144554819Y-55640477D02*
X143554819Y-55640477D01*
X143554819Y-55640477D02*
X143554819Y-56021429D01*
X143554819Y-56021429D02*
X143602438Y-56116667D01*
X143602438Y-56116667D02*
X143650057Y-56164286D01*
X143650057Y-56164286D02*
X143745295Y-56211905D01*
X143745295Y-56211905D02*
X143888152Y-56211905D01*
X143888152Y-56211905D02*
X143983390Y-56164286D01*
X143983390Y-56164286D02*
X144031009Y-56116667D01*
X144031009Y-56116667D02*
X144078628Y-56021429D01*
X144078628Y-56021429D02*
X144078628Y-55640477D01*
X144459580Y-56640477D02*
X144507200Y-56688096D01*
X144507200Y-56688096D02*
X144554819Y-56640477D01*
X144554819Y-56640477D02*
X144507200Y-56592858D01*
X144507200Y-56592858D02*
X144459580Y-56640477D01*
X144459580Y-56640477D02*
X144554819Y-56640477D01*
X143935771Y-56640477D02*
X143983390Y-56688096D01*
X143983390Y-56688096D02*
X144031009Y-56640477D01*
X144031009Y-56640477D02*
X143983390Y-56592858D01*
X143983390Y-56592858D02*
X143935771Y-56640477D01*
X143935771Y-56640477D02*
X144031009Y-56640477D01*
X143602438Y-58402381D02*
X143554819Y-58307143D01*
X143554819Y-58307143D02*
X143554819Y-58164286D01*
X143554819Y-58164286D02*
X143602438Y-58021429D01*
X143602438Y-58021429D02*
X143697676Y-57926191D01*
X143697676Y-57926191D02*
X143792914Y-57878572D01*
X143792914Y-57878572D02*
X143983390Y-57830953D01*
X143983390Y-57830953D02*
X144126247Y-57830953D01*
X144126247Y-57830953D02*
X144316723Y-57878572D01*
X144316723Y-57878572D02*
X144411961Y-57926191D01*
X144411961Y-57926191D02*
X144507200Y-58021429D01*
X144507200Y-58021429D02*
X144554819Y-58164286D01*
X144554819Y-58164286D02*
X144554819Y-58259524D01*
X144554819Y-58259524D02*
X144507200Y-58402381D01*
X144507200Y-58402381D02*
X144459580Y-58450000D01*
X144459580Y-58450000D02*
X144126247Y-58450000D01*
X144126247Y-58450000D02*
X144126247Y-58259524D01*
X144554819Y-58878572D02*
X143554819Y-58878572D01*
X143554819Y-58878572D02*
X143554819Y-59259524D01*
X143554819Y-59259524D02*
X143602438Y-59354762D01*
X143602438Y-59354762D02*
X143650057Y-59402381D01*
X143650057Y-59402381D02*
X143745295Y-59450000D01*
X143745295Y-59450000D02*
X143888152Y-59450000D01*
X143888152Y-59450000D02*
X143983390Y-59402381D01*
X143983390Y-59402381D02*
X144031009Y-59354762D01*
X144031009Y-59354762D02*
X144078628Y-59259524D01*
X144078628Y-59259524D02*
X144078628Y-58878572D01*
X144554819Y-59878572D02*
X143554819Y-59878572D01*
X143554819Y-60545238D02*
X143554819Y-60735714D01*
X143554819Y-60735714D02*
X143602438Y-60830952D01*
X143602438Y-60830952D02*
X143697676Y-60926190D01*
X143697676Y-60926190D02*
X143888152Y-60973809D01*
X143888152Y-60973809D02*
X144221485Y-60973809D01*
X144221485Y-60973809D02*
X144411961Y-60926190D01*
X144411961Y-60926190D02*
X144507200Y-60830952D01*
X144507200Y-60830952D02*
X144554819Y-60735714D01*
X144554819Y-60735714D02*
X144554819Y-60545238D01*
X144554819Y-60545238D02*
X144507200Y-60450000D01*
X144507200Y-60450000D02*
X144411961Y-60354762D01*
X144411961Y-60354762D02*
X144221485Y-60307143D01*
X144221485Y-60307143D02*
X143888152Y-60307143D01*
X143888152Y-60307143D02*
X143697676Y-60354762D01*
X143697676Y-60354762D02*
X143602438Y-60450000D01*
X143602438Y-60450000D02*
X143554819Y-60545238D01*
X143554819Y-61830952D02*
X143554819Y-61640476D01*
X143554819Y-61640476D02*
X143602438Y-61545238D01*
X143602438Y-61545238D02*
X143650057Y-61497619D01*
X143650057Y-61497619D02*
X143792914Y-61402381D01*
X143792914Y-61402381D02*
X143983390Y-61354762D01*
X143983390Y-61354762D02*
X144364342Y-61354762D01*
X144364342Y-61354762D02*
X144459580Y-61402381D01*
X144459580Y-61402381D02*
X144507200Y-61450000D01*
X144507200Y-61450000D02*
X144554819Y-61545238D01*
X144554819Y-61545238D02*
X144554819Y-61735714D01*
X144554819Y-61735714D02*
X144507200Y-61830952D01*
X144507200Y-61830952D02*
X144459580Y-61878571D01*
X144459580Y-61878571D02*
X144364342Y-61926190D01*
X144364342Y-61926190D02*
X144126247Y-61926190D01*
X144126247Y-61926190D02*
X144031009Y-61878571D01*
X144031009Y-61878571D02*
X143983390Y-61830952D01*
X143983390Y-61830952D02*
X143935771Y-61735714D01*
X143935771Y-61735714D02*
X143935771Y-61545238D01*
X143935771Y-61545238D02*
X143983390Y-61450000D01*
X143983390Y-61450000D02*
X144031009Y-61402381D01*
X144031009Y-61402381D02*
X144126247Y-61354762D01*
X142054819Y-52992858D02*
X141054819Y-52992858D01*
X141054819Y-52992858D02*
X141054819Y-53230953D01*
X141054819Y-53230953D02*
X141102438Y-53373810D01*
X141102438Y-53373810D02*
X141197676Y-53469048D01*
X141197676Y-53469048D02*
X141292914Y-53516667D01*
X141292914Y-53516667D02*
X141483390Y-53564286D01*
X141483390Y-53564286D02*
X141626247Y-53564286D01*
X141626247Y-53564286D02*
X141816723Y-53516667D01*
X141816723Y-53516667D02*
X141911961Y-53469048D01*
X141911961Y-53469048D02*
X142007200Y-53373810D01*
X142007200Y-53373810D02*
X142054819Y-53230953D01*
X142054819Y-53230953D02*
X142054819Y-52992858D01*
X142054819Y-53992858D02*
X141054819Y-53992858D01*
X142054819Y-55040476D02*
X141578628Y-54707143D01*
X142054819Y-54469048D02*
X141054819Y-54469048D01*
X141054819Y-54469048D02*
X141054819Y-54850000D01*
X141054819Y-54850000D02*
X141102438Y-54945238D01*
X141102438Y-54945238D02*
X141150057Y-54992857D01*
X141150057Y-54992857D02*
X141245295Y-55040476D01*
X141245295Y-55040476D02*
X141388152Y-55040476D01*
X141388152Y-55040476D02*
X141483390Y-54992857D01*
X141483390Y-54992857D02*
X141531009Y-54945238D01*
X141531009Y-54945238D02*
X141578628Y-54850000D01*
X141578628Y-54850000D02*
X141578628Y-54469048D01*
X141959580Y-55469048D02*
X142007200Y-55516667D01*
X142007200Y-55516667D02*
X142054819Y-55469048D01*
X142054819Y-55469048D02*
X142007200Y-55421429D01*
X142007200Y-55421429D02*
X141959580Y-55469048D01*
X141959580Y-55469048D02*
X142054819Y-55469048D01*
X141435771Y-55469048D02*
X141483390Y-55516667D01*
X141483390Y-55516667D02*
X141531009Y-55469048D01*
X141531009Y-55469048D02*
X141483390Y-55421429D01*
X141483390Y-55421429D02*
X141435771Y-55469048D01*
X141435771Y-55469048D02*
X141531009Y-55469048D01*
X141102438Y-57230952D02*
X141054819Y-57135714D01*
X141054819Y-57135714D02*
X141054819Y-56992857D01*
X141054819Y-56992857D02*
X141102438Y-56850000D01*
X141102438Y-56850000D02*
X141197676Y-56754762D01*
X141197676Y-56754762D02*
X141292914Y-56707143D01*
X141292914Y-56707143D02*
X141483390Y-56659524D01*
X141483390Y-56659524D02*
X141626247Y-56659524D01*
X141626247Y-56659524D02*
X141816723Y-56707143D01*
X141816723Y-56707143D02*
X141911961Y-56754762D01*
X141911961Y-56754762D02*
X142007200Y-56850000D01*
X142007200Y-56850000D02*
X142054819Y-56992857D01*
X142054819Y-56992857D02*
X142054819Y-57088095D01*
X142054819Y-57088095D02*
X142007200Y-57230952D01*
X142007200Y-57230952D02*
X141959580Y-57278571D01*
X141959580Y-57278571D02*
X141626247Y-57278571D01*
X141626247Y-57278571D02*
X141626247Y-57088095D01*
X142054819Y-57707143D02*
X141054819Y-57707143D01*
X141054819Y-57707143D02*
X141054819Y-58088095D01*
X141054819Y-58088095D02*
X141102438Y-58183333D01*
X141102438Y-58183333D02*
X141150057Y-58230952D01*
X141150057Y-58230952D02*
X141245295Y-58278571D01*
X141245295Y-58278571D02*
X141388152Y-58278571D01*
X141388152Y-58278571D02*
X141483390Y-58230952D01*
X141483390Y-58230952D02*
X141531009Y-58183333D01*
X141531009Y-58183333D02*
X141578628Y-58088095D01*
X141578628Y-58088095D02*
X141578628Y-57707143D01*
X142054819Y-58707143D02*
X141054819Y-58707143D01*
X141054819Y-59373809D02*
X141054819Y-59564285D01*
X141054819Y-59564285D02*
X141102438Y-59659523D01*
X141102438Y-59659523D02*
X141197676Y-59754761D01*
X141197676Y-59754761D02*
X141388152Y-59802380D01*
X141388152Y-59802380D02*
X141721485Y-59802380D01*
X141721485Y-59802380D02*
X141911961Y-59754761D01*
X141911961Y-59754761D02*
X142007200Y-59659523D01*
X142007200Y-59659523D02*
X142054819Y-59564285D01*
X142054819Y-59564285D02*
X142054819Y-59373809D01*
X142054819Y-59373809D02*
X142007200Y-59278571D01*
X142007200Y-59278571D02*
X141911961Y-59183333D01*
X141911961Y-59183333D02*
X141721485Y-59135714D01*
X141721485Y-59135714D02*
X141388152Y-59135714D01*
X141388152Y-59135714D02*
X141197676Y-59183333D01*
X141197676Y-59183333D02*
X141102438Y-59278571D01*
X141102438Y-59278571D02*
X141054819Y-59373809D01*
X141054819Y-60135714D02*
X141054819Y-60802380D01*
X141054819Y-60802380D02*
X142054819Y-60373809D01*
X139654819Y-57040476D02*
X138654819Y-57040476D01*
X138654819Y-57040476D02*
X139369104Y-57373809D01*
X139369104Y-57373809D02*
X138654819Y-57707142D01*
X138654819Y-57707142D02*
X139654819Y-57707142D01*
X139654819Y-58707142D02*
X139654819Y-58135714D01*
X139654819Y-58421428D02*
X138654819Y-58421428D01*
X138654819Y-58421428D02*
X138797676Y-58326190D01*
X138797676Y-58326190D02*
X138892914Y-58230952D01*
X138892914Y-58230952D02*
X138940533Y-58135714D01*
X139654819Y-89490476D02*
X138654819Y-89490476D01*
X138654819Y-89490476D02*
X139369104Y-89823809D01*
X139369104Y-89823809D02*
X138654819Y-90157142D01*
X138654819Y-90157142D02*
X139654819Y-90157142D01*
X138654819Y-90538095D02*
X138654819Y-91157142D01*
X138654819Y-91157142D02*
X139035771Y-90823809D01*
X139035771Y-90823809D02*
X139035771Y-90966666D01*
X139035771Y-90966666D02*
X139083390Y-91061904D01*
X139083390Y-91061904D02*
X139131009Y-91109523D01*
X139131009Y-91109523D02*
X139226247Y-91157142D01*
X139226247Y-91157142D02*
X139464342Y-91157142D01*
X139464342Y-91157142D02*
X139559580Y-91109523D01*
X139559580Y-91109523D02*
X139607200Y-91061904D01*
X139607200Y-91061904D02*
X139654819Y-90966666D01*
X139654819Y-90966666D02*
X139654819Y-90680952D01*
X139654819Y-90680952D02*
X139607200Y-90585714D01*
X139607200Y-90585714D02*
X139559580Y-90538095D01*
X142004819Y-85266667D02*
X141004819Y-85266667D01*
X141004819Y-85266667D02*
X141004819Y-85504762D01*
X141004819Y-85504762D02*
X141052438Y-85647619D01*
X141052438Y-85647619D02*
X141147676Y-85742857D01*
X141147676Y-85742857D02*
X141242914Y-85790476D01*
X141242914Y-85790476D02*
X141433390Y-85838095D01*
X141433390Y-85838095D02*
X141576247Y-85838095D01*
X141576247Y-85838095D02*
X141766723Y-85790476D01*
X141766723Y-85790476D02*
X141861961Y-85742857D01*
X141861961Y-85742857D02*
X141957200Y-85647619D01*
X141957200Y-85647619D02*
X142004819Y-85504762D01*
X142004819Y-85504762D02*
X142004819Y-85266667D01*
X142004819Y-86266667D02*
X141004819Y-86266667D01*
X142004819Y-87314285D02*
X141528628Y-86980952D01*
X142004819Y-86742857D02*
X141004819Y-86742857D01*
X141004819Y-86742857D02*
X141004819Y-87123809D01*
X141004819Y-87123809D02*
X141052438Y-87219047D01*
X141052438Y-87219047D02*
X141100057Y-87266666D01*
X141100057Y-87266666D02*
X141195295Y-87314285D01*
X141195295Y-87314285D02*
X141338152Y-87314285D01*
X141338152Y-87314285D02*
X141433390Y-87266666D01*
X141433390Y-87266666D02*
X141481009Y-87219047D01*
X141481009Y-87219047D02*
X141528628Y-87123809D01*
X141528628Y-87123809D02*
X141528628Y-86742857D01*
X141909580Y-87742857D02*
X141957200Y-87790476D01*
X141957200Y-87790476D02*
X142004819Y-87742857D01*
X142004819Y-87742857D02*
X141957200Y-87695238D01*
X141957200Y-87695238D02*
X141909580Y-87742857D01*
X141909580Y-87742857D02*
X142004819Y-87742857D01*
X141385771Y-87742857D02*
X141433390Y-87790476D01*
X141433390Y-87790476D02*
X141481009Y-87742857D01*
X141481009Y-87742857D02*
X141433390Y-87695238D01*
X141433390Y-87695238D02*
X141385771Y-87742857D01*
X141385771Y-87742857D02*
X141481009Y-87742857D01*
X141052438Y-89504761D02*
X141004819Y-89409523D01*
X141004819Y-89409523D02*
X141004819Y-89266666D01*
X141004819Y-89266666D02*
X141052438Y-89123809D01*
X141052438Y-89123809D02*
X141147676Y-89028571D01*
X141147676Y-89028571D02*
X141242914Y-88980952D01*
X141242914Y-88980952D02*
X141433390Y-88933333D01*
X141433390Y-88933333D02*
X141576247Y-88933333D01*
X141576247Y-88933333D02*
X141766723Y-88980952D01*
X141766723Y-88980952D02*
X141861961Y-89028571D01*
X141861961Y-89028571D02*
X141957200Y-89123809D01*
X141957200Y-89123809D02*
X142004819Y-89266666D01*
X142004819Y-89266666D02*
X142004819Y-89361904D01*
X142004819Y-89361904D02*
X141957200Y-89504761D01*
X141957200Y-89504761D02*
X141909580Y-89552380D01*
X141909580Y-89552380D02*
X141576247Y-89552380D01*
X141576247Y-89552380D02*
X141576247Y-89361904D01*
X142004819Y-89980952D02*
X141004819Y-89980952D01*
X141004819Y-89980952D02*
X141004819Y-90361904D01*
X141004819Y-90361904D02*
X141052438Y-90457142D01*
X141052438Y-90457142D02*
X141100057Y-90504761D01*
X141100057Y-90504761D02*
X141195295Y-90552380D01*
X141195295Y-90552380D02*
X141338152Y-90552380D01*
X141338152Y-90552380D02*
X141433390Y-90504761D01*
X141433390Y-90504761D02*
X141481009Y-90457142D01*
X141481009Y-90457142D02*
X141528628Y-90361904D01*
X141528628Y-90361904D02*
X141528628Y-89980952D01*
X142004819Y-90980952D02*
X141004819Y-90980952D01*
X141004819Y-91647618D02*
X141004819Y-91838094D01*
X141004819Y-91838094D02*
X141052438Y-91933332D01*
X141052438Y-91933332D02*
X141147676Y-92028570D01*
X141147676Y-92028570D02*
X141338152Y-92076189D01*
X141338152Y-92076189D02*
X141671485Y-92076189D01*
X141671485Y-92076189D02*
X141861961Y-92028570D01*
X141861961Y-92028570D02*
X141957200Y-91933332D01*
X141957200Y-91933332D02*
X142004819Y-91838094D01*
X142004819Y-91838094D02*
X142004819Y-91647618D01*
X142004819Y-91647618D02*
X141957200Y-91552380D01*
X141957200Y-91552380D02*
X141861961Y-91457142D01*
X141861961Y-91457142D02*
X141671485Y-91409523D01*
X141671485Y-91409523D02*
X141338152Y-91409523D01*
X141338152Y-91409523D02*
X141147676Y-91457142D01*
X141147676Y-91457142D02*
X141052438Y-91552380D01*
X141052438Y-91552380D02*
X141004819Y-91647618D01*
X142004819Y-93028570D02*
X142004819Y-92457142D01*
X142004819Y-92742856D02*
X141004819Y-92742856D01*
X141004819Y-92742856D02*
X141147676Y-92647618D01*
X141147676Y-92647618D02*
X141242914Y-92552380D01*
X141242914Y-92552380D02*
X141290533Y-92457142D01*
X141004819Y-93361904D02*
X141004819Y-93980951D01*
X141004819Y-93980951D02*
X141385771Y-93647618D01*
X141385771Y-93647618D02*
X141385771Y-93790475D01*
X141385771Y-93790475D02*
X141433390Y-93885713D01*
X141433390Y-93885713D02*
X141481009Y-93933332D01*
X141481009Y-93933332D02*
X141576247Y-93980951D01*
X141576247Y-93980951D02*
X141814342Y-93980951D01*
X141814342Y-93980951D02*
X141909580Y-93933332D01*
X141909580Y-93933332D02*
X141957200Y-93885713D01*
X141957200Y-93885713D02*
X142004819Y-93790475D01*
X142004819Y-93790475D02*
X142004819Y-93504761D01*
X142004819Y-93504761D02*
X141957200Y-93409523D01*
X141957200Y-93409523D02*
X141909580Y-93361904D01*
X144557200Y-85297619D02*
X144604819Y-85440476D01*
X144604819Y-85440476D02*
X144604819Y-85678571D01*
X144604819Y-85678571D02*
X144557200Y-85773809D01*
X144557200Y-85773809D02*
X144509580Y-85821428D01*
X144509580Y-85821428D02*
X144414342Y-85869047D01*
X144414342Y-85869047D02*
X144319104Y-85869047D01*
X144319104Y-85869047D02*
X144223866Y-85821428D01*
X144223866Y-85821428D02*
X144176247Y-85773809D01*
X144176247Y-85773809D02*
X144128628Y-85678571D01*
X144128628Y-85678571D02*
X144081009Y-85488095D01*
X144081009Y-85488095D02*
X144033390Y-85392857D01*
X144033390Y-85392857D02*
X143985771Y-85345238D01*
X143985771Y-85345238D02*
X143890533Y-85297619D01*
X143890533Y-85297619D02*
X143795295Y-85297619D01*
X143795295Y-85297619D02*
X143700057Y-85345238D01*
X143700057Y-85345238D02*
X143652438Y-85392857D01*
X143652438Y-85392857D02*
X143604819Y-85488095D01*
X143604819Y-85488095D02*
X143604819Y-85726190D01*
X143604819Y-85726190D02*
X143652438Y-85869047D01*
X143604819Y-86154762D02*
X143604819Y-86726190D01*
X144604819Y-86440476D02*
X143604819Y-86440476D01*
X144081009Y-87059524D02*
X144081009Y-87392857D01*
X144604819Y-87535714D02*
X144604819Y-87059524D01*
X144604819Y-87059524D02*
X143604819Y-87059524D01*
X143604819Y-87059524D02*
X143604819Y-87535714D01*
X144604819Y-87964286D02*
X143604819Y-87964286D01*
X143604819Y-87964286D02*
X143604819Y-88345238D01*
X143604819Y-88345238D02*
X143652438Y-88440476D01*
X143652438Y-88440476D02*
X143700057Y-88488095D01*
X143700057Y-88488095D02*
X143795295Y-88535714D01*
X143795295Y-88535714D02*
X143938152Y-88535714D01*
X143938152Y-88535714D02*
X144033390Y-88488095D01*
X144033390Y-88488095D02*
X144081009Y-88440476D01*
X144081009Y-88440476D02*
X144128628Y-88345238D01*
X144128628Y-88345238D02*
X144128628Y-87964286D01*
X144509580Y-88964286D02*
X144557200Y-89011905D01*
X144557200Y-89011905D02*
X144604819Y-88964286D01*
X144604819Y-88964286D02*
X144557200Y-88916667D01*
X144557200Y-88916667D02*
X144509580Y-88964286D01*
X144509580Y-88964286D02*
X144604819Y-88964286D01*
X143985771Y-88964286D02*
X144033390Y-89011905D01*
X144033390Y-89011905D02*
X144081009Y-88964286D01*
X144081009Y-88964286D02*
X144033390Y-88916667D01*
X144033390Y-88916667D02*
X143985771Y-88964286D01*
X143985771Y-88964286D02*
X144081009Y-88964286D01*
X143652438Y-90726190D02*
X143604819Y-90630952D01*
X143604819Y-90630952D02*
X143604819Y-90488095D01*
X143604819Y-90488095D02*
X143652438Y-90345238D01*
X143652438Y-90345238D02*
X143747676Y-90250000D01*
X143747676Y-90250000D02*
X143842914Y-90202381D01*
X143842914Y-90202381D02*
X144033390Y-90154762D01*
X144033390Y-90154762D02*
X144176247Y-90154762D01*
X144176247Y-90154762D02*
X144366723Y-90202381D01*
X144366723Y-90202381D02*
X144461961Y-90250000D01*
X144461961Y-90250000D02*
X144557200Y-90345238D01*
X144557200Y-90345238D02*
X144604819Y-90488095D01*
X144604819Y-90488095D02*
X144604819Y-90583333D01*
X144604819Y-90583333D02*
X144557200Y-90726190D01*
X144557200Y-90726190D02*
X144509580Y-90773809D01*
X144509580Y-90773809D02*
X144176247Y-90773809D01*
X144176247Y-90773809D02*
X144176247Y-90583333D01*
X144604819Y-91202381D02*
X143604819Y-91202381D01*
X143604819Y-91202381D02*
X143604819Y-91583333D01*
X143604819Y-91583333D02*
X143652438Y-91678571D01*
X143652438Y-91678571D02*
X143700057Y-91726190D01*
X143700057Y-91726190D02*
X143795295Y-91773809D01*
X143795295Y-91773809D02*
X143938152Y-91773809D01*
X143938152Y-91773809D02*
X144033390Y-91726190D01*
X144033390Y-91726190D02*
X144081009Y-91678571D01*
X144081009Y-91678571D02*
X144128628Y-91583333D01*
X144128628Y-91583333D02*
X144128628Y-91202381D01*
X144604819Y-92202381D02*
X143604819Y-92202381D01*
X143604819Y-92869047D02*
X143604819Y-93059523D01*
X143604819Y-93059523D02*
X143652438Y-93154761D01*
X143652438Y-93154761D02*
X143747676Y-93249999D01*
X143747676Y-93249999D02*
X143938152Y-93297618D01*
X143938152Y-93297618D02*
X144271485Y-93297618D01*
X144271485Y-93297618D02*
X144461961Y-93249999D01*
X144461961Y-93249999D02*
X144557200Y-93154761D01*
X144557200Y-93154761D02*
X144604819Y-93059523D01*
X144604819Y-93059523D02*
X144604819Y-92869047D01*
X144604819Y-92869047D02*
X144557200Y-92773809D01*
X144557200Y-92773809D02*
X144461961Y-92678571D01*
X144461961Y-92678571D02*
X144271485Y-92630952D01*
X144271485Y-92630952D02*
X143938152Y-92630952D01*
X143938152Y-92630952D02*
X143747676Y-92678571D01*
X143747676Y-92678571D02*
X143652438Y-92773809D01*
X143652438Y-92773809D02*
X143604819Y-92869047D01*
X144604819Y-94249999D02*
X144604819Y-93678571D01*
X144604819Y-93964285D02*
X143604819Y-93964285D01*
X143604819Y-93964285D02*
X143747676Y-93869047D01*
X143747676Y-93869047D02*
X143842914Y-93773809D01*
X143842914Y-93773809D02*
X143890533Y-93678571D01*
X143700057Y-94630952D02*
X143652438Y-94678571D01*
X143652438Y-94678571D02*
X143604819Y-94773809D01*
X143604819Y-94773809D02*
X143604819Y-95011904D01*
X143604819Y-95011904D02*
X143652438Y-95107142D01*
X143652438Y-95107142D02*
X143700057Y-95154761D01*
X143700057Y-95154761D02*
X143795295Y-95202380D01*
X143795295Y-95202380D02*
X143890533Y-95202380D01*
X143890533Y-95202380D02*
X144033390Y-95154761D01*
X144033390Y-95154761D02*
X144604819Y-94583333D01*
X144604819Y-94583333D02*
X144604819Y-95202380D01*
X147057200Y-85276191D02*
X147104819Y-85419048D01*
X147104819Y-85419048D02*
X147104819Y-85657143D01*
X147104819Y-85657143D02*
X147057200Y-85752381D01*
X147057200Y-85752381D02*
X147009580Y-85800000D01*
X147009580Y-85800000D02*
X146914342Y-85847619D01*
X146914342Y-85847619D02*
X146819104Y-85847619D01*
X146819104Y-85847619D02*
X146723866Y-85800000D01*
X146723866Y-85800000D02*
X146676247Y-85752381D01*
X146676247Y-85752381D02*
X146628628Y-85657143D01*
X146628628Y-85657143D02*
X146581009Y-85466667D01*
X146581009Y-85466667D02*
X146533390Y-85371429D01*
X146533390Y-85371429D02*
X146485771Y-85323810D01*
X146485771Y-85323810D02*
X146390533Y-85276191D01*
X146390533Y-85276191D02*
X146295295Y-85276191D01*
X146295295Y-85276191D02*
X146200057Y-85323810D01*
X146200057Y-85323810D02*
X146152438Y-85371429D01*
X146152438Y-85371429D02*
X146104819Y-85466667D01*
X146104819Y-85466667D02*
X146104819Y-85704762D01*
X146104819Y-85704762D02*
X146152438Y-85847619D01*
X147104819Y-86752381D02*
X147104819Y-86276191D01*
X147104819Y-86276191D02*
X146104819Y-86276191D01*
X147104819Y-87085715D02*
X146104819Y-87085715D01*
X146104819Y-87085715D02*
X146104819Y-87466667D01*
X146104819Y-87466667D02*
X146152438Y-87561905D01*
X146152438Y-87561905D02*
X146200057Y-87609524D01*
X146200057Y-87609524D02*
X146295295Y-87657143D01*
X146295295Y-87657143D02*
X146438152Y-87657143D01*
X146438152Y-87657143D02*
X146533390Y-87609524D01*
X146533390Y-87609524D02*
X146581009Y-87561905D01*
X146581009Y-87561905D02*
X146628628Y-87466667D01*
X146628628Y-87466667D02*
X146628628Y-87085715D01*
X147009580Y-88085715D02*
X147057200Y-88133334D01*
X147057200Y-88133334D02*
X147104819Y-88085715D01*
X147104819Y-88085715D02*
X147057200Y-88038096D01*
X147057200Y-88038096D02*
X147009580Y-88085715D01*
X147009580Y-88085715D02*
X147104819Y-88085715D01*
X146485771Y-88085715D02*
X146533390Y-88133334D01*
X146533390Y-88133334D02*
X146581009Y-88085715D01*
X146581009Y-88085715D02*
X146533390Y-88038096D01*
X146533390Y-88038096D02*
X146485771Y-88085715D01*
X146485771Y-88085715D02*
X146581009Y-88085715D01*
X146152438Y-89847619D02*
X146104819Y-89752381D01*
X146104819Y-89752381D02*
X146104819Y-89609524D01*
X146104819Y-89609524D02*
X146152438Y-89466667D01*
X146152438Y-89466667D02*
X146247676Y-89371429D01*
X146247676Y-89371429D02*
X146342914Y-89323810D01*
X146342914Y-89323810D02*
X146533390Y-89276191D01*
X146533390Y-89276191D02*
X146676247Y-89276191D01*
X146676247Y-89276191D02*
X146866723Y-89323810D01*
X146866723Y-89323810D02*
X146961961Y-89371429D01*
X146961961Y-89371429D02*
X147057200Y-89466667D01*
X147057200Y-89466667D02*
X147104819Y-89609524D01*
X147104819Y-89609524D02*
X147104819Y-89704762D01*
X147104819Y-89704762D02*
X147057200Y-89847619D01*
X147057200Y-89847619D02*
X147009580Y-89895238D01*
X147009580Y-89895238D02*
X146676247Y-89895238D01*
X146676247Y-89895238D02*
X146676247Y-89704762D01*
X147104819Y-90323810D02*
X146104819Y-90323810D01*
X146104819Y-90323810D02*
X146104819Y-90704762D01*
X146104819Y-90704762D02*
X146152438Y-90800000D01*
X146152438Y-90800000D02*
X146200057Y-90847619D01*
X146200057Y-90847619D02*
X146295295Y-90895238D01*
X146295295Y-90895238D02*
X146438152Y-90895238D01*
X146438152Y-90895238D02*
X146533390Y-90847619D01*
X146533390Y-90847619D02*
X146581009Y-90800000D01*
X146581009Y-90800000D02*
X146628628Y-90704762D01*
X146628628Y-90704762D02*
X146628628Y-90323810D01*
X147104819Y-91323810D02*
X146104819Y-91323810D01*
X146104819Y-91990476D02*
X146104819Y-92180952D01*
X146104819Y-92180952D02*
X146152438Y-92276190D01*
X146152438Y-92276190D02*
X146247676Y-92371428D01*
X146247676Y-92371428D02*
X146438152Y-92419047D01*
X146438152Y-92419047D02*
X146771485Y-92419047D01*
X146771485Y-92419047D02*
X146961961Y-92371428D01*
X146961961Y-92371428D02*
X147057200Y-92276190D01*
X147057200Y-92276190D02*
X147104819Y-92180952D01*
X147104819Y-92180952D02*
X147104819Y-91990476D01*
X147104819Y-91990476D02*
X147057200Y-91895238D01*
X147057200Y-91895238D02*
X146961961Y-91800000D01*
X146961961Y-91800000D02*
X146771485Y-91752381D01*
X146771485Y-91752381D02*
X146438152Y-91752381D01*
X146438152Y-91752381D02*
X146247676Y-91800000D01*
X146247676Y-91800000D02*
X146152438Y-91895238D01*
X146152438Y-91895238D02*
X146104819Y-91990476D01*
X147104819Y-93371428D02*
X147104819Y-92800000D01*
X147104819Y-93085714D02*
X146104819Y-93085714D01*
X146104819Y-93085714D02*
X146247676Y-92990476D01*
X146247676Y-92990476D02*
X146342914Y-92895238D01*
X146342914Y-92895238D02*
X146390533Y-92800000D01*
X147104819Y-94323809D02*
X147104819Y-93752381D01*
X147104819Y-94038095D02*
X146104819Y-94038095D01*
X146104819Y-94038095D02*
X146247676Y-93942857D01*
X146247676Y-93942857D02*
X146342914Y-93847619D01*
X146342914Y-93847619D02*
X146390533Y-93752381D01*
X174066665Y-60054819D02*
X174066665Y-59054819D01*
X174066665Y-59054819D02*
X173733332Y-59769104D01*
X173733332Y-59769104D02*
X173399999Y-59054819D01*
X173399999Y-59054819D02*
X173399999Y-60054819D01*
X172733332Y-59054819D02*
X172638094Y-59054819D01*
X172638094Y-59054819D02*
X172542856Y-59102438D01*
X172542856Y-59102438D02*
X172495237Y-59150057D01*
X172495237Y-59150057D02*
X172447618Y-59245295D01*
X172447618Y-59245295D02*
X172399999Y-59435771D01*
X172399999Y-59435771D02*
X172399999Y-59673866D01*
X172399999Y-59673866D02*
X172447618Y-59864342D01*
X172447618Y-59864342D02*
X172495237Y-59959580D01*
X172495237Y-59959580D02*
X172542856Y-60007200D01*
X172542856Y-60007200D02*
X172638094Y-60054819D01*
X172638094Y-60054819D02*
X172733332Y-60054819D01*
X172733332Y-60054819D02*
X172828570Y-60007200D01*
X172828570Y-60007200D02*
X172876189Y-59959580D01*
X172876189Y-59959580D02*
X172923808Y-59864342D01*
X172923808Y-59864342D02*
X172971427Y-59673866D01*
X172971427Y-59673866D02*
X172971427Y-59435771D01*
X172971427Y-59435771D02*
X172923808Y-59245295D01*
X172923808Y-59245295D02*
X172876189Y-59150057D01*
X172876189Y-59150057D02*
X172828570Y-59102438D01*
X172828570Y-59102438D02*
X172733332Y-59054819D01*
X171971427Y-59959580D02*
X171923808Y-60007200D01*
X171923808Y-60007200D02*
X171971427Y-60054819D01*
X171971427Y-60054819D02*
X172019046Y-60007200D01*
X172019046Y-60007200D02*
X171971427Y-59959580D01*
X171971427Y-59959580D02*
X171971427Y-60054819D01*
X171971427Y-59435771D02*
X171923808Y-59483390D01*
X171923808Y-59483390D02*
X171971427Y-59531009D01*
X171971427Y-59531009D02*
X172019046Y-59483390D01*
X172019046Y-59483390D02*
X171971427Y-59435771D01*
X171971427Y-59435771D02*
X171971427Y-59531009D01*
X170209523Y-59102438D02*
X170304761Y-59054819D01*
X170304761Y-59054819D02*
X170447618Y-59054819D01*
X170447618Y-59054819D02*
X170590475Y-59102438D01*
X170590475Y-59102438D02*
X170685713Y-59197676D01*
X170685713Y-59197676D02*
X170733332Y-59292914D01*
X170733332Y-59292914D02*
X170780951Y-59483390D01*
X170780951Y-59483390D02*
X170780951Y-59626247D01*
X170780951Y-59626247D02*
X170733332Y-59816723D01*
X170733332Y-59816723D02*
X170685713Y-59911961D01*
X170685713Y-59911961D02*
X170590475Y-60007200D01*
X170590475Y-60007200D02*
X170447618Y-60054819D01*
X170447618Y-60054819D02*
X170352380Y-60054819D01*
X170352380Y-60054819D02*
X170209523Y-60007200D01*
X170209523Y-60007200D02*
X170161904Y-59959580D01*
X170161904Y-59959580D02*
X170161904Y-59626247D01*
X170161904Y-59626247D02*
X170352380Y-59626247D01*
X169733332Y-60054819D02*
X169733332Y-59054819D01*
X169733332Y-59054819D02*
X169352380Y-59054819D01*
X169352380Y-59054819D02*
X169257142Y-59102438D01*
X169257142Y-59102438D02*
X169209523Y-59150057D01*
X169209523Y-59150057D02*
X169161904Y-59245295D01*
X169161904Y-59245295D02*
X169161904Y-59388152D01*
X169161904Y-59388152D02*
X169209523Y-59483390D01*
X169209523Y-59483390D02*
X169257142Y-59531009D01*
X169257142Y-59531009D02*
X169352380Y-59578628D01*
X169352380Y-59578628D02*
X169733332Y-59578628D01*
X168733332Y-60054819D02*
X168733332Y-59054819D01*
X168066666Y-59054819D02*
X167876190Y-59054819D01*
X167876190Y-59054819D02*
X167780952Y-59102438D01*
X167780952Y-59102438D02*
X167685714Y-59197676D01*
X167685714Y-59197676D02*
X167638095Y-59388152D01*
X167638095Y-59388152D02*
X167638095Y-59721485D01*
X167638095Y-59721485D02*
X167685714Y-59911961D01*
X167685714Y-59911961D02*
X167780952Y-60007200D01*
X167780952Y-60007200D02*
X167876190Y-60054819D01*
X167876190Y-60054819D02*
X168066666Y-60054819D01*
X168066666Y-60054819D02*
X168161904Y-60007200D01*
X168161904Y-60007200D02*
X168257142Y-59911961D01*
X168257142Y-59911961D02*
X168304761Y-59721485D01*
X168304761Y-59721485D02*
X168304761Y-59388152D01*
X168304761Y-59388152D02*
X168257142Y-59197676D01*
X168257142Y-59197676D02*
X168161904Y-59102438D01*
X168161904Y-59102438D02*
X168066666Y-59054819D01*
X167257142Y-59150057D02*
X167209523Y-59102438D01*
X167209523Y-59102438D02*
X167114285Y-59054819D01*
X167114285Y-59054819D02*
X166876190Y-59054819D01*
X166876190Y-59054819D02*
X166780952Y-59102438D01*
X166780952Y-59102438D02*
X166733333Y-59150057D01*
X166733333Y-59150057D02*
X166685714Y-59245295D01*
X166685714Y-59245295D02*
X166685714Y-59340533D01*
X166685714Y-59340533D02*
X166733333Y-59483390D01*
X166733333Y-59483390D02*
X167304761Y-60054819D01*
X167304761Y-60054819D02*
X166685714Y-60054819D01*
X174066665Y-62554819D02*
X174066665Y-61554819D01*
X174066665Y-61554819D02*
X173733332Y-62269104D01*
X173733332Y-62269104D02*
X173399999Y-61554819D01*
X173399999Y-61554819D02*
X173399999Y-62554819D01*
X172399999Y-62554819D02*
X172971427Y-62554819D01*
X172685713Y-62554819D02*
X172685713Y-61554819D01*
X172685713Y-61554819D02*
X172780951Y-61697676D01*
X172780951Y-61697676D02*
X172876189Y-61792914D01*
X172876189Y-61792914D02*
X172971427Y-61840533D01*
X171971427Y-62459580D02*
X171923808Y-62507200D01*
X171923808Y-62507200D02*
X171971427Y-62554819D01*
X171971427Y-62554819D02*
X172019046Y-62507200D01*
X172019046Y-62507200D02*
X171971427Y-62459580D01*
X171971427Y-62459580D02*
X171971427Y-62554819D01*
X171971427Y-61935771D02*
X171923808Y-61983390D01*
X171923808Y-61983390D02*
X171971427Y-62031009D01*
X171971427Y-62031009D02*
X172019046Y-61983390D01*
X172019046Y-61983390D02*
X171971427Y-61935771D01*
X171971427Y-61935771D02*
X171971427Y-62031009D01*
X170209523Y-61602438D02*
X170304761Y-61554819D01*
X170304761Y-61554819D02*
X170447618Y-61554819D01*
X170447618Y-61554819D02*
X170590475Y-61602438D01*
X170590475Y-61602438D02*
X170685713Y-61697676D01*
X170685713Y-61697676D02*
X170733332Y-61792914D01*
X170733332Y-61792914D02*
X170780951Y-61983390D01*
X170780951Y-61983390D02*
X170780951Y-62126247D01*
X170780951Y-62126247D02*
X170733332Y-62316723D01*
X170733332Y-62316723D02*
X170685713Y-62411961D01*
X170685713Y-62411961D02*
X170590475Y-62507200D01*
X170590475Y-62507200D02*
X170447618Y-62554819D01*
X170447618Y-62554819D02*
X170352380Y-62554819D01*
X170352380Y-62554819D02*
X170209523Y-62507200D01*
X170209523Y-62507200D02*
X170161904Y-62459580D01*
X170161904Y-62459580D02*
X170161904Y-62126247D01*
X170161904Y-62126247D02*
X170352380Y-62126247D01*
X169733332Y-62554819D02*
X169733332Y-61554819D01*
X169733332Y-61554819D02*
X169352380Y-61554819D01*
X169352380Y-61554819D02*
X169257142Y-61602438D01*
X169257142Y-61602438D02*
X169209523Y-61650057D01*
X169209523Y-61650057D02*
X169161904Y-61745295D01*
X169161904Y-61745295D02*
X169161904Y-61888152D01*
X169161904Y-61888152D02*
X169209523Y-61983390D01*
X169209523Y-61983390D02*
X169257142Y-62031009D01*
X169257142Y-62031009D02*
X169352380Y-62078628D01*
X169352380Y-62078628D02*
X169733332Y-62078628D01*
X168733332Y-62554819D02*
X168733332Y-61554819D01*
X168066666Y-61554819D02*
X167876190Y-61554819D01*
X167876190Y-61554819D02*
X167780952Y-61602438D01*
X167780952Y-61602438D02*
X167685714Y-61697676D01*
X167685714Y-61697676D02*
X167638095Y-61888152D01*
X167638095Y-61888152D02*
X167638095Y-62221485D01*
X167638095Y-62221485D02*
X167685714Y-62411961D01*
X167685714Y-62411961D02*
X167780952Y-62507200D01*
X167780952Y-62507200D02*
X167876190Y-62554819D01*
X167876190Y-62554819D02*
X168066666Y-62554819D01*
X168066666Y-62554819D02*
X168161904Y-62507200D01*
X168161904Y-62507200D02*
X168257142Y-62411961D01*
X168257142Y-62411961D02*
X168304761Y-62221485D01*
X168304761Y-62221485D02*
X168304761Y-61888152D01*
X168304761Y-61888152D02*
X168257142Y-61697676D01*
X168257142Y-61697676D02*
X168161904Y-61602438D01*
X168161904Y-61602438D02*
X168066666Y-61554819D01*
X167304761Y-61554819D02*
X166685714Y-61554819D01*
X166685714Y-61554819D02*
X167019047Y-61935771D01*
X167019047Y-61935771D02*
X166876190Y-61935771D01*
X166876190Y-61935771D02*
X166780952Y-61983390D01*
X166780952Y-61983390D02*
X166733333Y-62031009D01*
X166733333Y-62031009D02*
X166685714Y-62126247D01*
X166685714Y-62126247D02*
X166685714Y-62364342D01*
X166685714Y-62364342D02*
X166733333Y-62459580D01*
X166733333Y-62459580D02*
X166780952Y-62507200D01*
X166780952Y-62507200D02*
X166876190Y-62554819D01*
X166876190Y-62554819D02*
X167161904Y-62554819D01*
X167161904Y-62554819D02*
X167257142Y-62507200D01*
X167257142Y-62507200D02*
X167304761Y-62459580D01*
X174066665Y-65154819D02*
X174066665Y-64154819D01*
X174066665Y-64154819D02*
X173733332Y-64869104D01*
X173733332Y-64869104D02*
X173399999Y-64154819D01*
X173399999Y-64154819D02*
X173399999Y-65154819D01*
X172971427Y-64250057D02*
X172923808Y-64202438D01*
X172923808Y-64202438D02*
X172828570Y-64154819D01*
X172828570Y-64154819D02*
X172590475Y-64154819D01*
X172590475Y-64154819D02*
X172495237Y-64202438D01*
X172495237Y-64202438D02*
X172447618Y-64250057D01*
X172447618Y-64250057D02*
X172399999Y-64345295D01*
X172399999Y-64345295D02*
X172399999Y-64440533D01*
X172399999Y-64440533D02*
X172447618Y-64583390D01*
X172447618Y-64583390D02*
X173019046Y-65154819D01*
X173019046Y-65154819D02*
X172399999Y-65154819D01*
X171971427Y-65059580D02*
X171923808Y-65107200D01*
X171923808Y-65107200D02*
X171971427Y-65154819D01*
X171971427Y-65154819D02*
X172019046Y-65107200D01*
X172019046Y-65107200D02*
X171971427Y-65059580D01*
X171971427Y-65059580D02*
X171971427Y-65154819D01*
X171971427Y-64535771D02*
X171923808Y-64583390D01*
X171923808Y-64583390D02*
X171971427Y-64631009D01*
X171971427Y-64631009D02*
X172019046Y-64583390D01*
X172019046Y-64583390D02*
X171971427Y-64535771D01*
X171971427Y-64535771D02*
X171971427Y-64631009D01*
X170209523Y-64202438D02*
X170304761Y-64154819D01*
X170304761Y-64154819D02*
X170447618Y-64154819D01*
X170447618Y-64154819D02*
X170590475Y-64202438D01*
X170590475Y-64202438D02*
X170685713Y-64297676D01*
X170685713Y-64297676D02*
X170733332Y-64392914D01*
X170733332Y-64392914D02*
X170780951Y-64583390D01*
X170780951Y-64583390D02*
X170780951Y-64726247D01*
X170780951Y-64726247D02*
X170733332Y-64916723D01*
X170733332Y-64916723D02*
X170685713Y-65011961D01*
X170685713Y-65011961D02*
X170590475Y-65107200D01*
X170590475Y-65107200D02*
X170447618Y-65154819D01*
X170447618Y-65154819D02*
X170352380Y-65154819D01*
X170352380Y-65154819D02*
X170209523Y-65107200D01*
X170209523Y-65107200D02*
X170161904Y-65059580D01*
X170161904Y-65059580D02*
X170161904Y-64726247D01*
X170161904Y-64726247D02*
X170352380Y-64726247D01*
X169733332Y-65154819D02*
X169733332Y-64154819D01*
X169733332Y-64154819D02*
X169352380Y-64154819D01*
X169352380Y-64154819D02*
X169257142Y-64202438D01*
X169257142Y-64202438D02*
X169209523Y-64250057D01*
X169209523Y-64250057D02*
X169161904Y-64345295D01*
X169161904Y-64345295D02*
X169161904Y-64488152D01*
X169161904Y-64488152D02*
X169209523Y-64583390D01*
X169209523Y-64583390D02*
X169257142Y-64631009D01*
X169257142Y-64631009D02*
X169352380Y-64678628D01*
X169352380Y-64678628D02*
X169733332Y-64678628D01*
X168733332Y-65154819D02*
X168733332Y-64154819D01*
X168066666Y-64154819D02*
X167876190Y-64154819D01*
X167876190Y-64154819D02*
X167780952Y-64202438D01*
X167780952Y-64202438D02*
X167685714Y-64297676D01*
X167685714Y-64297676D02*
X167638095Y-64488152D01*
X167638095Y-64488152D02*
X167638095Y-64821485D01*
X167638095Y-64821485D02*
X167685714Y-65011961D01*
X167685714Y-65011961D02*
X167780952Y-65107200D01*
X167780952Y-65107200D02*
X167876190Y-65154819D01*
X167876190Y-65154819D02*
X168066666Y-65154819D01*
X168066666Y-65154819D02*
X168161904Y-65107200D01*
X168161904Y-65107200D02*
X168257142Y-65011961D01*
X168257142Y-65011961D02*
X168304761Y-64821485D01*
X168304761Y-64821485D02*
X168304761Y-64488152D01*
X168304761Y-64488152D02*
X168257142Y-64297676D01*
X168257142Y-64297676D02*
X168161904Y-64202438D01*
X168161904Y-64202438D02*
X168066666Y-64154819D01*
X166780952Y-64488152D02*
X166780952Y-65154819D01*
X167019047Y-64107200D02*
X167257142Y-64821485D01*
X167257142Y-64821485D02*
X166638095Y-64821485D01*
X188454819Y-75816666D02*
X189169104Y-75816666D01*
X189169104Y-75816666D02*
X189311961Y-75769047D01*
X189311961Y-75769047D02*
X189407200Y-75673809D01*
X189407200Y-75673809D02*
X189454819Y-75530952D01*
X189454819Y-75530952D02*
X189454819Y-75435714D01*
X188454819Y-76197619D02*
X188454819Y-76816666D01*
X188454819Y-76816666D02*
X188835771Y-76483333D01*
X188835771Y-76483333D02*
X188835771Y-76626190D01*
X188835771Y-76626190D02*
X188883390Y-76721428D01*
X188883390Y-76721428D02*
X188931009Y-76769047D01*
X188931009Y-76769047D02*
X189026247Y-76816666D01*
X189026247Y-76816666D02*
X189264342Y-76816666D01*
X189264342Y-76816666D02*
X189359580Y-76769047D01*
X189359580Y-76769047D02*
X189407200Y-76721428D01*
X189407200Y-76721428D02*
X189454819Y-76626190D01*
X189454819Y-76626190D02*
X189454819Y-76340476D01*
X189454819Y-76340476D02*
X189407200Y-76245238D01*
X189407200Y-76245238D02*
X189359580Y-76197619D01*
X139654819Y-105590476D02*
X138654819Y-105590476D01*
X138654819Y-105590476D02*
X139369104Y-105923809D01*
X139369104Y-105923809D02*
X138654819Y-106257142D01*
X138654819Y-106257142D02*
X139654819Y-106257142D01*
X138988152Y-107161904D02*
X139654819Y-107161904D01*
X138607200Y-106923809D02*
X139321485Y-106685714D01*
X139321485Y-106685714D02*
X139321485Y-107304761D01*
X142054819Y-101566667D02*
X141054819Y-101566667D01*
X141054819Y-101566667D02*
X141054819Y-101804762D01*
X141054819Y-101804762D02*
X141102438Y-101947619D01*
X141102438Y-101947619D02*
X141197676Y-102042857D01*
X141197676Y-102042857D02*
X141292914Y-102090476D01*
X141292914Y-102090476D02*
X141483390Y-102138095D01*
X141483390Y-102138095D02*
X141626247Y-102138095D01*
X141626247Y-102138095D02*
X141816723Y-102090476D01*
X141816723Y-102090476D02*
X141911961Y-102042857D01*
X141911961Y-102042857D02*
X142007200Y-101947619D01*
X142007200Y-101947619D02*
X142054819Y-101804762D01*
X142054819Y-101804762D02*
X142054819Y-101566667D01*
X142054819Y-102566667D02*
X141054819Y-102566667D01*
X142054819Y-103614285D02*
X141578628Y-103280952D01*
X142054819Y-103042857D02*
X141054819Y-103042857D01*
X141054819Y-103042857D02*
X141054819Y-103423809D01*
X141054819Y-103423809D02*
X141102438Y-103519047D01*
X141102438Y-103519047D02*
X141150057Y-103566666D01*
X141150057Y-103566666D02*
X141245295Y-103614285D01*
X141245295Y-103614285D02*
X141388152Y-103614285D01*
X141388152Y-103614285D02*
X141483390Y-103566666D01*
X141483390Y-103566666D02*
X141531009Y-103519047D01*
X141531009Y-103519047D02*
X141578628Y-103423809D01*
X141578628Y-103423809D02*
X141578628Y-103042857D01*
X141959580Y-104042857D02*
X142007200Y-104090476D01*
X142007200Y-104090476D02*
X142054819Y-104042857D01*
X142054819Y-104042857D02*
X142007200Y-103995238D01*
X142007200Y-103995238D02*
X141959580Y-104042857D01*
X141959580Y-104042857D02*
X142054819Y-104042857D01*
X141435771Y-104042857D02*
X141483390Y-104090476D01*
X141483390Y-104090476D02*
X141531009Y-104042857D01*
X141531009Y-104042857D02*
X141483390Y-103995238D01*
X141483390Y-103995238D02*
X141435771Y-104042857D01*
X141435771Y-104042857D02*
X141531009Y-104042857D01*
X141102438Y-105804761D02*
X141054819Y-105709523D01*
X141054819Y-105709523D02*
X141054819Y-105566666D01*
X141054819Y-105566666D02*
X141102438Y-105423809D01*
X141102438Y-105423809D02*
X141197676Y-105328571D01*
X141197676Y-105328571D02*
X141292914Y-105280952D01*
X141292914Y-105280952D02*
X141483390Y-105233333D01*
X141483390Y-105233333D02*
X141626247Y-105233333D01*
X141626247Y-105233333D02*
X141816723Y-105280952D01*
X141816723Y-105280952D02*
X141911961Y-105328571D01*
X141911961Y-105328571D02*
X142007200Y-105423809D01*
X142007200Y-105423809D02*
X142054819Y-105566666D01*
X142054819Y-105566666D02*
X142054819Y-105661904D01*
X142054819Y-105661904D02*
X142007200Y-105804761D01*
X142007200Y-105804761D02*
X141959580Y-105852380D01*
X141959580Y-105852380D02*
X141626247Y-105852380D01*
X141626247Y-105852380D02*
X141626247Y-105661904D01*
X142054819Y-106280952D02*
X141054819Y-106280952D01*
X141054819Y-106280952D02*
X141054819Y-106661904D01*
X141054819Y-106661904D02*
X141102438Y-106757142D01*
X141102438Y-106757142D02*
X141150057Y-106804761D01*
X141150057Y-106804761D02*
X141245295Y-106852380D01*
X141245295Y-106852380D02*
X141388152Y-106852380D01*
X141388152Y-106852380D02*
X141483390Y-106804761D01*
X141483390Y-106804761D02*
X141531009Y-106757142D01*
X141531009Y-106757142D02*
X141578628Y-106661904D01*
X141578628Y-106661904D02*
X141578628Y-106280952D01*
X142054819Y-107280952D02*
X141054819Y-107280952D01*
X141054819Y-107947618D02*
X141054819Y-108138094D01*
X141054819Y-108138094D02*
X141102438Y-108233332D01*
X141102438Y-108233332D02*
X141197676Y-108328570D01*
X141197676Y-108328570D02*
X141388152Y-108376189D01*
X141388152Y-108376189D02*
X141721485Y-108376189D01*
X141721485Y-108376189D02*
X141911961Y-108328570D01*
X141911961Y-108328570D02*
X142007200Y-108233332D01*
X142007200Y-108233332D02*
X142054819Y-108138094D01*
X142054819Y-108138094D02*
X142054819Y-107947618D01*
X142054819Y-107947618D02*
X142007200Y-107852380D01*
X142007200Y-107852380D02*
X141911961Y-107757142D01*
X141911961Y-107757142D02*
X141721485Y-107709523D01*
X141721485Y-107709523D02*
X141388152Y-107709523D01*
X141388152Y-107709523D02*
X141197676Y-107757142D01*
X141197676Y-107757142D02*
X141102438Y-107852380D01*
X141102438Y-107852380D02*
X141054819Y-107947618D01*
X142054819Y-109328570D02*
X142054819Y-108757142D01*
X142054819Y-109042856D02*
X141054819Y-109042856D01*
X141054819Y-109042856D02*
X141197676Y-108947618D01*
X141197676Y-108947618D02*
X141292914Y-108852380D01*
X141292914Y-108852380D02*
X141340533Y-108757142D01*
X141054819Y-110185713D02*
X141054819Y-109995237D01*
X141054819Y-109995237D02*
X141102438Y-109899999D01*
X141102438Y-109899999D02*
X141150057Y-109852380D01*
X141150057Y-109852380D02*
X141292914Y-109757142D01*
X141292914Y-109757142D02*
X141483390Y-109709523D01*
X141483390Y-109709523D02*
X141864342Y-109709523D01*
X141864342Y-109709523D02*
X141959580Y-109757142D01*
X141959580Y-109757142D02*
X142007200Y-109804761D01*
X142007200Y-109804761D02*
X142054819Y-109899999D01*
X142054819Y-109899999D02*
X142054819Y-110090475D01*
X142054819Y-110090475D02*
X142007200Y-110185713D01*
X142007200Y-110185713D02*
X141959580Y-110233332D01*
X141959580Y-110233332D02*
X141864342Y-110280951D01*
X141864342Y-110280951D02*
X141626247Y-110280951D01*
X141626247Y-110280951D02*
X141531009Y-110233332D01*
X141531009Y-110233332D02*
X141483390Y-110185713D01*
X141483390Y-110185713D02*
X141435771Y-110090475D01*
X141435771Y-110090475D02*
X141435771Y-109899999D01*
X141435771Y-109899999D02*
X141483390Y-109804761D01*
X141483390Y-109804761D02*
X141531009Y-109757142D01*
X141531009Y-109757142D02*
X141626247Y-109709523D01*
X144507200Y-101497619D02*
X144554819Y-101640476D01*
X144554819Y-101640476D02*
X144554819Y-101878571D01*
X144554819Y-101878571D02*
X144507200Y-101973809D01*
X144507200Y-101973809D02*
X144459580Y-102021428D01*
X144459580Y-102021428D02*
X144364342Y-102069047D01*
X144364342Y-102069047D02*
X144269104Y-102069047D01*
X144269104Y-102069047D02*
X144173866Y-102021428D01*
X144173866Y-102021428D02*
X144126247Y-101973809D01*
X144126247Y-101973809D02*
X144078628Y-101878571D01*
X144078628Y-101878571D02*
X144031009Y-101688095D01*
X144031009Y-101688095D02*
X143983390Y-101592857D01*
X143983390Y-101592857D02*
X143935771Y-101545238D01*
X143935771Y-101545238D02*
X143840533Y-101497619D01*
X143840533Y-101497619D02*
X143745295Y-101497619D01*
X143745295Y-101497619D02*
X143650057Y-101545238D01*
X143650057Y-101545238D02*
X143602438Y-101592857D01*
X143602438Y-101592857D02*
X143554819Y-101688095D01*
X143554819Y-101688095D02*
X143554819Y-101926190D01*
X143554819Y-101926190D02*
X143602438Y-102069047D01*
X143554819Y-102354762D02*
X143554819Y-102926190D01*
X144554819Y-102640476D02*
X143554819Y-102640476D01*
X144031009Y-103259524D02*
X144031009Y-103592857D01*
X144554819Y-103735714D02*
X144554819Y-103259524D01*
X144554819Y-103259524D02*
X143554819Y-103259524D01*
X143554819Y-103259524D02*
X143554819Y-103735714D01*
X144554819Y-104164286D02*
X143554819Y-104164286D01*
X143554819Y-104164286D02*
X143554819Y-104545238D01*
X143554819Y-104545238D02*
X143602438Y-104640476D01*
X143602438Y-104640476D02*
X143650057Y-104688095D01*
X143650057Y-104688095D02*
X143745295Y-104735714D01*
X143745295Y-104735714D02*
X143888152Y-104735714D01*
X143888152Y-104735714D02*
X143983390Y-104688095D01*
X143983390Y-104688095D02*
X144031009Y-104640476D01*
X144031009Y-104640476D02*
X144078628Y-104545238D01*
X144078628Y-104545238D02*
X144078628Y-104164286D01*
X144459580Y-105164286D02*
X144507200Y-105211905D01*
X144507200Y-105211905D02*
X144554819Y-105164286D01*
X144554819Y-105164286D02*
X144507200Y-105116667D01*
X144507200Y-105116667D02*
X144459580Y-105164286D01*
X144459580Y-105164286D02*
X144554819Y-105164286D01*
X143935771Y-105164286D02*
X143983390Y-105211905D01*
X143983390Y-105211905D02*
X144031009Y-105164286D01*
X144031009Y-105164286D02*
X143983390Y-105116667D01*
X143983390Y-105116667D02*
X143935771Y-105164286D01*
X143935771Y-105164286D02*
X144031009Y-105164286D01*
X143602438Y-106926190D02*
X143554819Y-106830952D01*
X143554819Y-106830952D02*
X143554819Y-106688095D01*
X143554819Y-106688095D02*
X143602438Y-106545238D01*
X143602438Y-106545238D02*
X143697676Y-106450000D01*
X143697676Y-106450000D02*
X143792914Y-106402381D01*
X143792914Y-106402381D02*
X143983390Y-106354762D01*
X143983390Y-106354762D02*
X144126247Y-106354762D01*
X144126247Y-106354762D02*
X144316723Y-106402381D01*
X144316723Y-106402381D02*
X144411961Y-106450000D01*
X144411961Y-106450000D02*
X144507200Y-106545238D01*
X144507200Y-106545238D02*
X144554819Y-106688095D01*
X144554819Y-106688095D02*
X144554819Y-106783333D01*
X144554819Y-106783333D02*
X144507200Y-106926190D01*
X144507200Y-106926190D02*
X144459580Y-106973809D01*
X144459580Y-106973809D02*
X144126247Y-106973809D01*
X144126247Y-106973809D02*
X144126247Y-106783333D01*
X144554819Y-107402381D02*
X143554819Y-107402381D01*
X143554819Y-107402381D02*
X143554819Y-107783333D01*
X143554819Y-107783333D02*
X143602438Y-107878571D01*
X143602438Y-107878571D02*
X143650057Y-107926190D01*
X143650057Y-107926190D02*
X143745295Y-107973809D01*
X143745295Y-107973809D02*
X143888152Y-107973809D01*
X143888152Y-107973809D02*
X143983390Y-107926190D01*
X143983390Y-107926190D02*
X144031009Y-107878571D01*
X144031009Y-107878571D02*
X144078628Y-107783333D01*
X144078628Y-107783333D02*
X144078628Y-107402381D01*
X144554819Y-108402381D02*
X143554819Y-108402381D01*
X143554819Y-109069047D02*
X143554819Y-109259523D01*
X143554819Y-109259523D02*
X143602438Y-109354761D01*
X143602438Y-109354761D02*
X143697676Y-109449999D01*
X143697676Y-109449999D02*
X143888152Y-109497618D01*
X143888152Y-109497618D02*
X144221485Y-109497618D01*
X144221485Y-109497618D02*
X144411961Y-109449999D01*
X144411961Y-109449999D02*
X144507200Y-109354761D01*
X144507200Y-109354761D02*
X144554819Y-109259523D01*
X144554819Y-109259523D02*
X144554819Y-109069047D01*
X144554819Y-109069047D02*
X144507200Y-108973809D01*
X144507200Y-108973809D02*
X144411961Y-108878571D01*
X144411961Y-108878571D02*
X144221485Y-108830952D01*
X144221485Y-108830952D02*
X143888152Y-108830952D01*
X143888152Y-108830952D02*
X143697676Y-108878571D01*
X143697676Y-108878571D02*
X143602438Y-108973809D01*
X143602438Y-108973809D02*
X143554819Y-109069047D01*
X144554819Y-110449999D02*
X144554819Y-109878571D01*
X144554819Y-110164285D02*
X143554819Y-110164285D01*
X143554819Y-110164285D02*
X143697676Y-110069047D01*
X143697676Y-110069047D02*
X143792914Y-109973809D01*
X143792914Y-109973809D02*
X143840533Y-109878571D01*
X143554819Y-111354761D02*
X143554819Y-110878571D01*
X143554819Y-110878571D02*
X144031009Y-110830952D01*
X144031009Y-110830952D02*
X143983390Y-110878571D01*
X143983390Y-110878571D02*
X143935771Y-110973809D01*
X143935771Y-110973809D02*
X143935771Y-111211904D01*
X143935771Y-111211904D02*
X143983390Y-111307142D01*
X143983390Y-111307142D02*
X144031009Y-111354761D01*
X144031009Y-111354761D02*
X144126247Y-111402380D01*
X144126247Y-111402380D02*
X144364342Y-111402380D01*
X144364342Y-111402380D02*
X144459580Y-111354761D01*
X144459580Y-111354761D02*
X144507200Y-111307142D01*
X144507200Y-111307142D02*
X144554819Y-111211904D01*
X144554819Y-111211904D02*
X144554819Y-110973809D01*
X144554819Y-110973809D02*
X144507200Y-110878571D01*
X144507200Y-110878571D02*
X144459580Y-110830952D01*
X147057200Y-101476191D02*
X147104819Y-101619048D01*
X147104819Y-101619048D02*
X147104819Y-101857143D01*
X147104819Y-101857143D02*
X147057200Y-101952381D01*
X147057200Y-101952381D02*
X147009580Y-102000000D01*
X147009580Y-102000000D02*
X146914342Y-102047619D01*
X146914342Y-102047619D02*
X146819104Y-102047619D01*
X146819104Y-102047619D02*
X146723866Y-102000000D01*
X146723866Y-102000000D02*
X146676247Y-101952381D01*
X146676247Y-101952381D02*
X146628628Y-101857143D01*
X146628628Y-101857143D02*
X146581009Y-101666667D01*
X146581009Y-101666667D02*
X146533390Y-101571429D01*
X146533390Y-101571429D02*
X146485771Y-101523810D01*
X146485771Y-101523810D02*
X146390533Y-101476191D01*
X146390533Y-101476191D02*
X146295295Y-101476191D01*
X146295295Y-101476191D02*
X146200057Y-101523810D01*
X146200057Y-101523810D02*
X146152438Y-101571429D01*
X146152438Y-101571429D02*
X146104819Y-101666667D01*
X146104819Y-101666667D02*
X146104819Y-101904762D01*
X146104819Y-101904762D02*
X146152438Y-102047619D01*
X147104819Y-102952381D02*
X147104819Y-102476191D01*
X147104819Y-102476191D02*
X146104819Y-102476191D01*
X147104819Y-103285715D02*
X146104819Y-103285715D01*
X146104819Y-103285715D02*
X146104819Y-103666667D01*
X146104819Y-103666667D02*
X146152438Y-103761905D01*
X146152438Y-103761905D02*
X146200057Y-103809524D01*
X146200057Y-103809524D02*
X146295295Y-103857143D01*
X146295295Y-103857143D02*
X146438152Y-103857143D01*
X146438152Y-103857143D02*
X146533390Y-103809524D01*
X146533390Y-103809524D02*
X146581009Y-103761905D01*
X146581009Y-103761905D02*
X146628628Y-103666667D01*
X146628628Y-103666667D02*
X146628628Y-103285715D01*
X147009580Y-104285715D02*
X147057200Y-104333334D01*
X147057200Y-104333334D02*
X147104819Y-104285715D01*
X147104819Y-104285715D02*
X147057200Y-104238096D01*
X147057200Y-104238096D02*
X147009580Y-104285715D01*
X147009580Y-104285715D02*
X147104819Y-104285715D01*
X146485771Y-104285715D02*
X146533390Y-104333334D01*
X146533390Y-104333334D02*
X146581009Y-104285715D01*
X146581009Y-104285715D02*
X146533390Y-104238096D01*
X146533390Y-104238096D02*
X146485771Y-104285715D01*
X146485771Y-104285715D02*
X146581009Y-104285715D01*
X146152438Y-106047619D02*
X146104819Y-105952381D01*
X146104819Y-105952381D02*
X146104819Y-105809524D01*
X146104819Y-105809524D02*
X146152438Y-105666667D01*
X146152438Y-105666667D02*
X146247676Y-105571429D01*
X146247676Y-105571429D02*
X146342914Y-105523810D01*
X146342914Y-105523810D02*
X146533390Y-105476191D01*
X146533390Y-105476191D02*
X146676247Y-105476191D01*
X146676247Y-105476191D02*
X146866723Y-105523810D01*
X146866723Y-105523810D02*
X146961961Y-105571429D01*
X146961961Y-105571429D02*
X147057200Y-105666667D01*
X147057200Y-105666667D02*
X147104819Y-105809524D01*
X147104819Y-105809524D02*
X147104819Y-105904762D01*
X147104819Y-105904762D02*
X147057200Y-106047619D01*
X147057200Y-106047619D02*
X147009580Y-106095238D01*
X147009580Y-106095238D02*
X146676247Y-106095238D01*
X146676247Y-106095238D02*
X146676247Y-105904762D01*
X147104819Y-106523810D02*
X146104819Y-106523810D01*
X146104819Y-106523810D02*
X146104819Y-106904762D01*
X146104819Y-106904762D02*
X146152438Y-107000000D01*
X146152438Y-107000000D02*
X146200057Y-107047619D01*
X146200057Y-107047619D02*
X146295295Y-107095238D01*
X146295295Y-107095238D02*
X146438152Y-107095238D01*
X146438152Y-107095238D02*
X146533390Y-107047619D01*
X146533390Y-107047619D02*
X146581009Y-107000000D01*
X146581009Y-107000000D02*
X146628628Y-106904762D01*
X146628628Y-106904762D02*
X146628628Y-106523810D01*
X147104819Y-107523810D02*
X146104819Y-107523810D01*
X146104819Y-108190476D02*
X146104819Y-108380952D01*
X146104819Y-108380952D02*
X146152438Y-108476190D01*
X146152438Y-108476190D02*
X146247676Y-108571428D01*
X146247676Y-108571428D02*
X146438152Y-108619047D01*
X146438152Y-108619047D02*
X146771485Y-108619047D01*
X146771485Y-108619047D02*
X146961961Y-108571428D01*
X146961961Y-108571428D02*
X147057200Y-108476190D01*
X147057200Y-108476190D02*
X147104819Y-108380952D01*
X147104819Y-108380952D02*
X147104819Y-108190476D01*
X147104819Y-108190476D02*
X147057200Y-108095238D01*
X147057200Y-108095238D02*
X146961961Y-108000000D01*
X146961961Y-108000000D02*
X146771485Y-107952381D01*
X146771485Y-107952381D02*
X146438152Y-107952381D01*
X146438152Y-107952381D02*
X146247676Y-108000000D01*
X146247676Y-108000000D02*
X146152438Y-108095238D01*
X146152438Y-108095238D02*
X146104819Y-108190476D01*
X147104819Y-109571428D02*
X147104819Y-109000000D01*
X147104819Y-109285714D02*
X146104819Y-109285714D01*
X146104819Y-109285714D02*
X146247676Y-109190476D01*
X146247676Y-109190476D02*
X146342914Y-109095238D01*
X146342914Y-109095238D02*
X146390533Y-109000000D01*
X146438152Y-110428571D02*
X147104819Y-110428571D01*
X146057200Y-110190476D02*
X146771485Y-109952381D01*
X146771485Y-109952381D02*
X146771485Y-110571428D01*
X186179819Y-55116666D02*
X186894104Y-55116666D01*
X186894104Y-55116666D02*
X187036961Y-55069047D01*
X187036961Y-55069047D02*
X187132200Y-54973809D01*
X187132200Y-54973809D02*
X187179819Y-54830952D01*
X187179819Y-54830952D02*
X187179819Y-54735714D01*
X186275057Y-55545238D02*
X186227438Y-55592857D01*
X186227438Y-55592857D02*
X186179819Y-55688095D01*
X186179819Y-55688095D02*
X186179819Y-55926190D01*
X186179819Y-55926190D02*
X186227438Y-56021428D01*
X186227438Y-56021428D02*
X186275057Y-56069047D01*
X186275057Y-56069047D02*
X186370295Y-56116666D01*
X186370295Y-56116666D02*
X186465533Y-56116666D01*
X186465533Y-56116666D02*
X186608390Y-56069047D01*
X186608390Y-56069047D02*
X187179819Y-55497619D01*
X187179819Y-55497619D02*
X187179819Y-56116666D01*
X132354819Y-89853332D02*
X133069104Y-89853332D01*
X133069104Y-89853332D02*
X133211961Y-89805713D01*
X133211961Y-89805713D02*
X133307200Y-89710475D01*
X133307200Y-89710475D02*
X133354819Y-89567618D01*
X133354819Y-89567618D02*
X133354819Y-89472380D01*
X132688152Y-90758094D02*
X133354819Y-90758094D01*
X132307200Y-90519999D02*
X133021485Y-90281904D01*
X133021485Y-90281904D02*
X133021485Y-90900951D01*
X186179819Y-96366666D02*
X186894104Y-96366666D01*
X186894104Y-96366666D02*
X187036961Y-96319047D01*
X187036961Y-96319047D02*
X187132200Y-96223809D01*
X187132200Y-96223809D02*
X187179819Y-96080952D01*
X187179819Y-96080952D02*
X187179819Y-95985714D01*
X186608390Y-96985714D02*
X186560771Y-96890476D01*
X186560771Y-96890476D02*
X186513152Y-96842857D01*
X186513152Y-96842857D02*
X186417914Y-96795238D01*
X186417914Y-96795238D02*
X186370295Y-96795238D01*
X186370295Y-96795238D02*
X186275057Y-96842857D01*
X186275057Y-96842857D02*
X186227438Y-96890476D01*
X186227438Y-96890476D02*
X186179819Y-96985714D01*
X186179819Y-96985714D02*
X186179819Y-97176190D01*
X186179819Y-97176190D02*
X186227438Y-97271428D01*
X186227438Y-97271428D02*
X186275057Y-97319047D01*
X186275057Y-97319047D02*
X186370295Y-97366666D01*
X186370295Y-97366666D02*
X186417914Y-97366666D01*
X186417914Y-97366666D02*
X186513152Y-97319047D01*
X186513152Y-97319047D02*
X186560771Y-97271428D01*
X186560771Y-97271428D02*
X186608390Y-97176190D01*
X186608390Y-97176190D02*
X186608390Y-96985714D01*
X186608390Y-96985714D02*
X186656009Y-96890476D01*
X186656009Y-96890476D02*
X186703628Y-96842857D01*
X186703628Y-96842857D02*
X186798866Y-96795238D01*
X186798866Y-96795238D02*
X186989342Y-96795238D01*
X186989342Y-96795238D02*
X187084580Y-96842857D01*
X187084580Y-96842857D02*
X187132200Y-96890476D01*
X187132200Y-96890476D02*
X187179819Y-96985714D01*
X187179819Y-96985714D02*
X187179819Y-97176190D01*
X187179819Y-97176190D02*
X187132200Y-97271428D01*
X187132200Y-97271428D02*
X187084580Y-97319047D01*
X187084580Y-97319047D02*
X186989342Y-97366666D01*
X186989342Y-97366666D02*
X186798866Y-97366666D01*
X186798866Y-97366666D02*
X186703628Y-97319047D01*
X186703628Y-97319047D02*
X186656009Y-97271428D01*
X186656009Y-97271428D02*
X186608390Y-97176190D01*
%LPC*%
D11*
%TO.C,C4*%
X157460000Y-91369046D03*
D12*
X157460000Y-88869046D03*
%TD*%
D13*
%TO.C,U2*%
X173290000Y-109050000D03*
D14*
X170750000Y-109050000D03*
X168210000Y-109050000D03*
%TD*%
D15*
%TO.C,J1*%
X135650000Y-54110000D03*
D16*
X135650000Y-56610000D03*
X135650000Y-59110000D03*
X135650000Y-61610000D03*
%TD*%
D17*
%TO.C,J7*%
X180200000Y-108950000D03*
D18*
X183000000Y-104350000D03*
D17*
X186300000Y-108950000D03*
%TD*%
D15*
%TO.C,J5*%
X135650000Y-70273333D03*
D16*
X135650000Y-72773333D03*
X135650000Y-75273333D03*
X135650000Y-77773333D03*
%TD*%
D11*
%TO.C,A2*%
X141560000Y-80363333D03*
D19*
X144100000Y-80363333D03*
X146640000Y-80363333D03*
X149180000Y-80363333D03*
X151720000Y-80363333D03*
X154260000Y-80363333D03*
X156800000Y-80363333D03*
X159340000Y-80363333D03*
X159340000Y-67663333D03*
X156800000Y-67663333D03*
X154260000Y-67663333D03*
X151720000Y-67663333D03*
X149180000Y-67663333D03*
X146640000Y-67663333D03*
X144100000Y-67663333D03*
X141560000Y-67663333D03*
%TD*%
D11*
%TO.C,C3*%
X157460000Y-107532380D03*
D12*
X157460000Y-105032380D03*
%TD*%
D15*
%TO.C,J6*%
X135650000Y-102600000D03*
D16*
X135650000Y-105100000D03*
X135650000Y-107600000D03*
X135650000Y-110100000D03*
%TD*%
D19*
%TO.C,A1*%
X141560000Y-51500000D03*
X144100000Y-51500000D03*
X146640000Y-51500000D03*
X149180000Y-51500000D03*
X151720000Y-51500000D03*
X154260000Y-51500000D03*
X156800000Y-51500000D03*
X159340000Y-51500000D03*
X159340000Y-64200000D03*
X156800000Y-64200000D03*
X154260000Y-64200000D03*
X151720000Y-64200000D03*
X149180000Y-64200000D03*
X146640000Y-64200000D03*
X144100000Y-64200000D03*
D11*
X141560000Y-64200000D03*
%TD*%
%TO.C,C2*%
X157460000Y-75205713D03*
D12*
X157460000Y-72705713D03*
%TD*%
D11*
%TO.C,A3*%
X141560000Y-96526666D03*
D19*
X144100000Y-96526666D03*
X146640000Y-96526666D03*
X149180000Y-96526666D03*
X151720000Y-96526666D03*
X154260000Y-96526666D03*
X156800000Y-96526666D03*
X159340000Y-96526666D03*
X159340000Y-83826666D03*
X156800000Y-83826666D03*
X154260000Y-83826666D03*
X151720000Y-83826666D03*
X149180000Y-83826666D03*
X146640000Y-83826666D03*
X144100000Y-83826666D03*
X141560000Y-83826666D03*
%TD*%
D20*
%TO.C,U1*%
X171215000Y-52060000D03*
D21*
X171515000Y-55090000D03*
X176365000Y-55090000D03*
D20*
X176665000Y-52060000D03*
D22*
X165050000Y-51930000D03*
X165050000Y-54470000D03*
D23*
X165050000Y-57010000D03*
D22*
X165050000Y-59550000D03*
X165050000Y-62090000D03*
X165050000Y-64630000D03*
X165050000Y-67170000D03*
D23*
X165050000Y-69710000D03*
D22*
X165050000Y-72250000D03*
X165050000Y-74790000D03*
X165050000Y-77330000D03*
X165050000Y-79870000D03*
D23*
X165050000Y-82410000D03*
D22*
X165050000Y-84950000D03*
X165050000Y-87490000D03*
X165050000Y-90030000D03*
X165050000Y-92570000D03*
D23*
X165050000Y-95110000D03*
D22*
X165050000Y-97650000D03*
X165050000Y-100190000D03*
X182830000Y-100190000D03*
X182830000Y-97650000D03*
D23*
X182830000Y-95110000D03*
D22*
X182830000Y-92570000D03*
X182830000Y-90030000D03*
X182830000Y-87490000D03*
X182830000Y-84950000D03*
D23*
X182830000Y-82410000D03*
D22*
X182830000Y-79870000D03*
X182830000Y-77330000D03*
X182830000Y-74790000D03*
X182830000Y-72250000D03*
D23*
X182830000Y-69710000D03*
D22*
X182830000Y-67170000D03*
X182830000Y-64630000D03*
X182830000Y-62090000D03*
X182830000Y-59550000D03*
D23*
X182830000Y-57010000D03*
D22*
X182830000Y-54470000D03*
X182830000Y-51930000D03*
X171400000Y-99960000D03*
D23*
X173940000Y-99960000D03*
D22*
X176480000Y-99960000D03*
%TD*%
D23*
%TO.C,J3*%
X191550000Y-63350000D03*
D22*
X191550000Y-65890000D03*
X191550000Y-68430000D03*
X191550000Y-70970000D03*
X191550000Y-73510000D03*
X191550000Y-76050000D03*
X191550000Y-78590000D03*
X191550000Y-81130000D03*
X191550000Y-83670000D03*
X191550000Y-86210000D03*
X191550000Y-88750000D03*
%TD*%
D11*
%TO.C,A4*%
X141560000Y-112690000D03*
D19*
X144100000Y-112690000D03*
X146640000Y-112690000D03*
X149180000Y-112690000D03*
X151720000Y-112690000D03*
X154260000Y-112690000D03*
X156800000Y-112690000D03*
X159340000Y-112690000D03*
X159340000Y-99990000D03*
X156800000Y-99990000D03*
X154260000Y-99990000D03*
X151720000Y-99990000D03*
X149180000Y-99990000D03*
X146640000Y-99990000D03*
X144100000Y-99990000D03*
X141560000Y-99990000D03*
%TD*%
D15*
%TO.C,J2*%
X189475000Y-52950000D03*
D16*
X189475000Y-55450000D03*
X189475000Y-57950000D03*
%TD*%
D15*
%TO.C,J4*%
X135650000Y-86436666D03*
D16*
X135650000Y-88936666D03*
X135650000Y-91436666D03*
X135650000Y-93936666D03*
%TD*%
%TO.C,J8*%
X189475000Y-99200000D03*
X189475000Y-96700000D03*
D15*
X189475000Y-94200000D03*
%TD*%
D11*
%TO.C,C1*%
X157460000Y-59042380D03*
D12*
X157460000Y-56542380D03*
%TD*%
%LPD*%
M02*
