%TF.GenerationSoftware,KiCad,Pcbnew,7.0.7*%
%TF.CreationDate,2023-10-17T10:27:27-07:00*%
%TF.ProjectId,dev-board,6465762d-626f-4617-9264-2e6b69636164,rev?*%
%TF.SameCoordinates,Original*%
%TF.FileFunction,Drillmap*%
%TF.FilePolarity,Positive*%
%FSLAX45Y45*%
G04 Gerber Fmt 4.5, Leading zero omitted, Abs format (unit mm)*
G04 Created by KiCad (PCBNEW 7.0.7) date 2023-10-17 10:27:27*
%MOMM*%
%LPD*%
G01*
G04 APERTURE LIST*
%ADD10C,0.100000*%
%ADD11C,0.200000*%
%ADD12C,0.040000*%
%ADD13C,0.080000*%
%ADD14C,0.095000*%
%ADD15C,0.102000*%
%ADD16C,0.110000*%
G04 APERTURE END LIST*
D10*
X19460000Y-5080000D02*
X19460000Y-11295000D01*
X12965000Y-11295000D02*
G75*
G03*
X13165000Y-11495000I200000J0D01*
G01*
X13165000Y-4880000D02*
G75*
G03*
X12965000Y-5080000I0J-200000D01*
G01*
X19260000Y-11495000D02*
G75*
G03*
X19460000Y-11295000I0J200000D01*
G01*
X13165000Y-4880000D02*
X19260000Y-4880000D01*
X12965000Y-11295000D02*
X12965000Y-5080000D01*
X19260000Y-11495000D02*
X13165000Y-11495000D01*
X19460000Y-5080000D02*
G75*
G03*
X19260000Y-4880000I-200000J0D01*
G01*
D11*
D12*
X13260000Y-6575000D02*
X13300000Y-6615000D01*
X13300000Y-6575000D02*
X13260000Y-6615000D01*
X13260000Y-8190000D02*
X13300000Y-8230000D01*
X13300000Y-8190000D02*
X13260000Y-8230000D01*
X13260000Y-9810000D02*
X13300000Y-9850000D01*
X13300000Y-9810000D02*
X13260000Y-9850000D01*
X13755000Y-6575000D02*
X13795000Y-6615000D01*
X13795000Y-6575000D02*
X13755000Y-6615000D01*
X13755000Y-8190000D02*
X13795000Y-8230000D01*
X13795000Y-8190000D02*
X13755000Y-8230000D01*
X13755000Y-9810000D02*
X13795000Y-9850000D01*
X13795000Y-9810000D02*
X13755000Y-9850000D01*
X14295000Y-6980000D02*
X14335000Y-7020000D01*
X14335000Y-6980000D02*
X14295000Y-7020000D01*
X14300000Y-8600000D02*
X14340000Y-8640000D01*
X14340000Y-8600000D02*
X14300000Y-8640000D01*
X14305000Y-5365000D02*
X14345000Y-5405000D01*
X14345000Y-5365000D02*
X14305000Y-5405000D01*
X14305000Y-10220000D02*
X14345000Y-10260000D01*
X14345000Y-10220000D02*
X14305000Y-10260000D01*
X15140000Y-7065000D02*
X15180000Y-7105000D01*
X15180000Y-7065000D02*
X15140000Y-7105000D01*
X15140000Y-8965000D02*
X15180000Y-9005000D01*
X15180000Y-8965000D02*
X15140000Y-9005000D01*
X15145000Y-5415000D02*
X15185000Y-5455000D01*
X15185000Y-5415000D02*
X15145000Y-5455000D01*
X15280000Y-10590000D02*
X15320000Y-10630000D01*
X15320000Y-10590000D02*
X15280000Y-10630000D01*
X15395000Y-7120000D02*
X15435000Y-7160000D01*
X15435000Y-7120000D02*
X15395000Y-7160000D01*
X15405000Y-5515000D02*
X15445000Y-5555000D01*
X15445000Y-5515000D02*
X15405000Y-5555000D01*
X15415000Y-8870000D02*
X15455000Y-8910000D01*
X15455000Y-8870000D02*
X15415000Y-8910000D01*
X15480000Y-10855000D02*
X15520000Y-10895000D01*
X15520000Y-10855000D02*
X15480000Y-10895000D01*
X15490000Y-10355000D02*
X15530000Y-10395000D01*
X15530000Y-10355000D02*
X15490000Y-10395000D01*
X15675000Y-7080000D02*
X15715000Y-7120000D01*
X15715000Y-7080000D02*
X15675000Y-7120000D01*
X15755000Y-6215000D02*
X15795000Y-6255000D01*
X15795000Y-6215000D02*
X15755000Y-6255000D01*
X15765000Y-7820000D02*
X15805000Y-7860000D01*
X15805000Y-7820000D02*
X15765000Y-7860000D01*
X15800000Y-9420000D02*
X15840000Y-9460000D01*
X15840000Y-9420000D02*
X15800000Y-9460000D01*
X15915000Y-11060000D02*
X15955000Y-11100000D01*
X15955000Y-11060000D02*
X15915000Y-11100000D01*
X15935000Y-8920000D02*
X15975000Y-8960000D01*
X15975000Y-8920000D02*
X15935000Y-8960000D01*
X15945000Y-5670000D02*
X15985000Y-5710000D01*
X15985000Y-5670000D02*
X15945000Y-5710000D01*
X16380000Y-10380000D02*
X16420000Y-10420000D01*
X16420000Y-10380000D02*
X16380000Y-10420000D01*
X16405000Y-10875000D02*
X16445000Y-10915000D01*
X16445000Y-10875000D02*
X16405000Y-10915000D01*
X16725000Y-6325000D02*
X16765000Y-6365000D01*
X16765000Y-6325000D02*
X16725000Y-6365000D01*
X16745000Y-5305000D02*
X16785000Y-5345000D01*
X16785000Y-5305000D02*
X16745000Y-5345000D01*
X16745000Y-5805000D02*
X16785000Y-5845000D01*
X16785000Y-5805000D02*
X16745000Y-5845000D01*
X16745000Y-7325000D02*
X16785000Y-7365000D01*
X16785000Y-7325000D02*
X16745000Y-7365000D01*
X16755000Y-6830000D02*
X16795000Y-6870000D01*
X16795000Y-6830000D02*
X16755000Y-6870000D01*
X16765000Y-7835000D02*
X16805000Y-7875000D01*
X16805000Y-7835000D02*
X16765000Y-7875000D01*
X16801000Y-9506000D02*
X16841000Y-9546000D01*
X16841000Y-9506000D02*
X16801000Y-9546000D01*
X16935000Y-8140000D02*
X16975000Y-8180000D01*
X16975000Y-8140000D02*
X16935000Y-8180000D01*
X17045000Y-10375000D02*
X17085000Y-10415000D01*
X17085000Y-10375000D02*
X17045000Y-10415000D01*
X17050000Y-9150000D02*
X17090000Y-9190000D01*
X17090000Y-9150000D02*
X17050000Y-9190000D01*
X17075000Y-9590000D02*
X17115000Y-9630000D01*
X17115000Y-9590000D02*
X17075000Y-9630000D01*
X17115000Y-8615000D02*
X17155000Y-8655000D01*
X17155000Y-8615000D02*
X17115000Y-8655000D01*
X17225000Y-7815000D02*
X17265000Y-7855000D01*
X17265000Y-7815000D02*
X17225000Y-7855000D01*
X17365000Y-8300000D02*
X17405000Y-8340000D01*
X17405000Y-8300000D02*
X17365000Y-8340000D01*
X17545000Y-7465000D02*
X17585000Y-7505000D01*
X17585000Y-7465000D02*
X17545000Y-7505000D01*
X17565000Y-6200000D02*
X17605000Y-6240000D01*
X17605000Y-6200000D02*
X17565000Y-6240000D01*
X17570000Y-6670000D02*
X17610000Y-6710000D01*
X17610000Y-6670000D02*
X17570000Y-6710000D01*
X17570000Y-7100000D02*
X17610000Y-7140000D01*
X17610000Y-7100000D02*
X17570000Y-7140000D01*
X17580000Y-5765000D02*
X17620000Y-5805000D01*
X17620000Y-5765000D02*
X17580000Y-5805000D01*
X17645000Y-9610000D02*
X17685000Y-9650000D01*
X17685000Y-9610000D02*
X17645000Y-9650000D01*
X17670000Y-8010000D02*
X17710000Y-8050000D01*
X17710000Y-8010000D02*
X17670000Y-8050000D01*
X17775000Y-10525000D02*
X17815000Y-10565000D01*
X17815000Y-10525000D02*
X17775000Y-10565000D01*
X17785000Y-6965000D02*
X17825000Y-7005000D01*
X17825000Y-6965000D02*
X17785000Y-7005000D01*
X17970000Y-8850000D02*
X18010000Y-8890000D01*
X18010000Y-8850000D02*
X17970000Y-8890000D01*
X17975000Y-9355000D02*
X18015000Y-9395000D01*
X18015000Y-9355000D02*
X17975000Y-9395000D01*
X17980000Y-7840000D02*
X18020000Y-7880000D01*
X18020000Y-7840000D02*
X17980000Y-7880000D01*
X17985000Y-6325000D02*
X18025000Y-6365000D01*
X18025000Y-6325000D02*
X17985000Y-6365000D01*
X17990000Y-6815000D02*
X18030000Y-6855000D01*
X18030000Y-6815000D02*
X17990000Y-6855000D01*
X17990000Y-7335000D02*
X18030000Y-7375000D01*
X18030000Y-7335000D02*
X17990000Y-7375000D01*
X17990000Y-8340000D02*
X18030000Y-8380000D01*
X18030000Y-8340000D02*
X17990000Y-8380000D01*
X18005000Y-5820000D02*
X18045000Y-5860000D01*
X18045000Y-5820000D02*
X18005000Y-5860000D01*
X18790000Y-6445000D02*
X18830000Y-6485000D01*
X18830000Y-6445000D02*
X18790000Y-6485000D01*
D13*
X14196000Y-5150000D02*
G75*
G03*
X14196000Y-5150000I-40000J0D01*
G01*
X14196000Y-6420000D02*
G75*
G03*
X14196000Y-6420000I-40000J0D01*
G01*
X14196000Y-6766333D02*
G75*
G03*
X14196000Y-6766333I-40000J0D01*
G01*
X14196000Y-8036333D02*
G75*
G03*
X14196000Y-8036333I-40000J0D01*
G01*
X14196000Y-8382667D02*
G75*
G03*
X14196000Y-8382667I-40000J0D01*
G01*
X14196000Y-9652667D02*
G75*
G03*
X14196000Y-9652667I-40000J0D01*
G01*
X14196000Y-9999000D02*
G75*
G03*
X14196000Y-9999000I-40000J0D01*
G01*
X14196000Y-11269000D02*
G75*
G03*
X14196000Y-11269000I-40000J0D01*
G01*
X14450000Y-5150000D02*
G75*
G03*
X14450000Y-5150000I-40000J0D01*
G01*
X14450000Y-6420000D02*
G75*
G03*
X14450000Y-6420000I-40000J0D01*
G01*
X14450000Y-6766333D02*
G75*
G03*
X14450000Y-6766333I-40000J0D01*
G01*
X14450000Y-8036333D02*
G75*
G03*
X14450000Y-8036333I-40000J0D01*
G01*
X14450000Y-8382667D02*
G75*
G03*
X14450000Y-8382667I-40000J0D01*
G01*
X14450000Y-9652667D02*
G75*
G03*
X14450000Y-9652667I-40000J0D01*
G01*
X14450000Y-9999000D02*
G75*
G03*
X14450000Y-9999000I-40000J0D01*
G01*
X14450000Y-11269000D02*
G75*
G03*
X14450000Y-11269000I-40000J0D01*
G01*
X14704000Y-5150000D02*
G75*
G03*
X14704000Y-5150000I-40000J0D01*
G01*
X14704000Y-6420000D02*
G75*
G03*
X14704000Y-6420000I-40000J0D01*
G01*
X14704000Y-6766333D02*
G75*
G03*
X14704000Y-6766333I-40000J0D01*
G01*
X14704000Y-8036333D02*
G75*
G03*
X14704000Y-8036333I-40000J0D01*
G01*
X14704000Y-8382667D02*
G75*
G03*
X14704000Y-8382667I-40000J0D01*
G01*
X14704000Y-9652667D02*
G75*
G03*
X14704000Y-9652667I-40000J0D01*
G01*
X14704000Y-9999000D02*
G75*
G03*
X14704000Y-9999000I-40000J0D01*
G01*
X14704000Y-11269000D02*
G75*
G03*
X14704000Y-11269000I-40000J0D01*
G01*
X14958000Y-5150000D02*
G75*
G03*
X14958000Y-5150000I-40000J0D01*
G01*
X14958000Y-6420000D02*
G75*
G03*
X14958000Y-6420000I-40000J0D01*
G01*
X14958000Y-6766333D02*
G75*
G03*
X14958000Y-6766333I-40000J0D01*
G01*
X14958000Y-8036333D02*
G75*
G03*
X14958000Y-8036333I-40000J0D01*
G01*
X14958000Y-8382667D02*
G75*
G03*
X14958000Y-8382667I-40000J0D01*
G01*
X14958000Y-9652667D02*
G75*
G03*
X14958000Y-9652667I-40000J0D01*
G01*
X14958000Y-9999000D02*
G75*
G03*
X14958000Y-9999000I-40000J0D01*
G01*
X14958000Y-11269000D02*
G75*
G03*
X14958000Y-11269000I-40000J0D01*
G01*
X15212000Y-5150000D02*
G75*
G03*
X15212000Y-5150000I-40000J0D01*
G01*
X15212000Y-6420000D02*
G75*
G03*
X15212000Y-6420000I-40000J0D01*
G01*
X15212000Y-6766333D02*
G75*
G03*
X15212000Y-6766333I-40000J0D01*
G01*
X15212000Y-8036333D02*
G75*
G03*
X15212000Y-8036333I-40000J0D01*
G01*
X15212000Y-8382667D02*
G75*
G03*
X15212000Y-8382667I-40000J0D01*
G01*
X15212000Y-9652667D02*
G75*
G03*
X15212000Y-9652667I-40000J0D01*
G01*
X15212000Y-9999000D02*
G75*
G03*
X15212000Y-9999000I-40000J0D01*
G01*
X15212000Y-11269000D02*
G75*
G03*
X15212000Y-11269000I-40000J0D01*
G01*
X15466000Y-5150000D02*
G75*
G03*
X15466000Y-5150000I-40000J0D01*
G01*
X15466000Y-6420000D02*
G75*
G03*
X15466000Y-6420000I-40000J0D01*
G01*
X15466000Y-6766333D02*
G75*
G03*
X15466000Y-6766333I-40000J0D01*
G01*
X15466000Y-8036333D02*
G75*
G03*
X15466000Y-8036333I-40000J0D01*
G01*
X15466000Y-8382667D02*
G75*
G03*
X15466000Y-8382667I-40000J0D01*
G01*
X15466000Y-9652667D02*
G75*
G03*
X15466000Y-9652667I-40000J0D01*
G01*
X15466000Y-9999000D02*
G75*
G03*
X15466000Y-9999000I-40000J0D01*
G01*
X15466000Y-11269000D02*
G75*
G03*
X15466000Y-11269000I-40000J0D01*
G01*
X15720000Y-5150000D02*
G75*
G03*
X15720000Y-5150000I-40000J0D01*
G01*
X15720000Y-6420000D02*
G75*
G03*
X15720000Y-6420000I-40000J0D01*
G01*
X15720000Y-6766333D02*
G75*
G03*
X15720000Y-6766333I-40000J0D01*
G01*
X15720000Y-8036333D02*
G75*
G03*
X15720000Y-8036333I-40000J0D01*
G01*
X15720000Y-8382667D02*
G75*
G03*
X15720000Y-8382667I-40000J0D01*
G01*
X15720000Y-9652667D02*
G75*
G03*
X15720000Y-9652667I-40000J0D01*
G01*
X15720000Y-9999000D02*
G75*
G03*
X15720000Y-9999000I-40000J0D01*
G01*
X15720000Y-11269000D02*
G75*
G03*
X15720000Y-11269000I-40000J0D01*
G01*
X15786000Y-5654238D02*
G75*
G03*
X15786000Y-5654238I-40000J0D01*
G01*
X15786000Y-5904238D02*
G75*
G03*
X15786000Y-5904238I-40000J0D01*
G01*
X15786000Y-7270571D02*
G75*
G03*
X15786000Y-7270571I-40000J0D01*
G01*
X15786000Y-7520571D02*
G75*
G03*
X15786000Y-7520571I-40000J0D01*
G01*
X15786000Y-8886905D02*
G75*
G03*
X15786000Y-8886905I-40000J0D01*
G01*
X15786000Y-9136905D02*
G75*
G03*
X15786000Y-9136905I-40000J0D01*
G01*
X15786000Y-10503238D02*
G75*
G03*
X15786000Y-10503238I-40000J0D01*
G01*
X15786000Y-10753238D02*
G75*
G03*
X15786000Y-10753238I-40000J0D01*
G01*
X15974000Y-5150000D02*
G75*
G03*
X15974000Y-5150000I-40000J0D01*
G01*
X15974000Y-6420000D02*
G75*
G03*
X15974000Y-6420000I-40000J0D01*
G01*
X15974000Y-6766333D02*
G75*
G03*
X15974000Y-6766333I-40000J0D01*
G01*
X15974000Y-8036333D02*
G75*
G03*
X15974000Y-8036333I-40000J0D01*
G01*
X15974000Y-8382667D02*
G75*
G03*
X15974000Y-8382667I-40000J0D01*
G01*
X15974000Y-9652667D02*
G75*
G03*
X15974000Y-9652667I-40000J0D01*
G01*
X15974000Y-9999000D02*
G75*
G03*
X15974000Y-9999000I-40000J0D01*
G01*
X15974000Y-11269000D02*
G75*
G03*
X15974000Y-11269000I-40000J0D01*
G01*
X18060000Y-10895000D02*
G75*
G03*
X18060000Y-10895000I-40000J0D01*
G01*
D11*
X18060000Y-11005000D02*
X18060000Y-10785000D01*
X18060000Y-10785000D02*
G75*
G03*
X17980000Y-10785000I-40000J0D01*
G01*
X17980000Y-10785000D02*
X17980000Y-11005000D01*
X17980000Y-11005000D02*
G75*
G03*
X18060000Y-11005000I40000J0D01*
G01*
D13*
X18340000Y-10435000D02*
G75*
G03*
X18340000Y-10435000I-40000J0D01*
G01*
D11*
X18410000Y-10395000D02*
X18190000Y-10395000D01*
X18190000Y-10395000D02*
G75*
G03*
X18190000Y-10475000I0J-40000D01*
G01*
X18190000Y-10475000D02*
X18410000Y-10475000D01*
X18410000Y-10475000D02*
G75*
G03*
X18410000Y-10395000I0J40000D01*
G01*
D13*
X18670000Y-10895000D02*
G75*
G03*
X18670000Y-10895000I-40000J0D01*
G01*
D11*
X18670000Y-11005000D02*
X18670000Y-10785000D01*
X18670000Y-10785000D02*
G75*
G03*
X18590000Y-10785000I-40000J0D01*
G01*
X18590000Y-10785000D02*
X18590000Y-11005000D01*
X18590000Y-11005000D02*
G75*
G03*
X18670000Y-11005000I40000J0D01*
G01*
D14*
X13565000Y-5363500D02*
X13565000Y-5458500D01*
X13517500Y-5411000D02*
X13612500Y-5411000D01*
X13565000Y-5613500D02*
X13565000Y-5708500D01*
X13517500Y-5661000D02*
X13612500Y-5661000D01*
X13565000Y-5863500D02*
X13565000Y-5958500D01*
X13517500Y-5911000D02*
X13612500Y-5911000D01*
X13565000Y-6113500D02*
X13565000Y-6208500D01*
X13517500Y-6161000D02*
X13612500Y-6161000D01*
X13565000Y-6979833D02*
X13565000Y-7074833D01*
X13517500Y-7027333D02*
X13612500Y-7027333D01*
X13565000Y-7229833D02*
X13565000Y-7324833D01*
X13517500Y-7277333D02*
X13612500Y-7277333D01*
X13565000Y-7479833D02*
X13565000Y-7574833D01*
X13517500Y-7527333D02*
X13612500Y-7527333D01*
X13565000Y-7729833D02*
X13565000Y-7824833D01*
X13517500Y-7777333D02*
X13612500Y-7777333D01*
X13565000Y-8596167D02*
X13565000Y-8691167D01*
X13517500Y-8643667D02*
X13612500Y-8643667D01*
X13565000Y-8846167D02*
X13565000Y-8941167D01*
X13517500Y-8893667D02*
X13612500Y-8893667D01*
X13565000Y-9096167D02*
X13565000Y-9191167D01*
X13517500Y-9143667D02*
X13612500Y-9143667D01*
X13565000Y-9346167D02*
X13565000Y-9441167D01*
X13517500Y-9393667D02*
X13612500Y-9393667D01*
X13565000Y-10212500D02*
X13565000Y-10307500D01*
X13517500Y-10260000D02*
X13612500Y-10260000D01*
X13565000Y-10462500D02*
X13565000Y-10557500D01*
X13517500Y-10510000D02*
X13612500Y-10510000D01*
X13565000Y-10712500D02*
X13565000Y-10807500D01*
X13517500Y-10760000D02*
X13612500Y-10760000D01*
X13565000Y-10962500D02*
X13565000Y-11057500D01*
X13517500Y-11010000D02*
X13612500Y-11010000D01*
X18947500Y-5247500D02*
X18947500Y-5342500D01*
X18900000Y-5295000D02*
X18995000Y-5295000D01*
X18947500Y-5497500D02*
X18947500Y-5592500D01*
X18900000Y-5545000D02*
X18995000Y-5545000D01*
X18947500Y-5747500D02*
X18947500Y-5842500D01*
X18900000Y-5795000D02*
X18995000Y-5795000D01*
X18947500Y-9372500D02*
X18947500Y-9467500D01*
X18900000Y-9420000D02*
X18995000Y-9420000D01*
X18947500Y-9622500D02*
X18947500Y-9717500D01*
X18900000Y-9670000D02*
X18995000Y-9670000D01*
X18947500Y-9872500D02*
X18947500Y-9967500D01*
X18900000Y-9920000D02*
X18995000Y-9920000D01*
D10*
X19190356Y-6370356D02*
X19190356Y-6299644D01*
X19119644Y-6299644D01*
X19119644Y-6370356D01*
X19190356Y-6370356D01*
X19190356Y-6624356D02*
X19190356Y-6553644D01*
X19119644Y-6553644D01*
X19119644Y-6624356D01*
X19190356Y-6624356D01*
X19190356Y-6878356D02*
X19190356Y-6807644D01*
X19119644Y-6807644D01*
X19119644Y-6878356D01*
X19190356Y-6878356D01*
X19190356Y-7132356D02*
X19190356Y-7061644D01*
X19119644Y-7061644D01*
X19119644Y-7132356D01*
X19190356Y-7132356D01*
X19190356Y-7386356D02*
X19190356Y-7315644D01*
X19119644Y-7315644D01*
X19119644Y-7386356D01*
X19190356Y-7386356D01*
X19190356Y-7640356D02*
X19190356Y-7569644D01*
X19119644Y-7569644D01*
X19119644Y-7640356D01*
X19190356Y-7640356D01*
X19190356Y-7894356D02*
X19190356Y-7823644D01*
X19119644Y-7823644D01*
X19119644Y-7894356D01*
X19190356Y-7894356D01*
X19190356Y-8148356D02*
X19190356Y-8077644D01*
X19119644Y-8077644D01*
X19119644Y-8148356D01*
X19190356Y-8148356D01*
X19190356Y-8402356D02*
X19190356Y-8331644D01*
X19119644Y-8331644D01*
X19119644Y-8402356D01*
X19190356Y-8402356D01*
X19190356Y-8656356D02*
X19190356Y-8585644D01*
X19119644Y-8585644D01*
X19119644Y-8656356D01*
X19190356Y-8656356D01*
X19190356Y-8910356D02*
X19190356Y-8839644D01*
X19119644Y-8839644D01*
X19119644Y-8910356D01*
X19190356Y-8910356D01*
D15*
X16505000Y-5244000D02*
X16556000Y-5193000D01*
X16505000Y-5142000D01*
X16454000Y-5193000D01*
X16505000Y-5244000D01*
X16505000Y-5498000D02*
X16556000Y-5447000D01*
X16505000Y-5396000D01*
X16454000Y-5447000D01*
X16505000Y-5498000D01*
X16505000Y-5752000D02*
X16556000Y-5701000D01*
X16505000Y-5650000D01*
X16454000Y-5701000D01*
X16505000Y-5752000D01*
X16505000Y-6006000D02*
X16556000Y-5955000D01*
X16505000Y-5904000D01*
X16454000Y-5955000D01*
X16505000Y-6006000D01*
X16505000Y-6260000D02*
X16556000Y-6209000D01*
X16505000Y-6158000D01*
X16454000Y-6209000D01*
X16505000Y-6260000D01*
X16505000Y-6514000D02*
X16556000Y-6463000D01*
X16505000Y-6412000D01*
X16454000Y-6463000D01*
X16505000Y-6514000D01*
X16505000Y-6768000D02*
X16556000Y-6717000D01*
X16505000Y-6666000D01*
X16454000Y-6717000D01*
X16505000Y-6768000D01*
X16505000Y-7022000D02*
X16556000Y-6971000D01*
X16505000Y-6920000D01*
X16454000Y-6971000D01*
X16505000Y-7022000D01*
X16505000Y-7276000D02*
X16556000Y-7225000D01*
X16505000Y-7174000D01*
X16454000Y-7225000D01*
X16505000Y-7276000D01*
X16505000Y-7530000D02*
X16556000Y-7479000D01*
X16505000Y-7428000D01*
X16454000Y-7479000D01*
X16505000Y-7530000D01*
X16505000Y-7784000D02*
X16556000Y-7733000D01*
X16505000Y-7682000D01*
X16454000Y-7733000D01*
X16505000Y-7784000D01*
X16505000Y-8038000D02*
X16556000Y-7987000D01*
X16505000Y-7936000D01*
X16454000Y-7987000D01*
X16505000Y-8038000D01*
X16505000Y-8292000D02*
X16556000Y-8241000D01*
X16505000Y-8190000D01*
X16454000Y-8241000D01*
X16505000Y-8292000D01*
X16505000Y-8546000D02*
X16556000Y-8495000D01*
X16505000Y-8444000D01*
X16454000Y-8495000D01*
X16505000Y-8546000D01*
X16505000Y-8800000D02*
X16556000Y-8749000D01*
X16505000Y-8698000D01*
X16454000Y-8749000D01*
X16505000Y-8800000D01*
X16505000Y-9054000D02*
X16556000Y-9003000D01*
X16505000Y-8952000D01*
X16454000Y-9003000D01*
X16505000Y-9054000D01*
X16505000Y-9308000D02*
X16556000Y-9257000D01*
X16505000Y-9206000D01*
X16454000Y-9257000D01*
X16505000Y-9308000D01*
X16505000Y-9562000D02*
X16556000Y-9511000D01*
X16505000Y-9460000D01*
X16454000Y-9511000D01*
X16505000Y-9562000D01*
X16505000Y-9816000D02*
X16556000Y-9765000D01*
X16505000Y-9714000D01*
X16454000Y-9765000D01*
X16505000Y-9816000D01*
X16505000Y-10070000D02*
X16556000Y-10019000D01*
X16505000Y-9968000D01*
X16454000Y-10019000D01*
X16505000Y-10070000D01*
X17140000Y-10047000D02*
X17191000Y-9996000D01*
X17140000Y-9945000D01*
X17089000Y-9996000D01*
X17140000Y-10047000D01*
X17394000Y-10047000D02*
X17445000Y-9996000D01*
X17394000Y-9945000D01*
X17343000Y-9996000D01*
X17394000Y-10047000D01*
X17648000Y-10047000D02*
X17699000Y-9996000D01*
X17648000Y-9945000D01*
X17597000Y-9996000D01*
X17648000Y-10047000D01*
X18283000Y-5244000D02*
X18334000Y-5193000D01*
X18283000Y-5142000D01*
X18232000Y-5193000D01*
X18283000Y-5244000D01*
X18283000Y-5498000D02*
X18334000Y-5447000D01*
X18283000Y-5396000D01*
X18232000Y-5447000D01*
X18283000Y-5498000D01*
X18283000Y-5752000D02*
X18334000Y-5701000D01*
X18283000Y-5650000D01*
X18232000Y-5701000D01*
X18283000Y-5752000D01*
X18283000Y-6006000D02*
X18334000Y-5955000D01*
X18283000Y-5904000D01*
X18232000Y-5955000D01*
X18283000Y-6006000D01*
X18283000Y-6260000D02*
X18334000Y-6209000D01*
X18283000Y-6158000D01*
X18232000Y-6209000D01*
X18283000Y-6260000D01*
X18283000Y-6514000D02*
X18334000Y-6463000D01*
X18283000Y-6412000D01*
X18232000Y-6463000D01*
X18283000Y-6514000D01*
X18283000Y-6768000D02*
X18334000Y-6717000D01*
X18283000Y-6666000D01*
X18232000Y-6717000D01*
X18283000Y-6768000D01*
X18283000Y-7022000D02*
X18334000Y-6971000D01*
X18283000Y-6920000D01*
X18232000Y-6971000D01*
X18283000Y-7022000D01*
X18283000Y-7276000D02*
X18334000Y-7225000D01*
X18283000Y-7174000D01*
X18232000Y-7225000D01*
X18283000Y-7276000D01*
X18283000Y-7530000D02*
X18334000Y-7479000D01*
X18283000Y-7428000D01*
X18232000Y-7479000D01*
X18283000Y-7530000D01*
X18283000Y-7784000D02*
X18334000Y-7733000D01*
X18283000Y-7682000D01*
X18232000Y-7733000D01*
X18283000Y-7784000D01*
X18283000Y-8038000D02*
X18334000Y-7987000D01*
X18283000Y-7936000D01*
X18232000Y-7987000D01*
X18283000Y-8038000D01*
X18283000Y-8292000D02*
X18334000Y-8241000D01*
X18283000Y-8190000D01*
X18232000Y-8241000D01*
X18283000Y-8292000D01*
X18283000Y-8546000D02*
X18334000Y-8495000D01*
X18283000Y-8444000D01*
X18232000Y-8495000D01*
X18283000Y-8546000D01*
X18283000Y-8800000D02*
X18334000Y-8749000D01*
X18283000Y-8698000D01*
X18232000Y-8749000D01*
X18283000Y-8800000D01*
X18283000Y-9054000D02*
X18334000Y-9003000D01*
X18283000Y-8952000D01*
X18232000Y-9003000D01*
X18283000Y-9054000D01*
X18283000Y-9308000D02*
X18334000Y-9257000D01*
X18283000Y-9206000D01*
X18232000Y-9257000D01*
X18283000Y-9308000D01*
X18283000Y-9562000D02*
X18334000Y-9511000D01*
X18283000Y-9460000D01*
X18232000Y-9511000D01*
X18283000Y-9562000D01*
X18283000Y-9816000D02*
X18334000Y-9765000D01*
X18283000Y-9714000D01*
X18232000Y-9765000D01*
X18283000Y-9816000D01*
X18283000Y-10070000D02*
X18334000Y-10019000D01*
X18283000Y-9968000D01*
X18232000Y-10019000D01*
X18283000Y-10070000D01*
D16*
X16766000Y-10850000D02*
X16876000Y-10960000D01*
X16876000Y-10850000D02*
X16766000Y-10960000D01*
X16876000Y-10905000D02*
G75*
G03*
X16876000Y-10905000I-55000J0D01*
G01*
X17020000Y-10850000D02*
X17130000Y-10960000D01*
X17130000Y-10850000D02*
X17020000Y-10960000D01*
X17130000Y-10905000D02*
G75*
G03*
X17130000Y-10905000I-55000J0D01*
G01*
X17274000Y-10850000D02*
X17384000Y-10960000D01*
X17384000Y-10850000D02*
X17274000Y-10960000D01*
X17384000Y-10905000D02*
G75*
G03*
X17384000Y-10905000I-55000J0D01*
G01*
D11*
X13220777Y-11811484D02*
X13220777Y-11611484D01*
X13220777Y-11611484D02*
X13268396Y-11611484D01*
X13268396Y-11611484D02*
X13296967Y-11621008D01*
X13296967Y-11621008D02*
X13316015Y-11640055D01*
X13316015Y-11640055D02*
X13325539Y-11659103D01*
X13325539Y-11659103D02*
X13335062Y-11697198D01*
X13335062Y-11697198D02*
X13335062Y-11725769D01*
X13335062Y-11725769D02*
X13325539Y-11763865D01*
X13325539Y-11763865D02*
X13316015Y-11782912D01*
X13316015Y-11782912D02*
X13296967Y-11801960D01*
X13296967Y-11801960D02*
X13268396Y-11811484D01*
X13268396Y-11811484D02*
X13220777Y-11811484D01*
X13420777Y-11811484D02*
X13420777Y-11678150D01*
X13420777Y-11716246D02*
X13430301Y-11697198D01*
X13430301Y-11697198D02*
X13439824Y-11687674D01*
X13439824Y-11687674D02*
X13458872Y-11678150D01*
X13458872Y-11678150D02*
X13477920Y-11678150D01*
X13544586Y-11811484D02*
X13544586Y-11678150D01*
X13544586Y-11611484D02*
X13535062Y-11621008D01*
X13535062Y-11621008D02*
X13544586Y-11630531D01*
X13544586Y-11630531D02*
X13554110Y-11621008D01*
X13554110Y-11621008D02*
X13544586Y-11611484D01*
X13544586Y-11611484D02*
X13544586Y-11630531D01*
X13668396Y-11811484D02*
X13649348Y-11801960D01*
X13649348Y-11801960D02*
X13639824Y-11782912D01*
X13639824Y-11782912D02*
X13639824Y-11611484D01*
X13773158Y-11811484D02*
X13754110Y-11801960D01*
X13754110Y-11801960D02*
X13744586Y-11782912D01*
X13744586Y-11782912D02*
X13744586Y-11611484D01*
X14001729Y-11811484D02*
X14001729Y-11611484D01*
X14001729Y-11611484D02*
X14068396Y-11754341D01*
X14068396Y-11754341D02*
X14135062Y-11611484D01*
X14135062Y-11611484D02*
X14135062Y-11811484D01*
X14316015Y-11811484D02*
X14316015Y-11706722D01*
X14316015Y-11706722D02*
X14306491Y-11687674D01*
X14306491Y-11687674D02*
X14287443Y-11678150D01*
X14287443Y-11678150D02*
X14249348Y-11678150D01*
X14249348Y-11678150D02*
X14230301Y-11687674D01*
X14316015Y-11801960D02*
X14296967Y-11811484D01*
X14296967Y-11811484D02*
X14249348Y-11811484D01*
X14249348Y-11811484D02*
X14230301Y-11801960D01*
X14230301Y-11801960D02*
X14220777Y-11782912D01*
X14220777Y-11782912D02*
X14220777Y-11763865D01*
X14220777Y-11763865D02*
X14230301Y-11744817D01*
X14230301Y-11744817D02*
X14249348Y-11735293D01*
X14249348Y-11735293D02*
X14296967Y-11735293D01*
X14296967Y-11735293D02*
X14316015Y-11725769D01*
X14411253Y-11678150D02*
X14411253Y-11878150D01*
X14411253Y-11687674D02*
X14430301Y-11678150D01*
X14430301Y-11678150D02*
X14468396Y-11678150D01*
X14468396Y-11678150D02*
X14487443Y-11687674D01*
X14487443Y-11687674D02*
X14496967Y-11697198D01*
X14496967Y-11697198D02*
X14506491Y-11716246D01*
X14506491Y-11716246D02*
X14506491Y-11773388D01*
X14506491Y-11773388D02*
X14496967Y-11792436D01*
X14496967Y-11792436D02*
X14487443Y-11801960D01*
X14487443Y-11801960D02*
X14468396Y-11811484D01*
X14468396Y-11811484D02*
X14430301Y-11811484D01*
X14430301Y-11811484D02*
X14411253Y-11801960D01*
X14592205Y-11792436D02*
X14601729Y-11801960D01*
X14601729Y-11801960D02*
X14592205Y-11811484D01*
X14592205Y-11811484D02*
X14582682Y-11801960D01*
X14582682Y-11801960D02*
X14592205Y-11792436D01*
X14592205Y-11792436D02*
X14592205Y-11811484D01*
X14592205Y-11687674D02*
X14601729Y-11697198D01*
X14601729Y-11697198D02*
X14592205Y-11706722D01*
X14592205Y-11706722D02*
X14582682Y-11697198D01*
X14582682Y-11697198D02*
X14592205Y-11687674D01*
X14592205Y-11687674D02*
X14592205Y-11706722D01*
D12*
X12920000Y-12120000D02*
X12960000Y-12160000D01*
X12960000Y-12120000D02*
X12920000Y-12160000D01*
D11*
X13258872Y-12031484D02*
X13277920Y-12031484D01*
X13277920Y-12031484D02*
X13296967Y-12041008D01*
X13296967Y-12041008D02*
X13306491Y-12050531D01*
X13306491Y-12050531D02*
X13316015Y-12069579D01*
X13316015Y-12069579D02*
X13325539Y-12107674D01*
X13325539Y-12107674D02*
X13325539Y-12155293D01*
X13325539Y-12155293D02*
X13316015Y-12193388D01*
X13316015Y-12193388D02*
X13306491Y-12212436D01*
X13306491Y-12212436D02*
X13296967Y-12221960D01*
X13296967Y-12221960D02*
X13277920Y-12231484D01*
X13277920Y-12231484D02*
X13258872Y-12231484D01*
X13258872Y-12231484D02*
X13239824Y-12221960D01*
X13239824Y-12221960D02*
X13230301Y-12212436D01*
X13230301Y-12212436D02*
X13220777Y-12193388D01*
X13220777Y-12193388D02*
X13211253Y-12155293D01*
X13211253Y-12155293D02*
X13211253Y-12107674D01*
X13211253Y-12107674D02*
X13220777Y-12069579D01*
X13220777Y-12069579D02*
X13230301Y-12050531D01*
X13230301Y-12050531D02*
X13239824Y-12041008D01*
X13239824Y-12041008D02*
X13258872Y-12031484D01*
X13411253Y-12212436D02*
X13420777Y-12221960D01*
X13420777Y-12221960D02*
X13411253Y-12231484D01*
X13411253Y-12231484D02*
X13401729Y-12221960D01*
X13401729Y-12221960D02*
X13411253Y-12212436D01*
X13411253Y-12212436D02*
X13411253Y-12231484D01*
X13592205Y-12098150D02*
X13592205Y-12231484D01*
X13544586Y-12021960D02*
X13496967Y-12164817D01*
X13496967Y-12164817D02*
X13620777Y-12164817D01*
X13735062Y-12031484D02*
X13754110Y-12031484D01*
X13754110Y-12031484D02*
X13773158Y-12041008D01*
X13773158Y-12041008D02*
X13782682Y-12050531D01*
X13782682Y-12050531D02*
X13792205Y-12069579D01*
X13792205Y-12069579D02*
X13801729Y-12107674D01*
X13801729Y-12107674D02*
X13801729Y-12155293D01*
X13801729Y-12155293D02*
X13792205Y-12193388D01*
X13792205Y-12193388D02*
X13782682Y-12212436D01*
X13782682Y-12212436D02*
X13773158Y-12221960D01*
X13773158Y-12221960D02*
X13754110Y-12231484D01*
X13754110Y-12231484D02*
X13735062Y-12231484D01*
X13735062Y-12231484D02*
X13716015Y-12221960D01*
X13716015Y-12221960D02*
X13706491Y-12212436D01*
X13706491Y-12212436D02*
X13696967Y-12193388D01*
X13696967Y-12193388D02*
X13687443Y-12155293D01*
X13687443Y-12155293D02*
X13687443Y-12107674D01*
X13687443Y-12107674D02*
X13696967Y-12069579D01*
X13696967Y-12069579D02*
X13706491Y-12050531D01*
X13706491Y-12050531D02*
X13716015Y-12041008D01*
X13716015Y-12041008D02*
X13735062Y-12031484D01*
X13925539Y-12031484D02*
X13944586Y-12031484D01*
X13944586Y-12031484D02*
X13963634Y-12041008D01*
X13963634Y-12041008D02*
X13973158Y-12050531D01*
X13973158Y-12050531D02*
X13982682Y-12069579D01*
X13982682Y-12069579D02*
X13992205Y-12107674D01*
X13992205Y-12107674D02*
X13992205Y-12155293D01*
X13992205Y-12155293D02*
X13982682Y-12193388D01*
X13982682Y-12193388D02*
X13973158Y-12212436D01*
X13973158Y-12212436D02*
X13963634Y-12221960D01*
X13963634Y-12221960D02*
X13944586Y-12231484D01*
X13944586Y-12231484D02*
X13925539Y-12231484D01*
X13925539Y-12231484D02*
X13906491Y-12221960D01*
X13906491Y-12221960D02*
X13896967Y-12212436D01*
X13896967Y-12212436D02*
X13887443Y-12193388D01*
X13887443Y-12193388D02*
X13877920Y-12155293D01*
X13877920Y-12155293D02*
X13877920Y-12107674D01*
X13877920Y-12107674D02*
X13887443Y-12069579D01*
X13887443Y-12069579D02*
X13896967Y-12050531D01*
X13896967Y-12050531D02*
X13906491Y-12041008D01*
X13906491Y-12041008D02*
X13925539Y-12031484D01*
X14077920Y-12231484D02*
X14077920Y-12098150D01*
X14077920Y-12117198D02*
X14087443Y-12107674D01*
X14087443Y-12107674D02*
X14106491Y-12098150D01*
X14106491Y-12098150D02*
X14135063Y-12098150D01*
X14135063Y-12098150D02*
X14154110Y-12107674D01*
X14154110Y-12107674D02*
X14163634Y-12126722D01*
X14163634Y-12126722D02*
X14163634Y-12231484D01*
X14163634Y-12126722D02*
X14173158Y-12107674D01*
X14173158Y-12107674D02*
X14192205Y-12098150D01*
X14192205Y-12098150D02*
X14220777Y-12098150D01*
X14220777Y-12098150D02*
X14239824Y-12107674D01*
X14239824Y-12107674D02*
X14249348Y-12126722D01*
X14249348Y-12126722D02*
X14249348Y-12231484D01*
X14344586Y-12231484D02*
X14344586Y-12098150D01*
X14344586Y-12117198D02*
X14354110Y-12107674D01*
X14354110Y-12107674D02*
X14373158Y-12098150D01*
X14373158Y-12098150D02*
X14401729Y-12098150D01*
X14401729Y-12098150D02*
X14420777Y-12107674D01*
X14420777Y-12107674D02*
X14430301Y-12126722D01*
X14430301Y-12126722D02*
X14430301Y-12231484D01*
X14430301Y-12126722D02*
X14439824Y-12107674D01*
X14439824Y-12107674D02*
X14458872Y-12098150D01*
X14458872Y-12098150D02*
X14487443Y-12098150D01*
X14487443Y-12098150D02*
X14506491Y-12107674D01*
X14506491Y-12107674D02*
X14516015Y-12126722D01*
X14516015Y-12126722D02*
X14516015Y-12231484D01*
X14906491Y-12021960D02*
X14735063Y-12279103D01*
X15163634Y-12031484D02*
X15182682Y-12031484D01*
X15182682Y-12031484D02*
X15201729Y-12041008D01*
X15201729Y-12041008D02*
X15211253Y-12050531D01*
X15211253Y-12050531D02*
X15220777Y-12069579D01*
X15220777Y-12069579D02*
X15230301Y-12107674D01*
X15230301Y-12107674D02*
X15230301Y-12155293D01*
X15230301Y-12155293D02*
X15220777Y-12193388D01*
X15220777Y-12193388D02*
X15211253Y-12212436D01*
X15211253Y-12212436D02*
X15201729Y-12221960D01*
X15201729Y-12221960D02*
X15182682Y-12231484D01*
X15182682Y-12231484D02*
X15163634Y-12231484D01*
X15163634Y-12231484D02*
X15144586Y-12221960D01*
X15144586Y-12221960D02*
X15135063Y-12212436D01*
X15135063Y-12212436D02*
X15125539Y-12193388D01*
X15125539Y-12193388D02*
X15116015Y-12155293D01*
X15116015Y-12155293D02*
X15116015Y-12107674D01*
X15116015Y-12107674D02*
X15125539Y-12069579D01*
X15125539Y-12069579D02*
X15135063Y-12050531D01*
X15135063Y-12050531D02*
X15144586Y-12041008D01*
X15144586Y-12041008D02*
X15163634Y-12031484D01*
X15316015Y-12212436D02*
X15325539Y-12221960D01*
X15325539Y-12221960D02*
X15316015Y-12231484D01*
X15316015Y-12231484D02*
X15306491Y-12221960D01*
X15306491Y-12221960D02*
X15316015Y-12212436D01*
X15316015Y-12212436D02*
X15316015Y-12231484D01*
X15449348Y-12031484D02*
X15468396Y-12031484D01*
X15468396Y-12031484D02*
X15487444Y-12041008D01*
X15487444Y-12041008D02*
X15496967Y-12050531D01*
X15496967Y-12050531D02*
X15506491Y-12069579D01*
X15506491Y-12069579D02*
X15516015Y-12107674D01*
X15516015Y-12107674D02*
X15516015Y-12155293D01*
X15516015Y-12155293D02*
X15506491Y-12193388D01*
X15506491Y-12193388D02*
X15496967Y-12212436D01*
X15496967Y-12212436D02*
X15487444Y-12221960D01*
X15487444Y-12221960D02*
X15468396Y-12231484D01*
X15468396Y-12231484D02*
X15449348Y-12231484D01*
X15449348Y-12231484D02*
X15430301Y-12221960D01*
X15430301Y-12221960D02*
X15420777Y-12212436D01*
X15420777Y-12212436D02*
X15411253Y-12193388D01*
X15411253Y-12193388D02*
X15401729Y-12155293D01*
X15401729Y-12155293D02*
X15401729Y-12107674D01*
X15401729Y-12107674D02*
X15411253Y-12069579D01*
X15411253Y-12069579D02*
X15420777Y-12050531D01*
X15420777Y-12050531D02*
X15430301Y-12041008D01*
X15430301Y-12041008D02*
X15449348Y-12031484D01*
X15706491Y-12231484D02*
X15592206Y-12231484D01*
X15649348Y-12231484D02*
X15649348Y-12031484D01*
X15649348Y-12031484D02*
X15630301Y-12060055D01*
X15630301Y-12060055D02*
X15611253Y-12079103D01*
X15611253Y-12079103D02*
X15592206Y-12088627D01*
X15887444Y-12031484D02*
X15792206Y-12031484D01*
X15792206Y-12031484D02*
X15782682Y-12126722D01*
X15782682Y-12126722D02*
X15792206Y-12117198D01*
X15792206Y-12117198D02*
X15811253Y-12107674D01*
X15811253Y-12107674D02*
X15858872Y-12107674D01*
X15858872Y-12107674D02*
X15877920Y-12117198D01*
X15877920Y-12117198D02*
X15887444Y-12126722D01*
X15887444Y-12126722D02*
X15896967Y-12145769D01*
X15896967Y-12145769D02*
X15896967Y-12193388D01*
X15896967Y-12193388D02*
X15887444Y-12212436D01*
X15887444Y-12212436D02*
X15877920Y-12221960D01*
X15877920Y-12221960D02*
X15858872Y-12231484D01*
X15858872Y-12231484D02*
X15811253Y-12231484D01*
X15811253Y-12231484D02*
X15792206Y-12221960D01*
X15792206Y-12221960D02*
X15782682Y-12212436D01*
X15963634Y-12031484D02*
X16096967Y-12031484D01*
X16096967Y-12031484D02*
X16011253Y-12231484D01*
X16163634Y-12031484D02*
X16163634Y-12069579D01*
X16239825Y-12031484D02*
X16239825Y-12069579D01*
X16535063Y-12307674D02*
X16525539Y-12298150D01*
X16525539Y-12298150D02*
X16506491Y-12269579D01*
X16506491Y-12269579D02*
X16496968Y-12250531D01*
X16496968Y-12250531D02*
X16487444Y-12221960D01*
X16487444Y-12221960D02*
X16477920Y-12174341D01*
X16477920Y-12174341D02*
X16477920Y-12136246D01*
X16477920Y-12136246D02*
X16487444Y-12088627D01*
X16487444Y-12088627D02*
X16496968Y-12060055D01*
X16496968Y-12060055D02*
X16506491Y-12041008D01*
X16506491Y-12041008D02*
X16525539Y-12012436D01*
X16525539Y-12012436D02*
X16535063Y-12002912D01*
X16696968Y-12031484D02*
X16658872Y-12031484D01*
X16658872Y-12031484D02*
X16639825Y-12041008D01*
X16639825Y-12041008D02*
X16630301Y-12050531D01*
X16630301Y-12050531D02*
X16611253Y-12079103D01*
X16611253Y-12079103D02*
X16601729Y-12117198D01*
X16601729Y-12117198D02*
X16601729Y-12193388D01*
X16601729Y-12193388D02*
X16611253Y-12212436D01*
X16611253Y-12212436D02*
X16620777Y-12221960D01*
X16620777Y-12221960D02*
X16639825Y-12231484D01*
X16639825Y-12231484D02*
X16677920Y-12231484D01*
X16677920Y-12231484D02*
X16696968Y-12221960D01*
X16696968Y-12221960D02*
X16706491Y-12212436D01*
X16706491Y-12212436D02*
X16716015Y-12193388D01*
X16716015Y-12193388D02*
X16716015Y-12145769D01*
X16716015Y-12145769D02*
X16706491Y-12126722D01*
X16706491Y-12126722D02*
X16696968Y-12117198D01*
X16696968Y-12117198D02*
X16677920Y-12107674D01*
X16677920Y-12107674D02*
X16639825Y-12107674D01*
X16639825Y-12107674D02*
X16620777Y-12117198D01*
X16620777Y-12117198D02*
X16611253Y-12126722D01*
X16611253Y-12126722D02*
X16601729Y-12145769D01*
X16839825Y-12031484D02*
X16858872Y-12031484D01*
X16858872Y-12031484D02*
X16877920Y-12041008D01*
X16877920Y-12041008D02*
X16887444Y-12050531D01*
X16887444Y-12050531D02*
X16896968Y-12069579D01*
X16896968Y-12069579D02*
X16906491Y-12107674D01*
X16906491Y-12107674D02*
X16906491Y-12155293D01*
X16906491Y-12155293D02*
X16896968Y-12193388D01*
X16896968Y-12193388D02*
X16887444Y-12212436D01*
X16887444Y-12212436D02*
X16877920Y-12221960D01*
X16877920Y-12221960D02*
X16858872Y-12231484D01*
X16858872Y-12231484D02*
X16839825Y-12231484D01*
X16839825Y-12231484D02*
X16820777Y-12221960D01*
X16820777Y-12221960D02*
X16811253Y-12212436D01*
X16811253Y-12212436D02*
X16801730Y-12193388D01*
X16801730Y-12193388D02*
X16792206Y-12155293D01*
X16792206Y-12155293D02*
X16792206Y-12107674D01*
X16792206Y-12107674D02*
X16801730Y-12069579D01*
X16801730Y-12069579D02*
X16811253Y-12050531D01*
X16811253Y-12050531D02*
X16820777Y-12041008D01*
X16820777Y-12041008D02*
X16839825Y-12031484D01*
X17144587Y-12231484D02*
X17144587Y-12031484D01*
X17230301Y-12231484D02*
X17230301Y-12126722D01*
X17230301Y-12126722D02*
X17220777Y-12107674D01*
X17220777Y-12107674D02*
X17201730Y-12098150D01*
X17201730Y-12098150D02*
X17173158Y-12098150D01*
X17173158Y-12098150D02*
X17154111Y-12107674D01*
X17154111Y-12107674D02*
X17144587Y-12117198D01*
X17354111Y-12231484D02*
X17335063Y-12221960D01*
X17335063Y-12221960D02*
X17325539Y-12212436D01*
X17325539Y-12212436D02*
X17316015Y-12193388D01*
X17316015Y-12193388D02*
X17316015Y-12136246D01*
X17316015Y-12136246D02*
X17325539Y-12117198D01*
X17325539Y-12117198D02*
X17335063Y-12107674D01*
X17335063Y-12107674D02*
X17354111Y-12098150D01*
X17354111Y-12098150D02*
X17382682Y-12098150D01*
X17382682Y-12098150D02*
X17401730Y-12107674D01*
X17401730Y-12107674D02*
X17411253Y-12117198D01*
X17411253Y-12117198D02*
X17420777Y-12136246D01*
X17420777Y-12136246D02*
X17420777Y-12193388D01*
X17420777Y-12193388D02*
X17411253Y-12212436D01*
X17411253Y-12212436D02*
X17401730Y-12221960D01*
X17401730Y-12221960D02*
X17382682Y-12231484D01*
X17382682Y-12231484D02*
X17354111Y-12231484D01*
X17535063Y-12231484D02*
X17516015Y-12221960D01*
X17516015Y-12221960D02*
X17506492Y-12202912D01*
X17506492Y-12202912D02*
X17506492Y-12031484D01*
X17687444Y-12221960D02*
X17668396Y-12231484D01*
X17668396Y-12231484D02*
X17630301Y-12231484D01*
X17630301Y-12231484D02*
X17611253Y-12221960D01*
X17611253Y-12221960D02*
X17601730Y-12202912D01*
X17601730Y-12202912D02*
X17601730Y-12126722D01*
X17601730Y-12126722D02*
X17611253Y-12107674D01*
X17611253Y-12107674D02*
X17630301Y-12098150D01*
X17630301Y-12098150D02*
X17668396Y-12098150D01*
X17668396Y-12098150D02*
X17687444Y-12107674D01*
X17687444Y-12107674D02*
X17696968Y-12126722D01*
X17696968Y-12126722D02*
X17696968Y-12145769D01*
X17696968Y-12145769D02*
X17601730Y-12164817D01*
X17773158Y-12221960D02*
X17792206Y-12231484D01*
X17792206Y-12231484D02*
X17830301Y-12231484D01*
X17830301Y-12231484D02*
X17849349Y-12221960D01*
X17849349Y-12221960D02*
X17858873Y-12202912D01*
X17858873Y-12202912D02*
X17858873Y-12193388D01*
X17858873Y-12193388D02*
X17849349Y-12174341D01*
X17849349Y-12174341D02*
X17830301Y-12164817D01*
X17830301Y-12164817D02*
X17801730Y-12164817D01*
X17801730Y-12164817D02*
X17782682Y-12155293D01*
X17782682Y-12155293D02*
X17773158Y-12136246D01*
X17773158Y-12136246D02*
X17773158Y-12126722D01*
X17773158Y-12126722D02*
X17782682Y-12107674D01*
X17782682Y-12107674D02*
X17801730Y-12098150D01*
X17801730Y-12098150D02*
X17830301Y-12098150D01*
X17830301Y-12098150D02*
X17849349Y-12107674D01*
X17925539Y-12307674D02*
X17935063Y-12298150D01*
X17935063Y-12298150D02*
X17954111Y-12269579D01*
X17954111Y-12269579D02*
X17963634Y-12250531D01*
X17963634Y-12250531D02*
X17973158Y-12221960D01*
X17973158Y-12221960D02*
X17982682Y-12174341D01*
X17982682Y-12174341D02*
X17982682Y-12136246D01*
X17982682Y-12136246D02*
X17973158Y-12088627D01*
X17973158Y-12088627D02*
X17963634Y-12060055D01*
X17963634Y-12060055D02*
X17954111Y-12041008D01*
X17954111Y-12041008D02*
X17935063Y-12012436D01*
X17935063Y-12012436D02*
X17925539Y-12002912D01*
D13*
X12960000Y-12404000D02*
G75*
G03*
X12960000Y-12404000I-40000J0D01*
G01*
D11*
X13258872Y-12295484D02*
X13277920Y-12295484D01*
X13277920Y-12295484D02*
X13296967Y-12305008D01*
X13296967Y-12305008D02*
X13306491Y-12314531D01*
X13306491Y-12314531D02*
X13316015Y-12333579D01*
X13316015Y-12333579D02*
X13325539Y-12371674D01*
X13325539Y-12371674D02*
X13325539Y-12419293D01*
X13325539Y-12419293D02*
X13316015Y-12457388D01*
X13316015Y-12457388D02*
X13306491Y-12476436D01*
X13306491Y-12476436D02*
X13296967Y-12485960D01*
X13296967Y-12485960D02*
X13277920Y-12495484D01*
X13277920Y-12495484D02*
X13258872Y-12495484D01*
X13258872Y-12495484D02*
X13239824Y-12485960D01*
X13239824Y-12485960D02*
X13230301Y-12476436D01*
X13230301Y-12476436D02*
X13220777Y-12457388D01*
X13220777Y-12457388D02*
X13211253Y-12419293D01*
X13211253Y-12419293D02*
X13211253Y-12371674D01*
X13211253Y-12371674D02*
X13220777Y-12333579D01*
X13220777Y-12333579D02*
X13230301Y-12314531D01*
X13230301Y-12314531D02*
X13239824Y-12305008D01*
X13239824Y-12305008D02*
X13258872Y-12295484D01*
X13411253Y-12476436D02*
X13420777Y-12485960D01*
X13420777Y-12485960D02*
X13411253Y-12495484D01*
X13411253Y-12495484D02*
X13401729Y-12485960D01*
X13401729Y-12485960D02*
X13411253Y-12476436D01*
X13411253Y-12476436D02*
X13411253Y-12495484D01*
X13535062Y-12381198D02*
X13516015Y-12371674D01*
X13516015Y-12371674D02*
X13506491Y-12362150D01*
X13506491Y-12362150D02*
X13496967Y-12343103D01*
X13496967Y-12343103D02*
X13496967Y-12333579D01*
X13496967Y-12333579D02*
X13506491Y-12314531D01*
X13506491Y-12314531D02*
X13516015Y-12305008D01*
X13516015Y-12305008D02*
X13535062Y-12295484D01*
X13535062Y-12295484D02*
X13573158Y-12295484D01*
X13573158Y-12295484D02*
X13592205Y-12305008D01*
X13592205Y-12305008D02*
X13601729Y-12314531D01*
X13601729Y-12314531D02*
X13611253Y-12333579D01*
X13611253Y-12333579D02*
X13611253Y-12343103D01*
X13611253Y-12343103D02*
X13601729Y-12362150D01*
X13601729Y-12362150D02*
X13592205Y-12371674D01*
X13592205Y-12371674D02*
X13573158Y-12381198D01*
X13573158Y-12381198D02*
X13535062Y-12381198D01*
X13535062Y-12381198D02*
X13516015Y-12390722D01*
X13516015Y-12390722D02*
X13506491Y-12400246D01*
X13506491Y-12400246D02*
X13496967Y-12419293D01*
X13496967Y-12419293D02*
X13496967Y-12457388D01*
X13496967Y-12457388D02*
X13506491Y-12476436D01*
X13506491Y-12476436D02*
X13516015Y-12485960D01*
X13516015Y-12485960D02*
X13535062Y-12495484D01*
X13535062Y-12495484D02*
X13573158Y-12495484D01*
X13573158Y-12495484D02*
X13592205Y-12485960D01*
X13592205Y-12485960D02*
X13601729Y-12476436D01*
X13601729Y-12476436D02*
X13611253Y-12457388D01*
X13611253Y-12457388D02*
X13611253Y-12419293D01*
X13611253Y-12419293D02*
X13601729Y-12400246D01*
X13601729Y-12400246D02*
X13592205Y-12390722D01*
X13592205Y-12390722D02*
X13573158Y-12381198D01*
X13735062Y-12295484D02*
X13754110Y-12295484D01*
X13754110Y-12295484D02*
X13773158Y-12305008D01*
X13773158Y-12305008D02*
X13782682Y-12314531D01*
X13782682Y-12314531D02*
X13792205Y-12333579D01*
X13792205Y-12333579D02*
X13801729Y-12371674D01*
X13801729Y-12371674D02*
X13801729Y-12419293D01*
X13801729Y-12419293D02*
X13792205Y-12457388D01*
X13792205Y-12457388D02*
X13782682Y-12476436D01*
X13782682Y-12476436D02*
X13773158Y-12485960D01*
X13773158Y-12485960D02*
X13754110Y-12495484D01*
X13754110Y-12495484D02*
X13735062Y-12495484D01*
X13735062Y-12495484D02*
X13716015Y-12485960D01*
X13716015Y-12485960D02*
X13706491Y-12476436D01*
X13706491Y-12476436D02*
X13696967Y-12457388D01*
X13696967Y-12457388D02*
X13687443Y-12419293D01*
X13687443Y-12419293D02*
X13687443Y-12371674D01*
X13687443Y-12371674D02*
X13696967Y-12333579D01*
X13696967Y-12333579D02*
X13706491Y-12314531D01*
X13706491Y-12314531D02*
X13716015Y-12305008D01*
X13716015Y-12305008D02*
X13735062Y-12295484D01*
X13925539Y-12295484D02*
X13944586Y-12295484D01*
X13944586Y-12295484D02*
X13963634Y-12305008D01*
X13963634Y-12305008D02*
X13973158Y-12314531D01*
X13973158Y-12314531D02*
X13982682Y-12333579D01*
X13982682Y-12333579D02*
X13992205Y-12371674D01*
X13992205Y-12371674D02*
X13992205Y-12419293D01*
X13992205Y-12419293D02*
X13982682Y-12457388D01*
X13982682Y-12457388D02*
X13973158Y-12476436D01*
X13973158Y-12476436D02*
X13963634Y-12485960D01*
X13963634Y-12485960D02*
X13944586Y-12495484D01*
X13944586Y-12495484D02*
X13925539Y-12495484D01*
X13925539Y-12495484D02*
X13906491Y-12485960D01*
X13906491Y-12485960D02*
X13896967Y-12476436D01*
X13896967Y-12476436D02*
X13887443Y-12457388D01*
X13887443Y-12457388D02*
X13877920Y-12419293D01*
X13877920Y-12419293D02*
X13877920Y-12371674D01*
X13877920Y-12371674D02*
X13887443Y-12333579D01*
X13887443Y-12333579D02*
X13896967Y-12314531D01*
X13896967Y-12314531D02*
X13906491Y-12305008D01*
X13906491Y-12305008D02*
X13925539Y-12295484D01*
X14077920Y-12495484D02*
X14077920Y-12362150D01*
X14077920Y-12381198D02*
X14087443Y-12371674D01*
X14087443Y-12371674D02*
X14106491Y-12362150D01*
X14106491Y-12362150D02*
X14135063Y-12362150D01*
X14135063Y-12362150D02*
X14154110Y-12371674D01*
X14154110Y-12371674D02*
X14163634Y-12390722D01*
X14163634Y-12390722D02*
X14163634Y-12495484D01*
X14163634Y-12390722D02*
X14173158Y-12371674D01*
X14173158Y-12371674D02*
X14192205Y-12362150D01*
X14192205Y-12362150D02*
X14220777Y-12362150D01*
X14220777Y-12362150D02*
X14239824Y-12371674D01*
X14239824Y-12371674D02*
X14249348Y-12390722D01*
X14249348Y-12390722D02*
X14249348Y-12495484D01*
X14344586Y-12495484D02*
X14344586Y-12362150D01*
X14344586Y-12381198D02*
X14354110Y-12371674D01*
X14354110Y-12371674D02*
X14373158Y-12362150D01*
X14373158Y-12362150D02*
X14401729Y-12362150D01*
X14401729Y-12362150D02*
X14420777Y-12371674D01*
X14420777Y-12371674D02*
X14430301Y-12390722D01*
X14430301Y-12390722D02*
X14430301Y-12495484D01*
X14430301Y-12390722D02*
X14439824Y-12371674D01*
X14439824Y-12371674D02*
X14458872Y-12362150D01*
X14458872Y-12362150D02*
X14487443Y-12362150D01*
X14487443Y-12362150D02*
X14506491Y-12371674D01*
X14506491Y-12371674D02*
X14516015Y-12390722D01*
X14516015Y-12390722D02*
X14516015Y-12495484D01*
X14906491Y-12285960D02*
X14735063Y-12543103D01*
X15163634Y-12295484D02*
X15182682Y-12295484D01*
X15182682Y-12295484D02*
X15201729Y-12305008D01*
X15201729Y-12305008D02*
X15211253Y-12314531D01*
X15211253Y-12314531D02*
X15220777Y-12333579D01*
X15220777Y-12333579D02*
X15230301Y-12371674D01*
X15230301Y-12371674D02*
X15230301Y-12419293D01*
X15230301Y-12419293D02*
X15220777Y-12457388D01*
X15220777Y-12457388D02*
X15211253Y-12476436D01*
X15211253Y-12476436D02*
X15201729Y-12485960D01*
X15201729Y-12485960D02*
X15182682Y-12495484D01*
X15182682Y-12495484D02*
X15163634Y-12495484D01*
X15163634Y-12495484D02*
X15144586Y-12485960D01*
X15144586Y-12485960D02*
X15135063Y-12476436D01*
X15135063Y-12476436D02*
X15125539Y-12457388D01*
X15125539Y-12457388D02*
X15116015Y-12419293D01*
X15116015Y-12419293D02*
X15116015Y-12371674D01*
X15116015Y-12371674D02*
X15125539Y-12333579D01*
X15125539Y-12333579D02*
X15135063Y-12314531D01*
X15135063Y-12314531D02*
X15144586Y-12305008D01*
X15144586Y-12305008D02*
X15163634Y-12295484D01*
X15316015Y-12476436D02*
X15325539Y-12485960D01*
X15325539Y-12485960D02*
X15316015Y-12495484D01*
X15316015Y-12495484D02*
X15306491Y-12485960D01*
X15306491Y-12485960D02*
X15316015Y-12476436D01*
X15316015Y-12476436D02*
X15316015Y-12495484D01*
X15449348Y-12295484D02*
X15468396Y-12295484D01*
X15468396Y-12295484D02*
X15487444Y-12305008D01*
X15487444Y-12305008D02*
X15496967Y-12314531D01*
X15496967Y-12314531D02*
X15506491Y-12333579D01*
X15506491Y-12333579D02*
X15516015Y-12371674D01*
X15516015Y-12371674D02*
X15516015Y-12419293D01*
X15516015Y-12419293D02*
X15506491Y-12457388D01*
X15506491Y-12457388D02*
X15496967Y-12476436D01*
X15496967Y-12476436D02*
X15487444Y-12485960D01*
X15487444Y-12485960D02*
X15468396Y-12495484D01*
X15468396Y-12495484D02*
X15449348Y-12495484D01*
X15449348Y-12495484D02*
X15430301Y-12485960D01*
X15430301Y-12485960D02*
X15420777Y-12476436D01*
X15420777Y-12476436D02*
X15411253Y-12457388D01*
X15411253Y-12457388D02*
X15401729Y-12419293D01*
X15401729Y-12419293D02*
X15401729Y-12371674D01*
X15401729Y-12371674D02*
X15411253Y-12333579D01*
X15411253Y-12333579D02*
X15420777Y-12314531D01*
X15420777Y-12314531D02*
X15430301Y-12305008D01*
X15430301Y-12305008D02*
X15449348Y-12295484D01*
X15582682Y-12295484D02*
X15706491Y-12295484D01*
X15706491Y-12295484D02*
X15639825Y-12371674D01*
X15639825Y-12371674D02*
X15668396Y-12371674D01*
X15668396Y-12371674D02*
X15687444Y-12381198D01*
X15687444Y-12381198D02*
X15696967Y-12390722D01*
X15696967Y-12390722D02*
X15706491Y-12409769D01*
X15706491Y-12409769D02*
X15706491Y-12457388D01*
X15706491Y-12457388D02*
X15696967Y-12476436D01*
X15696967Y-12476436D02*
X15687444Y-12485960D01*
X15687444Y-12485960D02*
X15668396Y-12495484D01*
X15668396Y-12495484D02*
X15611253Y-12495484D01*
X15611253Y-12495484D02*
X15592206Y-12485960D01*
X15592206Y-12485960D02*
X15582682Y-12476436D01*
X15896967Y-12495484D02*
X15782682Y-12495484D01*
X15839825Y-12495484D02*
X15839825Y-12295484D01*
X15839825Y-12295484D02*
X15820777Y-12324055D01*
X15820777Y-12324055D02*
X15801729Y-12343103D01*
X15801729Y-12343103D02*
X15782682Y-12352627D01*
X16077920Y-12295484D02*
X15982682Y-12295484D01*
X15982682Y-12295484D02*
X15973158Y-12390722D01*
X15973158Y-12390722D02*
X15982682Y-12381198D01*
X15982682Y-12381198D02*
X16001729Y-12371674D01*
X16001729Y-12371674D02*
X16049348Y-12371674D01*
X16049348Y-12371674D02*
X16068396Y-12381198D01*
X16068396Y-12381198D02*
X16077920Y-12390722D01*
X16077920Y-12390722D02*
X16087444Y-12409769D01*
X16087444Y-12409769D02*
X16087444Y-12457388D01*
X16087444Y-12457388D02*
X16077920Y-12476436D01*
X16077920Y-12476436D02*
X16068396Y-12485960D01*
X16068396Y-12485960D02*
X16049348Y-12495484D01*
X16049348Y-12495484D02*
X16001729Y-12495484D01*
X16001729Y-12495484D02*
X15982682Y-12485960D01*
X15982682Y-12485960D02*
X15973158Y-12476436D01*
X16163634Y-12295484D02*
X16163634Y-12333579D01*
X16239825Y-12295484D02*
X16239825Y-12333579D01*
X16535063Y-12571674D02*
X16525539Y-12562150D01*
X16525539Y-12562150D02*
X16506491Y-12533579D01*
X16506491Y-12533579D02*
X16496968Y-12514531D01*
X16496968Y-12514531D02*
X16487444Y-12485960D01*
X16487444Y-12485960D02*
X16477920Y-12438341D01*
X16477920Y-12438341D02*
X16477920Y-12400246D01*
X16477920Y-12400246D02*
X16487444Y-12352627D01*
X16487444Y-12352627D02*
X16496968Y-12324055D01*
X16496968Y-12324055D02*
X16506491Y-12305008D01*
X16506491Y-12305008D02*
X16525539Y-12276436D01*
X16525539Y-12276436D02*
X16535063Y-12266912D01*
X16592206Y-12295484D02*
X16725539Y-12295484D01*
X16725539Y-12295484D02*
X16639825Y-12495484D01*
X16792206Y-12314531D02*
X16801730Y-12305008D01*
X16801730Y-12305008D02*
X16820777Y-12295484D01*
X16820777Y-12295484D02*
X16868396Y-12295484D01*
X16868396Y-12295484D02*
X16887444Y-12305008D01*
X16887444Y-12305008D02*
X16896968Y-12314531D01*
X16896968Y-12314531D02*
X16906491Y-12333579D01*
X16906491Y-12333579D02*
X16906491Y-12352627D01*
X16906491Y-12352627D02*
X16896968Y-12381198D01*
X16896968Y-12381198D02*
X16782682Y-12495484D01*
X16782682Y-12495484D02*
X16906491Y-12495484D01*
X17144587Y-12495484D02*
X17144587Y-12295484D01*
X17230301Y-12495484D02*
X17230301Y-12390722D01*
X17230301Y-12390722D02*
X17220777Y-12371674D01*
X17220777Y-12371674D02*
X17201730Y-12362150D01*
X17201730Y-12362150D02*
X17173158Y-12362150D01*
X17173158Y-12362150D02*
X17154111Y-12371674D01*
X17154111Y-12371674D02*
X17144587Y-12381198D01*
X17354111Y-12495484D02*
X17335063Y-12485960D01*
X17335063Y-12485960D02*
X17325539Y-12476436D01*
X17325539Y-12476436D02*
X17316015Y-12457388D01*
X17316015Y-12457388D02*
X17316015Y-12400246D01*
X17316015Y-12400246D02*
X17325539Y-12381198D01*
X17325539Y-12381198D02*
X17335063Y-12371674D01*
X17335063Y-12371674D02*
X17354111Y-12362150D01*
X17354111Y-12362150D02*
X17382682Y-12362150D01*
X17382682Y-12362150D02*
X17401730Y-12371674D01*
X17401730Y-12371674D02*
X17411253Y-12381198D01*
X17411253Y-12381198D02*
X17420777Y-12400246D01*
X17420777Y-12400246D02*
X17420777Y-12457388D01*
X17420777Y-12457388D02*
X17411253Y-12476436D01*
X17411253Y-12476436D02*
X17401730Y-12485960D01*
X17401730Y-12485960D02*
X17382682Y-12495484D01*
X17382682Y-12495484D02*
X17354111Y-12495484D01*
X17535063Y-12495484D02*
X17516015Y-12485960D01*
X17516015Y-12485960D02*
X17506492Y-12466912D01*
X17506492Y-12466912D02*
X17506492Y-12295484D01*
X17687444Y-12485960D02*
X17668396Y-12495484D01*
X17668396Y-12495484D02*
X17630301Y-12495484D01*
X17630301Y-12495484D02*
X17611253Y-12485960D01*
X17611253Y-12485960D02*
X17601730Y-12466912D01*
X17601730Y-12466912D02*
X17601730Y-12390722D01*
X17601730Y-12390722D02*
X17611253Y-12371674D01*
X17611253Y-12371674D02*
X17630301Y-12362150D01*
X17630301Y-12362150D02*
X17668396Y-12362150D01*
X17668396Y-12362150D02*
X17687444Y-12371674D01*
X17687444Y-12371674D02*
X17696968Y-12390722D01*
X17696968Y-12390722D02*
X17696968Y-12409769D01*
X17696968Y-12409769D02*
X17601730Y-12428817D01*
X17773158Y-12485960D02*
X17792206Y-12495484D01*
X17792206Y-12495484D02*
X17830301Y-12495484D01*
X17830301Y-12495484D02*
X17849349Y-12485960D01*
X17849349Y-12485960D02*
X17858873Y-12466912D01*
X17858873Y-12466912D02*
X17858873Y-12457388D01*
X17858873Y-12457388D02*
X17849349Y-12438341D01*
X17849349Y-12438341D02*
X17830301Y-12428817D01*
X17830301Y-12428817D02*
X17801730Y-12428817D01*
X17801730Y-12428817D02*
X17782682Y-12419293D01*
X17782682Y-12419293D02*
X17773158Y-12400246D01*
X17773158Y-12400246D02*
X17773158Y-12390722D01*
X17773158Y-12390722D02*
X17782682Y-12371674D01*
X17782682Y-12371674D02*
X17801730Y-12362150D01*
X17801730Y-12362150D02*
X17830301Y-12362150D01*
X17830301Y-12362150D02*
X17849349Y-12371674D01*
X18096968Y-12419293D02*
X18249349Y-12419293D01*
X18173158Y-12495484D02*
X18173158Y-12343103D01*
X18477920Y-12295484D02*
X18601730Y-12295484D01*
X18601730Y-12295484D02*
X18535063Y-12371674D01*
X18535063Y-12371674D02*
X18563635Y-12371674D01*
X18563635Y-12371674D02*
X18582682Y-12381198D01*
X18582682Y-12381198D02*
X18592206Y-12390722D01*
X18592206Y-12390722D02*
X18601730Y-12409769D01*
X18601730Y-12409769D02*
X18601730Y-12457388D01*
X18601730Y-12457388D02*
X18592206Y-12476436D01*
X18592206Y-12476436D02*
X18582682Y-12485960D01*
X18582682Y-12485960D02*
X18563635Y-12495484D01*
X18563635Y-12495484D02*
X18506492Y-12495484D01*
X18506492Y-12495484D02*
X18487444Y-12485960D01*
X18487444Y-12485960D02*
X18477920Y-12476436D01*
X18830301Y-12485960D02*
X18849349Y-12495484D01*
X18849349Y-12495484D02*
X18887444Y-12495484D01*
X18887444Y-12495484D02*
X18906492Y-12485960D01*
X18906492Y-12485960D02*
X18916016Y-12466912D01*
X18916016Y-12466912D02*
X18916016Y-12457388D01*
X18916016Y-12457388D02*
X18906492Y-12438341D01*
X18906492Y-12438341D02*
X18887444Y-12428817D01*
X18887444Y-12428817D02*
X18858873Y-12428817D01*
X18858873Y-12428817D02*
X18839825Y-12419293D01*
X18839825Y-12419293D02*
X18830301Y-12400246D01*
X18830301Y-12400246D02*
X18830301Y-12390722D01*
X18830301Y-12390722D02*
X18839825Y-12371674D01*
X18839825Y-12371674D02*
X18858873Y-12362150D01*
X18858873Y-12362150D02*
X18887444Y-12362150D01*
X18887444Y-12362150D02*
X18906492Y-12371674D01*
X19030301Y-12495484D02*
X19011254Y-12485960D01*
X19011254Y-12485960D02*
X19001730Y-12466912D01*
X19001730Y-12466912D02*
X19001730Y-12295484D01*
X19135063Y-12495484D02*
X19116016Y-12485960D01*
X19116016Y-12485960D02*
X19106492Y-12476436D01*
X19106492Y-12476436D02*
X19096968Y-12457388D01*
X19096968Y-12457388D02*
X19096968Y-12400246D01*
X19096968Y-12400246D02*
X19106492Y-12381198D01*
X19106492Y-12381198D02*
X19116016Y-12371674D01*
X19116016Y-12371674D02*
X19135063Y-12362150D01*
X19135063Y-12362150D02*
X19163635Y-12362150D01*
X19163635Y-12362150D02*
X19182682Y-12371674D01*
X19182682Y-12371674D02*
X19192206Y-12381198D01*
X19192206Y-12381198D02*
X19201730Y-12400246D01*
X19201730Y-12400246D02*
X19201730Y-12457388D01*
X19201730Y-12457388D02*
X19192206Y-12476436D01*
X19192206Y-12476436D02*
X19182682Y-12485960D01*
X19182682Y-12485960D02*
X19163635Y-12495484D01*
X19163635Y-12495484D02*
X19135063Y-12495484D01*
X19258873Y-12362150D02*
X19335063Y-12362150D01*
X19287444Y-12295484D02*
X19287444Y-12466912D01*
X19287444Y-12466912D02*
X19296968Y-12485960D01*
X19296968Y-12485960D02*
X19316016Y-12495484D01*
X19316016Y-12495484D02*
X19335063Y-12495484D01*
X19392206Y-12485960D02*
X19411254Y-12495484D01*
X19411254Y-12495484D02*
X19449349Y-12495484D01*
X19449349Y-12495484D02*
X19468397Y-12485960D01*
X19468397Y-12485960D02*
X19477920Y-12466912D01*
X19477920Y-12466912D02*
X19477920Y-12457388D01*
X19477920Y-12457388D02*
X19468397Y-12438341D01*
X19468397Y-12438341D02*
X19449349Y-12428817D01*
X19449349Y-12428817D02*
X19420777Y-12428817D01*
X19420777Y-12428817D02*
X19401730Y-12419293D01*
X19401730Y-12419293D02*
X19392206Y-12400246D01*
X19392206Y-12400246D02*
X19392206Y-12390722D01*
X19392206Y-12390722D02*
X19401730Y-12371674D01*
X19401730Y-12371674D02*
X19420777Y-12362150D01*
X19420777Y-12362150D02*
X19449349Y-12362150D01*
X19449349Y-12362150D02*
X19468397Y-12371674D01*
X19544587Y-12571674D02*
X19554111Y-12562150D01*
X19554111Y-12562150D02*
X19573158Y-12533579D01*
X19573158Y-12533579D02*
X19582682Y-12514531D01*
X19582682Y-12514531D02*
X19592206Y-12485960D01*
X19592206Y-12485960D02*
X19601730Y-12438341D01*
X19601730Y-12438341D02*
X19601730Y-12400246D01*
X19601730Y-12400246D02*
X19592206Y-12352627D01*
X19592206Y-12352627D02*
X19582682Y-12324055D01*
X19582682Y-12324055D02*
X19573158Y-12305008D01*
X19573158Y-12305008D02*
X19554111Y-12276436D01*
X19554111Y-12276436D02*
X19544587Y-12266912D01*
D14*
X12912500Y-12620500D02*
X12912500Y-12715500D01*
X12865000Y-12668000D02*
X12960000Y-12668000D01*
D11*
X13258872Y-12559484D02*
X13277920Y-12559484D01*
X13277920Y-12559484D02*
X13296967Y-12569008D01*
X13296967Y-12569008D02*
X13306491Y-12578531D01*
X13306491Y-12578531D02*
X13316015Y-12597579D01*
X13316015Y-12597579D02*
X13325539Y-12635674D01*
X13325539Y-12635674D02*
X13325539Y-12683293D01*
X13325539Y-12683293D02*
X13316015Y-12721388D01*
X13316015Y-12721388D02*
X13306491Y-12740436D01*
X13306491Y-12740436D02*
X13296967Y-12749960D01*
X13296967Y-12749960D02*
X13277920Y-12759484D01*
X13277920Y-12759484D02*
X13258872Y-12759484D01*
X13258872Y-12759484D02*
X13239824Y-12749960D01*
X13239824Y-12749960D02*
X13230301Y-12740436D01*
X13230301Y-12740436D02*
X13220777Y-12721388D01*
X13220777Y-12721388D02*
X13211253Y-12683293D01*
X13211253Y-12683293D02*
X13211253Y-12635674D01*
X13211253Y-12635674D02*
X13220777Y-12597579D01*
X13220777Y-12597579D02*
X13230301Y-12578531D01*
X13230301Y-12578531D02*
X13239824Y-12569008D01*
X13239824Y-12569008D02*
X13258872Y-12559484D01*
X13411253Y-12740436D02*
X13420777Y-12749960D01*
X13420777Y-12749960D02*
X13411253Y-12759484D01*
X13411253Y-12759484D02*
X13401729Y-12749960D01*
X13401729Y-12749960D02*
X13411253Y-12740436D01*
X13411253Y-12740436D02*
X13411253Y-12759484D01*
X13516015Y-12759484D02*
X13554110Y-12759484D01*
X13554110Y-12759484D02*
X13573158Y-12749960D01*
X13573158Y-12749960D02*
X13582682Y-12740436D01*
X13582682Y-12740436D02*
X13601729Y-12711865D01*
X13601729Y-12711865D02*
X13611253Y-12673769D01*
X13611253Y-12673769D02*
X13611253Y-12597579D01*
X13611253Y-12597579D02*
X13601729Y-12578531D01*
X13601729Y-12578531D02*
X13592205Y-12569008D01*
X13592205Y-12569008D02*
X13573158Y-12559484D01*
X13573158Y-12559484D02*
X13535062Y-12559484D01*
X13535062Y-12559484D02*
X13516015Y-12569008D01*
X13516015Y-12569008D02*
X13506491Y-12578531D01*
X13506491Y-12578531D02*
X13496967Y-12597579D01*
X13496967Y-12597579D02*
X13496967Y-12645198D01*
X13496967Y-12645198D02*
X13506491Y-12664246D01*
X13506491Y-12664246D02*
X13516015Y-12673769D01*
X13516015Y-12673769D02*
X13535062Y-12683293D01*
X13535062Y-12683293D02*
X13573158Y-12683293D01*
X13573158Y-12683293D02*
X13592205Y-12673769D01*
X13592205Y-12673769D02*
X13601729Y-12664246D01*
X13601729Y-12664246D02*
X13611253Y-12645198D01*
X13792205Y-12559484D02*
X13696967Y-12559484D01*
X13696967Y-12559484D02*
X13687443Y-12654722D01*
X13687443Y-12654722D02*
X13696967Y-12645198D01*
X13696967Y-12645198D02*
X13716015Y-12635674D01*
X13716015Y-12635674D02*
X13763634Y-12635674D01*
X13763634Y-12635674D02*
X13782682Y-12645198D01*
X13782682Y-12645198D02*
X13792205Y-12654722D01*
X13792205Y-12654722D02*
X13801729Y-12673769D01*
X13801729Y-12673769D02*
X13801729Y-12721388D01*
X13801729Y-12721388D02*
X13792205Y-12740436D01*
X13792205Y-12740436D02*
X13782682Y-12749960D01*
X13782682Y-12749960D02*
X13763634Y-12759484D01*
X13763634Y-12759484D02*
X13716015Y-12759484D01*
X13716015Y-12759484D02*
X13696967Y-12749960D01*
X13696967Y-12749960D02*
X13687443Y-12740436D01*
X13925539Y-12559484D02*
X13944586Y-12559484D01*
X13944586Y-12559484D02*
X13963634Y-12569008D01*
X13963634Y-12569008D02*
X13973158Y-12578531D01*
X13973158Y-12578531D02*
X13982682Y-12597579D01*
X13982682Y-12597579D02*
X13992205Y-12635674D01*
X13992205Y-12635674D02*
X13992205Y-12683293D01*
X13992205Y-12683293D02*
X13982682Y-12721388D01*
X13982682Y-12721388D02*
X13973158Y-12740436D01*
X13973158Y-12740436D02*
X13963634Y-12749960D01*
X13963634Y-12749960D02*
X13944586Y-12759484D01*
X13944586Y-12759484D02*
X13925539Y-12759484D01*
X13925539Y-12759484D02*
X13906491Y-12749960D01*
X13906491Y-12749960D02*
X13896967Y-12740436D01*
X13896967Y-12740436D02*
X13887443Y-12721388D01*
X13887443Y-12721388D02*
X13877920Y-12683293D01*
X13877920Y-12683293D02*
X13877920Y-12635674D01*
X13877920Y-12635674D02*
X13887443Y-12597579D01*
X13887443Y-12597579D02*
X13896967Y-12578531D01*
X13896967Y-12578531D02*
X13906491Y-12569008D01*
X13906491Y-12569008D02*
X13925539Y-12559484D01*
X14077920Y-12759484D02*
X14077920Y-12626150D01*
X14077920Y-12645198D02*
X14087443Y-12635674D01*
X14087443Y-12635674D02*
X14106491Y-12626150D01*
X14106491Y-12626150D02*
X14135063Y-12626150D01*
X14135063Y-12626150D02*
X14154110Y-12635674D01*
X14154110Y-12635674D02*
X14163634Y-12654722D01*
X14163634Y-12654722D02*
X14163634Y-12759484D01*
X14163634Y-12654722D02*
X14173158Y-12635674D01*
X14173158Y-12635674D02*
X14192205Y-12626150D01*
X14192205Y-12626150D02*
X14220777Y-12626150D01*
X14220777Y-12626150D02*
X14239824Y-12635674D01*
X14239824Y-12635674D02*
X14249348Y-12654722D01*
X14249348Y-12654722D02*
X14249348Y-12759484D01*
X14344586Y-12759484D02*
X14344586Y-12626150D01*
X14344586Y-12645198D02*
X14354110Y-12635674D01*
X14354110Y-12635674D02*
X14373158Y-12626150D01*
X14373158Y-12626150D02*
X14401729Y-12626150D01*
X14401729Y-12626150D02*
X14420777Y-12635674D01*
X14420777Y-12635674D02*
X14430301Y-12654722D01*
X14430301Y-12654722D02*
X14430301Y-12759484D01*
X14430301Y-12654722D02*
X14439824Y-12635674D01*
X14439824Y-12635674D02*
X14458872Y-12626150D01*
X14458872Y-12626150D02*
X14487443Y-12626150D01*
X14487443Y-12626150D02*
X14506491Y-12635674D01*
X14506491Y-12635674D02*
X14516015Y-12654722D01*
X14516015Y-12654722D02*
X14516015Y-12759484D01*
X14906491Y-12549960D02*
X14735063Y-12807103D01*
X15163634Y-12559484D02*
X15182682Y-12559484D01*
X15182682Y-12559484D02*
X15201729Y-12569008D01*
X15201729Y-12569008D02*
X15211253Y-12578531D01*
X15211253Y-12578531D02*
X15220777Y-12597579D01*
X15220777Y-12597579D02*
X15230301Y-12635674D01*
X15230301Y-12635674D02*
X15230301Y-12683293D01*
X15230301Y-12683293D02*
X15220777Y-12721388D01*
X15220777Y-12721388D02*
X15211253Y-12740436D01*
X15211253Y-12740436D02*
X15201729Y-12749960D01*
X15201729Y-12749960D02*
X15182682Y-12759484D01*
X15182682Y-12759484D02*
X15163634Y-12759484D01*
X15163634Y-12759484D02*
X15144586Y-12749960D01*
X15144586Y-12749960D02*
X15135063Y-12740436D01*
X15135063Y-12740436D02*
X15125539Y-12721388D01*
X15125539Y-12721388D02*
X15116015Y-12683293D01*
X15116015Y-12683293D02*
X15116015Y-12635674D01*
X15116015Y-12635674D02*
X15125539Y-12597579D01*
X15125539Y-12597579D02*
X15135063Y-12578531D01*
X15135063Y-12578531D02*
X15144586Y-12569008D01*
X15144586Y-12569008D02*
X15163634Y-12559484D01*
X15316015Y-12740436D02*
X15325539Y-12749960D01*
X15325539Y-12749960D02*
X15316015Y-12759484D01*
X15316015Y-12759484D02*
X15306491Y-12749960D01*
X15306491Y-12749960D02*
X15316015Y-12740436D01*
X15316015Y-12740436D02*
X15316015Y-12759484D01*
X15449348Y-12559484D02*
X15468396Y-12559484D01*
X15468396Y-12559484D02*
X15487444Y-12569008D01*
X15487444Y-12569008D02*
X15496967Y-12578531D01*
X15496967Y-12578531D02*
X15506491Y-12597579D01*
X15506491Y-12597579D02*
X15516015Y-12635674D01*
X15516015Y-12635674D02*
X15516015Y-12683293D01*
X15516015Y-12683293D02*
X15506491Y-12721388D01*
X15506491Y-12721388D02*
X15496967Y-12740436D01*
X15496967Y-12740436D02*
X15487444Y-12749960D01*
X15487444Y-12749960D02*
X15468396Y-12759484D01*
X15468396Y-12759484D02*
X15449348Y-12759484D01*
X15449348Y-12759484D02*
X15430301Y-12749960D01*
X15430301Y-12749960D02*
X15420777Y-12740436D01*
X15420777Y-12740436D02*
X15411253Y-12721388D01*
X15411253Y-12721388D02*
X15401729Y-12683293D01*
X15401729Y-12683293D02*
X15401729Y-12635674D01*
X15401729Y-12635674D02*
X15411253Y-12597579D01*
X15411253Y-12597579D02*
X15420777Y-12578531D01*
X15420777Y-12578531D02*
X15430301Y-12569008D01*
X15430301Y-12569008D02*
X15449348Y-12559484D01*
X15582682Y-12559484D02*
X15706491Y-12559484D01*
X15706491Y-12559484D02*
X15639825Y-12635674D01*
X15639825Y-12635674D02*
X15668396Y-12635674D01*
X15668396Y-12635674D02*
X15687444Y-12645198D01*
X15687444Y-12645198D02*
X15696967Y-12654722D01*
X15696967Y-12654722D02*
X15706491Y-12673769D01*
X15706491Y-12673769D02*
X15706491Y-12721388D01*
X15706491Y-12721388D02*
X15696967Y-12740436D01*
X15696967Y-12740436D02*
X15687444Y-12749960D01*
X15687444Y-12749960D02*
X15668396Y-12759484D01*
X15668396Y-12759484D02*
X15611253Y-12759484D01*
X15611253Y-12759484D02*
X15592206Y-12749960D01*
X15592206Y-12749960D02*
X15582682Y-12740436D01*
X15773158Y-12559484D02*
X15906491Y-12559484D01*
X15906491Y-12559484D02*
X15820777Y-12759484D01*
X16068396Y-12626150D02*
X16068396Y-12759484D01*
X16020777Y-12549960D02*
X15973158Y-12692817D01*
X15973158Y-12692817D02*
X16096967Y-12692817D01*
X16163634Y-12559484D02*
X16163634Y-12597579D01*
X16239825Y-12559484D02*
X16239825Y-12597579D01*
X16535063Y-12835674D02*
X16525539Y-12826150D01*
X16525539Y-12826150D02*
X16506491Y-12797579D01*
X16506491Y-12797579D02*
X16496968Y-12778531D01*
X16496968Y-12778531D02*
X16487444Y-12749960D01*
X16487444Y-12749960D02*
X16477920Y-12702341D01*
X16477920Y-12702341D02*
X16477920Y-12664246D01*
X16477920Y-12664246D02*
X16487444Y-12616627D01*
X16487444Y-12616627D02*
X16496968Y-12588055D01*
X16496968Y-12588055D02*
X16506491Y-12569008D01*
X16506491Y-12569008D02*
X16525539Y-12540436D01*
X16525539Y-12540436D02*
X16535063Y-12530912D01*
X16601729Y-12578531D02*
X16611253Y-12569008D01*
X16611253Y-12569008D02*
X16630301Y-12559484D01*
X16630301Y-12559484D02*
X16677920Y-12559484D01*
X16677920Y-12559484D02*
X16696968Y-12569008D01*
X16696968Y-12569008D02*
X16706491Y-12578531D01*
X16706491Y-12578531D02*
X16716015Y-12597579D01*
X16716015Y-12597579D02*
X16716015Y-12616627D01*
X16716015Y-12616627D02*
X16706491Y-12645198D01*
X16706491Y-12645198D02*
X16592206Y-12759484D01*
X16592206Y-12759484D02*
X16716015Y-12759484D01*
X16792206Y-12578531D02*
X16801730Y-12569008D01*
X16801730Y-12569008D02*
X16820777Y-12559484D01*
X16820777Y-12559484D02*
X16868396Y-12559484D01*
X16868396Y-12559484D02*
X16887444Y-12569008D01*
X16887444Y-12569008D02*
X16896968Y-12578531D01*
X16896968Y-12578531D02*
X16906491Y-12597579D01*
X16906491Y-12597579D02*
X16906491Y-12616627D01*
X16906491Y-12616627D02*
X16896968Y-12645198D01*
X16896968Y-12645198D02*
X16782682Y-12759484D01*
X16782682Y-12759484D02*
X16906491Y-12759484D01*
X17144587Y-12759484D02*
X17144587Y-12559484D01*
X17230301Y-12759484D02*
X17230301Y-12654722D01*
X17230301Y-12654722D02*
X17220777Y-12635674D01*
X17220777Y-12635674D02*
X17201730Y-12626150D01*
X17201730Y-12626150D02*
X17173158Y-12626150D01*
X17173158Y-12626150D02*
X17154111Y-12635674D01*
X17154111Y-12635674D02*
X17144587Y-12645198D01*
X17354111Y-12759484D02*
X17335063Y-12749960D01*
X17335063Y-12749960D02*
X17325539Y-12740436D01*
X17325539Y-12740436D02*
X17316015Y-12721388D01*
X17316015Y-12721388D02*
X17316015Y-12664246D01*
X17316015Y-12664246D02*
X17325539Y-12645198D01*
X17325539Y-12645198D02*
X17335063Y-12635674D01*
X17335063Y-12635674D02*
X17354111Y-12626150D01*
X17354111Y-12626150D02*
X17382682Y-12626150D01*
X17382682Y-12626150D02*
X17401730Y-12635674D01*
X17401730Y-12635674D02*
X17411253Y-12645198D01*
X17411253Y-12645198D02*
X17420777Y-12664246D01*
X17420777Y-12664246D02*
X17420777Y-12721388D01*
X17420777Y-12721388D02*
X17411253Y-12740436D01*
X17411253Y-12740436D02*
X17401730Y-12749960D01*
X17401730Y-12749960D02*
X17382682Y-12759484D01*
X17382682Y-12759484D02*
X17354111Y-12759484D01*
X17535063Y-12759484D02*
X17516015Y-12749960D01*
X17516015Y-12749960D02*
X17506492Y-12730912D01*
X17506492Y-12730912D02*
X17506492Y-12559484D01*
X17687444Y-12749960D02*
X17668396Y-12759484D01*
X17668396Y-12759484D02*
X17630301Y-12759484D01*
X17630301Y-12759484D02*
X17611253Y-12749960D01*
X17611253Y-12749960D02*
X17601730Y-12730912D01*
X17601730Y-12730912D02*
X17601730Y-12654722D01*
X17601730Y-12654722D02*
X17611253Y-12635674D01*
X17611253Y-12635674D02*
X17630301Y-12626150D01*
X17630301Y-12626150D02*
X17668396Y-12626150D01*
X17668396Y-12626150D02*
X17687444Y-12635674D01*
X17687444Y-12635674D02*
X17696968Y-12654722D01*
X17696968Y-12654722D02*
X17696968Y-12673769D01*
X17696968Y-12673769D02*
X17601730Y-12692817D01*
X17773158Y-12749960D02*
X17792206Y-12759484D01*
X17792206Y-12759484D02*
X17830301Y-12759484D01*
X17830301Y-12759484D02*
X17849349Y-12749960D01*
X17849349Y-12749960D02*
X17858873Y-12730912D01*
X17858873Y-12730912D02*
X17858873Y-12721388D01*
X17858873Y-12721388D02*
X17849349Y-12702341D01*
X17849349Y-12702341D02*
X17830301Y-12692817D01*
X17830301Y-12692817D02*
X17801730Y-12692817D01*
X17801730Y-12692817D02*
X17782682Y-12683293D01*
X17782682Y-12683293D02*
X17773158Y-12664246D01*
X17773158Y-12664246D02*
X17773158Y-12654722D01*
X17773158Y-12654722D02*
X17782682Y-12635674D01*
X17782682Y-12635674D02*
X17801730Y-12626150D01*
X17801730Y-12626150D02*
X17830301Y-12626150D01*
X17830301Y-12626150D02*
X17849349Y-12635674D01*
X17925539Y-12835674D02*
X17935063Y-12826150D01*
X17935063Y-12826150D02*
X17954111Y-12797579D01*
X17954111Y-12797579D02*
X17963634Y-12778531D01*
X17963634Y-12778531D02*
X17973158Y-12749960D01*
X17973158Y-12749960D02*
X17982682Y-12702341D01*
X17982682Y-12702341D02*
X17982682Y-12664246D01*
X17982682Y-12664246D02*
X17973158Y-12616627D01*
X17973158Y-12616627D02*
X17963634Y-12588055D01*
X17963634Y-12588055D02*
X17954111Y-12569008D01*
X17954111Y-12569008D02*
X17935063Y-12540436D01*
X17935063Y-12540436D02*
X17925539Y-12530912D01*
D10*
X12945356Y-12967356D02*
X12945356Y-12896644D01*
X12874644Y-12896644D01*
X12874644Y-12967356D01*
X12945356Y-12967356D01*
D11*
X13325539Y-13023484D02*
X13211253Y-13023484D01*
X13268396Y-13023484D02*
X13268396Y-12823484D01*
X13268396Y-12823484D02*
X13249348Y-12852055D01*
X13249348Y-12852055D02*
X13230301Y-12871103D01*
X13230301Y-12871103D02*
X13211253Y-12880627D01*
X13411253Y-13004436D02*
X13420777Y-13013960D01*
X13420777Y-13013960D02*
X13411253Y-13023484D01*
X13411253Y-13023484D02*
X13401729Y-13013960D01*
X13401729Y-13013960D02*
X13411253Y-13004436D01*
X13411253Y-13004436D02*
X13411253Y-13023484D01*
X13544586Y-12823484D02*
X13563634Y-12823484D01*
X13563634Y-12823484D02*
X13582682Y-12833008D01*
X13582682Y-12833008D02*
X13592205Y-12842531D01*
X13592205Y-12842531D02*
X13601729Y-12861579D01*
X13601729Y-12861579D02*
X13611253Y-12899674D01*
X13611253Y-12899674D02*
X13611253Y-12947293D01*
X13611253Y-12947293D02*
X13601729Y-12985388D01*
X13601729Y-12985388D02*
X13592205Y-13004436D01*
X13592205Y-13004436D02*
X13582682Y-13013960D01*
X13582682Y-13013960D02*
X13563634Y-13023484D01*
X13563634Y-13023484D02*
X13544586Y-13023484D01*
X13544586Y-13023484D02*
X13525539Y-13013960D01*
X13525539Y-13013960D02*
X13516015Y-13004436D01*
X13516015Y-13004436D02*
X13506491Y-12985388D01*
X13506491Y-12985388D02*
X13496967Y-12947293D01*
X13496967Y-12947293D02*
X13496967Y-12899674D01*
X13496967Y-12899674D02*
X13506491Y-12861579D01*
X13506491Y-12861579D02*
X13516015Y-12842531D01*
X13516015Y-12842531D02*
X13525539Y-12833008D01*
X13525539Y-12833008D02*
X13544586Y-12823484D01*
X13735062Y-12823484D02*
X13754110Y-12823484D01*
X13754110Y-12823484D02*
X13773158Y-12833008D01*
X13773158Y-12833008D02*
X13782682Y-12842531D01*
X13782682Y-12842531D02*
X13792205Y-12861579D01*
X13792205Y-12861579D02*
X13801729Y-12899674D01*
X13801729Y-12899674D02*
X13801729Y-12947293D01*
X13801729Y-12947293D02*
X13792205Y-12985388D01*
X13792205Y-12985388D02*
X13782682Y-13004436D01*
X13782682Y-13004436D02*
X13773158Y-13013960D01*
X13773158Y-13013960D02*
X13754110Y-13023484D01*
X13754110Y-13023484D02*
X13735062Y-13023484D01*
X13735062Y-13023484D02*
X13716015Y-13013960D01*
X13716015Y-13013960D02*
X13706491Y-13004436D01*
X13706491Y-13004436D02*
X13696967Y-12985388D01*
X13696967Y-12985388D02*
X13687443Y-12947293D01*
X13687443Y-12947293D02*
X13687443Y-12899674D01*
X13687443Y-12899674D02*
X13696967Y-12861579D01*
X13696967Y-12861579D02*
X13706491Y-12842531D01*
X13706491Y-12842531D02*
X13716015Y-12833008D01*
X13716015Y-12833008D02*
X13735062Y-12823484D01*
X13925539Y-12823484D02*
X13944586Y-12823484D01*
X13944586Y-12823484D02*
X13963634Y-12833008D01*
X13963634Y-12833008D02*
X13973158Y-12842531D01*
X13973158Y-12842531D02*
X13982682Y-12861579D01*
X13982682Y-12861579D02*
X13992205Y-12899674D01*
X13992205Y-12899674D02*
X13992205Y-12947293D01*
X13992205Y-12947293D02*
X13982682Y-12985388D01*
X13982682Y-12985388D02*
X13973158Y-13004436D01*
X13973158Y-13004436D02*
X13963634Y-13013960D01*
X13963634Y-13013960D02*
X13944586Y-13023484D01*
X13944586Y-13023484D02*
X13925539Y-13023484D01*
X13925539Y-13023484D02*
X13906491Y-13013960D01*
X13906491Y-13013960D02*
X13896967Y-13004436D01*
X13896967Y-13004436D02*
X13887443Y-12985388D01*
X13887443Y-12985388D02*
X13877920Y-12947293D01*
X13877920Y-12947293D02*
X13877920Y-12899674D01*
X13877920Y-12899674D02*
X13887443Y-12861579D01*
X13887443Y-12861579D02*
X13896967Y-12842531D01*
X13896967Y-12842531D02*
X13906491Y-12833008D01*
X13906491Y-12833008D02*
X13925539Y-12823484D01*
X14077920Y-13023484D02*
X14077920Y-12890150D01*
X14077920Y-12909198D02*
X14087443Y-12899674D01*
X14087443Y-12899674D02*
X14106491Y-12890150D01*
X14106491Y-12890150D02*
X14135063Y-12890150D01*
X14135063Y-12890150D02*
X14154110Y-12899674D01*
X14154110Y-12899674D02*
X14163634Y-12918722D01*
X14163634Y-12918722D02*
X14163634Y-13023484D01*
X14163634Y-12918722D02*
X14173158Y-12899674D01*
X14173158Y-12899674D02*
X14192205Y-12890150D01*
X14192205Y-12890150D02*
X14220777Y-12890150D01*
X14220777Y-12890150D02*
X14239824Y-12899674D01*
X14239824Y-12899674D02*
X14249348Y-12918722D01*
X14249348Y-12918722D02*
X14249348Y-13023484D01*
X14344586Y-13023484D02*
X14344586Y-12890150D01*
X14344586Y-12909198D02*
X14354110Y-12899674D01*
X14354110Y-12899674D02*
X14373158Y-12890150D01*
X14373158Y-12890150D02*
X14401729Y-12890150D01*
X14401729Y-12890150D02*
X14420777Y-12899674D01*
X14420777Y-12899674D02*
X14430301Y-12918722D01*
X14430301Y-12918722D02*
X14430301Y-13023484D01*
X14430301Y-12918722D02*
X14439824Y-12899674D01*
X14439824Y-12899674D02*
X14458872Y-12890150D01*
X14458872Y-12890150D02*
X14487443Y-12890150D01*
X14487443Y-12890150D02*
X14506491Y-12899674D01*
X14506491Y-12899674D02*
X14516015Y-12918722D01*
X14516015Y-12918722D02*
X14516015Y-13023484D01*
X14906491Y-12813960D02*
X14735063Y-13071103D01*
X15163634Y-12823484D02*
X15182682Y-12823484D01*
X15182682Y-12823484D02*
X15201729Y-12833008D01*
X15201729Y-12833008D02*
X15211253Y-12842531D01*
X15211253Y-12842531D02*
X15220777Y-12861579D01*
X15220777Y-12861579D02*
X15230301Y-12899674D01*
X15230301Y-12899674D02*
X15230301Y-12947293D01*
X15230301Y-12947293D02*
X15220777Y-12985388D01*
X15220777Y-12985388D02*
X15211253Y-13004436D01*
X15211253Y-13004436D02*
X15201729Y-13013960D01*
X15201729Y-13013960D02*
X15182682Y-13023484D01*
X15182682Y-13023484D02*
X15163634Y-13023484D01*
X15163634Y-13023484D02*
X15144586Y-13013960D01*
X15144586Y-13013960D02*
X15135063Y-13004436D01*
X15135063Y-13004436D02*
X15125539Y-12985388D01*
X15125539Y-12985388D02*
X15116015Y-12947293D01*
X15116015Y-12947293D02*
X15116015Y-12899674D01*
X15116015Y-12899674D02*
X15125539Y-12861579D01*
X15125539Y-12861579D02*
X15135063Y-12842531D01*
X15135063Y-12842531D02*
X15144586Y-12833008D01*
X15144586Y-12833008D02*
X15163634Y-12823484D01*
X15316015Y-13004436D02*
X15325539Y-13013960D01*
X15325539Y-13013960D02*
X15316015Y-13023484D01*
X15316015Y-13023484D02*
X15306491Y-13013960D01*
X15306491Y-13013960D02*
X15316015Y-13004436D01*
X15316015Y-13004436D02*
X15316015Y-13023484D01*
X15449348Y-12823484D02*
X15468396Y-12823484D01*
X15468396Y-12823484D02*
X15487444Y-12833008D01*
X15487444Y-12833008D02*
X15496967Y-12842531D01*
X15496967Y-12842531D02*
X15506491Y-12861579D01*
X15506491Y-12861579D02*
X15516015Y-12899674D01*
X15516015Y-12899674D02*
X15516015Y-12947293D01*
X15516015Y-12947293D02*
X15506491Y-12985388D01*
X15506491Y-12985388D02*
X15496967Y-13004436D01*
X15496967Y-13004436D02*
X15487444Y-13013960D01*
X15487444Y-13013960D02*
X15468396Y-13023484D01*
X15468396Y-13023484D02*
X15449348Y-13023484D01*
X15449348Y-13023484D02*
X15430301Y-13013960D01*
X15430301Y-13013960D02*
X15420777Y-13004436D01*
X15420777Y-13004436D02*
X15411253Y-12985388D01*
X15411253Y-12985388D02*
X15401729Y-12947293D01*
X15401729Y-12947293D02*
X15401729Y-12899674D01*
X15401729Y-12899674D02*
X15411253Y-12861579D01*
X15411253Y-12861579D02*
X15420777Y-12842531D01*
X15420777Y-12842531D02*
X15430301Y-12833008D01*
X15430301Y-12833008D02*
X15449348Y-12823484D01*
X15582682Y-12823484D02*
X15706491Y-12823484D01*
X15706491Y-12823484D02*
X15639825Y-12899674D01*
X15639825Y-12899674D02*
X15668396Y-12899674D01*
X15668396Y-12899674D02*
X15687444Y-12909198D01*
X15687444Y-12909198D02*
X15696967Y-12918722D01*
X15696967Y-12918722D02*
X15706491Y-12937769D01*
X15706491Y-12937769D02*
X15706491Y-12985388D01*
X15706491Y-12985388D02*
X15696967Y-13004436D01*
X15696967Y-13004436D02*
X15687444Y-13013960D01*
X15687444Y-13013960D02*
X15668396Y-13023484D01*
X15668396Y-13023484D02*
X15611253Y-13023484D01*
X15611253Y-13023484D02*
X15592206Y-13013960D01*
X15592206Y-13013960D02*
X15582682Y-13004436D01*
X15801729Y-13023484D02*
X15839825Y-13023484D01*
X15839825Y-13023484D02*
X15858872Y-13013960D01*
X15858872Y-13013960D02*
X15868396Y-13004436D01*
X15868396Y-13004436D02*
X15887444Y-12975865D01*
X15887444Y-12975865D02*
X15896967Y-12937769D01*
X15896967Y-12937769D02*
X15896967Y-12861579D01*
X15896967Y-12861579D02*
X15887444Y-12842531D01*
X15887444Y-12842531D02*
X15877920Y-12833008D01*
X15877920Y-12833008D02*
X15858872Y-12823484D01*
X15858872Y-12823484D02*
X15820777Y-12823484D01*
X15820777Y-12823484D02*
X15801729Y-12833008D01*
X15801729Y-12833008D02*
X15792206Y-12842531D01*
X15792206Y-12842531D02*
X15782682Y-12861579D01*
X15782682Y-12861579D02*
X15782682Y-12909198D01*
X15782682Y-12909198D02*
X15792206Y-12928246D01*
X15792206Y-12928246D02*
X15801729Y-12937769D01*
X15801729Y-12937769D02*
X15820777Y-12947293D01*
X15820777Y-12947293D02*
X15858872Y-12947293D01*
X15858872Y-12947293D02*
X15877920Y-12937769D01*
X15877920Y-12937769D02*
X15887444Y-12928246D01*
X15887444Y-12928246D02*
X15896967Y-12909198D01*
X16068396Y-12890150D02*
X16068396Y-13023484D01*
X16020777Y-12813960D02*
X15973158Y-12956817D01*
X15973158Y-12956817D02*
X16096967Y-12956817D01*
X16163634Y-12823484D02*
X16163634Y-12861579D01*
X16239825Y-12823484D02*
X16239825Y-12861579D01*
X16535063Y-13099674D02*
X16525539Y-13090150D01*
X16525539Y-13090150D02*
X16506491Y-13061579D01*
X16506491Y-13061579D02*
X16496968Y-13042531D01*
X16496968Y-13042531D02*
X16487444Y-13013960D01*
X16487444Y-13013960D02*
X16477920Y-12966341D01*
X16477920Y-12966341D02*
X16477920Y-12928246D01*
X16477920Y-12928246D02*
X16487444Y-12880627D01*
X16487444Y-12880627D02*
X16496968Y-12852055D01*
X16496968Y-12852055D02*
X16506491Y-12833008D01*
X16506491Y-12833008D02*
X16525539Y-12804436D01*
X16525539Y-12804436D02*
X16535063Y-12794912D01*
X16716015Y-13023484D02*
X16601729Y-13023484D01*
X16658872Y-13023484D02*
X16658872Y-12823484D01*
X16658872Y-12823484D02*
X16639825Y-12852055D01*
X16639825Y-12852055D02*
X16620777Y-12871103D01*
X16620777Y-12871103D02*
X16601729Y-12880627D01*
X16906491Y-13023484D02*
X16792206Y-13023484D01*
X16849349Y-13023484D02*
X16849349Y-12823484D01*
X16849349Y-12823484D02*
X16830301Y-12852055D01*
X16830301Y-12852055D02*
X16811253Y-12871103D01*
X16811253Y-12871103D02*
X16792206Y-12880627D01*
X17144587Y-13023484D02*
X17144587Y-12823484D01*
X17230301Y-13023484D02*
X17230301Y-12918722D01*
X17230301Y-12918722D02*
X17220777Y-12899674D01*
X17220777Y-12899674D02*
X17201730Y-12890150D01*
X17201730Y-12890150D02*
X17173158Y-12890150D01*
X17173158Y-12890150D02*
X17154111Y-12899674D01*
X17154111Y-12899674D02*
X17144587Y-12909198D01*
X17354111Y-13023484D02*
X17335063Y-13013960D01*
X17335063Y-13013960D02*
X17325539Y-13004436D01*
X17325539Y-13004436D02*
X17316015Y-12985388D01*
X17316015Y-12985388D02*
X17316015Y-12928246D01*
X17316015Y-12928246D02*
X17325539Y-12909198D01*
X17325539Y-12909198D02*
X17335063Y-12899674D01*
X17335063Y-12899674D02*
X17354111Y-12890150D01*
X17354111Y-12890150D02*
X17382682Y-12890150D01*
X17382682Y-12890150D02*
X17401730Y-12899674D01*
X17401730Y-12899674D02*
X17411253Y-12909198D01*
X17411253Y-12909198D02*
X17420777Y-12928246D01*
X17420777Y-12928246D02*
X17420777Y-12985388D01*
X17420777Y-12985388D02*
X17411253Y-13004436D01*
X17411253Y-13004436D02*
X17401730Y-13013960D01*
X17401730Y-13013960D02*
X17382682Y-13023484D01*
X17382682Y-13023484D02*
X17354111Y-13023484D01*
X17535063Y-13023484D02*
X17516015Y-13013960D01*
X17516015Y-13013960D02*
X17506492Y-12994912D01*
X17506492Y-12994912D02*
X17506492Y-12823484D01*
X17687444Y-13013960D02*
X17668396Y-13023484D01*
X17668396Y-13023484D02*
X17630301Y-13023484D01*
X17630301Y-13023484D02*
X17611253Y-13013960D01*
X17611253Y-13013960D02*
X17601730Y-12994912D01*
X17601730Y-12994912D02*
X17601730Y-12918722D01*
X17601730Y-12918722D02*
X17611253Y-12899674D01*
X17611253Y-12899674D02*
X17630301Y-12890150D01*
X17630301Y-12890150D02*
X17668396Y-12890150D01*
X17668396Y-12890150D02*
X17687444Y-12899674D01*
X17687444Y-12899674D02*
X17696968Y-12918722D01*
X17696968Y-12918722D02*
X17696968Y-12937769D01*
X17696968Y-12937769D02*
X17601730Y-12956817D01*
X17773158Y-13013960D02*
X17792206Y-13023484D01*
X17792206Y-13023484D02*
X17830301Y-13023484D01*
X17830301Y-13023484D02*
X17849349Y-13013960D01*
X17849349Y-13013960D02*
X17858873Y-12994912D01*
X17858873Y-12994912D02*
X17858873Y-12985388D01*
X17858873Y-12985388D02*
X17849349Y-12966341D01*
X17849349Y-12966341D02*
X17830301Y-12956817D01*
X17830301Y-12956817D02*
X17801730Y-12956817D01*
X17801730Y-12956817D02*
X17782682Y-12947293D01*
X17782682Y-12947293D02*
X17773158Y-12928246D01*
X17773158Y-12928246D02*
X17773158Y-12918722D01*
X17773158Y-12918722D02*
X17782682Y-12899674D01*
X17782682Y-12899674D02*
X17801730Y-12890150D01*
X17801730Y-12890150D02*
X17830301Y-12890150D01*
X17830301Y-12890150D02*
X17849349Y-12899674D01*
X17925539Y-13099674D02*
X17935063Y-13090150D01*
X17935063Y-13090150D02*
X17954111Y-13061579D01*
X17954111Y-13061579D02*
X17963634Y-13042531D01*
X17963634Y-13042531D02*
X17973158Y-13013960D01*
X17973158Y-13013960D02*
X17982682Y-12966341D01*
X17982682Y-12966341D02*
X17982682Y-12928246D01*
X17982682Y-12928246D02*
X17973158Y-12880627D01*
X17973158Y-12880627D02*
X17963634Y-12852055D01*
X17963634Y-12852055D02*
X17954111Y-12833008D01*
X17954111Y-12833008D02*
X17935063Y-12804436D01*
X17935063Y-12804436D02*
X17925539Y-12794912D01*
D15*
X12909000Y-13247000D02*
X12960000Y-13196000D01*
X12909000Y-13145000D01*
X12858000Y-13196000D01*
X12909000Y-13247000D01*
D11*
X13325539Y-13287484D02*
X13211253Y-13287484D01*
X13268396Y-13287484D02*
X13268396Y-13087484D01*
X13268396Y-13087484D02*
X13249348Y-13116055D01*
X13249348Y-13116055D02*
X13230301Y-13135103D01*
X13230301Y-13135103D02*
X13211253Y-13144627D01*
X13411253Y-13268436D02*
X13420777Y-13277960D01*
X13420777Y-13277960D02*
X13411253Y-13287484D01*
X13411253Y-13287484D02*
X13401729Y-13277960D01*
X13401729Y-13277960D02*
X13411253Y-13268436D01*
X13411253Y-13268436D02*
X13411253Y-13287484D01*
X13544586Y-13087484D02*
X13563634Y-13087484D01*
X13563634Y-13087484D02*
X13582682Y-13097008D01*
X13582682Y-13097008D02*
X13592205Y-13106531D01*
X13592205Y-13106531D02*
X13601729Y-13125579D01*
X13601729Y-13125579D02*
X13611253Y-13163674D01*
X13611253Y-13163674D02*
X13611253Y-13211293D01*
X13611253Y-13211293D02*
X13601729Y-13249388D01*
X13601729Y-13249388D02*
X13592205Y-13268436D01*
X13592205Y-13268436D02*
X13582682Y-13277960D01*
X13582682Y-13277960D02*
X13563634Y-13287484D01*
X13563634Y-13287484D02*
X13544586Y-13287484D01*
X13544586Y-13287484D02*
X13525539Y-13277960D01*
X13525539Y-13277960D02*
X13516015Y-13268436D01*
X13516015Y-13268436D02*
X13506491Y-13249388D01*
X13506491Y-13249388D02*
X13496967Y-13211293D01*
X13496967Y-13211293D02*
X13496967Y-13163674D01*
X13496967Y-13163674D02*
X13506491Y-13125579D01*
X13506491Y-13125579D02*
X13516015Y-13106531D01*
X13516015Y-13106531D02*
X13525539Y-13097008D01*
X13525539Y-13097008D02*
X13544586Y-13087484D01*
X13687443Y-13106531D02*
X13696967Y-13097008D01*
X13696967Y-13097008D02*
X13716015Y-13087484D01*
X13716015Y-13087484D02*
X13763634Y-13087484D01*
X13763634Y-13087484D02*
X13782682Y-13097008D01*
X13782682Y-13097008D02*
X13792205Y-13106531D01*
X13792205Y-13106531D02*
X13801729Y-13125579D01*
X13801729Y-13125579D02*
X13801729Y-13144627D01*
X13801729Y-13144627D02*
X13792205Y-13173198D01*
X13792205Y-13173198D02*
X13677920Y-13287484D01*
X13677920Y-13287484D02*
X13801729Y-13287484D01*
X13925539Y-13087484D02*
X13944586Y-13087484D01*
X13944586Y-13087484D02*
X13963634Y-13097008D01*
X13963634Y-13097008D02*
X13973158Y-13106531D01*
X13973158Y-13106531D02*
X13982682Y-13125579D01*
X13982682Y-13125579D02*
X13992205Y-13163674D01*
X13992205Y-13163674D02*
X13992205Y-13211293D01*
X13992205Y-13211293D02*
X13982682Y-13249388D01*
X13982682Y-13249388D02*
X13973158Y-13268436D01*
X13973158Y-13268436D02*
X13963634Y-13277960D01*
X13963634Y-13277960D02*
X13944586Y-13287484D01*
X13944586Y-13287484D02*
X13925539Y-13287484D01*
X13925539Y-13287484D02*
X13906491Y-13277960D01*
X13906491Y-13277960D02*
X13896967Y-13268436D01*
X13896967Y-13268436D02*
X13887443Y-13249388D01*
X13887443Y-13249388D02*
X13877920Y-13211293D01*
X13877920Y-13211293D02*
X13877920Y-13163674D01*
X13877920Y-13163674D02*
X13887443Y-13125579D01*
X13887443Y-13125579D02*
X13896967Y-13106531D01*
X13896967Y-13106531D02*
X13906491Y-13097008D01*
X13906491Y-13097008D02*
X13925539Y-13087484D01*
X14077920Y-13287484D02*
X14077920Y-13154150D01*
X14077920Y-13173198D02*
X14087443Y-13163674D01*
X14087443Y-13163674D02*
X14106491Y-13154150D01*
X14106491Y-13154150D02*
X14135063Y-13154150D01*
X14135063Y-13154150D02*
X14154110Y-13163674D01*
X14154110Y-13163674D02*
X14163634Y-13182722D01*
X14163634Y-13182722D02*
X14163634Y-13287484D01*
X14163634Y-13182722D02*
X14173158Y-13163674D01*
X14173158Y-13163674D02*
X14192205Y-13154150D01*
X14192205Y-13154150D02*
X14220777Y-13154150D01*
X14220777Y-13154150D02*
X14239824Y-13163674D01*
X14239824Y-13163674D02*
X14249348Y-13182722D01*
X14249348Y-13182722D02*
X14249348Y-13287484D01*
X14344586Y-13287484D02*
X14344586Y-13154150D01*
X14344586Y-13173198D02*
X14354110Y-13163674D01*
X14354110Y-13163674D02*
X14373158Y-13154150D01*
X14373158Y-13154150D02*
X14401729Y-13154150D01*
X14401729Y-13154150D02*
X14420777Y-13163674D01*
X14420777Y-13163674D02*
X14430301Y-13182722D01*
X14430301Y-13182722D02*
X14430301Y-13287484D01*
X14430301Y-13182722D02*
X14439824Y-13163674D01*
X14439824Y-13163674D02*
X14458872Y-13154150D01*
X14458872Y-13154150D02*
X14487443Y-13154150D01*
X14487443Y-13154150D02*
X14506491Y-13163674D01*
X14506491Y-13163674D02*
X14516015Y-13182722D01*
X14516015Y-13182722D02*
X14516015Y-13287484D01*
X14906491Y-13077960D02*
X14735063Y-13335103D01*
X15163634Y-13087484D02*
X15182682Y-13087484D01*
X15182682Y-13087484D02*
X15201729Y-13097008D01*
X15201729Y-13097008D02*
X15211253Y-13106531D01*
X15211253Y-13106531D02*
X15220777Y-13125579D01*
X15220777Y-13125579D02*
X15230301Y-13163674D01*
X15230301Y-13163674D02*
X15230301Y-13211293D01*
X15230301Y-13211293D02*
X15220777Y-13249388D01*
X15220777Y-13249388D02*
X15211253Y-13268436D01*
X15211253Y-13268436D02*
X15201729Y-13277960D01*
X15201729Y-13277960D02*
X15182682Y-13287484D01*
X15182682Y-13287484D02*
X15163634Y-13287484D01*
X15163634Y-13287484D02*
X15144586Y-13277960D01*
X15144586Y-13277960D02*
X15135063Y-13268436D01*
X15135063Y-13268436D02*
X15125539Y-13249388D01*
X15125539Y-13249388D02*
X15116015Y-13211293D01*
X15116015Y-13211293D02*
X15116015Y-13163674D01*
X15116015Y-13163674D02*
X15125539Y-13125579D01*
X15125539Y-13125579D02*
X15135063Y-13106531D01*
X15135063Y-13106531D02*
X15144586Y-13097008D01*
X15144586Y-13097008D02*
X15163634Y-13087484D01*
X15316015Y-13268436D02*
X15325539Y-13277960D01*
X15325539Y-13277960D02*
X15316015Y-13287484D01*
X15316015Y-13287484D02*
X15306491Y-13277960D01*
X15306491Y-13277960D02*
X15316015Y-13268436D01*
X15316015Y-13268436D02*
X15316015Y-13287484D01*
X15449348Y-13087484D02*
X15468396Y-13087484D01*
X15468396Y-13087484D02*
X15487444Y-13097008D01*
X15487444Y-13097008D02*
X15496967Y-13106531D01*
X15496967Y-13106531D02*
X15506491Y-13125579D01*
X15506491Y-13125579D02*
X15516015Y-13163674D01*
X15516015Y-13163674D02*
X15516015Y-13211293D01*
X15516015Y-13211293D02*
X15506491Y-13249388D01*
X15506491Y-13249388D02*
X15496967Y-13268436D01*
X15496967Y-13268436D02*
X15487444Y-13277960D01*
X15487444Y-13277960D02*
X15468396Y-13287484D01*
X15468396Y-13287484D02*
X15449348Y-13287484D01*
X15449348Y-13287484D02*
X15430301Y-13277960D01*
X15430301Y-13277960D02*
X15420777Y-13268436D01*
X15420777Y-13268436D02*
X15411253Y-13249388D01*
X15411253Y-13249388D02*
X15401729Y-13211293D01*
X15401729Y-13211293D02*
X15401729Y-13163674D01*
X15401729Y-13163674D02*
X15411253Y-13125579D01*
X15411253Y-13125579D02*
X15420777Y-13106531D01*
X15420777Y-13106531D02*
X15430301Y-13097008D01*
X15430301Y-13097008D02*
X15449348Y-13087484D01*
X15687444Y-13154150D02*
X15687444Y-13287484D01*
X15639825Y-13077960D02*
X15592206Y-13220817D01*
X15592206Y-13220817D02*
X15716015Y-13220817D01*
X15830301Y-13087484D02*
X15849348Y-13087484D01*
X15849348Y-13087484D02*
X15868396Y-13097008D01*
X15868396Y-13097008D02*
X15877920Y-13106531D01*
X15877920Y-13106531D02*
X15887444Y-13125579D01*
X15887444Y-13125579D02*
X15896967Y-13163674D01*
X15896967Y-13163674D02*
X15896967Y-13211293D01*
X15896967Y-13211293D02*
X15887444Y-13249388D01*
X15887444Y-13249388D02*
X15877920Y-13268436D01*
X15877920Y-13268436D02*
X15868396Y-13277960D01*
X15868396Y-13277960D02*
X15849348Y-13287484D01*
X15849348Y-13287484D02*
X15830301Y-13287484D01*
X15830301Y-13287484D02*
X15811253Y-13277960D01*
X15811253Y-13277960D02*
X15801729Y-13268436D01*
X15801729Y-13268436D02*
X15792206Y-13249388D01*
X15792206Y-13249388D02*
X15782682Y-13211293D01*
X15782682Y-13211293D02*
X15782682Y-13163674D01*
X15782682Y-13163674D02*
X15792206Y-13125579D01*
X15792206Y-13125579D02*
X15801729Y-13106531D01*
X15801729Y-13106531D02*
X15811253Y-13097008D01*
X15811253Y-13097008D02*
X15830301Y-13087484D01*
X15973158Y-13106531D02*
X15982682Y-13097008D01*
X15982682Y-13097008D02*
X16001729Y-13087484D01*
X16001729Y-13087484D02*
X16049348Y-13087484D01*
X16049348Y-13087484D02*
X16068396Y-13097008D01*
X16068396Y-13097008D02*
X16077920Y-13106531D01*
X16077920Y-13106531D02*
X16087444Y-13125579D01*
X16087444Y-13125579D02*
X16087444Y-13144627D01*
X16087444Y-13144627D02*
X16077920Y-13173198D01*
X16077920Y-13173198D02*
X15963634Y-13287484D01*
X15963634Y-13287484D02*
X16087444Y-13287484D01*
X16163634Y-13087484D02*
X16163634Y-13125579D01*
X16239825Y-13087484D02*
X16239825Y-13125579D01*
X16535063Y-13363674D02*
X16525539Y-13354150D01*
X16525539Y-13354150D02*
X16506491Y-13325579D01*
X16506491Y-13325579D02*
X16496968Y-13306531D01*
X16496968Y-13306531D02*
X16487444Y-13277960D01*
X16487444Y-13277960D02*
X16477920Y-13230341D01*
X16477920Y-13230341D02*
X16477920Y-13192246D01*
X16477920Y-13192246D02*
X16487444Y-13144627D01*
X16487444Y-13144627D02*
X16496968Y-13116055D01*
X16496968Y-13116055D02*
X16506491Y-13097008D01*
X16506491Y-13097008D02*
X16525539Y-13068436D01*
X16525539Y-13068436D02*
X16535063Y-13058912D01*
X16696968Y-13154150D02*
X16696968Y-13287484D01*
X16649348Y-13077960D02*
X16601729Y-13220817D01*
X16601729Y-13220817D02*
X16725539Y-13220817D01*
X16782682Y-13087484D02*
X16906491Y-13087484D01*
X16906491Y-13087484D02*
X16839825Y-13163674D01*
X16839825Y-13163674D02*
X16868396Y-13163674D01*
X16868396Y-13163674D02*
X16887444Y-13173198D01*
X16887444Y-13173198D02*
X16896968Y-13182722D01*
X16896968Y-13182722D02*
X16906491Y-13201769D01*
X16906491Y-13201769D02*
X16906491Y-13249388D01*
X16906491Y-13249388D02*
X16896968Y-13268436D01*
X16896968Y-13268436D02*
X16887444Y-13277960D01*
X16887444Y-13277960D02*
X16868396Y-13287484D01*
X16868396Y-13287484D02*
X16811253Y-13287484D01*
X16811253Y-13287484D02*
X16792206Y-13277960D01*
X16792206Y-13277960D02*
X16782682Y-13268436D01*
X17144587Y-13287484D02*
X17144587Y-13087484D01*
X17230301Y-13287484D02*
X17230301Y-13182722D01*
X17230301Y-13182722D02*
X17220777Y-13163674D01*
X17220777Y-13163674D02*
X17201730Y-13154150D01*
X17201730Y-13154150D02*
X17173158Y-13154150D01*
X17173158Y-13154150D02*
X17154111Y-13163674D01*
X17154111Y-13163674D02*
X17144587Y-13173198D01*
X17354111Y-13287484D02*
X17335063Y-13277960D01*
X17335063Y-13277960D02*
X17325539Y-13268436D01*
X17325539Y-13268436D02*
X17316015Y-13249388D01*
X17316015Y-13249388D02*
X17316015Y-13192246D01*
X17316015Y-13192246D02*
X17325539Y-13173198D01*
X17325539Y-13173198D02*
X17335063Y-13163674D01*
X17335063Y-13163674D02*
X17354111Y-13154150D01*
X17354111Y-13154150D02*
X17382682Y-13154150D01*
X17382682Y-13154150D02*
X17401730Y-13163674D01*
X17401730Y-13163674D02*
X17411253Y-13173198D01*
X17411253Y-13173198D02*
X17420777Y-13192246D01*
X17420777Y-13192246D02*
X17420777Y-13249388D01*
X17420777Y-13249388D02*
X17411253Y-13268436D01*
X17411253Y-13268436D02*
X17401730Y-13277960D01*
X17401730Y-13277960D02*
X17382682Y-13287484D01*
X17382682Y-13287484D02*
X17354111Y-13287484D01*
X17535063Y-13287484D02*
X17516015Y-13277960D01*
X17516015Y-13277960D02*
X17506492Y-13258912D01*
X17506492Y-13258912D02*
X17506492Y-13087484D01*
X17687444Y-13277960D02*
X17668396Y-13287484D01*
X17668396Y-13287484D02*
X17630301Y-13287484D01*
X17630301Y-13287484D02*
X17611253Y-13277960D01*
X17611253Y-13277960D02*
X17601730Y-13258912D01*
X17601730Y-13258912D02*
X17601730Y-13182722D01*
X17601730Y-13182722D02*
X17611253Y-13163674D01*
X17611253Y-13163674D02*
X17630301Y-13154150D01*
X17630301Y-13154150D02*
X17668396Y-13154150D01*
X17668396Y-13154150D02*
X17687444Y-13163674D01*
X17687444Y-13163674D02*
X17696968Y-13182722D01*
X17696968Y-13182722D02*
X17696968Y-13201769D01*
X17696968Y-13201769D02*
X17601730Y-13220817D01*
X17773158Y-13277960D02*
X17792206Y-13287484D01*
X17792206Y-13287484D02*
X17830301Y-13287484D01*
X17830301Y-13287484D02*
X17849349Y-13277960D01*
X17849349Y-13277960D02*
X17858873Y-13258912D01*
X17858873Y-13258912D02*
X17858873Y-13249388D01*
X17858873Y-13249388D02*
X17849349Y-13230341D01*
X17849349Y-13230341D02*
X17830301Y-13220817D01*
X17830301Y-13220817D02*
X17801730Y-13220817D01*
X17801730Y-13220817D02*
X17782682Y-13211293D01*
X17782682Y-13211293D02*
X17773158Y-13192246D01*
X17773158Y-13192246D02*
X17773158Y-13182722D01*
X17773158Y-13182722D02*
X17782682Y-13163674D01*
X17782682Y-13163674D02*
X17801730Y-13154150D01*
X17801730Y-13154150D02*
X17830301Y-13154150D01*
X17830301Y-13154150D02*
X17849349Y-13163674D01*
X17925539Y-13363674D02*
X17935063Y-13354150D01*
X17935063Y-13354150D02*
X17954111Y-13325579D01*
X17954111Y-13325579D02*
X17963634Y-13306531D01*
X17963634Y-13306531D02*
X17973158Y-13277960D01*
X17973158Y-13277960D02*
X17982682Y-13230341D01*
X17982682Y-13230341D02*
X17982682Y-13192246D01*
X17982682Y-13192246D02*
X17973158Y-13144627D01*
X17973158Y-13144627D02*
X17963634Y-13116055D01*
X17963634Y-13116055D02*
X17954111Y-13097008D01*
X17954111Y-13097008D02*
X17935063Y-13068436D01*
X17935063Y-13068436D02*
X17925539Y-13058912D01*
D16*
X12850000Y-13405000D02*
X12960000Y-13515000D01*
X12960000Y-13405000D02*
X12850000Y-13515000D01*
X12960000Y-13460000D02*
G75*
G03*
X12960000Y-13460000I-55000J0D01*
G01*
D11*
X13325539Y-13551484D02*
X13211253Y-13551484D01*
X13268396Y-13551484D02*
X13268396Y-13351484D01*
X13268396Y-13351484D02*
X13249348Y-13380055D01*
X13249348Y-13380055D02*
X13230301Y-13399103D01*
X13230301Y-13399103D02*
X13211253Y-13408627D01*
X13411253Y-13532436D02*
X13420777Y-13541960D01*
X13420777Y-13541960D02*
X13411253Y-13551484D01*
X13411253Y-13551484D02*
X13401729Y-13541960D01*
X13401729Y-13541960D02*
X13411253Y-13532436D01*
X13411253Y-13532436D02*
X13411253Y-13551484D01*
X13611253Y-13551484D02*
X13496967Y-13551484D01*
X13554110Y-13551484D02*
X13554110Y-13351484D01*
X13554110Y-13351484D02*
X13535062Y-13380055D01*
X13535062Y-13380055D02*
X13516015Y-13399103D01*
X13516015Y-13399103D02*
X13496967Y-13408627D01*
X13735062Y-13351484D02*
X13754110Y-13351484D01*
X13754110Y-13351484D02*
X13773158Y-13361008D01*
X13773158Y-13361008D02*
X13782682Y-13370531D01*
X13782682Y-13370531D02*
X13792205Y-13389579D01*
X13792205Y-13389579D02*
X13801729Y-13427674D01*
X13801729Y-13427674D02*
X13801729Y-13475293D01*
X13801729Y-13475293D02*
X13792205Y-13513388D01*
X13792205Y-13513388D02*
X13782682Y-13532436D01*
X13782682Y-13532436D02*
X13773158Y-13541960D01*
X13773158Y-13541960D02*
X13754110Y-13551484D01*
X13754110Y-13551484D02*
X13735062Y-13551484D01*
X13735062Y-13551484D02*
X13716015Y-13541960D01*
X13716015Y-13541960D02*
X13706491Y-13532436D01*
X13706491Y-13532436D02*
X13696967Y-13513388D01*
X13696967Y-13513388D02*
X13687443Y-13475293D01*
X13687443Y-13475293D02*
X13687443Y-13427674D01*
X13687443Y-13427674D02*
X13696967Y-13389579D01*
X13696967Y-13389579D02*
X13706491Y-13370531D01*
X13706491Y-13370531D02*
X13716015Y-13361008D01*
X13716015Y-13361008D02*
X13735062Y-13351484D01*
X13925539Y-13351484D02*
X13944586Y-13351484D01*
X13944586Y-13351484D02*
X13963634Y-13361008D01*
X13963634Y-13361008D02*
X13973158Y-13370531D01*
X13973158Y-13370531D02*
X13982682Y-13389579D01*
X13982682Y-13389579D02*
X13992205Y-13427674D01*
X13992205Y-13427674D02*
X13992205Y-13475293D01*
X13992205Y-13475293D02*
X13982682Y-13513388D01*
X13982682Y-13513388D02*
X13973158Y-13532436D01*
X13973158Y-13532436D02*
X13963634Y-13541960D01*
X13963634Y-13541960D02*
X13944586Y-13551484D01*
X13944586Y-13551484D02*
X13925539Y-13551484D01*
X13925539Y-13551484D02*
X13906491Y-13541960D01*
X13906491Y-13541960D02*
X13896967Y-13532436D01*
X13896967Y-13532436D02*
X13887443Y-13513388D01*
X13887443Y-13513388D02*
X13877920Y-13475293D01*
X13877920Y-13475293D02*
X13877920Y-13427674D01*
X13877920Y-13427674D02*
X13887443Y-13389579D01*
X13887443Y-13389579D02*
X13896967Y-13370531D01*
X13896967Y-13370531D02*
X13906491Y-13361008D01*
X13906491Y-13361008D02*
X13925539Y-13351484D01*
X14077920Y-13551484D02*
X14077920Y-13418150D01*
X14077920Y-13437198D02*
X14087443Y-13427674D01*
X14087443Y-13427674D02*
X14106491Y-13418150D01*
X14106491Y-13418150D02*
X14135063Y-13418150D01*
X14135063Y-13418150D02*
X14154110Y-13427674D01*
X14154110Y-13427674D02*
X14163634Y-13446722D01*
X14163634Y-13446722D02*
X14163634Y-13551484D01*
X14163634Y-13446722D02*
X14173158Y-13427674D01*
X14173158Y-13427674D02*
X14192205Y-13418150D01*
X14192205Y-13418150D02*
X14220777Y-13418150D01*
X14220777Y-13418150D02*
X14239824Y-13427674D01*
X14239824Y-13427674D02*
X14249348Y-13446722D01*
X14249348Y-13446722D02*
X14249348Y-13551484D01*
X14344586Y-13551484D02*
X14344586Y-13418150D01*
X14344586Y-13437198D02*
X14354110Y-13427674D01*
X14354110Y-13427674D02*
X14373158Y-13418150D01*
X14373158Y-13418150D02*
X14401729Y-13418150D01*
X14401729Y-13418150D02*
X14420777Y-13427674D01*
X14420777Y-13427674D02*
X14430301Y-13446722D01*
X14430301Y-13446722D02*
X14430301Y-13551484D01*
X14430301Y-13446722D02*
X14439824Y-13427674D01*
X14439824Y-13427674D02*
X14458872Y-13418150D01*
X14458872Y-13418150D02*
X14487443Y-13418150D01*
X14487443Y-13418150D02*
X14506491Y-13427674D01*
X14506491Y-13427674D02*
X14516015Y-13446722D01*
X14516015Y-13446722D02*
X14516015Y-13551484D01*
X14906491Y-13341960D02*
X14735063Y-13599103D01*
X15163634Y-13351484D02*
X15182682Y-13351484D01*
X15182682Y-13351484D02*
X15201729Y-13361008D01*
X15201729Y-13361008D02*
X15211253Y-13370531D01*
X15211253Y-13370531D02*
X15220777Y-13389579D01*
X15220777Y-13389579D02*
X15230301Y-13427674D01*
X15230301Y-13427674D02*
X15230301Y-13475293D01*
X15230301Y-13475293D02*
X15220777Y-13513388D01*
X15220777Y-13513388D02*
X15211253Y-13532436D01*
X15211253Y-13532436D02*
X15201729Y-13541960D01*
X15201729Y-13541960D02*
X15182682Y-13551484D01*
X15182682Y-13551484D02*
X15163634Y-13551484D01*
X15163634Y-13551484D02*
X15144586Y-13541960D01*
X15144586Y-13541960D02*
X15135063Y-13532436D01*
X15135063Y-13532436D02*
X15125539Y-13513388D01*
X15125539Y-13513388D02*
X15116015Y-13475293D01*
X15116015Y-13475293D02*
X15116015Y-13427674D01*
X15116015Y-13427674D02*
X15125539Y-13389579D01*
X15125539Y-13389579D02*
X15135063Y-13370531D01*
X15135063Y-13370531D02*
X15144586Y-13361008D01*
X15144586Y-13361008D02*
X15163634Y-13351484D01*
X15316015Y-13532436D02*
X15325539Y-13541960D01*
X15325539Y-13541960D02*
X15316015Y-13551484D01*
X15316015Y-13551484D02*
X15306491Y-13541960D01*
X15306491Y-13541960D02*
X15316015Y-13532436D01*
X15316015Y-13532436D02*
X15316015Y-13551484D01*
X15449348Y-13351484D02*
X15468396Y-13351484D01*
X15468396Y-13351484D02*
X15487444Y-13361008D01*
X15487444Y-13361008D02*
X15496967Y-13370531D01*
X15496967Y-13370531D02*
X15506491Y-13389579D01*
X15506491Y-13389579D02*
X15516015Y-13427674D01*
X15516015Y-13427674D02*
X15516015Y-13475293D01*
X15516015Y-13475293D02*
X15506491Y-13513388D01*
X15506491Y-13513388D02*
X15496967Y-13532436D01*
X15496967Y-13532436D02*
X15487444Y-13541960D01*
X15487444Y-13541960D02*
X15468396Y-13551484D01*
X15468396Y-13551484D02*
X15449348Y-13551484D01*
X15449348Y-13551484D02*
X15430301Y-13541960D01*
X15430301Y-13541960D02*
X15420777Y-13532436D01*
X15420777Y-13532436D02*
X15411253Y-13513388D01*
X15411253Y-13513388D02*
X15401729Y-13475293D01*
X15401729Y-13475293D02*
X15401729Y-13427674D01*
X15401729Y-13427674D02*
X15411253Y-13389579D01*
X15411253Y-13389579D02*
X15420777Y-13370531D01*
X15420777Y-13370531D02*
X15430301Y-13361008D01*
X15430301Y-13361008D02*
X15449348Y-13351484D01*
X15687444Y-13418150D02*
X15687444Y-13551484D01*
X15639825Y-13341960D02*
X15592206Y-13484817D01*
X15592206Y-13484817D02*
X15716015Y-13484817D01*
X15773158Y-13351484D02*
X15896967Y-13351484D01*
X15896967Y-13351484D02*
X15830301Y-13427674D01*
X15830301Y-13427674D02*
X15858872Y-13427674D01*
X15858872Y-13427674D02*
X15877920Y-13437198D01*
X15877920Y-13437198D02*
X15887444Y-13446722D01*
X15887444Y-13446722D02*
X15896967Y-13465769D01*
X15896967Y-13465769D02*
X15896967Y-13513388D01*
X15896967Y-13513388D02*
X15887444Y-13532436D01*
X15887444Y-13532436D02*
X15877920Y-13541960D01*
X15877920Y-13541960D02*
X15858872Y-13551484D01*
X15858872Y-13551484D02*
X15801729Y-13551484D01*
X15801729Y-13551484D02*
X15782682Y-13541960D01*
X15782682Y-13541960D02*
X15773158Y-13532436D01*
X15963634Y-13351484D02*
X16087444Y-13351484D01*
X16087444Y-13351484D02*
X16020777Y-13427674D01*
X16020777Y-13427674D02*
X16049348Y-13427674D01*
X16049348Y-13427674D02*
X16068396Y-13437198D01*
X16068396Y-13437198D02*
X16077920Y-13446722D01*
X16077920Y-13446722D02*
X16087444Y-13465769D01*
X16087444Y-13465769D02*
X16087444Y-13513388D01*
X16087444Y-13513388D02*
X16077920Y-13532436D01*
X16077920Y-13532436D02*
X16068396Y-13541960D01*
X16068396Y-13541960D02*
X16049348Y-13551484D01*
X16049348Y-13551484D02*
X15992206Y-13551484D01*
X15992206Y-13551484D02*
X15973158Y-13541960D01*
X15973158Y-13541960D02*
X15963634Y-13532436D01*
X16163634Y-13351484D02*
X16163634Y-13389579D01*
X16239825Y-13351484D02*
X16239825Y-13389579D01*
X16535063Y-13627674D02*
X16525539Y-13618150D01*
X16525539Y-13618150D02*
X16506491Y-13589579D01*
X16506491Y-13589579D02*
X16496968Y-13570531D01*
X16496968Y-13570531D02*
X16487444Y-13541960D01*
X16487444Y-13541960D02*
X16477920Y-13494341D01*
X16477920Y-13494341D02*
X16477920Y-13456246D01*
X16477920Y-13456246D02*
X16487444Y-13408627D01*
X16487444Y-13408627D02*
X16496968Y-13380055D01*
X16496968Y-13380055D02*
X16506491Y-13361008D01*
X16506491Y-13361008D02*
X16525539Y-13332436D01*
X16525539Y-13332436D02*
X16535063Y-13322912D01*
X16592206Y-13351484D02*
X16716015Y-13351484D01*
X16716015Y-13351484D02*
X16649348Y-13427674D01*
X16649348Y-13427674D02*
X16677920Y-13427674D01*
X16677920Y-13427674D02*
X16696968Y-13437198D01*
X16696968Y-13437198D02*
X16706491Y-13446722D01*
X16706491Y-13446722D02*
X16716015Y-13465769D01*
X16716015Y-13465769D02*
X16716015Y-13513388D01*
X16716015Y-13513388D02*
X16706491Y-13532436D01*
X16706491Y-13532436D02*
X16696968Y-13541960D01*
X16696968Y-13541960D02*
X16677920Y-13551484D01*
X16677920Y-13551484D02*
X16620777Y-13551484D01*
X16620777Y-13551484D02*
X16601729Y-13541960D01*
X16601729Y-13541960D02*
X16592206Y-13532436D01*
X16954111Y-13551484D02*
X16954111Y-13351484D01*
X17039825Y-13551484D02*
X17039825Y-13446722D01*
X17039825Y-13446722D02*
X17030301Y-13427674D01*
X17030301Y-13427674D02*
X17011253Y-13418150D01*
X17011253Y-13418150D02*
X16982682Y-13418150D01*
X16982682Y-13418150D02*
X16963634Y-13427674D01*
X16963634Y-13427674D02*
X16954111Y-13437198D01*
X17163634Y-13551484D02*
X17144587Y-13541960D01*
X17144587Y-13541960D02*
X17135063Y-13532436D01*
X17135063Y-13532436D02*
X17125539Y-13513388D01*
X17125539Y-13513388D02*
X17125539Y-13456246D01*
X17125539Y-13456246D02*
X17135063Y-13437198D01*
X17135063Y-13437198D02*
X17144587Y-13427674D01*
X17144587Y-13427674D02*
X17163634Y-13418150D01*
X17163634Y-13418150D02*
X17192206Y-13418150D01*
X17192206Y-13418150D02*
X17211253Y-13427674D01*
X17211253Y-13427674D02*
X17220777Y-13437198D01*
X17220777Y-13437198D02*
X17230301Y-13456246D01*
X17230301Y-13456246D02*
X17230301Y-13513388D01*
X17230301Y-13513388D02*
X17220777Y-13532436D01*
X17220777Y-13532436D02*
X17211253Y-13541960D01*
X17211253Y-13541960D02*
X17192206Y-13551484D01*
X17192206Y-13551484D02*
X17163634Y-13551484D01*
X17344587Y-13551484D02*
X17325539Y-13541960D01*
X17325539Y-13541960D02*
X17316015Y-13522912D01*
X17316015Y-13522912D02*
X17316015Y-13351484D01*
X17496968Y-13541960D02*
X17477920Y-13551484D01*
X17477920Y-13551484D02*
X17439825Y-13551484D01*
X17439825Y-13551484D02*
X17420777Y-13541960D01*
X17420777Y-13541960D02*
X17411253Y-13522912D01*
X17411253Y-13522912D02*
X17411253Y-13446722D01*
X17411253Y-13446722D02*
X17420777Y-13427674D01*
X17420777Y-13427674D02*
X17439825Y-13418150D01*
X17439825Y-13418150D02*
X17477920Y-13418150D01*
X17477920Y-13418150D02*
X17496968Y-13427674D01*
X17496968Y-13427674D02*
X17506492Y-13446722D01*
X17506492Y-13446722D02*
X17506492Y-13465769D01*
X17506492Y-13465769D02*
X17411253Y-13484817D01*
X17582682Y-13541960D02*
X17601730Y-13551484D01*
X17601730Y-13551484D02*
X17639825Y-13551484D01*
X17639825Y-13551484D02*
X17658873Y-13541960D01*
X17658873Y-13541960D02*
X17668396Y-13522912D01*
X17668396Y-13522912D02*
X17668396Y-13513388D01*
X17668396Y-13513388D02*
X17658873Y-13494341D01*
X17658873Y-13494341D02*
X17639825Y-13484817D01*
X17639825Y-13484817D02*
X17611253Y-13484817D01*
X17611253Y-13484817D02*
X17592206Y-13475293D01*
X17592206Y-13475293D02*
X17582682Y-13456246D01*
X17582682Y-13456246D02*
X17582682Y-13446722D01*
X17582682Y-13446722D02*
X17592206Y-13427674D01*
X17592206Y-13427674D02*
X17611253Y-13418150D01*
X17611253Y-13418150D02*
X17639825Y-13418150D01*
X17639825Y-13418150D02*
X17658873Y-13427674D01*
X17735063Y-13627674D02*
X17744587Y-13618150D01*
X17744587Y-13618150D02*
X17763634Y-13589579D01*
X17763634Y-13589579D02*
X17773158Y-13570531D01*
X17773158Y-13570531D02*
X17782682Y-13541960D01*
X17782682Y-13541960D02*
X17792206Y-13494341D01*
X17792206Y-13494341D02*
X17792206Y-13456246D01*
X17792206Y-13456246D02*
X17782682Y-13408627D01*
X17782682Y-13408627D02*
X17773158Y-13380055D01*
X17773158Y-13380055D02*
X17763634Y-13361008D01*
X17763634Y-13361008D02*
X17744587Y-13332436D01*
X17744587Y-13332436D02*
X17735063Y-13322912D01*
M02*
