M48
; DRILL file {KiCad 7.0.7} date Tue 17 Oct 2023 10:27:15 AM PDT
; FORMAT={-:-/ absolute / metric / decimal}
; #@! TF.CreationDate,2023-10-17T10:27:15-07:00
; #@! TF.GenerationSoftware,Kicad,Pcbnew,7.0.7
; #@! TF.FileFunction,Plated,1,2,PTH
FMAT,2
METRIC
; #@! TA.AperFunction,Plated,PTH,ViaDrill
T1C0.400
; #@! TA.AperFunction,Plated,PTH,ComponentDrill
T2C0.800
; #@! TA.AperFunction,Plated,PTH,ComponentDrill
T3C0.950
; #@! TA.AperFunction,Plated,PTH,ComponentDrill
T4C1.000
; #@! TA.AperFunction,Plated,PTH,ComponentDrill
T5C1.020
; #@! TA.AperFunction,Plated,PTH,ComponentDrill
T6C1.100
%
G90
G05
T1
X132.8Y-65.95
X132.8Y-82.1
X132.8Y-98.3
X137.75Y-65.95
X137.75Y-82.1
X137.75Y-98.3
X143.15Y-70.0
X143.2Y-86.2
X143.25Y-53.85
X143.25Y-102.4
X151.6Y-70.85
X151.6Y-89.85
X151.65Y-54.35
X153.0Y-106.1
X154.15Y-71.4
X154.25Y-55.35
X154.35Y-88.9
X155.0Y-108.75
X155.1Y-103.75
X156.95Y-71.0
X157.75Y-62.35
X157.85Y-78.4
X158.2Y-94.4
X159.35Y-110.8
X159.55Y-89.4
X159.65Y-56.9
X164.0Y-104.0
X164.25Y-108.95
X167.45Y-63.45
X167.65Y-53.25
X167.65Y-58.25
X167.65Y-73.45
X167.75Y-68.5
X167.85Y-78.55
X168.21Y-95.26
X169.55Y-81.6
X170.65Y-103.95
X170.7Y-91.7
X170.95Y-96.1
X171.35Y-86.35
X172.45Y-78.35
X173.85Y-83.2
X175.65Y-74.85
X175.85Y-62.2
X175.9Y-66.9
X175.9Y-71.2
X176.0Y-57.85
X176.65Y-96.3
X176.9Y-80.3
X177.95Y-105.45
X178.05Y-69.85
X179.9Y-88.7
X179.95Y-93.75
X180.0Y-78.6
X180.05Y-63.45
X180.1Y-68.35
X180.1Y-73.55
X180.1Y-83.6
X180.25Y-58.4
X188.1Y-64.65
T2
X141.56Y-51.5
X141.56Y-64.2
X141.56Y-67.663
X141.56Y-80.363
X141.56Y-83.827
X141.56Y-96.527
X141.56Y-99.99
X141.56Y-112.69
X144.1Y-51.5
X144.1Y-64.2
X144.1Y-67.663
X144.1Y-80.363
X144.1Y-83.827
X144.1Y-96.527
X144.1Y-99.99
X144.1Y-112.69
X146.64Y-51.5
X146.64Y-64.2
X146.64Y-67.663
X146.64Y-80.363
X146.64Y-83.827
X146.64Y-96.527
X146.64Y-99.99
X146.64Y-112.69
X149.18Y-51.5
X149.18Y-64.2
X149.18Y-67.663
X149.18Y-80.363
X149.18Y-83.827
X149.18Y-96.527
X149.18Y-99.99
X149.18Y-112.69
X151.72Y-51.5
X151.72Y-64.2
X151.72Y-67.663
X151.72Y-80.363
X151.72Y-83.827
X151.72Y-96.527
X151.72Y-99.99
X151.72Y-112.69
X154.26Y-51.5
X154.26Y-64.2
X154.26Y-67.663
X154.26Y-80.363
X154.26Y-83.827
X154.26Y-96.527
X154.26Y-99.99
X154.26Y-112.69
X156.8Y-51.5
X156.8Y-64.2
X156.8Y-67.663
X156.8Y-80.363
X156.8Y-83.827
X156.8Y-96.527
X156.8Y-99.99
X156.8Y-112.69
X157.46Y-56.542
X157.46Y-59.042
X157.46Y-72.706
X157.46Y-75.206
X157.46Y-88.869
X157.46Y-91.369
X157.46Y-105.032
X157.46Y-107.532
X159.34Y-51.5
X159.34Y-64.2
X159.34Y-67.663
X159.34Y-80.363
X159.34Y-83.827
X159.34Y-96.527
X159.34Y-99.99
X159.34Y-112.69
T3
X135.65Y-54.11
X135.65Y-56.61
X135.65Y-59.11
X135.65Y-61.61
X135.65Y-70.273
X135.65Y-72.773
X135.65Y-75.273
X135.65Y-77.773
X135.65Y-86.437
X135.65Y-88.937
X135.65Y-91.437
X135.65Y-93.937
X135.65Y-102.6
X135.65Y-105.1
X135.65Y-107.6
X135.65Y-110.1
X189.475Y-52.95
X189.475Y-55.45
X189.475Y-57.95
X189.475Y-94.2
X189.475Y-96.7
X189.475Y-99.2
T4
X191.55Y-63.35
X191.55Y-65.89
X191.55Y-68.43
X191.55Y-70.97
X191.55Y-73.51
X191.55Y-76.05
X191.55Y-78.59
X191.55Y-81.13
X191.55Y-83.67
X191.55Y-86.21
X191.55Y-88.75
T5
X165.05Y-51.93
X165.05Y-54.47
X165.05Y-57.01
X165.05Y-59.55
X165.05Y-62.09
X165.05Y-64.63
X165.05Y-67.17
X165.05Y-69.71
X165.05Y-72.25
X165.05Y-74.79
X165.05Y-77.33
X165.05Y-79.87
X165.05Y-82.41
X165.05Y-84.95
X165.05Y-87.49
X165.05Y-90.03
X165.05Y-92.57
X165.05Y-95.11
X165.05Y-97.65
X165.05Y-100.19
X171.4Y-99.96
X173.94Y-99.96
X176.48Y-99.96
X182.83Y-51.93
X182.83Y-54.47
X182.83Y-57.01
X182.83Y-59.55
X182.83Y-62.09
X182.83Y-64.63
X182.83Y-67.17
X182.83Y-69.71
X182.83Y-72.25
X182.83Y-74.79
X182.83Y-77.33
X182.83Y-79.87
X182.83Y-82.41
X182.83Y-84.95
X182.83Y-87.49
X182.83Y-90.03
X182.83Y-92.57
X182.83Y-95.11
X182.83Y-97.65
X182.83Y-100.19
T6
X168.21Y-109.05
X170.75Y-109.05
X173.29Y-109.05
T2
X180.2Y-110.05G85X180.2Y-107.85
G05
X184.1Y-104.35G85X181.9Y-104.35
G05
X186.3Y-110.05G85X186.3Y-107.85
G05
T0
M30
